<?xml version="1.0" encoding="utf-8"?>
<!-- Generator: Adobe Illustrator 18.1.1, SVG Export Plug-In . SVG Version: 6.00 Build 0)  -->
<svg version="1.1" id="Layer_1" xmlns="http://www.w3.org/2000/svg" xmlns:xlink="http://www.w3.org/1999/xlink" x="0px" y="0px"
	 viewBox="0 0 1000 1000" enable-background="new 0 0 1000 1000" xml:space="preserve">
<g>
	<path d="M48.1,90.4l-5.4,0V5.9c-4.4,0.1-5.6,0.4-9.1,1.6V2.1C37.8,0.7,42.4,0,47.2,0c0.3,0,0.4,0,0.6,0c0.1,0,0.2,0,0.3,0V90.4z"/>
	<path d="M137.4,90.4c-13,0-24.8-5.8-33-14.7l47.2-36.2c4.5-3.7,7.3-9.1,7.3-15.1c0-11.1-9.5-19.4-21.3-19.4
		c-11.7,0-20.9,8.3-20.9,19.4c0,1.6,0.2,3.2,0.6,4.7h-5.2c-0.3-1.5-0.5-3.1-0.5-4.6c0-13.5,11.8-24.4,26-24.4s26.3,10.9,26.3,24.4
		c0,6.7-2.9,12.8-7.5,17.2l-44.2,33.9c7,5.9,15.4,9.4,25.3,9.4c9.7,0,18.6-3.4,25.6-9.1c0.9,0.1,2.2,0.1,3.5,0.1c1.4,0,2.9,0,4-0.1
		C162.4,84.8,150.6,90.4,137.4,90.4z"/>
	<path d="M266.2,59.9c0,16.6-16.6,30.1-37.1,30.1c-19.2,0-35-11.9-36.9-27.1h7.4c1.9,11.4,14,20.2,29.5,20.2
		c16.8,0,30.3-10.7,30.3-23.5c0-5.1-3.8-9.9-7.5-13.7c-2.7-2.7-5.8-3.2-13.7-3.2H216v-5.3h22.1c5.2,0,9.8-0.3,13-4.6
		c2.1-2.5,3.3-5.4,3.3-8.5c0-9.9-9.8-18.3-25.1-18.3c-13.7,0-24.5,6.8-26.7,15.4h-7.2C197.4,9.1,211.6,0,229.2,0
		c19,0,31.9,10.7,31.9,24.3c0,5.6-2.6,10.7-7,14.9C261.2,43.8,266.2,51.9,266.2,59.9z"/>
	<path d="M363.8,49.7c-0.3,3.1-0.9,6.1-1.8,8.9l-29.3,0l0,29.6c-2.9,0.9-5.8,1.6-8.9,1.9l0-31.4l-48,0c-1.3-4.3-2-8.8-2-13.5
		c0-25,20.2-45.2,45.2-45.2c5.1,0,9.7,0.8,13.8,2.1l0,47.6H363.8z M323.8,9.3c-1.8-0.3-3.6-0.4-5.4-0.4c-19.9,0-36,16.1-36,36
		c0,1.6,0.1,3.2,0.3,4.8h41.1V9.3z"/>
	<path d="M431.4,18c-6.4-5.5-13.4-8.3-22.3-8.3c-11.3,0-21.5,6.5-27.6,14.9v11.8c7.2-6.7,18.4-10.7,30.3-10.7
		c21.4,0,38.8,14,38.8,31.2c0,6.8-2.8,13.1-7.4,18.2c-8.3,9.4-20.4,15.3-33.9,15.3c-17.3,0-32.3-9.7-39.9-23.9l12.2,0
		c6.2,8.4,17,13.9,29,13.9c15.9,0,29.1-10.1,29.1-22.6c0-12.5-12.9-22.9-28.8-22.9c-10.4,0-24.1,5.7-29.1,12.2h-11.1V21.7
		C378.8,8.7,393.1,0,409.5,0c14.7,0,27.8,7.1,36,18L431.4,18z"/>
	<path d="M541.2,56.9c0,6.8-2.8,13.1-7.4,18.2c-8.3,9.4-20.4,15.3-33.9,15.3c-25,0-45.1-20.2-45.1-45.2c0-25,20.2-45.2,45.2-45.2
		c16.3,0,30.6,8.7,38.5,21.7l-14.2,0c-6.1-6.6-14.8-10.7-24.6-10.7c-18.4,0-33.3,14.6-33.3,32.5c0,0.3,0,0.5,0,0.8
		c6.1-11,20-18.6,36-18.6C523.8,25.6,541.2,39.6,541.2,56.9z M530.1,57.7c0-12.5-12.9-22.6-28.8-22.6c-15.9,0-28.8,10.1-28.8,22.6
		c0,12.5,12.9,22.6,28.8,22.6C517.2,80.3,530.1,70.2,530.1,57.7z"/>
	<path d="M590.6,90.4c-8.8,0-17-2.5-23.9-6.8l32.7-45.2c0.3-0.8,0.5-1.6,0.5-2.5c0-4.8-5.1-8-9.9-8s-9.9,3.2-9.9,8.3h-26.4l0-16.7
		C561.9,7.7,575.2,0,590.6,0c19.9,0,36.8,12.7,42.8,30.6l-40,59.7C592.4,90.3,591.5,90.4,590.6,90.4z"/>
	<path d="M719.8,59.7c0,16.7-17.3,30.3-38.7,30.3c-21.4,0-38.7-13.6-38.7-30.3c0-9.8,5.9-18.5,15.1-24c-3.5-3.7-5.5-8.2-5.5-13.2
		c0-12.4,13.1-22.5,29.2-22.5s29.2,10.1,29.2,22.5c0,4.9-2.1,9.5-5.6,13.2C714,41.3,719.8,50,719.8,59.7z M697.3,59.4
		c0-8-7.3-14.6-16.4-14.6c-9,0-16.4,6.5-16.4,14.6S671.9,74,680.9,74C690,74,697.3,67.4,697.3,59.4z M670.4,22.1c0,3.9,4.7,7,10.6,7
		c5.8,0,10.6-3.1,10.6-7c0-3.9-4.7-7-10.6-7C675.1,15.1,670.4,18.2,670.4,22.1z"/>
	<path d="M816.9,45.2c0,25-20.2,45.2-45.2,45.2c-18.9,0-35.2-11.7-41.9-28.2l20.7,0c4.9,6.4,12.7,10.5,21.4,10.5
		c12.1,0,22.3-7.8,25.7-18.7c-6.8,5.1-15.9,8.2-26,8.2c-21.2,0-38.4-13.9-38.4-31.1S750.4,0,771.7,0C796.6,0,816.9,20.2,816.9,45.2z
		 M788.5,31.1c0-8.2-7.5-14.9-16.8-14.9c-9.3,0-16.8,6.7-16.8,14.9S762.4,46,771.7,46C781,46,788.5,39.3,788.5,31.1z"/>
	<path d="M863.1,90.4l-5.4,0V5.9c-4.4,0.1-5.6,0.4-9.1,1.6V2.1c4.3-1.4,8.9-2.1,13.6-2.1c0.3,0,0.4,0,0.6,0c0.1,0,0.2,0,0.3,0V90.4z
		"/>
	<path d="M953.7,90.4l-5.4,0V5.9c-4.4,0.1-5.6,0.4-9.1,1.6V2.1C943.5,0.7,948,0,952.8,0c0.3,0,0.4,0,0.6,0c0.1,0,0.2,0,0.3,0V90.4z"
		/>
	<path d="M970.1,81.6l-1.7,0V54.9c-1.4,0-1.8,0.1-2.9,0.5v-1.7c1.4-0.4,2.8-0.7,4.3-0.7c0.1,0,0.1,0,0.2,0c0,0,0.1,0,0.1,0V81.6z"/>
	<path d="M48.1,204.1l-5.4,0v-84.5c-4.4,0.1-5.6,0.4-9.1,1.6v-5.4c4.3-1.4,8.9-2.1,13.6-2.1c0.3,0,0.4,0,0.6,0c0.1,0,0.2,0,0.3,0
		V204.1z"/>
	<path d="M64.1,195.3c-4.1,0-7.8-1.8-10.4-4.6l14.9-11.4c1.4-1.2,2.3-2.9,2.3-4.8c0-3.5-3-6.1-6.7-6.1c-3.7,0-6.6,2.6-6.6,6.1
		c0,0.5,0.1,1,0.2,1.5h-1.7c-0.1-0.5-0.1-1-0.1-1.5c0-4.3,3.7-7.7,8.2-7.7c4.5,0,8.3,3.5,8.3,7.7c0,2.1-0.9,4-2.4,5.4l-13.9,10.7
		c2.2,1.8,4.9,3,8,3c3.1,0,5.9-1.1,8.1-2.9c0.3,0,0.7,0,1.1,0c0.5,0,0.9,0,1.3,0C71.9,193.5,68.2,195.3,64.1,195.3z"/>
	<path d="M138.7,204.1l-5.4,0v-84.5c-4.4,0.1-5.6,0.4-9.1,1.6v-5.4c4.3-1.4,8.9-2.1,13.6-2.1c0.3,0,0.4,0,0.6,0c0.1,0,0.2,0,0.3,0
		V204.1z"/>
	<path d="M166.7,185.7c0,5.2-5.2,9.5-11.7,9.5c-6.1,0-11-3.7-11.6-8.5h2.3c0.6,3.6,4.4,6.4,9.3,6.4c5.3,0,9.6-3.4,9.6-7.4
		c0-1.6-1.2-3.1-2.4-4.3c-0.9-0.9-1.8-1-4.3-1h-7v-1.7h7c1.6,0,3.1-0.1,4.1-1.4c0.7-0.8,1-1.7,1-2.7c0-3.1-3.1-5.8-7.9-5.8
		c-4.3,0-7.7,2.1-8.4,4.9h-2.3c0.6-3.9,5.1-6.7,10.7-6.7c6,0,10.1,3.4,10.1,7.7c0,1.8-0.8,3.4-2.2,4.7
		C165.1,180.6,166.7,183.1,166.7,185.7z"/>
	<path d="M229.2,204.1l-5.4,0v-84.5c-4.4,0.1-5.6,0.4-9.1,1.6v-5.4c4.3-1.4,8.9-2.1,13.6-2.1c0.3,0,0.4,0,0.6,0c0.1,0,0.2,0,0.3,0
		V204.1z"/>
	<path d="M259.5,182.5c-0.1,1-0.3,1.9-0.6,2.8h-9.3l0,9.3c-0.9,0.3-1.8,0.5-2.8,0.6l0-9.9l-15.1,0c-0.4-1.3-0.6-2.8-0.6-4.2
		c0-7.9,6.4-14.2,14.2-14.2c1.6,0,3.1,0.3,4.3,0.7l0,15H259.5z M246.9,169.7c-0.6-0.1-1.1-0.1-1.7-0.1c-6.3,0-11.4,5.1-11.4,11.4
		c0,0.5,0,1,0.1,1.5h13V169.7z"/>
	<path d="M319.8,204.1l-5.4,0v-84.5c-4.4,0.1-5.6,0.4-9.1,1.6v-5.4c4.3-1.4,8.9-2.1,13.6-2.1c0.3,0,0.4,0,0.6,0c0.1,0,0.2,0,0.3,0
		V204.1z"/>
	<path d="M342.8,172.5c-2-1.7-4.2-2.6-7-2.6c-3.6,0-6.8,2-8.7,4.7v3.7c2.3-2.1,5.8-3.4,9.6-3.4c6.8,0,12.2,4.4,12.2,9.9
		c0,2.1-0.9,4.1-2.3,5.7c-2.6,3-6.4,4.8-10.7,4.8c-5.4,0-10.2-3.1-12.6-7.6h3.8c1.9,2.6,5.4,4.4,9.1,4.4c5,0,9.2-3.2,9.2-7.1
		s-4.1-7.2-9.1-7.2c-3.3,0-7.6,1.8-9.2,3.9h-3.5v-8c2.5-4.1,7-6.8,12.2-6.8c4.6,0,8.8,2.2,11.4,5.7L342.8,172.5z"/>
	<path d="M410.3,204.1l-5.4,0v-84.5c-4.4,0.1-5.6,0.4-9.1,1.6v-5.4c4.3-1.4,8.9-2.1,13.6-2.1c0.3,0,0.4,0,0.6,0c0.1,0,0.2,0,0.3,0
		V204.1z"/>
	<path d="M439.4,184.7c0,2.1-0.9,4.1-2.3,5.7c-2.6,3-6.4,4.8-10.7,4.8c-7.9,0-14.2-6.4-14.2-14.2c0-7.9,6.4-14.2,14.2-14.2
		c5.1,0,9.6,2.7,12.1,6.8l-4.5,0c-1.9-2.1-4.7-3.4-7.8-3.4c-5.8,0-10.5,4.6-10.5,10.3c0,0.1,0,0.2,0,0.2c1.9-3.5,6.3-5.9,11.3-5.9
		C434,174.9,439.4,179.3,439.4,184.7z M435.9,185c0-3.9-4.1-7.1-9.1-7.1s-9.1,3.2-9.1,7.1s4.1,7.1,9.1,7.1S435.9,188.9,435.9,185z"
		/>
	<path d="M500.9,204.1l-5.4,0v-84.5c-4.4,0.1-5.6,0.4-9.1,1.6v-5.4c4.3-1.4,8.9-2.1,13.6-2.1c0.3,0,0.4,0,0.6,0c0.1,0,0.2,0,0.3,0
		V204.1z"/>
	<path d="M517,195.3c-2.8,0-5.4-0.8-7.5-2.2l10.3-14.3c0.1-0.2,0.2-0.5,0.2-0.8c0-1.5-1.6-2.5-3.1-2.5s-3.1,1-3.1,2.6h-8.3l0-5.3
		c2.6-3.7,6.8-6.1,11.6-6.1c6.3,0,11.6,4,13.5,9.7l-12.6,18.8C517.6,195.3,517.3,195.3,517,195.3z"/>
	<path d="M591.5,204.1l-5.4,0v-84.5c-4.4,0.1-5.6,0.4-9.1,1.6v-5.4c4.3-1.4,8.9-2.1,13.6-2.1c0.3,0,0.4,0,0.6,0c0.1,0,0.2,0,0.3,0
		V204.1z"/>
	<path d="M619.8,185.6c0,5.3-5.5,9.6-12.2,9.6c-6.7,0-12.2-4.3-12.2-9.6c0-3.1,1.9-5.8,4.8-7.6c-1.1-1.2-1.7-2.6-1.7-4.1
		c0-3.9,4.1-7.1,9.2-7.1c5.1,0,9.2,3.2,9.2,7.1c0,1.6-0.7,3-1.8,4.2C617.9,179.8,619.8,182.5,619.8,185.6z M612.7,185.5
		c0-2.5-2.3-4.6-5.2-4.6c-2.8,0-5.2,2.1-5.2,4.6c0,2.5,2.3,4.6,5.2,4.6C610.3,190.1,612.7,188,612.7,185.5z M604.2,173.8
		c0,1.2,1.5,2.2,3.3,2.2c1.8,0,3.3-1,3.3-2.2c0-1.2-1.5-2.2-3.3-2.2C605.7,171.5,604.2,172.5,604.2,173.8z"/>
	<path d="M682,204.1l-5.4,0v-84.5c-4.4,0.1-5.6,0.4-9.1,1.6v-5.4c4.3-1.4,8.9-2.1,13.6-2.1c0.3,0,0.4,0,0.6,0c0.1,0,0.2,0,0.3,0
		V204.1z"/>
	<path d="M712.4,181c0,7.9-6.4,14.2-14.2,14.2c-6,0-11.1-3.7-13.2-8.9l6.5,0c1.5,2,4,3.3,6.8,3.3c3.8,0,7-2.5,8.1-5.9
		c-2.2,1.6-5,2.6-8.2,2.6c-6.7,0-12.1-4.4-12.1-9.8s5.4-9.8,12.1-9.8C706,166.8,712.4,173.2,712.4,181z M703.4,176.6
		c0-2.6-2.4-4.7-5.3-4.7s-5.3,2.1-5.3,4.7s2.4,4.7,5.3,4.7S703.4,179.2,703.4,176.6z"/>
	<path d="M771.4,204.1c-13,0-24.8-5.8-33-14.7l47.2-36.2c4.5-3.7,7.3-9.1,7.3-15.1c0-11.1-9.5-19.4-21.3-19.4s-20.9,8.3-20.9,19.4
		c0,1.6,0.2,3.2,0.6,4.7H746c-0.3-1.5-0.5-3.1-0.5-4.6c0-13.5,11.8-24.4,26-24.4s26.3,10.9,26.3,24.4c0,6.7-2.9,12.8-7.5,17.2
		l-44.2,33.9c7,5.9,15.4,9.4,25.3,9.4c9.7,0,18.6-3.4,25.6-9.1c0.9,0.1,2.2,0.1,3.5,0.1c1.4,0,2.9,0,4-0.1
		C796.3,198.5,784.5,204.1,771.4,204.1z"/>
	<path d="M861.9,204.1c-13,0-24.8-5.8-33-14.7l47.2-36.2c4.5-3.7,7.3-9.1,7.3-15.1c0-11.1-9.5-19.4-21.3-19.4s-20.9,8.3-20.9,19.4
		c0,1.6,0.2,3.2,0.6,4.7h-5.2c-0.3-1.5-0.5-3.1-0.5-4.6c0-13.5,11.8-24.4,26-24.4s26.3,10.9,26.3,24.4c0,6.7-2.9,12.8-7.5,17.2
		l-44.2,33.9c7,5.9,15.4,9.4,25.3,9.4c9.7,0,18.6-3.4,25.6-9.1c0.9,0.1,2.2,0.1,3.5,0.1c1.4,0,2.9,0,4-0.1
		C886.8,198.5,875,204.1,861.9,204.1z"/>
	<path d="M883.5,187.6l-1.7,0v-26.6c-1.4,0-1.8,0.1-2.9,0.5v-1.7c1.4-0.4,2.8-0.7,4.3-0.7c0.1,0,0.1,0,0.2,0c0,0,0.1,0,0.1,0V187.6z
		"/>
	<path d="M952.5,204.1c-13,0-24.8-5.8-33-14.7l47.2-36.2c4.5-3.7,7.3-9.1,7.3-15.1c0-11.1-9.5-19.4-21.3-19.4s-20.9,8.3-20.9,19.4
		c0,1.6,0.2,3.2,0.6,4.7h-5.2c-0.3-1.5-0.5-3.1-0.5-4.6c0-13.5,11.8-24.4,26-24.4s26.3,10.9,26.3,24.4c0,6.7-2.9,12.8-7.5,17.2
		l-44.2,33.9c7,5.9,15.4,9.4,25.3,9.4c9.7,0,18.6-3.4,25.6-9.1c0.9,0.1,2.2,0.1,3.5,0.1c1.4,0,2.9,0,4-0.1
		C977.4,198.5,965.6,204.1,952.5,204.1z"/>
	<path d="M973.7,187.6c-4.1,0-7.8-1.8-10.4-4.6l14.9-11.4c1.4-1.2,2.3-2.9,2.3-4.8c0-3.5-3-6.1-6.7-6.1s-6.6,2.6-6.6,6.1
		c0,0.5,0.1,1,0.2,1.5h-1.7c-0.1-0.5-0.1-1-0.1-1.5c0-4.3,3.7-7.7,8.2-7.7c4.5,0,8.3,3.5,8.3,7.7c0,2.1-0.9,4-2.4,5.4l-13.9,10.7
		c2.2,1.8,4.9,3,8,3c3.1,0,5.9-1.1,8.1-2.9c0.3,0,0.7,0,1.1,0c0.5,0,0.9,0,1.3,0C981.5,185.8,977.8,187.6,973.7,187.6z"/>
	<path d="M46.9,317.8c-13,0-24.8-5.8-33-14.7l47.2-36.2c4.5-3.7,7.3-9.1,7.3-15.1c0-11.1-9.5-19.4-21.3-19.4
		c-11.7,0-20.9,8.3-20.9,19.4c0,1.6,0.2,3.2,0.6,4.7h-5.2c-0.3-1.5-0.5-3.1-0.5-4.6c0-13.5,11.8-24.4,26-24.4s26.3,10.9,26.3,24.4
		c0,6.7-2.9,12.8-7.5,17.2L21.6,303c7,5.9,15.4,9.4,25.3,9.4c9.7,0,18.6-3.4,25.6-9.1c0.9,0.1,2.2,0.1,3.5,0.1c1.4,0,2.9,0,4-0.1
		C71.8,312.2,60,317.8,46.9,317.8z"/>
	<path d="M80.1,291.7c0,5.2-5.2,9.5-11.7,9.5c-6.1,0-11-3.7-11.6-8.5H59c0.6,3.6,4.4,6.4,9.3,6.4c5.3,0,9.6-3.4,9.6-7.4
		c0-1.6-1.2-3.1-2.4-4.3c-0.9-0.9-1.8-1-4.3-1h-7v-1.7h7c1.6,0,3.1-0.1,4.1-1.4c0.7-0.8,1-1.7,1-2.7c0-3.1-3.1-5.8-7.9-5.8
		c-4.3,0-7.7,2.1-8.4,4.9h-2.3c0.6-3.9,5.1-6.7,10.7-6.7c6,0,10.1,3.4,10.1,7.7c0,1.8-0.8,3.4-2.2,4.7
		C78.5,286.6,80.1,289.1,80.1,291.7z"/>
	<path d="M137.4,317.8c-13,0-24.8-5.8-33-14.7l47.2-36.2c4.5-3.7,7.3-9.1,7.3-15.1c0-11.1-9.5-19.4-21.3-19.4
		c-11.7,0-20.9,8.3-20.9,19.4c0,1.6,0.2,3.2,0.6,4.7h-5.2c-0.3-1.5-0.5-3.1-0.5-4.6c0-13.5,11.8-24.4,26-24.4s26.3,10.9,26.3,24.4
		c0,6.7-2.9,12.8-7.5,17.2L112.2,303c7,5.9,15.4,9.4,25.3,9.4c9.7,0,18.6-3.4,25.6-9.1c0.9,0.1,2.2,0.1,3.5,0.1c1.4,0,2.9,0,4-0.1
		C162.4,312.2,150.6,317.8,137.4,317.8z"/>
	<path d="M172.9,288.4c-0.1,1-0.3,1.9-0.6,2.8h-9.3l0,9.3c-0.9,0.3-1.8,0.5-2.8,0.6v-9.9l-15.1,0c-0.4-1.3-0.6-2.8-0.6-4.2
		c0-7.9,6.4-14.2,14.2-14.2c1.6,0,3.1,0.3,4.3,0.7l0,15H172.9z M160.2,275.7c-0.6-0.1-1.1-0.1-1.7-0.1c-6.3,0-11.4,5.1-11.4,11.4
		c0,0.5,0,1,0.1,1.5h13V275.7z"/>
	<path d="M228,317.8c-13,0-24.8-5.8-33-14.7l47.2-36.2c4.5-3.7,7.3-9.1,7.3-15.1c0-11.1-9.5-19.4-21.3-19.4
		c-11.7,0-20.9,8.3-20.9,19.4c0,1.6,0.2,3.2,0.6,4.7h-5.2c-0.3-1.5-0.5-3.1-0.5-4.6c0-13.5,11.8-24.4,26-24.4s26.3,10.9,26.3,24.4
		c0,6.7-2.9,12.8-7.5,17.2L202.8,303c7,5.9,15.4,9.4,25.3,9.4c9.7,0,18.6-3.4,25.6-9.1c0.9,0.1,2.2,0.1,3.5,0.1c1.4,0,2.9,0,4-0.1
		C252.9,312.2,241.1,317.8,228,317.8z"/>
	<path d="M256.2,278.4c-2-1.7-4.2-2.6-7-2.6c-3.6,0-6.8,2-8.7,4.7v3.7c2.3-2.1,5.8-3.4,9.6-3.4c6.8,0,12.2,4.4,12.2,9.9
		c0,2.1-0.9,4.1-2.3,5.7c-2.6,3-6.4,4.8-10.7,4.8c-5.4,0-10.2-3.1-12.6-7.6h3.8c1.9,2.6,5.4,4.4,9.1,4.4c5,0,9.2-3.2,9.2-7.1
		c0-3.9-4.1-7.2-9.1-7.2c-3.3,0-7.6,1.8-9.2,3.9h-3.5v-8c2.5-4.1,7-6.8,12.2-6.8c4.6,0,8.8,2.2,11.4,5.7H256.2z"/>
	<path d="M318.6,317.8c-13,0-24.8-5.8-33-14.7l47.2-36.2c4.5-3.7,7.3-9.1,7.3-15.1c0-11.1-9.5-19.4-21.3-19.4
		c-11.7,0-20.9,8.3-20.9,19.4c0,1.6,0.2,3.2,0.6,4.7h-5.2c-0.3-1.5-0.5-3.1-0.5-4.6c0-13.5,11.8-24.4,26-24.4s26.3,10.9,26.3,24.4
		c0,6.7-2.9,12.8-7.5,17.2L293.3,303c7,5.9,15.4,9.4,25.3,9.4c9.7,0,18.6-3.4,25.6-9.1c0.9,0.1,2.2,0.1,3.5,0.1c1.4,0,2.9,0,4-0.1
		C343.5,312.2,331.7,317.8,318.6,317.8z"/>
	<path d="M352.8,290.7c0,2.1-0.9,4.1-2.3,5.7c-2.6,3-6.4,4.8-10.7,4.8c-7.9,0-14.2-6.4-14.2-14.2c0-7.9,6.4-14.2,14.2-14.2
		c5.1,0,9.6,2.7,12.1,6.8l-4.5,0c-1.9-2.1-4.7-3.4-7.8-3.4c-5.8,0-10.5,4.6-10.5,10.3c0,0.1,0,0.2,0,0.2c1.9-3.5,6.3-5.9,11.3-5.9
		C347.3,280.9,352.8,285.3,352.8,290.7z M349.3,291c0-3.9-4.1-7.1-9.1-7.1s-9.1,3.2-9.1,7.1c0,3.9,4.1,7.1,9.1,7.1
		S349.3,294.9,349.3,291z"/>
	<path d="M409.1,317.8c-13,0-24.8-5.8-33-14.7l47.2-36.2c4.5-3.7,7.3-9.1,7.3-15.1c0-11.1-9.5-19.4-21.3-19.4
		c-11.7,0-20.9,8.3-20.9,19.4c0,1.6,0.2,3.2,0.6,4.7h-5.2c-0.3-1.5-0.5-3.1-0.5-4.6c0-13.5,11.8-24.4,26-24.4s26.3,10.9,26.3,24.4
		c0,6.7-2.9,12.8-7.5,17.2L383.9,303c7,5.9,15.4,9.4,25.3,9.4c9.7,0,18.6-3.4,25.6-9.1c0.9,0.1,2.2,0.1,3.5,0.1c1.4,0,2.9,0,4-0.1
		C434,312.2,422.2,317.8,409.1,317.8z"/>
	<path d="M430.4,301.3c-2.8,0-5.4-0.8-7.5-2.2l10.3-14.3c0.1-0.2,0.2-0.5,0.2-0.8c0-1.5-1.6-2.5-3.1-2.5c-1.5,0-3.1,1-3.1,2.6h-8.3
		l0-5.3c2.6-3.7,6.8-6.1,11.6-6.1c6.3,0,11.6,4,13.5,9.7l-12.6,18.8C431,301.2,430.7,301.3,430.4,301.3z"/>
	<path d="M499.7,317.8c-13,0-24.8-5.8-33-14.7l47.2-36.2c4.5-3.7,7.3-9.1,7.3-15.1c0-11.1-9.5-19.4-21.3-19.4
		c-11.7,0-20.9,8.3-20.9,19.4c0,1.6,0.2,3.2,0.6,4.7h-5.2c-0.3-1.5-0.5-3.1-0.5-4.6c0-13.5,11.8-24.4,26-24.4
		c14.2,0,26.3,10.9,26.3,24.4c0,6.7-2.9,12.8-7.5,17.2L474.4,303c7,5.9,15.4,9.4,25.3,9.4c9.7,0,18.6-3.4,25.6-9.1
		c0.9,0.1,2.2,0.1,3.5,0.1c1.4,0,2.9,0,4-0.1C524.6,312.2,512.8,317.8,499.7,317.8z"/>
	<path d="M533.2,291.6c0,5.3-5.5,9.6-12.2,9.6c-6.7,0-12.2-4.3-12.2-9.6c0-3.1,1.9-5.8,4.8-7.6c-1.1-1.2-1.7-2.6-1.7-4.1
		c0-3.9,4.1-7.1,9.2-7.1c5.1,0,9.2,3.2,9.2,7.1c0,1.6-0.7,3-1.8,4.2C531.3,285.8,533.2,288.5,533.2,291.6z M526.1,291.5
		c0-2.5-2.3-4.6-5.2-4.6c-2.8,0-5.2,2.1-5.2,4.6c0,2.5,2.3,4.6,5.2,4.6C523.7,296.1,526.1,294,526.1,291.5z M517.6,279.7
		c0,1.2,1.5,2.2,3.3,2.2s3.3-1,3.3-2.2c0-1.2-1.5-2.2-3.3-2.2S517.6,278.5,517.6,279.7z"/>
	<path d="M590.3,317.8c-13,0-24.8-5.8-33-14.7l47.2-36.2c4.5-3.7,7.3-9.1,7.3-15.1c0-11.1-9.5-19.4-21.3-19.4s-20.9,8.3-20.9,19.4
		c0,1.6,0.2,3.2,0.6,4.7h-5.2c-0.3-1.5-0.5-3.1-0.5-4.6c0-13.5,11.8-24.4,26-24.4s26.3,10.9,26.3,24.4c0,6.7-2.9,12.8-7.5,17.2
		L565,303c7,5.9,15.4,9.4,25.3,9.4c9.7,0,18.6-3.4,25.6-9.1c0.9,0.1,2.2,0.1,3.5,0.1c1.4,0,2.9,0,4-0.1
		C615.2,312.2,603.4,317.8,590.3,317.8z"/>
	<path d="M625.8,287c0,7.9-6.4,14.2-14.2,14.2c-6,0-11.1-3.7-13.2-8.9l6.5,0c1.6,2,4,3.3,6.8,3.3c3.8,0,7-2.5,8.1-5.9
		c-2.2,1.6-5,2.6-8.2,2.6c-6.7,0-12.1-4.4-12.1-9.8c0-5.4,5.4-9.8,12.1-9.8C619.4,272.8,625.8,279.1,625.8,287z M616.8,282.6
		c0-2.6-2.4-4.7-5.3-4.7s-5.3,2.1-5.3,4.7s2.4,4.7,5.3,4.7S616.8,285.2,616.8,282.6z"/>
	<path d="M719,287.3c0,16.6-16.6,30.1-37.1,30.1c-19.2,0-35-11.9-36.9-27.1h7.4c1.9,11.4,14,20.2,29.5,20.2
		c16.8,0,30.3-10.7,30.3-23.5c0-5.1-3.8-9.9-7.5-13.7c-2.7-2.7-5.8-3.2-13.7-3.2h-22.1v-5.3h22.1c5.2,0,9.8-0.3,13-4.6
		c2.1-2.5,3.3-5.4,3.3-8.5c0-9.9-9.8-18.3-25.1-18.3c-13.7,0-24.5,6.8-26.7,15.4h-7.2c2.1-12.2,16.3-21.4,33.9-21.4
		c19,0,31.9,10.7,31.9,24.3c0,5.6-2.6,10.7-7,14.9C714,271.2,719,279.3,719,287.3z"/>
	<path d="M809.5,287.3c0,16.6-16.6,30.1-37.1,30.1c-19.2,0-35-11.9-36.9-27.1h7.4c1.9,11.4,14,20.2,29.5,20.2
		c16.8,0,30.3-10.7,30.3-23.5c0-5.1-3.8-9.9-7.5-13.7c-2.7-2.7-5.8-3.2-13.7-3.2h-22.1v-5.3h22.1c5.2,0,9.8-0.3,13-4.6
		c2.1-2.5,3.3-5.4,3.3-8.5c0-9.9-9.8-18.3-25.1-18.3c-13.7,0-24.5,6.8-26.7,15.4h-7.2c2.1-12.2,16.3-21.4,33.9-21.4
		c19,0,31.9,10.7,31.9,24.3c0,5.6-2.6,10.7-7,14.9C804.5,271.2,809.5,279.3,809.5,287.3z"/>
	<path d="M771.8,301.1l-1.7,0v-26.6c-1.4,0-1.8,0.1-2.9,0.5v-1.7c1.4-0.4,2.8-0.7,4.3-0.7c0.1,0,0.1,0,0.2,0c0,0,0.1,0,0.1,0V301.1z
		"/>
	<path d="M900.1,287.3c0,16.6-16.6,30.1-37.1,30.1c-19.2,0-35-11.9-36.9-27.1h7.4c1.9,11.4,14,20.2,29.5,20.2
		c16.8,0,30.3-10.7,30.3-23.5c0-5.1-3.8-9.9-7.5-13.7c-2.7-2.7-5.8-3.2-13.7-3.2h-22.1v-5.3H872c5.2,0,9.8-0.3,13-4.6
		c2.1-2.5,3.3-5.4,3.3-8.5c0-9.9-9.8-18.3-25.1-18.3c-13.7,0-24.5,6.8-26.7,15.4h-7.2c2.1-12.2,16.3-21.4,33.9-21.4
		c19,0,31.9,10.7,31.9,24.3c0,5.6-2.6,10.7-7,14.9C895.1,271.2,900.1,279.3,900.1,287.3z"/>
	<path d="M862,301.1c-4.1,0-7.8-1.8-10.4-4.6l14.9-11.4c1.4-1.2,2.3-2.9,2.3-4.8c0-3.5-3-6.1-6.7-6.1s-6.6,2.6-6.6,6.1
		c0,0.5,0.1,1,0.2,1.5l-1.7,0c-0.1-0.5-0.1-1-0.1-1.5c0-4.3,3.7-7.7,8.2-7.7c4.5,0,8.3,3.5,8.3,7.7c0,2.1-0.9,4-2.4,5.4L854,296.5
		c2.2,1.8,4.9,3,8,3c3.1,0,5.9-1.1,8.1-2.9c0.3,0,0.7,0,1.1,0c0.5,0,0.9,0,1.3,0C869.9,299.3,866.1,301.1,862,301.1z"/>
	<path d="M990.6,287.3c0,16.6-16.6,30.1-37.1,30.1c-19.2,0-35-11.9-36.9-27.1h7.4c1.9,11.4,14,20.2,29.5,20.2
		c16.8,0,30.3-10.7,30.3-23.5c0-5.1-3.8-9.9-7.5-13.7c-2.7-2.7-5.8-3.2-13.7-3.2h-22.1v-5.3h22.1c5.2,0,9.8-0.3,13-4.6
		c2.1-2.5,3.3-5.4,3.3-8.5c0-9.9-9.8-18.3-25.1-18.3c-13.7,0-24.5,6.8-26.7,15.4h-7.2c2.1-12.2,16.3-21.4,33.9-21.4
		c19,0,31.9,10.7,31.9,24.3c0,5.6-2.6,10.7-7,14.9C985.6,271.2,990.6,279.3,990.6,287.3z"/>
	<path d="M964.6,291.5c0,5.2-5.2,9.5-11.7,9.5c-6.1,0-11-3.7-11.6-8.5h2.3c0.6,3.6,4.4,6.4,9.3,6.4c5.3,0,9.6-3.4,9.6-7.4
		c0-1.6-1.2-3.1-2.4-4.3c-0.9-0.9-1.8-1-4.3-1h-7v-1.7h7c1.6,0,3.1-0.1,4.1-1.4c0.7-0.8,1-1.7,1-2.7c0-3.1-3.1-5.8-7.9-5.8
		c-4.3,0-7.7,2.1-8.4,4.9h-2.3c0.6-3.9,5.1-6.7,10.7-6.7c6,0,10.1,3.4,10.1,7.7c0,1.8-0.8,3.4-2.2,4.7
		C963,286.4,964.6,289,964.6,291.5z"/>
	<path d="M85,401c0,16.6-16.6,30.1-37.1,30.1c-19.2,0-35-11.9-36.9-27.1h7.4c1.9,11.4,14,20.2,29.5,20.2c16.8,0,30.3-10.7,30.3-23.5
		c0-5.1-3.8-9.9-7.5-13.7c-2.7-2.7-5.8-3.2-13.7-3.2H34.9v-5.3H57c5.2,0,9.8-0.3,13-4.6c2.1-2.5,3.3-5.4,3.3-8.5
		c0-9.9-9.8-18.3-25.1-18.3c-13.7,0-24.5,6.8-26.7,15.4h-7.2c2.1-12.2,16.3-21.4,33.9-21.4c19,0,31.9,10.7,31.9,24.3
		c0,5.6-2.6,10.7-7,14.9C80,384.9,85,393,85,401z"/>
	<path d="M61.2,402c-0.1,1-0.3,1.9-0.6,2.8l-9.3,0l0,9.3c-0.9,0.3-1.8,0.5-2.8,0.6l0-9.9H33.4c-0.4-1.3-0.6-2.8-0.6-4.2
		c0-7.9,6.4-14.2,14.2-14.2c1.6,0,3.1,0.3,4.3,0.7l0,15H61.2z M48.6,389.3c-0.6-0.1-1.1-0.1-1.7-0.1c-6.3,0-11.4,5.1-11.4,11.4
		c0,0.5,0,1,0.1,1.5h13V389.3z"/>
	<path d="M175.6,401c0,16.6-16.6,30.1-37.1,30.1c-19.2,0-35-11.9-36.9-27.1h7.4c1.9,11.4,14,20.2,29.5,20.2
		c16.8,0,30.3-10.7,30.3-23.5c0-5.1-3.8-9.9-7.5-13.7c-2.7-2.7-5.8-3.2-13.7-3.2h-22.1v-5.3h22.1c5.2,0,9.8-0.3,13-4.6
		c2.1-2.5,3.3-5.4,3.3-8.5c0-9.9-9.8-18.3-25.1-18.3c-13.7,0-24.5,6.8-26.7,15.4h-7.2c2.1-12.2,16.3-21.4,33.9-21.4
		c19,0,31.9,10.7,31.9,24.3c0,5.6-2.6,10.7-7,14.9C170.6,384.9,175.6,393,175.6,401z"/>
	<path d="M144.5,392c-2-1.7-4.2-2.6-7-2.6c-3.6,0-6.8,2-8.7,4.7v3.7c2.3-2.1,5.8-3.4,9.6-3.4c6.8,0,12.2,4.4,12.2,9.8
		c0,2.1-0.9,4.1-2.3,5.7c-2.6,3-6.4,4.8-10.7,4.8c-5.4,0-10.2-3.1-12.6-7.6h3.8c1.9,2.6,5.4,4.4,9.1,4.4c5,0,9.2-3.2,9.2-7.1
		s-4.1-7.2-9.1-7.2c-3.3,0-7.6,1.8-9.2,3.9h-3.5v-8c2.5-4.1,7-6.8,12.2-6.8c4.6,0,8.8,2.2,11.4,5.7H144.5z"/>
	<path d="M266.2,401c0,16.6-16.6,30.1-37.1,30.1c-19.2,0-35-11.9-36.9-27.1h7.4c1.9,11.4,14,20.2,29.5,20.2
		c16.8,0,30.3-10.7,30.3-23.5c0-5.1-3.8-9.9-7.5-13.7c-2.7-2.7-5.8-3.2-13.7-3.2H216v-5.3h22.1c5.2,0,9.8-0.3,13-4.6
		c2.1-2.5,3.3-5.4,3.3-8.5c0-9.9-9.8-18.3-25.1-18.3c-13.7,0-24.5,6.8-26.7,15.4h-7.2c2.1-12.2,16.3-21.4,33.9-21.4
		c19,0,31.9,10.7,31.9,24.3c0,5.6-2.6,10.7-7,14.9C261.2,384.9,266.2,393,266.2,401z"/>
	<path d="M241.2,404.3c0,2.1-0.9,4.1-2.3,5.7c-2.6,3-6.4,4.8-10.7,4.8c-7.9,0-14.2-6.4-14.2-14.2c0-7.9,6.4-14.2,14.2-14.2
		c5.1,0,9.6,2.7,12.1,6.8h-4.5c-1.9-2.1-4.7-3.4-7.8-3.4c-5.8,0-10.5,4.6-10.5,10.3c0,0.1,0,0.2,0,0.2c1.9-3.5,6.3-5.9,11.3-5.9
		C235.7,394.4,241.2,398.8,241.2,404.3z M237.7,404.5c0-3.9-4.1-7.1-9.1-7.1c-5,0-9.1,3.2-9.1,7.1c0,3.9,4.1,7.1,9.1,7.1
		C233.6,411.6,237.7,408.4,237.7,404.5z"/>
	<path d="M356.7,401c0,16.6-16.6,30.1-37.1,30.1c-19.2,0-35-11.9-36.9-27.1h7.4c1.9,11.4,14,20.2,29.5,20.2
		c16.8,0,30.3-10.7,30.3-23.5c0-5.1-3.8-9.9-7.5-13.7c-2.7-2.7-5.8-3.2-13.7-3.2h-22.1v-5.3h22.1c5.2,0,9.8-0.3,13-4.6
		c2.1-2.5,3.3-5.4,3.3-8.5c0-9.9-9.8-18.3-25.1-18.3c-13.7,0-24.5,6.8-26.7,15.4h-7.2c2.1-12.2,16.3-21.4,33.9-21.4
		c19,0,31.9,10.7,31.9,24.3c0,5.6-2.6,10.7-7,14.9C351.7,384.9,356.7,393,356.7,401z"/>
	<path d="M318.7,414.8c-2.8,0-5.4-0.8-7.5-2.2l10.3-14.3c0.1-0.2,0.2-0.5,0.2-0.8c0-1.5-1.6-2.5-3.1-2.5c-1.5,0-3.1,1-3.1,2.6h-8.3
		l0-5.3c2.6-3.7,6.8-6.1,11.6-6.1c6.3,0,11.6,4,13.5,9.7l-12.6,18.8C319.3,414.8,319,414.8,318.7,414.8z"/>
	<path d="M447.3,401c0,16.6-16.6,30.1-37.1,30.1c-19.2,0-35-11.9-36.9-27.1h7.4c1.9,11.4,14,20.2,29.5,20.2
		c16.8,0,30.3-10.7,30.3-23.5c0-5.1-3.8-9.9-7.5-13.7c-2.7-2.7-5.8-3.2-13.7-3.2h-22.1v-5.3h22.1c5.2,0,9.8-0.3,13-4.6
		c2.1-2.5,3.3-5.4,3.3-8.5c0-9.9-9.8-18.3-25.1-18.3c-13.7,0-24.5,6.8-26.7,15.4h-7.2c2.1-12.2,16.3-21.4,33.9-21.4
		c19,0,31.9,10.7,31.9,24.3c0,5.6-2.6,10.7-7,14.9C442.3,384.9,447.3,393,447.3,401z"/>
	<path d="M421.5,405.1c0,5.3-5.5,9.6-12.2,9.6s-12.2-4.3-12.2-9.6c0-3.1,1.9-5.8,4.8-7.6c-1.1-1.2-1.7-2.6-1.7-4.1
		c0-3.9,4.1-7.1,9.2-7.1s9.2,3.2,9.2,7.1c0,1.6-0.7,3-1.8,4.2C419.6,399.3,421.5,402.1,421.5,405.1z M414.4,405
		c0-2.5-2.3-4.6-5.2-4.6c-2.8,0-5.2,2.1-5.2,4.6c0,2.5,2.3,4.6,5.2,4.6C412.1,409.6,414.4,407.6,414.4,405z M405.9,393.3
		c0,1.2,1.5,2.2,3.3,2.2c1.8,0,3.3-1,3.3-2.2c0-1.2-1.5-2.2-3.3-2.2C407.4,391.1,405.9,392.1,405.9,393.3z"/>
	<path d="M537.8,401c0,16.6-16.6,30.1-37.1,30.1c-19.2,0-35-11.9-36.9-27.1h7.4c1.9,11.4,14,20.2,29.5,20.2
		c16.8,0,30.3-10.7,30.3-23.5c0-5.1-3.8-9.9-7.5-13.7c-2.7-2.7-5.8-3.2-13.7-3.2h-22.1v-5.3h22.1c5.2,0,9.8-0.3,13-4.6
		c2.1-2.5,3.3-5.4,3.3-8.5c0-9.9-9.8-18.3-25.1-18.3c-13.7,0-24.5,6.8-26.7,15.4H467c2.1-12.2,16.3-21.4,33.9-21.4
		c19,0,31.9,10.7,31.9,24.3c0,5.6-2.6,10.7-7,14.9C532.8,384.9,537.8,393,537.8,401z"/>
	<path d="M514.1,400.6c0,7.9-6.4,14.2-14.2,14.2c-6,0-11.1-3.7-13.2-8.9l6.5,0c1.6,2,4,3.3,6.8,3.3c3.8,0,7-2.5,8.1-5.9
		c-2.2,1.6-5,2.6-8.2,2.6c-6.7,0-12.1-4.4-12.1-9.8c0-5.4,5.4-9.8,12.1-9.8C507.7,386.3,514.1,392.7,514.1,400.6z M505.2,396.1
		c0-2.6-2.4-4.7-5.3-4.7c-2.9,0-5.3,2.1-5.3,4.7c0,2.6,2.4,4.7,5.3,4.7C502.8,400.8,505.2,398.7,505.2,396.1z"/>
	<path d="M635.5,390.8c-0.3,3.1-0.9,6.1-1.8,8.9l-29.3,0l0,29.6c-2.9,0.9-5.8,1.6-8.9,1.9v-31.4l-48,0c-1.3-4.3-2-8.8-2-13.5
		c0-25,20.2-45.2,45.2-45.2c5.1,0,9.7,0.8,13.8,2.1l0,47.6H635.5z M595.4,350.4c-1.8-0.3-3.6-0.4-5.4-0.4c-19.9,0-36,16.1-36,36
		c0,1.6,0.1,3.2,0.3,4.8h41.1V350.4z"/>
	<path d="M726.1,390.8c-0.3,3.1-0.9,6.1-1.8,8.9l-29.3,0l0,29.6c-2.9,0.9-5.8,1.6-8.9,1.9v-31.4l-48,0c-1.3-4.3-2-8.8-2-13.5
		c0-25,20.2-45.2,45.2-45.2c5.1,0,9.7,0.8,13.8,2.1l0,47.6H726.1z M686,350.4c-1.8-0.3-3.6-0.4-5.4-0.4c-19.9,0-36,16.1-36,36
		c0,1.6,0.1,3.2,0.3,4.8H686V350.4z"/>
	<path d="M669,388.8l-1.7,0v-26.6c-1.4,0-1.8,0.1-2.9,0.5V361c1.4-0.4,2.8-0.7,4.3-0.7c0.1,0,0.1,0,0.2,0c0,0,0.1,0,0.1,0V388.8z"/>
	<path d="M816.7,390.8c-0.3,3.1-0.9,6.1-1.8,8.9l-29.3,0l0,29.6c-2.9,0.9-5.8,1.6-8.9,1.9v-31.4l-48,0c-1.3-4.3-2-8.8-2-13.5
		c0-25,20.2-45.2,45.2-45.2c5.1,0,9.7,0.8,13.8,2.1l0,47.6H816.7z M776.6,350.4c-1.8-0.3-3.6-0.4-5.4-0.4c-19.9,0-36,16.1-36,36
		c0,1.6,0.1,3.2,0.3,4.8h41.1V350.4z"/>
	<path d="M759.2,388.8c-4.1,0-7.8-1.8-10.4-4.6l14.9-11.4c1.4-1.2,2.3-2.9,2.3-4.8c0-3.5-3-6.1-6.7-6.1c-3.7,0-6.6,2.6-6.6,6.1
		c0,0.5,0.1,1,0.2,1.5l-1.7,0c-0.1-0.5-0.1-1-0.1-1.5c0-4.3,3.7-7.7,8.2-7.7s8.3,3.5,8.3,7.7c0,2.1-0.9,4-2.4,5.4l-13.9,10.7
		c2.2,1.8,4.9,3,8,3c3.1,0,5.9-1.1,8.1-2.9c0.3,0,0.7,0,1.1,0c0.5,0,0.9,0,1.3,0C767,387.1,763.3,388.8,759.2,388.8z"/>
	<path d="M907.2,390.8c-0.3,3.1-0.9,6.1-1.8,8.9l-29.3,0l0,29.6c-2.9,0.9-5.8,1.6-8.9,1.9v-31.4l-48,0c-1.3-4.3-2-8.8-2-13.5
		c0-25,20.2-45.2,45.2-45.2c5.1,0,9.7,0.8,13.8,2.1l0,47.6H907.2z M867.1,350.4c-1.8-0.3-3.6-0.4-5.4-0.4c-19.9,0-36,16.1-36,36
		c0,1.6,0.1,3.2,0.3,4.8h41.1V350.4z"/>
	<path d="M861.7,379.2c0,5.2-5.2,9.5-11.7,9.5c-6.1,0-11-3.7-11.6-8.5h2.3c0.6,3.6,4.4,6.4,9.3,6.4c5.3,0,9.6-3.4,9.6-7.4
		c0-1.6-1.2-3.1-2.4-4.3c-0.9-0.9-1.8-1-4.3-1h-7v-1.7h7c1.6,0,3.1-0.1,4.1-1.4c0.7-0.8,1-1.7,1-2.7c0-3.1-3.1-5.8-7.9-5.8
		c-4.3,0-7.7,2.1-8.4,4.9h-2.3c0.6-3.9,5.1-6.7,10.7-6.7c6,0,10.1,3.4,10.1,7.7c0,1.8-0.8,3.4-2.2,4.7
		C860.2,374.2,861.7,376.7,861.7,379.2z"/>
	<path d="M997.8,390.8c-0.3,3.1-0.9,6.1-1.8,8.9l-29.3,0l0,29.6c-2.9,0.9-5.8,1.6-8.9,1.9v-31.4l-48,0c-1.3-4.3-2-8.8-2-13.5
		c0-25,20.2-45.2,45.2-45.2c5.1,0,9.7,0.8,13.8,2.1l0,47.6H997.8z M957.7,350.4c-1.8-0.3-3.6-0.4-5.4-0.4c-19.9,0-36,16.1-36,36
		c0,1.6,0.1,3.2,0.3,4.8h41.1V350.4z"/>
	<path d="M954.5,376c-0.1,1-0.3,1.9-0.6,2.8l-9.3,0l0,9.3c-0.9,0.3-1.8,0.5-2.8,0.6l0-9.9l-15.1,0c-0.4-1.3-0.6-2.8-0.6-4.2
		c0-7.9,6.4-14.2,14.2-14.2c1.6,0,3.1,0.3,4.3,0.7l0,15H954.5z M941.9,363.3c-0.6-0.1-1.1-0.1-1.7-0.1c-6.3,0-11.4,5.1-11.4,11.4
		c0,0.5,0,1,0.1,1.5h13V363.3z"/>
	<path d="M92.2,504.5c-0.3,3.1-0.9,6.1-1.8,8.9l-29.3,0l0,29.6c-2.9,0.9-5.8,1.6-8.9,1.9l0-31.4l-48,0c-1.3-4.3-2-8.8-2-13.5
		c0-25,20.2-45.2,45.2-45.2c5.1,0,9.7,0.8,13.8,2.1l0,47.6H92.2z M52.1,464.1c-1.8-0.3-3.6-0.4-5.4-0.4c-19.9,0-36,16.1-36,36
		c0,1.6,0.1,3.2,0.3,4.8h41.1V464.1z"/>
	<path d="M41.7,479.7c-2-1.7-4.2-2.6-7-2.6c-3.6,0-6.8,2-8.7,4.7v3.7c2.3-2.1,5.8-3.4,9.6-3.4c6.8,0,12.2,4.4,12.2,9.8
		c0,2.1-0.9,4.1-2.3,5.7c-2.6,3-6.4,4.8-10.7,4.8c-5.4,0-10.2-3.1-12.6-7.6H26c1.9,2.6,5.4,4.4,9.1,4.4c5,0,9.2-3.2,9.2-7.1
		c0-3.9-4.1-7.2-9.1-7.2c-3.3,0-7.6,1.8-9.2,3.9h-3.5v-8c2.5-4.1,7-6.8,12.2-6.8c4.6,0,8.8,2.2,11.4,5.7H41.7z"/>
	<path d="M182.7,504.5c-0.3,3.1-0.9,6.1-1.8,8.9l-29.3,0l0,29.6c-2.9,0.9-5.8,1.6-8.9,1.9l0-31.4l-48,0c-1.3-4.3-2-8.8-2-13.5
		c0-25,20.2-45.2,45.2-45.2c5.1,0,9.7,0.8,13.8,2.1l0,47.6H182.7z M142.6,464.1c-1.8-0.3-3.6-0.4-5.4-0.4c-19.9,0-36,16.1-36,36
		c0,1.6,0.1,3.2,0.3,4.8h41.1V464.1z"/>
	<path d="M138.3,492c0,2.1-0.9,4.1-2.3,5.7c-2.6,3-6.4,4.8-10.7,4.8c-7.9,0-14.2-6.4-14.2-14.2c0-7.9,6.4-14.2,14.2-14.2
		c5.1,0,9.6,2.7,12.1,6.8H133c-1.9-2.1-4.7-3.4-7.8-3.4c-5.8,0-10.5,4.6-10.5,10.3c0,0.1,0,0.2,0,0.2c1.9-3.5,6.3-5.9,11.3-5.9
		C132.8,482.1,138.3,486.5,138.3,492z M134.8,492.2c0-3.9-4.1-7.1-9.1-7.1c-5,0-9.1,3.2-9.1,7.1s4.1,7.1,9.1,7.1
		C130.7,499.4,134.8,496.2,134.8,492.2z"/>
	<path d="M273.3,504.5c-0.3,3.1-0.9,6.1-1.8,8.9l-29.3,0l0,29.6c-2.9,0.9-5.8,1.6-8.9,1.9l0-31.4l-48,0c-1.3-4.3-2-8.8-2-13.5
		c0-25,20.2-45.2,45.2-45.2c5.1,0,9.7,0.8,13.8,2.1l0,47.6H273.3z M233.2,464.1c-1.8-0.3-3.6-0.4-5.4-0.4c-19.9,0-36,16.1-36,36
		c0,1.6,0.1,3.2,0.3,4.8h41.1V464.1z"/>
	<path d="M215.9,502.5c-2.8,0-5.4-0.8-7.5-2.2l10.3-14.3c0.1-0.2,0.2-0.5,0.2-0.8c0-1.5-1.6-2.5-3.1-2.5c-1.5,0-3.1,1-3.1,2.6h-8.3
		l0-5.3c2.6-3.7,6.8-6.1,11.6-6.1c6.3,0,11.6,4,13.5,9.7l-12.6,18.8C216.5,502.5,216.2,502.5,215.9,502.5z"/>
	<path d="M363.8,504.5c-0.3,3.1-0.9,6.1-1.8,8.9l-29.3,0l0,29.6c-2.9,0.9-5.8,1.6-8.9,1.9l0-31.4l-48,0c-1.3-4.3-2-8.8-2-13.5
		c0-25,20.2-45.2,45.2-45.2c5.1,0,9.7,0.8,13.8,2.1l0,47.6H363.8z M323.8,464.1c-1.8-0.3-3.6-0.4-5.4-0.4c-19.9,0-36,16.1-36,36
		c0,1.6,0.1,3.2,0.3,4.8h41.1V464.1z"/>
	<path d="M318.6,490.2c0,5.3-5.5,9.6-12.2,9.6c-6.7,0-12.2-4.3-12.2-9.6c0-3.1,1.9-5.8,4.8-7.6c-1.1-1.2-1.7-2.6-1.7-4.1
		c0-3.9,4.1-7.1,9.2-7.1c5.1,0,9.2,3.2,9.2,7.1c0,1.6-0.7,3-1.8,4.2C316.8,484.4,318.6,487.1,318.6,490.2z M311.5,490.1
		c0-2.5-2.3-4.6-5.2-4.6c-2.8,0-5.2,2.1-5.2,4.6c0,2.5,2.3,4.6,5.2,4.6S311.5,492.6,311.5,490.1z M303,478.3c0,1.2,1.5,2.2,3.3,2.2
		s3.3-1,3.3-2.2c0-1.2-1.5-2.2-3.3-2.2S303,477.1,303,478.3z"/>
	<path d="M454.4,504.5c-0.3,3.1-0.9,6.1-1.8,8.9l-29.3,0l0,29.6c-2.9,0.9-5.8,1.6-8.9,1.9l0-31.4l-48,0c-1.3-4.3-2-8.8-2-13.5
		c0-25,20.2-45.2,45.2-45.2c5.1,0,9.7,0.8,13.8,2.1l0,47.6H454.4z M414.3,464.1c-1.8-0.3-3.6-0.4-5.4-0.4c-19.9,0-36,16.1-36,36
		c0,1.6,0.1,3.2,0.3,4.8h41.1V464.1z"/>
	<path d="M411.2,485.6c0,7.9-6.4,14.2-14.2,14.2c-6,0-11.1-3.7-13.2-8.9l6.5,0c1.6,2,4,3.3,6.8,3.3c3.8,0,7-2.5,8.1-5.9
		c-2.2,1.6-5,2.6-8.2,2.6c-6.7,0-12.1-4.4-12.1-9.8c0-5.4,5.4-9.8,12.1-9.8C404.9,471.3,411.2,477.7,411.2,485.6z M402.3,481.1
		c0-2.6-2.4-4.7-5.3-4.7s-5.3,2.1-5.3,4.7c0,2.6,2.4,4.7,5.3,4.7S402.3,483.7,402.3,481.1z"/>
	<path d="M521.9,472.8c-6.4-5.5-13.4-8.3-22.3-8.3c-11.3,0-21.5,6.5-27.6,14.9v11.8c7.2-6.7,18.4-10.7,30.3-10.7
		c21.4,0,38.8,14,38.8,31.2c0,6.8-2.8,13.1-7.4,18.2c-8.3,9.4-20.4,15.3-33.9,15.3c-17.3,0-32.3-9.7-39.9-23.9h12.2
		c6.2,8.4,17,13.9,29,13.9c15.9,0,29.1-10.1,29.1-22.6c0-12.5-12.9-22.9-28.8-22.9c-10.4,0-24.1,5.7-29.1,12.2h-11.1v-25.3
		c7.9-13,22.3-21.7,38.6-21.7c14.7,0,27.8,7.1,36,18L521.9,472.8z"/>
	<path d="M612.5,472.8c-6.4-5.5-13.4-8.3-22.3-8.3c-11.3,0-21.5,6.5-27.6,14.9v11.8c7.2-6.7,18.4-10.7,30.3-10.7
		c21.4,0,38.8,14,38.8,31.2c0,6.8-2.8,13.1-7.4,18.2c-8.3,9.4-20.4,15.3-33.9,15.3c-17.3,0-32.3-9.7-39.9-23.9h12.2
		c6.2,8.4,17,13.9,29,13.9c15.9,0,29.1-10.1,29.1-22.6c0-12.5-12.9-22.9-28.8-22.9c-10.4,0-24.1,5.7-29.1,12.2H552v-25.3
		c7.9-13,22.3-21.7,38.6-21.7c14.7,0,27.8,7.1,36,18L612.5,472.8z"/>
	<path d="M590.7,528.5l-1.7,0v-26.6c-1.4,0-1.8,0.1-2.9,0.5v-1.7c1.4-0.4,2.8-0.7,4.3-0.7c0.1,0,0.1,0,0.2,0c0,0,0.1,0,0.1,0V528.5z
		"/>
	<path d="M703.1,472.8c-6.4-5.5-13.4-8.3-22.3-8.3c-11.3,0-21.5,6.5-27.6,14.9v11.8c7.2-6.7,18.4-10.7,30.3-10.7
		c21.4,0,38.8,14,38.8,31.2c0,6.8-2.8,13.1-7.4,18.2c-8.3,9.4-20.4,15.3-33.9,15.3c-17.3,0-32.3-9.7-39.9-23.9h12.2
		c6.2,8.4,17,13.9,29,13.9c15.9,0,29.1-10.1,29.1-22.6c0-12.5-12.9-22.9-28.8-22.9c-10.4,0-24.1,5.7-29.1,12.2h-11.1v-25.3
		c7.9-13,22.3-21.7,38.6-21.7c14.7,0,27.8,7.1,36,18L703.1,472.8z"/>
	<path d="M680.9,528.5c-4.1,0-7.8-1.8-10.4-4.6l14.9-11.4c1.4-1.2,2.3-2.9,2.3-4.8c0-3.5-3-6.1-6.7-6.1s-6.6,2.6-6.6,6.1
		c0,0.5,0.1,1,0.2,1.5h-1.7c-0.1-0.5-0.1-1-0.1-1.5c0-4.3,3.7-7.7,8.2-7.7c4.5,0,8.3,3.5,8.3,7.7c0,2.1-0.9,4-2.4,5.4l-13.9,10.7
		c2.2,1.8,4.9,3,8,3c3.1,0,5.9-1.1,8.1-2.9c0.3,0,0.7,0,1.1,0c0.5,0,0.9,0,1.3,0C688.7,526.8,685,528.5,680.9,528.5z"/>
	<path d="M793.6,472.8c-6.4-5.5-13.4-8.3-22.3-8.3c-11.3,0-21.5,6.5-27.6,14.9v11.8c7.2-6.7,18.4-10.7,30.3-10.7
		c21.4,0,38.8,14,38.8,31.2c0,6.8-2.8,13.1-7.4,18.2c-8.3,9.4-20.4,15.3-33.9,15.3c-17.3,0-32.3-9.7-39.9-23.9H744
		c6.2,8.4,17,13.9,29,13.9c15.9,0,29.1-10.1,29.1-22.6c0-12.5-12.9-22.9-28.8-22.9c-10.4,0-24.1,5.7-29.1,12.2h-11.1v-25.3
		c7.9-13,22.3-21.7,38.6-21.7c14.7,0,27.8,7.1,36,18L793.6,472.8z"/>
	<path d="M783.5,518.9c0,5.2-5.2,9.5-11.7,9.5c-6.1,0-11-3.7-11.6-8.5h2.3c0.6,3.6,4.4,6.4,9.3,6.4c5.3,0,9.6-3.4,9.6-7.4
		c0-1.6-1.2-3.1-2.4-4.3c-0.9-0.9-1.8-1-4.3-1h-7v-1.7h7c1.6,0,3.1-0.1,4.1-1.4c0.7-0.8,1-1.7,1-2.7c0-3.1-3.1-5.8-7.9-5.8
		c-4.3,0-7.7,2.1-8.4,4.9h-2.3c0.6-3.9,5.1-6.7,10.7-6.7c6,0,10.1,3.4,10.1,7.7c0,1.8-0.8,3.4-2.2,4.7
		C781.9,513.8,783.5,516.4,783.5,518.9z"/>
	<path d="M884.2,472.8c-6.4-5.5-13.4-8.3-22.3-8.3c-11.3,0-21.5,6.5-27.6,14.9v11.8c7.2-6.7,18.4-10.7,30.3-10.7
		c21.4,0,38.8,14,38.8,31.2c0,6.8-2.8,13.1-7.4,18.2c-8.3,9.4-20.4,15.3-33.9,15.3c-17.3,0-32.3-9.7-39.9-23.9h12.2
		c6.2,8.4,17,13.9,29,13.9c15.9,0,29.1-10.1,29.1-22.6c0-12.5-12.9-22.9-28.8-22.9c-10.4,0-24.1,5.7-29.1,12.2h-11.1v-25.3
		c7.9-13,22.3-21.7,38.6-21.7c14.7,0,27.8,7.1,36,18L884.2,472.8z"/>
	<path d="M876.3,515.7c-0.1,1-0.3,1.9-0.6,2.8h-9.3l0,9.3c-0.9,0.3-1.8,0.5-2.8,0.6v-9.9h-15.1c-0.4-1.3-0.6-2.8-0.6-4.2
		c0-7.9,6.4-14.2,14.2-14.2c1.6,0,3.1,0.3,4.3,0.7l0,15H876.3z M863.6,503c-0.6-0.1-1.1-0.1-1.7-0.1c-6.3,0-11.4,5.1-11.4,11.4
		c0,0.5,0,1,0.1,1.5h13V503z"/>
	<path d="M974.7,472.8c-6.4-5.5-13.4-8.3-22.3-8.3c-11.3,0-21.5,6.5-27.6,14.9v11.8c7.2-6.7,18.4-10.7,30.3-10.7
		c21.4,0,38.8,14,38.8,31.2c0,6.8-2.8,13.1-7.4,18.2c-8.3,9.4-20.4,15.3-33.9,15.3c-17.3,0-32.3-9.7-39.9-23.9h12.2
		c6.2,8.4,17,13.9,29,13.9c15.9,0,29.1-10.1,29.1-22.6c0-12.5-12.9-22.9-28.8-22.9c-10.4,0-24.1,5.7-29.1,12.2h-11.1v-25.3
		c7.9-13,22.3-21.7,38.6-21.7c14.7,0,27.8,7.1,36,18L974.7,472.8z"/>
	<path d="M959.6,505.7c-2-1.7-4.2-2.6-7-2.6c-3.6,0-6.8,2-8.7,4.7v3.7c2.3-2.1,5.8-3.4,9.6-3.4c6.8,0,12.2,4.4,12.2,9.9
		c0,2.1-0.9,4.1-2.3,5.7c-2.6,3-6.4,4.8-10.7,4.8c-5.4,0-10.2-3.1-12.6-7.6h3.8c1.9,2.6,5.4,4.4,9.1,4.4c5,0,9.2-3.2,9.2-7.1
		c0-3.9-4.1-7.2-9.1-7.2c-3.3,0-7.6,1.8-9.2,3.9h-3.5v-8c2.5-4.1,7-6.8,12.2-6.8c4.6,0,8.8,2.2,11.4,5.7H959.6z"/>
	<path d="M69.1,586.5c-6.4-5.5-13.4-8.3-22.3-8.3c-11.3,0-21.5,6.5-27.6,14.9v11.8c7.2-6.7,18.4-10.7,30.3-10.7
		c21.4,0,38.8,14,38.8,31.2c0,6.8-2.8,13.1-7.4,18.2c-8.3,9.4-20.4,15.3-33.9,15.3c-17.3,0-32.3-9.7-39.9-23.9h12.2
		c6.2,8.4,17,13.9,29,13.9c15.9,0,29.1-10.1,29.1-22.6s-12.9-22.9-28.8-22.9c-10.4,0-24.1,5.7-29.1,12.2H8.6v-25.3
		c7.9-13,22.3-21.7,38.6-21.7c14.7,0,27.8,7.1,36,18H69.1z"/>
	<path d="M60,631.7c0,2.1-0.9,4.1-2.3,5.7c-2.6,3-6.4,4.8-10.7,4.8c-7.9,0-14.2-6.4-14.2-14.2c0-7.9,6.4-14.2,14.2-14.2
		c5.1,0,9.6,2.7,12.1,6.8h-4.5c-1.9-2.1-4.7-3.4-7.8-3.4c-5.8,0-10.5,4.6-10.5,10.3c0,0.1,0,0.2,0,0.2c1.9-3.5,6.3-5.9,11.3-5.9
		C54.6,621.8,60,626.2,60,631.7z M56.5,631.9c0-3.9-4.1-7.1-9.1-7.1s-9.1,3.2-9.1,7.1c0,3.9,4.1,7.1,9.1,7.1S56.5,635.9,56.5,631.9z
		"/>
	<path d="M159.7,586.5c-6.4-5.5-13.4-8.3-22.3-8.3c-11.3,0-21.5,6.5-27.6,14.9v11.8c7.2-6.7,18.4-10.7,30.3-10.7
		c21.4,0,38.8,14,38.8,31.2c0,6.8-2.8,13.1-7.4,18.2c-8.3,9.4-20.4,15.3-33.9,15.3c-17.3,0-32.3-9.7-39.9-23.9h12.2
		c6.2,8.4,17,13.9,29,13.9c15.9,0,29.1-10.1,29.1-22.6s-12.9-22.9-28.8-22.9c-10.4,0-24.1,5.7-29.1,12.2H99.2v-25.3
		c7.9-13,22.3-21.7,38.6-21.7c14.7,0,27.8,7.1,36,18H159.7z"/>
	<path d="M137.6,642.2c-2.8,0-5.4-0.8-7.5-2.2l10.3-14.3c0.1-0.2,0.2-0.5,0.2-0.8c0-1.5-1.6-2.5-3.1-2.5s-3.1,1-3.1,2.6H126l0-5.3
		c2.6-3.7,6.8-6.1,11.6-6.1c6.3,0,11.6,4,13.5,9.7l-12.6,18.8C138.2,642.2,137.9,642.2,137.6,642.2z"/>
	<path d="M250.3,586.5c-6.4-5.5-13.4-8.3-22.3-8.3c-11.3,0-21.5,6.5-27.6,14.9v11.8c7.2-6.7,18.4-10.7,30.3-10.7
		c21.4,0,38.8,14,38.8,31.2c0,6.8-2.8,13.1-7.4,18.2c-8.3,9.4-20.4,15.3-33.9,15.3c-17.3,0-32.3-9.7-39.9-23.9h12.2
		c6.2,8.4,17,13.9,29,13.9c15.9,0,29.1-10.1,29.1-22.6s-12.9-22.9-28.8-22.9c-10.4,0-24.1,5.7-29.1,12.2h-11.1v-25.3
		c7.9-13,22.3-21.7,38.6-21.7c14.7,0,27.8,7.1,36,18H250.3z"/>
	<path d="M240.4,632.6c0,5.3-5.5,9.6-12.2,9.6c-6.7,0-12.2-4.3-12.2-9.6c0-3.1,1.9-5.8,4.8-7.6c-1.1-1.2-1.7-2.6-1.7-4.1
		c0-3.9,4.1-7.1,9.2-7.1c5.1,0,9.2,3.2,9.2,7.1c0,1.6-0.7,3-1.8,4.2C238.5,626.8,240.4,629.5,240.4,632.6z M233.3,632.5
		c0-2.5-2.3-4.6-5.2-4.6c-2.8,0-5.2,2.1-5.2,4.6s2.3,4.6,5.2,4.6C231,637,233.3,635,233.3,632.5z M224.8,620.7
		c0,1.2,1.5,2.2,3.3,2.2c1.8,0,3.3-1,3.3-2.2c0-1.2-1.5-2.2-3.3-2.2C226.3,618.5,224.8,619.5,224.8,620.7z"/>
	<path d="M340.8,586.5c-6.4-5.5-13.4-8.3-22.3-8.3c-11.3,0-21.5,6.5-27.6,14.9v11.8c7.2-6.7,18.4-10.7,30.3-10.7
		c21.4,0,38.8,14,38.8,31.2c0,6.8-2.8,13.1-7.4,18.2c-8.3,9.4-20.4,15.3-33.9,15.3c-17.3,0-32.3-9.7-39.9-23.9h12.2
		c6.2,8.4,17,13.9,29,13.9c15.9,0,29.1-10.1,29.1-22.6s-12.9-22.9-28.8-22.9c-10.4,0-24.1,5.7-29.1,12.2h-11.1v-25.3
		c7.9-13,22.3-21.7,38.6-21.7c14.7,0,27.8,7.1,36,18H340.8z"/>
	<path d="M333,628c0,7.9-6.4,14.2-14.2,14.2c-6,0-11.1-3.7-13.2-8.9l6.5,0c1.6,2,4,3.3,6.8,3.3c3.8,0,7-2.5,8.1-5.9
		c-2.2,1.6-5,2.6-8.2,2.6c-6.7,0-12.1-4.4-12.1-9.8c0-5.4,5.4-9.8,12.1-9.8C326.6,613.7,333,620.1,333,628z M324,623.5
		c0-2.6-2.4-4.7-5.3-4.7c-2.9,0-5.3,2.1-5.3,4.7c0,2.6,2.4,4.7,5.3,4.7C321.7,628.2,324,626.1,324,623.5z"/>
	<path d="M450.6,625.4c0,6.8-2.8,13.1-7.4,18.2c-8.3,9.4-20.4,15.3-33.9,15.3c-25,0-45.1-20.2-45.1-45.2s20.2-45.2,45.2-45.2
		c16.3,0,30.6,8.7,38.5,21.7h-14.2c-6.1-6.6-14.8-10.7-24.6-10.7c-18.4,0-33.3,14.6-33.3,32.5c0,0.3,0,0.5,0,0.8
		c6.1-11,20-18.6,36-18.6C433.3,594.2,450.6,608.2,450.6,625.4z M439.5,626.2c0-12.5-12.9-22.6-28.8-22.6
		c-15.9,0-28.8,10.1-28.8,22.6c0,12.5,12.9,22.6,28.8,22.6C426.6,648.8,439.5,638.7,439.5,626.2z"/>
	<path d="M541.2,625.4c0,6.8-2.8,13.1-7.4,18.2c-8.3,9.4-20.4,15.3-33.9,15.3c-25,0-45.1-20.2-45.1-45.2s20.2-45.2,45.2-45.2
		c16.3,0,30.6,8.7,38.5,21.7h-14.2c-6.1-6.6-14.8-10.7-24.6-10.7c-18.4,0-33.3,14.6-33.3,32.5c0,0.3,0,0.5,0,0.8
		c6.1-11,20-18.6,36-18.6C523.8,594.2,541.2,608.2,541.2,625.4z M530.1,626.2c0-12.5-12.9-22.6-28.8-22.6
		c-15.9,0-28.8,10.1-28.8,22.6c0,12.5,12.9,22.6,28.8,22.6C517.2,648.8,530.1,638.7,530.1,626.2z"/>
	<path d="M500.1,642.2l-1.7,0v-26.6c-1.4,0-1.8,0.1-2.9,0.5v-1.7c1.4-0.4,2.8-0.7,4.3-0.7c0.1,0,0.1,0,0.2,0c0,0,0.1,0,0.1,0V642.2z
		"/>
	<path d="M631.8,625.4c0,6.8-2.8,13.1-7.4,18.2c-8.3,9.4-20.4,15.3-33.9,15.3c-25,0-45.1-20.2-45.1-45.2s20.2-45.2,45.2-45.2
		c16.3,0,30.6,8.7,38.5,21.7h-14.2c-6.1-6.6-14.8-10.7-24.6-10.7c-18.4,0-33.3,14.6-33.3,32.5c0,0.3,0,0.5,0,0.8
		c6.1-11,20-18.6,36-18.6C614.4,594.2,631.8,608.2,631.8,625.4z M620.6,626.2c0-12.5-12.9-22.6-28.8-22.6s-28.8,10.1-28.8,22.6
		c0,12.5,12.9,22.6,28.8,22.6S620.6,638.7,620.6,626.2z"/>
	<path d="M590.3,642.2c-4.1,0-7.8-1.8-10.4-4.6l14.9-11.4c1.4-1.2,2.3-2.9,2.3-4.8c0-3.5-3-6.1-6.7-6.1s-6.6,2.6-6.6,6.1
		c0,0.5,0.1,1,0.2,1.5h-1.7c-0.1-0.5-0.1-1-0.1-1.5c0-4.3,3.7-7.7,8.2-7.7c4.5,0,8.3,3.5,8.3,7.7c0,2.1-0.9,4-2.4,5.4l-13.9,10.7
		c2.2,1.8,4.9,3,8,3c3.1,0,5.9-1.1,8.1-2.9c0.3,0,0.7,0,1.1,0c0.5,0,0.9,0,1.3,0C598.2,640.5,594.4,642.2,590.3,642.2z"/>
	<path d="M722.3,625.4c0,6.8-2.8,13.1-7.4,18.2c-8.3,9.4-20.4,15.3-33.9,15.3c-25,0-45.1-20.2-45.1-45.2s20.2-45.2,45.2-45.2
		c16.3,0,30.6,8.7,38.5,21.7h-14.2c-6.1-6.6-14.8-10.7-24.6-10.7c-18.4,0-33.3,14.6-33.3,32.5c0,0.3,0,0.5,0,0.8
		c6.1-11,20-18.6,36-18.6C705,594.2,722.3,608.2,722.3,625.4z M711.2,626.2c0-12.5-12.9-22.6-28.8-22.6s-28.8,10.1-28.8,22.6
		c0,12.5,12.9,22.6,28.8,22.6S711.2,638.7,711.2,626.2z"/>
	<path d="M692.9,632.6c0,5.2-5.2,9.5-11.7,9.5c-6.1,0-11-3.7-11.6-8.5h2.3c0.6,3.6,4.4,6.4,9.3,6.4c5.3,0,9.6-3.4,9.6-7.4
		c0-1.6-1.2-3.1-2.4-4.3c-0.9-0.9-1.8-1-4.3-1h-7v-1.7h7c1.6,0,3.1-0.1,4.1-1.4c0.7-0.8,1-1.7,1-2.7c0-3.1-3.1-5.8-7.9-5.8
		c-4.3,0-7.7,2.1-8.4,4.9h-2.3c0.6-3.9,5.1-6.7,10.7-6.7c6,0,10.1,3.4,10.1,7.7c0,1.8-0.8,3.4-2.2,4.7
		C691.3,627.5,692.9,630.1,692.9,632.6z"/>
	<path d="M812.9,625.4c0,6.8-2.8,13.1-7.4,18.2c-8.3,9.4-20.4,15.3-33.9,15.3c-25,0-45.1-20.2-45.1-45.2s20.2-45.2,45.2-45.2
		c16.3,0,30.6,8.7,38.5,21.7H796c-6.1-6.6-14.8-10.7-24.6-10.7c-18.4,0-33.3,14.6-33.3,32.5c0,0.3,0,0.5,0,0.8
		c6.1-11,20-18.6,36-18.6C795.5,594.2,812.9,608.2,812.9,625.4z M801.8,626.2c0-12.5-12.9-22.6-28.8-22.6s-28.8,10.1-28.8,22.6
		c0,12.5,12.9,22.6,28.8,22.6S801.8,638.7,801.8,626.2z"/>
	<path d="M785.7,629.4c-0.1,1-0.3,1.9-0.6,2.8h-9.3l0,9.3c-0.9,0.3-1.8,0.5-2.8,0.6v-9.9h-15.1c-0.4-1.3-0.6-2.8-0.6-4.2
		c0-7.9,6.4-14.2,14.2-14.2c1.6,0,3.1,0.3,4.3,0.7l0,15H785.7z M773.1,616.7c-0.6-0.1-1.1-0.1-1.7-0.1c-6.3,0-11.4,5.1-11.4,11.4
		c0,0.5,0,1,0.1,1.5h13V616.7z"/>
	<path d="M903.5,625.4c0,6.8-2.8,13.1-7.4,18.2c-8.3,9.4-20.4,15.3-33.9,15.3c-25,0-45.1-20.2-45.1-45.2s20.2-45.2,45.2-45.2
		c16.3,0,30.6,8.7,38.5,21.7h-14.2c-6.1-6.6-14.8-10.7-24.6-10.7c-18.4,0-33.3,14.6-33.3,32.5c0,0.3,0,0.5,0,0.8
		c6.1-11,20-18.6,36-18.6C886.1,594.2,903.5,608.2,903.5,625.4z M892.3,626.2c0-12.5-12.9-22.6-28.8-22.6s-28.8,10.1-28.8,22.6
		c0,12.5,12.9,22.6,28.8,22.6S892.3,638.7,892.3,626.2z"/>
	<path d="M869,619.4c-2-1.7-4.2-2.6-7-2.6c-3.6,0-6.8,2-8.7,4.7v3.7c2.3-2.1,5.8-3.4,9.6-3.4c6.8,0,12.2,4.4,12.2,9.9
		c0,2.1-0.9,4.1-2.3,5.7c-2.6,3-6.4,4.8-10.7,4.8c-5.4,0-10.2-3.1-12.6-7.6h3.8c1.9,2.6,5.4,4.4,9.1,4.4c5,0,9.2-3.2,9.2-7.1
		c0-3.9-4.1-7.2-9.1-7.2c-3.3,0-7.6,1.8-9.2,3.9h-3.5v-8c2.5-4.1,7-6.8,12.2-6.8c4.6,0,8.8,2.2,11.4,5.7H869z"/>
	<path d="M994,625.4c0,6.8-2.8,13.1-7.4,18.2c-8.3,9.4-20.4,15.3-33.9,15.3c-25,0-45.1-20.2-45.1-45.2s20.2-45.2,45.2-45.2
		c16.3,0,30.6,8.7,38.5,21.7h-14.2c-6.1-6.6-14.8-10.7-24.6-10.7c-18.4,0-33.3,14.6-33.3,32.5c0,0.3,0,0.5,0,0.8
		c6.1-11,20-18.6,36-18.6C976.6,594.2,994,608.2,994,625.4z M982.9,626.2c0-12.5-12.9-22.6-28.8-22.6s-28.8,10.1-28.8,22.6
		c0,12.5,12.9,22.6,28.8,22.6S982.9,638.7,982.9,626.2z"/>
	<path d="M965.7,631.7c0,2.1-0.9,4.1-2.3,5.7c-2.6,3-6.4,4.8-10.7,4.8c-7.9,0-14.2-6.4-14.2-14.2c0-7.9,6.4-14.2,14.2-14.2
		c5.1,0,9.6,2.7,12.1,6.8h-4.5c-1.9-2.1-4.7-3.4-7.8-3.4c-5.8,0-10.5,4.6-10.5,10.3c0,0.1,0,0.2,0,0.2c1.9-3.5,6.3-5.9,11.3-5.9
		C960.2,621.8,965.7,626.2,965.7,631.7z M962.1,631.9c0-3.9-4.1-7.1-9.1-7.1c-5,0-9.1,3.2-9.1,7.1c0,3.9,4.1,7.1,9.1,7.1
		C958.1,639.1,962.1,635.9,962.1,631.9z"/>
	<path d="M88.4,739.1c0,6.8-2.8,13.1-7.4,18.2c-8.3,9.4-20.4,15.3-33.9,15.3c-25,0-45.1-20.2-45.1-45.2s20.2-45.2,45.2-45.2
		c16.3,0,30.6,8.7,38.5,21.7H71.5c-6.1-6.6-14.8-10.7-24.6-10.7c-18.4,0-33.3,14.6-33.3,32.5c0,0.3,0,0.5,0,0.8
		c6.1-11,20-18.6,36-18.6C71,707.9,88.4,721.9,88.4,739.1z M77.3,739.9c0-12.5-12.9-22.6-28.8-22.6c-15.9,0-28.8,10.1-28.8,22.6
		c0,12.5,12.9,22.6,28.8,22.6C64.4,762.5,77.3,752.4,77.3,739.9z"/>
	<path d="M47,755.9c-2.8,0-5.4-0.8-7.5-2.2l10.3-14.3c0.1-0.2,0.2-0.5,0.2-0.8c0-1.5-1.6-2.5-3.1-2.5c-1.5,0-3.1,1-3.1,2.6h-8.3
		l0-5.3c2.6-3.7,6.8-6.1,11.6-6.1c6.3,0,11.6,4,13.5,9.7l-12.6,18.8C47.6,755.9,47.3,755.9,47,755.9z"/>
	<path d="M179,739.1c0,6.8-2.8,13.1-7.4,18.2c-8.3,9.4-20.4,15.3-33.9,15.3c-25,0-45.1-20.2-45.1-45.2s20.2-45.2,45.2-45.2
		c16.3,0,30.6,8.7,38.5,21.7h-14.2c-6.1-6.6-14.8-10.7-24.6-10.7c-18.4,0-33.3,14.6-33.3,32.5c0,0.3,0,0.5,0,0.8
		c6.1-11,20-18.6,36-18.6C161.6,707.9,179,721.9,179,739.1z M167.8,739.9c0-12.5-12.9-22.6-28.8-22.6c-15.9,0-28.8,10.1-28.8,22.6
		c0,12.5,12.9,22.6,28.8,22.6C155,762.5,167.8,752.4,167.8,739.9z"/>
	<path d="M149.8,746.3c0,5.3-5.5,9.6-12.2,9.6c-6.7,0-12.2-4.3-12.2-9.6c0-3.1,1.9-5.8,4.8-7.6c-1.1-1.2-1.7-2.6-1.7-4.1
		c0-3.9,4.1-7.1,9.2-7.1s9.2,3.2,9.2,7.1c0,1.6-0.7,3-1.8,4.2C148,740.5,149.8,743.2,149.8,746.3z M142.7,746.2
		c0-2.5-2.3-4.6-5.2-4.6c-2.8,0-5.2,2.1-5.2,4.6s2.3,4.6,5.2,4.6C140.4,750.8,142.7,748.7,142.7,746.2z M134.2,734.4
		c0,1.2,1.5,2.2,3.3,2.2c1.8,0,3.3-1,3.3-2.2c0-1.2-1.5-2.2-3.3-2.2C135.7,732.2,134.2,733.2,134.2,734.4z"/>
	<path d="M269.5,739.1c0,6.8-2.8,13.1-7.4,18.2c-8.3,9.4-20.4,15.3-33.9,15.3c-25,0-45.1-20.2-45.1-45.2s20.2-45.2,45.2-45.2
		c16.3,0,30.6,8.7,38.5,21.7h-14.2c-6.1-6.6-14.8-10.7-24.6-10.7c-18.4,0-33.3,14.6-33.3,32.5c0,0.3,0,0.5,0,0.8
		c6.1-11,20-18.6,36-18.6C252.1,707.9,269.5,721.9,269.5,739.1z M258.4,739.9c0-12.5-12.9-22.6-28.8-22.6
		c-15.9,0-28.8,10.1-28.8,22.6c0,12.5,12.9,22.6,28.8,22.6C245.5,762.5,258.4,752.4,258.4,739.9z"/>
	<path d="M242.4,741.7c0,7.9-6.4,14.2-14.2,14.2c-6,0-11.1-3.7-13.2-8.9l6.5,0c1.6,2,4,3.3,6.8,3.3c3.8,0,7-2.5,8.1-5.9
		c-2.2,1.6-5,2.6-8.2,2.6c-6.7,0-12.1-4.4-12.1-9.8c0-5.4,5.4-9.8,12.1-9.8C236,727.4,242.4,733.8,242.4,741.7z M233.5,737.2
		c0-2.6-2.4-4.7-5.3-4.7c-2.9,0-5.3,2.1-5.3,4.7c0,2.6,2.4,4.7,5.3,4.7C231.1,741.9,233.5,739.8,233.5,737.2z"/>
	<path d="M318.9,772.6c-8.8,0-17-2.5-23.9-6.8l32.7-45.2c0.3-0.8,0.5-1.6,0.5-2.5c0-4.8-5.1-8-9.9-8c-4.7,0-9.9,3.2-9.9,8.3h-26.4
		l0-16.7c8.2-11.7,21.4-19.4,36.8-19.4c19.9,0,36.8,12.7,42.8,30.6l-40,59.7C320.7,772.6,319.8,772.6,318.9,772.6z"/>
	<path d="M409.5,772.6c-8.8,0-17-2.5-23.9-6.8l32.7-45.2c0.3-0.8,0.5-1.6,0.5-2.5c0-4.8-5.1-8-9.9-8c-4.7,0-9.9,3.2-9.9,8.3h-26.4
		l0-16.7c8.2-11.7,21.4-19.4,36.8-19.4c19.9,0,36.8,12.7,42.8,30.6l-40,59.7C411.3,772.6,410.4,772.6,409.5,772.6z"/>
	<path d="M386.6,748.8l-1.7,0v-26.6c-1.4,0-1.8,0.1-2.9,0.5v-1.7c1.4-0.4,2.8-0.7,4.3-0.7c0.1,0,0.1,0,0.2,0c0,0,0.1,0,0.1,0V748.8z
		"/>
	<path d="M500,772.6c-8.8,0-17-2.5-23.9-6.8l32.7-45.2c0.3-0.8,0.5-1.6,0.5-2.5c0-4.8-5.1-8-9.9-8c-4.7,0-9.9,3.2-9.9,8.3h-26.4
		l0-16.7c8.2-11.7,21.4-19.4,36.8-19.4c19.9,0,36.8,12.7,42.8,30.6l-40,59.7C501.9,772.6,500.9,772.6,500,772.6z"/>
	<path d="M476.7,748.8c-4.1,0-7.8-1.8-10.4-4.6l14.9-11.4c1.4-1.2,2.3-2.9,2.3-4.8c0-3.5-3-6.1-6.7-6.1c-3.7,0-6.6,2.6-6.6,6.1
		c0,0.5,0.1,1,0.2,1.5h-1.7c-0.1-0.5-0.1-1-0.1-1.5c0-4.3,3.7-7.7,8.2-7.7c4.5,0,8.3,3.5,8.3,7.7c0,2.1-0.9,4-2.4,5.4l-13.9,10.7
		c2.2,1.8,4.9,3,8,3c3.1,0,5.9-1.1,8.1-2.9c0.3,0,0.7,0,1.1,0c0.5,0,0.9,0,1.3,0C484.6,747,480.9,748.8,476.7,748.8z"/>
	<path d="M590.6,772.6c-8.8,0-17-2.5-23.9-6.8l32.7-45.2c0.3-0.8,0.5-1.6,0.5-2.5c0-4.8-5.1-8-9.9-8s-9.9,3.2-9.9,8.3h-26.4l0-16.7
		c8.2-11.7,21.4-19.4,36.8-19.4c19.9,0,36.8,12.7,42.8,30.6l-40,59.7C592.4,772.6,591.5,772.6,590.6,772.6z"/>
	<path d="M579.3,739.1c0,5.2-5.2,9.5-11.7,9.5c-6.1,0-11-3.7-11.6-8.5h2.3c0.6,3.6,4.4,6.4,9.3,6.4c5.3,0,9.6-3.4,9.6-7.4
		c0-1.6-1.2-3.1-2.4-4.3c-0.9-0.9-1.8-1-4.3-1h-7V732h7c1.6,0,3.1-0.1,4.1-1.4c0.7-0.8,1-1.7,1-2.7c0-3.1-3.1-5.8-7.9-5.8
		c-4.3,0-7.7,2.1-8.4,4.9H557c0.6-3.9,5.1-6.7,10.7-6.7c6,0,10.1,3.4,10.1,7.7c0,1.8-0.8,3.4-2.2,4.7
		C577.8,734.1,579.3,736.6,579.3,739.1z"/>
	<path d="M681.1,772.6c-8.8,0-17-2.5-23.9-6.8l32.7-45.2c0.3-0.8,0.5-1.6,0.5-2.5c0-4.8-5.1-8-9.9-8c-4.8,0-9.9,3.2-9.9,8.3h-26.4
		l0-16.7c8.2-11.7,21.4-19.4,36.8-19.4c19.9,0,36.8,12.7,42.8,30.6l-40,59.7C683,772.6,682.1,772.6,681.1,772.6z"/>
	<path d="M672.1,735.9c-0.1,1-0.3,1.9-0.6,2.8l-9.3,0l0,9.3c-0.9,0.3-1.8,0.5-2.8,0.6v-9.9h-15.1c-0.4-1.3-0.6-2.8-0.6-4.2
		c0-7.9,6.4-14.2,14.2-14.2c1.6,0,3.1,0.3,4.3,0.7l0,15H672.1z M659.5,723.2c-0.6-0.1-1.1-0.1-1.7-0.1c-6.3,0-11.4,5.1-11.4,11.4
		c0,0.5,0,1,0.1,1.5h13V723.2z"/>
	<path d="M771.7,772.6c-8.8,0-17-2.5-23.9-6.8l32.7-45.2c0.3-0.8,0.5-1.6,0.5-2.5c0-4.8-5.1-8-9.9-8s-9.9,3.2-9.9,8.3h-26.4l0-16.7
		c8.2-11.7,21.4-19.4,36.8-19.4c19.9,0,36.8,12.7,42.8,30.6l-40,59.7C773.5,772.6,772.6,772.6,771.7,772.6z"/>
	<path d="M755.4,725.9c-2-1.7-4.2-2.6-7-2.6c-3.6,0-6.8,2-8.7,4.7v3.7c2.3-2.1,5.8-3.4,9.6-3.4c6.8,0,12.2,4.4,12.2,9.9
		c0,2.1-0.9,4.1-2.3,5.7c-2.6,3-6.4,4.8-10.7,4.8c-5.4,0-10.2-3.1-12.6-7.6h3.8c1.9,2.6,5.4,4.4,9.1,4.4c5,0,9.2-3.2,9.2-7.1
		c0-3.9-4.1-7.2-9.1-7.2c-3.3,0-7.6,1.8-9.2,3.9h-3.5v-8c2.5-4.1,7-6.8,12.2-6.8c4.6,0,8.8,2.2,11.4,5.7H755.4z"/>
	<path d="M862.3,772.6c-8.8,0-17-2.5-23.9-6.8l32.7-45.2c0.3-0.8,0.5-1.6,0.5-2.5c0-4.8-5.1-8-9.9-8s-9.9,3.2-9.9,8.3h-26.4l0-16.7
		c8.2-11.7,21.4-19.4,36.8-19.4c19.9,0,36.8,12.7,42.8,30.6l-40,59.7C864.1,772.6,863.2,772.6,862.3,772.6z"/>
	<path d="M852.1,738.2c0,2.1-0.9,4.1-2.3,5.7c-2.6,3-6.4,4.8-10.7,4.8c-7.9,0-14.2-6.4-14.2-14.2c0-7.9,6.4-14.2,14.2-14.2
		c5.1,0,9.6,2.7,12.1,6.8h-4.5c-1.9-2.1-4.7-3.4-7.8-3.4c-5.8,0-10.5,4.6-10.5,10.3c0,0.1,0,0.2,0,0.2c1.9-3.5,6.3-5.9,11.3-5.9
		C846.6,728.4,852.1,732.8,852.1,738.2z M848.6,738.5c0-3.9-4.1-7.1-9.1-7.1c-5,0-9.1,3.2-9.1,7.1c0,3.9,4.1,7.1,9.1,7.1
		C844.5,745.6,848.6,742.4,848.6,738.5z"/>
	<path d="M952.8,772.6c-8.8,0-17-2.5-23.9-6.8l32.7-45.2c0.3-0.8,0.5-1.6,0.5-2.5c0-4.8-5.1-8-9.9-8c-4.8,0-9.9,3.2-9.9,8.3H916
		l0-16.7c8.2-11.7,21.4-19.4,36.8-19.4c19.9,0,36.8,12.7,42.8,30.6l-40,59.7C954.7,772.6,953.8,772.6,952.8,772.6z"/>
	<path d="M929.7,748.8c-2.8,0-5.4-0.8-7.5-2.2l10.3-14.3c0.1-0.2,0.2-0.5,0.2-0.8c0-1.5-1.6-2.5-3.1-2.5c-1.5,0-3.1,1-3.1,2.6h-8.3
		l0-5.3c2.6-3.7,6.8-6.1,11.6-6.1c6.3,0,11.6,4,13.5,9.7l-12.6,18.8C930.2,748.7,929.9,748.8,929.7,748.8z"/>
	<path d="M47.2,886.3c-8.8,0-17-2.5-23.9-6.8L56,834.2c0.3-0.8,0.5-1.6,0.5-2.5c0-4.8-5.1-8-9.9-8c-4.7,0-9.9,3.2-9.9,8.3H10.4
		l0-16.7c8.2-11.7,21.4-19.4,36.8-19.4c19.9,0,36.8,12.7,42.8,30.6l-40,59.7C49.1,886.3,48.1,886.3,47.2,886.3z"/>
	<path d="M36.2,852.8c0,5.3-5.5,9.6-12.2,9.6s-12.2-4.3-12.2-9.6c0-3.1,1.9-5.8,4.8-7.6c-1.1-1.2-1.7-2.6-1.7-4.1
		c0-3.9,4.1-7.1,9.2-7.1c5.1,0,9.2,3.2,9.2,7.1c0,1.6-0.7,3-1.8,4.2C34.4,847,36.2,849.7,36.2,852.8z M29.1,852.7
		c0-2.5-2.3-4.6-5.2-4.6c-2.8,0-5.2,2.1-5.2,4.6s2.3,4.6,5.2,4.6C26.8,857.3,29.1,855.2,29.1,852.7z M20.6,840.9
		c0,1.2,1.5,2.2,3.3,2.2c1.8,0,3.3-1,3.3-2.2s-1.5-2.2-3.3-2.2C22.1,838.7,20.6,839.7,20.6,840.9z"/>
	<path d="M137.8,886.3c-8.8,0-17-2.5-23.9-6.8l32.7-45.2c0.3-0.8,0.5-1.6,0.5-2.5c0-4.8-5.1-8-9.9-8c-4.7,0-9.9,3.2-9.9,8.3H101
		l0-16.7c8.2-11.7,21.4-19.4,36.8-19.4c19.9,0,36.8,12.7,42.8,30.6l-40,59.7C139.6,886.3,138.7,886.3,137.8,886.3z"/>
	<path d="M128.8,848.2c0,7.9-6.4,14.2-14.2,14.2c-6,0-11.1-3.7-13.2-8.9l6.5,0c1.6,2,4,3.3,6.8,3.3c3.8,0,7-2.5,8.1-5.9
		c-2.2,1.6-5,2.6-8.2,2.6c-6.7,0-12.1-4.4-12.1-9.8c0-5.4,5.4-9.8,12.1-9.8C122.5,834,128.8,840.3,128.8,848.2z M119.9,843.8
		c0-2.6-2.4-4.7-5.3-4.7c-2.9,0-5.3,2.1-5.3,4.7c0,2.6,2.4,4.7,5.3,4.7C117.5,848.5,119.9,846.4,119.9,843.8z"/>
	<path d="M267,855.7c0,16.7-17.3,30.3-38.7,30.3c-21.4,0-38.7-13.6-38.7-30.3c0-9.8,5.9-18.5,15.1-24c-3.5-3.7-5.5-8.2-5.5-13.2
		c0-12.4,13.1-22.5,29.2-22.5s29.2,10.1,29.2,22.5c0,4.9-2.1,9.5-5.6,13.2C261.2,837.3,267,845.9,267,855.7z M244.5,855.3
		c0-8-7.3-14.6-16.4-14.6s-16.4,6.5-16.4,14.6c0,8,7.3,14.6,16.4,14.6S244.5,863.4,244.5,855.3z M217.5,818c0,3.9,4.7,7,10.6,7
		s10.6-3.1,10.6-7c0-3.9-4.7-7-10.6-7C222.3,811,217.5,814.2,217.5,818z"/>
	<path d="M357.6,855.7c0,16.7-17.3,30.3-38.7,30.3c-21.4,0-38.7-13.6-38.7-30.3c0-9.8,5.9-18.5,15.1-24c-3.5-3.7-5.5-8.2-5.5-13.2
		c0-12.4,13.1-22.5,29.2-22.5c16.1,0,29.2,10.1,29.2,22.5c0,4.9-2.1,9.5-5.6,13.2C351.7,837.3,357.6,845.9,357.6,855.7z M335,855.3
		c0-8-7.3-14.6-16.4-14.6s-16.4,6.5-16.4,14.6c0,8,7.3,14.6,16.4,14.6S335,863.4,335,855.3z M308.1,818c0,3.9,4.7,7,10.6,7
		s10.6-3.1,10.6-7c0-3.9-4.7-7-10.6-7C312.8,811,308.1,814.2,308.1,818z"/>
	<path d="M319,869.6l-1.7,0V843c-1.4,0-1.8,0.1-2.9,0.5v-1.7c1.4-0.4,2.8-0.7,4.3-0.7c0.1,0,0.1,0,0.2,0c0,0,0.1,0,0.1,0V869.6z"/>
	<path d="M448.1,855.7c0,16.7-17.3,30.3-38.7,30.3c-21.4,0-38.7-13.6-38.7-30.3c0-9.8,5.9-18.5,15.1-24c-3.5-3.7-5.5-8.2-5.5-13.2
		c0-12.4,13.1-22.5,29.2-22.5c16.1,0,29.2,10.1,29.2,22.5c0,4.9-2.1,9.5-5.6,13.2C442.3,837.3,448.1,845.9,448.1,855.7z
		 M425.6,855.3c0-8-7.3-14.6-16.4-14.6s-16.4,6.5-16.4,14.6c0,8,7.3,14.6,16.4,14.6S425.6,863.4,425.6,855.3z M398.7,818
		c0,3.9,4.7,7,10.6,7s10.6-3.1,10.6-7c0-3.9-4.7-7-10.6-7C403.4,811,398.7,814.2,398.7,818z"/>
	<path d="M409.2,869.6c-4.1,0-7.8-1.8-10.4-4.6l14.9-11.4c1.4-1.2,2.3-2.9,2.3-4.8c0-3.5-3-6.1-6.7-6.1c-3.7,0-6.6,2.6-6.6,6.1
		c0,0.5,0.1,1,0.2,1.5h-1.7c-0.1-0.5-0.1-1-0.1-1.5c0-4.3,3.7-7.7,8.2-7.7s8.3,3.5,8.3,7.7c0,2.1-0.9,4-2.4,5.4L401.2,865
		c2.2,1.8,4.9,3,8,3c3.1,0,5.9-1.1,8.1-2.9c0.3,0,0.7,0,1.1,0c0.5,0,0.9,0,1.3,0C417,867.9,413.3,869.6,409.2,869.6z"/>
	<path d="M538.7,855.7c0,16.7-17.3,30.3-38.7,30.3c-21.4,0-38.7-13.6-38.7-30.3c0-9.8,5.9-18.5,15.1-24c-3.5-3.7-5.5-8.2-5.5-13.2
		c0-12.4,13.1-22.5,29.2-22.5c16.1,0,29.2,10.1,29.2,22.5c0,4.9-2.1,9.5-5.6,13.2C532.8,837.3,538.7,845.9,538.7,855.7z
		 M516.2,855.3c0-8-7.3-14.6-16.4-14.6c-9,0-16.4,6.5-16.4,14.6c0,8,7.3,14.6,16.4,14.6C508.8,869.9,516.2,863.4,516.2,855.3z
		 M489.2,818c0,3.9,4.7,7,10.6,7s10.6-3.1,10.6-7c0-3.9-4.7-7-10.6-7C494,811,489.2,814.2,489.2,818z"/>
	<path d="M511.8,860c0,5.2-5.2,9.5-11.7,9.5c-6.1,0-11-3.7-11.6-8.5h2.3c0.6,3.6,4.4,6.4,9.3,6.4c5.3,0,9.6-3.4,9.6-7.4
		c0-1.6-1.2-3.1-2.4-4.3c-0.9-0.9-1.8-1-4.3-1h-7v-1.7h7c1.6,0,3.1-0.1,4.1-1.4c0.7-0.8,1-1.7,1-2.7c0-3.1-3.1-5.8-7.9-5.8
		c-4.3,0-7.7,2.1-8.4,4.9h-2.3c0.6-3.9,5.1-6.7,10.7-6.7c6,0,10.1,3.4,10.1,7.7c0,1.8-0.8,3.4-2.2,4.7
		C510.2,855,511.8,857.5,511.8,860z"/>
	<path d="M629.3,855.7c0,16.7-17.3,30.3-38.7,30.3c-21.4,0-38.7-13.6-38.7-30.3c0-9.8,5.9-18.5,15.1-24c-3.5-3.7-5.5-8.2-5.5-13.2
		c0-12.4,13.1-22.5,29.2-22.5c16.1,0,29.2,10.1,29.2,22.5c0,4.9-2.1,9.5-5.6,13.2C623.4,837.3,629.3,845.9,629.3,855.7z
		 M606.7,855.3c0-8-7.3-14.6-16.4-14.6c-9,0-16.4,6.5-16.4,14.6c0,8,7.3,14.6,16.4,14.6C599.4,869.9,606.7,863.4,606.7,855.3z
		 M579.8,818c0,3.9,4.7,7,10.6,7c5.8,0,10.6-3.1,10.6-7c0-3.9-4.7-7-10.6-7C584.5,811,579.8,814.2,579.8,818z"/>
	<path d="M604.6,856.8c-0.1,1-0.3,1.9-0.6,2.8h-9.3l0,9.3c-0.9,0.3-1.8,0.5-2.8,0.6v-9.9h-15.1c-0.4-1.3-0.6-2.8-0.6-4.2
		c0-7.9,6.4-14.2,14.2-14.2c1.6,0,3.1,0.3,4.3,0.7l0,15H604.6z M591.9,844.1c-0.6-0.1-1.1-0.1-1.7-0.1c-6.3,0-11.4,5.1-11.4,11.4
		c0,0.5,0,1,0.1,1.5h13V844.1z"/>
	<path d="M719.8,855.7c0,16.7-17.3,30.3-38.7,30.3c-21.4,0-38.7-13.6-38.7-30.3c0-9.8,5.9-18.5,15.1-24c-3.5-3.7-5.5-8.2-5.5-13.2
		c0-12.4,13.1-22.5,29.2-22.5s29.2,10.1,29.2,22.5c0,4.9-2.1,9.5-5.6,13.2C714,837.3,719.8,845.9,719.8,855.7z M697.3,855.3
		c0-8-7.3-14.6-16.4-14.6c-9,0-16.4,6.5-16.4,14.6c0,8,7.3,14.6,16.4,14.6C690,869.9,697.3,863.4,697.3,855.3z M670.4,818
		c0,3.9,4.7,7,10.6,7c5.8,0,10.6-3.1,10.6-7c0-3.9-4.7-7-10.6-7C675.1,811,670.4,814.2,670.4,818z"/>
	<path d="M687.9,846.8c-2-1.7-4.2-2.6-7-2.6c-3.6,0-6.8,2-8.7,4.7v3.7c2.3-2.1,5.8-3.4,9.6-3.4c6.8,0,12.2,4.4,12.2,9.9
		c0,2.1-0.9,4.1-2.3,5.7c-2.6,3-6.4,4.8-10.7,4.8c-5.4,0-10.2-3.1-12.6-7.6h3.8c1.9,2.6,5.4,4.4,9.1,4.4c5,0,9.2-3.2,9.2-7.1
		c0-3.9-4.1-7.2-9.1-7.2c-3.3,0-7.6,1.8-9.2,3.9h-3.5v-8c2.5-4.1,7-6.8,12.2-6.8c4.6,0,8.8,2.2,11.4,5.7H687.9z"/>
	<path d="M810.4,855.7c0,16.7-17.3,30.3-38.7,30.3c-21.4,0-38.7-13.6-38.7-30.3c0-9.8,5.9-18.5,15.1-24c-3.5-3.7-5.5-8.2-5.5-13.2
		c0-12.4,13.1-22.5,29.2-22.5S801,806,801,818.5c0,4.9-2.1,9.5-5.6,13.2C804.5,837.3,810.4,845.9,810.4,855.7z M787.9,855.3
		c0-8-7.3-14.6-16.4-14.6c-9,0-16.4,6.5-16.4,14.6c0,8,7.3,14.6,16.4,14.6S787.9,863.4,787.9,855.3z M760.9,818c0,3.9,4.7,7,10.6,7
		c5.8,0,10.6-3.1,10.6-7c0-3.9-4.7-7-10.6-7C765.6,811,760.9,814.2,760.9,818z"/>
	<path d="M784.5,859.1c0,2.1-0.9,4.1-2.3,5.7c-2.6,3-6.4,4.8-10.7,4.8c-7.9,0-14.2-6.4-14.2-14.2c0-7.9,6.4-14.2,14.2-14.2
		c5.1,0,9.6,2.7,12.1,6.8h-4.5c-1.9-2.1-4.7-3.4-7.8-3.4c-5.8,0-10.5,4.6-10.5,10.3c0,0.1,0,0.2,0,0.2c1.9-3.5,6.3-5.9,11.3-5.9
		C779.1,849.2,784.5,853.6,784.5,859.1z M781,859.3c0-3.9-4.1-7.1-9.1-7.1c-5,0-9.1,3.2-9.1,7.1c0,3.9,4.1,7.1,9.1,7.1
		C777,866.5,781,863.3,781,859.3z"/>
	<path d="M900.9,855.7c0,16.7-17.3,30.3-38.7,30.3c-21.4,0-38.7-13.6-38.7-30.3c0-9.8,5.9-18.5,15.1-24c-3.5-3.7-5.5-8.2-5.5-13.2
		c0-12.4,13.1-22.5,29.2-22.5c16.1,0,29.2,10.1,29.2,22.5c0,4.9-2.1,9.5-5.6,13.2C895.1,837.3,900.9,845.9,900.9,855.7z
		 M878.4,855.3c0-8-7.3-14.6-16.4-14.6c-9,0-16.4,6.5-16.4,14.6c0,8,7.3,14.6,16.4,14.6C871.1,869.9,878.4,863.4,878.4,855.3z
		 M851.5,818c0,3.9,4.7,7,10.6,7c5.8,0,10.6-3.1,10.6-7c0-3.9-4.7-7-10.6-7C856.2,811,851.5,814.2,851.5,818z"/>
	<path d="M862.1,869.6c-2.8,0-5.4-0.8-7.5-2.2l10.3-14.3c0.1-0.2,0.2-0.5,0.2-0.8c0-1.5-1.6-2.5-3.1-2.5c-1.5,0-3.1,1-3.1,2.6h-8.3
		l0-5.3c2.6-3.7,6.8-6.1,11.6-6.1c6.3,0,11.6,4,13.5,9.7L863,869.6C862.7,869.6,862.4,869.6,862.1,869.6z"/>
	<path d="M991.5,855.7c0,16.7-17.3,30.3-38.7,30.3c-21.4,0-38.7-13.6-38.7-30.3c0-9.8,5.9-18.5,15.1-24c-3.5-3.7-5.5-8.2-5.5-13.2
		c0-12.4,13.1-22.5,29.2-22.5c16.1,0,29.2,10.1,29.2,22.5c0,4.9-2.1,9.5-5.6,13.2C985.6,837.3,991.5,845.9,991.5,855.7z M969,855.3
		c0-8-7.3-14.6-16.4-14.6c-9,0-16.4,6.5-16.4,14.6c0,8,7.3,14.6,16.4,14.6C961.6,869.9,969,863.4,969,855.3z M942,818
		c0,3.9,4.7,7,10.6,7c5.8,0,10.6-3.1,10.6-7c0-3.9-4.7-7-10.6-7C946.8,811,942,814.2,942,818z"/>
	<path d="M964.9,860c0,5.3-5.5,9.6-12.2,9.6c-6.7,0-12.2-4.3-12.2-9.6c0-3.1,1.9-5.8,4.8-7.6c-1.1-1.2-1.7-2.6-1.7-4.1
		c0-3.9,4.1-7.1,9.2-7.1c5.1,0,9.2,3.2,9.2,7.1c0,1.6-0.7,3-1.8,4.2C963,854.2,964.9,856.9,964.9,860z M957.8,859.9
		c0-2.5-2.3-4.6-5.2-4.6s-5.2,2.1-5.2,4.6s2.3,4.6,5.2,4.6S957.8,862.4,957.8,859.9z M949.3,848.1c0,1.2,1.5,2.2,3.3,2.2
		c1.8,0,3.3-1,3.3-2.2c0-1.2-1.5-2.2-3.3-2.2C950.8,845.9,949.3,846.9,949.3,848.1z"/>
	<path d="M85.9,969.4c0,16.7-17.3,30.3-38.7,30.3c-21.4,0-38.7-13.6-38.7-30.3c0-9.8,5.9-18.5,15.1-24c-3.5-3.7-5.5-8.2-5.5-13.2
		c0-12.4,13.1-22.5,29.2-22.5s29.2,10.1,29.2,22.5c0,4.9-2.1,9.5-5.6,13.2C80,951,85.9,959.6,85.9,969.4z M63.4,969
		c0-8-7.3-14.6-16.4-14.6S30.6,961,30.6,969c0,8,7.3,14.6,16.4,14.6S63.4,977.1,63.4,969z M36.4,931.7c0,3.9,4.7,7,10.6,7
		s10.6-3.1,10.6-7c0-3.9-4.7-7-10.6-7C41.2,924.7,36.4,927.9,36.4,931.7z"/>
	<path d="M61.3,969.1c0,7.9-6.4,14.2-14.2,14.2c-6,0-11.1-3.7-13.2-8.9l6.5,0c1.6,2,4,3.3,6.8,3.3c3.8,0,7-2.5,8.1-5.9
		c-2.2,1.6-5,2.6-8.2,2.6c-6.7,0-12.1-4.4-12.1-9.8c0-5.4,5.4-9.8,12.1-9.8C54.9,954.8,61.3,961.2,61.3,969.1z M52.3,964.6
		c0-2.6-2.4-4.7-5.3-4.7c-2.9,0-5.3,2.1-5.3,4.7c0,2.6,2.4,4.7,5.3,4.7C50,969.3,52.3,967.2,52.3,964.6z"/>
	<path d="M182.9,954.8c0,25-20.2,45.2-45.2,45.2c-18.9,0-35.2-11.7-41.9-28.2l20.7,0c4.9,6.4,12.7,10.5,21.4,10.5
		c12.1,0,22.3-7.8,25.7-18.7c-6.8,5.1-16,8.2-26,8.2c-21.2,0-38.4-13.9-38.4-31.1s17.2-31.1,38.4-31.1
		C162.7,909.6,182.9,929.9,182.9,954.8z M154.6,940.7c0-8.2-7.5-14.9-16.8-14.9c-9.3,0-16.8,6.7-16.8,14.9c0,8.2,7.5,14.9,16.8,14.9
		C147,955.6,154.6,948.9,154.6,940.7z"/>
	<path d="M273.5,954.8c0,25-20.2,45.2-45.2,45.2c-18.9,0-35.2-11.7-41.9-28.2l20.7,0c4.9,6.4,12.7,10.5,21.4,10.5
		c12.1,0,22.3-7.8,25.7-18.7c-6.8,5.1-16,8.2-26,8.2c-21.2,0-38.4-13.9-38.4-31.1s17.2-31.1,38.4-31.1
		C253.2,909.6,273.5,929.9,273.5,954.8z M245.1,940.7c0-8.2-7.5-14.9-16.8-14.9c-9.3,0-16.8,6.7-16.8,14.9c0,8.2,7.5,14.9,16.8,14.9
		C237.6,955.6,245.1,948.9,245.1,940.7z"/>
	<path d="M228.8,954.8l-1.7,0v-26.6c-1.4,0-1.8,0.1-2.9,0.5V927c1.4-0.4,2.8-0.7,4.3-0.7c0.1,0,0.1,0,0.2,0c0,0,0.1,0,0.1,0V954.8z"
		/>
	<path d="M364,954.8c0,25-20.2,45.2-45.2,45.2c-18.9,0-35.2-11.7-41.9-28.2l20.7,0c4.9,6.4,12.7,10.5,21.4,10.5
		c12.1,0,22.3-7.8,25.7-18.7c-6.8,5.1-16,8.2-26,8.2c-21.2,0-38.4-13.9-38.4-31.1s17.2-31.1,38.4-31.1
		C343.8,909.6,364,929.9,364,954.8z M335.7,940.7c0-8.2-7.5-14.9-16.8-14.9s-16.8,6.7-16.8,14.9c0,8.2,7.5,14.9,16.8,14.9
		S335.7,948.9,335.7,940.7z"/>
	<path d="M318.9,954.8c-4.1,0-7.8-1.8-10.4-4.6l14.9-11.4c1.4-1.2,2.3-2.9,2.3-4.8c0-3.5-3-6.1-6.7-6.1s-6.6,2.6-6.6,6.1
		c0,0.5,0.1,1,0.2,1.5H311c-0.1-0.5-0.1-1-0.1-1.5c0-4.3,3.7-7.7,8.2-7.7c4.5,0,8.3,3.5,8.3,7.7c0,2.1-0.9,4-2.4,5.4L311,950.2
		c2.2,1.8,4.9,3,8,3c3.1,0,5.9-1.1,8.1-2.9c0.3,0,0.7,0,1.1,0c0.5,0,0.9,0,1.3,0C326.8,953.1,323.1,954.8,318.9,954.8z"/>
	<path d="M454.6,954.8c0,25-20.2,45.2-45.2,45.2c-18.9,0-35.2-11.7-41.9-28.2l20.7,0c4.9,6.4,12.7,10.5,21.4,10.5
		c12.1,0,22.3-7.8,25.7-18.7c-6.8,5.1-16,8.2-26,8.2c-21.2,0-38.4-13.9-38.4-31.1s17.2-31.1,38.4-31.1
		C434.4,909.6,454.6,929.9,454.6,954.8z M426.2,940.7c0-8.2-7.5-14.9-16.8-14.9s-16.8,6.7-16.8,14.9c0,8.2,7.5,14.9,16.8,14.9
		S426.2,948.9,426.2,940.7z"/>
	<path d="M421.5,945.2c0,5.2-5.2,9.5-11.7,9.5c-6.1,0-11-3.7-11.6-8.5h2.3c0.6,3.6,4.4,6.4,9.3,6.4c5.3,0,9.6-3.4,9.6-7.4
		c0-1.6-1.2-3.1-2.4-4.3c-0.9-0.9-1.8-1-4.3-1h-7v-1.7h7c1.6,0,3.1-0.1,4.1-1.4c0.7-0.8,1-1.7,1-2.7c0-3.1-3.1-5.8-7.9-5.8
		c-4.3,0-7.7,2.1-8.4,4.9h-2.3c0.6-3.9,5.1-6.7,10.7-6.7c6,0,10.1,3.4,10.1,7.7c0,1.8-0.8,3.4-2.2,4.7
		C420,940.2,421.5,942.7,421.5,945.2z"/>
	<path d="M545.2,954.8c0,25-20.2,45.2-45.2,45.2c-18.9,0-35.2-11.7-41.9-28.2l20.7,0c4.9,6.4,12.7,10.5,21.4,10.5
		c12.1,0,22.3-7.8,25.7-18.7c-6.8,5.1-15.9,8.2-26,8.2c-21.2,0-38.4-13.9-38.4-31.1s17.2-31.1,38.4-31.1
		C524.9,909.6,545.2,929.9,545.2,954.8z M516.8,940.7c0-8.2-7.5-14.9-16.8-14.9c-9.3,0-16.8,6.7-16.8,14.9c0,8.2,7.5,14.9,16.8,14.9
		C509.3,955.6,516.8,948.9,516.8,940.7z"/>
	<path d="M514.3,942c-0.1,1-0.3,1.9-0.6,2.8h-9.3l0,9.3c-0.9,0.3-1.8,0.5-2.8,0.6v-9.9h-15.1c-0.4-1.3-0.6-2.8-0.6-4.2
		c0-7.9,6.4-14.2,14.2-14.2c1.6,0,3.1,0.3,4.3,0.7l0,15H514.3z M501.7,929.3c-0.6-0.1-1.1-0.1-1.7-0.1c-6.3,0-11.4,5.1-11.4,11.4
		c0,0.5,0,1,0.1,1.5h13V929.3z"/>
	<path d="M635.7,954.8c0,25-20.2,45.2-45.2,45.2c-18.9,0-35.2-11.7-41.9-28.2l20.7,0c4.9,6.4,12.7,10.5,21.4,10.5
		c12.1,0,22.3-7.8,25.7-18.7c-6.8,5.1-15.9,8.2-26,8.2c-21.2,0-38.4-13.9-38.4-31.1s17.2-31.1,38.4-31.1
		C615.5,909.6,635.7,929.9,635.7,954.8z M607.4,940.7c0-8.2-7.5-14.9-16.8-14.9c-9.3,0-16.8,6.7-16.8,14.9c0,8.2,7.5,14.9,16.8,14.9
		C599.8,955.6,607.4,948.9,607.4,940.7z"/>
	<path d="M597.6,932c-2-1.7-4.2-2.6-7-2.6c-3.6,0-6.8,2-8.7,4.7v3.7c2.3-2.1,5.8-3.4,9.6-3.4c6.8,0,12.2,4.4,12.2,9.9
		c0,2.1-0.9,4.1-2.3,5.7c-2.6,3-6.4,4.8-10.7,4.8c-5.4,0-10.2-3.1-12.6-7.6h3.8c1.9,2.6,5.4,4.4,9.1,4.4c5,0,9.2-3.2,9.2-7.1
		s-4.1-7.2-9.1-7.2c-3.3,0-7.6,1.8-9.2,3.9h-3.5v-8c2.5-4.1,7-6.8,12.2-6.8c4.6,0,8.8,2.2,11.4,5.7H597.6z"/>
	<path d="M726.3,954.8c0,25-20.2,45.2-45.2,45.2c-18.9,0-35.2-11.7-41.9-28.2l20.7,0c4.9,6.4,12.7,10.5,21.4,10.5
		c12.1,0,22.3-7.8,25.7-18.7c-6.8,5.1-15.9,8.2-26,8.2c-21.2,0-38.4-13.9-38.4-31.1s17.2-31.1,38.4-31.1
		C706,909.6,726.3,929.9,726.3,954.8z M697.9,940.7c0-8.2-7.5-14.9-16.8-14.9c-9.3,0-16.8,6.7-16.8,14.9c0,8.2,7.5,14.9,16.8,14.9
		C690.4,955.6,697.9,948.9,697.9,940.7z"/>
	<path d="M694.3,944.3c0,2.1-0.9,4.1-2.3,5.7c-2.6,3-6.4,4.8-10.7,4.8c-7.9,0-14.2-6.4-14.2-14.2s6.4-14.2,14.2-14.2
		c5.1,0,9.6,2.7,12.1,6.8H689c-1.9-2.1-4.7-3.4-7.8-3.4c-5.8,0-10.5,4.6-10.5,10.3c0,0.1,0,0.2,0,0.2c1.9-3.5,6.3-5.9,11.3-5.9
		C688.8,934.4,694.3,938.8,694.3,944.3z M690.8,944.5c0-3.9-4.1-7.1-9.1-7.1c-5,0-9.1,3.2-9.1,7.1s4.1,7.1,9.1,7.1
		C686.7,951.7,690.8,948.5,690.8,944.5z"/>
	<path d="M816.9,954.8c0,25-20.2,45.2-45.2,45.2c-18.9,0-35.2-11.7-41.9-28.2l20.7,0c4.9,6.4,12.7,10.5,21.4,10.5
		c12.1,0,22.3-7.8,25.7-18.7c-6.8,5.1-15.9,8.2-26,8.2c-21.2,0-38.4-13.9-38.4-31.1s17.2-31.1,38.4-31.1
		C796.6,909.6,816.9,929.9,816.9,954.8z M788.5,940.7c0-8.2-7.5-14.9-16.8-14.9c-9.3,0-16.8,6.7-16.8,14.9c0,8.2,7.5,14.9,16.8,14.9
		C781,955.6,788.5,948.9,788.5,940.7z"/>
	<path d="M771.9,954.8c-2.8,0-5.4-0.8-7.5-2.2l10.3-14.3c0.1-0.2,0.2-0.5,0.2-0.8c0-1.5-1.6-2.5-3.1-2.5c-1.5,0-3.1,1-3.1,2.6h-8.3
		v-5.3c2.6-3.7,6.8-6.1,11.6-6.1c6.3,0,11.6,4,13.5,9.7l-12.6,18.8C772.4,954.8,772.2,954.8,771.9,954.8z"/>
	<path d="M907.4,954.8c0,25-20.2,45.2-45.2,45.2c-18.9,0-35.2-11.7-41.9-28.2l20.7,0c4.9,6.4,12.7,10.5,21.4,10.5
		c12.1,0,22.3-7.8,25.7-18.7c-6.8,5.1-15.9,8.2-26,8.2c-21.2,0-38.4-13.9-38.4-31.1s17.2-31.1,38.4-31.1
		C887.2,909.6,907.4,929.9,907.4,954.8z M879.1,940.7c0-8.2-7.5-14.9-16.8-14.9c-9.3,0-16.8,6.7-16.8,14.9c0,8.2,7.5,14.9,16.8,14.9
		C871.5,955.6,879.1,948.9,879.1,940.7z"/>
	<path d="M874.6,945.2c0,5.3-5.5,9.6-12.2,9.6c-6.7,0-12.2-4.3-12.2-9.6c0-3.1,1.9-5.8,4.8-7.6c-1.1-1.2-1.7-2.6-1.7-4.1
		c0-3.9,4.1-7.1,9.2-7.1c5.1,0,9.2,3.2,9.2,7.1c0,1.6-0.7,3-1.8,4.2C872.8,939.4,874.6,942.1,874.6,945.2z M867.5,945.1
		c0-2.5-2.3-4.6-5.2-4.6c-2.8,0-5.2,2.1-5.2,4.6c0,2.5,2.3,4.6,5.2,4.6C865.2,949.7,867.5,947.6,867.5,945.1z M859,933.3
		c0,1.2,1.5,2.2,3.3,2.2s3.3-1,3.3-2.2c0-1.2-1.5-2.2-3.3-2.2S859,932.1,859,933.3z"/>
	<path d="M998,954.8c0,25-20.2,45.2-45.2,45.2c-18.9,0-35.2-11.7-41.9-28.2l20.7,0c4.9,6.4,12.7,10.5,21.4,10.5
		c12.1,0,22.3-7.8,25.7-18.7c-6.8,5.1-15.9,8.2-26,8.2c-21.2,0-38.4-13.9-38.4-31.1s17.2-31.1,38.4-31.1
		C977.7,909.6,998,929.9,998,954.8z M969.6,940.7c0-8.2-7.5-14.9-16.8-14.9c-9.3,0-16.8,6.7-16.8,14.9c0,8.2,7.5,14.9,16.8,14.9
		C962.1,955.6,969.6,948.9,969.6,940.7z"/>
	<path d="M967.2,940.6c0,7.9-6.4,14.2-14.2,14.2c-6,0-11.1-3.7-13.2-8.9l6.5,0c1.5,2,4,3.3,6.8,3.3c3.8,0,7-2.5,8.1-5.9
		c-2.2,1.6-5,2.6-8.2,2.6c-6.7,0-12.1-4.4-12.1-9.8c0-5.4,5.4-9.8,12.1-9.8C960.8,926.3,967.2,932.7,967.2,940.6z M958.3,936.1
		c0-2.6-2.4-4.7-5.3-4.7s-5.3,2.1-5.3,4.7s2.4,4.7,5.3,4.7S958.3,938.7,958.3,936.1z"/>
</g>
</svg>
