<?xml version="1.0" encoding="utf-8"?>
<!-- Generator: Adobe Illustrator 18.1.1, SVG Export Plug-In . SVG Version: 6.00 Build 0)  -->
<svg version="1.1" id="Layer_1" xmlns="http://www.w3.org/2000/svg" xmlns:xlink="http://www.w3.org/1999/xlink" x="0px" y="0px"
	 viewBox="0 0 1000 1000" enable-background="new 0 0 1000 1000" xml:space="preserve">
<g>
	<g>
		<path fill="#EF5064" d="M3.8,387.1h14.7v22h-5.2v-18H3.8V387.1z M11.9,379.7c0-2.1,1.6-3.5,3.7-3.5c2.2,0,3.7,1.4,3.7,3.5
			c0,2.1-1.5,3.5-3.7,3.5C13.4,383.2,11.9,381.8,11.9,379.7z"/>
	</g>
	<g>
		<path fill="#231F20" d="M64.7,385.3c2.6,0,4.4,2,4.4,4.5c0,2.6-1.9,4.6-4.4,4.6c-2.6,0-4.4-1.9-4.4-4.6
			C60.2,387.2,62.1,385.3,64.7,385.3z M64.7,400.6c2.6,0,4.4,1.9,4.4,4.5s-1.9,4.5-4.4,4.5c-2.6,0-4.4-1.9-4.4-4.5
			S62.1,400.6,64.7,400.6z"/>
		<path fill="#231F20" d="M106,387.4h19.9v3.8H106V387.4z M106,397.4h19.9v3.8H106V397.4z"/>
		<path fill="#231F20" d="M177.7,404.9v4.2h-19.9v-4.2h7.7v-18.8h-6v-3.2c3.2-0.5,5.4-1.3,7.4-2.3h3.8v24.3H177.7z"/>
		<path fill="#231F20" d="M187.8,415.7c3.8-1.5,5.7-3.8,5.7-6.9c-0.2,0-0.4,0-0.6,0c-2.2,0-4.2-1.4-4.2-4c0-2.5,2-4,4.3-4
			c3.2,0,4.8,2.6,4.8,6.7c0,5.5-3.1,9.4-8.7,11.2L187.8,415.7z M188.4,389.8c0-2.6,1.9-4.5,4.4-4.5c2.6,0,4.4,2,4.4,4.5
			c0,2.6-1.9,4.6-4.4,4.6C190.3,394.4,188.4,392.5,188.4,389.8z"/>
	</g>
	<g>
		<path fill="#F6921E" d="M234,387.1h14.7v21.6c0,5.4-2.2,9.7-9.7,9.7c-2.6,0-4.8-0.6-6.6-1.5l1.6-3.7c1.7,0.8,3.3,1.1,4.7,1.1
			c3.8,0,4.8-1.8,4.8-5.3v-17.8H234V387.1z M242.1,379.7c0-2.1,1.6-3.5,3.7-3.5c2.2,0,3.7,1.4,3.7,3.5c0,2.1-1.5,3.5-3.7,3.5
			C243.7,383.2,242.1,381.8,242.1,379.7z"/>
	</g>
	<g>
		<path fill="#231F20" d="M295,385.3c2.6,0,4.4,2,4.4,4.5c0,2.6-1.9,4.6-4.4,4.6c-2.6,0-4.4-1.9-4.4-4.6
			C290.5,387.2,292.4,385.3,295,385.3z M295,400.6c2.6,0,4.4,1.9,4.4,4.5s-1.9,4.5-4.4,4.5c-2.6,0-4.4-1.9-4.4-4.5
			S292.4,400.6,295,400.6z"/>
		<path fill="#231F20" d="M336.2,387.4h19.9v3.8h-19.9V387.4z M336.2,397.4h19.9v3.8h-19.9V397.4z"/>
		<path fill="#231F20" d="M387.3,379.7h5.3l7.9,16.5l2.7,6.2h0.1c-0.2-3-0.7-6.7-0.7-10v-12.8h5v29.4h-5.3l-7.9-16.6l-2.7-6.2h-0.1
			c0.2,3.1,0.7,6.6,0.7,9.9v12.8h-5V379.7z"/>
		<path fill="#231F20" d="M418.1,415.7c3.8-1.5,5.7-3.8,5.7-6.9c-0.2,0-0.4,0-0.6,0c-2.2,0-4.2-1.4-4.2-4c0-2.5,2-4,4.3-4
			c3.2,0,4.8,2.6,4.8,6.7c0,5.5-3.1,9.4-8.7,11.2L418.1,415.7z M418.7,389.8c0-2.6,1.9-4.5,4.4-4.5c2.6,0,4.4,2,4.4,4.5
			c0,2.6-1.9,4.6-4.4,4.6C420.5,394.4,418.7,392.5,418.7,389.8z"/>
	</g>
	<g>
		<path fill="#231F20" d="M5.8,458.9h4.3l0.4,5h0.1c2.2-3.5,5.6-5.5,9.4-5.5c1.8,0,3,0.3,4.3,0.9l-1.1,4.4c-1.4-0.4-2.3-0.7-4-0.7
			c-3,0-6,1.6-8.2,5.8v12.2H5.8V458.9z"/>
		<path fill="#231F20" d="M39.7,458.3c6.6,0,10.2,4.4,10.2,10.5c0,1-0.1,2-0.2,2.5h-16c0.4,4,3.4,6.1,7.4,6.1c2.3,0,4.2-0.7,6.2-1.8
			l1.8,3.2c-2.4,1.5-5.4,2.6-8.6,2.6c-6.7,0-12-4.3-12-11.5C28.4,462.7,34,458.3,39.7,458.3z M45.2,467.8c0-3.4-1.8-5.5-5.3-5.5
			c-3,0-5.6,1.9-6.2,5.5H45.2z"/>
		<path fill="#231F20" d="M60.2,482.7v6.9h-5.2v-30.8h4.3l0.4,2.5h0.1c1.9-1.8,4.5-3.1,7-3.1c5.7,0,9,4.4,9,11.2
			c0,7.5-4.7,11.9-9.8,11.9c-2,0-4.3-0.9-6.1-2.6L60.2,482.7z M65,477.2c3.1,0,5.5-2.6,5.5-7.6c0-4.4-1.5-7-5.1-7
			c-1.7,0-3.4,0.8-5.2,2.6v9.9C61.8,476.7,63.6,477.2,65,477.2z"/>
		<path fill="#231F20" d="M91,458.3c6.6,0,10.2,4.4,10.2,10.5c0,1-0.1,2-0.2,2.5H85c0.4,4,3.4,6.1,7.4,6.1c2.3,0,4.2-0.7,6.2-1.8
			l1.8,3.2c-2.4,1.5-5.4,2.6-8.6,2.6c-6.7,0-12-4.3-12-11.5C79.7,462.7,85.2,458.3,91,458.3z M96.5,467.8c0-3.4-1.8-5.5-5.3-5.5
			c-3,0-5.6,1.9-6.2,5.5H96.5z"/>
		<path fill="#231F20" d="M120.9,466.8c-0.2-2.5-1.7-4.3-5.3-4.3c-2.5,0-4.9,1.1-7.2,2.3l-1.9-3.5c2.6-1.6,6.3-3.1,10.1-3.1
			c6.1,0,9.5,3.4,9.5,9.5v13.1h-4.2l-0.4-2.7h-0.1c-2.3,1.8-5.3,3.3-8.3,3.3c-4.3,0-7.4-2.6-7.4-6.5
			C105.7,470.1,110.1,467.6,120.9,466.8z M114.6,477.4c2.2,0,4.3-1.1,6.3-2.7v-4.7c-7.9,0.5-10.2,2.2-10.2,4.5
			C110.7,476.6,112.4,477.4,114.6,477.4z"/>
		<path fill="#231F20" d="M136.7,463h-5.9v-3.9l6.1-0.2l0.7-6h4.3v6h10.1v4.1h-10.1v9.1c0,3.6,1.3,5.3,5.1,5.3
			c1.9,0,3.4-0.4,4.8-0.9l1,3.8c-2,0.7-4.4,1.3-7.1,1.3c-6.7,0-9-3.8-9-9.4V463z"/>
	</g>
	<g>
		<path fill="#008CCF" d="M183.1,449.2h5.2v19.8h0.2l9.9-10.2h5.7l-8.5,8.9l9.5,13.2h-5.7l-6.9-10l-4.2,4.2v5.7h-5.2V449.2z"/>
	</g>
	<g>
		<path fill="#231F20" d="M243.8,457.1c2.6,0,4.4,2,4.4,4.5c0,2.6-1.9,4.6-4.4,4.6c-2.6,0-4.4-1.9-4.4-4.6
			C239.3,459.1,241.2,457.1,243.8,457.1z M243.8,472.4c2.6,0,4.4,1.9,4.4,4.5s-1.9,4.5-4.4,4.5c-2.6,0-4.4-1.9-4.4-4.5
			S241.2,472.4,243.8,472.4z"/>
		<path fill="#231F20" d="M259.4,459.2h19.9v3.8h-19.9V459.2z M259.4,469.2h19.9v3.8h-19.9V469.2z"/>
		<path fill="#231F20" d="M315.9,468.4c0-8.5,3.8-15.4,9.8-20.4l2.9,2.4c-5.7,5.2-8.2,10.7-8.2,18s2.5,12.9,8.2,18l-2.9,2.4
			C319.7,483.9,315.9,477,315.9,468.4z"/>
	</g>
	<g>
		<path fill="#EF5064" d="M336.4,458.9h14.7v22h-5.2v-18h-9.6V458.9z M344.5,451.6c0-2.1,1.6-3.5,3.7-3.5c2.2,0,3.7,1.4,3.7,3.5
			c0,2.1-1.5,3.5-3.7,3.5C346,455,344.5,453.6,344.5,451.6z"/>
	</g>
	<g>
		<path fill="#231F20" d="M369.7,468h-8v-3.8h8v-8.5h4v8.5h8v3.8h-8v8.5h-4V468z"/>
	</g>
	<g>
		<path fill="#F6921E" d="M387.5,458.9h14.7v21.6c0,5.4-2.2,9.7-9.7,9.7c-2.6,0-4.8-0.6-6.6-1.5l1.6-3.7c1.7,0.8,3.3,1.1,4.7,1.1
			c3.8,0,4.8-1.8,4.8-5.3V463h-9.6V458.9z M395.6,451.6c0-2.1,1.6-3.5,3.7-3.5c2.2,0,3.7,1.4,3.7,3.5c0,2.1-1.5,3.5-3.7,3.5
			C397.2,455,395.6,453.6,395.6,451.6z"/>
	</g>
	<g>
		<path fill="#231F20" d="M414.9,486.5c5.7-5.2,8.2-10.7,8.2-18s-2.5-12.9-8.2-18l2.9-2.4c6,5,9.8,11.9,9.8,20.4s-3.8,15.4-9.8,20.4
			L414.9,486.5z"/>
		<path fill="#231F20" d="M472.7,458.3c2.6,0,4.4,1,6.1,2.6l-0.2-3.7v-8h5.2v31.7h-4.3l-0.4-2.6h-0.1c-1.7,1.7-4.2,3.1-6.6,3.1
			c-5.7,0-9.4-4.3-9.4-11.5C463,462.7,467.7,458.3,472.7,458.3z M473.7,477.2c1.8,0,3.5-0.9,5-2.6v-9.9c-1.6-1.5-3.1-2-4.7-2
			c-3.1,0-5.6,2.6-5.6,7.3C468.3,474.6,470.3,477.2,473.7,477.2z"/>
		<path fill="#231F20" d="M490,458.9h14.7v22h-5.2v-18H490V458.9z M498.1,451.6c0-2.1,1.6-3.5,3.7-3.5c2.2,0,3.7,1.4,3.7,3.5
			c0,2.1-1.5,3.5-3.7,3.5C499.7,455,498.1,453.6,498.1,451.6z"/>
		<path fill="#231F20" d="M513.7,458.9h5.2l4.3,11.4c0.8,2.2,1.5,4.4,2.2,6.6h0.2c0.7-2.2,1.4-4.4,2.2-6.6l4.3-11.4h4.9l-8.6,22
			h-5.9L513.7,458.9z"/>
		<path fill="#231F20" d="M566.1,477.9c8.9-7.7,14.4-12.6,14.4-17.1c0-3-1.9-4.9-5.5-4.9c-2.5,0-4.6,1.5-6.3,3.2l-2.8-2.9
			c2.7-2.8,5.6-4.4,9.8-4.4c5.9,0,9.7,3.5,9.7,8.8c0,5.1-5.2,10.3-11.8,16.3c1.7-0.1,3.6-0.3,5.2-0.3h8.1v4.4h-20.8V477.9z"/>
	</g>
	<g>
		<path fill="#231F20" d="M106.3,530.7H121v22h-5.2v-18h-9.6V530.7z M114.4,523.4c0-2.1,1.6-3.5,3.7-3.5c2.2,0,3.7,1.4,3.7,3.5
			c0,2.1-1.5,3.5-3.7,3.5C115.9,526.8,114.4,525.4,114.4,523.4z"/>
		<path fill="#231F20" d="M153.2,525.5c-1.6-0.6-3.1-0.9-4.8-0.9c-3.4,0-4.8,1.7-4.8,4.8v1.3h8.4v4.1h-8.4v18h-5.1v-18h-6.1v-3.9
			l6.1-0.2v-1.2c0-5.2,2.9-9,9.3-9c2.4,0,4.6,0.4,6.6,1.2L153.2,525.5z"/>
	</g>
	<g>
		<path fill="#99B72D" d="M197.5,538.6c-0.2-2.5-1.7-4.3-5.3-4.3c-2.5,0-4.9,1.1-7.2,2.3l-1.9-3.5c2.6-1.6,6.3-3.1,10.1-3.1
			c6.1,0,9.5,3.4,9.5,9.5v13.1h-4.2L198,550h-0.1c-2.3,1.8-5.3,3.3-8.3,3.3c-4.3,0-7.4-2.6-7.4-6.5
			C182.3,541.9,186.6,539.4,197.5,538.6z M191.2,549.2c2.2,0,4.3-1.1,6.3-2.7v-4.7c-7.9,0.5-10.2,2.2-10.2,4.5
			C187.3,548.4,189,549.2,191.2,549.2z"/>
	</g>
	<g>
		<path fill="#231F20" d="M214.2,521h12.8v2.8h-8.8v33h8.8v2.8h-12.8V521z"/>
	</g>
	<g>
		<path fill="#008CCF" d="M234.3,521h5.2v19.8h0.2l9.9-10.2h5.7l-8.5,8.9l9.5,13.2h-5.7l-6.9-10l-4.2,4.2v5.7h-5.2V521z"/>
	</g>
	<g>
		<path fill="#231F20" d="M269.2,556.7v-33h-8.8V521h12.8v38.6h-12.8v-2.8H269.2z"/>
		<path fill="#231F20" d="M312.4,536l17.1-11.3v4.8l-12.7,8.3v0.2l12.7,8.3v4.8l-17.1-11.3V536z"/>
	</g>
	<g>
		<path fill="#929497" d="M368.5,541.3l-7.5-10.6h5.6l2.9,4.2c0.7,1.2,1.6,2.5,2.4,3.8h0.2c0.7-1.3,1.5-2.6,2.2-3.8l2.6-4.1h5.4
			l-7.5,11.1l8,10.9h-5.6l-3.2-4.4c-0.9-1.2-1.8-2.6-2.7-3.9h-0.2c-0.8,1.3-1.6,2.6-2.4,4l-2.9,4.3h-5.4L368.5,541.3z"/>
	</g>
	<g>
		<path fill="#231F20" d="M417.9,534.8h-5.9v-3.9l6.1-0.2l0.7-6h4.3v6h10.1v4.1h-10.1v9.1c0,3.6,1.3,5.3,5.1,5.3
			c1.9,0,3.4-0.4,4.8-0.9l1,3.8c-2,0.7-4.4,1.3-7.1,1.3c-6.7,0-9-3.8-9-9.4V534.8z"/>
		<path fill="#231F20" d="M438.7,521h5.2v8.2l-0.3,4.7c2-2,4.5-3.8,7.9-3.8c5.1,0,7.4,3.2,7.4,8.9v13.6h-5.2v-13
			c0-3.5-1.1-5.2-4.1-5.2c-2.2,0-3.6,1-5.7,3.1v15h-5.2V521z"/>
		<path fill="#231F20" d="M474.8,530.2c6.6,0,10.2,4.4,10.2,10.5c0,1-0.1,2-0.2,2.5h-16c0.4,4,3.4,6.1,7.4,6.1
			c2.3,0,4.2-0.7,6.2-1.8l1.8,3.2c-2.4,1.5-5.4,2.6-8.6,2.6c-6.7,0-12-4.3-12-11.5C463.4,534.5,469,530.2,474.8,530.2z M480.2,539.6
			c0-3.4-1.8-5.5-5.3-5.5c-3,0-5.6,1.9-6.2,5.5H480.2z"/>
		<path fill="#231F20" d="M490,530.7h4.3l0.4,3.3h0.2c2.1-2.1,4.6-3.9,7.9-3.9c5.1,0,7.4,3.2,7.4,8.9v13.6H505v-13
			c0-3.5-1.1-5.2-4.1-5.2c-2.2,0-3.6,1-5.7,3.1v15H490V530.7z"/>
	</g>
	<g>
		<path fill="#EF5064" d="M541.1,530.7h14.7v22h-5.2v-18h-9.6V530.7z M549.1,523.4c0-2.1,1.6-3.5,3.7-3.5c2.2,0,3.7,1.4,3.7,3.5
			c0,2.1-1.5,3.5-3.7,3.5C550.7,526.8,549.1,525.4,549.1,523.4z"/>
	</g>
	<g>
		<path fill="#231F20" d="M602,528.9c2.6,0,4.4,2,4.4,4.5c0,2.6-1.9,4.6-4.4,4.6c-2.6,0-4.4-1.9-4.4-4.6
			C597.5,530.9,599.4,528.9,602,528.9z M602,544.2c2.6,0,4.4,1.9,4.4,4.5s-1.9,4.5-4.4,4.5c-2.6,0-4.4-1.9-4.4-4.5
			S599.4,544.2,602,544.2z"/>
		<path fill="#231F20" d="M617.6,531h19.9v3.8h-19.9V531z M617.6,541.1h19.9v3.8h-19.9V541.1z"/>
	</g>
	<g>
		<path fill="#008CCF" d="M669.3,521h5.2v19.8h0.2l9.9-10.2h5.7l-8.5,8.9l9.5,13.2h-5.7l-6.9-10l-4.2,4.2v5.7h-5.2V521z"/>
	</g>
	<g>
		<path fill="#231F20" d="M730.5,530.2c6.6,0,10.2,4.4,10.2,10.5c0,1-0.1,2-0.2,2.5h-16c0.4,4,3.4,6.1,7.4,6.1
			c2.3,0,4.2-0.7,6.2-1.8l1.8,3.2c-2.4,1.5-5.4,2.6-8.6,2.6c-6.7,0-12-4.3-12-11.5C719.2,534.5,724.8,530.2,730.5,530.2z M736,539.6
			c0-3.4-1.8-5.5-5.3-5.5c-3,0-5.6,1.9-6.2,5.5H736z"/>
		<path fill="#231F20" d="M745.2,521h12.1V545c0,3,1.7,4.1,4,4.1c1.1,0,2.3-0.3,3.8-0.9l1.2,3.8c-2.1,0.7-3.7,1.3-6.2,1.3
			c-5.2,0-7.9-3.1-7.9-8.6v-19.6h-7V521z"/>
		<path fill="#231F20" d="M772.9,546.6c2.5,1.7,5.1,2.8,8.5,2.8c3.5,0,5-1.1,5-2.6s-2.1-2.5-6.5-3.6c-4.2-1.1-8.1-3-8.1-6.3
			c0-3.9,3.5-6.6,9.7-6.6c3.6,0,6.9,1.4,9.2,2.9l-2.4,3.2c-2-1.3-4.2-2.2-6.7-2.2c-3.4,0-4.6,1-4.6,2.4c0,1.6,2.6,2.4,6.2,3.3
			c5.1,1.3,8.4,3,8.4,6.6c0,3.8-3.6,6.8-10.3,6.8c-4.1,0-8.1-1.5-10.8-3.4L772.9,546.6z"/>
		<path fill="#231F20" d="M807.4,530.2c6.6,0,10.2,4.4,10.2,10.5c0,1-0.1,2-0.2,2.5h-16c0.4,4,3.4,6.1,7.4,6.1
			c2.3,0,4.2-0.7,6.2-1.8l1.8,3.2c-2.4,1.5-5.4,2.6-8.6,2.6c-6.7,0-12-4.3-12-11.5C796.1,534.5,801.7,530.2,807.4,530.2z
			 M812.9,539.6c0-3.4-1.8-5.5-5.3-5.5c-3,0-5.6,1.9-6.2,5.5H812.9z"/>
	</g>
	<g>
		<path fill="#F6921E" d="M848.1,530.7h14.7v21.6c0,5.4-2.2,9.7-9.7,9.7c-2.6,0-4.8-0.6-6.6-1.5l1.6-3.7c1.7,0.8,3.3,1.1,4.7,1.1
			c3.8,0,4.8-1.8,4.8-5.3v-17.8h-9.6V530.7z M856.2,523.4c0-2.1,1.6-3.5,3.7-3.5c2.2,0,3.7,1.4,3.7,3.5c0,2.1-1.5,3.5-3.7,3.5
			C857.7,526.8,856.2,525.4,856.2,523.4z"/>
	</g>
	<g>
		<path fill="#231F20" d="M909,528.9c2.6,0,4.4,2,4.4,4.5c0,2.6-1.9,4.6-4.4,4.6c-2.6,0-4.4-1.9-4.4-4.6
			C904.5,530.9,906.4,528.9,909,528.9z M909,544.2c2.6,0,4.4,1.9,4.4,4.5s-1.9,4.5-4.4,4.5c-2.6,0-4.4-1.9-4.4-4.5
			S906.4,544.2,909,544.2z"/>
		<path fill="#231F20" d="M924.7,531h19.9v3.8h-19.9V531z M924.7,541.1h19.9v3.8h-19.9V541.1z"/>
	</g>
	<g>
		<path fill="#008CCF" d="M976.3,521h5.2v19.8h0.2l9.9-10.2h5.7l-8.5,8.9l9.5,13.2h-5.7l-6.9-10l-4.2,4.2v5.7h-5.2V521z"/>
	</g>
	<g>
		<path fill="#231F20" d="M23.1,624.6h-4.2l-0.4-3.5h-0.2c-2.1,2.4-4.5,4-7.8,4c-5.1,0-7.4-3.2-7.4-8.9v-13.6h5.2v13
			c0,3.5,1.1,5.2,4.1,5.2c2.1,0,3.5-0.9,5.5-3.3v-14.9h5.2V624.6z"/>
		<path fill="#231F20" d="M29.3,602.5h4.3l0.4,3.3h0.2c2.1-2.1,4.6-3.9,7.9-3.9c5.1,0,7.4,3.2,7.4,8.9v13.6h-5.2v-13
			c0-3.5-1.1-5.2-4.1-5.2c-2.2,0-3.6,1-5.7,3.1v15h-5.2V602.5z"/>
		<path fill="#231F20" d="M59.8,606.6h-5.9v-3.9l6.1-0.2l0.7-6H65v6H75v4.1H65v9.1c0,3.6,1.3,5.3,5.1,5.3c1.9,0,3.4-0.4,4.8-0.9
			l1,3.8c-2,0.7-4.4,1.3-7.1,1.3c-6.7,0-9-3.8-9-9.4V606.6z"/>
		<path fill="#231F20" d="M80.7,602.5h14.7v22h-5.2v-18h-9.6V602.5z M88.7,595.2c0-2.1,1.6-3.5,3.7-3.5c2.2,0,3.7,1.4,3.7,3.5
			c0,2.1-1.5,3.5-3.7,3.5C90.3,598.7,88.7,597.3,88.7,595.2z"/>
		<path fill="#231F20" d="M105.7,592.9h12.1v23.9c0,3,1.7,4.1,4,4.1c1.1,0,2.3-0.3,3.8-0.9l1.2,3.8c-2.1,0.7-3.7,1.3-6.2,1.3
			c-5.2,0-7.9-3.1-7.9-8.6v-19.6h-7V592.9z"/>
		<path fill="#231F20" d="M162.5,612.1c0-8.5,3.8-15.4,9.8-20.4l2.9,2.4c-5.7,5.2-8.2,10.7-8.2,18s2.5,12.9,8.2,18l-2.9,2.4
			C166.3,627.5,162.5,620.6,162.5,612.1z"/>
	</g>
	<g>
		<path fill="#99B72D" d="M197.5,610.5c-0.2-2.5-1.7-4.3-5.3-4.3c-2.5,0-4.9,1.1-7.2,2.3l-1.9-3.5c2.6-1.6,6.3-3.1,10.1-3.1
			c6.1,0,9.5,3.4,9.5,9.5v13.1h-4.2l-0.4-2.7h-0.1c-2.3,1.8-5.3,3.3-8.3,3.3c-4.3,0-7.4-2.6-7.4-6.5
			C182.3,613.7,186.6,611.2,197.5,610.5z M191.2,621.1c2.2,0,4.3-1.1,6.3-2.7v-4.7c-7.9,0.5-10.2,2.2-10.2,4.5
			C187.3,620.2,189,621.1,191.2,621.1z"/>
	</g>
	<g>
		<path fill="#231F20" d="M214.2,592.8h12.8v2.8h-8.8v33h8.8v2.8h-12.8V592.8z"/>
	</g>
	<g>
		<path fill="#008CCF" d="M234.3,592.9h5.2v19.8h0.2l9.9-10.2h5.7l-8.5,8.9l9.5,13.2h-5.7l-6.9-10l-4.2,4.2v5.7h-5.2V592.9z"/>
	</g>
	<g>
		<path fill="#231F20" d="M269.2,628.6v-33h-8.8v-2.8h12.8v38.6h-12.8v-2.8H269.2z"/>
		<path fill="#231F20" d="M310.6,602.8h19.9v3.8h-19.9V602.8z M310.6,612.9h19.9v3.8h-19.9V612.9z"/>
	</g>
	<g>
		<path fill="#008CCF" d="M362.2,592.9h5.2v19.8h0.2l9.9-10.2h5.7l-8.5,8.9l9.5,13.2h-5.7l-6.9-10l-4.2,4.2v5.7h-5.2V592.9z"/>
	</g>
	<g>
		<path fill="#231F20" d="M389.3,630.1c5.7-5.2,8.2-10.7,8.2-18s-2.5-12.9-8.2-18l2.9-2.4c6,5,9.8,11.9,9.8,20.4s-3.8,15.4-9.8,20.4
			L389.3,630.1z"/>
		<path fill="#231F20" d="M436.3,595.2h5.5l4.1,14.8c0.9,3.3,1.6,6.2,2.6,9.6h0.2c1-3.4,1.7-6.2,2.6-9.6l4.1-14.8h5.3l-9.1,29.4
			h-6.1L436.3,595.2z"/>
		<path fill="#231F20" d="M495,612.1c0-8.5,3.8-15.4,9.8-20.4l2.9,2.4c-5.7,5.2-8.2,10.7-8.2,18s2.5,12.9,8.2,18l-2.9,2.4
			C498.8,627.5,495,620.6,495,612.1z"/>
	</g>
	<g>
		<path fill="#EF5064" d="M515.5,602.5h14.7v22H525v-18h-9.6V602.5z M523.6,595.2c0-2.1,1.6-3.5,3.7-3.5c2.2,0,3.7,1.4,3.7,3.5
			c0,2.1-1.5,3.5-3.7,3.5C525.1,598.7,523.6,597.3,523.6,595.2z"/>
	</g>
	<g>
		<path fill="#231F20" d="M560.7,611l-19.9,6.6v-4.4l8.5-2.6l6.1-1.8v-0.2l-6.1-1.8l-8.5-2.6V600l19.9,6.6V611z M540.8,620.8h19.9
			v3.7h-19.9V620.8z"/>
	</g>
	<g>
		<path fill="#F6921E" d="M566.6,602.5h14.7v21.6c0,5.4-2.2,9.7-9.7,9.7c-2.6,0-4.8-0.6-6.6-1.5l1.6-3.7c1.7,0.8,3.3,1.1,4.7,1.1
			c3.8,0,4.8-1.8,4.8-5.3v-17.8h-9.6V602.5z M574.7,595.2c0-2.1,1.6-3.5,3.7-3.5c2.2,0,3.7,1.4,3.7,3.5c0,2.1-1.5,3.5-3.7,3.5
			C576.3,598.7,574.7,597.3,574.7,595.2z"/>
	</g>
	<g>
		<path fill="#231F20" d="M594,630.1c5.7-5.2,8.2-10.7,8.2-18s-2.5-12.9-8.2-18l2.9-2.4c6,5,9.8,11.9,9.8,20.4s-3.8,15.4-9.8,20.4
			L594,630.1z"/>
	</g>
</g>
</svg>
