<?xml version="1.0" encoding="utf-8"?>
<!-- Generator: Adobe Illustrator 18.1.1, SVG Export Plug-In . SVG Version: 6.00 Build 0)  -->
<svg version="1.1" id="Layer_1" xmlns="http://www.w3.org/2000/svg" xmlns:xlink="http://www.w3.org/1999/xlink" x="0px" y="0px"
	 viewBox="0 0 1000 1000" enable-background="new 0 0 1000 1000" xml:space="preserve">
<g id="XMLID_2_">
	<path id="XMLID_6_" d="M21.5,23.8c5.2,0,13.6,2.1,13.6,6.5c0,1.6-1.2,3.1-3.3,3.1c-4.4,0-4.9-6.7-10.9-6.7
		c-6.9,0-10.7,7.4-10.7,15.7c0,8.2,4,16.3,14.2,16.3c6.4,0,10-3.5,10-3.5l0.9,1.8c0,0-3.9,7.5-13.9,7.5c-12,0-18.2-9.7-18.2-19.6
		C3.2,34.5,9.7,23.8,21.5,23.8z"/>
	<path id="XMLID_8_" d="M61.2,23.8c12.5,0,19,8.2,19,18.8c0,10.6-6.6,21.9-20.3,21.9C47.7,64.5,41,56,41,45
		C41,34.9,46.6,23.8,61.2,23.8z M61,61.5c7.3,0,11.2-7.4,11.2-16.6c0-8.5-3.4-18.3-12.1-18.3c-7.9,0-11.2,8.1-11.2,16.3
		C48.9,51.6,52.4,61.5,61,61.5z"/>
	<path id="XMLID_11_" d="M86.7,61.2c3.9-0.4,5.3-2.5,5.3-5.6V34.8c0-3.7-0.1-5.8-2.6-5.8h-3.9v-2.3c8.4-1.7,13.9-4,13.9-4l0.3,0.3
		c0,0-0.8,2.8-1,10.9c2.6-4.8,7.1-10,11.6-10c2.1,0,4.6,1,4.6,3.9c0,2.6-1.8,4.2-4,4.2c-2,0-2.2-1.5-4.2-1.5c-2.9,0-5.8,2.8-7.6,5
		v20.2c0,2.6-0.4,4.6-0.4,4.6l8.2,0.8l-0.3,2.1l-19.7,0.5V61.2z"/>
	<path id="XMLID_13_" d="M118.9,61.2c3.9-0.4,5.3-2.5,5.3-5.6V34.8c0-3.7-0.1-5.8-2.6-5.8h-3.9v-2.3c8.4-1.7,13.7-4,13.7-4l0.3,0.3
		c0,0-0.8,2.8-0.9,10.5c3.1-4.6,9.1-9.5,16.3-9.5c5.9,0,9.8,3.3,9.8,11.6v20.3c0,2.6-0.4,4.5-0.4,4.5l7.3,0.9l-0.3,2.1l-18.5,0.5
		v-2.5c3.9-0.4,4.9-2.5,4.9-5.6V37.2c0-6.5-2.5-8.2-5.9-8.2c-3.9,0-9.2,2.3-12.8,6v20.6c0,2.6-0.4,4.5-0.4,4.5l6.9,0.9l-0.3,2.1
		l-18.5,0.5V61.2z"/>
	<path id="XMLID_15_" d="M192.5,61.2c3.9-0.4,5.3-2.5,5.3-5.6V12c0-1.1,0-2.1-0.1-2.8c-3.2-0.7-5.4-4.3-10.2-4.3
		c-4.9,0-7.3,4.1-7.3,15.2v4.7h10.8l-0.7,4.1h-9.3l-0.9,0.9v25.8c0,2.6-0.4,4.6-0.4,4.6l6.9,0.8l-0.3,2.1l-18.5,0.5v-2.5
		c3.9-0.4,5.3-2.5,5.3-5.6V29.2h-5.4v-2.6l5.4-1.9v-2.3c0-12.8,6.7-21.5,18.4-21.5c2.4,0,5.1,0.3,7.3,1.2c4.6-1.2,6.6-2.1,6.6-2.1
		l0.3,0.3c0,0-0.9,3.2-0.9,9.8v45.6c0,2.6-0.4,4.6-0.4,4.6l7.3,0.8l-0.3,2.1l-18.9,0.5V61.2z"/>
	<path id="XMLID_17_" d="M236.2,23.8c12.5,0,19,8.2,19,18.8c0,10.6-6.6,21.9-20.3,21.9C222.7,64.5,216,56,216,45
		C216,34.9,221.6,23.8,236.2,23.8z M236,61.5c7.3,0,11.2-7.4,11.2-16.6c0-8.5-3.4-18.3-12.1-18.3c-7.9,0-11.2,8.1-11.2,16.3
		C223.9,51.6,227.5,61.5,236,61.5z"/>
	<path id="XMLID_20_" d="M263.3,31.9c-1.7-4.4-4.7-5-4.7-5v-2.1h3.9c5.4,0,8.4-0.3,8.4-0.3l0.3,0.3c0,0-1.6,3.7-0.1,7.9l6.7,18.1
		l1.4,4.6l8-19c0.4-1.1,0.9-2.6,0.5-3.9l-0.2-0.6c-1.6-4.4-4.7-5-4.7-5v-2.1h3.9c5.4,0,8.4-0.3,8.4-0.3l0.3,0.3c0,0-1.6,3.7-0.1,7.9
		l6.6,17.8c0.5,1.5,1,3.3,1.5,4.9l9.4-22.2c1.5-3.4-1-5.4-4.3-6.2v-2.1h11.5l0.4,1.4c0,0-1.5,0.7-3.1,4.5l-14.4,33.8l-3.2-1.1
		L290,38.2l-11.2,26.3l-3.2-1.1L263.3,31.9z"/>
	<path id="XMLID_22_" d="M342.5,23.8c7.4,0,14.7,4.8,14.9,14.2c0,0-2.2,0.9-3.9,1.1l-21.4,3.1l-0.9,1c0.3,7.8,4.3,15.4,13.9,15.4
		c7,0,11.2-4.1,11.2-4.1l0.9,1.8c0,0-4.5,8.1-14.7,8.1c-12.2,0-18.2-9.5-18.2-19.6C324.4,33.2,332.1,23.8,342.5,23.8z M331.4,39.1
		l18-2.3c0,0-0.7-9.8-8.2-9.8C335.4,27,332.2,32.7,331.4,39.1z"/>
	<path id="XMLID_25_" d="M363.8,61.2c3.9-0.4,5.3-2.5,5.3-5.6V34.8c0-3.7-0.1-5.8-2.6-5.8h-3.9v-2.3c8.4-1.7,13.9-4,13.9-4l0.3,0.3
		c0,0-0.8,2.8-1,10.9c2.6-4.8,7.1-10,11.6-10c2.1,0,4.6,1,4.6,3.9c0,2.6-1.8,4.2-4,4.2c-2,0-2.2-1.5-4.2-1.5c-2.9,0-5.8,2.8-7.6,5
		v20.2c0,2.6-0.4,4.6-0.4,4.6l8.2,0.8l-0.3,2.1l-19.7,0.5V61.2z"/>
	<path id="XMLID_27_" d="M395.6,56.7l6.6-3.5c2.6,2.7,3.9,6,3.9,9.6c0,7.2-3.9,11.3-8.7,15.3l-2.1-2.2c3-2.6,5.9-5.4,5.9-9.1
		c0-2.7-1.8-4.9-5.6-7V56.7z"/>
	<path id="XMLID_29_" d="M451.6,41.9l2.9-0.4c0.1-1.8,0.1-6.8-0.3-9.2c-0.6-3.2-2.2-5.5-5.4-5.5c-5.8,0-9.1,8.2-9.1,8.2h-2.7
		l-1.5-6.4c0,0,6.3-4.8,15.9-4.8c8.1,0,10.2,3.3,10.2,12.3v19.7c0,2.7,0.3,4,2.3,4c2.3,0,4.7-1.7,4.7-1.7l1.1,1.8c0,0-4,4.5-9.1,4.5
		c-3.3,0-5.8-1.9-5.8-6.1v-2.1c0,0-4.5,8.2-13.4,8.2c-5.7,0-8.9-4-8.9-8.7C432.4,47.5,442.6,43.3,451.6,41.9z M454.5,54.4V44.3
		l-2.7,0.4c-4.9,0.8-11.8,3.3-11.8,9.5c0,3.4,2.2,5.3,4.8,5.3C448.1,59.6,452.2,56.3,454.5,54.4z"/>
	<path id="XMLID_32_" d="M472.8,61.2c3.9-0.4,5.3-2.5,5.3-5.6V34.8c0-3.7-0.1-5.8-2.6-5.8h-3.9v-2.3c8.4-1.7,13.7-4,13.7-4l0.3,0.3
		c0,0-0.8,2.8-0.9,10.5c3.1-4.6,9.1-9.5,16.3-9.5c5.9,0,9.8,3.3,9.8,11.6v20.3c0,2.6-0.4,4.5-0.4,4.5l7.3,0.9l-0.3,2.1l-18.5,0.5
		v-2.5c3.9-0.4,4.9-2.5,4.9-5.6V37.2c0-6.5-2.5-8.2-5.9-8.2c-3.9,0-9.2,2.3-12.8,6v20.6c0,2.6-0.4,4.5-0.4,4.5l6.9,0.9l-0.3,2.1
		l-18.5,0.5V61.2z"/>
	<path id="XMLID_34_" d="M543.7,23.8c3.1,0,6.1,0.5,6.1,0.5V12c0-3.7-0.1-5.8-2.6-5.8h-3.6V3.9c9.9-2.1,13.8-3.9,13.8-3.9l0.3,0.3
		c0,0-0.9,3.2-0.9,9.8v45.2c0,4.9,2,4.9,4.8,4.9h2.4l-0.3,2.3c-9.4,0.9-13.7,1.6-13.7,1.6l-0.3-0.3c0,0,0.3-2.4,0.3-4.5v-1.8
		c-2.3,3.4-5.8,7-12.3,7c-10.6,0-16.1-9.3-16.1-18.6C521.8,35,529.1,23.8,543.7,23.8z M549.8,55.7V31.6c0-3.9-3.4-4.5-6.2-4.5
		c-8.8,0-14.4,6.3-14.4,16.2c0,8.2,3.9,16.2,11.7,16.2C545.1,59.5,548.5,57.1,549.8,55.7z"/>
	<path id="XMLID_37_" d="M605.7,41.9l2.9-0.4c0.1-1.8,0.1-6.8-0.3-9.2c-0.6-3.2-2.2-5.5-5.4-5.5c-5.8,0-9.1,8.2-9.1,8.2H591
		l-1.5-6.4c0,0,6.3-4.8,15.9-4.8c8.1,0,10.2,3.3,10.2,12.3v19.7c0,2.7,0.3,4,2.3,4c2.3,0,4.7-1.7,4.7-1.7l1.1,1.8c0,0-4,4.5-9.1,4.5
		c-3.3,0-5.8-1.9-5.8-6.1v-2.1c0,0-4.5,8.2-13.4,8.2c-5.7,0-8.9-4-8.9-8.7C586.6,47.5,596.8,43.3,605.7,41.9z M608.6,54.4V44.3
		l-2.7,0.4c-4.9,0.8-11.8,3.3-11.8,9.5c0,3.4,2.2,5.3,4.8,5.3C602.3,59.6,606.4,56.3,608.6,54.4z"/>
	<path id="XMLID_40_" d="M628.1,52.1h2.6c0.5,7.3,5.6,9.4,9.7,9.4c4.2,0,7.1-2.2,7.1-5.8c0-9.2-19.7-8.6-19.7-21
		c0-6.4,4.9-10.9,14-10.9c5.2,0,10.7,1.5,10.7,1.5l-1.7,8.8h-2.7c0-7-5.9-7.5-7.7-7.5c-4.6,0-6.4,2.8-6.4,5.5
		c0,9.1,19.6,7.5,19.6,21c0,7.1-5.6,11.2-13.7,11.2c-3.9,0-12.9-0.9-12.9-5.8C627,56.9,628.1,52.1,628.1,52.1z"/>
	<path id="XMLID_42_" d="M697.7,23.8c5.2,0,13.6,2.1,13.6,6.5c0,1.6-1.2,3.1-3.3,3.1c-4.4,0-4.9-6.7-10.9-6.7
		c-6.9,0-10.7,7.4-10.7,15.7c0,8.2,4,16.3,14.2,16.3c6.4,0,10-3.5,10-3.5l0.9,1.8c0,0-3.9,7.5-13.9,7.5c-12,0-18.2-9.7-18.2-19.6
		C679.4,34.5,685.9,23.8,697.7,23.8z"/>
	<path id="XMLID_44_" d="M716.3,61.2c3.9-0.4,5.3-2.5,5.3-5.6V12c0-3.7-0.1-5.8-2.6-5.8h-3.6V3.9c9.9-2.1,13.8-3.9,13.8-3.9l0.3,0.3
		c0,0-0.9,3.2-0.9,9.8v45.6c0,2.6-0.4,4.6-0.4,4.6l7.3,0.8l-0.3,2.1l-18.9,0.5V61.2z"/>
	<path id="XMLID_46_" d="M758,23.8c7.4,0,14.7,4.8,14.9,14.2c0,0-2.2,0.9-3.9,1.1l-21.4,3.1l-0.9,1c0.3,7.8,4.3,15.4,13.9,15.4
		c7,0,11.2-4.1,11.2-4.1l0.9,1.8c0,0-4.5,8.1-14.7,8.1c-12.2,0-18.2-9.5-18.2-19.6C739.9,33.2,747.6,23.8,758,23.8z M746.9,39.1
		l18-2.3c0,0-0.7-9.8-8.2-9.8C750.9,27,747.7,32.7,746.9,39.1z"/>
	<path id="XMLID_49_" d="M797.6,41.9l2.9-0.4c0.1-1.8,0.1-6.8-0.3-9.2c-0.6-3.2-2.2-5.5-5.4-5.5c-5.8,0-9.1,8.2-9.1,8.2H783
		l-1.5-6.4c0,0,6.3-4.8,15.9-4.8c8.1,0,10.2,3.3,10.2,12.3v19.7c0,2.7,0.3,4,2.3,4c2.3,0,4.7-1.7,4.7-1.7l1.1,1.8c0,0-4,4.5-9.1,4.5
		c-3.3,0-5.8-1.9-5.8-6.1v-2.1c0,0-4.5,8.2-13.4,8.2c-5.7,0-8.9-4-8.9-8.7C778.5,47.5,788.7,43.3,797.6,41.9z M800.5,54.4V44.3
		l-2.7,0.4c-4.9,0.8-11.8,3.3-11.8,9.5c0,3.4,2.2,5.3,4.8,5.3C794.2,59.6,798.3,56.3,800.5,54.4z"/>
	<path id="XMLID_52_" d="M818.8,61.2c3.9-0.4,5.3-2.5,5.3-5.6V34.8c0-3.7-0.1-5.8-2.6-5.8h-3.9v-2.3c8.4-1.7,13.9-4,13.9-4l0.3,0.3
		c0,0-0.8,2.8-1,10.9c2.6-4.8,7.1-10,11.6-10c2.1,0,4.6,1,4.6,3.9c0,2.6-1.8,4.2-4,4.2c-2,0-2.2-1.5-4.2-1.5c-2.9,0-5.8,2.8-7.6,5
		v20.2c0,2.6-0.4,4.6-0.4,4.6l8.2,0.8l-0.3,2.1l-19.7,0.5V61.2z"/>
	<path id="XMLID_54_" d="M888.6,41.9l2.9-0.4c0.1-1.8,0.1-6.8-0.3-9.2c-0.6-3.2-2.2-5.5-5.4-5.5c-5.8,0-9.1,8.2-9.1,8.2h-2.7
		l-1.5-6.4c0,0,6.3-4.8,15.9-4.8c8.1,0,10.2,3.3,10.2,12.3v19.7c0,2.7,0.3,4,2.3,4c2.3,0,4.7-1.7,4.7-1.7l1.1,1.8c0,0-4,4.5-9.1,4.5
		c-3.3,0-5.8-1.9-5.8-6.1v-2.1c0,0-4.5,8.2-13.4,8.2c-5.7,0-8.9-4-8.9-8.7C869.5,47.5,879.7,43.3,888.6,41.9z M891.5,54.4V44.3
		l-2.7,0.4c-4.9,0.8-11.8,3.3-11.8,9.5c0,3.4,2.2,5.3,4.8,5.3C885.2,59.6,889.3,56.3,891.5,54.4z"/>
	<path id="XMLID_57_" d="M911,52.1h2.6c0.5,7.3,5.6,9.4,9.7,9.4c4.2,0,7.1-2.2,7.1-5.8c0-9.2-19.7-8.6-19.7-21
		c0-6.4,4.9-10.9,14-10.9c5.1,0,10.7,1.5,10.7,1.5l-1.7,8.8h-2.7c0-7-5.9-7.5-7.7-7.5c-4.6,0-6.4,2.8-6.4,5.5
		c0,9.1,19.6,7.5,19.6,21c0,7.1-5.6,11.2-13.7,11.2c-3.9,0-12.9-0.9-12.9-5.8C909.9,56.9,911,52.1,911,52.1z"/>
	<path id="XMLID_59_" d="M980.6,23.8c5.2,0,13.6,2.1,13.6,6.5c0,1.6-1.2,3.1-3.3,3.1c-4.4,0-4.9-6.7-10.9-6.7
		c-6.9,0-10.7,7.4-10.7,15.7c0,8.2,4,16.3,14.2,16.3c6.4,0,10-3.5,10-3.5l0.9,1.8c0,0-3.9,7.5-13.9,7.5c-12,0-18.2-9.7-18.2-19.6
		C962.3,34.5,968.8,23.8,980.6,23.8z"/>
	<path id="XMLID_61_" d="M1000.1,61.2c3.9-0.4,5.3-2.5,5.3-5.6V34.8c0-3.7-0.1-5.8-2.6-5.8H999v-2.3c8.4-1.7,13.9-4,13.9-4l0.3,0.3
		c0,0-0.8,2.8-1,10.9c2.6-4.8,7.1-10,11.6-10c2.1,0,4.6,1,4.6,3.9c0,2.6-1.8,4.2-4,4.2c-2,0-2.2-1.5-4.2-1.5c-2.9,0-5.8,2.8-7.6,5
		v20.2c0,2.6-0.4,4.6-0.4,4.6l8.2,0.8l-0.3,2.1l-19.7,0.5V61.2z"/>
	<path id="XMLID_237_" d="M4.4,166.5H7c0.5,7.3,5.6,9.4,9.7,9.4c4.2,0,7.1-2.2,7.1-5.8c0-9.2-19.7-8.6-19.7-21
		c0-6.4,4.9-10.9,14-10.9c5.1,0,10.7,1.5,10.7,1.5l-1.7,8.8h-2.7c0-7-5.9-7.5-7.7-7.5c-4.6,0-6.4,2.8-6.4,5.5
		c0,9.1,19.6,7.5,19.6,21c0,7.1-5.6,11.2-13.7,11.2c-3.9,0-12.9-0.9-12.9-5.8C3.3,171.3,4.4,166.5,4.4,166.5z"/>
	<path id="XMLID_239_" d="M40.5,149.2c0-2.5,0.3-5.6,0.3-5.6h-5.7v-2.6c0,0,3.8-0.8,5.8-2.7l3.2-9.4l3.9,0.1l0.3,0.3
		c0,0-0.8,2.5-0.8,8.6v1.3h13.4l-0.6,4.1H48.4l-0.9,0.9V166c0,5,1.5,7.7,6,7.7c3.9,0,7.7-1.8,7.7-1.8l1.1,1.6c0,0-4.9,5.3-12.4,5.3
		c-6.1,0-9.5-3.4-9.5-11.2V149.2z"/>
	<path id="XMLID_241_" fill="#FF1D25" d="M84.2,138.2c7.4,0,14.7,4.8,14.9,14.2c0,0-2.2,0.9-3.9,1.1l-21.4,3.1l-0.9,1
		c0.3,7.8,4.3,15.4,13.9,15.4c7,0,11.2-4.1,11.2-4.1l0.9,1.8c0,0-4.5,8.1-14.7,8.1c-12.2,0-18.2-9.5-18.2-19.6
		C66.1,147.7,73.8,138.2,84.2,138.2z M73.1,153.6l18-2.3c0,0-0.7-9.8-8.2-9.8C77.2,141.5,73.9,147.1,73.1,153.6z"/>
	<path id="XMLID_244_" d="M123.7,138.2c7.4,0,14.7,4.8,14.9,14.2c0,0-2.2,0.9-3.9,1.1l-21.4,3.1l-0.9,1c0.3,7.8,4.3,15.4,13.9,15.4
		c7,0,11.2-4.1,11.2-4.1l0.9,1.8c0,0-4.5,8.1-14.7,8.1c-12.2,0-18.2-9.5-18.2-19.6C105.6,147.7,113.3,138.2,123.7,138.2z
		 M112.6,153.6l18-2.3c0,0-0.7-9.8-8.2-9.8C116.6,141.5,113.4,147.1,112.6,153.6z"/>
	<path id="XMLID_247_" d="M145.1,196.4c3.9-2.1,4.5-4.1,4.5-8.1v-39.1c0-3.7-0.1-5.8-2.6-5.8h-3.4v-2.3c8.4-1.7,13.5-4,13.5-4
		l0.3,0.3c0,0-0.5,2.1-0.9,7.6c2.3-2.9,5.6-6.7,12.4-6.7c10.5,0,15.6,9.3,15.6,18.7c0,10.9-7,22-22.1,22c-2.3,0-4.1-0.3-5.8-0.5v9.9
		c0,2.6-0.4,4.9-0.4,4.9h9l-0.3,2.1c0,0-13.6,1.6-19.7,3.7V196.4z M176.9,159.4c0-8.2-3.6-16.2-11.2-16.2c-3.3,0-6.4,1.5-9.1,3.6
		V171c0,4,3.3,4.6,6.2,4.6C171.7,175.6,176.9,169.2,176.9,159.4z"/>
	<path id="XMLID_250_" d="M189.8,175.6c3.9-0.4,5.3-2.5,5.3-5.6v-43.6c0-3.7-0.1-5.8-2.6-5.8h-3.6v-2.3c9.9-2.1,13.8-3.9,13.8-3.9
		l0.3,0.3c0,0-0.9,3.2-0.9,9.8v45.6c0,2.6-0.4,4.6-0.4,4.6l7.3,0.8l-0.3,2.1l-18.9,0.5V175.6z"/>
	<path id="XMLID_252_" d="M231.4,138.2c7.4,0,14.7,4.8,14.9,14.2c0,0-2.2,0.9-3.9,1.1l-21.4,3.1l-0.9,1c0.3,7.8,4.3,15.4,13.9,15.4
		c7,0,11.2-4.1,11.2-4.1l0.9,1.8c0,0-4.5,8.1-14.7,8.1c-12.2,0-18.2-9.5-18.2-19.6C213.3,147.7,221,138.2,231.4,138.2z M220.3,153.6
		l18-2.3c0,0-0.7-9.8-8.2-9.8C224.4,141.5,221.1,147.1,220.3,153.6z"/>
	<path id="XMLID_255_" d="M254,166.5h2.6c0.5,7.3,5.6,9.4,9.7,9.4c4.2,0,7.1-2.2,7.1-5.8c0-9.2-19.7-8.6-19.7-21
		c0-6.4,4.9-10.9,14-10.9c5.1,0,10.7,1.5,10.7,1.5l-1.7,8.8h-2.7c0-7-5.9-7.5-7.7-7.5c-4.6,0-6.4,2.8-6.4,5.5
		c0,9.1,19.6,7.5,19.6,21c0,7.1-5.6,11.2-13.7,11.2c-3.9,0-12.9-0.9-12.9-5.8C252.9,171.3,254,166.5,254,166.5z"/>
	<path id="XMLID_257_" d="M287.4,171.2l6.6-3.5c2.6,2.7,3.9,6,3.9,9.6c0,7.2-3.9,11.3-8.7,15.3l-2.1-2.2c3-2.6,5.9-5.4,5.9-9.1
		c0-2.7-1.8-4.9-5.6-7V171.2z"/>
	<path id="XMLID_259_" d="M325,196.4c3.9-2.1,4.5-4.1,4.5-8.1v-39.1c0-3.7-0.1-5.8-2.6-5.8h-3.4v-2.3c8.4-1.7,13.5-4,13.5-4l0.3,0.3
		c0,0-0.5,2.1-0.9,7.6c2.3-2.9,5.6-6.7,12.4-6.7c10.5,0,15.6,9.3,15.6,18.7c0,10.9-7,22-22.1,22c-2.3,0-4.1-0.3-5.8-0.5v9.9
		c0,2.6-0.4,4.9-0.4,4.9h9l-0.3,2.1c0,0-13.6,1.6-19.7,3.7V196.4z M356.9,159.4c0-8.2-3.6-16.2-11.2-16.2c-3.3,0-6.4,1.5-9.1,3.6
		V171c0,4,3.3,4.6,6.2,4.6C351.6,175.6,356.9,169.2,356.9,159.4z"/>
	<path id="XMLID_262_" d="M370.9,175.6c3.9-0.4,5.3-2.5,5.3-5.6v-20.9c0-3.7-0.1-5.8-2.6-5.8h-3.9v-2.3c12.5-2.9,14.3-4,14.3-4
		l0.1,0.3c0,0-0.9,2.8-0.9,9.8v23c0,2.6-0.4,4.6-0.4,4.6l7.3,0.8l-0.3,2.1l-18.9,0.5V175.6z M374.3,124.8c0-2.5,2.1-4.6,4.6-4.6
		c2.5,0,4.6,2.1,4.6,4.6c0,2.5-2.1,4.6-4.6,4.6C376.5,129.5,374.3,127.3,374.3,124.8z"/>
	<path id="XMLID_265_" d="M393.8,175.6c3.9-0.4,5.3-2.5,5.3-5.6v-43.6c0-3.7-0.1-5.8-2.6-5.8h-3.6v-2.3c9.9-2.1,13.8-3.9,13.8-3.9
		l0.3,0.3c0,0-0.9,3.2-0.9,9.8v45.6c0,2.6-0.4,4.6-0.4,4.6l7.3,0.8l-0.3,2.1l-18.9,0.5V175.6z"/>
	<path id="XMLID_267_" d="M435.4,138.2c7.4,0,14.7,4.8,14.9,14.2c0,0-2.2,0.9-3.9,1.1l-21.4,3.1l-0.9,1c0.3,7.8,4.3,15.4,13.9,15.4
		c7,0,11.2-4.1,11.2-4.1l0.9,1.8c0,0-4.5,8.1-14.7,8.1c-12.2,0-18.2-9.5-18.2-19.6C417.3,147.7,425,138.2,435.4,138.2z M424.4,153.6
		l18-2.3c0,0-0.7-9.8-8.2-9.8C428.4,141.5,425.1,147.1,424.4,153.6z"/>
	<path id="XMLID_270_" d="M478.7,138.2c3.1,0,6.1,0.5,6.1,0.5v-12.3c0-3.7-0.1-5.8-2.6-5.8h-3.6v-2.3c9.9-2.1,13.8-3.9,13.8-3.9
		l0.3,0.3c0,0-0.9,3.2-0.9,9.8v45.2c0,4.9,2,4.9,4.8,4.9h2.4l-0.3,2.3c-9.4,0.9-13.7,1.6-13.7,1.6l-0.3-0.3c0,0,0.3-2.4,0.3-4.5
		v-1.8c-2.3,3.4-5.8,7-12.3,7c-10.6,0-16.1-9.3-16.1-18.6C456.7,149.5,464,138.2,478.7,138.2z M484.8,170.1V146
		c0-3.9-3.4-4.5-6.2-4.5c-8.8,0-14.4,6.3-14.4,16.2c0,8.2,3.9,16.2,11.7,16.2C480.1,173.9,483.4,171.5,484.8,170.1z"/>
	<path id="XMLID_273_" d="M542.5,138.2c12.5,0,19,8.2,19,18.8c0,10.6-6.6,21.9-20.3,21.9c-12.1,0-18.8-8.5-18.8-19.5
		C522.4,149.4,527.9,138.2,542.5,138.2z M542.4,176c7.3,0,11.2-7.4,11.2-16.6c0-8.5-3.4-18.3-12.1-18.3c-7.9,0-11.2,8.1-11.2,16.3
		C530.3,166,533.8,176,542.4,176z"/>
	<path id="XMLID_276_" d="M568,175.6c3.9-0.4,5.3-2.5,5.3-5.6v-20.9c0-3.7-0.1-5.8-2.6-5.8h-3.9v-2.3c8.4-1.7,13.7-4,13.7-4l0.3,0.3
		c0,0-0.8,2.8-0.9,10.5c3.1-4.6,9.1-9.5,16.3-9.5c5.9,0,9.8,3.3,9.8,11.6v20.3c0,2.6-0.4,4.5-0.4,4.5l7.3,0.9l-0.3,2.1l-18.5,0.5
		v-2.5c3.9-0.4,4.9-2.5,4.9-5.6v-18.4c0-6.5-2.5-8.2-5.9-8.2c-3.9,0-9.2,2.3-12.8,6v20.6c0,2.6-0.4,4.5-0.4,4.5l6.9,0.9l-0.3,2.1
		l-18.5,0.5V175.6z"/>
	<path id="XMLID_278_" fill="#FF1D25" d="M635.2,138.2c7.4,0,14.7,4.8,14.9,14.2c0,0-2.2,0.9-3.9,1.1l-21.4,3.1l-0.9,1
		c0.3,7.8,4.3,15.4,13.9,15.4c7,0,11.2-4.1,11.2-4.1l0.9,1.8c0,0-4.5,8.1-14.7,8.1c-12.2,0-18.2-9.5-18.2-19.6
		C617.1,147.7,624.9,138.2,635.2,138.2z M624.2,153.6l18-2.3c0,0-0.7-9.8-8.2-9.8C628.2,141.5,624.9,147.1,624.2,153.6z"/>
	<path id="XMLID_281_" d="M680,149.2c0-3.7-0.1-5.8-2.6-5.8h-3V141c8.3-1.5,13-3.2,13-3.2l0.3,0.3c0,0-0.8,2.4-0.8,9v18.4
		c0,6.5,2.3,8.2,5.8,8.2c3.9,0,8.8-2.3,12.4-6.1v-18.4c0-3.7-0.1-5.8-2.6-5.8H700V141c8.2-1.5,12.9-3.2,12.9-3.2l0.3,0.3
		c0,0-0.8,2.4-0.8,9v22.7c0,4.9,2,4.9,4.8,4.9h2.4l-0.3,2.3c-9.4,0.9-14.1,1.7-14.1,1.7l-0.3-0.3c0,0,0.8-2.5,0.8-4.6v-4.5
		c-3.1,4.5-8.8,9.6-16,9.6c-6,0-9.7-3.3-9.7-11.5V149.2z"/>
	<path id="XMLID_283_" d="M723.9,196.4c3.9-2.1,4.5-4.1,4.5-8.1v-39.1c0-3.7-0.1-5.8-2.6-5.8h-3.4v-2.3c8.4-1.7,13.5-4,13.5-4
		l0.3,0.3c0,0-0.5,2.1-0.9,7.6c2.3-2.9,5.6-6.7,12.4-6.7c10.5,0,15.6,9.3,15.6,18.7c0,10.9-7,22-22.1,22c-2.3,0-4.1-0.3-5.8-0.5v9.9
		c0,2.6-0.4,4.9-0.4,4.9h9l-0.3,2.1c0,0-13.6,1.6-19.7,3.7V196.4z M755.7,159.4c0-8.2-3.6-16.2-11.2-16.2c-3.3,0-6.4,1.5-9.1,3.6
		V171c0,4,3.3,4.6,6.2,4.6C750.5,175.6,755.7,169.2,755.7,159.4z"/>
	<path id="XMLID_286_" d="M789.9,138.2c12.5,0,19,8.2,19,18.8c0,10.6-6.6,21.9-20.3,21.9c-12.1,0-18.8-8.5-18.8-19.5
		C769.7,149.4,775.3,138.2,789.9,138.2z M789.7,176c7.3,0,11.2-7.4,11.2-16.6c0-8.5-3.4-18.3-12.1-18.3c-7.9,0-11.2,8.1-11.2,16.3
		C777.6,166,781.1,176,789.7,176z"/>
	<path id="XMLID_289_" d="M815.4,175.6c3.9-0.4,5.3-2.5,5.3-5.6v-20.9c0-3.7-0.1-5.8-2.6-5.8h-3.9v-2.3c8.4-1.7,13.7-4,13.7-4
		l0.3,0.3c0,0-0.8,2.8-0.9,10.5c3.1-4.6,9.1-9.5,16.3-9.5c5.9,0,9.8,3.3,9.8,11.6v20.3c0,2.6-0.4,4.5-0.4,4.5l7.3,0.9l-0.3,2.1
		l-18.5,0.5v-2.5c3.9-0.4,4.9-2.5,4.9-5.6v-18.4c0-6.5-2.5-8.2-5.9-8.2c-3.9,0-9.2,2.3-12.8,6v20.6c0,2.6-0.4,4.5-0.4,4.5l6.9,0.9
		l-0.3,2.1l-18.5,0.5V175.6z"/>
	<path id="XMLID_291_" d="M902.1,156.3l2.9-0.4c0.1-1.8,0.1-6.8-0.3-9.2c-0.6-3.2-2.2-5.5-5.4-5.5c-5.8,0-9.1,8.2-9.1,8.2h-2.7
		l-1.5-6.4c0,0,6.3-4.8,15.9-4.8c8.1,0,10.2,3.3,10.2,12.3v19.7c0,2.7,0.3,4,2.3,4c2.3,0,4.7-1.7,4.7-1.7l1.1,1.8c0,0-4,4.5-9.1,4.5
		c-3.3,0-5.8-1.9-5.8-6.1v-2.1c0,0-4.5,8.2-13.4,8.2c-5.7,0-8.9-4-8.9-8.7C882.9,162,893.2,157.7,902.1,156.3z M905,168.9v-10.1
		l-2.7,0.4c-4.9,0.8-11.8,3.3-11.8,9.5c0,3.4,2.2,5.3,4.8,5.3C898.6,174,902.8,170.7,905,168.9z"/>
	<path id="XMLID_294_" d="M923.3,175.6c3.9-0.4,5.3-2.5,5.3-5.6v-20.9c0-3.7-0.1-5.8-2.6-5.8h-3.9v-2.3c8.4-1.7,13.7-4,13.7-4
		l0.3,0.3c0,0-0.8,2.8-0.9,10.5c3.1-4.6,9.1-9.5,16.3-9.5c5.9,0,9.8,3.3,9.8,11.6v20.3c0,2.6-0.4,4.5-0.4,4.5l7.3,0.9l-0.3,2.1
		l-18.5,0.5v-2.5c3.9-0.4,4.9-2.5,4.9-5.6v-18.4c0-6.5-2.5-8.2-5.9-8.2c-3.9,0-9.2,2.3-12.8,6v20.6c0,2.6-0.4,4.5-0.4,4.5l6.9,0.9
		l-0.3,2.1l-18.5,0.5V175.6z"/>
	<path id="XMLID_296_" d="M992.5,138.2c12.5,0,19,8.2,19,18.8c0,10.6-6.6,21.9-20.3,21.9c-12.1,0-18.8-8.5-18.8-19.5
		C972.4,149.4,978,138.2,992.5,138.2z M992.4,176c7.3,0,11.2-7.4,11.2-16.6c0-8.5-3.4-18.3-12.1-18.3c-7.9,0-11.2,8.1-11.2,16.3
		C980.3,166,983.8,176,992.4,176z"/>
	<path id="XMLID_471_" d="M25.1,252.7c3.1,0,6.1,0.5,6.1,0.5v-12.3c0-3.7-0.1-5.8-2.6-5.8H25v-2.3c9.9-2.1,13.8-3.9,13.8-3.9
		l0.3,0.3c0,0-0.9,3.2-0.9,9.8v45.2c0,4.9,2,4.9,4.8,4.9h2.4l-0.3,2.3c-9.4,0.9-13.7,1.6-13.7,1.6l-0.3-0.3c0,0,0.3-2.4,0.3-4.5
		v-1.8c-2.3,3.4-5.8,7-12.3,7c-10.6,0-16.1-9.3-16.1-18.6C3.1,263.9,10.4,252.7,25.1,252.7z M31.2,284.6v-24.1
		c0-3.9-3.4-4.5-6.2-4.5c-8.8,0-14.4,6.3-14.4,16.2c0,8.2,3.9,16.2,11.7,16.2C26.4,288.4,29.8,286,31.2,284.6z"/>
	<path id="XMLID_474_" d="M51.1,260.8c-1.7-4.4-4.7-5-4.7-5v-2.1h3.9c5.4,0,8.4-0.3,8.4-0.3l0.3,0.3c0,0-1.6,3.7-0.1,7.9l6.7,18.1
		l1.4,4.6l8-19c0.4-1.1,0.9-2.6,0.5-3.9l-0.2-0.6c-1.6-4.4-4.7-5-4.7-5v-2.1h3.9c5.4,0,8.4-0.3,8.4-0.3l0.3,0.3c0,0-1.6,3.7-0.1,7.9
		l6.6,17.8c0.5,1.5,1,3.3,1.5,4.9l9.4-22.2c1.5-3.4-1-5.4-4.3-6.2v-2.1h11.5l0.4,1.4c0,0-1.5,0.7-3.1,4.5l-14.4,33.8l-3.2-1.1
		l-9.9-25.2l-11.2,26.3l-3.2-1.1L51.1,260.8z"/>
	<path id="XMLID_476_" d="M130.2,252.7c7.4,0,14.7,4.8,14.9,14.2c0,0-2.2,0.9-3.9,1.1l-21.4,3.1l-0.9,1c0.3,7.8,4.3,15.4,13.9,15.4
		c7,0,11.2-4.1,11.2-4.1l0.9,1.8c0,0-4.5,8.1-14.7,8.1c-12.2,0-18.2-9.5-18.2-19.6C112.1,262.1,119.8,252.7,130.2,252.7z M119.1,268
		l18-2.3c0,0-0.7-9.8-8.2-9.8C123.2,255.9,119.9,261.6,119.1,268z"/>
	<path id="XMLID_479_" fill="#FF1D25" d="M150.7,290.1c3.9-0.4,5.3-2.5,5.3-5.6v-43.6c0-3.7-0.1-5.8-2.6-5.8h-3.6v-2.3
		c9.9-2.1,13.8-3.9,13.8-3.9l0.3,0.3c0,0-0.9,3.2-0.9,9.8v45.6c0,2.6-0.4,4.6-0.4,4.6l7.3,0.8l-0.3,2.1l-18.9,0.5V290.1z"/>
	<path id="XMLID_481_" d="M173.6,290.1c3.9-0.4,5.3-2.5,5.3-5.6v-43.6c0-3.7-0.1-5.8-2.6-5.8h-3.6v-2.3c9.9-2.1,13.8-3.9,13.8-3.9
		l0.3,0.3c0,0-0.9,3.2-0.9,9.8v45.6c0,2.6-0.4,4.6-0.4,4.6l7.3,0.8l-0.3,2.1l-18.9,0.5V290.1z"/>
	<path id="XMLID_483_" d="M220.9,263.6c0-2.5,0.3-5.6,0.3-5.6h-5.7v-2.6c0,0,3.8-0.8,5.8-2.7l3.2-9.4l3.9,0.1l0.3,0.3
		c0,0-0.8,2.5-0.8,8.6v1.3h13.4l-0.6,4.1h-11.8l-0.9,0.9v21.8c0,5,1.5,7.7,6,7.7c3.9,0,7.7-1.8,7.7-1.8l1.1,1.6
		c0,0-4.9,5.3-12.4,5.3c-6.1,0-9.5-3.4-9.5-11.2V263.6z"/>
	<path id="XMLID_485_" d="M245.6,290.1c3.9-0.4,5.3-2.5,5.3-5.6v-43.6c0-3.7-0.1-5.8-2.6-5.8h-3.6v-2.3c9.9-2.1,13.8-3.9,13.8-3.9
		l0.3,0.3c0,0-0.9,3.2-0.9,9.8v16.7c0,3.9-0.3,5.7-0.3,6.4c3.1-4.5,9.1-9.3,16.3-9.3c5.9,0,9.8,3.3,9.8,11.6v20.3
		c0,2.6-0.4,4.6-0.4,4.6l7.3,0.8l-0.3,2.1l-18.5,0.5v-2.5c3.5-0.4,4.9-2.5,4.9-5.6v-18.4c0-6.5-2.5-8.2-5.9-8.2
		c-3.9,0-9.2,2.4-12.8,5.8v20.8c0,2.6-0.4,4.6-0.4,4.6l6.9,0.8l-0.3,2.1l-18.5,0.5V290.1z"/>
	<path id="XMLID_487_" fill="#FF1D25" d="M312.9,252.7c7.4,0,14.7,4.8,14.9,14.2c0,0-2.2,0.9-3.9,1.1l-21.4,3.1l-0.9,1
		c0.3,7.8,4.3,15.4,13.9,15.4c7,0,11.2-4.1,11.2-4.1l0.9,1.8c0,0-4.5,8.1-14.7,8.1c-12.2,0-18.2-9.5-18.2-19.6
		C294.7,262.1,302.5,252.7,312.9,252.7z M301.8,268l18-2.3c0,0-0.7-9.8-8.2-9.8C305.8,255.9,302.6,261.6,301.8,268z"/>
	<path id="XMLID_490_" d="M356,276.9h2.9c0,10.5,6.6,13.2,12.4,13.2c5.6,0,10.9-2.4,10.9-9c0-14.9-26.9-14.7-26.9-32.1
		c0-8.5,6.4-14.9,19.1-14.9c6.1,0,12.3,1.4,14.2,1.6l-2.7,13.4h-2.9c0.9-6.4-2.4-11.8-9.6-11.8c-5.8,0-10.6,2.7-10.6,8.9
		c0,15,26.9,13.6,26.9,32c0,10.3-8.8,15.1-19.1,15.1c-7.5,0-16.6-2.6-16.6-8.8C354.1,283.2,354.4,282,356,276.9z"/>
	<path id="XMLID_492_" d="M415.1,252.7c7.4,0,14.7,4.8,14.9,14.2c0,0-2.2,0.9-3.9,1.1l-21.4,3.1l-0.9,1c0.3,7.8,4.3,15.4,13.9,15.4
		c7,0,11.2-4.1,11.2-4.1l0.9,1.8c0,0-4.5,8.1-14.7,8.1c-12.2,0-18.2-9.5-18.2-19.6C397,262.1,404.7,252.7,415.1,252.7z M404,268
		l18-2.3c0,0-0.7-9.8-8.2-9.8C408,255.9,404.8,261.6,404,268z"/>
	<path id="XMLID_495_" fill="#FF1D25" d="M454.7,270.8l2.9-0.4c0.1-1.8,0.1-6.8-0.3-9.2c-0.6-3.2-2.2-5.5-5.4-5.5
		c-5.8,0-9.1,8.2-9.1,8.2h-2.7l-1.5-6.4c0,0,6.3-4.8,15.9-4.8c8.1,0,10.2,3.3,10.2,12.3v19.7c0,2.7,0.3,4,2.3,4
		c2.3,0,4.7-1.7,4.7-1.7l1.1,1.8c0,0-4,4.5-9.1,4.5c-3.3,0-5.8-1.9-5.8-6.1v-2.1c0,0-4.5,8.2-13.4,8.2c-5.7,0-8.9-4-8.9-8.7
		C435.6,276.4,445.8,272.1,454.7,270.8z M457.7,283.3v-10.1l-2.7,0.4c-4.9,0.8-11.8,3.3-11.8,9.5c0,3.4,2.2,5.3,4.8,5.3
		C451.3,288.5,455.4,285.2,457.7,283.3z"/>
	<path id="XMLID_498_" d="M496.5,289.8c3.8-0.4,6.2-2.4,6.2-5.3v-41c0-4.1,0-5-6.4-6.3v-2.1h6.7c7.7,0,9.6-0.3,9.6-0.3l0.4,0.3
		c0,0-2.8,3.3-2.8,10.4v15.1h1.6c0,0,1.5-0.9,2.9-2.3l16.7-16.7c1.6-1.6,1.7-3.9-2.4-4.4v-2.1h16.1l0.4,1.2c0,0-4.6,1-11.1,7.5
		l-16.2,16.1v0.9l20.8,23.9c3.9,4.5,4.5,4.6,7.3,4.9l0.9,0.1l-0.3,2.7h-12.6l-0.3-0.3c0,0-0.9-2.6-6.4-9.1l-16.1-18.6h-1.4v20.2
		c0,2.5-0.4,4.4-0.4,4.4l7.7,0.8l-0.3,2.4l-20.7,0.5V289.8z"/>
	<path id="XMLID_500_" d="M550.4,290.1c3.9-0.4,5.3-2.5,5.3-5.6v-20.9c0-3.7-0.1-5.8-2.6-5.8h-3.9v-2.3c12.5-2.9,14.3-4,14.3-4
		l0.1,0.3c0,0-0.9,2.8-0.9,9.8v23c0,2.6-0.4,4.6-0.4,4.6l7.3,0.8l-0.3,2.1l-18.9,0.5V290.1z M553.9,239.3c0-2.5,2.1-4.6,4.6-4.6
		c2.5,0,4.6,2.1,4.6,4.6c0,2.5-2.1,4.6-4.6,4.6C556,243.9,553.9,241.8,553.9,239.3z"/>
	<path id="XMLID_503_" d="M574.2,290.1c3.9-0.4,5.3-2.5,5.3-5.6v-20.9c0-3.7-0.1-5.8-2.6-5.8h-3.9v-2.3c8.4-1.7,13.7-4,13.7-4
		l0.3,0.3c0,0-0.8,2.8-0.9,10.5c3.1-4.6,9.1-9.5,16.3-9.5c5.9,0,9.8,3.3,9.8,11.6v20.3c0,2.6-0.4,4.5-0.4,4.5l7.3,0.9l-0.3,2.1
		l-18.5,0.5v-2.5c3.9-0.4,4.9-2.5,4.9-5.6v-18.4c0-6.5-2.5-8.2-5.9-8.2c-3.9,0-9.2,2.3-12.8,6v20.6c0,2.6-0.4,4.5-0.4,4.5l6.9,0.9
		l-0.3,2.1l-18.5,0.5V290.1z"/>
	<path id="XMLID_505_" d="M633.9,279.1c-5.8-1.6-10.3-5.8-10.3-12.6c0-8.9,7.6-13.8,16-13.8c5,0,7,1.7,11.3,1.7h4.1
		c2.7,0,5.7-1.1,5.7-1.1l-0.8,5.6h-4.5c-1.9,0-3-0.3-3-0.3s3.5,3,3.5,8.4c0,8.1-7.7,12.9-16.3,12.9c-1.5,0-2.8-0.1-4.2-0.3
		c-0.6,0.7-2.1,2.4-2.1,3.6c0,2.3,5.1,2.9,11.8,4.3c7.2,1.5,14.9,3.9,14.9,10.8c0,8.4-11.2,14.4-21.8,14.4
		c-7.7,0-16.1-3.2-16.1-10.4c0-6.6,6.9-9.2,10.8-10.7c-4-1-7.1-2.6-7.1-5.5C625.8,282.4,630.8,280.7,633.9,279.1z M635,292
		c-2.1,1.4-6.1,4.5-6.1,9.3c0,5.3,5.2,8.2,10.8,8.2c6.3,0,13.2-3.4,13.2-8.7c0-4.4-5.1-6.1-10.7-7.3
		C639.8,292.9,637.3,292.5,635,292z M648.5,267c0-5.5-2.8-11.3-9-11.3c-6,0-8.4,5.2-8.4,10.6c0,5.3,2.5,10.6,8.8,10.6
		C646,276.9,648.5,272.1,648.5,267z"/>
	<path id="XMLID_509_" d="M702.4,270.8l2.9-0.4c0.1-1.8,0.1-6.8-0.3-9.2c-0.6-3.2-2.2-5.5-5.4-5.5c-5.8,0-9.1,8.2-9.1,8.2h-2.7
		l-1.5-6.4c0,0,6.3-4.8,15.9-4.8c8.1,0,10.2,3.3,10.2,12.3v19.7c0,2.7,0.3,4,2.3,4c2.3,0,4.7-1.7,4.7-1.7l1.1,1.8c0,0-4,4.5-9.1,4.5
		c-3.3,0-5.8-1.9-5.8-6.1v-2.1c0,0-4.5,8.2-13.4,8.2c-5.7,0-8.9-4-8.9-8.7C683.2,276.4,693.4,272.1,702.4,270.8z M705.3,283.3v-10.1
		l-2.7,0.4c-4.9,0.8-11.8,3.3-11.8,9.5c0,3.4,2.2,5.3,4.8,5.3C698.9,288.5,703,285.2,705.3,283.3z"/>
	<path id="XMLID_512_" d="M723.6,290.1c3.9-0.4,5.3-2.5,5.3-5.6v-20.9c0-3.7-0.1-5.8-2.6-5.8h-3.9v-2.3c8.4-1.7,13.7-4,13.7-4
		l0.3,0.3c0,0-0.8,2.8-0.9,10.5c3.1-4.6,9.1-9.5,16.3-9.5c5.9,0,9.8,3.3,9.8,11.6v20.3c0,2.6-0.4,4.5-0.4,4.5l7.3,0.9l-0.3,2.1
		l-18.5,0.5v-2.5c3.9-0.4,4.9-2.5,4.9-5.6v-18.4c0-6.5-2.5-8.2-5.9-8.2c-3.9,0-9.2,2.3-12.8,6v20.6c0,2.6-0.4,4.5-0.4,4.5l6.9,0.9
		l-0.3,2.1l-18.5,0.5V290.1z"/>
	<path id="XMLID_514_" d="M794.5,252.7c3.1,0,6.1,0.5,6.1,0.5v-12.3c0-3.7-0.1-5.8-2.6-5.8h-3.6v-2.3c9.9-2.1,13.8-3.9,13.8-3.9
		l0.3,0.3c0,0-0.9,3.2-0.9,9.8v45.2c0,4.9,2,4.9,4.8,4.9h2.4l-0.3,2.3c-9.4,0.9-13.7,1.6-13.7,1.6l-0.3-0.3c0,0,0.3-2.4,0.3-4.5
		v-1.8c-2.3,3.4-5.8,7-12.3,7c-10.6,0-16.1-9.3-16.1-18.6C772.6,263.9,779.9,252.7,794.5,252.7z M800.6,284.6v-24.1
		c0-3.9-3.4-4.5-6.2-4.5c-8.8,0-14.4,6.3-14.4,16.2c0,8.2,3.9,16.2,11.7,16.2C795.9,288.4,799.3,286,800.6,284.6z"/>
	<path id="XMLID_517_" d="M837.4,290.1c3.9-0.4,5.3-2.5,5.3-5.6v-43.6c0-3.7-0.1-5.8-2.6-5.8h-3.6v-2.3c9.9-2.1,13.8-3.9,13.8-3.9
		l0.3,0.3c0,0-0.9,3.2-0.9,9.8v16.7c0,3.9-0.3,5.7-0.3,6.4c3.1-4.5,9.1-9.3,16.3-9.3c5.9,0,9.8,3.3,9.8,11.6v20.3
		c0,2.6-0.4,4.6-0.4,4.6l7.3,0.8l-0.3,2.1l-18.5,0.5v-2.5c3.5-0.4,4.9-2.5,4.9-5.6v-18.4c0-6.5-2.5-8.2-5.9-8.2
		c-3.9,0-9.2,2.4-12.8,5.8v20.8c0,2.6-0.4,4.6-0.4,4.6l6.9,0.8l-0.3,2.1l-18.5,0.5V290.1z"/>
	<path id="XMLID_519_" d="M886.5,290.1c3.9-0.4,5.3-2.5,5.3-5.6v-20.9c0-3.7-0.1-5.8-2.6-5.8h-3.9v-2.3c12.5-2.9,14.3-4,14.3-4
		l0.1,0.3c0,0-0.9,2.8-0.9,9.8v23c0,2.6-0.4,4.6-0.4,4.6l7.3,0.8l-0.3,2.1l-18.9,0.5V290.1z M889.9,239.3c0-2.5,2.1-4.6,4.6-4.6
		c2.5,0,4.6,2.1,4.6,4.6c0,2.5-2.1,4.6-4.6,4.6C892,243.9,889.9,241.8,889.9,239.3z"/>
	<path id="XMLID_522_" d="M911.4,281h2.6c0.5,7.3,5.6,9.4,9.7,9.4c4.2,0,7.1-2.2,7.1-5.8c0-9.2-19.7-8.6-19.7-21
		c0-6.4,4.9-10.9,14-10.9c5.1,0,10.7,1.5,10.7,1.5l-1.7,8.8h-2.7c0-7-5.9-7.5-7.7-7.5c-4.6,0-6.4,2.8-6.4,5.5
		c0,9.1,19.6,7.5,19.6,21c0,7.1-5.6,11.2-13.7,11.2c-3.9,0-12.9-0.9-12.9-5.8C910.3,285.8,911.4,281,911.4,281z"/>
	<path id="XMLID_524_" d="M963.9,281h2.6c0.5,7.3,5.6,9.4,9.7,9.4c4.2,0,7.1-2.2,7.1-5.8c0-9.2-19.7-8.6-19.7-21
		c0-6.4,4.9-10.9,14-10.9c5.1,0,10.7,1.5,10.7,1.5l-1.7,8.8H984c0-7-5.9-7.5-7.7-7.5c-4.6,0-6.4,2.8-6.4,5.5c0,9.1,19.6,7.5,19.6,21
		c0,7.1-5.6,11.2-13.7,11.2c-3.9,0-12.9-0.9-12.9-5.8C962.8,285.8,963.9,281,963.9,281z"/>
	<path id="XMLID_526_" d="M999.9,263.6c0-3.7-0.1-5.8-2.6-5.8h-3v-2.4c8.3-1.5,13-3.2,13-3.2l0.3,0.3c0,0-0.8,2.4-0.8,9v18.4
		c0,6.5,2.3,8.2,5.8,8.2c3.9,0,8.8-2.3,12.4-6.1v-18.4c0-3.7-0.1-5.8-2.6-5.8h-2.8v-2.4c8.2-1.5,12.9-3.2,12.9-3.2l0.3,0.3
		c0,0-0.8,2.4-0.8,9v22.7c0,4.9,2,4.9,4.8,4.9h2.4l-0.3,2.3c-9.4,0.9-14.1,1.7-14.1,1.7l-0.3-0.3c0,0,0.8-2.5,0.8-4.6v-4.5
		c-3.1,4.5-8.8,9.6-16,9.6c-6,0-9.7-3.3-9.7-11.5V263.6z"/>
	<path id="XMLID_694_" d="M15.1,413.5l2.7-6.4c-0.4-1.2-1.1-3.2-2.1-5.6l-11-26.3c-1.8-4.3-4.8-5-4.8-5v-2.1h4
		c5.4,0,8.8-0.3,8.8-0.3l0.3,0.3c-1,2.1-1,5.6-0.1,7.9l7,17.4c0.5,1.5,1.2,3.6,1.6,5.2l9.7-22.1c1.5-3.4-1.5-5.3-4.7-6.2v-2.1h11.9
		l0.4,1.4c0,0-1.5,0.9-3.1,4.5L21,407.8c-2.3,5.2-7.2,19.3-15.4,19.3c-2.5,0-3.8-1.7-3.8-3.6c0-1.7,1.1-3.5,4.2-3.5
		C10.6,420,13.6,417.1,15.1,413.5z"/>
	<path id="XMLID_696_" d="M60.6,367.1c7.4,0,14.7,4.8,14.9,14.2c0,0-2.2,0.9-3.9,1.1l-21.4,3.1l-0.9,1c0.3,7.8,4.3,15.4,13.9,15.4
		c7,0,11.2-4.1,11.2-4.1l0.9,1.8c0,0-4.5,8.1-14.7,8.1c-12.2,0-18.2-9.5-18.2-19.6C42.5,376.5,50.2,367.1,60.6,367.1z M49.5,382.5
		l18-2.3c0,0-0.7-9.8-8.2-9.8C53.6,370.4,50.3,376,49.5,382.5z"/>
	<path id="XMLID_699_" fill="#FF1D25" d="M81.1,404.5c3.9-0.4,5.3-2.5,5.3-5.6v-43.6c0-3.7-0.1-5.8-2.6-5.8h-3.6v-2.3
		c9.9-2.1,13.8-3.9,13.8-3.9l0.3,0.3c0,0-0.9,3.2-0.9,9.8v45.6c0,2.6-0.4,4.6-0.4,4.6l7.3,0.8l-0.3,2.1L81.1,407V404.5z"/>
	<path id="XMLID_701_" d="M104,404.5c3.9-0.4,5.3-2.5,5.3-5.6v-43.6c0-3.7-0.1-5.8-2.6-5.8h-3.6v-2.3c9.9-2.1,13.8-3.9,13.8-3.9
		l0.3,0.3c0,0-0.9,3.2-0.9,9.8v45.6c0,2.6-0.4,4.6-0.4,4.6l7.3,0.8l-0.3,2.1L104,407V404.5z"/>
	<path id="XMLID_703_" d="M147.7,367.1c12.5,0,19,8.2,19,18.8c0,10.6-6.6,21.9-20.3,21.9c-12.1,0-18.8-8.5-18.8-19.5
		C127.5,378.3,133.1,367.1,147.7,367.1z M147.5,404.9c7.3,0,11.2-7.4,11.2-16.6c0-8.5-3.4-18.3-12.1-18.3c-7.9,0-11.2,8.1-11.2,16.3
		C135.4,394.9,139,404.9,147.5,404.9z"/>
	<path id="XMLID_706_" d="M174.8,375.3c-1.7-4.4-4.7-5-4.7-5v-2.1h3.9c5.4,0,8.4-0.3,8.4-0.3l0.3,0.3c0,0-1.6,3.7-0.1,7.9l6.7,18.1
		l1.4,4.6l8-19c0.4-1.1,0.9-2.6,0.5-3.9l-0.2-0.6c-1.6-4.4-4.7-5-4.7-5v-2.1h3.9c5.4,0,8.4-0.3,8.4-0.3l0.3,0.3c0,0-1.6,3.7-0.1,7.9
		l6.6,17.8c0.5,1.5,1,3.3,1.5,4.9l9.4-22.2c1.5-3.4-1-5.4-4.3-6.2v-2.1h11.5l0.4,1.4c0,0-1.5,0.7-3.1,4.5l-14.4,33.8l-3.2-1.1
		l-9.9-25.2l-11.2,26.3l-3.2-1.1L174.8,375.3z"/>
	<path id="XMLID_708_" d="M256.4,395.4h2.6c0.5,7.3,5.6,9.4,9.7,9.4c4.2,0,7.1-2.2,7.1-5.8c0-9.2-19.7-8.6-19.7-21
		c0-6.4,4.9-10.9,14-10.9c5.1,0,10.7,1.5,10.7,1.5l-1.7,8.8h-2.7c0-7-5.9-7.5-7.7-7.5c-4.6,0-6.4,2.8-6.4,5.5
		c0,9.1,19.6,7.5,19.6,21c0,7.1-5.6,11.2-13.7,11.2c-3.9,0-12.9-0.9-12.9-5.8C255.3,400.2,256.4,395.4,256.4,395.4z"/>
	<path id="XMLID_710_" d="M306.6,385.2l2.9-0.4c0.1-1.8,0.1-6.8-0.3-9.2c-0.6-3.2-2.2-5.5-5.4-5.5c-5.8,0-9.1,8.2-9.1,8.2h-2.7
		l-1.5-6.4c0,0,6.3-4.8,15.9-4.8c8.1,0,10.2,3.3,10.2,12.3v19.7c0,2.7,0.3,4,2.3,4c2.3,0,4.7-1.7,4.7-1.7l1.1,1.8c0,0-4,4.5-9.1,4.5
		c-3.3,0-5.8-1.9-5.8-6.1v-2.1c0,0-4.5,8.2-13.4,8.2c-5.7,0-8.9-4-8.9-8.7C287.5,390.9,297.7,386.6,306.6,385.2z M309.5,397.7v-10.1
		l-2.7,0.4c-4.9,0.8-11.8,3.3-11.8,9.5c0,3.4,2.2,5.3,4.8,5.3C303.2,402.9,307.3,399.6,309.5,397.7z"/>
	<path id="XMLID_713_" d="M327.8,404.5c3.9-0.4,5.3-2.5,5.3-5.6v-20.9c0-3.7-0.1-5.8-2.6-5.8h-3.9v-2.3c8.4-1.7,13.7-4,13.7-4
		l0.3,0.3c0,0-0.8,2.8-0.9,10.5c3.1-4.6,9.1-9.5,16.3-9.5c5.9,0,9.8,3.3,9.8,11.6v20.3c0,2.6-0.4,4.5-0.4,4.5l7.3,0.9l-0.3,2.1
		L354,407v-2.5c3.9-0.4,4.9-2.5,4.9-5.6v-18.4c0-6.5-2.5-8.2-5.9-8.2c-3.9,0-9.2,2.3-12.8,6v20.6c0,2.6-0.4,4.5-0.4,4.5l6.9,0.9
		l-0.3,2.1l-18.5,0.5V404.5z"/>
	<path id="XMLID_715_" d="M398.8,367.1c3.1,0,6.1,0.5,6.1,0.5v-12.3c0-3.7-0.1-5.8-2.6-5.8h-3.6v-2.3c9.9-2.1,13.8-3.9,13.8-3.9
		l0.3,0.3c0,0-0.9,3.2-0.9,9.8v45.2c0,4.9,2,4.9,4.8,4.9h2.4l-0.3,2.3c-9.4,0.9-13.7,1.6-13.7,1.6l-0.3-0.3c0,0,0.3-2.4,0.3-4.5
		v-1.8c-2.3,3.4-5.8,7-12.3,7c-10.6,0-16.1-9.3-16.1-18.6C376.8,378.3,384.1,367.1,398.8,367.1z M404.9,399v-24.1
		c0-3.9-3.4-4.5-6.2-4.5c-8.8,0-14.4,6.3-14.4,16.2c0,8.2,3.9,16.2,11.7,16.2C400.1,402.8,403.5,400.4,404.9,399z"/>
	<path id="XMLID_718_" d="M429.9,397.5c2.8,0,5.2,2.3,5.2,5.1c0,2.8-2.3,5.1-5.2,5.1c-2.8,0-5.1-2.3-5.1-5.1
		C424.8,399.8,427.1,397.5,429.9,397.5z"/>
	<path id="XMLID_720_" d="M464,404.3c3.9-0.4,6.2-2.2,6.2-5.3v-38.6c0-5.9-1.4-7.6-7-8.7v-2.1h2.6c4.2,0,8.6-0.3,8.6-0.3
		s1,2,3.2,4.5l31.1,35.9c1.1,1.4,2.5,3.2,3.4,4.5v-35.7c0-3.8-0.1-5.8-7-6.4v-2.4h16.3l0.4,1.2c0,0-5.9,1.6-5.9,8.8v47.7h-2.2
		l-36.5-43.1c-1-1.2-2.2-2.8-3.1-4.1v39c0,2.6-0.4,4.6-0.4,4.6l7.7,0.5l-0.3,2.4L464,407V404.3z"/>
	<path id="XMLID_722_" d="M547,367.1c12.5,0,19,8.2,19,18.8c0,10.6-6.6,21.9-20.3,21.9c-12.1,0-18.8-8.5-18.8-19.5
		C526.8,378.3,532.4,367.1,547,367.1z M546.8,404.9c7.3,0,11.2-7.4,11.2-16.6c0-8.5-3.4-18.3-12.1-18.3c-7.9,0-11.2,8.1-11.2,16.3
		C534.7,394.9,538.2,404.9,546.8,404.9z"/>
	<path id="XMLID_725_" d="M574,400.1l6.6-3.5c2.6,2.7,3.9,6,3.9,9.6c0,7.2-3.9,11.3-8.7,15.3l-2.1-2.2c3-2.6,5.9-5.4,5.9-9.1
		c0-2.7-1.8-4.9-5.6-7V400.1z"/>
	<path id="XMLID_727_" d="M611.6,404.5c3.9-0.4,5.3-2.5,5.3-5.6v-20.9c0-3.7-0.1-5.8-2.6-5.8h-3.9v-2.3c12.5-2.9,14.3-4,14.3-4
		l0.1,0.3c0,0-0.9,2.8-0.9,9.8v23c0,2.6-0.4,4.6-0.4,4.6l7.3,0.8l-0.3,2.1l-18.9,0.5V404.5z M615.1,353.7c0-2.5,2.1-4.6,4.6-4.6
		c2.5,0,4.6,2.1,4.6,4.6c0,2.5-2.1,4.6-4.6,4.6C617.2,358.3,615.1,356.2,615.1,353.7z"/>
	<path id="XMLID_730_" d="M635.4,404.5c3.9-0.4,5.3-2.5,5.3-5.6v-20.9c0-3.7-0.1-5.8-2.6-5.8h-3.9v-2.3c8.4-1.7,13.7-4,13.7-4
		l0.3,0.3c0,0-0.8,2.8-0.9,10.5c3.1-4.6,9.1-9.5,16.3-9.5c5.9,0,9.8,3.3,9.8,11.6v20.3c0,2.6-0.4,4.5-0.4,4.5l7.3,0.9l-0.3,2.1
		l-18.5,0.5v-2.5c3.9-0.4,4.9-2.5,4.9-5.6v-18.4c0-6.5-2.5-8.2-5.9-8.2c-3.9,0-9.2,2.3-12.8,6v20.6c0,2.6-0.4,4.5-0.4,4.5l6.9,0.9
		l-0.3,2.1l-18.5,0.5V404.5z"/>
	<path id="XMLID_732_" d="M706.4,367.1c3.1,0,6.1,0.5,6.1,0.5v-12.3c0-3.7-0.1-5.8-2.6-5.8h-3.6v-2.3c9.9-2.1,13.8-3.9,13.8-3.9
		l0.3,0.3c0,0-0.9,3.2-0.9,9.8v45.2c0,4.9,2,4.9,4.8,4.9h2.4l-0.3,2.3c-9.4,0.9-13.7,1.6-13.7,1.6l-0.3-0.3c0,0,0.3-2.4,0.3-4.5
		v-1.8c-2.3,3.4-5.8,7-12.3,7c-10.6,0-16.1-9.3-16.1-18.6C684.4,378.3,691.7,367.1,706.4,367.1z M712.5,399v-24.1
		c0-3.9-3.4-4.5-6.2-4.5c-8.8,0-14.4,6.3-14.4,16.2c0,8.2,3.9,16.2,11.7,16.2C707.8,402.8,711.1,400.4,712.5,399z"/>
	<path id="XMLID_735_" fill="#FF1D25" d="M748.9,367.1c7.4,0,14.7,4.8,14.9,14.2c0,0-2.2,0.9-3.9,1.1l-21.4,3.1l-0.9,1
		c0.3,7.8,4.3,15.4,13.9,15.4c7,0,11.2-4.1,11.2-4.1l0.9,1.8c0,0-4.5,8.1-14.7,8.1c-12.2,0-18.2-9.5-18.2-19.6
		C730.8,376.5,738.5,367.1,748.9,367.1z M737.8,382.5l18-2.3c0,0-0.7-9.8-8.2-9.8C741.8,370.4,738.6,376,737.8,382.5z"/>
	<path id="XMLID_738_" d="M788.4,367.1c7.4,0,14.7,4.8,14.9,14.2c0,0-2.2,0.9-3.9,1.1l-21.4,3.1l-0.9,1c0.3,7.8,4.3,15.4,13.9,15.4
		c7,0,11.2-4.1,11.2-4.1l0.9,1.8c0,0-4.5,8.1-14.7,8.1c-12.2,0-18.2-9.5-18.2-19.6C770.2,376.5,778,367.1,788.4,367.1z M777.3,382.5
		l18-2.3c0,0-0.7-9.8-8.2-9.8C781.3,370.4,778.1,376,777.3,382.5z"/>
	<path id="XMLID_741_" d="M831.6,367.1c3.1,0,6.1,0.5,6.1,0.5v-12.3c0-3.7-0.1-5.8-2.6-5.8h-3.6v-2.3c9.9-2.1,13.8-3.9,13.8-3.9
		l0.3,0.3c0,0-0.9,3.2-0.9,9.8v45.2c0,4.9,2,4.9,4.8,4.9h2.4l-0.3,2.3c-9.4,0.9-13.7,1.6-13.7,1.6l-0.3-0.3c0,0,0.3-2.4,0.3-4.5
		v-1.8c-2.3,3.4-5.8,7-12.3,7c-10.6,0-16.1-9.3-16.1-18.6C809.6,378.3,816.9,367.1,831.6,367.1z M837.7,399v-24.1
		c0-3.9-3.4-4.5-6.2-4.5c-8.8,0-14.4,6.3-14.4,16.2c0,8.2,3.9,16.2,11.7,16.2C833,402.8,836.3,400.4,837.7,399z"/>
	<path id="XMLID_744_" d="M859.3,400.1l6.6-3.5c2.6,2.7,3.9,6,3.9,9.6c0,7.2-3.9,11.3-8.7,15.3l-2.1-2.2c3-2.6,5.9-5.4,5.9-9.1
		c0-2.7-1.8-4.9-5.6-7V400.1z M864.3,368.1c2.8,0,5.1,2.3,5.1,5.2c0,2.8-2.3,5.1-5.1,5.1c-2.8,0-5.1-2.3-5.1-5.1
		C859.2,370.5,861.5,368.1,864.3,368.1z"/>
	<path id="XMLID_747_" d="M902.8,378.1c0-2.5,0.3-5.6,0.3-5.6h-5.7v-2.6c0,0,3.8-0.8,5.8-2.7l3.2-9.4l3.9,0.1l0.3,0.3
		c0,0-0.8,2.5-0.8,8.6v1.3h13.4l-0.6,4.1h-11.8l-0.9,0.9v21.8c0,5,1.5,7.7,6,7.7c3.9,0,7.7-1.8,7.7-1.8l1.1,1.6
		c0,0-4.9,5.3-12.4,5.3c-6.1,0-9.5-3.4-9.5-11.2V378.1z"/>
	<path id="XMLID_749_" d="M927.5,404.5c3.9-0.4,5.3-2.5,5.3-5.6v-43.6c0-3.7-0.1-5.8-2.6-5.8h-3.6v-2.3c9.9-2.1,13.8-3.9,13.8-3.9
		l0.3,0.3c0,0-0.9,3.2-0.9,9.8V370c0,3.9-0.3,5.7-0.3,6.4c3.1-4.5,9.1-9.3,16.3-9.3c5.9,0,9.8,3.3,9.8,11.6v20.3
		c0,2.6-0.4,4.6-0.4,4.6l7.3,0.8l-0.3,2.1l-18.5,0.5v-2.5c3.5-0.4,4.9-2.5,4.9-5.6v-18.4c0-6.5-2.5-8.2-5.9-8.2
		c-3.9,0-9.2,2.4-12.8,5.8v20.8c0,2.6-0.4,4.6-0.4,4.6l6.9,0.8l-0.3,2.1l-18.5,0.5V404.5z"/>
	<path id="XMLID_751_" fill="#FF1D25" d="M994.7,367.1c7.4,0,14.7,4.8,14.9,14.2c0,0-2.2,0.9-3.9,1.1l-21.4,3.1l-0.9,1
		c0.3,7.8,4.3,15.4,13.9,15.4c7,0,11.2-4.1,11.2-4.1l0.9,1.8c0,0-4.5,8.1-14.7,8.1c-12.2,0-18.2-9.5-18.2-19.6
		C976.6,376.5,984.3,367.1,994.7,367.1z M983.6,382.5l18-2.3c0,0-0.7-9.8-8.2-9.8C987.7,370.4,984.4,376,983.6,382.5z"/>
	<path id="XMLID_915_" d="M3.2,539.7c3.9-2.1,4.5-4.1,4.5-8.1v-39.1c0-3.7-0.1-5.8-2.6-5.8H1.6v-2.3c8.4-1.7,13.5-4,13.5-4l0.3,0.3
		c0,0-0.5,2.1-0.9,7.6c2.3-2.9,5.6-6.7,12.4-6.7c10.5,0,15.6,9.3,15.6,18.7c0,10.9-7,22-22.1,22c-2.3,0-4.1-0.3-5.8-0.5v9.9
		c0,2.6-0.4,4.9-0.4,4.9h9l-0.3,2.1c0,0-13.6,1.6-19.7,3.7V539.7z M35,502.7c0-8.2-3.6-16.2-11.2-16.2c-3.3,0-6.4,1.5-9.1,3.6v24.2
		c0,4,3.3,4.6,6.2,4.6C29.8,519,35,512.5,35,502.7z"/>
	<path id="XMLID_918_" d="M47.9,519c3.9-0.4,5.3-2.5,5.3-5.6v-43.6c0-3.7-0.1-5.8-2.6-5.8H47v-2.3c9.9-2.1,13.8-3.9,13.8-3.9
		l0.3,0.3c0,0-0.9,3.2-0.9,9.8v45.6c0,2.6-0.4,4.6-0.4,4.6l7.3,0.8l-0.3,2.1l-18.9,0.5V519z"/>
	<path id="XMLID_920_" d="M71.7,519c3.9-0.4,5.3-2.5,5.3-5.6v-20.9c0-3.7-0.1-5.8-2.6-5.8h-3.9v-2.3c12.5-2.9,14.3-4,14.3-4l0.1,0.3
		c0,0-0.9,2.8-0.9,9.8v23c0,2.6-0.4,4.6-0.4,4.6l7.3,0.8l-0.3,2.1l-18.9,0.5V519z M75.1,468.2c0-2.5,2.1-4.6,4.6-4.6
		c2.5,0,4.6,2.1,4.6,4.6c0,2.5-2.1,4.6-4.6,4.6C77.2,472.8,75.1,470.6,75.1,468.2z"/>
	<path id="XMLID_923_" d="M113.7,499.7l2.9-0.4c0.1-1.8,0.1-6.8-0.3-9.2c-0.6-3.2-2.2-5.5-5.4-5.5c-5.8,0-9.1,8.2-9.1,8.2h-2.7
		l-1.5-6.4c0,0,6.3-4.8,15.9-4.8c8.1,0,10.2,3.3,10.2,12.3v19.7c0,2.7,0.3,4,2.3,4c2.3,0,4.7-1.7,4.7-1.7l1.1,1.8c0,0-4,4.5-9.1,4.5
		c-3.3,0-5.8-1.9-5.8-6.1v-2.1c0,0-4.5,8.2-13.4,8.2c-5.7,0-8.9-4-8.9-8.7C94.6,505.3,104.8,501,113.7,499.7z M116.6,512.2v-10.1
		l-2.7,0.4c-4.9,0.8-11.8,3.3-11.8,9.5c0,3.4,2.2,5.3,4.8,5.3C110.3,517.3,114.4,514.1,116.6,512.2z"/>
	<path id="XMLID_926_" d="M134.9,519c3.9-0.4,5.3-2.5,5.3-5.6v-20.9c0-3.7-0.1-5.8-2.6-5.8h-3.9v-2.3c8.4-1.7,13.7-4,13.7-4l0.3,0.3
		c0,0-0.8,2.8-0.9,10.5c3.1-4.6,9.1-9.5,16.3-9.5c5.9,0,9.8,3.3,9.8,11.6v20.3c0,2.6-0.4,4.5-0.4,4.5l7.3,0.9l-0.3,2.1l-18.5,0.5
		V519c3.9-0.4,4.9-2.5,4.9-5.6V495c0-6.5-2.5-8.2-5.9-8.2c-3.9,0-9.2,2.3-12.8,6v20.6c0,2.6-0.4,4.5-0.4,4.5l6.9,0.9l-0.3,2.1
		l-18.5,0.5V519z"/>
	<path id="XMLID_928_" d="M188,492.5c0-2.5,0.3-5.6,0.3-5.6h-5.7v-2.6c0,0,3.8-0.8,5.8-2.7l3.2-9.4l3.9,0.1l0.3,0.3
		c0,0-0.8,2.5-0.8,8.6v1.3h13.4l-0.6,4.1h-11.8l-0.9,0.9v21.8c0,5,1.5,7.7,6,7.7c3.9,0,7.7-1.8,7.7-1.8l1.1,1.6
		c0,0-4.9,5.3-12.4,5.3c-6.1,0-9.5-3.4-9.5-11.2V492.5z"/>
	<path id="XMLID_930_" d="M215,514.5l6.6-3.5c2.6,2.7,3.9,6,3.9,9.6c0,7.2-3.9,11.3-8.7,15.3l-2.1-2.2c3-2.6,5.9-5.4,5.9-9.1
		c0-2.7-1.8-4.9-5.6-7V514.5z"/>
	<path id="XMLID_932_" d="M256.9,492.5c0-2.5,0.3-5.6,0.3-5.6h-5.7v-2.6c0,0,3.8-0.8,5.8-2.7l3.2-9.4l3.9,0.1l0.3,0.3
		c0,0-0.8,2.5-0.8,8.6v1.3h13.4l-0.6,4.1h-11.8l-0.9,0.9v21.8c0,5,1.5,7.7,6,7.7c3.9,0,7.7-1.8,7.7-1.8l1.1,1.6
		c0,0-4.9,5.3-12.4,5.3c-6.1,0-9.5-3.4-9.5-11.2V492.5z"/>
	<path id="XMLID_934_" d="M281.6,519c3.9-0.4,5.3-2.5,5.3-5.6v-43.6c0-3.7-0.1-5.8-2.6-5.8h-3.6v-2.3c9.9-2.1,13.8-3.9,13.8-3.9
		l0.3,0.3c0,0-0.9,3.2-0.9,9.8v16.7c0,3.9-0.3,5.7-0.3,6.4c3.1-4.5,9.1-9.3,16.3-9.3c5.9,0,9.8,3.3,9.8,11.6v20.3
		c0,2.6-0.4,4.6-0.4,4.6l7.3,0.8l-0.3,2.1l-18.5,0.5V519c3.5-0.4,4.9-2.5,4.9-5.6V495c0-6.5-2.5-8.2-5.9-8.2
		c-3.9,0-9.2,2.4-12.8,5.8v20.8c0,2.6-0.4,4.6-0.4,4.6l6.9,0.8l-0.3,2.1l-18.5,0.5V519z"/>
	<path id="XMLID_936_" d="M349,499.7l2.9-0.4c0.1-1.8,0.1-6.8-0.3-9.2c-0.6-3.2-2.2-5.5-5.4-5.5c-5.8,0-9.1,8.2-9.1,8.2h-2.7
		l-1.5-6.4c0,0,6.3-4.8,15.9-4.8c8.1,0,10.2,3.3,10.2,12.3v19.7c0,2.7,0.3,4,2.3,4c2.3,0,4.7-1.7,4.7-1.7l1.1,1.8c0,0-4,4.5-9.1,4.5
		c-3.3,0-5.8-1.9-5.8-6.1v-2.1c0,0-4.5,8.2-13.4,8.2c-5.7,0-8.9-4-8.9-8.7C329.8,505.3,340.1,501,349,499.7z M351.9,512.2v-10.1
		l-2.7,0.4c-4.9,0.8-11.8,3.3-11.8,9.5c0,3.4,2.2,5.3,4.8,5.3C345.6,517.3,349.7,514.1,351.9,512.2z"/>
	<path id="XMLID_939_" d="M374.4,492.5c0-2.5,0.3-5.6,0.3-5.6H369v-2.6c0,0,3.8-0.8,5.8-2.7l3.2-9.4l3.9,0.1l0.3,0.3
		c0,0-0.8,2.5-0.8,8.6v1.3h13.4l-0.6,4.1h-11.8l-0.9,0.9v21.8c0,5,1.5,7.7,6,7.7c3.9,0,7.7-1.8,7.7-1.8l1.1,1.6
		c0,0-4.9,5.3-12.4,5.3c-6.1,0-9.5-3.4-9.5-11.2V492.5z"/>
	<path id="XMLID_941_" d="M423.5,492.5c0-2.5,0.3-5.6,0.3-5.6h-5.7v-2.6c0,0,3.8-0.8,5.8-2.7l3.2-9.4l3.9,0.1l0.3,0.3
		c0,0-0.8,2.5-0.8,8.6v1.3h13.4l-0.6,4.1h-11.8l-0.9,0.9v21.8c0,5,1.5,7.7,6,7.7c3.9,0,7.7-1.8,7.7-1.8l1.1,1.6
		c0,0-4.9,5.3-12.4,5.3c-6.1,0-9.5-3.4-9.5-11.2V492.5z"/>
	<path id="XMLID_943_" d="M448.2,519c3.9-0.4,5.3-2.5,5.3-5.6v-43.6c0-3.7-0.1-5.8-2.6-5.8h-3.6v-2.3c9.9-2.1,13.8-3.9,13.8-3.9
		l0.3,0.3c0,0-0.9,3.2-0.9,9.8v16.7c0,3.9-0.3,5.7-0.3,6.4c3.1-4.5,9.1-9.3,16.3-9.3c5.9,0,9.8,3.3,9.8,11.6v20.3
		c0,2.6-0.4,4.6-0.4,4.6l7.3,0.8l-0.3,2.1l-18.5,0.5V519c3.5-0.4,4.9-2.5,4.9-5.6V495c0-6.5-2.5-8.2-5.9-8.2
		c-3.9,0-9.2,2.4-12.8,5.8v20.8c0,2.6-0.4,4.6-0.4,4.6l6.9,0.8l-0.3,2.1l-18.5,0.5V519z"/>
	<path id="XMLID_945_" fill="#FF1D25" d="M515.4,481.5c7.4,0,14.7,4.8,14.9,14.2c0,0-2.2,0.9-3.9,1.1L505,500l-0.9,1
		c0.3,7.8,4.3,15.4,13.9,15.4c7,0,11.2-4.1,11.2-4.1l0.9,1.8c0,0-4.5,8.1-14.7,8.1c-12.2,0-18.2-9.5-18.2-19.6
		C497.3,491,505,481.5,515.4,481.5z M504.3,496.9l18-2.3c0,0-0.7-9.8-8.2-9.8C508.4,484.8,505.1,490.5,504.3,496.9z"/>
	<path id="XMLID_948_" d="M557.3,509.9h2.6c0.5,7.3,5.6,9.4,9.7,9.4c4.2,0,7.1-2.2,7.1-5.8c0-9.2-19.7-8.6-19.7-21
		c0-6.4,4.9-10.9,14-10.9c5.1,0,10.7,1.5,10.7,1.5l-1.7,8.8h-2.7c0-7-5.9-7.5-7.7-7.5c-4.6,0-6.4,2.8-6.4,5.5
		c0,9.1,19.6,7.5,19.6,21c0,7.1-5.6,11.2-13.7,11.2c-3.9,0-12.9-0.9-12.9-5.8C556.2,514.7,557.3,509.9,557.3,509.9z"/>
	<path id="XMLID_950_" d="M588.4,519c3.9-0.4,5.3-2.5,5.3-5.6v-43.6c0-3.7-0.1-5.8-2.6-5.8h-3.6v-2.3c9.9-2.1,13.8-3.9,13.8-3.9
		l0.3,0.3c0,0-0.9,3.2-0.9,9.8v45.6c0,2.6-0.4,4.6-0.4,4.6l7.3,0.8l-0.3,2.1l-18.9,0.5V519z"/>
	<path id="XMLID_952_" d="M612.1,519c3.9-0.4,5.3-2.5,5.3-5.6v-20.9c0-3.7-0.1-5.8-2.6-5.8H611v-2.3c12.5-2.9,14.3-4,14.3-4l0.1,0.3
		c0,0-0.9,2.8-0.9,9.8v23c0,2.6-0.4,4.6-0.4,4.6l7.3,0.8l-0.3,2.1l-18.9,0.5V519z M615.6,468.2c0-2.5,2.1-4.6,4.6-4.6
		c2.5,0,4.6,2.1,4.6,4.6c0,2.5-2.1,4.6-4.6,4.6C617.7,472.8,615.6,470.6,615.6,468.2z"/>
	<path id="XMLID_955_" fill="#FF1D25" d="M646.5,508c-5.8-1.6-10.3-5.8-10.3-12.6c0-8.9,7.6-13.8,16.1-13.8c5,0,7,1.7,11.3,1.7h4.1
		c2.7,0,5.7-1.1,5.7-1.1l-0.8,5.6H668c-1.9,0-3-0.3-3-0.3s3.5,3,3.5,8.4c0,8.1-7.7,12.9-16.3,12.9c-1.5,0-2.8-0.1-4.2-0.3
		c-0.6,0.7-2.1,2.4-2.1,3.6c0,2.3,5.1,2.9,11.8,4.3c7.2,1.5,14.9,3.9,14.9,10.8c0,8.4-11.2,14.4-21.8,14.4
		c-7.7,0-16.1-3.2-16.1-10.4c0-6.6,6.9-9.2,10.8-10.7c-4-1-7.1-2.6-7.1-5.5C638.4,511.3,643.4,509.6,646.5,508z M647.6,520.9
		c-2.1,1.4-6.1,4.5-6.1,9.3c0,5.3,5.2,8.2,10.8,8.2c6.3,0,13.2-3.4,13.2-8.7c0-4.4-5.1-6.1-10.7-7.3
		C652.4,521.8,649.9,521.4,647.6,520.9z M661.1,495.9c0-5.5-2.8-11.3-9-11.3c-6,0-8.4,5.2-8.4,10.6c0,5.3,2.5,10.6,8.8,10.6
		C658.7,505.8,661.1,500.9,661.1,495.9z"/>
	<path id="XMLID_959_" fill="#FF1D25" d="M676.5,519c3.9-0.4,5.3-2.5,5.3-5.6v-43.6c0-3.7-0.1-5.8-2.6-5.8h-3.6v-2.3
		c9.9-2.1,13.8-3.9,13.8-3.9l0.3,0.3c0,0-0.9,3.2-0.9,9.8v16.7c0,3.9-0.3,5.7-0.3,6.4c3.1-4.5,9.1-9.3,16.3-9.3
		c5.9,0,9.8,3.3,9.8,11.6v20.3c0,2.6-0.4,4.6-0.4,4.6l7.3,0.8l-0.3,2.1l-18.5,0.5V519c3.5-0.4,4.9-2.5,4.9-5.6V495
		c0-6.5-2.5-8.2-5.9-8.2c-3.9,0-9.2,2.4-12.8,5.8v20.8c0,2.6-0.4,4.6-0.4,4.6l6.9,0.8l-0.3,2.1l-18.5,0.5V519z"/>
	<path id="XMLID_961_" d="M729.6,492.5c0-2.5,0.3-5.6,0.3-5.6h-5.7v-2.6c0,0,3.8-0.8,5.8-2.7l3.2-9.4l3.9,0.1l0.3,0.3
		c0,0-0.8,2.5-0.8,8.6v1.3h13.4l-0.6,4.1h-11.8l-0.9,0.9v21.8c0,5,1.5,7.7,6,7.7c3.9,0,7.7-1.8,7.7-1.8l1.1,1.6
		c0,0-4.9,5.3-12.4,5.3c-6.1,0-9.5-3.4-9.5-11.2V492.5z"/>
	<path id="XMLID_963_" d="M773.2,481.5c7.4,0,14.7,4.8,14.9,14.2c0,0-2.2,0.9-3.9,1.1l-21.4,3.1l-0.9,1c0.3,7.8,4.3,15.4,13.9,15.4
		c7,0,11.2-4.1,11.2-4.1l0.9,1.8c0,0-4.5,8.1-14.7,8.1c-12.2,0-18.2-9.5-18.2-19.6C755.1,491,762.9,481.5,773.2,481.5z M762.2,496.9
		l18-2.3c0,0-0.7-9.8-8.2-9.8C766.2,484.8,762.9,490.5,762.2,496.9z"/>
	<path id="XMLID_966_" d="M795.8,509.9h2.6c0.5,7.3,5.6,9.4,9.7,9.4c4.2,0,7.1-2.2,7.1-5.8c0-9.2-19.7-8.6-19.7-21
		c0-6.4,4.9-10.9,14-10.9c5.1,0,10.7,1.5,10.7,1.5l-1.7,8.8h-2.7c0-7-5.9-7.5-7.7-7.5c-4.6,0-6.4,2.8-6.4,5.5
		c0,9.1,19.6,7.5,19.6,21c0,7.1-5.6,11.2-13.7,11.2c-3.9,0-12.9-0.9-12.9-5.8C794.7,514.7,795.8,509.9,795.8,509.9z"/>
	<path id="XMLID_968_" d="M832,492.5c0-2.5,0.3-5.6,0.3-5.6h-5.7v-2.6c0,0,3.8-0.8,5.8-2.7l3.2-9.4l3.9,0.1l0.3,0.3
		c0,0-0.8,2.5-0.8,8.6v1.3h13.4l-0.6,4.1h-11.8l-0.9,0.9v21.8c0,5,1.5,7.7,6,7.7c3.9,0,7.7-1.8,7.7-1.8l1.1,1.6
		c0,0-4.9,5.3-12.4,5.3c-6.1,0-9.5-3.4-9.5-11.2V492.5z"/>
	<path id="XMLID_970_" d="M895.1,499.7l2.9-0.4c0.1-1.8,0.1-6.8-0.3-9.2c-0.6-3.2-2.2-5.5-5.4-5.5c-5.8,0-9.1,8.2-9.1,8.2h-2.7
		l-1.5-6.4c0,0,6.3-4.8,15.9-4.8c8.1,0,10.2,3.3,10.2,12.3v19.7c0,2.7,0.3,4,2.3,4c2.3,0,4.7-1.7,4.7-1.7l1.1,1.8c0,0-4,4.5-9.1,4.5
		c-3.3,0-5.8-1.9-5.8-6.1v-2.1c0,0-4.5,8.2-13.4,8.2c-5.7,0-8.9-4-8.9-8.7C876,505.3,886.2,501,895.1,499.7z M898,512.2v-10.1
		l-2.7,0.4c-4.9,0.8-11.8,3.3-11.8,9.5c0,3.4,2.2,5.3,4.8,5.3C891.7,517.3,895.8,514.1,898,512.2z"/>
	<path id="XMLID_973_" d="M926.9,508c-5.8-1.6-10.3-5.8-10.3-12.6c0-8.9,7.6-13.8,16.1-13.8c5,0,7,1.7,11.3,1.7h4.1
		c2.7,0,5.7-1.1,5.7-1.1l-0.8,5.6h-4.5c-1.9,0-3-0.3-3-0.3s3.5,3,3.5,8.4c0,8.1-7.7,12.9-16.3,12.9c-1.5,0-2.8-0.1-4.2-0.3
		c-0.6,0.7-2.1,2.4-2.1,3.6c0,2.3,5.2,2.9,11.8,4.3c7.2,1.5,14.9,3.9,14.9,10.8c0,8.4-11.2,14.4-21.8,14.4
		c-7.7,0-16.1-3.2-16.1-10.4c0-6.6,6.9-9.2,10.8-10.7c-4-1-7.1-2.6-7.1-5.5C918.8,511.3,923.8,509.6,926.9,508z M928,520.9
		c-2.1,1.4-6.1,4.5-6.1,9.3c0,5.3,5.1,8.2,10.8,8.2c6.3,0,13.2-3.4,13.2-8.7c0-4.4-5.1-6.1-10.7-7.3
		C932.8,521.8,930.3,521.4,928,520.9z M941.5,495.9c0-5.5-2.8-11.3-9-11.3c-6,0-8.4,5.2-8.4,10.6c0,5.3,2.5,10.6,8.8,10.6
		C939.1,505.8,941.5,500.9,941.5,495.9z"/>
	<path id="XMLID_977_" d="M957.8,519c3.9-0.4,5.3-2.5,5.3-5.6v-20.9c0-3.7-0.1-5.8-2.6-5.8h-3.9v-2.3c12.5-2.9,14.3-4,14.3-4
		l0.1,0.3c0,0-0.9,2.8-0.9,9.8v23c0,2.6-0.4,4.6-0.4,4.6l7.3,0.8l-0.3,2.1l-18.9,0.5V519z M961.2,468.2c0-2.5,2.1-4.6,4.6-4.6
		c2.5,0,4.6,2.1,4.6,4.6c0,2.5-2.1,4.6-4.6,4.6C963.4,472.8,961.2,470.6,961.2,468.2z"/>
	<path id="XMLID_980_" d="M985.8,492.5c0-2.5,0.3-5.6,0.3-5.6h-5.7v-2.6c0,0,3.8-0.8,5.8-2.7l3.2-9.4l3.9,0.1l0.3,0.3
		c0,0-0.8,2.5-0.8,8.6v1.3h13.4l-0.6,4.1h-11.8l-0.9,0.9v21.8c0,5,1.5,7.7,6,7.7c3.9,0,7.7-1.8,7.7-1.8l1.1,1.6
		c0,0-4.9,5.3-12.4,5.3c-6.1,0-9.5-3.4-9.5-11.2V492.5z"/>
	<path id="XMLID_1171_" d="M6.4,626.8v-42.6c0-3.7-0.1-5.8-2.6-5.8H0.3v-2.3c9.9-2.1,13.8-3.9,13.8-3.9l0.3,0.3c0,0-0.9,3.2-0.9,9.8
		V596c0,3.9-0.3,5.7-0.3,6.4c2.3-2.8,5.8-6.4,12.2-6.4c10.5,0,15.9,9.3,15.9,18.7c0,10.8-7.1,22-22.1,22c-4.6,0-10.1-1-13.1-1
		l-0.3-0.3C5.7,635.4,6.4,631.6,6.4,626.8z M19.7,633.4c8.3,0,14-6.4,14-16.2c0-8.2-3.9-16.2-11.7-16.2c-3.8,0-7.3,2-8.6,3.2v28.1
		C13.5,632.2,16.1,633.4,19.7,633.4z"/>
	<path id="XMLID_1174_" d="M65.8,596c7.4,0,14.7,4.8,14.9,14.2c0,0-2.2,0.9-3.9,1.1l-21.4,3.1l-0.9,1c0.3,7.8,4.3,15.4,13.9,15.4
		c7,0,11.2-4.1,11.2-4.1l0.9,1.8c0,0-4.5,8.1-14.7,8.1c-12.2,0-18.2-9.5-18.2-19.6C47.7,605.4,55.4,596,65.8,596z M54.8,611.4
		l18-2.3c0,0-0.7-9.8-8.2-9.8C58.8,599.3,55.5,604.9,54.8,611.4z"/>
	<path id="XMLID_1177_" d="M91.4,607c0-2.5,0.3-5.6,0.3-5.6H86v-2.6c0,0,3.8-0.8,5.8-2.7l3.2-9.4l3.9,0.1l0.3,0.3
		c0,0-0.8,2.5-0.8,8.6v1.3h13.4l-0.6,4.1H99.3l-0.9,0.9v21.8c0,5,1.5,7.7,6,7.7c3.9,0,7.7-1.8,7.7-1.8l1.1,1.6c0,0-4.9,5.3-12.4,5.3
		c-6.1,0-9.5-3.4-9.5-11.2V607z"/>
	<path id="XMLID_1179_" d="M118.6,604.1c-1.7-4.4-4.7-5-4.7-5V597h3.9c5.4,0,8.4-0.3,8.4-0.3l0.3,0.3c0,0-1.6,3.7-0.1,7.9l6.7,18.1
		l1.4,4.6l8-19c0.4-1.1,0.9-2.6,0.5-3.9l-0.2-0.6c-1.6-4.4-4.7-5-4.7-5V597h3.9c5.4,0,8.4-0.3,8.4-0.3l0.3,0.3c0,0-1.6,3.7-0.1,7.9
		l6.6,17.8c0.5,1.5,1,3.3,1.5,4.9l9.4-22.2c1.5-3.4-1-5.4-4.3-6.2V597h11.5l0.4,1.4c0,0-1.5,0.7-3.1,4.5l-14.4,33.8l-3.2-1.1
		l-9.9-25.2l-11.2,26.3l-3.2-1.1L118.6,604.1z"/>
	<path id="XMLID_1181_" fill="#FF1D25" d="M197.8,596c7.4,0,14.7,4.8,14.9,14.2c0,0-2.2,0.9-3.9,1.1l-21.4,3.1l-0.9,1
		c0.3,7.8,4.3,15.4,13.9,15.4c7,0,11.2-4.1,11.2-4.1l0.9,1.8c0,0-4.5,8.1-14.7,8.1c-12.2,0-18.2-9.5-18.2-19.6
		C179.6,605.4,187.4,596,197.8,596z M186.7,611.4l18-2.3c0,0-0.7-9.8-8.2-9.8C190.7,599.3,187.5,604.9,186.7,611.4z"/>
	<path id="XMLID_1184_" d="M237.2,596c7.4,0,14.7,4.8,14.9,14.2c0,0-2.2,0.9-3.9,1.1l-21.4,3.1l-0.9,1c0.3,7.8,4.3,15.4,13.9,15.4
		c7,0,11.2-4.1,11.2-4.1l0.9,1.8c0,0-4.5,8.1-14.7,8.1c-12.2,0-18.2-9.5-18.2-19.6C219.1,605.4,226.9,596,237.2,596z M226.2,611.4
		l18-2.3c0,0-0.7-9.8-8.2-9.8C230.2,599.3,226.9,604.9,226.2,611.4z"/>
	<path id="XMLID_1187_" d="M258.6,633.4c3.9-0.4,5.3-2.5,5.3-5.6V607c0-3.7-0.1-5.8-2.6-5.8h-3.9v-2.3c8.4-1.7,13.7-4,13.7-4
		l0.3,0.3c0,0-0.8,2.8-0.9,10.5c3.1-4.6,9.1-9.5,16.3-9.5c5.9,0,9.8,3.3,9.8,11.6v20.3c0,2.6-0.4,4.5-0.4,4.5l7.3,0.9l-0.3,2.1
		l-18.5,0.5v-2.5c3.9-0.4,4.9-2.5,4.9-5.6v-18.4c0-6.5-2.5-8.2-5.9-8.2c-3.9,0-9.2,2.3-12.8,6v20.6c0,2.6-0.4,4.5-0.4,4.5l6.9,0.9
		l-0.3,2.1l-18.5,0.5V633.4z"/>
	<path id="XMLID_1189_" d="M331.2,607c0-2.5,0.3-5.6,0.3-5.6h-5.7v-2.6c0,0,3.8-0.8,5.8-2.7l3.2-9.4l3.9,0.1l0.3,0.3
		c0,0-0.8,2.5-0.8,8.6v1.3h13.4l-0.6,4.1h-11.8l-0.9,0.9v21.8c0,5,1.5,7.7,6,7.7c3.9,0,7.7-1.8,7.7-1.8l1.1,1.6
		c0,0-4.9,5.3-12.4,5.3c-6.1,0-9.5-3.4-9.5-11.2V607z"/>
	<path id="XMLID_1191_" d="M355.9,633.4c3.9-0.4,5.3-2.5,5.3-5.6v-43.6c0-3.7-0.1-5.8-2.6-5.8h-3.6v-2.3c9.9-2.1,13.8-3.9,13.8-3.9
		l0.3,0.3c0,0-0.9,3.2-0.9,9.8v16.7c0,3.9-0.3,5.7-0.3,6.4c3.1-4.5,9.1-9.3,16.3-9.3c5.9,0,9.8,3.3,9.8,11.6v20.3
		c0,2.6-0.4,4.6-0.4,4.6l7.3,0.8l-0.3,2.1l-18.5,0.5v-2.5c3.5-0.4,4.9-2.5,4.9-5.6v-18.4c0-6.5-2.5-8.2-5.9-8.2
		c-3.9,0-9.2,2.4-12.8,5.8v20.8c0,2.6-0.4,4.6-0.4,4.6l6.9,0.8l-0.3,2.1l-18.5,0.5V633.4z"/>
	<path id="XMLID_1193_" fill="#FF1D25" d="M423.1,596c7.4,0,14.7,4.8,14.9,14.2c0,0-2.2,0.9-3.9,1.1l-21.4,3.1l-0.9,1
		c0.3,7.8,4.3,15.4,13.9,15.4c7,0,11.2-4.1,11.2-4.1l0.9,1.8c0,0-4.5,8.1-14.7,8.1c-12.2,0-18.2-9.5-18.2-19.6
		C405,605.4,412.8,596,423.1,596z M412.1,611.4l18-2.3c0,0-0.7-9.8-8.2-9.8C416.1,599.3,412.8,604.9,412.1,611.4z"/>
	<path id="XMLID_1196_" d="M467.1,626.8v-42.6c0-3.7-0.1-5.8-2.6-5.8h-3.6v-2.3c9.9-2.1,13.8-3.9,13.8-3.9l0.3,0.3
		c0,0-0.9,3.2-0.9,9.8V596c0,3.9-0.3,5.7-0.3,6.4c2.3-2.8,5.8-6.4,12.2-6.4c10.5,0,15.9,9.3,15.9,18.7c0,10.8-7.1,22-22.1,22
		c-4.6,0-10.1-1-13.1-1l-0.3-0.3C466.3,635.4,467.1,631.6,467.1,626.8z M480.4,633.4c8.3,0,14-6.4,14-16.2c0-8.2-3.9-16.2-11.7-16.2
		c-3.8,0-7.3,2-8.6,3.2v28.1C474.1,632.2,476.8,633.4,480.4,633.4z"/>
	<path id="XMLID_1199_" d="M508.4,633.4c3.9-0.4,5.3-2.5,5.3-5.6V607c0-3.7-0.1-5.8-2.6-5.8h-3.9v-2.3c8.4-1.7,13.9-4,13.9-4
		l0.3,0.3c0,0-0.8,2.8-1,10.9c2.6-4.8,7.1-10,11.6-10c2.1,0,4.6,1,4.6,3.9c0,2.6-1.8,4.2-4,4.2c-2,0-2.2-1.5-4.2-1.5
		c-2.9,0-5.8,2.8-7.6,5v20.2c0,2.6-0.4,4.6-0.4,4.6l8.2,0.8l-0.3,2.1l-19.7,0.5V633.4z"/>
	<path id="XMLID_1201_" d="M558.8,614.1l2.9-0.4c0.1-1.8,0.1-6.8-0.3-9.2c-0.6-3.2-2.2-5.5-5.4-5.5c-5.8,0-9.1,8.2-9.1,8.2h-2.7
		l-1.5-6.4c0,0,6.3-4.8,15.9-4.8c8.1,0,10.2,3.3,10.2,12.3V628c0,2.7,0.3,4,2.3,4c2.3,0,4.7-1.7,4.7-1.7l1.1,1.8c0,0-4,4.5-9.1,4.5
		c-3.3,0-5.8-1.9-5.8-6.1v-2.1c0,0-4.5,8.2-13.4,8.2c-5.7,0-8.9-4-8.9-8.7C539.7,619.8,549.9,615.5,558.8,614.1z M561.8,626.6v-10.1
		l-2.7,0.4c-4.9,0.8-11.8,3.3-11.8,9.5c0,3.4,2.2,5.3,4.8,5.3C555.4,631.8,559.5,628.5,561.8,626.6z"/>
	<path id="XMLID_1204_" d="M580,633.4c3.9-0.4,5.3-2.5,5.3-5.6V607c0-3.7-0.1-5.8-2.6-5.8h-3.9v-2.3c8.4-1.7,13.7-4,13.7-4l0.3,0.3
		c0,0-0.8,2.8-0.9,10.5c3.1-4.6,9.1-9.5,16.3-9.5c5.9,0,9.8,3.3,9.8,11.6v20.3c0,2.6-0.4,4.5-0.4,4.5l7.3,0.9l-0.3,2.1l-18.5,0.5
		v-2.5c3.9-0.4,4.9-2.5,4.9-5.6v-18.4c0-6.5-2.5-8.2-5.9-8.2c-3.9,0-9.2,2.3-12.8,6v20.6c0,2.6-0.4,4.5-0.4,4.5l6.9,0.9l-0.3,2.1
		l-18.5,0.5V633.4z"/>
	<path id="XMLID_1206_" d="M647.5,596c5.2,0,13.6,2.1,13.6,6.5c0,1.6-1.2,3.1-3.3,3.1c-4.4,0-4.9-6.7-10.9-6.7
		c-6.9,0-10.7,7.4-10.7,15.7c0,8.2,4,16.3,14.2,16.3c6.4,0,10-3.5,10-3.5l0.9,1.8c0,0-3.9,7.5-13.9,7.5c-12,0-18.2-9.7-18.2-19.6
		C629.1,606.7,635.7,596,647.5,596z"/>
	<path id="XMLID_1208_" d="M666.1,633.4c3.9-0.4,5.3-2.5,5.3-5.6v-43.6c0-3.7-0.1-5.8-2.6-5.8h-3.6v-2.3c9.9-2.1,13.8-3.9,13.8-3.9
		l0.3,0.3c0,0-0.9,3.2-0.9,9.8v16.7c0,3.9-0.3,5.7-0.3,6.4c3.1-4.5,9.1-9.3,16.3-9.3c5.9,0,9.8,3.3,9.8,11.6v20.3
		c0,2.6-0.4,4.6-0.4,4.6l7.3,0.8l-0.3,2.1l-18.5,0.5v-2.5c3.5-0.4,4.9-2.5,4.9-5.6v-18.4c0-6.5-2.5-8.2-5.9-8.2
		c-3.9,0-9.2,2.4-12.8,5.8v20.8c0,2.6-0.4,4.6-0.4,4.6l6.9,0.8l-0.3,2.1l-18.5,0.5V633.4z"/>
	<path id="XMLID_1210_" d="M733.3,596c7.4,0,14.7,4.8,14.9,14.2c0,0-2.2,0.9-3.9,1.1l-21.4,3.1l-0.9,1c0.3,7.8,4.3,15.4,13.9,15.4
		c7,0,11.2-4.1,11.2-4.1l0.9,1.8c0,0-4.5,8.1-14.7,8.1c-12.2,0-18.2-9.5-18.2-19.6C715.2,605.4,723,596,733.3,596z M722.3,611.4
		l18-2.3c0,0-0.7-9.8-8.2-9.8C726.3,599.3,723,604.9,722.3,611.4z"/>
	<path id="XMLID_1213_" d="M755.9,624.3h2.6c0.5,7.3,5.6,9.4,9.7,9.4c4.2,0,7.1-2.2,7.1-5.8c0-9.2-19.7-8.6-19.7-21
		c0-6.4,4.9-10.9,14-10.9c5.1,0,10.7,1.5,10.7,1.5l-1.7,8.8H776c0-7-5.9-7.5-7.7-7.5c-4.6,0-6.4,2.8-6.4,5.5c0,9.1,19.6,7.5,19.6,21
		c0,7.1-5.6,11.2-13.7,11.2c-3.9,0-12.9-0.9-12.9-5.8C754.8,629.1,755.9,624.3,755.9,624.3z"/>
	<path id="XMLID_1215_" d="M789.3,628.9l6.6-3.5c2.6,2.7,3.9,6,3.9,9.6c0,7.2-3.9,11.3-8.7,15.3l-2.1-2.2c3-2.6,5.9-5.4,5.9-9.1
		c0-2.7-1.8-4.9-5.6-7V628.9z"/>
	<path id="XMLID_1217_" d="M845.3,614.1l2.9-0.4c0.1-1.8,0.1-6.8-0.3-9.2c-0.6-3.2-2.2-5.5-5.4-5.5c-5.8,0-9.1,8.2-9.1,8.2h-2.7
		l-1.5-6.4c0,0,6.3-4.8,15.9-4.8c8.1,0,10.2,3.3,10.2,12.3V628c0,2.7,0.3,4,2.3,4c2.3,0,4.7-1.7,4.7-1.7l1.1,1.8c0,0-4,4.5-9.1,4.5
		c-3.3,0-5.8-1.9-5.8-6.1v-2.1c0,0-4.5,8.2-13.4,8.2c-5.7,0-8.9-4-8.9-8.7C826.1,619.8,836.3,615.5,845.3,614.1z M848.2,626.6v-10.1
		l-2.7,0.4c-4.9,0.8-11.8,3.3-11.8,9.5c0,3.4,2.2,5.3,4.8,5.3C841.8,631.8,845.9,628.5,848.2,626.6z"/>
	<path id="XMLID_1220_" d="M867.7,624.3h2.6c0.5,7.3,5.6,9.4,9.7,9.4c4.2,0,7.1-2.2,7.1-5.8c0-9.2-19.7-8.6-19.7-21
		c0-6.4,4.9-10.9,14-10.9c5.1,0,10.7,1.5,10.7,1.5l-1.7,8.8h-2.7c0-7-5.9-7.5-7.7-7.5c-4.6,0-6.4,2.8-6.4,5.5
		c0,9.1,19.6,7.5,19.6,21c0,7.1-5.6,11.2-13.7,11.2c-3.9,0-12.9-0.9-12.9-5.8C866.5,629.1,867.7,624.3,867.7,624.3z"/>
	<path id="XMLID_1222_" d="M922.2,626.8v-42.6c0-3.7-0.1-5.8-2.6-5.8H916v-2.3c9.9-2.1,13.8-3.9,13.8-3.9l0.3,0.3
		c0,0-0.9,3.2-0.9,9.8V596c0,3.9-0.3,5.7-0.3,6.4c2.3-2.8,5.8-6.4,12.2-6.4c10.5,0,15.9,9.3,15.9,18.7c0,10.8-7.1,22-22.1,22
		c-4.6,0-10.1-1-13.1-1l-0.3-0.3C921.4,635.4,922.2,631.6,922.2,626.8z M935.5,633.4c8.3,0,14-6.4,14-16.2c0-8.2-3.9-16.2-11.7-16.2
		c-3.8,0-7.3,2-8.6,3.2v28.1C929.2,632.2,931.9,633.4,935.5,633.4z"/>
	<path id="XMLID_1225_" d="M963.4,633.4c3.9-0.4,5.3-2.5,5.3-5.6V607c0-3.7-0.1-5.8-2.6-5.8h-3.9v-2.3c12.5-2.9,14.3-4,14.3-4
		l0.1,0.3c0,0-0.9,2.8-0.9,9.8v23c0,2.6-0.4,4.6-0.4,4.6l7.3,0.8l-0.3,2.1l-18.9,0.5V633.4z M966.9,582.6c0-2.5,2.1-4.6,4.6-4.6
		c2.5,0,4.6,2.1,4.6,4.6c0,2.5-2.1,4.6-4.6,4.6C969,587.2,966.9,585.1,966.9,582.6z"/>
	<path id="XMLID_1228_" d="M987.2,633.4c3.9-0.4,5.3-2.5,5.3-5.6V607c0-3.7-0.1-5.8-2.6-5.8h-3.9v-2.3c8.4-1.7,13.9-4,13.9-4
		l0.3,0.3c0,0-0.8,2.8-1,10.9c2.6-4.8,7.1-10,11.6-10c2.1,0,4.6,1,4.6,3.9c0,2.6-1.8,4.2-4,4.2c-2,0-2.2-1.5-4.2-1.5
		c-2.9,0-5.8,2.8-7.6,5v20.2c0,2.6-0.4,4.6-0.4,4.6l8.2,0.8l-0.3,2.1l-19.7,0.5V633.4z"/>
	<path id="XMLID_1398_" d="M7.4,721.4c0-2.5,0.3-5.6,0.3-5.6H2v-2.6c0,0,3.8-0.8,5.8-2.7l3.2-9.4l3.9,0.1l0.3,0.3
		c0,0-0.8,2.5-0.8,8.6v1.3h13.4l-0.6,4.1H15.3l-0.9,0.9v21.8c0,5,1.5,7.7,6,7.7c3.9,0,7.7-1.8,7.7-1.8l1.1,1.6c0,0-4.9,5.3-12.4,5.3
		c-6.1,0-9.5-3.4-9.5-11.2V721.4z"/>
	<path id="XMLID_1400_" d="M32.1,747.9c3.9-0.4,5.3-2.5,5.3-5.6v-43.6c0-3.7-0.1-5.8-2.6-5.8h-3.6v-2.3c9.9-2.1,13.8-3.9,13.8-3.9
		l0.3,0.3c0,0-0.9,3.2-0.9,9.8v16.7c0,3.9-0.3,5.7-0.3,6.4c3.1-4.5,9.1-9.3,16.3-9.3c5.9,0,9.8,3.3,9.8,11.6v20.3
		c0,2.6-0.4,4.6-0.4,4.6l7.3,0.8l-0.3,2.1l-18.5,0.5v-2.5c3.5-0.4,4.9-2.5,4.9-5.6v-18.4c0-6.5-2.5-8.2-5.9-8.2
		c-3.9,0-9.2,2.4-12.8,5.8v20.8c0,2.6-0.4,4.6-0.4,4.6l6.9,0.8l-0.3,2.1l-18.5,0.5V747.9z"/>
	<path id="XMLID_1402_" fill="#FF1D25" d="M99.3,710.4c7.4,0,14.7,4.8,14.9,14.2c0,0-2.2,0.9-3.9,1.1l-21.4,3.1l-0.9,1
		c0.3,7.8,4.3,15.4,13.9,15.4c7,0,11.2-4.1,11.2-4.1l0.9,1.8c0,0-4.5,8.1-14.7,8.1c-12.2,0-18.2-9.5-18.2-19.6
		C81.2,719.9,88.9,710.4,99.3,710.4z M88.2,725.8l18-2.3c0,0-0.7-9.8-8.2-9.8C92.3,713.7,89,719.4,88.2,725.8z"/>
	<path id="XMLID_1405_" d="M142.5,734.6h2.9c0,10.5,6.6,13.2,12.4,13.2c5.6,0,10.9-2.4,10.9-9c0-14.9-26.9-14.7-26.9-32.1
		c0-8.5,6.4-14.9,19.1-14.9c6.1,0,12.3,1.4,14.2,1.6l-2.7,13.4h-2.9c0.9-6.4-2.4-11.8-9.6-11.8c-5.8,0-10.6,2.7-10.6,8.9
		c0,15,26.9,13.6,26.9,32c0,10.3-8.8,15.1-19.1,15.1c-7.5,0-16.6-2.6-16.6-8.8C140.5,741,140.8,739.8,142.5,734.6z"/>
	<path id="XMLID_1407_" d="M201.5,710.4c7.4,0,14.7,4.8,14.9,14.2c0,0-2.2,0.9-3.9,1.1l-21.4,3.1l-0.9,1c0.3,7.8,4.3,15.4,13.9,15.4
		c7,0,11.2-4.1,11.2-4.1l0.9,1.8c0,0-4.5,8.1-14.7,8.1c-12.2,0-18.2-9.5-18.2-19.6C183.4,719.9,191.1,710.4,201.5,710.4z
		 M190.5,725.8l18-2.3c0,0-0.7-9.8-8.2-9.8C194.5,713.7,191.2,719.4,190.5,725.8z"/>
	<path id="XMLID_1410_" fill="#FF1D25" d="M241.2,728.5l2.9-0.4c0.1-1.8,0.1-6.8-0.3-9.2c-0.6-3.2-2.2-5.5-5.4-5.5
		c-5.8,0-9.1,8.2-9.1,8.2h-2.7l-1.5-6.4c0,0,6.3-4.8,15.9-4.8c8.1,0,10.2,3.3,10.2,12.3v19.7c0,2.7,0.3,4,2.3,4
		c2.3,0,4.7-1.7,4.7-1.7l1.1,1.8c0,0-4,4.5-9.1,4.5c-3.3,0-5.8-1.9-5.8-6.1V743c0,0-4.5,8.2-13.4,8.2c-5.7,0-8.9-4-8.9-8.7
		C222,734.2,232.3,729.9,241.2,728.5z M244.1,741.1v-10.1l-2.7,0.4c-4.9,0.8-11.8,3.3-11.8,9.5c0,3.4,2.2,5.3,4.8,5.3
		C237.8,746.2,241.9,743,244.1,741.1z"/>
	<path id="XMLID_1413_" d="M283,747.6c3.8-0.4,6.2-2.4,6.2-5.3v-41c0-4.1,0-5-6.4-6.3v-2.1h6.7c7.7,0,9.6-0.3,9.6-0.3l0.4,0.3
		c0,0-2.8,3.3-2.8,10.4v15.1h1.6c0,0,1.5-0.9,2.9-2.3l16.7-16.7c1.6-1.6,1.7-3.9-2.4-4.4v-2.1h16.1l0.4,1.2c0,0-4.6,1-11.1,7.5
		l-16.2,16.1v0.9l20.8,23.9c3.9,4.5,4.5,4.6,7.3,4.9l0.9,0.1l-0.3,2.7h-12.6l-0.3-0.3c0,0-0.9-2.6-6.4-9.1l-16.1-18.6h-1.4v20.2
		c0,2.5-0.4,4.4-0.4,4.4l7.7,0.8l-0.3,2.4l-20.7,0.5V747.6z"/>
	<path id="XMLID_1415_" d="M336.9,747.9c3.9-0.4,5.3-2.5,5.3-5.6v-20.9c0-3.7-0.1-5.8-2.6-5.8h-3.9v-2.3c12.5-2.9,14.3-4,14.3-4
		l0.1,0.3c0,0-0.9,2.8-0.9,9.8v23c0,2.6-0.4,4.6-0.4,4.6l7.3,0.8l-0.3,2.1l-18.9,0.5V747.9z M340.3,697c0-2.5,2.1-4.6,4.6-4.6
		c2.5,0,4.6,2.1,4.6,4.6c0,2.5-2.1,4.6-4.6,4.6C342.5,701.7,340.3,699.5,340.3,697z"/>
	<path id="XMLID_1418_" d="M360.7,747.9c3.9-0.4,5.3-2.5,5.3-5.6v-20.9c0-3.7-0.1-5.8-2.6-5.8h-3.9v-2.3c8.4-1.7,13.7-4,13.7-4
		l0.3,0.3c0,0-0.8,2.8-0.9,10.5c3.1-4.6,9.1-9.5,16.3-9.5c5.9,0,9.8,3.3,9.8,11.6v20.3c0,2.6-0.4,4.5-0.4,4.5l7.3,0.9l-0.3,2.1
		l-18.5,0.5v-2.5c3.9-0.4,4.9-2.5,4.9-5.6v-18.4c0-6.5-2.5-8.2-5.9-8.2c-3.9,0-9.2,2.3-12.8,6v20.6c0,2.6-0.4,4.5-0.4,4.5l6.9,0.9
		l-0.3,2.1l-18.5,0.5V747.9z"/>
	<path id="XMLID_1420_" d="M420.3,736.9c-5.8-1.6-10.3-5.8-10.3-12.6c0-8.9,7.6-13.8,16-13.8c5,0,7,1.7,11.3,1.7h4.1
		c2.7,0,5.7-1.1,5.7-1.1l-0.8,5.6h-4.5c-1.9,0-3-0.3-3-0.3s3.5,3,3.5,8.4c0,8.1-7.7,12.9-16.3,12.9c-1.5,0-2.8-0.1-4.2-0.3
		c-0.6,0.7-2.1,2.4-2.1,3.6c0,2.3,5.1,2.9,11.8,4.3c7.2,1.5,14.9,3.9,14.9,10.8c0,8.4-11.2,14.4-21.8,14.4
		c-7.7,0-16.1-3.2-16.1-10.4c0-6.6,6.9-9.2,10.8-10.7c-4-1-7.1-2.6-7.1-5.5C412.2,740.2,417.2,738.5,420.3,736.9z M421.4,749.7
		c-2.1,1.4-6.1,4.5-6.1,9.3c0,5.3,5.2,8.2,10.8,8.2c6.3,0,13.2-3.4,13.2-8.7c0-4.4-5.1-6.1-10.7-7.3
		C426.2,750.7,423.7,750.3,421.4,749.7z M434.9,724.8c0-5.5-2.8-11.3-9-11.3c-6,0-8.4,5.2-8.4,10.6c0,5.3,2.5,10.6,8.8,10.6
		C432.5,734.6,434.9,729.8,434.9,724.8z"/>
	<path id="XMLID_1424_" d="M458,740.8c2.8,0,5.2,2.3,5.2,5.1s-2.3,5.1-5.2,5.1c-2.8,0-5.1-2.3-5.1-5.1S455.2,740.8,458,740.8z"/>
	<path id="XMLID_1426_" d="M491.9,747.6c3.8-0.4,6.2-2.4,6.2-5.3v-41c0-4.1,0-5-6.4-6.3v-2.1h6.7c7.7,0,9.6-0.3,9.6-0.3l0.4,0.3
		c0,0-2.8,3.3-2.8,10.4v39.1c0,2.5-0.4,4.4-0.4,4.4l8.2,0.8l-0.3,2.4l-21.1,0.5V747.6z"/>
	<path id="XMLID_1428_" d="M522.1,721.4c0-2.5,0.3-5.6,0.3-5.6h-5.7v-2.6c0,0,3.8-0.8,5.8-2.7l3.2-9.4l3.9,0.1l0.3,0.3
		c0,0-0.8,2.5-0.8,8.6v1.3h13.4l-0.6,4.1H530l-0.9,0.9v21.8c0,5,1.5,7.7,6,7.7c3.9,0,7.7-1.8,7.7-1.8l1.1,1.6c0,0-4.9,5.3-12.4,5.3
		c-6.1,0-9.5-3.4-9.5-11.2V721.4z"/>
	<path id="XMLID_1430_" d="M548.9,738.8h2.6c0.5,7.3,5.6,9.4,9.7,9.4c4.2,0,7.1-2.2,7.1-5.8c0-9.2-19.7-8.6-19.7-21
		c0-6.4,4.9-10.9,14-10.9c5.1,0,10.7,1.5,10.7,1.5l-1.7,8.8H569c0-7-5.9-7.5-7.7-7.5c-4.6,0-6.4,2.8-6.4,5.5c0,9.1,19.6,7.5,19.6,21
		c0,7.1-5.6,11.2-13.7,11.2c-3.9,0-12.9-0.9-12.9-5.8C547.8,743.6,548.9,738.8,548.9,738.8z"/>
	<path id="XMLID_1432_" d="M601.8,718.6c-1.7-4.4-4.7-5-4.7-5v-2.1h3.9c5.4,0,8.4-0.3,8.4-0.3l0.3,0.3c0,0-1.6,3.7-0.1,7.9l6.7,18.1
		l1.4,4.6l8-19c0.4-1.1,0.9-2.6,0.5-3.9l-0.2-0.6c-1.6-4.4-4.7-5-4.7-5v-2.1h3.9c5.4,0,8.4-0.3,8.4-0.3l0.3,0.3c0,0-1.6,3.7-0.1,7.9
		l6.6,17.8c0.5,1.5,1,3.3,1.5,4.9l9.4-22.2c1.5-3.4-1-5.4-4.3-6.2v-2.1h11.5l0.4,1.4c0,0-1.5,0.7-3.1,4.5l-14.4,33.8l-3.2-1.1
		l-9.9-25.2l-11.2,26.4l-3.2-1.1L601.8,718.6z"/>
	<path id="XMLID_1434_" d="M681.1,728.5l2.9-0.4c0.1-1.8,0.1-6.8-0.3-9.2c-0.6-3.2-2.2-5.5-5.4-5.5c-5.8,0-9.1,8.2-9.1,8.2h-2.7
		l-1.5-6.4c0,0,6.3-4.8,15.9-4.8c8.1,0,10.2,3.3,10.2,12.3v19.7c0,2.7,0.3,4,2.3,4c2.3,0,4.7-1.7,4.7-1.7l1.1,1.8c0,0-4,4.5-9.1,4.5
		c-3.3,0-5.8-1.9-5.8-6.1V743c0,0-4.5,8.2-13.4,8.2c-5.7,0-8.9-4-8.9-8.7C661.9,734.2,672.1,729.9,681.1,728.5z M684,741.1v-10.1
		l-2.7,0.4c-4.9,0.8-11.8,3.3-11.8,9.5c0,3.4,2.2,5.3,4.8,5.3C677.6,746.2,681.8,743,684,741.1z"/>
	<path id="XMLID_1437_" fill="#FF1D25" d="M701.4,747.9c3.9-0.4,5.3-2.5,5.3-5.6v-43.6c0-3.7-0.1-5.8-2.6-5.8h-3.6v-2.3
		c9.9-2.1,13.8-3.9,13.8-3.9l0.3,0.3c0,0-0.9,3.2-0.9,9.8v45.6c0,2.6-0.4,4.6-0.4,4.6l7.3,0.8l-0.3,2.1l-18.9,0.5V747.9z"/>
	<path id="XMLID_1439_" d="M724.3,747.9c3.9-0.4,5.3-2.5,5.3-5.6v-43.6c0-3.7-0.1-5.8-2.6-5.8h-3.6v-2.3c9.9-2.1,13.8-3.9,13.8-3.9
		l0.3,0.3c0,0-0.9,3.2-0.9,9.8v45.6c0,2.6-0.4,4.6-0.4,4.6l7.3,0.8l-0.3,2.1l-18.9,0.5V747.9z"/>
	<path id="XMLID_1441_" d="M749.3,738.8h2.6c0.5,7.3,5.6,9.4,9.7,9.4c4.2,0,7.1-2.2,7.1-5.8c0-9.2-19.7-8.6-19.7-21
		c0-6.4,4.9-10.9,14-10.9c5.1,0,10.7,1.5,10.7,1.5l-1.7,8.8h-2.7c0-7-5.9-7.5-7.7-7.5c-4.6,0-6.4,2.8-6.4,5.5
		c0,9.1,19.6,7.5,19.6,21c0,7.1-5.6,11.2-13.7,11.2c-3.9,0-12.9-0.9-12.9-5.8C748.2,743.6,749.3,738.8,749.3,738.8z"/>
	<path id="XMLID_1443_" d="M818.8,728.5l2.9-0.4c0.1-1.8,0.1-6.8-0.3-9.2c-0.6-3.2-2.2-5.5-5.4-5.5c-5.8,0-9.1,8.2-9.1,8.2h-2.7
		l-1.5-6.4c0,0,6.3-4.8,15.9-4.8c8.1,0,10.2,3.3,10.2,12.3v19.7c0,2.7,0.3,4,2.3,4c2.3,0,4.7-1.7,4.7-1.7l1.1,1.8c0,0-4,4.5-9.1,4.5
		c-3.3,0-5.8-1.9-5.8-6.1V743c0,0-4.5,8.2-13.4,8.2c-5.7,0-8.9-4-8.9-8.7C799.7,734.2,809.9,729.9,818.8,728.5z M821.7,741.1v-10.1
		l-2.7,0.4c-4.9,0.8-11.8,3.3-11.8,9.5c0,3.4,2.2,5.3,4.8,5.3C815.4,746.2,819.5,743,821.7,741.1z"/>
	<path id="XMLID_1446_" d="M840,747.9c3.9-0.4,5.3-2.5,5.3-5.6v-20.9c0-3.7-0.1-5.8-2.6-5.8h-3.9v-2.3c8.4-1.7,13.9-4,13.9-4
		l0.3,0.3c0,0-0.8,2.8-1,10.9c2.6-4.8,7.1-10,11.6-10c2.1,0,4.6,1,4.6,3.9c0,2.6-1.8,4.2-4,4.2c-2,0-2.2-1.5-4.2-1.5
		c-2.9,0-5.8,2.8-7.6,5v20.2c0,2.6-0.4,4.6-0.4,4.6l8.2,0.8l-0.3,2.1l-19.7,0.5V747.9z"/>
	<path id="XMLID_1448_" fill="#FF1D25" d="M890,710.4c7.4,0,14.7,4.8,14.9,14.2c0,0-2.2,0.9-3.9,1.1l-21.4,3.1l-0.9,1
		c0.3,7.8,4.3,15.4,13.9,15.4c7,0,11.2-4.1,11.2-4.1l0.9,1.8c0,0-4.5,8.1-14.7,8.1c-12.2,0-18.2-9.5-18.2-19.6
		C871.9,719.9,879.6,710.4,890,710.4z M878.9,725.8l18-2.3c0,0-0.7-9.8-8.2-9.8C882.9,713.7,879.7,719.4,878.9,725.8z"/>
	<path id="XMLID_1451_" d="M933.9,741.2v-42.6c0-3.7-0.1-5.8-2.6-5.8h-3.6v-2.3c9.9-2.1,13.8-3.9,13.8-3.9l0.3,0.3
		c0,0-0.9,3.2-0.9,9.8v13.7c0,3.9-0.3,5.7-0.3,6.4c2.3-2.8,5.8-6.4,12.2-6.4c10.5,0,15.9,9.3,15.9,18.7c0,10.8-7.1,22-22.1,22
		c-4.6,0-10.1-1-13.1-1l-0.3-0.3C933.1,749.8,933.9,746.1,933.9,741.2z M947.2,747.9c8.3,0,14-6.4,14-16.2c0-8.2-3.9-16.2-11.7-16.2
		c-3.8,0-7.3,2-8.6,3.2v28.1C941,746.7,943.6,747.9,947.2,747.9z"/>
	<path id="XMLID_1454_" fill="#FF1D25" d="M979.3,721.4c0-3.7-0.1-5.8-2.6-5.8h-3v-2.4c8.3-1.5,13-3.2,13-3.2l0.3,0.3
		c0,0-0.8,2.4-0.8,9v18.4c0,6.5,2.3,8.2,5.8,8.2c3.9,0,8.8-2.3,12.4-6.1v-18.4c0-3.7-0.1-5.8-2.6-5.8h-2.8v-2.4
		c8.2-1.5,12.9-3.2,12.9-3.2l0.3,0.3c0,0-0.8,2.4-0.8,9v22.7c0,4.9,2,4.9,4.8,4.9h2.4l-0.3,2.3c-9.4,0.9-14.1,1.7-14.1,1.7l-0.3-0.3
		c0,0,0.8-2.5,0.8-4.6v-4.5c-3.1,4.5-8.8,9.6-16,9.6c-6,0-9.7-3.3-9.7-11.5V721.4z"/>
	<path id="XMLID_1634_" d="M23.3,824.9c12.5,0,19,8.2,19,18.8c0,10.6-6.6,21.9-20.3,21.9c-12.1,0-18.8-8.5-18.8-19.5
		C3.2,836,8.8,824.9,23.3,824.9z M23.2,862.6c7.3,0,11.2-7.4,11.2-16.6c0-8.5-3.4-18.3-12.1-18.3c-7.9,0-11.2,8.1-11.2,16.3
		C11.1,852.7,14.6,862.6,23.2,862.6z"/>
	<path id="XMLID_1637_" d="M48.8,862.3c3.9-0.4,5.3-2.5,5.3-5.6v-26.4h-5.4v-2.6l5.4-1.9v-2.3c0-12.8,6.4-21.5,17.5-21.5
		c4.1,0,9.2,1.5,9.2,5.1c0,1.6-1.3,3.3-3.6,3.3c-3.1,0-5-4.4-9.6-4.4c-4.4,0-6.4,4.1-6.4,15.2v4.7h12.1l-0.7,4.1H62l-0.9,0.9v25.8
		c0,2.6-0.4,4.6-0.4,4.6l9,0.8l-0.3,2.1l-20.6,0.5V862.3z"/>
	<path id="XMLID_1639_" d="M97.4,853.2h2.6c0.5,7.3,5.6,9.4,9.7,9.4c4.2,0,7.1-2.2,7.1-5.8c0-9.2-19.7-8.6-19.7-21
		c0-6.4,4.9-10.9,14-10.9c5.1,0,10.7,1.5,10.7,1.5l-1.7,8.8h-2.7c0-7-5.9-7.5-7.7-7.5c-4.6,0-6.4,2.8-6.4,5.5
		c0,9.1,19.6,7.5,19.6,21c0,7.1-5.6,11.2-13.7,11.2c-3.9,0-12.9-0.9-12.9-5.8C96.3,858,97.4,853.2,97.4,853.2z"/>
	<path id="XMLID_1641_" d="M128.5,862.3c3.9-0.4,5.3-2.5,5.3-5.6v-43.6c0-3.7-0.1-5.8-2.6-5.8h-3.6V805c9.9-2.1,13.8-3.9,13.8-3.9
		l0.3,0.3c0,0-0.9,3.2-0.9,9.8v16.7c0,3.9-0.3,5.7-0.3,6.4c3.1-4.5,9.1-9.3,16.3-9.3c5.9,0,9.8,3.3,9.8,11.6v20.3
		c0,2.6-0.4,4.6-0.4,4.6l7.3,0.8l-0.3,2.1l-18.5,0.5v-2.5c3.5-0.4,4.9-2.5,4.9-5.6v-18.4c0-6.5-2.5-8.2-5.9-8.2
		c-3.9,0-9.2,2.4-12.8,5.8v20.8c0,2.6-0.4,4.6-0.4,4.6l6.9,0.8l-0.3,2.1l-18.5,0.5V862.3z"/>
	<path id="XMLID_1643_" d="M195.7,824.9c7.4,0,14.7,4.8,14.9,14.2c0,0-2.2,0.9-3.9,1.1l-21.4,3.1l-0.9,1c0.3,7.8,4.3,15.4,13.9,15.4
		c7,0,11.2-4.1,11.2-4.1l0.9,1.8c0,0-4.5,8.1-14.7,8.1c-12.2,0-18.2-9.5-18.2-19.6C177.6,834.3,185.3,824.9,195.7,824.9z
		 M184.6,840.2l18-2.3c0,0-0.7-9.8-8.2-9.8C188.7,828.1,185.4,833.8,184.6,840.2z"/>
	<path id="XMLID_1646_" fill="#FF1D25" d="M216.2,862.3c3.9-0.4,5.3-2.5,5.3-5.6v-43.6c0-3.7-0.1-5.8-2.6-5.8h-3.6V805
		c9.9-2.1,13.8-3.9,13.8-3.9l0.3,0.3c0,0-0.9,3.2-0.9,9.8v45.6c0,2.6-0.4,4.6-0.4,4.6l7.3,0.8l-0.3,2.1l-18.9,0.5V862.3z"/>
	<path id="XMLID_1648_" d="M239.1,862.3c3.9-0.4,5.3-2.5,5.3-5.6v-43.6c0-3.7-0.1-5.8-2.6-5.8h-3.6V805c9.9-2.1,13.8-3.9,13.8-3.9
		l0.3,0.3c0,0-0.9,3.2-0.9,9.8v45.6c0,2.6-0.4,4.6-0.4,4.6l7.3,0.8l-0.3,2.1l-18.9,0.5V862.3z"/>
	<path id="XMLID_1650_" d="M264.1,853.2h2.6c0.5,7.3,5.6,9.4,9.7,9.4c4.2,0,7.1-2.2,7.1-5.8c0-9.2-19.7-8.6-19.7-21
		c0-6.4,4.9-10.9,14-10.9c5.1,0,10.7,1.5,10.7,1.5l-1.7,8.8h-2.7c0-7-5.9-7.5-7.7-7.5c-4.6,0-6.4,2.8-6.4,5.5
		c0,9.1,19.6,7.5,19.6,21c0,7.1-5.6,11.2-13.7,11.2c-3.9,0-12.9-0.9-12.9-5.8C263,858,264.1,853.2,264.1,853.2z"/>
	<path id="XMLID_1652_" d="M297.5,857.8l6.6-3.5c2.6,2.7,3.9,6,3.9,9.6c0,7.2-3.9,11.3-8.7,15.3l-2.1-2.2c3-2.6,5.9-5.4,5.9-9.1
		c0-2.7-1.8-4.9-5.6-7V857.8z"/>
	<path id="XMLID_1654_" d="M339.4,835.9c0-2.5,0.3-5.6,0.3-5.6H334v-2.6c0,0,3.8-0.8,5.8-2.7l3.2-9.4l3.9,0.1l0.3,0.3
		c0,0-0.8,2.5-0.8,8.6v1.3h13.4l-0.6,4.1h-11.8l-0.9,0.9v21.8c0,5,1.5,7.7,6,7.7c3.9,0,7.7-1.8,7.7-1.8l1.1,1.6
		c0,0-4.9,5.3-12.4,5.3c-6.1,0-9.5-3.4-9.5-11.2V835.9z"/>
	<path id="XMLID_1656_" d="M364.1,862.3c3.9-0.4,5.3-2.5,5.3-5.6v-43.6c0-3.7-0.1-5.8-2.6-5.8h-3.6V805c9.9-2.1,13.8-3.9,13.8-3.9
		l0.3,0.3c0,0-0.9,3.2-0.9,9.8v16.7c0,3.9-0.3,5.7-0.3,6.4c3.1-4.5,9.1-9.3,16.3-9.3c5.9,0,9.8,3.3,9.8,11.6v20.3
		c0,2.6-0.4,4.6-0.4,4.6l7.3,0.8l-0.3,2.1l-18.5,0.5v-2.5c3.5-0.4,4.9-2.5,4.9-5.6v-18.4c0-6.5-2.5-8.2-5.9-8.2
		c-3.9,0-9.2,2.4-12.8,5.8v20.8c0,2.6-0.4,4.6-0.4,4.6l6.9,0.8l-0.3,2.1l-18.5,0.5V862.3z"/>
	<path id="XMLID_1658_" d="M431.5,843l2.9-0.4c0.1-1.8,0.1-6.8-0.3-9.2c-0.6-3.2-2.2-5.5-5.4-5.5c-5.8,0-9.1,8.2-9.1,8.2h-2.7
		l-1.5-6.4c0,0,6.3-4.8,15.9-4.8c8.1,0,10.2,3.3,10.2,12.3v19.7c0,2.7,0.3,4,2.3,4c2.3,0,4.7-1.7,4.7-1.7l1.1,1.8c0,0-4,4.5-9.1,4.5
		c-3.3,0-5.8-1.9-5.8-6.1v-2.1c0,0-4.5,8.2-13.4,8.2c-5.7,0-8.9-4-8.9-8.7C412.3,848.7,422.5,844.4,431.5,843z M434.4,855.5v-10.1
		l-2.7,0.4c-4.9,0.8-11.8,3.3-11.8,9.5c0,3.4,2.2,5.3,4.8,5.3C428,860.7,432.2,857.4,434.4,855.5z"/>
	<path id="XMLID_1661_" d="M456.9,835.9c0-2.5,0.3-5.6,0.3-5.6h-5.7v-2.6c0,0,3.8-0.8,5.8-2.7l3.2-9.4l3.9,0.1l0.3,0.3
		c0,0-0.8,2.5-0.8,8.6v1.3h13.4l-0.6,4.1h-11.8l-0.9,0.9v21.8c0,5,1.5,7.7,6,7.7c3.9,0,7.7-1.8,7.7-1.8l1.1,1.6
		c0,0-4.9,5.3-12.4,5.3c-6.1,0-9.5-3.4-9.5-11.2V835.9z"/>
	<path id="XMLID_1663_" d="M521.9,824.9c12.5,0,19,8.2,19,18.8c0,10.6-6.6,21.9-20.3,21.9c-12.1,0-18.8-8.5-18.8-19.5
		C501.8,836,507.3,824.9,521.9,824.9z M521.8,862.6c7.3,0,11.2-7.4,11.2-16.6c0-8.5-3.4-18.3-12.1-18.3c-7.9,0-11.2,8.1-11.2,16.3
		C509.7,852.7,513.2,862.6,521.8,862.6z"/>
	<path id="XMLID_1666_" d="M547.4,883.1c3.9-2.1,4.5-4.1,4.5-8.1v-39.1c0-3.7-0.1-5.8-2.6-5.8h-3.4v-2.3c8.4-1.7,13.5-4,13.5-4
		l0.3,0.3c0,0-0.5,2.1-0.9,7.6c2.3-2.9,5.6-6.7,12.4-6.7c10.5,0,15.6,9.3,15.6,18.7c0,10.9-7,22-22.1,22c-2.3,0-4.1-0.3-5.8-0.5v9.9
		c0,2.6-0.4,4.9-0.4,4.9h9l-0.3,2.1c0,0-13.6,1.6-19.7,3.7V883.1z M579.3,846.1c0-8.2-3.6-16.2-11.2-16.2c-3.3,0-6.4,1.5-9.1,3.6
		v24.2c0,4,3.3,4.6,6.2,4.6C574,862.3,579.3,855.9,579.3,846.1z"/>
	<path id="XMLID_1669_" d="M611.4,824.9c7.4,0,14.7,4.8,14.9,14.2c0,0-2.2,0.9-3.9,1.1l-21.4,3.1l-0.9,1c0.3,7.8,4.3,15.4,13.9,15.4
		c7,0,11.2-4.1,11.2-4.1l0.9,1.8c0,0-4.5,8.1-14.7,8.1c-12.2,0-18.2-9.5-18.2-19.6C593.3,834.3,601,824.9,611.4,824.9z M600.3,840.2
		l18-2.3c0,0-0.7-9.8-8.2-9.8C604.3,828.1,601.1,833.8,600.3,840.2z"/>
	<path id="XMLID_1672_" d="M632.7,862.3c3.9-0.4,5.3-2.5,5.3-5.6v-20.9c0-3.7-0.1-5.8-2.6-5.8h-3.9v-2.3c8.4-1.7,13.7-4,13.7-4
		l0.3,0.3c0,0-0.8,2.8-0.9,10.5c3.1-4.6,9.1-9.5,16.3-9.5c5.9,0,9.8,3.3,9.8,11.6v20.3c0,2.6-0.4,4.5-0.4,4.5l7.3,0.9l-0.3,2.1
		l-18.5,0.5v-2.5c3.9-0.4,4.9-2.5,4.9-5.6v-18.4c0-6.5-2.5-8.2-5.9-8.2c-3.9,0-9.2,2.3-12.8,6v20.6c0,2.6-0.4,4.5-0.4,4.5l6.9,0.9
		l-0.3,2.1l-18.5,0.5V862.3z"/>
	<path id="XMLID_1674_" d="M719.4,843l2.9-0.4c0.1-1.8,0.1-6.8-0.3-9.2c-0.6-3.2-2.2-5.5-5.4-5.5c-5.8,0-9.1,8.2-9.1,8.2h-2.7
		l-1.5-6.4c0,0,6.3-4.8,15.9-4.8c8.1,0,10.2,3.3,10.2,12.3v19.7c0,2.7,0.3,4,2.3,4c2.3,0,4.7-1.7,4.7-1.7l1.1,1.8c0,0-4,4.5-9.1,4.5
		c-3.3,0-5.8-1.9-5.8-6.1v-2.1c0,0-4.5,8.2-13.4,8.2c-5.7,0-8.9-4-8.9-8.7C700.3,848.7,710.5,844.4,719.4,843z M722.3,855.5v-10.1
		l-2.7,0.4c-4.9,0.8-11.8,3.3-11.8,9.5c0,3.4,2.2,5.3,4.8,5.3C716,860.7,720.1,857.4,722.3,855.5z"/>
	<path id="XMLID_1677_" d="M740.6,862.3c3.9-0.4,5.3-2.5,5.3-5.6v-20.9c0-3.7-0.1-5.8-2.6-5.8h-3.9v-2.3c8.4-1.7,13.7-4,13.7-4
		l0.3,0.3c0,0-0.8,2.8-0.9,10.5c3.1-4.6,9.1-9.5,16.3-9.5c5.9,0,9.8,3.3,9.8,11.6v20.3c0,2.6-0.4,4.5-0.4,4.5l7.3,0.9l-0.3,2.1
		l-18.5,0.5v-2.5c3.9-0.4,4.9-2.5,4.9-5.6v-18.4c0-6.5-2.5-8.2-5.9-8.2c-3.9,0-9.2,2.3-12.8,6v20.6c0,2.6-0.4,4.5-0.4,4.5l6.9,0.9
		l-0.3,2.1l-18.5,0.5V862.3z"/>
	<path id="XMLID_1679_" d="M811.6,824.9c3.1,0,6.1,0.5,6.1,0.5v-12.3c0-3.7-0.1-5.8-2.6-5.8h-3.6V805c9.9-2.1,13.8-3.9,13.8-3.9
		l0.3,0.3c0,0-0.9,3.2-0.9,9.8v45.2c0,4.9,2,4.9,4.8,4.9h2.4l-0.3,2.3c-9.4,0.9-13.7,1.6-13.7,1.6l-0.3-0.3c0,0,0.3-2.4,0.3-4.5
		v-1.8c-2.3,3.4-5.8,7-12.3,7c-10.6,0-16.1-9.3-16.1-18.6C789.6,836.1,796.9,824.9,811.6,824.9z M817.7,856.8v-24.1
		c0-3.9-3.4-4.6-6.2-4.6c-8.8,0-14.4,6.3-14.4,16.2c0,8.2,3.9,16.2,11.7,16.2C813,860.6,816.3,858.2,817.7,856.8z"/>
	<path id="XMLID_1682_" d="M873.7,824.9c5.2,0,13.6,2.1,13.6,6.5c0,1.6-1.2,3.1-3.3,3.1c-4.4,0-4.9-6.7-10.9-6.7
		c-6.9,0-10.7,7.4-10.7,15.7c0,8.2,4,16.3,14.2,16.3c6.4,0,10-3.5,10-3.5l0.9,1.8c0,0-3.9,7.5-13.9,7.5c-12,0-18.2-9.7-18.2-19.6
		C855.3,835.6,861.8,824.9,873.7,824.9z"/>
	<path id="XMLID_1684_" d="M892.3,862.3c3.9-0.4,5.3-2.5,5.3-5.6v-43.6c0-3.7-0.1-5.8-2.6-5.8h-3.6V805c9.9-2.1,13.8-3.9,13.8-3.9
		l0.3,0.3c0,0-0.9,3.2-0.9,9.8v45.6c0,2.6-0.4,4.6-0.4,4.6l7.3,0.8l-0.3,2.1l-18.9,0.5V862.3z"/>
	<path id="XMLID_1686_" d="M936,824.9c12.5,0,19,8.2,19,18.8c0,10.6-6.6,21.9-20.3,21.9c-12.1,0-18.8-8.5-18.8-19.5
		C915.8,836,921.4,824.9,936,824.9z M935.8,862.6c7.3,0,11.2-7.4,11.2-16.6c0-8.5-3.4-18.3-12.1-18.3c-7.9,0-11.2,8.1-11.2,16.3
		C923.7,852.7,927.2,862.6,935.8,862.6z"/>
	<path id="XMLID_1689_" d="M962.7,853.2h2.6c0.5,7.3,5.6,9.4,9.7,9.4c4.2,0,7.1-2.2,7.1-5.8c0-9.2-19.7-8.6-19.7-21
		c0-6.4,4.9-10.9,14-10.9c5.1,0,10.7,1.5,10.7,1.5l-1.7,8.8h-2.7c0-7-5.9-7.5-7.7-7.5c-4.6,0-6.4,2.8-6.4,5.5
		c0,9.1,19.6,7.5,19.6,21c0,7.1-5.6,11.2-13.7,11.2c-3.9,0-12.9-0.9-12.9-5.8C961.6,858,962.7,853.2,962.7,853.2z"/>
	<path id="XMLID_1691_" fill="#FF1D25" d="M1012.7,824.9c7.4,0,14.7,4.8,14.9,14.2c0,0-2.2,0.9-3.9,1.1l-21.4,3.1l-0.9,1
		c0.3,7.8,4.3,15.4,13.9,15.4c7,0,11.2-4.1,11.2-4.1l0.9,1.8c0,0-4.5,8.1-14.7,8.1c-12.2,0-18.2-9.5-18.2-19.6
		C994.6,834.3,1002.3,824.9,1012.7,824.9z M1001.6,840.2l18-2.3c0,0-0.7-9.8-8.2-9.8C1005.7,828.1,1002.4,833.8,1001.6,840.2z"/>
	<path id="XMLID_1860_" d="M13.7,965.8C8,964.1,3.4,960,3.4,953.1c0-8.9,7.6-13.8,16.1-13.8c5,0,7,1.7,11.3,1.7h4.1
		c2.7,0,5.7-1.1,5.7-1.1l-0.8,5.6h-4.5c-1.9,0-3-0.3-3-0.3s3.5,3,3.5,8.4c0,8.1-7.7,12.9-16.3,12.9c-1.5,0-2.8-0.1-4.2-0.3
		c-0.6,0.7-2.1,2.4-2.1,3.6c0,2.3,5.1,2.9,11.8,4.3c7.2,1.5,14.9,3.9,14.9,10.8c0,8.4-11.2,14.4-21.8,14.4
		c-7.7,0-16.1-3.2-16.1-10.4c0-6.6,6.9-9.2,10.8-10.7c-4-1-7.1-2.6-7.1-5.5C5.7,969.1,10.6,967.4,13.7,965.8z M14.8,978.6
		c-2.1,1.4-6.1,4.5-6.1,9.3c0,5.3,5.2,8.2,10.8,8.2c6.3,0,13.2-3.4,13.2-8.7c0-4.4-5.1-6.1-10.7-7.3
		C19.7,979.6,17.2,979.1,14.8,978.6z M28.3,953.7c0-5.5-2.8-11.3-9-11.3c-6,0-8.4,5.2-8.4,10.6c0,5.3,2.5,10.6,8.8,10.6
		C25.9,963.5,28.3,958.7,28.3,953.7z"/>
	<path id="XMLID_1864_" d="M43.8,976.7c3.9-0.4,5.3-2.5,5.3-5.6v-43.6c0-3.7-0.1-5.8-2.6-5.8h-3.6v-2.3c9.9-2.1,13.8-3.9,13.8-3.9
		l0.3,0.3c0,0-0.9,3.2-0.9,9.8v45.6c0,2.6-0.4,4.6-0.4,4.6l7.3,0.8l-0.3,2.1l-18.9,0.5V976.7z"/>
	<path id="XMLID_1866_" d="M67.5,976.7c3.9-0.4,5.3-2.5,5.3-5.6v-20.9c0-3.7-0.1-5.8-2.6-5.8h-3.9v-2.3c12.5-2.9,14.3-4,14.3-4
		l0.1,0.3c0,0-0.9,2.8-0.9,9.8v23c0,2.6-0.4,4.6-0.4,4.6l7.3,0.8l-0.3,2.1l-18.9,0.5V976.7z M71,925.9c0-2.5,2.1-4.6,4.6-4.6
		c2.5,0,4.6,2.1,4.6,4.6c0,2.5-2.1,4.6-4.6,4.6C73.1,930.6,71,928.4,71,925.9z"/>
	<path id="XMLID_1869_" fill="#FF1D25" d="M95.5,950.3c0-2.5,0.3-5.6,0.3-5.6h-5.7v-2.6c0,0,3.8-0.8,5.8-2.7l3.2-9.4l3.9,0.1
		l0.3,0.3c0,0-0.8,2.5-0.8,8.6v1.3h13.4l-0.6,4.1h-11.8l-0.9,0.9v21.8c0,5,1.5,7.7,6,7.7c3.9,0,7.7-1.8,7.7-1.8l1.1,1.6
		c0,0-4.9,5.3-12.4,5.3c-6.1,0-9.5-3.4-9.5-11.2V950.3z"/>
	<path id="XMLID_1871_" d="M125.3,950.3c0-2.5,0.3-5.6,0.3-5.6h-5.7v-2.6c0,0,3.8-0.8,5.8-2.7l3.2-9.4l3.9,0.1l0.3,0.3
		c0,0-0.8,2.5-0.8,8.6v1.3h13.4l-0.6,4.1h-11.8l-0.9,0.9v21.8c0,5,1.5,7.7,6,7.7c3.9,0,7.7-1.8,7.7-1.8l1.1,1.6
		c0,0-4.9,5.3-12.4,5.3c-6.1,0-9.5-3.4-9.5-11.2V950.3z"/>
	<path id="XMLID_1873_" d="M169,939.3c7.4,0,14.7,4.8,14.9,14.2c0,0-2.2,0.9-3.9,1.1l-21.4,3.1l-0.9,1c0.3,7.8,4.3,15.4,13.9,15.4
		c7,0,11.2-4.1,11.2-4.1l0.9,1.8c0,0-4.5,8.1-14.7,8.1c-12.2,0-18.2-9.5-18.2-19.6C150.9,948.8,158.6,939.3,169,939.3z M157.9,954.7
		l18-2.3c0,0-0.7-9.8-8.2-9.8C162,942.6,158.7,948.2,157.9,954.7z"/>
	<path id="XMLID_1876_" d="M190.4,976.7c3.9-0.4,5.3-2.5,5.3-5.6v-20.9c0-3.7-0.1-5.8-2.6-5.8h-3.9v-2.3c8.4-1.7,13.9-4,13.9-4
		l0.3,0.3c0,0-0.8,2.8-1,10.9c2.6-4.8,7.1-10,11.6-10c2.1,0,4.6,1,4.6,3.9c0,2.6-1.8,4.2-4,4.2c-2,0-2.2-1.5-4.2-1.5
		c-2.9,0-5.8,2.8-7.6,5v20.2c0,2.6-0.4,4.6-0.4,4.6l8.2,0.8l-0.3,2.1l-19.7,0.5V976.7z"/>
	<path id="XMLID_1878_" d="M222.6,976.7c3.9-0.4,5.3-2.5,5.3-5.6v-20.9c0-3.7-0.1-5.8-2.6-5.8h-3.9v-2.3c12.5-2.9,14.3-4,14.3-4
		l0.1,0.3c0,0-0.9,2.8-0.9,9.8v23c0,2.6-0.4,4.6-0.4,4.6l7.3,0.8l-0.3,2.1l-18.9,0.5V976.7z M226,925.9c0-2.5,2.1-4.6,4.6-4.6
		c2.5,0,4.6,2.1,4.6,4.6c0,2.5-2.1,4.6-4.6,4.6C228.1,930.6,226,928.4,226,925.9z"/>
	<path id="XMLID_1881_" d="M246.3,976.7c3.9-0.4,5.3-2.5,5.3-5.6v-20.9c0-3.7-0.1-5.8-2.6-5.8h-3.9v-2.3c8.4-1.7,13.7-4,13.7-4
		l0.3,0.3c0,0-0.8,2.8-0.9,10.5c3.1-4.6,9.1-9.5,16.3-9.5c5.9,0,9.8,3.3,9.8,11.6v20.3c0,2.6-0.4,4.5-0.4,4.5l7.3,0.9l-0.3,2.1
		l-18.5,0.5v-2.5c3.9-0.4,4.9-2.5,4.9-5.6v-18.4c0-6.5-2.5-8.2-5.9-8.2c-3.9,0-9.2,2.3-12.8,6v20.6c0,2.6-0.4,4.5-0.4,4.5l6.9,0.9
		l-0.3,2.1l-18.5,0.5V976.7z"/>
	<path id="XMLID_1883_" d="M306,965.8c-5.8-1.6-10.3-5.8-10.3-12.6c0-8.9,7.6-13.8,16-13.8c5,0,7,1.7,11.3,1.7h4.1
		c2.7,0,5.7-1.1,5.7-1.1l-0.8,5.6h-4.5c-1.9,0-3-0.3-3-0.3s3.5,3,3.5,8.4c0,8.1-7.7,12.9-16.3,12.9c-1.5,0-2.8-0.1-4.2-0.3
		c-0.6,0.7-2.1,2.4-2.1,3.6c0,2.3,5.1,2.9,11.8,4.3c7.2,1.5,14.9,3.9,14.9,10.8c0,8.4-11.2,14.4-21.8,14.4
		c-7.7,0-16.1-3.2-16.1-10.4c0-6.6,6.9-9.2,10.8-10.7c-4-1-7.1-2.6-7.1-5.5C297.9,969.1,302.9,967.4,306,965.8z M307.1,978.6
		c-2.1,1.4-6.1,4.5-6.1,9.3c0,5.3,5.2,8.2,10.8,8.2c6.3,0,13.2-3.4,13.2-8.7c0-4.4-5.1-6.1-10.7-7.3
		C311.9,979.6,309.4,979.1,307.1,978.6z M320.6,953.7c0-5.5-2.8-11.3-9-11.3c-6,0-8.4,5.2-8.4,10.6c0,5.3,2.5,10.6,8.8,10.6
		C318.2,963.5,320.6,958.7,320.6,953.7z"/>
	<path id="XMLID_1887_" d="M356.2,997.5c3.9-2.1,4.5-4.1,4.5-8.1v-39.1c0-3.7-0.1-5.8-2.6-5.8h-3.4v-2.3c8.4-1.7,13.5-4,13.5-4
		l0.3,0.3c0,0-0.5,2.1-0.9,7.6c2.3-2.9,5.6-6.7,12.4-6.7c10.5,0,15.6,9.3,15.6,18.7c0,10.9-7,22-22.1,22c-2.3,0-4.1-0.3-5.8-0.5v9.9
		c0,2.6-0.4,4.9-0.4,4.9h9l-0.3,2.1c0,0-13.6,1.6-19.7,3.7V997.5z M388,960.5c0-8.2-3.6-16.2-11.2-16.2c-3.3,0-6.4,1.5-9.1,3.6v24.2
		c0,4,3.3,4.6,6.2,4.6C382.8,976.7,388,970.3,388,960.5z"/>
	<path id="XMLID_1890_" fill="#FF1D25" d="M420.1,939.3c7.4,0,14.7,4.8,14.9,14.2c0,0-2.2,0.9-3.9,1.1l-21.4,3.1l-0.9,1
		c0.3,7.8,4.3,15.4,13.9,15.4c7,0,11.2-4.1,11.2-4.1l0.9,1.8c0,0-4.5,8.1-14.7,8.1c-12.2,0-18.2-9.5-18.2-19.6
		C402,948.8,409.8,939.3,420.1,939.3z M409.1,954.7l18-2.3c0,0-0.7-9.8-8.2-9.8C413.1,942.6,409.8,948.2,409.1,954.7z"/>
	<path id="XMLID_1893_" d="M459.8,957.4l2.9-0.4c0.1-1.8,0.1-6.8-0.3-9.2c-0.6-3.2-2.2-5.5-5.4-5.5c-5.8,0-9.1,8.2-9.1,8.2h-2.7
		l-1.5-6.4c0,0,6.3-4.8,15.9-4.8c8.1,0,10.2,3.3,10.2,12.3v19.7c0,2.7,0.3,4,2.3,4c2.3,0,4.7-1.7,4.7-1.7l1.1,1.8c0,0-4,4.5-9.1,4.5
		c-3.3,0-5.8-1.9-5.8-6.1v-2.1c0,0-4.5,8.2-13.4,8.2c-5.7,0-8.9-4-8.9-8.7C440.7,963.1,450.9,958.8,459.8,957.4z M462.7,970v-10.1
		l-2.7,0.4c-4.9,0.8-11.8,3.3-11.8,9.5c0,3.4,2.2,5.3,4.8,5.3C456.4,975.1,460.5,971.8,462.7,970z"/>
	<path id="XMLID_1896_" d="M481,976.7c3.9-0.4,5.3-2.5,5.3-5.6v-20.9c0-3.7-0.1-5.8-2.6-5.8h-3.9v-2.3c8.4-1.7,13.9-4,13.9-4
		l0.3,0.3c0,0-0.8,2.8-1,10.9c2.6-4.8,7.1-10,11.6-10c2.1,0,4.6,1,4.6,3.9c0,2.6-1.8,4.2-4,4.2c-2,0-2.2-1.5-4.2-1.5
		c-2.9,0-5.8,2.8-7.6,5v20.2c0,2.6-0.4,4.6-0.4,4.6l8.2,0.8l-0.3,2.1l-19.7,0.5V976.7z"/>
	<path id="XMLID_1898_" d="M512.3,976.7c3.9-0.4,5.3-2.5,5.3-5.6v-43.6c0-3.7-0.1-5.8-2.6-5.8h-3.6v-2.3c9.9-2.1,13.8-3.9,13.8-3.9
		l0.3,0.3c0,0-0.9,3.2-0.9,9.8v45.6c0,2.6-0.4,4.6-0.4,4.6l7.3,0.8l-0.3,2.1l-18.9,0.5V976.7z"/>
	<path id="XMLID_1900_" d="M537.6,972.3l6.6-3.5c2.6,2.7,3.9,6,3.9,9.6c0,7.2-3.9,11.3-8.7,15.3l-2.1-2.2c3-2.6,5.9-5.4,5.9-9.1
		c0-2.7-1.8-4.9-5.6-7V972.3z"/>
	<path id="XMLID_1902_" d="M576.9,947.5c-1.7-4.4-4.7-5-4.7-5v-2.1h3.9c5.4,0,8.4-0.3,8.4-0.3l0.3,0.3c0,0-1.6,3.7-0.1,7.9l6.7,18.1
		l1.4,4.6l8-19c0.4-1.1,0.9-2.6,0.5-3.9l-0.2-0.6c-1.6-4.4-4.7-5-4.7-5v-2.1h3.9c5.4,0,8.4-0.3,8.4-0.3l0.3,0.3c0,0-1.6,3.7-0.1,7.9
		l6.6,17.8c0.5,1.5,1,3.3,1.5,4.9l9.4-22.2c1.5-3.4-1-5.4-4.3-6.2v-2.1h11.5l0.4,1.4c0,0-1.5,0.7-3.1,4.5l-14.4,33.8l-3.2-1.1
		l-9.9-25.2l-11.2,26.4l-3.2-1.1L576.9,947.5z"/>
	<path id="XMLID_1904_" fill="#FF1D25" d="M636.8,976.7c3.9-0.4,5.3-2.5,5.3-5.6v-43.6c0-3.7-0.1-5.8-2.6-5.8h-3.6v-2.3
		c9.9-2.1,13.8-3.9,13.8-3.9l0.3,0.3c0,0-0.9,3.2-0.9,9.8v16.7c0,3.9-0.3,5.7-0.3,6.4c3.1-4.5,9.1-9.3,16.3-9.3
		c5.9,0,9.8,3.3,9.8,11.6v20.3c0,2.6-0.4,4.6-0.4,4.6l7.3,0.8l-0.3,2.1l-18.5,0.5v-2.5c3.5-0.4,4.9-2.5,4.9-5.6v-18.4
		c0-6.5-2.5-8.2-5.9-8.2c-3.9,0-9.2,2.4-12.8,5.8v20.8c0,2.6-0.4,4.6-0.4,4.6l6.9,0.8l-0.3,2.1l-18.5,0.5V976.7z"/>
	<path id="XMLID_1906_" d="M685.9,976.7c3.9-0.4,5.3-2.5,5.3-5.6v-20.9c0-3.7-0.1-5.8-2.6-5.8h-3.9v-2.3c12.5-2.9,14.3-4,14.3-4
		l0.1,0.3c0,0-0.9,2.8-0.9,9.8v23c0,2.6-0.4,4.6-0.4,4.6l7.3,0.8l-0.3,2.1l-18.9,0.5V976.7z M689.3,925.9c0-2.5,2.1-4.6,4.6-4.6
		c2.5,0,4.6,2.1,4.6,4.6c0,2.5-2.1,4.6-4.6,4.6C691.5,930.6,689.3,928.4,689.3,925.9z"/>
	<path id="XMLID_1909_" d="M727.8,939.3c5.2,0,13.6,2.1,13.6,6.5c0,1.6-1.2,3.1-3.3,3.1c-4.4,0-4.9-6.7-10.9-6.7
		c-6.9,0-10.7,7.4-10.7,15.7c0,8.2,4,16.3,14.2,16.3c6.4,0,10-3.5,10-3.5l0.9,1.8c0,0-3.9,7.5-13.9,7.5c-12,0-18.2-9.7-18.2-19.6
		C709.4,950,715.9,939.3,727.8,939.3z"/>
	<path id="XMLID_1911_" d="M746.4,976.7c3.9-0.4,5.3-2.5,5.3-5.6v-43.6c0-3.7-0.1-5.8-2.6-5.8h-3.6v-2.3c9.9-2.1,13.8-3.9,13.8-3.9
		l0.3,0.3c0,0-0.9,3.2-0.9,9.8v16.7c0,3.9-0.3,5.7-0.3,6.4c3.1-4.5,9.1-9.3,16.3-9.3c5.9,0,9.8,3.3,9.8,11.6v20.3
		c0,2.6-0.4,4.6-0.4,4.6l7.3,0.8l-0.3,2.1l-18.5,0.5v-2.5c3.5-0.4,4.9-2.5,4.9-5.6v-18.4c0-6.5-2.5-8.2-5.9-8.2
		c-3.9,0-9.2,2.4-12.8,5.8v20.8c0,2.6-0.4,4.6-0.4,4.6l6.9,0.8l-0.3,2.1l-18.5,0.5V976.7z"/>
	<path id="XMLID_1913_" d="M816.4,947.5c-1.7-4.4-4.7-5-4.7-5v-2.1h3.9c5.4,0,8.4-0.3,8.4-0.3l0.3,0.3c0,0-1.6,3.7-0.1,7.9l6.7,18.1
		l1.4,4.6l8-19c0.4-1.1,0.9-2.6,0.5-3.9l-0.2-0.6c-1.6-4.4-4.7-5-4.7-5v-2.1h3.9c5.4,0,8.4-0.3,8.4-0.3l0.3,0.3c0,0-1.6,3.7-0.1,7.9
		l6.6,17.8c0.5,1.5,1,3.3,1.5,4.9l9.4-22.2c1.5-3.4-1-5.4-4.3-6.2v-2.1h11.5l0.4,1.4c0,0-1.5,0.7-3.1,4.5l-14.4,33.8L853,979
		l-9.9-25.2l-11.2,26.4l-3.2-1.1L816.4,947.5z"/>
	<path id="XMLID_1915_" d="M897.6,939.3c12.5,0,19,8.2,19,18.8c0,10.6-6.6,21.9-20.3,21.9c-12.1,0-18.8-8.5-18.8-19.5
		C877.5,950.5,883,939.3,897.6,939.3z M897.4,977.1c7.3,0,11.2-7.4,11.2-16.6c0-8.5-3.4-18.3-12.1-18.3c-7.9,0-11.2,8.1-11.2,16.3
		C885.3,967.1,888.9,977.1,897.4,977.1z"/>
	<path id="XMLID_1918_" d="M927.2,950.3c0-3.7-0.1-5.8-2.6-5.8h-3v-2.4c8.3-1.5,13-3.2,13-3.2l0.3,0.3c0,0-0.8,2.4-0.8,9v18.4
		c0,6.5,2.3,8.2,5.8,8.2c3.9,0,8.8-2.3,12.4-6.1v-18.4c0-3.7-0.1-5.8-2.6-5.8h-2.8v-2.4c8.2-1.5,12.9-3.2,12.9-3.2l0.3,0.3
		c0,0-0.8,2.4-0.8,9v22.7c0,4.9,2,4.9,4.8,4.9h2.4l-0.3,2.3c-9.4,0.9-14.1,1.7-14.1,1.7l-0.3-0.3c0,0,0.8-2.5,0.8-4.6v-4.5
		c-3.1,4.5-8.8,9.6-16,9.6c-6,0-9.7-3.3-9.7-11.5V950.3z"/>
	<path id="XMLID_1920_" fill="#FF1D25" d="M970.2,976.7c3.9-0.4,5.3-2.5,5.3-5.6v-43.6c0-3.7-0.1-5.8-2.6-5.8h-3.6v-2.3
		c9.9-2.1,13.8-3.9,13.8-3.9l0.3,0.3c0,0-0.9,3.2-0.9,9.8v45.6c0,2.6-0.4,4.6-0.4,4.6l7.3,0.8l-0.3,2.1l-18.9,0.5V976.7z"/>
	<path id="XMLID_1922_" d="M1015.9,939.3c3.1,0,6.1,0.5,6.1,0.5v-12.3c0-3.7-0.1-5.8-2.6-5.8h-3.6v-2.3c9.9-2.1,13.8-3.9,13.8-3.9
		l0.3,0.3c0,0-0.9,3.2-0.9,9.8v45.2c0,4.9,2,4.9,4.8,4.9h2.4l-0.3,2.3c-9.4,0.9-13.7,1.6-13.7,1.6l-0.3-0.3c0,0,0.3-2.4,0.3-4.5
		v-1.8c-2.3,3.4-5.8,7-12.3,7c-10.6,0-16.1-9.3-16.1-18.6C993.9,950.6,1001.2,939.3,1015.9,939.3z M1022,971.2v-24.1
		c0-3.9-3.4-4.6-6.2-4.6c-8.8,0-14.4,6.3-14.4,16.2c0,8.2,3.9,16.2,11.7,16.2C1017.3,975,1020.6,972.6,1022,971.2z"/>
</g>
</svg>
