<?xml version="1.0" encoding="utf-8"?>
<!-- Generator: Adobe Illustrator 18.1.1, SVG Export Plug-In . SVG Version: 6.00 Build 0)  -->
<svg version="1.1" id="Layer_1" xmlns="http://www.w3.org/2000/svg" xmlns:xlink="http://www.w3.org/1999/xlink" x="0px" y="0px"
	 viewBox="0 0 1000 1000" enable-background="new 0 0 1000 1000" xml:space="preserve">
<g>
	<path fill="#231F20" d="M14.7,405c-2.1,2.6-6.9,6.2-9.1,6.2c-1.2,0-2.1-1-0.8-6.1l3.9-16c0.4-1.4,0.4-2-0.1-2
		c-0.5,0-2.4,1.1-4.2,2.7l-0.7-1.4c3.4-3.4,7.8-5.9,9.5-5.9c1.4,0,1.3,2,0.6,4.9l-4.3,17.2c-0.4,1.5-0.2,2,0.1,2
		c0.7,0,2.9-1.6,4.4-2.9L14.7,405z M16.3,373.3c0,1.9-1.4,3.6-3.3,3.6c-1.5,0-2.6-1.1-2.6-2.7c0-1.6,1.2-3.7,3.4-3.7
		C15.5,370.5,16.3,371.8,16.3,373.3z"/>
</g>
<g>
	<path fill="#231F20" d="M41.8,388.3c0,2.1-1.5,3.6-3.5,3.6s-3.4-1.5-3.4-3.6c0-2.1,1.4-3.5,3.4-3.5S41.8,386.3,41.8,388.3z
		 M34.9,407.6c0-2,1.5-3.6,3.5-3.6s3.5,1.6,3.5,3.6c0,2.2-1.5,3.6-3.5,3.6S34.9,409.8,34.9,407.6z"/>
	<path fill="#231F20" d="M62.8,390.5v-3.1h29.7v3.1H62.8z M62.8,401.9v-3.1h29.7v3.1H62.8z"/>
	<path fill="#231F20" d="M116.6,410.5v-1.7c5.7-0.4,6-0.9,6-5.4v-24c0-3.2-0.2-3.6-3-3.7l-3-0.1v-1.4c4-0.7,7.7-1.9,11.1-3.2v32.5
		c0,4.5,0.4,5,6,5.4v1.7H116.6z"/>
	<path fill="#231F20" d="M151.4,409.1c0,4.9-4.3,7.5-8.1,8.7l-0.7-1.9c3-1.2,4.7-2.9,4.7-5.2c0-2.3-1.7-3.7-3.9-4.2
		c-0.3-0.1-0.8-0.5-0.8-1.6c0-1.6,1.5-2.6,3-2.6C147.9,402.4,151.4,404.8,151.4,409.1z M150.3,388.4c0,2.1-1.4,3.6-3.4,3.6
		s-3.5-1.5-3.5-3.6c0-2.1,1.5-3.6,3.5-3.6S150.3,386.3,150.3,388.4z"/>
</g>
<g>
	<path fill="#231F20" d="M171.6,389c3.7-3.9,8-6.5,9.8-6.5c1.4,0,1.4,2.1,0.5,6.4c-1,5.3-2.1,10.5-3.5,17.5c-1.5,7.5-4,13-7.4,16.2
		c-3.1,3-5.5,3.9-6.7,3.9c-1.2,0-2.7-0.8-2.7-2c0-0.9,0.7-2.1,1.5-2.7c0.4-0.4,0.9-0.6,1.4-0.2c0.9,0.5,2,1,3.1,1
		c1.9,0,3.1-1.9,4.2-6.7c1.5-6.5,2.7-13.5,5-24.9c0.6-2.9,0.6-3.6,0.1-3.6c-0.6,0-2.9,1.6-4.6,3.1L171.6,389z M184.1,372.9
		c0,1.9-1.4,3.6-3.2,3.6c-1.5,0-2.6-1.1-2.7-2.7c0-1.6,1.2-3.7,3.4-3.7C183.2,370.1,184.1,371.4,184.1,372.9z"/>
</g>
<g>
	<path fill="#231F20" d="M209.5,388.3c0,2.1-1.5,3.6-3.5,3.6s-3.4-1.5-3.4-3.6c0-2.1,1.4-3.5,3.4-3.5S209.5,386.3,209.5,388.3z
		 M202.5,407.6c0-2,1.5-3.6,3.5-3.6s3.5,1.6,3.5,3.6c0,2.2-1.5,3.6-3.5,3.6S202.5,409.8,202.5,407.6z"/>
	<path fill="#231F20" d="M230.5,390.5v-3.1h29.7v3.1H230.5z M230.5,401.9v-3.1h29.7v3.1H230.5z"/>
</g>
<g>
	<path fill="#231F20" d="M324.9,371.6c-3.7,0.2-4.6,1.2-5.4,3.9c-0.5,1.6-1.3,4.9-2.4,10.6l-4.7,24.8h-1.9l-18.5-33h-0.2l-3.2,16.6
		c-1.1,5.4-1.5,8.4-1.6,10.5c-0.1,2.9,1,3.5,5.3,3.8l-0.4,1.7h-14.3l0.4-1.7c3.2-0.2,4.7-0.9,5.5-3.6c0.7-2.2,1.4-5,2.6-10.8
		l3.2-15.3c0.6-3.2,0.4-4.1-0.4-5.4c-0.7-1.3-1.8-1.7-5.3-1.9l0.4-1.6h9l18.4,31.7h0.2l2.9-15.6c1.1-5.7,1.6-8.9,1.7-10.7
		c0.2-2.9-0.8-3.6-5.4-3.9l0.4-1.6h14L324.9,371.6z"/>
</g>
<g>
	<path fill="#231F20" d="M333.1,409.1c0,4.9-4.3,7.5-8.1,8.7l-0.7-1.9c3-1.2,4.7-2.9,4.7-5.2c0-2.3-1.7-3.7-3.9-4.2
		c-0.3-0.1-0.8-0.5-0.8-1.6c0-1.6,1.5-2.6,3-2.6C329.7,402.4,333.1,404.8,333.1,409.1z M332,388.4c0,2.1-1.4,3.6-3.4,3.6
		s-3.5-1.5-3.5-3.6c0-2.1,1.5-3.6,3.5-3.6S332,386.3,332,388.4z"/>
</g>
<g>
	<path fill="#231F20" d="M13.9,463.5c2.2-3.9,4.7-6.5,7-6.5c2.5,0,4.2,1.7,4.2,3.9c0,2.2-1.4,4-3.1,4.6c-0.9,0.3-1.5,0.1-1.9-0.2
		c-1.1-0.9-1.8-1.3-2.9-1.3c-1.2,0-2.4,0.8-3.5,3.2v11.6c0,3.9,0.4,4.1,5.2,4.6v2H1.8v-2c3.4-0.4,4-0.7,4-4.6v-13.6
		c0-3.2-0.5-3.4-3.4-4.1v-1.7c3.7-0.5,7.4-1.2,11.3-2.4v6.6H13.9z"/>
	<path fill="#231F20" d="M50.7,479.1c-3.8,5.7-8.7,6.9-11.2,6.9c-8.3,0-12.9-6.2-12.9-13.3c0-4.7,2-8.7,4.6-11.3
		c2.7-2.7,6.2-4.4,9.6-4.4c5.7,0,10.2,4.9,10.1,10c0,1.2-0.4,2.1-1.8,2.2c-1.1,0.1-8.7,0.7-14.8,1c0.3,6.7,4,10,8.4,10
		c2.4,0,4.7-0.8,6.9-2.7L50.7,479.1z M34.6,467.3c2.6-0.1,4.9-0.1,7.4-0.2c0.9-0.1,1.2-0.2,1.3-1.2c0-3.2-1.4-6.4-3.8-6.4
		C37.2,459.5,35,462.3,34.6,467.3z"/>
	<path fill="#231F20" d="M69.7,458.1c1.2-0.7,2.4-1.2,3.4-1.2c7.4,0,11.3,6,11.3,12c0,9.2-7.2,15.2-15.1,17c-1.6,0-2.9-0.4-3.9-0.7
		v7.9c0,3.6,0.3,4,5.2,4.4v2H53.2v-2c4-0.3,4.2-0.8,4.2-4.4v-27.9c0-3.5-0.6-3.8-3.6-4.2v-1.9c3.4-0.6,7.4-1.7,11.5-2.9v4.5
		L69.7,458.1z M65.3,480.5c1.2,1.1,3.6,2.4,5.1,2.4c3.4,0,5.8-4.2,5.8-10.7c0-7.7-3.9-10.5-6.9-10.5c-1.6,0-2.9,0.6-4,1.5V480.5z"/>
	<path fill="#231F20" d="M113,479.1c-3.8,5.7-8.7,6.9-11.2,6.9c-8.3,0-12.9-6.2-12.9-13.3c0-4.7,2-8.7,4.6-11.3
		c2.7-2.7,6.2-4.4,9.6-4.4c5.7,0,10.2,4.9,10.1,10c0,1.2-0.4,2.1-1.8,2.2c-1.1,0.1-8.7,0.7-14.8,1c0.3,6.7,4,10,8.4,10
		c2.4,0,4.7-0.8,6.9-2.7L113,479.1z M96.8,467.3c2.6-0.1,4.9-0.1,7.4-0.2c0.9-0.1,1.2-0.2,1.3-1.2c0-3.2-1.4-6.4-3.8-6.4
		C99.4,459.5,97.2,462.3,96.8,467.3z"/>
	<path fill="#231F20" d="M136.8,486c-1.7,0-3-0.6-3.8-1.3c-0.9-0.7-1.3-1.6-1.6-2.3c-2.4,1.6-5.3,3.6-6.5,3.6c-5.3,0-8.4-4.1-8.4-8
		c0-3.2,1.5-4.8,4.7-6c3.7-1.4,8.5-2.9,9.9-4.1v-1.9c0-3.9-1.5-6.1-3.8-6.1c-0.8,0-1.5,0.4-2.1,1.1c-0.7,0.9-1.3,2.4-1.8,4.3
		c-0.4,1.6-1.3,2.1-2.6,2.1c-1.6,0-3.9-1.5-3.9-3.1c0-1.1,0.7-1.9,2.2-3c2.4-1.6,6.8-3.8,10.3-4.4c2.6,0,4.4,0.6,6.1,1.8
		c2.7,2.1,3.2,4.7,3.2,8.2v10.3c0,2.9,1,3.7,2,3.7c0.7,0,1.4-0.2,2.1-0.5l0.6,2L136.8,486z M131.2,470.4c-1.1,0.6-2.2,1.2-3.4,1.9
		c-1.9,1-2.9,2.1-2.9,4.2c0,3.5,2.3,4.8,3.7,4.8c0.9,0,1.6-0.2,2.6-1V470.4z"/>
	<path fill="#231F20" d="M158.3,485.3c-1.1,0.4-2.1,0.7-2.6,0.7c-4.8,0-7.6-2.2-7.6-7.9v-17.5h-3.9l-0.3-0.7l1.7-2.2h2.5v-4.6l7-4.9
		l0.9,0.4v9h6.1c0.7,0.7,0.6,2.5-0.4,3H156v15.4c0,4.9,2.2,5.4,3.6,5.4c1.1,0,2.1-0.2,3.1-0.7l0.6,2.2L158.3,485.3z"/>
</g>
<g>
	<path fill="#231F20" d="M206.3,480.3c-2.9,4.6-5.5,5.7-6.9,5.7s-2.6-0.7-4.1-4.1c-1.5-3.2-3.2-7.2-4.7-11.6c-1.6,1.7-2.9,2.9-3.5,4
		c-0.7,3.4-1.4,7-2.1,10.5c-1.6,0.3-3.2,0.7-4.5,1.2l-0.4-0.4c3-12.7,5.8-25.2,8.5-38.2c0.5-2.5,0.2-2.7-2.2-2.8l-1.9-0.1l0.3-1.5
		c5-0.6,8.4-2.2,9.2-2.2c0.6,0,0.6,0.6,0.3,1.8c-2.1,9.3-4.1,18.5-6.2,27.7h0.1c1.9-2.3,3.6-3.9,5.4-5.6c3.5-3.6,8-7.5,10.9-7.5
		c1.7,0,2.6,1,2.6,1.9c0,0.7-0.6,1.9-1.2,2.5c-0.4,0.3-0.7,0.4-1,0.3c-0.6-0.2-1.3-0.5-2.4-0.5c-2.9,0-6.4,3.2-8.1,5.2
		c1.1,3.9,3.6,9.5,5.1,12.3c1.1,2.3,1.7,3,2.4,3c0.6,0,2-1.1,3.6-2.9L206.3,480.3z"/>
</g>
<g>
	<path fill="#231F20" d="M232.1,463.1c0,2.1-1.5,3.6-3.5,3.6s-3.4-1.5-3.4-3.6c0-2.1,1.4-3.5,3.4-3.5S232.1,461.1,232.1,463.1z
		 M225.2,482.4c0-2,1.5-3.6,3.5-3.6s3.5,1.6,3.5,3.6c0,2.2-1.5,3.6-3.5,3.6S225.2,484.6,225.2,482.4z"/>
	<path fill="#231F20" d="M238.9,465.3v-3.1h29.7v3.1H238.9z M238.9,476.7v-3.1h29.7v3.1H238.9z"/>
	<path fill="#231F20" d="M303.6,495.8c-9.1-6.1-13.2-16.1-13.2-27.4c0-11.2,4.1-21.1,13.2-27.3l1.1,1.4c-6.2,5.2-9.8,15.2-9.8,25.9
		s3.6,20.8,9.8,26L303.6,495.8z"/>
</g>
<g>
	<path fill="#231F20" d="M322.3,479.8c-2.1,2.6-6.9,6.2-9.1,6.2c-1.2,0-2.1-1-0.8-6.1l3.9-16c0.4-1.4,0.4-2-0.1-2
		c-0.5,0-2.4,1.1-4.2,2.7l-0.7-1.4c3.4-3.4,7.8-5.9,9.5-5.9c1.4,0,1.3,2,0.6,4.9l-4.3,17.2c-0.4,1.5-0.2,2,0.1,2
		c0.7,0,2.9-1.6,4.4-2.9L322.3,479.8z M323.9,448.1c0,1.9-1.4,3.6-3.3,3.6c-1.5,0-2.6-1.1-2.6-2.7c0-1.6,1.2-3.7,3.4-3.7
		C323,445.3,323.9,446.6,323.9,448.1z"/>
</g>
<g>
	<path fill="#231F20" d="M344.5,470.9v14.3h-3.6v-14.3h-13.1v-3.1h13.1v-13h3.6v13h13v3.1H344.5z"/>
</g>
<g>
	<path fill="#231F20" d="M364.2,463.8c3.7-3.9,8-6.5,9.8-6.5c1.4,0,1.4,2.1,0.5,6.4c-1,5.3-2.1,10.5-3.5,17.5
		c-1.5,7.5-4,13-7.4,16.2c-3.1,3-5.5,3.9-6.7,3.9c-1.2,0-2.7-0.8-2.7-2c0-0.9,0.7-2.1,1.5-2.7c0.4-0.4,0.9-0.6,1.4-0.2
		c0.9,0.5,2,1,3.1,1c1.9,0,3.1-1.9,4.2-6.7c1.5-6.5,2.7-13.5,5-24.9c0.6-2.9,0.6-3.6,0.1-3.6c-0.6,0-2.9,1.6-4.6,3.1L364.2,463.8z
		 M376.7,447.7c0,1.9-1.4,3.6-3.2,3.6c-1.5,0-2.6-1.1-2.7-2.7c0-1.6,1.2-3.7,3.4-3.7C375.8,444.9,376.7,446.2,376.7,447.7z"/>
</g>
<g>
	<path fill="#231F20" d="M381.3,441.1c9.3,6.2,13.2,16.1,13.2,27.4s-3.9,21.1-13.2,27.4l-1.2-1.4c6.4-5.3,9.8-15.3,9.8-26
		s-3.6-20.8-9.8-25.9L381.3,441.1z"/>
</g>
<g>
	<path fill="#231F20" d="M446.8,483.6c-1.5,0.2-7.4,1-12.3,2.4v-3.6l-3.7,2.4c-1.6,0.9-2.4,1.1-3.2,1.1c-5.3,0-12.7-4.4-12.7-13.7
		c0-8.5,7.4-15.4,17.1-15.4c0.5,0,1.2,0.1,2.6,0.3v-7.5c0-3.4-0.4-3.7-4.2-4.1v-1.9c4-0.5,9-1.3,12.2-2.2v36c0,3.6,0.3,3.8,2.9,4.1
		l1.4,0.1V483.6z M434.5,462.8c-1-2.2-2.7-3.2-4.5-3.2c-1.5,0-6.3,1.6-6.3,11.1c0.1,7.7,4.5,10.6,7.4,10.6c1.1,0,2.1-0.1,3.4-1
		V462.8z"/>
	<path fill="#231F20" d="M449,485.3v-2c3.6-0.4,4-0.7,4-5.1v-12.3c0-4.1-0.4-4.3-3.4-4.8v-1.8c3.7-0.4,7.9-1.2,11.3-2.2v21.2
		c0,4.3,0.3,4.6,4.1,5.1v2H449z M452,448.7c0-2.5,2.1-4.4,4.4-4.4c2.5,0,4.4,1.9,4.4,4.4c0,2.4-1.9,4.4-4.5,4.4
		C454.1,453,452,451,452,448.7z"/>
	<path fill="#231F20" d="M495.7,459.7c-3.1,0.6-3.9,1.3-5.2,4.2c-2.3,5-5.4,12.5-9.1,22H479c-3.1-7.8-5.9-15-9-22.1
		c-1.1-2.7-1.9-3.4-4.9-4.1v-2h15.4v2c-2.9,0.6-3.2,1.1-2.4,3.2c1.6,4.4,3.8,10.4,4.7,13c1.2-2.8,3.2-8.5,4.6-12.8
		c0.6-2.1,0.4-2.9-3-3.4v-2h11.2V459.7z"/>
</g>
<g>
	<path fill="#231F20" d="M536.1,477.1c-0.8,2.6-1.4,5.4-2.2,8.2h-23.3v-1.4c3.5-3.4,7-7,10.1-10.6c3.9-4.6,7.8-9.7,7.8-15.1
		c0-5.2-2.7-8.3-7.4-8.3c-4.2,0-6.9,3.4-8.5,5.8l-1.4-1.2l3.6-5c1.9-2.1,4.8-3.7,8.4-3.7c5.5,0,10.5,4,10.5,10.5
		c0,5.4-2.5,9.1-8.2,15.2l-8.9,9.3h11.7c3.4,0,4.2-0.2,6-4.2L536.1,477.1z"/>
</g>
<g>
	<path fill="#231F20" d="M226.2,560.1v-2c3.6-0.4,4-0.7,4-5.1v-12.3c0-4.1-0.4-4.3-3.4-4.8V534c3.7-0.4,7.9-1.2,11.3-2.2V553
		c0,4.3,0.3,4.6,4.1,5.1v2H226.2z M229.3,523.5c0-2.5,2.1-4.4,4.4-4.4c2.5,0,4.4,1.9,4.4,4.4c0,2.4-1.9,4.4-4.5,4.4
		C231.3,527.8,229.3,525.8,229.3,523.5z"/>
	<path fill="#231F20" d="M248.6,532.5v-1.4c0-1.4,0.3-2.7,0.7-4.2c0.4-1.3,1.7-4.4,5.4-7.3c2.2-1.9,4.4-3.1,7.4-3.4
		c2.5,0.1,4.1,0.9,5.1,1.9c0.9,0.9,0.9,1.9,0.6,2.7c-0.3,0.7-0.9,1.6-1.9,2.2c-0.8,0.6-1.5,0.6-2.1,0.1c-1.6-1.6-3.6-3.1-5.2-3.1
		c-1.1,0-1.7,0.7-1.9,1.7c-0.4,1.1-0.4,3.3-0.1,8.6l0.1,2.2h7.2c0.2,0.7,0,2.6-0.9,3h-6.3v17.8c0,3.9,0.4,4.2,5.2,4.7v2h-17v-2
		c3.6-0.5,3.9-0.8,3.9-4.7v-17.8h-4.1l-0.3-0.7l1.8-2.2H248.6z"/>
</g>
<g>
	<path fill="#231F20" d="M306.6,554.3c-3.4,4.2-7.5,6.5-9.1,6.5c-1.2,0-2-0.9-1.1-5.5l1.2-5.9h-0.1c-2.4,3.4-5.4,6.4-8,8.6
		c-2.1,1.7-4.1,2.8-5.8,2.8c-1.6,0-3.6-2.1-3.6-7c0-6.3,2.9-13.1,7.5-16.9c3.1-2.6,7.7-4.8,11.6-4.8c1.3,0,2.6,0.2,3.9,0.4
		c0.9,0.2,1.7,0.4,2.4,0.4l0.2,0.2c-1,3.9-2.9,12.3-4.3,20.3c-0.4,2.2-0.2,2.7,0.1,2.7c0.5,0,2.7-1.4,4.5-3.2L306.6,554.3z
		 M298.5,544.6c0.7-2.5,1.6-7,2.1-9c-0.9-0.4-2.6-0.9-4.2-0.9c-1.6,0-3.4,0.5-4.4,1.3c-4.2,3.1-6.7,10.5-6.7,16.6
		c0,2.8,0.8,4.1,1.7,4.1C289.3,556.8,296.4,548.9,298.5,544.6z"/>
</g>
<g>
	<path fill="#231F20" d="M315.6,570.2v-54h10.6v1.7c-6.6,0.5-6.8,0.8-6.8,5.7v39.1c0,4.9,0.1,5.1,6.8,5.7v1.7H315.6z"/>
</g>
<g>
	<path fill="#231F20" d="M357.9,555.1c-2.9,4.6-5.5,5.7-6.9,5.7s-2.6-0.7-4.1-4.1c-1.5-3.2-3.2-7.2-4.7-11.6c-1.6,1.7-2.9,2.9-3.5,4
		c-0.7,3.4-1.4,7-2.1,10.5c-1.6,0.3-3.2,0.7-4.5,1.2l-0.4-0.4c3-12.7,5.8-25.2,8.5-38.2c0.5-2.5,0.2-2.7-2.2-2.8l-1.9-0.1l0.3-1.5
		c5-0.6,8.4-2.2,9.2-2.2c0.6,0,0.6,0.6,0.3,1.8c-2.1,9.3-4.1,18.5-6.2,27.7h0.1c1.9-2.3,3.6-3.9,5.4-5.6c3.5-3.6,8-7.5,10.9-7.5
		c1.7,0,2.6,1,2.6,1.9c0,0.7-0.6,1.9-1.2,2.5c-0.4,0.3-0.7,0.4-1,0.3c-0.6-0.2-1.3-0.5-2.4-0.5c-2.9,0-6.4,3.2-8.1,5.2
		c1.1,3.9,3.6,9.5,5.1,12.3c1.1,2.3,1.7,3,2.4,3c0.6,0,2-1.1,3.6-2.9L357.9,555.1z"/>
</g>
<g>
	<path fill="#231F20" d="M362.4,570.2v-1.7c6.7-0.6,6.9-0.9,6.9-5.8v-39c0-4.9-0.2-5.2-6.9-5.7v-1.7H373v54H362.4z"/>
	<path fill="#231F20" d="M398.3,545.7v-2.9l27-14.3v3.5L402,544.2v0.1l23.3,12.2v3.5L398.3,545.7z"/>
</g>
<g>
	<path fill="#231F20" d="M447.5,538.6c2.6-3.8,5.4-6.5,7.4-6.5c1.7,0,2.5,2.3,4,6.8l1.1,3.4c5.2-7.5,7.9-10.2,10.6-10.2
		c1.6,0,2.6,1.3,2.6,2.7c-0.1,1.5-1.5,2.7-2.4,2.7c-0.4,0-0.6-0.2-0.9-0.5c-0.4-0.5-0.9-0.7-1.4-0.7c-0.9,0-2.1,1.1-3.7,3.1
		c-1.3,1.5-2.7,3.2-4.1,5.1l2,6.2c1.2,3.9,2.2,5.7,3.2,5.7c1,0,2.5-1.2,4.5-3.6l1.1,1.2c-2.9,4.4-5.7,6.7-7.9,6.7
		c-1.6,0-2.9-1.8-4.1-5.7l-1.9-6c-5.5,8.7-8.4,11.8-11.4,11.8c-1.6,0-2.9-1.2-2.8-3c0-1.5,1.3-2.9,2.5-2.9c0.4,0,0.7,0.2,1,0.6
		c0.3,0.4,0.8,0.6,1.4,0.6c1.8,0,4.7-3.6,8.6-9.4l-2.1-6.5c-0.9-3.1-1.4-3.9-2.1-3.9c-0.6,0-1.8,0.8-4,3.6L447.5,538.6z"/>
</g>
<g>
	<path fill="#231F20" d="M502.3,560.1c-1.1,0.4-2.1,0.7-2.6,0.7c-4.8,0-7.6-2.2-7.6-7.9v-17.5h-3.9l-0.3-0.7l1.7-2.2h2.5V528l7-4.9
		l0.9,0.4v9h6.1c0.7,0.7,0.6,2.5-0.4,3H500v15.4c0,4.9,2.2,5.4,3.6,5.4c1.1,0,2.1-0.2,3.1-0.7l0.6,2.2L502.3,560.1z"/>
	<path fill="#231F20" d="M526.4,560.1v-2c3-0.4,3.2-0.9,3.2-4.3v-11c0-4.8-2.1-6.4-4.5-6.4c-1.5,0-3.2,0.4-4.5,1.7v15.6
		c0,3.4,0.2,3.9,2.9,4.3v2h-14.8v-2c3.6-0.4,3.9-0.6,3.9-4.6v-29c0-3.8-0.2-3.8-3.5-4.2v-1.8c3.3-0.4,7.7-1.3,11.5-2.2v19.6
		c2.1-2.2,5.2-4.1,8.3-4.1c5.4,0,8.6,3.5,8.6,10.3v11.4c0,4,0.4,4,3.6,4.6v2H526.4z"/>
	<path fill="#231F20" d="M568.2,553.9c-3.8,5.7-8.7,6.9-11.2,6.9c-8.3,0-12.9-6.2-12.9-13.3c0-4.7,2-8.7,4.6-11.3
		c2.7-2.7,6.2-4.4,9.6-4.4c5.7,0,10.2,4.9,10.1,10c0,1.2-0.4,2.1-1.8,2.2c-1.1,0.1-8.7,0.7-14.8,1c0.3,6.7,4,10,8.4,10
		c2.4,0,4.7-0.8,6.9-2.7L568.2,553.9z M552.1,542.1c2.6-0.1,4.9-0.1,7.4-0.2c0.9-0.1,1.2-0.2,1.3-1.2c0-3.2-1.4-6.4-3.8-6.4
		C554.6,534.3,552.4,537.1,552.1,542.1z"/>
	<path fill="#231F20" d="M588.9,560.1v-2c2.6-0.4,2.9-0.6,2.9-5v-10.6c0-4.5-2.1-5.9-4.3-5.9c-1.6,0-3,0.7-4.6,1.9v15.1
		c0,3.9,0.4,4.1,2.9,4.5v2h-15v-2c3.9-0.6,4.2-0.6,4.2-4.8v-12.9c0-3.7-0.3-4-3.4-4.5V534c3.6-0.4,7.6-1.3,11.3-2.4v4.6
		c1.2-0.9,2.5-1.9,3.9-2.7c1.9-1.2,3.1-1.7,4.9-1.7c5,0,8.2,3.7,8.2,10v11.8c0,3.9,0.4,4.1,3.6,4.6v2H588.9z"/>
</g>
<g>
	<path fill="#231F20" d="M633.3,554.6c-2.1,2.6-6.9,6.2-9.1,6.2c-1.2,0-2.1-1-0.8-6.1l3.9-16c0.4-1.4,0.4-2-0.1-2
		c-0.5,0-2.4,1.1-4.2,2.7l-0.7-1.4c3.4-3.4,7.8-5.9,9.5-5.9c1.4,0,1.3,2,0.6,4.9l-4.3,17.2c-0.4,1.5-0.2,2,0.1,2
		c0.7,0,2.9-1.6,4.4-2.9L633.3,554.6z M634.9,522.9c0,1.9-1.4,3.6-3.3,3.6c-1.5,0-2.6-1.1-2.6-2.7c0-1.6,1.2-3.7,3.4-3.7
		C634,520.1,634.9,521.4,634.9,522.9z"/>
</g>
<g>
	<path fill="#231F20" d="M660.4,537.9c0,2.1-1.5,3.6-3.5,3.6c-2,0-3.4-1.5-3.4-3.6c0-2.1,1.4-3.5,3.4-3.5
		C658.9,534.5,660.4,535.9,660.4,537.9z M653.4,557.2c0-2,1.5-3.6,3.5-3.6c2,0,3.5,1.6,3.5,3.6c0,2.2-1.5,3.6-3.5,3.6
		C654.9,560.8,653.4,559.4,653.4,557.2z"/>
	<path fill="#231F20" d="M667.2,540.1v-3.1h29.7v3.1H667.2z M667.2,551.5v-3.1h29.7v3.1H667.2z"/>
</g>
<g>
	<path fill="#231F20" d="M742.6,555.1c-2.9,4.6-5.5,5.7-6.9,5.7c-1.3,0-2.6-0.7-4.1-4.1c-1.5-3.2-3.2-7.2-4.7-11.6
		c-1.6,1.7-2.9,2.9-3.5,4c-0.7,3.4-1.4,7-2.1,10.5c-1.6,0.3-3.2,0.7-4.5,1.2l-0.4-0.4c3-12.7,5.8-25.2,8.5-38.2
		c0.5-2.5,0.2-2.7-2.2-2.8l-1.9-0.1l0.3-1.5c5-0.6,8.4-2.2,9.2-2.2c0.6,0,0.6,0.6,0.3,1.8c-2.1,9.3-4.1,18.5-6.2,27.7h0.1
		c1.9-2.3,3.6-3.9,5.4-5.6c3.5-3.6,8-7.5,10.9-7.5c1.7,0,2.6,1,2.6,1.9c0,0.7-0.6,1.9-1.2,2.5c-0.4,0.3-0.7,0.4-1,0.3
		c-0.6-0.2-1.3-0.5-2.4-0.5c-2.9,0-6.4,3.2-8.1,5.2c1.1,3.9,3.6,9.5,5.1,12.3c1.1,2.3,1.7,3,2.4,3c0.6,0,2-1.1,3.6-2.9L742.6,555.1z
		"/>
</g>
<g>
	<path fill="#231F20" d="M783.7,553.9c-3.8,5.7-8.7,6.9-11.2,6.9c-8.3,0-12.9-6.2-12.9-13.3c0-4.7,2-8.7,4.6-11.3
		c2.7-2.7,6.2-4.4,9.6-4.4c5.7,0,10.2,4.9,10.1,10c0,1.2-0.4,2.1-1.8,2.2c-1.1,0.1-8.7,0.7-14.8,1c0.3,6.7,4,10,8.4,10
		c2.4,0,4.7-0.8,6.9-2.7L783.7,553.9z M767.6,542.1c2.6-0.1,4.9-0.1,7.4-0.2c0.9-0.1,1.2-0.2,1.3-1.2c0-3.2-1.4-6.4-3.8-6.4
		C770.1,534.3,768,537.1,767.6,542.1z"/>
	<path fill="#231F20" d="M785.4,560.1v-2c3.7-0.6,4.1-0.9,4.1-4.9v-28.5c0-3.7-0.3-3.9-3.7-4.4v-1.8c3.6-0.4,8.2-1.2,11.7-2.2v37
		c0,4.2,0.4,4.4,4.2,4.9v2H785.4z"/>
	<path fill="#231F20" d="M821.3,540.6c-1.7-3.8-3.7-6.4-6.6-6.4c-1.6,0-3.2,1.4-3.2,3.4c0,1.9,1.4,3.4,4.6,4.8
		c5,2.2,8.4,4.4,8.4,9.2c0,6.2-5.9,9.2-11.2,9.2c-3.3,0-6.6-1.2-7.9-2.1c-0.4-1-0.9-5.4-1-8.4l1.9-0.2c1.4,3.9,4.2,8.2,8,8.2
		c2.1,0,3.4-1.5,3.4-3.4c0-1.8-0.9-3.4-4.7-5.2c-2.9-1.4-7.9-3.9-7.9-9.2c0-4.9,3.9-8.9,10.5-8.9c2.9,0,4.5,0.5,6,1.1
		c0.6,1.4,1.4,5.9,1.5,7.1L821.3,540.6z"/>
	<path fill="#231F20" d="M852.5,553.9c-3.8,5.7-8.7,6.9-11.2,6.9c-8.3,0-12.9-6.2-12.9-13.3c0-4.7,2-8.7,4.6-11.3
		c2.7-2.7,6.2-4.4,9.6-4.4c5.7,0,10.2,4.9,10.1,10c0,1.2-0.4,2.1-1.8,2.2c-1.1,0.1-8.7,0.7-14.8,1c0.3,6.7,4,10,8.4,10
		c2.4,0,4.7-0.8,6.9-2.7L852.5,553.9z M836.3,542.1c2.6-0.1,4.9-0.1,7.4-0.2c0.9-0.1,1.2-0.2,1.3-1.2c0-3.2-1.4-6.4-3.8-6.4
		C838.9,534.3,836.7,537.1,836.3,542.1z"/>
</g>
<g>
	<path fill="#231F20" d="M871.3,538.6c3.7-3.9,8-6.5,9.8-6.5c1.4,0,1.4,2.1,0.5,6.4c-1,5.3-2.1,10.5-3.5,17.5
		c-1.5,7.5-4,13-7.4,16.2c-3.1,3-5.5,3.9-6.7,3.9c-1.2,0-2.7-0.8-2.7-2c0-0.9,0.7-2.1,1.5-2.7c0.4-0.4,0.9-0.6,1.4-0.2
		c0.9,0.5,2,1,3.1,1c1.9,0,3.1-1.9,4.2-6.7c1.5-6.5,2.7-13.5,5-24.9c0.6-2.9,0.6-3.6,0.1-3.6c-0.6,0-2.9,1.6-4.6,3.1L871.3,538.6z
		 M883.8,522.5c0,1.9-1.4,3.6-3.2,3.6c-1.5,0-2.6-1.1-2.7-2.7c0-1.6,1.2-3.7,3.4-3.7C883,519.7,883.8,521,883.8,522.5z"/>
</g>
<g>
	<path fill="#231F20" d="M909.2,537.9c0,2.1-1.5,3.6-3.5,3.6c-2,0-3.4-1.5-3.4-3.6c0-2.1,1.4-3.5,3.4-3.5
		C907.7,534.5,909.2,535.9,909.2,537.9z M902.3,557.2c0-2,1.5-3.6,3.5-3.6c2,0,3.5,1.6,3.5,3.6c0,2.2-1.5,3.6-3.5,3.6
		C903.8,560.8,902.3,559.4,902.3,557.2z"/>
	<path fill="#231F20" d="M916.1,540.1v-3.1h29.7v3.1H916.1z M916.1,551.5v-3.1h29.7v3.1H916.1z"/>
</g>
<g>
	<path fill="#231F20" d="M991.4,555.1c-2.9,4.6-5.5,5.7-6.9,5.7c-1.3,0-2.6-0.7-4.1-4.1c-1.5-3.2-3.2-7.2-4.7-11.6
		c-1.6,1.7-2.9,2.9-3.5,4c-0.7,3.4-1.4,7-2.1,10.5c-1.6,0.3-3.2,0.7-4.5,1.2l-0.4-0.4c3-12.7,5.8-25.2,8.5-38.2
		c0.5-2.5,0.2-2.7-2.2-2.8l-1.9-0.1l0.3-1.5c5-0.6,8.4-2.2,9.2-2.2c0.6,0,0.6,0.6,0.3,1.8c-2.1,9.3-4.1,18.5-6.2,27.7h0.1
		c1.9-2.3,3.6-3.9,5.4-5.6c3.5-3.6,8-7.5,10.9-7.5c1.7,0,2.6,1,2.6,1.9c0,0.7-0.6,1.9-1.2,2.5c-0.4,0.3-0.7,0.4-1,0.3
		c-0.6-0.2-1.3-0.5-2.4-0.5c-2.9,0-6.4,3.2-8.1,5.2c1.1,3.9,3.6,9.5,5.1,12.3c1.1,2.3,1.7,3,2.4,3c0.6,0,2-1.1,3.6-2.9L991.4,555.1z
		"/>
</g>
<g>
	<path fill="#231F20" d="M33.8,633.4c-3.7,0.5-7.4,1.3-11.4,2.2l-0.5-0.4v-3.7c-1.1,0.9-1.7,1.5-3.1,2.3c-1.8,1.2-3.5,1.9-5.4,1.9
		c-5.2,0-8.2-3.4-8.2-8.9v-12.9c0-3-0.2-3.2-3.4-4.1V608c3.8-0.2,7.6-0.6,11.5-1.1c-0.1,2.6-0.2,5.8-0.2,9.4v9
		c0,4.1,2.1,5.5,4.3,5.5c1.7,0,3.1-0.4,4.5-1.7v-15.1c0-3.2-0.2-3.4-4-4.1V608c3.9-0.2,7.8-0.5,11.9-1.1v20.3c0,3.3,0.4,3.9,2.6,4.1
		l1.4,0.1V633.4z"/>
	<path fill="#231F20" d="M54.3,634.9v-2c2.6-0.4,2.9-0.6,2.9-5v-10.6c0-4.5-2.1-5.9-4.3-5.9c-1.6,0-3,0.7-4.6,1.9v15.1
		c0,3.9,0.4,4.1,2.9,4.5v2h-15v-2c3.9-0.6,4.2-0.6,4.2-4.8v-12.9c0-3.7-0.3-4-3.4-4.5v-1.8c3.6-0.4,7.6-1.3,11.3-2.4v4.6
		c1.2-0.9,2.5-1.9,3.9-2.7c1.9-1.2,3.1-1.7,4.9-1.7c5,0,8.2,3.7,8.2,10v11.8c0,3.9,0.4,4.1,3.6,4.5v2H54.3z"/>
	<path fill="#231F20" d="M84.9,634.9c-1.1,0.4-2.1,0.7-2.6,0.7c-4.8,0-7.6-2.2-7.6-7.9v-17.5h-3.9l-0.3-0.7l1.7-2.2h2.5v-4.5l7-4.9
		l0.9,0.4v9h6.1c0.7,0.7,0.6,2.5-0.4,3h-5.7v15.4c0,4.9,2.2,5.4,3.6,5.4c1.1,0,2.1-0.2,3.1-0.7l0.6,2.2L84.9,634.9z"/>
	<path fill="#231F20" d="M92.1,634.9v-2c3.6-0.4,4-0.7,4-5.1v-12.3c0-4.1-0.4-4.3-3.4-4.8v-1.8c3.7-0.4,7.9-1.2,11.3-2.2v21.2
		c0,4.3,0.3,4.6,4.1,5.1v2H92.1z M95.2,598.3c0-2.5,2.1-4.4,4.4-4.4c2.5,0,4.4,1.9,4.4,4.4c0,2.4-1.9,4.4-4.5,4.4
		C97.2,602.7,95.2,600.7,95.2,598.3z"/>
	<path fill="#231F20" d="M110,634.9v-2c3.7-0.6,4.1-0.9,4.1-4.9v-28.5c0-3.7-0.3-3.9-3.7-4.4v-1.8c3.6-0.4,8.2-1.2,11.7-2.2v37
		c0,4.2,0.4,4.4,4.2,4.9v2H110z"/>
</g>
<g>
	<path fill="#231F20" d="M158.3,645.4c-9.1-6.1-13.2-16.1-13.2-27.4c0-11.2,4.1-21.1,13.2-27.3l1.1,1.4c-6.2,5.2-9.8,15.2-9.8,25.9
		c0,10.7,3.6,20.8,9.8,26L158.3,645.4z"/>
</g>
<g>
	<path fill="#231F20" d="M191.3,629.1c-3.4,4.2-7.5,6.5-9.1,6.5c-1.2,0-2-0.9-1.1-5.5l1.2-5.9h-0.1c-2.4,3.4-5.4,6.4-8,8.6
		c-2.1,1.7-4.1,2.8-5.8,2.8c-1.6,0-3.6-2.1-3.6-7c0-6.3,2.9-13.1,7.5-16.9c3.1-2.6,7.7-4.8,11.6-4.8c1.3,0,2.6,0.2,3.9,0.4
		c0.9,0.2,1.7,0.4,2.4,0.4l0.2,0.2c-1,3.9-2.9,12.3-4.3,20.3c-0.4,2.2-0.2,2.7,0.1,2.7c0.5,0,2.7-1.4,4.5-3.2L191.3,629.1z
		 M183.2,619.4c0.7-2.5,1.6-7,2.1-9c-0.9-0.4-2.6-0.9-4.2-0.9c-1.6,0-3.4,0.5-4.4,1.3c-4.2,3.1-6.7,10.5-6.7,16.6
		c0,2.8,0.8,4.1,1.7,4.1C174,631.6,181,623.7,183.2,619.4z"/>
</g>
<g>
	<path fill="#231F20" d="M200.3,645v-54h10.6v1.7c-6.6,0.5-6.8,0.8-6.8,5.7v39.1c0,4.9,0.1,5.1,6.8,5.7v1.7H200.3z"/>
</g>
<g>
	<path fill="#231F20" d="M242.6,630c-2.9,4.6-5.5,5.7-6.9,5.7s-2.6-0.7-4.1-4.1c-1.5-3.2-3.2-7.2-4.7-11.6c-1.6,1.7-2.9,2.9-3.5,4
		c-0.7,3.4-1.4,7-2.1,10.5c-1.6,0.3-3.2,0.7-4.5,1.2l-0.4-0.4c3-12.7,5.8-25.2,8.5-38.2c0.5-2.5,0.2-2.7-2.2-2.8l-1.9-0.1l0.3-1.5
		c5-0.6,8.4-2.2,9.2-2.2c0.6,0,0.6,0.6,0.3,1.8c-2.1,9.3-4.1,18.5-6.2,27.7h0.1c1.9-2.3,3.6-3.9,5.4-5.6c3.5-3.6,8-7.5,10.9-7.5
		c1.7,0,2.6,1,2.6,1.9c0,0.7-0.6,1.9-1.2,2.5c-0.4,0.3-0.7,0.4-1,0.3c-0.6-0.2-1.3-0.5-2.4-0.5c-2.9,0-6.4,3.2-8.1,5.2
		c1.1,3.9,3.6,9.5,5.1,12.3c1.1,2.3,1.7,3,2.4,3c0.6,0,2-1.1,3.6-2.9L242.6,630z"/>
</g>
<g>
	<path fill="#231F20" d="M247.1,645v-1.7c6.7-0.6,6.9-0.9,6.9-5.8v-39c0-4.9-0.2-5.2-6.9-5.7v-1.7h10.7v54H247.1z"/>
	<path fill="#231F20" d="M282.5,614.9v-3.1h29.7v3.1H282.5z M282.5,626.3v-3.1h29.7v3.1H282.5z"/>
</g>
<g>
	<path fill="#231F20" d="M357.9,630c-2.9,4.6-5.5,5.7-6.9,5.7s-2.6-0.7-4.1-4.1c-1.5-3.2-3.2-7.2-4.7-11.6c-1.6,1.7-2.9,2.9-3.5,4
		c-0.7,3.4-1.4,7-2.1,10.5c-1.6,0.3-3.2,0.7-4.5,1.2l-0.4-0.4c3-12.7,5.8-25.2,8.5-38.2c0.5-2.5,0.2-2.7-2.2-2.8l-1.9-0.1l0.3-1.5
		c5-0.6,8.4-2.2,9.2-2.2c0.6,0,0.6,0.6,0.3,1.8c-2.1,9.3-4.1,18.5-6.2,27.7h0.1c1.9-2.3,3.6-3.9,5.4-5.6c3.5-3.6,8-7.5,10.9-7.5
		c1.7,0,2.6,1,2.6,1.9c0,0.7-0.6,1.9-1.2,2.5c-0.4,0.3-0.7,0.4-1,0.3c-0.6-0.2-1.3-0.5-2.4-0.5c-2.9,0-6.4,3.2-8.1,5.2
		c1.1,3.9,3.6,9.5,5.1,12.3c1.1,2.3,1.7,3,2.4,3c0.6,0,2-1.1,3.6-2.9L357.9,630z"/>
</g>
<g>
	<path fill="#231F20" d="M362.9,590.7c9.3,6.2,13.2,16.1,13.2,27.4s-3.9,21.1-13.2,27.4l-1.2-1.4c6.4-5.3,9.8-15.3,9.8-26
		c0-10.7-3.6-20.8-9.8-25.9L362.9,590.7z"/>
	<path fill="#231F20" d="M437.4,596.1c-4.2,0.5-5,1.1-7.4,6.7c-1.7,4.1-8.3,19.9-13,32.7h-1.9c-4.2-11.4-9.3-24.8-12.9-33.8
		c-1.8-4.7-2.8-5.2-6.5-5.5v-1.8H411v1.7c-4.4,0.5-4.7,0.9-3.7,3.7c1.6,4.4,6.2,16.5,10.3,27.2h0.1c3.1-7.8,7.9-19.9,9.8-26.2
		c1.2-3.6,0.8-4.1-4.2-4.7v-1.7h14V596.1z"/>
	<path fill="#231F20" d="M470.2,645.4c-9.1-6.1-13.2-16.1-13.2-27.4c0-11.2,4.1-21.1,13.2-27.3l1.1,1.4c-6.2,5.2-9.8,15.2-9.8,25.9
		c0,10.7,3.6,20.8,9.8,26L470.2,645.4z"/>
</g>
<g>
	<path fill="#231F20" d="M488.9,629.4c-2.1,2.6-6.9,6.2-9.1,6.2c-1.2,0-2.1-1-0.8-6.1l3.9-16c0.4-1.4,0.4-2-0.1-2
		c-0.5,0-2.4,1.1-4.2,2.7l-0.7-1.4c3.4-3.4,7.8-5.9,9.5-5.9c1.4,0,1.3,2,0.6,4.9l-4.3,17.2c-0.4,1.5-0.2,2,0.1,2
		c0.7,0,2.9-1.6,4.4-2.9L488.9,629.4z M490.5,597.7c0,1.9-1.4,3.6-3.3,3.6c-1.5,0-2.6-1.1-2.6-2.7c0-1.6,1.2-3.7,3.4-3.7
		C489.6,594.9,490.4,596.2,490.5,597.7z"/>
</g>
<g>
	<path fill="#231F20" d="M502.1,628v-3.4l25.6-11.3L502.1,602v-3.4l29.2,13.2v3.1L502.1,628z M502.1,634.9v-3.1h29.2v3.1H502.1z"/>
</g>
<g>
	<path fill="#231F20" d="M545.7,613.4c3.7-3.9,8-6.5,9.8-6.5c1.4,0,1.4,2.1,0.5,6.4c-1,5.3-2.1,10.5-3.5,17.5
		c-1.5,7.5-4,13-7.4,16.2c-3.1,3-5.5,3.9-6.7,3.9c-1.2,0-2.7-0.8-2.7-2c0-0.9,0.7-2.1,1.5-2.7c0.4-0.4,0.9-0.6,1.4-0.2
		c0.9,0.5,2,1,3.1,1c1.9,0,3.1-1.9,4.2-6.7c1.5-6.5,2.7-13.5,5-24.9c0.6-2.9,0.6-3.6,0.1-3.6c-0.6,0-2.9,1.6-4.6,3.1L545.7,613.4z
		 M558.2,597.3c0,1.9-1.4,3.6-3.2,3.6c-1.5,0-2.6-1.1-2.7-2.7c0-1.6,1.2-3.7,3.4-3.7C557.3,594.5,558.2,595.8,558.2,597.3z"/>
</g>
<g>
	<path fill="#231F20" d="M562.8,590.7c9.3,6.2,13.2,16.1,13.2,27.4s-3.9,21.1-13.2,27.4l-1.2-1.4c6.4-5.3,9.8-15.3,9.8-26
		c0-10.7-3.6-20.8-9.8-25.9L562.8,590.7z"/>
</g>
</svg>
