<?xml version="1.0" encoding="utf-8"?>
<!-- Generator: Adobe Illustrator 18.1.1, SVG Export Plug-In . SVG Version: 6.00 Build 0)  -->
<svg version="1.1" id="Layer_1" xmlns="http://www.w3.org/2000/svg" xmlns:xlink="http://www.w3.org/1999/xlink" x="0px" y="0px"
	 viewBox="0 0 1000 1000" enable-background="new 0 0 1000 1000" xml:space="preserve">
<g>
	<line fill="none" stroke="#000000" stroke-width="4" stroke-miterlimit="10" x1="694.5" y1="15" x2="500" y2="15"/>
	<line fill="none" stroke="#000000" stroke-width="4" stroke-miterlimit="10" x1="694.5" y1="48.4" x2="451.4" y2="48.4"/>
	<line fill="none" stroke="#000000" stroke-width="4" stroke-miterlimit="10" x1="668.6" y1="81.9" x2="451.4" y2="81.9"/>
	<line fill="none" stroke="#000000" stroke-width="4" stroke-miterlimit="10" x1="676.7" y1="115.3" x2="451.4" y2="115.3"/>
	<line fill="none" stroke="#000000" stroke-width="4" stroke-miterlimit="10" x1="699.4" y1="148.8" x2="451.4" y2="148.8"/>
	<line fill="none" stroke="#000000" stroke-width="4" stroke-miterlimit="10" x1="412.5" y1="182.2" x2="300.6" y2="182.2"/>
	<line fill="none" stroke="#000000" stroke-width="4" stroke-miterlimit="10" x1="699.4" y1="182.2" x2="579.7" y2="182.2"/>
	<line fill="none" stroke="#000000" stroke-width="4" stroke-miterlimit="10" x1="691.7" y1="215.7" x2="579.7" y2="215.7"/>
	<line fill="none" stroke="#000000" stroke-width="4" stroke-miterlimit="10" x1="691.7" y1="249.1" x2="579.7" y2="249.1"/>
	<line fill="none" stroke="#000000" stroke-width="4" stroke-miterlimit="10" x1="691.7" y1="275.2" x2="635.7" y2="275.2"/>
	<line fill="none" stroke="#000000" stroke-width="4" stroke-miterlimit="10" x1="397.8" y1="215.7" x2="300.6" y2="215.7"/>
	<line fill="none" stroke="#000000" stroke-width="4" stroke-miterlimit="10" x1="397.8" y1="249.1" x2="300.6" y2="249.1"/>
	<line fill="none" stroke="#000000" stroke-width="4" stroke-miterlimit="10" x1="397.8" y1="275.2" x2="348" y2="275.2"/>
	<line fill="none" stroke="#000000" stroke-width="4" stroke-miterlimit="10" x1="372.9" y1="316" x2="300.6" y2="316"/>
	<line fill="none" stroke="#000000" stroke-width="4" stroke-miterlimit="10" x1="652.1" y1="316" x2="579.7" y2="316"/>
	<line fill="none" stroke="#000000" stroke-width="4" stroke-miterlimit="10" x1="551.9" y1="349.5" x2="300.6" y2="349.5"/>
	<line fill="none" stroke="#000000" stroke-width="4" stroke-miterlimit="10" x1="551.9" y1="382.9" x2="300.6" y2="382.9"/>
	<line fill="none" stroke="#000000" stroke-width="4" stroke-miterlimit="10" x1="551.9" y1="416.4" x2="300.6" y2="416.4"/>
	<line fill="none" stroke="#000000" stroke-width="4" stroke-miterlimit="10" x1="535.7" y1="449.8" x2="300.6" y2="449.8"/>
	<line fill="none" stroke="#000000" stroke-width="4" stroke-miterlimit="10" x1="535.7" y1="483.3" x2="300.6" y2="483.3"/>
	<line fill="none" stroke="#000000" stroke-width="4" stroke-miterlimit="10" x1="699.4" y1="516.7" x2="451.4" y2="516.7"/>
	<line fill="none" stroke="#000000" stroke-width="4" stroke-miterlimit="10" x1="663.7" y1="550.2" x2="451.4" y2="550.2"/>
	<line fill="none" stroke="#000000" stroke-width="4" stroke-miterlimit="10" x1="699.4" y1="583.6" x2="451.4" y2="583.6"/>
	<line fill="none" stroke="#000000" stroke-width="4" stroke-miterlimit="10" x1="699.4" y1="617.1" x2="451.4" y2="617.1"/>
	<line fill="none" stroke="#000000" stroke-width="4" stroke-miterlimit="10" x1="522.7" y1="650.5" x2="451.4" y2="650.5"/>
	<line fill="none" stroke="#000000" stroke-width="4" stroke-miterlimit="10" x1="412.5" y1="684" x2="300.6" y2="684"/>
	<line fill="none" stroke="#000000" stroke-width="4" stroke-miterlimit="10" x1="397.8" y1="717.4" x2="300.6" y2="717.4"/>
	<line fill="none" stroke="#000000" stroke-width="4" stroke-miterlimit="10" x1="412.5" y1="750.9" x2="300.6" y2="750.9"/>
	<line fill="none" stroke="#000000" stroke-width="4" stroke-miterlimit="10" x1="404.9" y1="784.3" x2="300.6" y2="784.3"/>
	<line fill="none" stroke="#000000" stroke-width="4" stroke-miterlimit="10" x1="412.5" y1="817.8" x2="300.6" y2="817.8"/>
	<line fill="none" stroke="#000000" stroke-width="4" stroke-miterlimit="10" x1="699.4" y1="684" x2="587.5" y2="684"/>
	<line fill="none" stroke="#000000" stroke-width="4" stroke-miterlimit="10" x1="684.8" y1="717.4" x2="587.5" y2="717.4"/>
	<line fill="none" stroke="#000000" stroke-width="4" stroke-miterlimit="10" x1="699.4" y1="750.9" x2="587.5" y2="750.9"/>
	<line fill="none" stroke="#000000" stroke-width="4" stroke-miterlimit="10" x1="691.9" y1="784.3" x2="587.5" y2="784.3"/>
	<line fill="none" stroke="#000000" stroke-width="4" stroke-miterlimit="10" x1="699.4" y1="817.8" x2="587.5" y2="817.8"/>
	<line fill="none" stroke="#000000" stroke-width="4" stroke-miterlimit="10" x1="535.7" y1="851.2" x2="348" y2="851.2"/>
	<line fill="none" stroke="#000000" stroke-width="4" stroke-miterlimit="10" x1="514.1" y1="884.7" x2="300.6" y2="884.7"/>
	<line fill="none" stroke="#000000" stroke-width="4" stroke-miterlimit="10" x1="551.9" y1="918.1" x2="300.6" y2="918.1"/>
	<line fill="none" stroke="#000000" stroke-width="4" stroke-miterlimit="10" x1="541.1" y1="951.6" x2="300.6" y2="951.6"/>
	<line fill="none" stroke="#000000" stroke-width="4" stroke-miterlimit="10" x1="551.9" y1="985" x2="300.6" y2="985"/>
	<g>
		<rect x="300.6" y="15" fill="none" stroke="#000000" stroke-width="3" stroke-miterlimit="10" width="127.5" height="127.5"/>
		<line fill="none" stroke="#000000" stroke-width="3" stroke-miterlimit="10" x1="300.6" y1="142.5" x2="428.1" y2="15"/>
		<line fill="none" stroke="#000000" stroke-width="3" stroke-miterlimit="10" x1="428.1" y1="142.5" x2="300.6" y2="15"/>
	</g>
	<g>
		<rect x="436.2" y="182.2" fill="none" stroke="#000000" stroke-width="3" stroke-miterlimit="10" width="127.5" height="127.5"/>
		<line fill="none" stroke="#000000" stroke-width="3" stroke-miterlimit="10" x1="436.2" y1="309.8" x2="563.8" y2="182.2"/>
		<line fill="none" stroke="#000000" stroke-width="3" stroke-miterlimit="10" x1="563.8" y1="309.8" x2="436.2" y2="182.2"/>
	</g>
	<g>
		<rect x="571.9" y="349.5" fill="none" stroke="#000000" stroke-width="3" stroke-miterlimit="10" width="127.5" height="127.5"/>
		<line fill="none" stroke="#000000" stroke-width="3" stroke-miterlimit="10" x1="571.9" y1="477" x2="699.4" y2="349.5"/>
		<line fill="none" stroke="#000000" stroke-width="3" stroke-miterlimit="10" x1="699.4" y1="477" x2="571.9" y2="349.5"/>
	</g>
	<g>
		<rect x="300.6" y="510.2" fill="none" stroke="#000000" stroke-width="3" stroke-miterlimit="10" width="127.5" height="127.5"/>
		<line fill="none" stroke="#000000" stroke-width="3" stroke-miterlimit="10" x1="300.6" y1="637.8" x2="428.1" y2="510.2"/>
		<line fill="none" stroke="#000000" stroke-width="3" stroke-miterlimit="10" x1="428.1" y1="637.8" x2="300.6" y2="510.2"/>
	</g>
	<g>
		<rect x="436.2" y="684" fill="none" stroke="#000000" stroke-width="3" stroke-miterlimit="10" width="127.5" height="127.5"/>
		<line fill="none" stroke="#000000" stroke-width="3" stroke-miterlimit="10" x1="436.2" y1="811.5" x2="563.8" y2="684"/>
		<line fill="none" stroke="#000000" stroke-width="3" stroke-miterlimit="10" x1="563.8" y1="811.5" x2="436.2" y2="684"/>
	</g>
	<g>
		<rect x="571.9" y="851.2" fill="none" stroke="#000000" stroke-width="3" stroke-miterlimit="10" width="127.5" height="127.5"/>
		<line fill="none" stroke="#000000" stroke-width="3" stroke-miterlimit="10" x1="571.9" y1="978.7" x2="699.4" y2="851.2"/>
		<line fill="none" stroke="#000000" stroke-width="3" stroke-miterlimit="10" x1="699.4" y1="978.7" x2="571.9" y2="851.2"/>
	</g>
</g>
</svg>
