<?xml version="1.0" encoding="utf-8"?>
<!-- Generator: Adobe Illustrator 18.1.1, SVG Export Plug-In . SVG Version: 6.00 Build 0)  -->
<svg version="1.1" id="Layer_1" xmlns="http://www.w3.org/2000/svg" xmlns:xlink="http://www.w3.org/1999/xlink" x="0px" y="0px"
	 viewBox="0 0 1000 1000" enable-background="new 0 0 1000 1000" xml:space="preserve">
<g>
	<g>
		<rect x="541.9" y="60.1" fill="none" stroke="#000000" stroke-width="3" stroke-miterlimit="10" width="79.9" height="54.6"/>
		<line fill="none" stroke="#000000" stroke-width="3" stroke-miterlimit="10" x1="541.9" y1="114.8" x2="621.9" y2="60.1"/>
		<line fill="none" stroke="#000000" stroke-width="3" stroke-miterlimit="10" x1="621.9" y1="114.8" x2="541.9" y2="60.1"/>
	</g>
	<g>
		<rect x="525.4" y="215.1" fill="none" stroke="#000000" stroke-width="3" stroke-miterlimit="10" width="113" height="77.2"/>
		<line fill="none" stroke="#000000" stroke-width="3" stroke-miterlimit="10" x1="525.4" y1="292.4" x2="638.4" y2="215.1"/>
		<line fill="none" stroke="#000000" stroke-width="3" stroke-miterlimit="10" x1="638.4" y1="292.4" x2="525.4" y2="215.1"/>
	</g>
	<g>
		<rect x="517.5" y="371.1" fill="none" stroke="#000000" stroke-width="3" stroke-miterlimit="10" width="128.8" height="93.7"/>
		<line fill="none" stroke="#000000" stroke-width="3" stroke-miterlimit="10" x1="517.5" y1="464.8" x2="646.3" y2="371.1"/>
		<line fill="none" stroke="#000000" stroke-width="3" stroke-miterlimit="10" x1="646.3" y1="464.8" x2="517.5" y2="371.1"/>
	</g>
	<g>
		<rect x="513.3" y="527.4" fill="none" stroke="#000000" stroke-width="3" stroke-miterlimit="10" width="137.1" height="109.3"/>
		<line fill="none" stroke="#000000" stroke-width="3" stroke-miterlimit="10" x1="513.3" y1="636.7" x2="650.5" y2="527.4"/>
		<line fill="none" stroke="#000000" stroke-width="3" stroke-miterlimit="10" x1="650.5" y1="636.7" x2="513.3" y2="527.4"/>
	</g>
	<g>
		<rect x="509.7" y="684.8" fill="none" stroke="#000000" stroke-width="3" stroke-miterlimit="10" width="144.4" height="122.8"/>
		<line fill="none" stroke="#000000" stroke-width="3" stroke-miterlimit="10" x1="509.7" y1="807.7" x2="654.1" y2="684.8"/>
		<line fill="none" stroke="#000000" stroke-width="3" stroke-miterlimit="10" x1="654.1" y1="807.7" x2="509.7" y2="684.8"/>
	</g>
	<g>
		<rect x="499.1" y="837.6" fill="none" stroke="#000000" stroke-width="3" stroke-miterlimit="10" width="167.2" height="145.6"/>
		<line fill="none" stroke="#000000" stroke-width="3" stroke-miterlimit="10" x1="499.1" y1="983.2" x2="666.3" y2="837.6"/>
		<line fill="none" stroke="#000000" stroke-width="3" stroke-miterlimit="10" x1="666.3" y1="983.2" x2="499.1" y2="837.6"/>
	</g>
	<rect x="333.7" y="16.8" fill="none" stroke="#000000" stroke-miterlimit="10" width="332.6" height="145.6"/>
	<rect x="333.7" y="180.9" fill="none" stroke="#000000" stroke-miterlimit="10" width="332.6" height="145.6"/>
	<rect x="333.7" y="345.1" fill="none" stroke="#000000" stroke-miterlimit="10" width="332.6" height="145.6"/>
	<rect x="333.7" y="509.3" fill="none" stroke="#000000" stroke-miterlimit="10" width="332.6" height="145.6"/>
	<rect x="333.7" y="673.5" fill="none" stroke="#000000" stroke-miterlimit="10" width="332.6" height="145.6"/>
	<rect x="333.7" y="837.6" fill="none" stroke="#000000" stroke-miterlimit="10" width="332.6" height="145.6"/>
	<line fill="none" stroke="#000000" stroke-miterlimit="10" x1="500" y1="16.8" x2="500" y2="162.4"/>
	<line fill="none" stroke="#000000" stroke-miterlimit="10" x1="500" y1="180.9" x2="500" y2="326.5"/>
	<line fill="none" stroke="#000000" stroke-miterlimit="10" x1="500" y1="345.1" x2="500" y2="490.7"/>
	<line fill="none" stroke="#000000" stroke-miterlimit="10" x1="500" y1="509.3" x2="500" y2="654.9"/>
	<line fill="none" stroke="#000000" stroke-miterlimit="10" x1="500" y1="673.5" x2="500" y2="819.1"/>
	<line fill="none" stroke="#000000" stroke-miterlimit="10" x1="500" y1="837.6" x2="500" y2="983.2"/>
	<line fill="none" stroke="#000000" stroke-width="3" stroke-miterlimit="10" x1="358.2" y1="108.6" x2="470" y2="108.6"/>
	<line fill="none" stroke="#000000" stroke-width="3" stroke-miterlimit="10" x1="358.2" y1="275.3" x2="419.4" y2="275.3"/>
	<line fill="none" stroke="#000000" stroke-width="3" stroke-miterlimit="10" x1="358.2" y1="411.4" x2="419.4" y2="411.4"/>
	<line fill="none" stroke="#000000" stroke-width="3" stroke-miterlimit="10" x1="358.2" y1="425.1" x2="419.4" y2="425.1"/>
	<line fill="none" stroke="#000000" stroke-width="3" stroke-miterlimit="10" x1="358.2" y1="438.8" x2="419.4" y2="438.8"/>
	<line fill="none" stroke="#000000" stroke-width="3" stroke-miterlimit="10" x1="358.2" y1="606.6" x2="444.7" y2="606.6"/>
	<line fill="none" stroke="#000000" stroke-width="3" stroke-miterlimit="10" x1="358.2" y1="924.1" x2="444.7" y2="924.1"/>
	<line fill="none" stroke="#000000" stroke-width="3" stroke-miterlimit="10" x1="358.2" y1="937.9" x2="444.7" y2="937.9"/>
	<line fill="none" stroke="#000000" stroke-width="3" stroke-miterlimit="10" x1="358.2" y1="773.3" x2="400.4" y2="773.3"/>
</g>
</svg>
