<svg xmlns="http://www.w3.org/2000/svg" viewBox="0 0 1000 1000"><path d="M48.1 90.4h-5.4V5.9c-4.4.1-5.6.4-9.1 1.6V2.1C37.8.7 42.4 0 47.2 0H48.1v90.4zM137.4 90.4c-13 0-24.8-5.8-33-14.7l47.2-36.2c4.5-3.7 7.3-9.1 7.3-15.1 0-11.1-9.5-19.4-21.3-19.4-11.7 0-20.9 8.3-20.9 19.4 0 1.6.2 3.2.6 4.7h-5.2c-.3-1.5-.5-3.1-.5-4.6 0-13.5 11.8-24.4 26-24.4s26.3 10.9 26.3 24.4c0 6.7-2.9 12.8-7.5 17.2l-44.2 33.9c7 5.9 15.4 9.4 25.3 9.4 9.7 0 18.6-3.4 25.6-9.1.9.1 2.2.1 3.5.1 1.4 0 2.9 0 4-.1-8.2 8.9-20 14.5-33.2 14.5zM266.2 59.9c0 16.6-16.6 30.1-37.1 30.1-19.2 0-35-11.9-36.9-27.1h7.4c1.9 11.4 14 20.2 29.5 20.2 16.8 0 30.3-10.7 30.3-23.5 0-5.1-3.8-9.9-7.5-13.7-2.7-2.7-5.8-3.2-13.7-3.2H216v-5.3h22.1c5.2 0 9.8-.3 13-4.6 2.1-2.5 3.3-5.4 3.3-8.5 0-9.9-9.8-18.3-25.1-18.3-13.7 0-24.5 6.8-26.7 15.4h-7.2C197.4 9.1 211.6 0 229.2 0c19 0 31.9 10.7 31.9 24.3 0 5.6-2.6 10.7-7 14.9 7.1 4.6 12.1 12.7 12.1 20.7zM363.8 49.7c-.3 3.1-.9 6.1-1.8 8.9h-29.3v29.6c-2.9.9-5.8 1.6-8.9 1.9V58.7h-48c-1.3-4.3-2-8.8-2-13.5C273.8 20.2 294 0 319 0c5.1 0 9.7.8 13.8 2.1v47.6h31zm-40-40.4c-1.8-.3-3.6-.4-5.4-.4-19.9 0-36 16.1-36 36 0 1.6.1 3.2.3 4.8h41.1V9.3zM431.4 18c-6.4-5.5-13.4-8.3-22.3-8.3-11.3 0-21.5 6.5-27.6 14.9v11.8c7.2-6.7 18.4-10.7 30.3-10.7 21.4 0 38.8 14 38.8 31.2 0 6.8-2.8 13.1-7.4 18.2-8.3 9.4-20.4 15.3-33.9 15.3-17.3 0-32.3-9.7-39.9-23.9h12.2c6.2 8.4 17 13.9 29 13.9 15.9 0 29.1-10.1 29.1-22.6 0-12.5-12.9-22.9-28.8-22.9-10.4 0-24.1 5.7-29.1 12.2h-11.1V21.7C378.8 8.7 393.1 0 409.5 0c14.7 0 27.8 7.1 36 18h-14.1zM541.2 56.9c0 6.8-2.8 13.1-7.4 18.2-8.3 9.4-20.4 15.3-33.9 15.3-25 0-45.1-20.2-45.1-45.2C454.8 20.2 475 0 500 0c16.3 0 30.6 8.7 38.5 21.7h-14.2c-6.1-6.6-14.8-10.7-24.6-10.7-18.4 0-33.3 14.6-33.3 32.5v.8c6.1-11 20-18.6 36-18.6 21.4-.1 38.8 13.9 38.8 31.2zm-11.1.8c0-12.5-12.9-22.6-28.8-22.6s-28.8 10.1-28.8 22.6c0 12.5 12.9 22.6 28.8 22.6s28.8-10.1 28.8-22.6zM590.6 90.4c-8.8 0-17-2.5-23.9-6.8l32.7-45.2c.3-.8.5-1.6.5-2.5 0-4.8-5.1-8-9.9-8s-9.9 3.2-9.9 8.3h-26.4V19.5C561.9 7.7 575.2 0 590.6 0c19.9 0 36.8 12.7 42.8 30.6l-40 59.7c-1 0-1.9.1-2.8.1zM719.8 59.7c0 16.7-17.3 30.3-38.7 30.3-21.4 0-38.7-13.6-38.7-30.3 0-9.8 5.9-18.5 15.1-24-3.5-3.7-5.5-8.2-5.5-13.2C652 10.1 665.1 0 681.2 0s29.2 10.1 29.2 22.5c0 4.9-2.1 9.5-5.6 13.2 9.2 5.6 15 14.3 15 24zm-22.5-.3c0-8-7.3-14.6-16.4-14.6-9 0-16.4 6.5-16.4 14.6S671.9 74 680.9 74c9.1 0 16.4-6.6 16.4-14.6zm-26.9-37.3c0 3.9 4.7 7 10.6 7 5.8 0 10.6-3.1 10.6-7s-4.7-7-10.6-7c-5.9 0-10.6 3.1-10.6 7zM816.9 45.2c0 25-20.2 45.2-45.2 45.2-18.9 0-35.2-11.7-41.9-28.2h20.7c4.9 6.4 12.7 10.5 21.4 10.5 12.1 0 22.3-7.8 25.7-18.7-6.8 5.1-15.9 8.2-26 8.2-21.2 0-38.4-13.9-38.4-31.1S750.4 0 771.7 0c24.9 0 45.2 20.2 45.2 45.2zm-28.4-14.1c0-8.2-7.5-14.9-16.8-14.9s-16.8 6.7-16.8 14.9S762.4 46 771.7 46s16.8-6.7 16.8-14.9zM863.1 90.4h-5.4V5.9c-4.4.1-5.6.4-9.1 1.6V2.1C852.9.7 857.5 0 862.2 0H863.1v90.4zM953.7 90.4h-5.4V5.9c-4.4.1-5.6.4-9.1 1.6V2.1C943.5.7 948 0 952.8 0H953.7v90.4zM970.1 81.6h-1.7V54.9c-1.4 0-1.8.1-2.9.5v-1.7c1.4-.4 2.8-.7 4.3-.7H970.1v28.6zM48.1 204.1h-5.4v-84.5c-4.4.1-5.6.4-9.1 1.6v-5.4c4.3-1.4 8.9-2.1 13.6-2.1H48.1v90.4zM64.1 195.3c-4.1 0-7.8-1.8-10.4-4.6l14.9-11.4c1.4-1.2 2.3-2.9 2.3-4.8 0-3.5-3-6.1-6.7-6.1s-6.6 2.6-6.6 6.1c0 .5.1 1 .2 1.5h-1.7c-.1-.5-.1-1-.1-1.5 0-4.3 3.7-7.7 8.2-7.7 4.5 0 8.3 3.5 8.3 7.7 0 2.1-.9 4-2.4 5.4l-13.9 10.7c2.2 1.8 4.9 3 8 3 3.1 0 5.9-1.1 8.1-2.9H74.7c-2.8 2.8-6.5 4.6-10.6 4.6zM138.7 204.1h-5.4v-84.5c-4.4.1-5.6.4-9.1 1.6v-5.4c4.3-1.4 8.9-2.1 13.6-2.1H138.7v90.4zM166.7 185.7c0 5.2-5.2 9.5-11.7 9.5-6.1 0-11-3.7-11.6-8.5h2.3c.6 3.6 4.4 6.4 9.3 6.4 5.3 0 9.6-3.4 9.6-7.4 0-1.6-1.2-3.1-2.4-4.3-.9-.9-1.8-1-4.3-1h-7v-1.7h7c1.6 0 3.1-.1 4.1-1.4.7-.8 1-1.7 1-2.7 0-3.1-3.1-5.8-7.9-5.8-4.3 0-7.7 2.1-8.4 4.9h-2.3c.6-3.9 5.1-6.7 10.7-6.7 6 0 10.1 3.4 10.1 7.7 0 1.8-.8 3.4-2.2 4.7 2.1 1.2 3.7 3.7 3.7 6.3zM229.2 204.1h-5.4v-84.5c-4.4.1-5.6.4-9.1 1.6v-5.4c4.3-1.4 8.9-2.1 13.6-2.1H229.2v90.4zM259.5 182.5c-.1 1-.3 1.9-.6 2.8h-9.3v9.3c-.9.3-1.8.5-2.8.6v-9.9h-15.1c-.4-1.3-.6-2.8-.6-4.2 0-7.9 6.4-14.2 14.2-14.2 1.6 0 3.1.3 4.3.7v15h9.9zm-12.6-12.8c-.6-.1-1.1-.1-1.7-.1-6.3 0-11.4 5.1-11.4 11.4 0 .5 0 1 .1 1.5h13v-12.8zM319.8 204.1h-5.4v-84.5c-4.4.1-5.6.4-9.1 1.6v-5.4c4.3-1.4 8.9-2.1 13.6-2.1H319.8v90.4zM342.8 172.5c-2-1.7-4.2-2.6-7-2.6-3.6 0-6.8 2-8.7 4.7v3.7c2.3-2.1 5.8-3.4 9.6-3.4 6.8 0 12.2 4.4 12.2 9.9 0 2.1-.9 4.1-2.3 5.7-2.6 3-6.4 4.8-10.7 4.8-5.4 0-10.2-3.1-12.6-7.6h3.8c1.9 2.6 5.4 4.4 9.1 4.4 5 0 9.2-3.2 9.2-7.1s-4.1-7.2-9.1-7.2c-3.3 0-7.6 1.8-9.2 3.9h-3.5v-8c2.5-4.1 7-6.8 12.2-6.8 4.6 0 8.8 2.2 11.4 5.7l-4.4-.1zM410.3 204.1h-5.4v-84.5c-4.4.1-5.6.4-9.1 1.6v-5.4c4.3-1.4 8.9-2.1 13.6-2.1H410.3v90.4zM439.4 184.7c0 2.1-.9 4.1-2.3 5.7-2.6 3-6.4 4.8-10.7 4.8-7.9 0-14.2-6.4-14.2-14.2 0-7.9 6.4-14.2 14.2-14.2 5.1 0 9.6 2.7 12.1 6.8H434c-1.9-2.1-4.7-3.4-7.8-3.4-5.8 0-10.5 4.6-10.5 10.3v.2c1.9-3.5 6.3-5.9 11.3-5.9 7 .1 12.4 4.5 12.4 9.9zm-3.5.3c0-3.9-4.1-7.1-9.1-7.1s-9.1 3.2-9.1 7.1 4.1 7.1 9.1 7.1 9.1-3.2 9.1-7.1zM500.9 204.1h-5.4v-84.5c-4.4.1-5.6.4-9.1 1.6v-5.4c4.3-1.4 8.9-2.1 13.6-2.1H500.9v90.4zM517 195.3c-2.8 0-5.4-.8-7.5-2.2l10.3-14.3c.1-.2.2-.5.2-.8 0-1.5-1.6-2.5-3.1-2.5s-3.1 1-3.1 2.6h-8.3v-5.3c2.6-3.7 6.8-6.1 11.6-6.1 6.3 0 11.6 4 13.5 9.7L518 195.2c-.4.1-.7.1-1 .1zM591.5 204.1h-5.4v-84.5c-4.4.1-5.6.4-9.1 1.6v-5.4c4.3-1.4 8.9-2.1 13.6-2.1H591.5v90.4zM619.8 185.6c0 5.3-5.5 9.6-12.2 9.6-6.7 0-12.2-4.3-12.2-9.6 0-3.1 1.9-5.8 4.8-7.6-1.1-1.2-1.7-2.6-1.7-4.1 0-3.9 4.1-7.1 9.2-7.1s9.2 3.2 9.2 7.1c0 1.6-.7 3-1.8 4.2 2.8 1.7 4.7 4.4 4.7 7.5zm-7.1-.1c0-2.5-2.3-4.6-5.2-4.6-2.8 0-5.2 2.1-5.2 4.6 0 2.5 2.3 4.6 5.2 4.6 2.8 0 5.2-2.1 5.2-4.6zm-8.5-11.7c0 1.2 1.5 2.2 3.3 2.2 1.8 0 3.3-1 3.3-2.2 0-1.2-1.5-2.2-3.3-2.2-1.8-.1-3.3.9-3.3 2.2zM682 204.1h-5.4v-84.5c-4.4.1-5.6.4-9.1 1.6v-5.4c4.3-1.4 8.9-2.1 13.6-2.1H682v90.4zM712.4 181c0 7.9-6.4 14.2-14.2 14.2-6 0-11.1-3.7-13.2-8.9h6.5c1.5 2 4 3.3 6.8 3.3 3.8 0 7-2.5 8.1-5.9-2.2 1.6-5 2.6-8.2 2.6-6.7 0-12.1-4.4-12.1-9.8s5.4-9.8 12.1-9.8c7.8.1 14.2 6.5 14.2 14.3zm-9-4.4c0-2.6-2.4-4.7-5.3-4.7s-5.3 2.1-5.3 4.7 2.4 4.7 5.3 4.7 5.3-2.1 5.3-4.7zM771.4 204.1c-13 0-24.8-5.8-33-14.7l47.2-36.2c4.5-3.7 7.3-9.1 7.3-15.1 0-11.1-9.5-19.4-21.3-19.4s-20.9 8.3-20.9 19.4c0 1.6.2 3.2.6 4.7H746c-.3-1.5-.5-3.1-.5-4.6 0-13.5 11.8-24.4 26-24.4s26.3 10.9 26.3 24.4c0 6.7-2.9 12.8-7.5 17.2l-44.2 33.9c7 5.9 15.4 9.4 25.3 9.4 9.7 0 18.6-3.4 25.6-9.1.9.1 2.2.1 3.5.1 1.4 0 2.9 0 4-.1-8.2 8.9-20 14.5-33.1 14.5zM861.9 204.1c-13 0-24.8-5.8-33-14.7l47.2-36.2c4.5-3.7 7.3-9.1 7.3-15.1 0-11.1-9.5-19.4-21.3-19.4s-20.9 8.3-20.9 19.4c0 1.6.2 3.2.6 4.7h-5.2c-.3-1.5-.5-3.1-.5-4.6 0-13.5 11.8-24.4 26-24.4s26.3 10.9 26.3 24.4c0 6.7-2.9 12.8-7.5 17.2l-44.2 33.9c7 5.9 15.4 9.4 25.3 9.4 9.7 0 18.6-3.4 25.6-9.1.9.1 2.2.1 3.5.1 1.4 0 2.9 0 4-.1-8.3 8.9-20.1 14.5-33.2 14.5z"/><path d="M883.5 187.6h-1.7V161c-1.4 0-1.8.1-2.9.5v-1.7c1.4-.4 2.8-.7 4.3-.7H883.5v28.5zM952.5 204.1c-13 0-24.8-5.8-33-14.7l47.2-36.2c4.5-3.7 7.3-9.1 7.3-15.1 0-11.1-9.5-19.4-21.3-19.4s-20.9 8.3-20.9 19.4c0 1.6.2 3.2.6 4.7h-5.2c-.3-1.5-.5-3.1-.5-4.6 0-13.5 11.8-24.4 26-24.4s26.3 10.9 26.3 24.4c0 6.7-2.9 12.8-7.5 17.2l-44.2 33.9c7 5.9 15.4 9.4 25.3 9.4 9.7 0 18.6-3.4 25.6-9.1.9.1 2.2.1 3.5.1 1.4 0 2.9 0 4-.1-8.3 8.9-20.1 14.5-33.2 14.5z"/><path d="M973.7 187.6c-4.1 0-7.8-1.8-10.4-4.6l14.9-11.4c1.4-1.2 2.3-2.9 2.3-4.8 0-3.5-3-6.1-6.7-6.1s-6.6 2.6-6.6 6.1c0 .5.1 1 .2 1.5h-1.7c-.1-.5-.1-1-.1-1.5 0-4.3 3.7-7.7 8.2-7.7 4.5 0 8.3 3.5 8.3 7.7 0 2.1-.9 4-2.4 5.4l-13.9 10.7c2.2 1.8 4.9 3 8 3 3.1 0 5.9-1.1 8.1-2.9H984.3c-2.8 2.8-6.5 4.6-10.6 4.6zM46.9 317.8c-13 0-24.8-5.8-33-14.7l47.2-36.2c4.5-3.7 7.3-9.1 7.3-15.1 0-11.1-9.5-19.4-21.3-19.4-11.7 0-20.9 8.3-20.9 19.4 0 1.6.2 3.2.6 4.7h-5.2c-.3-1.5-.5-3.1-.5-4.6 0-13.5 11.8-24.4 26-24.4s26.3 10.9 26.3 24.4c0 6.7-2.9 12.8-7.5 17.2L21.6 303c7 5.9 15.4 9.4 25.3 9.4 9.7 0 18.6-3.4 25.6-9.1.9.1 2.2.1 3.5.1 1.4 0 2.9 0 4-.1-8.2 8.9-20 14.5-33.1 14.5z"/><path d="M80.1 291.7c0 5.2-5.2 9.5-11.7 9.5-6.1 0-11-3.7-11.6-8.5H59c.6 3.6 4.4 6.4 9.3 6.4 5.3 0 9.6-3.4 9.6-7.4 0-1.6-1.2-3.1-2.4-4.3-.9-.9-1.8-1-4.3-1h-7v-1.7h7c1.6 0 3.1-.1 4.1-1.4.7-.8 1-1.7 1-2.7 0-3.1-3.1-5.8-7.9-5.8-4.3 0-7.7 2.1-8.4 4.9h-2.3c.6-3.9 5.1-6.7 10.7-6.7 6 0 10.1 3.4 10.1 7.7 0 1.8-.8 3.4-2.2 4.7 2.2 1.2 3.8 3.7 3.8 6.3zM137.4 317.8c-13 0-24.8-5.8-33-14.7l47.2-36.2c4.5-3.7 7.3-9.1 7.3-15.1 0-11.1-9.5-19.4-21.3-19.4-11.7 0-20.9 8.3-20.9 19.4 0 1.6.2 3.2.6 4.7h-5.2c-.3-1.5-.5-3.1-.5-4.6 0-13.5 11.8-24.4 26-24.4s26.3 10.9 26.3 24.4c0 6.7-2.9 12.8-7.5 17.2L112.2 303c7 5.9 15.4 9.4 25.3 9.4 9.7 0 18.6-3.4 25.6-9.1.9.1 2.2.1 3.5.1 1.4 0 2.9 0 4-.1-8.2 8.9-20 14.5-33.2 14.5z"/><path d="M172.9 288.4c-.1 1-.3 1.9-.6 2.8H163v9.3c-.9.3-1.8.5-2.8.6v-9.9h-15.1c-.4-1.3-.6-2.8-.6-4.2 0-7.9 6.4-14.2 14.2-14.2 1.6 0 3.1.3 4.3.7v15h9.9zm-12.7-12.7c-.6-.1-1.1-.1-1.7-.1-6.3 0-11.4 5.1-11.4 11.4 0 .5 0 1 .1 1.5h13v-12.8zM228 317.8c-13 0-24.8-5.8-33-14.7l47.2-36.2c4.5-3.7 7.3-9.1 7.3-15.1 0-11.1-9.5-19.4-21.3-19.4-11.7 0-20.9 8.3-20.9 19.4 0 1.6.2 3.2.6 4.7h-5.2c-.3-1.5-.5-3.1-.5-4.6 0-13.5 11.8-24.4 26-24.4s26.3 10.9 26.3 24.4c0 6.7-2.9 12.8-7.5 17.2L202.8 303c7 5.9 15.4 9.4 25.3 9.4 9.7 0 18.6-3.4 25.6-9.1.9.1 2.2.1 3.5.1 1.4 0 2.9 0 4-.1-8.3 8.9-20.1 14.5-33.2 14.5z"/><path d="M256.2 278.4c-2-1.7-4.2-2.6-7-2.6-3.6 0-6.8 2-8.7 4.7v3.7c2.3-2.1 5.8-3.4 9.6-3.4 6.8 0 12.2 4.4 12.2 9.9 0 2.1-.9 4.1-2.3 5.7-2.6 3-6.4 4.8-10.7 4.8-5.4 0-10.2-3.1-12.6-7.6h3.8c1.9 2.6 5.4 4.4 9.1 4.4 5 0 9.2-3.2 9.2-7.1 0-3.9-4.1-7.2-9.1-7.2-3.3 0-7.6 1.8-9.2 3.9H237v-8c2.5-4.1 7-6.8 12.2-6.8 4.6 0 8.8 2.2 11.4 5.7h-4.4zM318.6 317.8c-13 0-24.8-5.8-33-14.7l47.2-36.2c4.5-3.7 7.3-9.1 7.3-15.1 0-11.1-9.5-19.4-21.3-19.4-11.7 0-20.9 8.3-20.9 19.4 0 1.6.2 3.2.6 4.7h-5.2c-.3-1.5-.5-3.1-.5-4.6 0-13.5 11.8-24.4 26-24.4s26.3 10.9 26.3 24.4c0 6.7-2.9 12.8-7.5 17.2L293.3 303c7 5.9 15.4 9.4 25.3 9.4 9.7 0 18.6-3.4 25.6-9.1.9.1 2.2.1 3.5.1 1.4 0 2.9 0 4-.1-8.2 8.9-20 14.5-33.1 14.5z"/><path d="M352.8 290.7c0 2.1-.9 4.1-2.3 5.7-2.6 3-6.4 4.8-10.7 4.8-7.9 0-14.2-6.4-14.2-14.2 0-7.9 6.4-14.2 14.2-14.2 5.1 0 9.6 2.7 12.1 6.8h-4.5c-1.9-2.1-4.7-3.4-7.8-3.4-5.8 0-10.5 4.6-10.5 10.3v.2c1.9-3.5 6.3-5.9 11.3-5.9 6.9.1 12.4 4.5 12.4 9.9zm-3.5.3c0-3.9-4.1-7.1-9.1-7.1s-9.1 3.2-9.1 7.1c0 3.9 4.1 7.1 9.1 7.1s9.1-3.2 9.1-7.1zM409.1 317.8c-13 0-24.8-5.8-33-14.7l47.2-36.2c4.5-3.7 7.3-9.1 7.3-15.1 0-11.1-9.5-19.4-21.3-19.4-11.7 0-20.9 8.3-20.9 19.4 0 1.6.2 3.2.6 4.7h-5.2c-.3-1.5-.5-3.1-.5-4.6 0-13.5 11.8-24.4 26-24.4s26.3 10.9 26.3 24.4c0 6.7-2.9 12.8-7.5 17.2L383.9 303c7 5.9 15.4 9.4 25.3 9.4 9.7 0 18.6-3.4 25.6-9.1.9.1 2.2.1 3.5.1 1.4 0 2.9 0 4-.1-8.3 8.9-20.1 14.5-33.2 14.5z"/><path d="M430.4 301.3c-2.8 0-5.4-.8-7.5-2.2l10.3-14.3c.1-.2.2-.5.2-.8 0-1.5-1.6-2.5-3.1-2.5s-3.1 1-3.1 2.6h-8.3v-5.3c2.6-3.7 6.8-6.1 11.6-6.1 6.3 0 11.6 4 13.5 9.7l-12.6 18.8c-.4 0-.7.1-1 .1zM499.7 317.8c-13 0-24.8-5.8-33-14.7l47.2-36.2c4.5-3.7 7.3-9.1 7.3-15.1 0-11.1-9.5-19.4-21.3-19.4-11.7 0-20.9 8.3-20.9 19.4 0 1.6.2 3.2.6 4.7h-5.2c-.3-1.5-.5-3.1-.5-4.6 0-13.5 11.8-24.4 26-24.4s26.3 10.9 26.3 24.4c0 6.7-2.9 12.8-7.5 17.2L474.4 303c7 5.9 15.4 9.4 25.3 9.4 9.7 0 18.6-3.4 25.6-9.1.9.1 2.2.1 3.5.1 1.4 0 2.9 0 4-.1-8.2 8.9-20 14.5-33.1 14.5z"/><path d="M533.2 291.6c0 5.3-5.5 9.6-12.2 9.6-6.7 0-12.2-4.3-12.2-9.6 0-3.1 1.9-5.8 4.8-7.6-1.1-1.2-1.7-2.6-1.7-4.1 0-3.9 4.1-7.1 9.2-7.1s9.2 3.2 9.2 7.1c0 1.6-.7 3-1.8 4.2 2.8 1.7 4.7 4.4 4.7 7.5zm-7.1-.1c0-2.5-2.3-4.6-5.2-4.6-2.8 0-5.2 2.1-5.2 4.6 0 2.5 2.3 4.6 5.2 4.6 2.8 0 5.2-2.1 5.2-4.6zm-8.5-11.8c0 1.2 1.5 2.2 3.3 2.2s3.3-1 3.3-2.2c0-1.2-1.5-2.2-3.3-2.2s-3.3 1-3.3 2.2zM590.3 317.8c-13 0-24.8-5.8-33-14.7l47.2-36.2c4.5-3.7 7.3-9.1 7.3-15.1 0-11.1-9.5-19.4-21.3-19.4s-20.9 8.3-20.9 19.4c0 1.6.2 3.2.6 4.7H565c-.3-1.5-.5-3.1-.5-4.6 0-13.5 11.8-24.4 26-24.4s26.3 10.9 26.3 24.4c0 6.7-2.9 12.8-7.5 17.2L565 303c7 5.9 15.4 9.4 25.3 9.4 9.7 0 18.6-3.4 25.6-9.1.9.1 2.2.1 3.5.1 1.4 0 2.9 0 4-.1-8.2 8.9-20 14.5-33.1 14.5z"/><path d="M625.8 287c0 7.9-6.4 14.2-14.2 14.2-6 0-11.1-3.7-13.2-8.9h6.5c1.6 2 4 3.3 6.8 3.3 3.8 0 7-2.5 8.1-5.9-2.2 1.6-5 2.6-8.2 2.6-6.7 0-12.1-4.4-12.1-9.8s5.4-9.8 12.1-9.8c7.8.1 14.2 6.4 14.2 14.3zm-9-4.4c0-2.6-2.4-4.7-5.3-4.7s-5.3 2.1-5.3 4.7 2.4 4.7 5.3 4.7 5.3-2.1 5.3-4.7zM719 287.3c0 16.6-16.6 30.1-37.1 30.1-19.2 0-35-11.9-36.9-27.1h7.4c1.9 11.4 14 20.2 29.5 20.2 16.8 0 30.3-10.7 30.3-23.5 0-5.1-3.8-9.9-7.5-13.7-2.7-2.7-5.8-3.2-13.7-3.2h-22.1v-5.3H691c5.2 0 9.8-.3 13-4.6 2.1-2.5 3.3-5.4 3.3-8.5 0-9.9-9.8-18.3-25.1-18.3-13.7 0-24.5 6.8-26.7 15.4h-7.2c2.1-12.2 16.3-21.4 33.9-21.4 19 0 31.9 10.7 31.9 24.3 0 5.6-2.6 10.7-7 14.9 6.9 4.6 11.9 12.7 11.9 20.7zM809.5 287.3c0 16.6-16.6 30.1-37.1 30.1-19.2 0-35-11.9-36.9-27.1h7.4c1.9 11.4 14 20.2 29.5 20.2 16.8 0 30.3-10.7 30.3-23.5 0-5.1-3.8-9.9-7.5-13.7-2.7-2.7-5.8-3.2-13.7-3.2h-22.1v-5.3h22.1c5.2 0 9.8-.3 13-4.6 2.1-2.5 3.3-5.4 3.3-8.5 0-9.9-9.8-18.3-25.1-18.3-13.7 0-24.5 6.8-26.7 15.4h-7.2c2.1-12.2 16.3-21.4 33.9-21.4 19 0 31.9 10.7 31.9 24.3 0 5.6-2.6 10.7-7 14.9 6.9 4.6 11.9 12.7 11.9 20.7z"/><path d="M771.8 301.1h-1.7v-26.6c-1.4 0-1.8.1-2.9.5v-1.7c1.4-.4 2.8-.7 4.3-.7H771.8v28.5zM900.1 287.3c0 16.6-16.6 30.1-37.1 30.1-19.2 0-35-11.9-36.9-27.1h7.4c1.9 11.4 14 20.2 29.5 20.2 16.8 0 30.3-10.7 30.3-23.5 0-5.1-3.8-9.9-7.5-13.7-2.7-2.7-5.8-3.2-13.7-3.2H850v-5.3h22c5.2 0 9.8-.3 13-4.6 2.1-2.5 3.3-5.4 3.3-8.5 0-9.9-9.8-18.3-25.1-18.3-13.7 0-24.5 6.8-26.7 15.4h-7.2c2.1-12.2 16.3-21.4 33.9-21.4 19 0 31.9 10.7 31.9 24.3 0 5.6-2.6 10.7-7 14.9 7 4.6 12 12.7 12 20.7z"/><path d="M862 301.1c-4.1 0-7.8-1.8-10.4-4.6l14.9-11.4c1.4-1.2 2.3-2.9 2.3-4.8 0-3.5-3-6.1-6.7-6.1s-6.6 2.6-6.6 6.1c0 .5.1 1 .2 1.5H854c-.1-.5-.1-1-.1-1.5 0-4.3 3.7-7.7 8.2-7.7 4.5 0 8.3 3.5 8.3 7.7 0 2.1-.9 4-2.4 5.4l-14 10.8c2.2 1.8 4.9 3 8 3 3.1 0 5.9-1.1 8.1-2.9H872.5c-2.6 2.7-6.4 4.5-10.5 4.5zM990.6 287.3c0 16.6-16.6 30.1-37.1 30.1-19.2 0-35-11.9-36.9-27.1h7.4c1.9 11.4 14 20.2 29.5 20.2 16.8 0 30.3-10.7 30.3-23.5 0-5.1-3.8-9.9-7.5-13.7-2.7-2.7-5.8-3.2-13.7-3.2h-22.1v-5.3h22.1c5.2 0 9.8-.3 13-4.6 2.1-2.5 3.3-5.4 3.3-8.5 0-9.9-9.8-18.3-25.1-18.3-13.7 0-24.5 6.8-26.7 15.4h-7.2c2.1-12.2 16.3-21.4 33.9-21.4 19 0 31.9 10.7 31.9 24.3 0 5.6-2.6 10.7-7 14.9 6.9 4.6 11.9 12.7 11.9 20.7z"/><path d="M964.6 291.5c0 5.2-5.2 9.5-11.7 9.5-6.1 0-11-3.7-11.6-8.5h2.3c.6 3.6 4.4 6.4 9.3 6.4 5.3 0 9.6-3.4 9.6-7.4 0-1.6-1.2-3.1-2.4-4.3-.9-.9-1.8-1-4.3-1h-7v-1.7h7c1.6 0 3.1-.1 4.1-1.4.7-.8 1-1.7 1-2.7 0-3.1-3.1-5.8-7.9-5.8-4.3 0-7.7 2.1-8.4 4.9h-2.3c.6-3.9 5.1-6.7 10.7-6.7 6 0 10.1 3.4 10.1 7.7 0 1.8-.8 3.4-2.2 4.7 2.1 1.2 3.7 3.8 3.7 6.3zM85 401c0 16.6-16.6 30.1-37.1 30.1-19.2 0-35-11.9-36.9-27.1h7.4c1.9 11.4 14 20.2 29.5 20.2 16.8 0 30.3-10.7 30.3-23.5 0-5.1-3.8-9.9-7.5-13.7-2.7-2.7-5.8-3.2-13.7-3.2H34.9v-5.3H57c5.2 0 9.8-.3 13-4.6 2.1-2.5 3.3-5.4 3.3-8.5 0-9.9-9.8-18.3-25.1-18.3-13.7 0-24.5 6.8-26.7 15.4h-7.2c2.1-12.2 16.3-21.4 33.9-21.4 19 0 31.9 10.7 31.9 24.3 0 5.6-2.6 10.7-7 14.9C80 384.9 85 393 85 401z"/><path d="M61.2 402c-.1 1-.3 1.9-.6 2.8h-9.3v9.3c-.9.3-1.8.5-2.8.6v-9.9H33.4c-.4-1.3-.6-2.8-.6-4.2 0-7.9 6.4-14.2 14.2-14.2 1.6 0 3.1.3 4.3.7v15h9.9zm-12.6-12.7c-.6-.1-1.1-.1-1.7-.1-6.3 0-11.4 5.1-11.4 11.4 0 .5 0 1 .1 1.5h13v-12.8zM175.6 401c0 16.6-16.6 30.1-37.1 30.1-19.2 0-35-11.9-36.9-27.1h7.4c1.9 11.4 14 20.2 29.5 20.2 16.8 0 30.3-10.7 30.3-23.5 0-5.1-3.8-9.9-7.5-13.7-2.7-2.7-5.8-3.2-13.7-3.2h-22.1v-5.3h22.1c5.2 0 9.8-.3 13-4.6 2.1-2.5 3.3-5.4 3.3-8.5 0-9.9-9.8-18.3-25.1-18.3-13.7 0-24.5 6.8-26.7 15.4h-7.2c2.1-12.2 16.3-21.4 33.9-21.4 19 0 31.9 10.7 31.9 24.3 0 5.6-2.6 10.7-7 14.9 6.9 4.6 11.9 12.7 11.9 20.7z"/><path d="M144.5 392c-2-1.7-4.2-2.6-7-2.6-3.6 0-6.8 2-8.7 4.7v3.7c2.3-2.1 5.8-3.4 9.6-3.4 6.8 0 12.2 4.4 12.2 9.8 0 2.1-.9 4.1-2.3 5.7-2.6 3-6.4 4.8-10.7 4.8-5.4 0-10.2-3.1-12.6-7.6h3.8c1.9 2.6 5.4 4.4 9.1 4.4 5 0 9.2-3.2 9.2-7.1s-4.1-7.2-9.1-7.2c-3.3 0-7.6 1.8-9.2 3.9h-3.5v-8c2.5-4.1 7-6.8 12.2-6.8 4.6 0 8.8 2.2 11.4 5.7h-4.4zM266.2 401c0 16.6-16.6 30.1-37.1 30.1-19.2 0-35-11.9-36.9-27.1h7.4c1.9 11.4 14 20.2 29.5 20.2 16.8 0 30.3-10.7 30.3-23.5 0-5.1-3.8-9.9-7.5-13.7-2.7-2.7-5.8-3.2-13.7-3.2H216v-5.3h22.1c5.2 0 9.8-.3 13-4.6 2.1-2.5 3.3-5.4 3.3-8.5 0-9.9-9.8-18.3-25.1-18.3-13.7 0-24.5 6.8-26.7 15.4h-7.2c2.1-12.2 16.3-21.4 33.9-21.4 19 0 31.9 10.7 31.9 24.3 0 5.6-2.6 10.7-7 14.9 7 4.6 12 12.7 12 20.7z"/><path d="M241.2 404.3c0 2.1-.9 4.1-2.3 5.7-2.6 3-6.4 4.8-10.7 4.8-7.9 0-14.2-6.4-14.2-14.2 0-7.9 6.4-14.2 14.2-14.2 5.1 0 9.6 2.7 12.1 6.8h-4.5c-1.9-2.1-4.7-3.4-7.8-3.4-5.8 0-10.5 4.6-10.5 10.3v.2c1.9-3.5 6.3-5.9 11.3-5.9 6.9 0 12.4 4.4 12.4 9.9zm-3.5.2c0-3.9-4.1-7.1-9.1-7.1s-9.1 3.2-9.1 7.1c0 3.9 4.1 7.1 9.1 7.1s9.1-3.2 9.1-7.1zM356.7 401c0 16.6-16.6 30.1-37.1 30.1-19.2 0-35-11.9-36.9-27.1h7.4c1.9 11.4 14 20.2 29.5 20.2 16.8 0 30.3-10.7 30.3-23.5 0-5.1-3.8-9.9-7.5-13.7-2.7-2.7-5.8-3.2-13.7-3.2h-22.1v-5.3h22.1c5.2 0 9.8-.3 13-4.6 2.1-2.5 3.3-5.4 3.3-8.5 0-9.9-9.8-18.3-25.1-18.3-13.7 0-24.5 6.8-26.7 15.4H286c2.1-12.2 16.3-21.4 33.9-21.4 19 0 31.9 10.7 31.9 24.3 0 5.6-2.6 10.7-7 14.9 6.9 4.6 11.9 12.7 11.9 20.7z"/><path d="M318.7 414.8c-2.8 0-5.4-.8-7.5-2.2l10.3-14.3c.1-.2.2-.5.2-.8 0-1.5-1.6-2.5-3.1-2.5s-3.1 1-3.1 2.6h-8.3v-5.3c2.6-3.7 6.8-6.1 11.6-6.1 6.3 0 11.6 4 13.5 9.7l-12.6 18.8c-.4.1-.7.1-1 .1zM447.3 401c0 16.6-16.6 30.1-37.1 30.1-19.2 0-35-11.9-36.9-27.1h7.4c1.9 11.4 14 20.2 29.5 20.2 16.8 0 30.3-10.7 30.3-23.5 0-5.1-3.8-9.9-7.5-13.7-2.7-2.7-5.8-3.2-13.7-3.2h-22.1v-5.3h22.1c5.2 0 9.8-.3 13-4.6 2.1-2.5 3.3-5.4 3.3-8.5 0-9.9-9.8-18.3-25.1-18.3-13.7 0-24.5 6.8-26.7 15.4h-7.2c2.1-12.2 16.3-21.4 33.9-21.4 19 0 31.9 10.7 31.9 24.3 0 5.6-2.6 10.7-7 14.9 6.9 4.6 11.9 12.7 11.9 20.7z"/><path d="M421.5 405.1c0 5.3-5.5 9.6-12.2 9.6s-12.2-4.3-12.2-9.6c0-3.1 1.9-5.8 4.8-7.6-1.1-1.2-1.7-2.6-1.7-4.1 0-3.9 4.1-7.1 9.2-7.1s9.2 3.2 9.2 7.1c0 1.6-.7 3-1.8 4.2 2.8 1.7 4.7 4.5 4.7 7.5zm-7.1-.1c0-2.5-2.3-4.6-5.2-4.6-2.8 0-5.2 2.1-5.2 4.6 0 2.5 2.3 4.6 5.2 4.6 2.9 0 5.2-2 5.2-4.6zm-8.5-11.7c0 1.2 1.5 2.2 3.3 2.2 1.8 0 3.3-1 3.3-2.2 0-1.2-1.5-2.2-3.3-2.2-1.8 0-3.3 1-3.3 2.2zM537.8 401c0 16.6-16.6 30.1-37.1 30.1-19.2 0-35-11.9-36.9-27.1h7.4c1.9 11.4 14 20.2 29.5 20.2 16.8 0 30.3-10.7 30.3-23.5 0-5.1-3.8-9.9-7.5-13.7-2.7-2.7-5.8-3.2-13.7-3.2h-22.1v-5.3h22.1c5.2 0 9.8-.3 13-4.6 2.1-2.5 3.3-5.4 3.3-8.5 0-9.9-9.8-18.3-25.1-18.3-13.7 0-24.5 6.8-26.7 15.4H467c2.1-12.2 16.3-21.4 33.9-21.4 19 0 31.9 10.7 31.9 24.3 0 5.6-2.6 10.7-7 14.9 7 4.6 12 12.7 12 20.7z"/><path d="M514.1 400.6c0 7.9-6.4 14.2-14.2 14.2-6 0-11.1-3.7-13.2-8.9h6.5c1.6 2 4 3.3 6.8 3.3 3.8 0 7-2.5 8.1-5.9-2.2 1.6-5 2.6-8.2 2.6-6.7 0-12.1-4.4-12.1-9.8s5.4-9.8 12.1-9.8c7.8 0 14.2 6.4 14.2 14.3zm-8.9-4.5c0-2.6-2.4-4.7-5.3-4.7s-5.3 2.1-5.3 4.7 2.4 4.7 5.3 4.7 5.3-2.1 5.3-4.7zM635.5 390.8c-.3 3.1-.9 6.1-1.8 8.9h-29.3v29.6c-2.9.9-5.8 1.6-8.9 1.9v-31.4h-48c-1.3-4.3-2-8.8-2-13.5 0-25 20.2-45.2 45.2-45.2 5.1 0 9.7.8 13.8 2.1v47.6h31zm-40.1-40.4c-1.8-.3-3.6-.4-5.4-.4-19.9 0-36 16.1-36 36 0 1.6.1 3.2.3 4.8h41.1v-40.4zM726.1 390.8c-.3 3.1-.9 6.1-1.8 8.9H695v29.6c-2.9.9-5.8 1.6-8.9 1.9v-31.4h-48c-1.3-4.3-2-8.8-2-13.5 0-25 20.2-45.2 45.2-45.2 5.1 0 9.7.8 13.8 2.1v47.6h31zM686 350.4c-1.8-.3-3.6-.4-5.4-.4-19.9 0-36 16.1-36 36 0 1.6.1 3.2.3 4.8H686v-40.4z"/><path d="M669 388.8h-1.7v-26.6c-1.4 0-1.8.1-2.9.5V361c1.4-.4 2.8-.7 4.3-.7H669v28.5zM816.7 390.8c-.3 3.1-.9 6.1-1.8 8.9h-29.3v29.6c-2.9.9-5.8 1.6-8.9 1.9v-31.4h-48c-1.3-4.3-2-8.8-2-13.5 0-25 20.2-45.2 45.2-45.2 5.1 0 9.7.8 13.8 2.1v47.6h31zm-40.1-40.4c-1.8-.3-3.6-.4-5.4-.4-19.9 0-36 16.1-36 36 0 1.6.1 3.2.3 4.8h41.1v-40.4z"/><path d="M759.2 388.8c-4.1 0-7.8-1.8-10.4-4.6l14.9-11.4c1.4-1.2 2.3-2.9 2.3-4.8 0-3.5-3-6.1-6.7-6.1s-6.6 2.6-6.6 6.1c0 .5.1 1 .2 1.5h-1.7c-.1-.5-.1-1-.1-1.5 0-4.3 3.7-7.7 8.2-7.7s8.3 3.5 8.3 7.7c0 2.1-.9 4-2.4 5.4l-13.9 10.7c2.2 1.8 4.9 3 8 3 3.1 0 5.9-1.1 8.1-2.9H769.8c-2.8 2.9-6.5 4.6-10.6 4.6zM907.2 390.8c-.3 3.1-.9 6.1-1.8 8.9h-29.3v29.6c-2.9.9-5.8 1.6-8.9 1.9v-31.4h-48c-1.3-4.3-2-8.8-2-13.5 0-25 20.2-45.2 45.2-45.2 5.1 0 9.7.8 13.8 2.1v47.6h31zm-40.1-40.4c-1.8-.3-3.6-.4-5.4-.4-19.9 0-36 16.1-36 36 0 1.6.1 3.2.3 4.8h41.1v-40.4z"/><path d="M861.7 379.2c0 5.2-5.2 9.5-11.7 9.5-6.1 0-11-3.7-11.6-8.5h2.3c.6 3.6 4.4 6.4 9.3 6.4 5.3 0 9.6-3.4 9.6-7.4 0-1.6-1.2-3.1-2.4-4.3-.9-.9-1.8-1-4.3-1h-7v-1.7h7c1.6 0 3.1-.1 4.1-1.4.7-.8 1-1.7 1-2.7 0-3.1-3.1-5.8-7.9-5.8-4.3 0-7.7 2.1-8.4 4.9h-2.3c.6-3.9 5.1-6.7 10.7-6.7 6 0 10.1 3.4 10.1 7.7 0 1.8-.8 3.4-2.2 4.7 2.2 1.3 3.7 3.8 3.7 6.3zM997.8 390.8c-.3 3.1-.9 6.1-1.8 8.9h-29.3v29.6c-2.9.9-5.8 1.6-8.9 1.9v-31.4h-48c-1.3-4.3-2-8.8-2-13.5 0-25 20.2-45.2 45.2-45.2 5.1 0 9.7.8 13.8 2.1v47.6h31zm-40.1-40.4c-1.8-.3-3.6-.4-5.4-.4-19.9 0-36 16.1-36 36 0 1.6.1 3.2.3 4.8h41.1v-40.4z"/><path d="M954.5 376c-.1 1-.3 1.9-.6 2.8h-9.3v9.3c-.9.3-1.8.5-2.8.6v-9.9h-15.1c-.4-1.3-.6-2.8-.6-4.2 0-7.9 6.4-14.2 14.2-14.2 1.6 0 3.1.3 4.3.7v15h9.9zm-12.6-12.7c-.6-.1-1.1-.1-1.7-.1-6.3 0-11.4 5.1-11.4 11.4 0 .5 0 1 .1 1.5h13v-12.8zM92.2 504.5c-.3 3.1-.9 6.1-1.8 8.9H61.1V543c-2.9.9-5.8 1.6-8.9 1.9v-31.4h-48c-1.3-4.3-2-8.8-2-13.5 0-25 20.2-45.2 45.2-45.2 5.1 0 9.7.8 13.8 2.1v47.6h31zm-40.1-40.4c-1.8-.3-3.6-.4-5.4-.4-19.9 0-36 16.1-36 36 0 1.6.1 3.2.3 4.8h41.1v-40.4z"/><path d="M41.7 479.7c-2-1.7-4.2-2.6-7-2.6-3.6 0-6.8 2-8.7 4.7v3.7c2.3-2.1 5.8-3.4 9.6-3.4 6.8 0 12.2 4.4 12.2 9.8 0 2.1-.9 4.1-2.3 5.7-2.6 3-6.4 4.8-10.7 4.8-5.4 0-10.2-3.1-12.6-7.6H26c1.9 2.6 5.4 4.4 9.1 4.4 5 0 9.2-3.2 9.2-7.1 0-3.9-4.1-7.2-9.1-7.2-3.3 0-7.6 1.8-9.2 3.9h-3.5v-8c2.5-4.1 7-6.8 12.2-6.8 4.6 0 8.8 2.2 11.4 5.7h-4.4zM182.7 504.5c-.3 3.1-.9 6.1-1.8 8.9h-29.3V543c-2.9.9-5.8 1.6-8.9 1.9v-31.4h-48c-1.3-4.3-2-8.8-2-13.5 0-25 20.2-45.2 45.2-45.2 5.1 0 9.7.8 13.8 2.1v47.6h31zm-40.1-40.4c-1.8-.3-3.6-.4-5.4-.4-19.9 0-36 16.1-36 36 0 1.6.1 3.2.3 4.8h41.1v-40.4z"/><path d="M138.3 492c0 2.1-.9 4.1-2.3 5.7-2.6 3-6.4 4.8-10.7 4.8-7.9 0-14.2-6.4-14.2-14.2 0-7.9 6.4-14.2 14.2-14.2 5.1 0 9.6 2.7 12.1 6.8H133c-1.9-2.1-4.7-3.4-7.8-3.4-5.8 0-10.5 4.6-10.5 10.3v.2c1.9-3.5 6.3-5.9 11.3-5.9 6.8 0 12.3 4.4 12.3 9.9zm-3.5.2c0-3.9-4.1-7.1-9.1-7.1s-9.1 3.2-9.1 7.1 4.1 7.1 9.1 7.1c5 .1 9.1-3.1 9.1-7.1zM273.3 504.5c-.3 3.1-.9 6.1-1.8 8.9h-29.3V543c-2.9.9-5.8 1.6-8.9 1.9v-31.4h-48c-1.3-4.3-2-8.8-2-13.5 0-25 20.2-45.2 45.2-45.2 5.1 0 9.7.8 13.8 2.1v47.6h31zm-40.1-40.4c-1.8-.3-3.6-.4-5.4-.4-19.9 0-36 16.1-36 36 0 1.6.1 3.2.3 4.8h41.1v-40.4z"/><path d="M215.9 502.5c-2.8 0-5.4-.8-7.5-2.2l10.3-14.3c.1-.2.2-.5.2-.8 0-1.5-1.6-2.5-3.1-2.5s-3.1 1-3.1 2.6h-8.3V480c2.6-3.7 6.8-6.1 11.6-6.1 6.3 0 11.6 4 13.5 9.7l-12.6 18.8c-.4.1-.7.1-1 .1zM363.8 504.5c-.3 3.1-.9 6.1-1.8 8.9h-29.3V543c-2.9.9-5.8 1.6-8.9 1.9v-31.4h-48c-1.3-4.3-2-8.8-2-13.5 0-25 20.2-45.2 45.2-45.2 5.1 0 9.7.8 13.8 2.1v47.6h31zm-40-40.4c-1.8-.3-3.6-.4-5.4-.4-19.9 0-36 16.1-36 36 0 1.6.1 3.2.3 4.8h41.1v-40.4z"/><path d="M318.6 490.2c0 5.3-5.5 9.6-12.2 9.6-6.7 0-12.2-4.3-12.2-9.6 0-3.1 1.9-5.8 4.8-7.6-1.1-1.2-1.7-2.6-1.7-4.1 0-3.9 4.1-7.1 9.2-7.1s9.2 3.2 9.2 7.1c0 1.6-.7 3-1.8 4.2 2.9 1.7 4.7 4.4 4.7 7.5zm-7.1-.1c0-2.5-2.3-4.6-5.2-4.6-2.8 0-5.2 2.1-5.2 4.6 0 2.5 2.3 4.6 5.2 4.6s5.2-2.1 5.2-4.6zm-8.5-11.8c0 1.2 1.5 2.2 3.3 2.2s3.3-1 3.3-2.2c0-1.2-1.5-2.2-3.3-2.2s-3.3 1-3.3 2.2zM454.4 504.5c-.3 3.1-.9 6.1-1.8 8.9h-29.3V543c-2.9.9-5.8 1.6-8.9 1.9v-31.4h-48c-1.3-4.3-2-8.8-2-13.5 0-25 20.2-45.2 45.2-45.2 5.1 0 9.7.8 13.8 2.1v47.6h31zm-40.1-40.4c-1.8-.3-3.6-.4-5.4-.4-19.9 0-36 16.1-36 36 0 1.6.1 3.2.3 4.8h41.1v-40.4z"/><path d="M411.2 485.6c0 7.9-6.4 14.2-14.2 14.2-6 0-11.1-3.7-13.2-8.9h6.5c1.6 2 4 3.3 6.8 3.3 3.8 0 7-2.5 8.1-5.9-2.2 1.6-5 2.6-8.2 2.6-6.7 0-12.1-4.4-12.1-9.8s5.4-9.8 12.1-9.8c7.9 0 14.2 6.4 14.2 14.3zm-8.9-4.5c0-2.6-2.4-4.7-5.3-4.7s-5.3 2.1-5.3 4.7 2.4 4.7 5.3 4.7 5.3-2.1 5.3-4.7zM521.9 472.8c-6.4-5.5-13.4-8.3-22.3-8.3-11.3 0-21.5 6.5-27.6 14.9v11.8c7.2-6.7 18.4-10.7 30.3-10.7 21.4 0 38.8 14 38.8 31.2 0 6.8-2.8 13.1-7.4 18.2-8.3 9.4-20.4 15.3-33.9 15.3-17.3 0-32.3-9.7-39.9-23.9h12.2c6.2 8.4 17 13.9 29 13.9 15.9 0 29.1-10.1 29.1-22.6 0-12.5-12.9-22.9-28.8-22.9-10.4 0-24.1 5.7-29.1 12.2h-11.1v-25.3c7.9-13 22.3-21.7 38.6-21.7 14.7 0 27.8 7.1 36 18l-13.9-.1zM612.5 472.8c-6.4-5.5-13.4-8.3-22.3-8.3-11.3 0-21.5 6.5-27.6 14.9v11.8c7.2-6.7 18.4-10.7 30.3-10.7 21.4 0 38.8 14 38.8 31.2 0 6.8-2.8 13.1-7.4 18.2-8.3 9.4-20.4 15.3-33.9 15.3-17.3 0-32.3-9.7-39.9-23.9h12.2c6.2 8.4 17 13.9 29 13.9 15.9 0 29.1-10.1 29.1-22.6 0-12.5-12.9-22.9-28.8-22.9-10.4 0-24.1 5.7-29.1 12.2H552v-25.3c7.9-13 22.3-21.7 38.6-21.7 14.7 0 27.8 7.1 36 18l-14.1-.1z"/><path d="M590.7 528.5H589v-26.6c-1.4 0-1.8.1-2.9.5v-1.7c1.4-.4 2.8-.7 4.3-.7H590.7v28.5zM703.1 472.8c-6.4-5.5-13.4-8.3-22.3-8.3-11.3 0-21.5 6.5-27.6 14.9v11.8c7.2-6.7 18.4-10.7 30.3-10.7 21.4 0 38.8 14 38.8 31.2 0 6.8-2.8 13.1-7.4 18.2-8.3 9.4-20.4 15.3-33.9 15.3-17.3 0-32.3-9.7-39.9-23.9h12.2c6.2 8.4 17 13.9 29 13.9 15.9 0 29.1-10.1 29.1-22.6 0-12.5-12.9-22.9-28.8-22.9-10.4 0-24.1 5.7-29.1 12.2h-11.1v-25.3c7.9-13 22.3-21.7 38.6-21.7 14.7 0 27.8 7.1 36 18l-13.9-.1z"/><path d="M680.9 528.5c-4.1 0-7.8-1.8-10.4-4.6l14.9-11.4c1.4-1.2 2.3-2.9 2.3-4.8 0-3.5-3-6.1-6.7-6.1s-6.6 2.6-6.6 6.1c0 .5.1 1 .2 1.5h-1.7c-.1-.5-.1-1-.1-1.5 0-4.3 3.7-7.7 8.2-7.7 4.5 0 8.3 3.5 8.3 7.7 0 2.1-.9 4-2.4 5.4L673 523.8c2.2 1.8 4.9 3 8 3 3.1 0 5.9-1.1 8.1-2.9H691.5c-2.8 2.9-6.5 4.6-10.6 4.6zM793.6 472.8c-6.4-5.5-13.4-8.3-22.3-8.3-11.3 0-21.5 6.5-27.6 14.9v11.8c7.2-6.7 18.4-10.7 30.3-10.7 21.4 0 38.8 14 38.8 31.2 0 6.8-2.8 13.1-7.4 18.2-8.3 9.4-20.4 15.3-33.9 15.3-17.3 0-32.3-9.7-39.9-23.9H744c6.2 8.4 17 13.9 29 13.9 15.9 0 29.1-10.1 29.1-22.6 0-12.5-12.9-22.9-28.8-22.9-10.4 0-24.1 5.7-29.1 12.2h-11.1v-25.3c7.9-13 22.3-21.7 38.6-21.7 14.7 0 27.8 7.1 36 18l-14.1-.1z"/><path d="M783.5 518.9c0 5.2-5.2 9.5-11.7 9.5-6.1 0-11-3.7-11.6-8.5h2.3c.6 3.6 4.4 6.4 9.3 6.4 5.3 0 9.6-3.4 9.6-7.4 0-1.6-1.2-3.1-2.4-4.3-.9-.9-1.8-1-4.3-1h-7v-1.7h7c1.6 0 3.1-.1 4.1-1.4.7-.8 1-1.7 1-2.7 0-3.1-3.1-5.8-7.9-5.8-4.3 0-7.7 2.1-8.4 4.9h-2.3c.6-3.9 5.1-6.7 10.7-6.7 6 0 10.1 3.4 10.1 7.7 0 1.8-.8 3.4-2.2 4.7 2.1 1.2 3.7 3.8 3.7 6.3zM884.2 472.8c-6.4-5.5-13.4-8.3-22.3-8.3-11.3 0-21.5 6.5-27.6 14.9v11.8c7.2-6.7 18.4-10.7 30.3-10.7 21.4 0 38.8 14 38.8 31.2 0 6.8-2.8 13.1-7.4 18.2-8.3 9.4-20.4 15.3-33.9 15.3-17.3 0-32.3-9.7-39.9-23.9h12.2c6.2 8.4 17 13.9 29 13.9 15.9 0 29.1-10.1 29.1-22.6 0-12.5-12.9-22.9-28.8-22.9-10.4 0-24.1 5.7-29.1 12.2h-11.1v-25.3c7.9-13 22.3-21.7 38.6-21.7 14.7 0 27.8 7.1 36 18l-13.9-.1z"/><path d="M876.3 515.7c-.1 1-.3 1.9-.6 2.8h-9.3v9.3c-.9.3-1.8.5-2.8.6v-9.9h-15.1c-.4-1.3-.6-2.8-.6-4.2 0-7.9 6.4-14.2 14.2-14.2 1.6 0 3.1.3 4.3.7v15h9.9zM863.6 503c-.6-.1-1.1-.1-1.7-.1-6.3 0-11.4 5.1-11.4 11.4 0 .5 0 1 .1 1.5h13V503zM974.7 472.8c-6.4-5.5-13.4-8.3-22.3-8.3-11.3 0-21.5 6.5-27.6 14.9v11.8c7.2-6.7 18.4-10.7 30.3-10.7 21.4 0 38.8 14 38.8 31.2 0 6.8-2.8 13.1-7.4 18.2-8.3 9.4-20.4 15.3-33.9 15.3-17.3 0-32.3-9.7-39.9-23.9h12.2c6.2 8.4 17 13.9 29 13.9 15.9 0 29.1-10.1 29.1-22.6 0-12.5-12.9-22.9-28.8-22.9-10.4 0-24.1 5.7-29.1 12.2H914v-25.3c7.9-13 22.3-21.7 38.6-21.7 14.7 0 27.8 7.1 36 18l-13.9-.1z"/><path d="M959.6 505.7c-2-1.7-4.2-2.6-7-2.6-3.6 0-6.8 2-8.7 4.7v3.7c2.3-2.1 5.8-3.4 9.6-3.4 6.8 0 12.2 4.4 12.2 9.9 0 2.1-.9 4.1-2.3 5.7-2.6 3-6.4 4.8-10.7 4.8-5.4 0-10.2-3.1-12.6-7.6h3.8c1.9 2.6 5.4 4.4 9.1 4.4 5 0 9.2-3.2 9.2-7.1 0-3.9-4.1-7.2-9.1-7.2-3.3 0-7.6 1.8-9.2 3.9h-3.5v-8c2.5-4.1 7-6.8 12.2-6.8 4.6 0 8.8 2.2 11.4 5.7h-4.4zM69.1 586.5c-6.4-5.5-13.4-8.3-22.3-8.3-11.3 0-21.5 6.5-27.6 14.9v11.8c7.2-6.7 18.4-10.7 30.3-10.7 21.4 0 38.8 14 38.8 31.2 0 6.8-2.8 13.1-7.4 18.2-8.3 9.4-20.4 15.3-33.9 15.3-17.3 0-32.3-9.7-39.9-23.9h12.2c6.2 8.4 17 13.9 29 13.9 15.9 0 29.1-10.1 29.1-22.6s-12.9-22.9-28.8-22.9c-10.4 0-24.1 5.7-29.1 12.2H8.6v-25.3c7.9-13 22.3-21.7 38.6-21.7 14.7 0 27.8 7.1 36 18H69.1z"/><path d="M60 631.7c0 2.1-.9 4.1-2.3 5.7-2.6 3-6.4 4.8-10.7 4.8-7.9 0-14.2-6.4-14.2-14.2 0-7.9 6.4-14.2 14.2-14.2 5.1 0 9.6 2.7 12.1 6.8h-4.5c-1.9-2.1-4.7-3.4-7.8-3.4-5.8 0-10.5 4.6-10.5 10.3v.2c1.9-3.5 6.3-5.9 11.3-5.9 7 0 12.4 4.4 12.4 9.9zm-3.5.2c0-3.9-4.1-7.1-9.1-7.1s-9.1 3.2-9.1 7.1c0 3.9 4.1 7.1 9.1 7.1s9.1-3.1 9.1-7.1zM159.7 586.5c-6.4-5.5-13.4-8.3-22.3-8.3-11.3 0-21.5 6.5-27.6 14.9v11.8c7.2-6.7 18.4-10.7 30.3-10.7 21.4 0 38.8 14 38.8 31.2 0 6.8-2.8 13.1-7.4 18.2-8.3 9.4-20.4 15.3-33.9 15.3-17.3 0-32.3-9.7-39.9-23.9h12.2c6.2 8.4 17 13.9 29 13.9 15.9 0 29.1-10.1 29.1-22.6s-12.9-22.9-28.8-22.9c-10.4 0-24.1 5.7-29.1 12.2H99.2v-25.3c7.9-13 22.3-21.7 38.6-21.7 14.7 0 27.8 7.1 36 18h-14.1z"/><path d="M137.6 642.2c-2.8 0-5.4-.8-7.5-2.2l10.3-14.3c.1-.2.2-.5.2-.8 0-1.5-1.6-2.5-3.1-2.5s-3.1 1-3.1 2.6H126v-5.3c2.6-3.7 6.8-6.1 11.6-6.1 6.3 0 11.6 4 13.5 9.7l-12.6 18.8c-.3.1-.6.1-.9.1zM250.3 586.5c-6.4-5.5-13.4-8.3-22.3-8.3-11.3 0-21.5 6.5-27.6 14.9v11.8c7.2-6.7 18.4-10.7 30.3-10.7 21.4 0 38.8 14 38.8 31.2 0 6.8-2.8 13.1-7.4 18.2-8.3 9.4-20.4 15.3-33.9 15.3-17.3 0-32.3-9.7-39.9-23.9h12.2c6.2 8.4 17 13.9 29 13.9 15.9 0 29.1-10.1 29.1-22.6s-12.9-22.9-28.8-22.9c-10.4 0-24.1 5.7-29.1 12.2h-11.1v-25.3c7.9-13 22.3-21.7 38.6-21.7 14.7 0 27.8 7.1 36 18h-13.9z"/><path d="M240.4 632.6c0 5.3-5.5 9.6-12.2 9.6-6.7 0-12.2-4.3-12.2-9.6 0-3.1 1.9-5.8 4.8-7.6-1.1-1.2-1.7-2.6-1.7-4.1 0-3.9 4.1-7.1 9.2-7.1s9.2 3.2 9.2 7.1c0 1.6-.7 3-1.8 4.2 2.8 1.7 4.7 4.4 4.7 7.5zm-7.1-.1c0-2.5-2.3-4.6-5.2-4.6-2.8 0-5.2 2.1-5.2 4.6s2.3 4.6 5.2 4.6c2.9-.1 5.2-2.1 5.2-4.6zm-8.5-11.8c0 1.2 1.5 2.2 3.3 2.2 1.8 0 3.3-1 3.3-2.2 0-1.2-1.5-2.2-3.3-2.2-1.8 0-3.3 1-3.3 2.2zM340.8 586.5c-6.4-5.5-13.4-8.3-22.3-8.3-11.3 0-21.5 6.5-27.6 14.9v11.8c7.2-6.7 18.4-10.7 30.3-10.7 21.4 0 38.8 14 38.8 31.2 0 6.8-2.8 13.1-7.4 18.2-8.3 9.4-20.4 15.3-33.9 15.3-17.3 0-32.3-9.7-39.9-23.9H291c6.2 8.4 17 13.9 29 13.9 15.9 0 29.1-10.1 29.1-22.6s-12.9-22.9-28.8-22.9c-10.4 0-24.1 5.7-29.1 12.2h-11.1v-25.3c7.9-13 22.3-21.7 38.6-21.7 14.7 0 27.8 7.1 36 18h-13.9z"/><path d="M333 628c0 7.9-6.4 14.2-14.2 14.2-6 0-11.1-3.7-13.2-8.9h6.5c1.6 2 4 3.3 6.8 3.3 3.8 0 7-2.5 8.1-5.9-2.2 1.6-5 2.6-8.2 2.6-6.7 0-12.1-4.4-12.1-9.8s5.4-9.8 12.1-9.8c7.8 0 14.2 6.4 14.2 14.3zm-9-4.5c0-2.6-2.4-4.7-5.3-4.7s-5.3 2.1-5.3 4.7 2.4 4.7 5.3 4.7c3 0 5.3-2.1 5.3-4.7zM450.6 625.4c0 6.8-2.8 13.1-7.4 18.2-8.3 9.4-20.4 15.3-33.9 15.3-25 0-45.1-20.2-45.1-45.2s20.2-45.2 45.2-45.2c16.3 0 30.6 8.7 38.5 21.7h-14.2c-6.1-6.6-14.8-10.7-24.6-10.7-18.4 0-33.3 14.6-33.3 32.5v.8c6.1-11 20-18.6 36-18.6 21.5 0 38.8 14 38.8 31.2zm-11.1.8c0-12.5-12.9-22.6-28.8-22.6s-28.8 10.1-28.8 22.6c0 12.5 12.9 22.6 28.8 22.6s28.8-10.1 28.8-22.6zM541.2 625.4c0 6.8-2.8 13.1-7.4 18.2-8.3 9.4-20.4 15.3-33.9 15.3-25 0-45.1-20.2-45.1-45.2s20.2-45.2 45.2-45.2c16.3 0 30.6 8.7 38.5 21.7h-14.2c-6.1-6.6-14.8-10.7-24.6-10.7-18.4 0-33.3 14.6-33.3 32.5v.8c6.1-11 20-18.6 36-18.6 21.4 0 38.8 14 38.8 31.2zm-11.1.8c0-12.5-12.9-22.6-28.8-22.6s-28.8 10.1-28.8 22.6c0 12.5 12.9 22.6 28.8 22.6s28.8-10.1 28.8-22.6z"/><path d="M500.1 642.2h-1.7v-26.6c-1.4 0-1.8.1-2.9.5v-1.7c1.4-.4 2.8-.7 4.3-.7H500.1v28.5zM631.8 625.4c0 6.8-2.8 13.1-7.4 18.2-8.3 9.4-20.4 15.3-33.9 15.3-25 0-45.1-20.2-45.1-45.2s20.2-45.2 45.2-45.2c16.3 0 30.6 8.7 38.5 21.7h-14.2c-6.1-6.6-14.8-10.7-24.6-10.7-18.4 0-33.3 14.6-33.3 32.5v.8c6.1-11 20-18.6 36-18.6 21.4 0 38.8 14 38.8 31.2zm-11.2.8c0-12.5-12.9-22.6-28.8-22.6S563 613.7 563 626.2c0 12.5 12.9 22.6 28.8 22.6s28.8-10.1 28.8-22.6z"/><path d="M590.3 642.2c-4.1 0-7.8-1.8-10.4-4.6l14.9-11.4c1.4-1.2 2.3-2.9 2.3-4.8 0-3.5-3-6.1-6.7-6.1s-6.6 2.6-6.6 6.1c0 .5.1 1 .2 1.5h-1.7c-.1-.5-.1-1-.1-1.5 0-4.3 3.7-7.7 8.2-7.7 4.5 0 8.3 3.5 8.3 7.7 0 2.1-.9 4-2.4 5.4l-13.9 10.7c2.2 1.8 4.9 3 8 3 3.1 0 5.9-1.1 8.1-2.9H600.9c-2.7 2.9-6.5 4.6-10.6 4.6zM722.3 625.4c0 6.8-2.8 13.1-7.4 18.2-8.3 9.4-20.4 15.3-33.9 15.3-25 0-45.1-20.2-45.1-45.2s20.2-45.2 45.2-45.2c16.3 0 30.6 8.7 38.5 21.7h-14.2c-6.1-6.6-14.8-10.7-24.6-10.7-18.4 0-33.3 14.6-33.3 32.5v.8c6.1-11 20-18.6 36-18.6 21.5 0 38.8 14 38.8 31.2zm-11.1.8c0-12.5-12.9-22.6-28.8-22.6s-28.8 10.1-28.8 22.6c0 12.5 12.9 22.6 28.8 22.6s28.8-10.1 28.8-22.6z"/><path d="M692.9 632.6c0 5.2-5.2 9.5-11.7 9.5-6.1 0-11-3.7-11.6-8.5h2.3c.6 3.6 4.4 6.4 9.3 6.4 5.3 0 9.6-3.4 9.6-7.4 0-1.6-1.2-3.1-2.4-4.3-.9-.9-1.8-1-4.3-1h-7v-1.7h7c1.6 0 3.1-.1 4.1-1.4.7-.8 1-1.7 1-2.7 0-3.1-3.1-5.8-7.9-5.8-4.3 0-7.7 2.1-8.4 4.9h-2.3c.6-3.9 5.1-6.7 10.7-6.7 6 0 10.1 3.4 10.1 7.7 0 1.8-.8 3.4-2.2 4.7 2.1 1.2 3.7 3.8 3.7 6.3zM812.9 625.4c0 6.8-2.8 13.1-7.4 18.2-8.3 9.4-20.4 15.3-33.9 15.3-25 0-45.1-20.2-45.1-45.2s20.2-45.2 45.2-45.2c16.3 0 30.6 8.7 38.5 21.7H796c-6.1-6.6-14.8-10.7-24.6-10.7-18.4 0-33.3 14.6-33.3 32.5v.8c6.1-11 20-18.6 36-18.6 21.4 0 38.8 14 38.8 31.2zm-11.1.8c0-12.5-12.9-22.6-28.8-22.6s-28.8 10.1-28.8 22.6c0 12.5 12.9 22.6 28.8 22.6s28.8-10.1 28.8-22.6z"/><path d="M785.7 629.4c-.1 1-.3 1.9-.6 2.8h-9.3v9.3c-.9.3-1.8.5-2.8.6v-9.9h-15.1c-.4-1.3-.6-2.8-.6-4.2 0-7.9 6.4-14.2 14.2-14.2 1.6 0 3.1.3 4.3.7v15h9.9zm-12.6-12.7c-.6-.1-1.1-.1-1.7-.1-6.3 0-11.4 5.1-11.4 11.4 0 .5 0 1 .1 1.5h13v-12.8zM903.5 625.4c0 6.8-2.8 13.1-7.4 18.2-8.3 9.4-20.4 15.3-33.9 15.3-25 0-45.1-20.2-45.1-45.2s20.2-45.2 45.2-45.2c16.3 0 30.6 8.7 38.5 21.7h-14.2c-6.1-6.6-14.8-10.7-24.6-10.7-18.4 0-33.3 14.6-33.3 32.5v.8c6.1-11 20-18.6 36-18.6 21.4 0 38.8 14 38.8 31.2zm-11.2.8c0-12.5-12.9-22.6-28.8-22.6s-28.8 10.1-28.8 22.6c0 12.5 12.9 22.6 28.8 22.6s28.8-10.1 28.8-22.6z"/><path d="M869 619.4c-2-1.7-4.2-2.6-7-2.6-3.6 0-6.8 2-8.7 4.7v3.7c2.3-2.1 5.8-3.4 9.6-3.4 6.8 0 12.2 4.4 12.2 9.9 0 2.1-.9 4.1-2.3 5.7-2.6 3-6.4 4.8-10.7 4.8-5.4 0-10.2-3.1-12.6-7.6h3.8c1.9 2.6 5.4 4.4 9.1 4.4 5 0 9.2-3.2 9.2-7.1 0-3.9-4.1-7.2-9.1-7.2-3.3 0-7.6 1.8-9.2 3.9h-3.5v-8c2.5-4.1 7-6.8 12.2-6.8 4.6 0 8.8 2.2 11.4 5.7H869zM994 625.4c0 6.8-2.8 13.1-7.4 18.2-8.3 9.4-20.4 15.3-33.9 15.3-25 0-45.1-20.2-45.1-45.2s20.2-45.2 45.2-45.2c16.3 0 30.6 8.7 38.5 21.7h-14.2c-6.1-6.6-14.8-10.7-24.6-10.7-18.4 0-33.3 14.6-33.3 32.5v.8c6.1-11 20-18.6 36-18.6 21.4 0 38.8 14 38.8 31.2zm-11.1.8c0-12.5-12.9-22.6-28.8-22.6s-28.8 10.1-28.8 22.6c0 12.5 12.9 22.6 28.8 22.6s28.8-10.1 28.8-22.6z"/><path d="M965.7 631.7c0 2.1-.9 4.1-2.3 5.7-2.6 3-6.4 4.8-10.7 4.8-7.9 0-14.2-6.4-14.2-14.2 0-7.9 6.4-14.2 14.2-14.2 5.1 0 9.6 2.7 12.1 6.8h-4.5c-1.9-2.1-4.7-3.4-7.8-3.4-5.8 0-10.5 4.6-10.5 10.3v.2c1.9-3.5 6.3-5.9 11.3-5.9 6.9 0 12.4 4.4 12.4 9.9zm-3.6.2c0-3.9-4.1-7.1-9.1-7.1s-9.1 3.2-9.1 7.1c0 3.9 4.1 7.1 9.1 7.1 5.1.1 9.1-3.1 9.1-7.1zM88.4 739.1c0 6.8-2.8 13.1-7.4 18.2-8.3 9.4-20.4 15.3-33.9 15.3-25 0-45.1-20.2-45.1-45.2s20.2-45.2 45.2-45.2c16.3 0 30.6 8.7 38.5 21.7H71.5c-6.1-6.6-14.8-10.7-24.6-10.7-18.4 0-33.3 14.6-33.3 32.5v.8c6.1-11 20-18.6 36-18.6 21.4 0 38.8 14 38.8 31.2zm-11.1.8c0-12.5-12.9-22.6-28.8-22.6s-28.8 10.1-28.8 22.6c0 12.5 12.9 22.6 28.8 22.6s28.8-10.1 28.8-22.6z"/><path d="M47 755.9c-2.8 0-5.4-.8-7.5-2.2l10.3-14.3c.1-.2.2-.5.2-.8 0-1.5-1.6-2.5-3.1-2.5s-3.1 1-3.1 2.6h-8.3v-5.3c2.6-3.7 6.8-6.1 11.6-6.1 6.3 0 11.6 4 13.5 9.7L48 755.8c-.4.1-.7.1-1 .1zM179 739.1c0 6.8-2.8 13.1-7.4 18.2-8.3 9.4-20.4 15.3-33.9 15.3-25 0-45.1-20.2-45.1-45.2s20.2-45.2 45.2-45.2c16.3 0 30.6 8.7 38.5 21.7h-14.2c-6.1-6.6-14.8-10.7-24.6-10.7-18.4 0-33.3 14.6-33.3 32.5v.8c6.1-11 20-18.6 36-18.6 21.4 0 38.8 14 38.8 31.2zm-11.2.8c0-12.5-12.9-22.6-28.8-22.6s-28.8 10.1-28.8 22.6c0 12.5 12.9 22.6 28.8 22.6 16 0 28.8-10.1 28.8-22.6z"/><path d="M149.8 746.3c0 5.3-5.5 9.6-12.2 9.6-6.7 0-12.2-4.3-12.2-9.6 0-3.1 1.9-5.8 4.8-7.6-1.1-1.2-1.7-2.6-1.7-4.1 0-3.9 4.1-7.1 9.2-7.1s9.2 3.2 9.2 7.1c0 1.6-.7 3-1.8 4.2 2.9 1.7 4.7 4.4 4.7 7.5zm-7.1-.1c0-2.5-2.3-4.6-5.2-4.6-2.8 0-5.2 2.1-5.2 4.6s2.3 4.6 5.2 4.6c2.9 0 5.2-2.1 5.2-4.6zm-8.5-11.8c0 1.2 1.5 2.2 3.3 2.2 1.8 0 3.3-1 3.3-2.2 0-1.2-1.5-2.2-3.3-2.2-1.8 0-3.3 1-3.3 2.2zM269.5 739.1c0 6.8-2.8 13.1-7.4 18.2-8.3 9.4-20.4 15.3-33.9 15.3-25 0-45.1-20.2-45.1-45.2s20.2-45.2 45.2-45.2c16.3 0 30.6 8.7 38.5 21.7h-14.2c-6.1-6.6-14.8-10.7-24.6-10.7-18.4 0-33.3 14.6-33.3 32.5v.8c6.1-11 20-18.6 36-18.6 21.4 0 38.8 14 38.8 31.2zm-11.1.8c0-12.5-12.9-22.6-28.8-22.6s-28.8 10.1-28.8 22.6c0 12.5 12.9 22.6 28.8 22.6s28.8-10.1 28.8-22.6z"/><path d="M242.4 741.7c0 7.9-6.4 14.2-14.2 14.2-6 0-11.1-3.7-13.2-8.9h6.5c1.6 2 4 3.3 6.8 3.3 3.8 0 7-2.5 8.1-5.9-2.2 1.6-5 2.6-8.2 2.6-6.7 0-12.1-4.4-12.1-9.8s5.4-9.8 12.1-9.8c7.8 0 14.2 6.4 14.2 14.3zm-8.9-4.5c0-2.6-2.4-4.7-5.3-4.7s-5.3 2.1-5.3 4.7 2.4 4.7 5.3 4.7 5.3-2.1 5.3-4.7zM318.9 772.6c-8.8 0-17-2.5-23.9-6.8l32.7-45.2c.3-.8.5-1.6.5-2.5 0-4.8-5.1-8-9.9-8-4.7 0-9.9 3.2-9.9 8.3H282v-16.7c8.2-11.7 21.4-19.4 36.8-19.4 19.9 0 36.8 12.7 42.8 30.6l-40 59.7h-2.7zM409.5 772.6c-8.8 0-17-2.5-23.9-6.8l32.7-45.2c.3-.8.5-1.6.5-2.5 0-4.8-5.1-8-9.9-8-4.7 0-9.9 3.2-9.9 8.3h-26.4v-16.7c8.2-11.7 21.4-19.4 36.8-19.4 19.9 0 36.8 12.7 42.8 30.6l-40 59.7h-2.7z"/><path d="M386.6 748.8h-1.7v-26.6c-1.4 0-1.8.1-2.9.5V721c1.4-.4 2.8-.7 4.3-.7H386.6v28.5zM500 772.6c-8.8 0-17-2.5-23.9-6.8l32.7-45.2c.3-.8.5-1.6.5-2.5 0-4.8-5.1-8-9.9-8-4.7 0-9.9 3.2-9.9 8.3h-26.4v-16.7c8.2-11.7 21.4-19.4 36.8-19.4 19.9 0 36.8 12.7 42.8 30.6l-40 59.7H500z"/><path d="M476.7 748.8c-4.1 0-7.8-1.8-10.4-4.6l14.9-11.4c1.4-1.2 2.3-2.9 2.3-4.8 0-3.5-3-6.1-6.7-6.1s-6.6 2.6-6.6 6.1c0 .5.1 1 .2 1.5h-1.7c-.1-.5-.1-1-.1-1.5 0-4.3 3.7-7.7 8.2-7.7 4.5 0 8.3 3.5 8.3 7.7 0 2.1-.9 4-2.4 5.4l-13.9 10.7c2.2 1.8 4.9 3 8 3 3.1 0 5.9-1.1 8.1-2.9H487.3c-2.7 2.8-6.4 4.6-10.6 4.6zM590.6 772.6c-8.8 0-17-2.5-23.9-6.8l32.7-45.2c.3-.8.5-1.6.5-2.5 0-4.8-5.1-8-9.9-8s-9.9 3.2-9.9 8.3h-26.4v-16.7c8.2-11.7 21.4-19.4 36.8-19.4 19.9 0 36.8 12.7 42.8 30.6l-40 59.7h-2.7z"/><path d="M579.3 739.1c0 5.2-5.2 9.5-11.7 9.5-6.1 0-11-3.7-11.6-8.5h2.3c.6 3.6 4.4 6.4 9.3 6.4 5.3 0 9.6-3.4 9.6-7.4 0-1.6-1.2-3.1-2.4-4.3-.9-.9-1.8-1-4.3-1h-7V732h7c1.6 0 3.1-.1 4.1-1.4.7-.8 1-1.7 1-2.7 0-3.1-3.1-5.8-7.9-5.8-4.3 0-7.7 2.1-8.4 4.9H557c.6-3.9 5.1-6.7 10.7-6.7 6 0 10.1 3.4 10.1 7.7 0 1.8-.8 3.4-2.2 4.7 2.2 1.4 3.7 3.9 3.7 6.4zM681.1 772.6c-8.8 0-17-2.5-23.9-6.8l32.7-45.2c.3-.8.5-1.6.5-2.5 0-4.8-5.1-8-9.9-8-4.8 0-9.9 3.2-9.9 8.3h-26.4v-16.7c8.2-11.7 21.4-19.4 36.8-19.4 19.9 0 36.8 12.7 42.8 30.6l-40 59.7h-2.7z"/><path d="M672.1 735.9c-.1 1-.3 1.9-.6 2.8h-9.3v9.3c-.9.3-1.8.5-2.8.6v-9.9h-15.1c-.4-1.3-.6-2.8-.6-4.2 0-7.9 6.4-14.2 14.2-14.2 1.6 0 3.1.3 4.3.7v15h9.9zm-12.6-12.7c-.6-.1-1.1-.1-1.7-.1-6.3 0-11.4 5.1-11.4 11.4 0 .5 0 1 .1 1.5h13v-12.8zM771.7 772.6c-8.8 0-17-2.5-23.9-6.8l32.7-45.2c.3-.8.5-1.6.5-2.5 0-4.8-5.1-8-9.9-8s-9.9 3.2-9.9 8.3h-26.4v-16.7c8.2-11.7 21.4-19.4 36.8-19.4 19.9 0 36.8 12.7 42.8 30.6l-40 59.7h-2.7z"/><path d="M755.4 725.9c-2-1.7-4.2-2.6-7-2.6-3.6 0-6.8 2-8.7 4.7v3.7c2.3-2.1 5.8-3.4 9.6-3.4 6.8 0 12.2 4.4 12.2 9.9 0 2.1-.9 4.1-2.3 5.7-2.6 3-6.4 4.8-10.7 4.8-5.4 0-10.2-3.1-12.6-7.6h3.8c1.9 2.6 5.4 4.4 9.1 4.4 5 0 9.2-3.2 9.2-7.1 0-3.9-4.1-7.2-9.1-7.2-3.3 0-7.6 1.8-9.2 3.9h-3.5v-8c2.5-4.1 7-6.8 12.2-6.8 4.6 0 8.8 2.2 11.4 5.7h-4.4zM862.3 772.6c-8.8 0-17-2.5-23.9-6.8l32.7-45.2c.3-.8.5-1.6.5-2.5 0-4.8-5.1-8-9.9-8s-9.9 3.2-9.9 8.3h-26.4v-16.7c8.2-11.7 21.4-19.4 36.8-19.4 19.9 0 36.8 12.7 42.8 30.6l-40 59.7h-2.7z"/><path d="M852.1 738.2c0 2.1-.9 4.1-2.3 5.7-2.6 3-6.4 4.8-10.7 4.8-7.9 0-14.2-6.4-14.2-14.2 0-7.9 6.4-14.2 14.2-14.2 5.1 0 9.6 2.7 12.1 6.8h-4.5c-1.9-2.1-4.7-3.4-7.8-3.4-5.8 0-10.5 4.6-10.5 10.3v.2c1.9-3.5 6.3-5.9 11.3-5.9 6.9.1 12.4 4.5 12.4 9.9zm-3.5.3c0-3.9-4.1-7.1-9.1-7.1s-9.1 3.2-9.1 7.1c0 3.9 4.1 7.1 9.1 7.1s9.1-3.2 9.1-7.1zM952.8 772.6c-8.8 0-17-2.5-23.9-6.8l32.7-45.2c.3-.8.5-1.6.5-2.5 0-4.8-5.1-8-9.9-8-4.8 0-9.9 3.2-9.9 8.3H916v-16.7c8.2-11.7 21.4-19.4 36.8-19.4 19.9 0 36.8 12.7 42.8 30.6l-40 59.7h-2.8z"/><path d="M929.7 748.8c-2.8 0-5.4-.8-7.5-2.2l10.3-14.3c.1-.2.2-.5.2-.8 0-1.5-1.6-2.5-3.1-2.5s-3.1 1-3.1 2.6h-8.3v-5.3c2.6-3.7 6.8-6.1 11.6-6.1 6.3 0 11.6 4 13.5 9.7l-12.6 18.8c-.5 0-.8.1-1 .1zM47.2 886.3c-8.8 0-17-2.5-23.9-6.8L56 834.2c.3-.8.5-1.6.5-2.5 0-4.8-5.1-8-9.9-8-4.7 0-9.9 3.2-9.9 8.3H10.4v-16.7c8.2-11.7 21.4-19.4 36.8-19.4 19.9 0 36.8 12.7 42.8 30.6l-40 59.7c-.9.1-1.9.1-2.8.1z"/><path d="M36.2 852.8c0 5.3-5.5 9.6-12.2 9.6s-12.2-4.3-12.2-9.6c0-3.1 1.9-5.8 4.8-7.6-1.1-1.2-1.7-2.6-1.7-4.1 0-3.9 4.1-7.1 9.2-7.1s9.2 3.2 9.2 7.1c0 1.6-.7 3-1.8 4.2 2.9 1.7 4.7 4.4 4.7 7.5zm-7.1-.1c0-2.5-2.3-4.6-5.2-4.6-2.8 0-5.2 2.1-5.2 4.6s2.3 4.6 5.2 4.6c2.9 0 5.2-2.1 5.2-4.6zm-8.5-11.8c0 1.2 1.5 2.2 3.3 2.2 1.8 0 3.3-1 3.3-2.2s-1.5-2.2-3.3-2.2c-1.8 0-3.3 1-3.3 2.2zM137.8 886.3c-8.8 0-17-2.5-23.9-6.8l32.7-45.2c.3-.8.5-1.6.5-2.5 0-4.8-5.1-8-9.9-8-4.7 0-9.9 3.2-9.9 8.3H101v-16.7c8.2-11.7 21.4-19.4 36.8-19.4 19.9 0 36.8 12.7 42.8 30.6l-40 59.7h-2.8z"/><path d="M128.8 848.2c0 7.9-6.4 14.2-14.2 14.2-6 0-11.1-3.7-13.2-8.9h6.5c1.6 2 4 3.3 6.8 3.3 3.8 0 7-2.5 8.1-5.9-2.2 1.6-5 2.6-8.2 2.6-6.7 0-12.1-4.4-12.1-9.8s5.4-9.8 12.1-9.8c7.9.1 14.2 6.4 14.2 14.3zm-8.9-4.4c0-2.6-2.4-4.7-5.3-4.7s-5.3 2.1-5.3 4.7 2.4 4.7 5.3 4.7 5.3-2.1 5.3-4.7zM267 855.7c0 16.7-17.3 30.3-38.7 30.3-21.4 0-38.7-13.6-38.7-30.3 0-9.8 5.9-18.5 15.1-24-3.5-3.7-5.5-8.2-5.5-13.2 0-12.4 13.1-22.5 29.2-22.5s29.2 10.1 29.2 22.5c0 4.9-2.1 9.5-5.6 13.2 9.2 5.6 15 14.2 15 24zm-22.5-.4c0-8-7.3-14.6-16.4-14.6s-16.4 6.5-16.4 14.6c0 8 7.3 14.6 16.4 14.6s16.4-6.5 16.4-14.6zm-27-37.3c0 3.9 4.7 7 10.6 7s10.6-3.1 10.6-7-4.7-7-10.6-7c-5.8 0-10.6 3.2-10.6 7zM357.6 855.7c0 16.7-17.3 30.3-38.7 30.3-21.4 0-38.7-13.6-38.7-30.3 0-9.8 5.9-18.5 15.1-24-3.5-3.7-5.5-8.2-5.5-13.2 0-12.4 13.1-22.5 29.2-22.5s29.2 10.1 29.2 22.5c0 4.9-2.1 9.5-5.6 13.2 9.1 5.6 15 14.2 15 24zm-22.6-.4c0-8-7.3-14.6-16.4-14.6s-16.4 6.5-16.4 14.6c0 8 7.3 14.6 16.4 14.6s16.4-6.5 16.4-14.6zM308.1 818c0 3.9 4.7 7 10.6 7s10.6-3.1 10.6-7-4.7-7-10.6-7c-5.9 0-10.6 3.2-10.6 7z"/><path d="M319 869.6h-1.7V843c-1.4 0-1.8.1-2.9.5v-1.7c1.4-.4 2.8-.7 4.3-.7H319v28.5zM448.1 855.7c0 16.7-17.3 30.3-38.7 30.3-21.4 0-38.7-13.6-38.7-30.3 0-9.8 5.9-18.5 15.1-24-3.5-3.7-5.5-8.2-5.5-13.2 0-12.4 13.1-22.5 29.2-22.5s29.2 10.1 29.2 22.5c0 4.9-2.1 9.5-5.6 13.2 9.2 5.6 15 14.2 15 24zm-22.5-.4c0-8-7.3-14.6-16.4-14.6s-16.4 6.5-16.4 14.6c0 8 7.3 14.6 16.4 14.6s16.4-6.5 16.4-14.6zM398.7 818c0 3.9 4.7 7 10.6 7s10.6-3.1 10.6-7-4.7-7-10.6-7c-5.9 0-10.6 3.2-10.6 7z"/><path d="M409.2 869.6c-4.1 0-7.8-1.8-10.4-4.6l14.9-11.4c1.4-1.2 2.3-2.9 2.3-4.8 0-3.5-3-6.1-6.7-6.1s-6.6 2.6-6.6 6.1c0 .5.1 1 .2 1.5h-1.7c-.1-.5-.1-1-.1-1.5 0-4.3 3.7-7.7 8.2-7.7s8.3 3.5 8.3 7.7c0 2.1-.9 4-2.4 5.4l-14 10.8c2.2 1.8 4.9 3 8 3 3.1 0 5.9-1.1 8.1-2.9H419.7c-2.7 2.8-6.4 4.5-10.5 4.5zM538.7 855.7c0 16.7-17.3 30.3-38.7 30.3-21.4 0-38.7-13.6-38.7-30.3 0-9.8 5.9-18.5 15.1-24-3.5-3.7-5.5-8.2-5.5-13.2 0-12.4 13.1-22.5 29.2-22.5s29.2 10.1 29.2 22.5c0 4.9-2.1 9.5-5.6 13.2 9.1 5.6 15 14.2 15 24zm-22.5-.4c0-8-7.3-14.6-16.4-14.6-9 0-16.4 6.5-16.4 14.6 0 8 7.3 14.6 16.4 14.6 9 0 16.4-6.5 16.4-14.6zm-27-37.3c0 3.9 4.7 7 10.6 7s10.6-3.1 10.6-7-4.7-7-10.6-7c-5.8 0-10.6 3.2-10.6 7z"/><path d="M511.8 860c0 5.2-5.2 9.5-11.7 9.5-6.1 0-11-3.7-11.6-8.5h2.3c.6 3.6 4.4 6.4 9.3 6.4 5.3 0 9.6-3.4 9.6-7.4 0-1.6-1.2-3.1-2.4-4.3-.9-.9-1.8-1-4.3-1h-7V853h7c1.6 0 3.1-.1 4.1-1.4.7-.8 1-1.7 1-2.7 0-3.1-3.1-5.8-7.9-5.8-4.3 0-7.7 2.1-8.4 4.9h-2.3c.6-3.9 5.1-6.7 10.7-6.7 6 0 10.1 3.4 10.1 7.7 0 1.8-.8 3.4-2.2 4.7 2.1 1.3 3.7 3.8 3.7 6.3zM629.3 855.7c0 16.7-17.3 30.3-38.7 30.3-21.4 0-38.7-13.6-38.7-30.3 0-9.8 5.9-18.5 15.1-24-3.5-3.7-5.5-8.2-5.5-13.2 0-12.4 13.1-22.5 29.2-22.5s29.2 10.1 29.2 22.5c0 4.9-2.1 9.5-5.6 13.2 9.1 5.6 15 14.2 15 24zm-22.6-.4c0-8-7.3-14.6-16.4-14.6-9 0-16.4 6.5-16.4 14.6 0 8 7.3 14.6 16.4 14.6 9.1 0 16.4-6.5 16.4-14.6zM579.8 818c0 3.9 4.7 7 10.6 7 5.8 0 10.6-3.1 10.6-7s-4.7-7-10.6-7c-5.9 0-10.6 3.2-10.6 7z"/><path d="M604.6 856.8c-.1 1-.3 1.9-.6 2.8h-9.3v9.3c-.9.3-1.8.5-2.8.6v-9.9h-15.1c-.4-1.3-.6-2.8-.6-4.2 0-7.9 6.4-14.2 14.2-14.2 1.6 0 3.1.3 4.3.7v15h9.9zm-12.7-12.7c-.6-.1-1.1-.1-1.7-.1-6.3 0-11.4 5.1-11.4 11.4 0 .5 0 1 .1 1.5h13v-12.8zM719.8 855.7c0 16.7-17.3 30.3-38.7 30.3-21.4 0-38.7-13.6-38.7-30.3 0-9.8 5.9-18.5 15.1-24-3.5-3.7-5.5-8.2-5.5-13.2 0-12.4 13.1-22.5 29.2-22.5s29.2 10.1 29.2 22.5c0 4.9-2.1 9.5-5.6 13.2 9.2 5.6 15 14.2 15 24zm-22.5-.4c0-8-7.3-14.6-16.4-14.6-9 0-16.4 6.5-16.4 14.6 0 8 7.3 14.6 16.4 14.6 9.1 0 16.4-6.5 16.4-14.6zM670.4 818c0 3.9 4.7 7 10.6 7 5.8 0 10.6-3.1 10.6-7s-4.7-7-10.6-7c-5.9 0-10.6 3.2-10.6 7z"/><path d="M687.9 846.8c-2-1.7-4.2-2.6-7-2.6-3.6 0-6.8 2-8.7 4.7v3.7c2.3-2.1 5.8-3.4 9.6-3.4 6.8 0 12.2 4.4 12.2 9.9 0 2.1-.9 4.1-2.3 5.7-2.6 3-6.4 4.8-10.7 4.8-5.4 0-10.2-3.1-12.6-7.6h3.8c1.9 2.6 5.4 4.4 9.1 4.4 5 0 9.2-3.2 9.2-7.1 0-3.9-4.1-7.2-9.1-7.2-3.3 0-7.6 1.8-9.2 3.9h-3.5v-8c2.5-4.1 7-6.8 12.2-6.8 4.6 0 8.8 2.2 11.4 5.7h-4.4zM810.4 855.7c0 16.7-17.3 30.3-38.7 30.3-21.4 0-38.7-13.6-38.7-30.3 0-9.8 5.9-18.5 15.1-24-3.5-3.7-5.5-8.2-5.5-13.2 0-12.4 13.1-22.5 29.2-22.5s29.2 10 29.2 22.5c0 4.9-2.1 9.5-5.6 13.2 9.1 5.6 15 14.2 15 24zm-22.5-.4c0-8-7.3-14.6-16.4-14.6-9 0-16.4 6.5-16.4 14.6 0 8 7.3 14.6 16.4 14.6s16.4-6.5 16.4-14.6zm-27-37.3c0 3.9 4.7 7 10.6 7 5.8 0 10.6-3.1 10.6-7s-4.7-7-10.6-7c-5.9 0-10.6 3.2-10.6 7z"/><path d="M784.5 859.1c0 2.1-.9 4.1-2.3 5.7-2.6 3-6.4 4.8-10.7 4.8-7.9 0-14.2-6.4-14.2-14.2 0-7.9 6.4-14.2 14.2-14.2 5.1 0 9.6 2.7 12.1 6.8h-4.5c-1.9-2.1-4.7-3.4-7.8-3.4-5.8 0-10.5 4.6-10.5 10.3v.2c1.9-3.5 6.3-5.9 11.3-5.9 7 0 12.4 4.4 12.4 9.9zm-3.5.2c0-3.9-4.1-7.1-9.1-7.1s-9.1 3.2-9.1 7.1c0 3.9 4.1 7.1 9.1 7.1 5.1.1 9.1-3.1 9.1-7.1zM900.9 855.7c0 16.7-17.3 30.3-38.7 30.3-21.4 0-38.7-13.6-38.7-30.3 0-9.8 5.9-18.5 15.1-24-3.5-3.7-5.5-8.2-5.5-13.2 0-12.4 13.1-22.5 29.2-22.5s29.2 10.1 29.2 22.5c0 4.9-2.1 9.5-5.6 13.2 9.2 5.6 15 14.2 15 24zm-22.5-.4c0-8-7.3-14.6-16.4-14.6-9 0-16.4 6.5-16.4 14.6 0 8 7.3 14.6 16.4 14.6 9.1 0 16.4-6.5 16.4-14.6zM851.5 818c0 3.9 4.7 7 10.6 7 5.8 0 10.6-3.1 10.6-7s-4.7-7-10.6-7c-5.9 0-10.6 3.2-10.6 7z"/><path d="M862.1 869.6c-2.8 0-5.4-.8-7.5-2.2l10.3-14.3c.1-.2.2-.5.2-.8 0-1.5-1.6-2.5-3.1-2.5s-3.1 1-3.1 2.6h-8.3v-5.3c2.6-3.7 6.8-6.1 11.6-6.1 6.3 0 11.6 4 13.5 9.7L863 869.6h-.9zM991.5 855.7c0 16.7-17.3 30.3-38.7 30.3-21.4 0-38.7-13.6-38.7-30.3 0-9.8 5.9-18.5 15.1-24-3.5-3.7-5.5-8.2-5.5-13.2 0-12.4 13.1-22.5 29.2-22.5s29.2 10.1 29.2 22.5c0 4.9-2.1 9.5-5.6 13.2 9.1 5.6 15 14.2 15 24zm-22.5-.4c0-8-7.3-14.6-16.4-14.6-9 0-16.4 6.5-16.4 14.6 0 8 7.3 14.6 16.4 14.6 9 0 16.4-6.5 16.4-14.6zM942 818c0 3.9 4.7 7 10.6 7 5.8 0 10.6-3.1 10.6-7s-4.7-7-10.6-7c-5.8 0-10.6 3.2-10.6 7z"/><path d="M964.9 860c0 5.3-5.5 9.6-12.2 9.6-6.7 0-12.2-4.3-12.2-9.6 0-3.1 1.9-5.8 4.8-7.6-1.1-1.2-1.7-2.6-1.7-4.1 0-3.9 4.1-7.1 9.2-7.1s9.2 3.2 9.2 7.1c0 1.6-.7 3-1.8 4.2 2.8 1.7 4.7 4.4 4.7 7.5zm-7.1-.1c0-2.5-2.3-4.6-5.2-4.6s-5.2 2.1-5.2 4.6 2.3 4.6 5.2 4.6 5.2-2.1 5.2-4.6zm-8.5-11.8c0 1.2 1.5 2.2 3.3 2.2 1.8 0 3.3-1 3.3-2.2 0-1.2-1.5-2.2-3.3-2.2-1.8 0-3.3 1-3.3 2.2zM85.9 969.4c0 16.7-17.3 30.3-38.7 30.3-21.4 0-38.7-13.6-38.7-30.3 0-9.8 5.9-18.5 15.1-24-3.5-3.7-5.5-8.2-5.5-13.2 0-12.4 13.1-22.5 29.2-22.5s29.2 10.1 29.2 22.5c0 4.9-2.1 9.5-5.6 13.2 9.1 5.6 15 14.2 15 24zm-22.5-.4c0-8-7.3-14.6-16.4-14.6S30.6 961 30.6 969s7.3 14.6 16.4 14.6 16.4-6.5 16.4-14.6zm-27-37.3c0 3.9 4.7 7 10.6 7s10.6-3.1 10.6-7-4.7-7-10.6-7c-5.8 0-10.6 3.2-10.6 7z"/><path d="M61.3 969.1c0 7.9-6.4 14.2-14.2 14.2-6 0-11.1-3.7-13.2-8.9h6.5c1.6 2 4 3.3 6.8 3.3 3.8 0 7-2.5 8.1-5.9-2.2 1.6-5 2.6-8.2 2.6-6.7 0-12.1-4.4-12.1-9.8s5.4-9.8 12.1-9.8c7.8 0 14.2 6.4 14.2 14.3zm-9-4.5c0-2.6-2.4-4.7-5.3-4.7s-5.3 2.1-5.3 4.7 2.4 4.7 5.3 4.7c3 0 5.3-2.1 5.3-4.7zM182.9 954.8c0 25-20.2 45.2-45.2 45.2-18.9 0-35.2-11.7-41.9-28.2h20.7c4.9 6.4 12.7 10.5 21.4 10.5 12.1 0 22.3-7.8 25.7-18.7-6.8 5.1-16 8.2-26 8.2-21.2 0-38.4-13.9-38.4-31.1s17.2-31.1 38.4-31.1c25.1 0 45.3 20.3 45.3 45.2zm-28.3-14.1c0-8.2-7.5-14.9-16.8-14.9s-16.8 6.7-16.8 14.9 7.5 14.9 16.8 14.9c9.2 0 16.8-6.7 16.8-14.9zM273.5 954.8c0 25-20.2 45.2-45.2 45.2-18.9 0-35.2-11.7-41.9-28.2h20.7c4.9 6.4 12.7 10.5 21.4 10.5 12.1 0 22.3-7.8 25.7-18.7-6.8 5.1-16 8.2-26 8.2-21.2 0-38.4-13.9-38.4-31.1s17.2-31.1 38.4-31.1c25 0 45.3 20.3 45.3 45.2zm-28.4-14.1c0-8.2-7.5-14.9-16.8-14.9s-16.8 6.7-16.8 14.9 7.5 14.9 16.8 14.9 16.8-6.7 16.8-14.9z"/><path d="M228.8 954.8h-1.7v-26.6c-1.4 0-1.8.1-2.9.5V927c1.4-.4 2.8-.7 4.3-.7H228.8v28.5zM364 954.8c0 25-20.2 45.2-45.2 45.2-18.9 0-35.2-11.7-41.9-28.2h20.7c4.9 6.4 12.7 10.5 21.4 10.5 12.1 0 22.3-7.8 25.7-18.7-6.8 5.1-16 8.2-26 8.2-21.2 0-38.4-13.9-38.4-31.1s17.2-31.1 38.4-31.1c25.1 0 45.3 20.3 45.3 45.2zm-28.3-14.1c0-8.2-7.5-14.9-16.8-14.9s-16.8 6.7-16.8 14.9 7.5 14.9 16.8 14.9 16.8-6.7 16.8-14.9z"/><path d="M318.9 954.8c-4.1 0-7.8-1.8-10.4-4.6l14.9-11.4c1.4-1.2 2.3-2.9 2.3-4.8 0-3.5-3-6.1-6.7-6.1s-6.6 2.6-6.6 6.1c0 .5.1 1 .2 1.5H311c-.1-.5-.1-1-.1-1.5 0-4.3 3.7-7.7 8.2-7.7 4.5 0 8.3 3.5 8.3 7.7 0 2.1-.9 4-2.4 5.4l-14 10.8c2.2 1.8 4.9 3 8 3 3.1 0 5.9-1.1 8.1-2.9H329.5c-2.7 2.8-6.4 4.5-10.6 4.5zM454.6 954.8c0 25-20.2 45.2-45.2 45.2-18.9 0-35.2-11.7-41.9-28.2h20.7c4.9 6.4 12.7 10.5 21.4 10.5 12.1 0 22.3-7.8 25.7-18.7-6.8 5.1-16 8.2-26 8.2-21.2 0-38.4-13.9-38.4-31.1s17.2-31.1 38.4-31.1c25.1 0 45.3 20.3 45.3 45.2zm-28.4-14.1c0-8.2-7.5-14.9-16.8-14.9s-16.8 6.7-16.8 14.9 7.5 14.9 16.8 14.9 16.8-6.7 16.8-14.9z"/><path d="M421.5 945.2c0 5.2-5.2 9.5-11.7 9.5-6.1 0-11-3.7-11.6-8.5h2.3c.6 3.6 4.4 6.4 9.3 6.4 5.3 0 9.6-3.4 9.6-7.4 0-1.6-1.2-3.1-2.4-4.3-.9-.9-1.8-1-4.3-1h-7v-1.7h7c1.6 0 3.1-.1 4.1-1.4.7-.8 1-1.7 1-2.7 0-3.1-3.1-5.8-7.9-5.8-4.3 0-7.7 2.1-8.4 4.9h-2.3c.6-3.9 5.1-6.7 10.7-6.7 6 0 10.1 3.4 10.1 7.7 0 1.8-.8 3.4-2.2 4.7 2.2 1.3 3.7 3.8 3.7 6.3zM545.2 954.8c0 25-20.2 45.2-45.2 45.2-18.9 0-35.2-11.7-41.9-28.2h20.7c4.9 6.4 12.7 10.5 21.4 10.5 12.1 0 22.3-7.8 25.7-18.7-6.8 5.1-15.9 8.2-26 8.2-21.2 0-38.4-13.9-38.4-31.1s17.2-31.1 38.4-31.1c25 0 45.3 20.3 45.3 45.2zm-28.4-14.1c0-8.2-7.5-14.9-16.8-14.9s-16.8 6.7-16.8 14.9 7.5 14.9 16.8 14.9 16.8-6.7 16.8-14.9z"/><path d="M514.3 942c-.1 1-.3 1.9-.6 2.8h-9.3v9.3c-.9.3-1.8.5-2.8.6v-9.9h-15.1c-.4-1.3-.6-2.8-.6-4.2 0-7.9 6.4-14.2 14.2-14.2 1.6 0 3.1.3 4.3.7v15h9.9zm-12.6-12.7c-.6-.1-1.1-.1-1.7-.1-6.3 0-11.4 5.1-11.4 11.4 0 .5 0 1 .1 1.5h13v-12.8zM635.7 954.8c0 25-20.2 45.2-45.2 45.2-18.9 0-35.2-11.7-41.9-28.2h20.7c4.9 6.4 12.7 10.5 21.4 10.5 12.1 0 22.3-7.8 25.7-18.7-6.8 5.1-15.9 8.2-26 8.2-21.2 0-38.4-13.9-38.4-31.1s17.2-31.1 38.4-31.1c25.1 0 45.3 20.3 45.3 45.2zm-28.3-14.1c0-8.2-7.5-14.9-16.8-14.9s-16.8 6.7-16.8 14.9 7.5 14.9 16.8 14.9c9.2 0 16.8-6.7 16.8-14.9z"/><path d="M597.6 932c-2-1.7-4.2-2.6-7-2.6-3.6 0-6.8 2-8.7 4.7v3.7c2.3-2.1 5.8-3.4 9.6-3.4 6.8 0 12.2 4.4 12.2 9.9 0 2.1-.9 4.1-2.3 5.7-2.6 3-6.4 4.8-10.7 4.8-5.4 0-10.2-3.1-12.6-7.6h3.8c1.9 2.6 5.4 4.4 9.1 4.4 5 0 9.2-3.2 9.2-7.1s-4.1-7.2-9.1-7.2c-3.3 0-7.6 1.8-9.2 3.9h-3.5v-8c2.5-4.1 7-6.8 12.2-6.8 4.6 0 8.8 2.2 11.4 5.7h-4.4zM726.3 954.8c0 25-20.2 45.2-45.2 45.2-18.9 0-35.2-11.7-41.9-28.2h20.7c4.9 6.4 12.7 10.5 21.4 10.5 12.1 0 22.3-7.8 25.7-18.7-6.8 5.1-15.9 8.2-26 8.2-21.2 0-38.4-13.9-38.4-31.1s17.2-31.1 38.4-31.1c25 0 45.3 20.3 45.3 45.2zm-28.4-14.1c0-8.2-7.5-14.9-16.8-14.9s-16.8 6.7-16.8 14.9 7.5 14.9 16.8 14.9 16.8-6.7 16.8-14.9z"/><path d="M694.3 944.3c0 2.1-.9 4.1-2.3 5.7-2.6 3-6.4 4.8-10.7 4.8-7.9 0-14.2-6.4-14.2-14.2s6.4-14.2 14.2-14.2c5.1 0 9.6 2.7 12.1 6.8H689c-1.9-2.1-4.7-3.4-7.8-3.4-5.8 0-10.5 4.6-10.5 10.3v.2c1.9-3.5 6.3-5.9 11.3-5.9 6.8 0 12.3 4.4 12.3 9.9zm-3.5.2c0-3.9-4.1-7.1-9.1-7.1s-9.1 3.2-9.1 7.1 4.1 7.1 9.1 7.1c5 .1 9.1-3.1 9.1-7.1zM816.9 954.8c0 25-20.2 45.2-45.2 45.2-18.9 0-35.2-11.7-41.9-28.2h20.7c4.9 6.4 12.7 10.5 21.4 10.5 12.1 0 22.3-7.8 25.7-18.7-6.8 5.1-15.9 8.2-26 8.2-21.2 0-38.4-13.9-38.4-31.1s17.2-31.1 38.4-31.1c25 0 45.3 20.3 45.3 45.2zm-28.4-14.1c0-8.2-7.5-14.9-16.8-14.9s-16.8 6.7-16.8 14.9 7.5 14.9 16.8 14.9 16.8-6.7 16.8-14.9z"/><path d="M771.9 954.8c-2.8 0-5.4-.8-7.5-2.2l10.3-14.3c.1-.2.2-.5.2-.8 0-1.5-1.6-2.5-3.1-2.5s-3.1 1-3.1 2.6h-8.3v-5.3c2.6-3.7 6.8-6.1 11.6-6.1 6.3 0 11.6 4 13.5 9.7l-12.6 18.8c-.5.1-.7.1-1 .1zM907.4 954.8c0 25-20.2 45.2-45.2 45.2-18.9 0-35.2-11.7-41.9-28.2H841c4.9 6.4 12.7 10.5 21.4 10.5 12.1 0 22.3-7.8 25.7-18.7-6.8 5.1-15.9 8.2-26 8.2-21.2 0-38.4-13.9-38.4-31.1s17.2-31.1 38.4-31.1c25.1 0 45.3 20.3 45.3 45.2zm-28.3-14.1c0-8.2-7.5-14.9-16.8-14.9s-16.8 6.7-16.8 14.9 7.5 14.9 16.8 14.9c9.2 0 16.8-6.7 16.8-14.9z"/><path d="M874.6 945.2c0 5.3-5.5 9.6-12.2 9.6-6.7 0-12.2-4.3-12.2-9.6 0-3.1 1.9-5.8 4.8-7.6-1.1-1.2-1.7-2.6-1.7-4.1 0-3.9 4.1-7.1 9.2-7.1s9.2 3.2 9.2 7.1c0 1.6-.7 3-1.8 4.2 2.9 1.7 4.7 4.4 4.7 7.5zm-7.1-.1c0-2.5-2.3-4.6-5.2-4.6-2.8 0-5.2 2.1-5.2 4.6 0 2.5 2.3 4.6 5.2 4.6 2.9 0 5.2-2.1 5.2-4.6zm-8.5-11.8c0 1.2 1.5 2.2 3.3 2.2s3.3-1 3.3-2.2c0-1.2-1.5-2.2-3.3-2.2s-3.3 1-3.3 2.2zM998 954.8c0 25-20.2 45.2-45.2 45.2-18.9 0-35.2-11.7-41.9-28.2h20.7c4.9 6.4 12.7 10.5 21.4 10.5 12.1 0 22.3-7.8 25.7-18.7-6.8 5.1-15.9 8.2-26 8.2-21.2 0-38.4-13.9-38.4-31.1s17.2-31.1 38.4-31.1c25 0 45.3 20.3 45.3 45.2zm-28.4-14.1c0-8.2-7.5-14.9-16.8-14.9s-16.8 6.7-16.8 14.9 7.5 14.9 16.8 14.9 16.8-6.7 16.8-14.9z"/><path d="M967.2 940.6c0 7.9-6.4 14.2-14.2 14.2-6 0-11.1-3.7-13.2-8.9h6.5c1.5 2 4 3.3 6.8 3.3 3.8 0 7-2.5 8.1-5.9-2.2 1.6-5 2.6-8.2 2.6-6.7 0-12.1-4.4-12.1-9.8s5.4-9.8 12.1-9.8c7.8 0 14.2 6.4 14.2 14.3zm-8.9-4.5c0-2.6-2.4-4.7-5.3-4.7s-5.3 2.1-5.3 4.7 2.4 4.7 5.3 4.7 5.3-2.1 5.3-4.7z"/></svg>