<svg xmlns="http://www.w3.org/2000/svg" viewBox="0 0 1000 1000"><path fill="#147792" d="M.4 76.2c3-.4 5-1.2 6-2.3.9-1.1 1.4-3.7 1.4-7.8V12.8c0-2.1-.3-3.6-.8-4.6-.5-1-1.8-1.5-3.9-1.5-.4 0-.8 0-1.2.1-.4.1-.8.1-1.3.2V5c1.6-.5 3.6-1.1 6-1.8s4.1-1.2 5-1.5L17 .1l.1.4v34.2c2.3-2.7 4.4-4.6 6.2-5.9 3.3-2.2 6.8-3.3 10.6-3.3 6 0 10.1 2.5 12.3 7.6 1.2 2.7 1.8 6.2 1.8 10.5v22.7c0 3.9.5 6.5 1.4 7.7.9 1.2 2.8 2 5.6 2.3v1.6H30.8v-1.6c3.2-.4 5.3-1.2 6.2-2.3.9-1.1 1.4-3.7 1.4-7.7V43.7c0-3.6-.6-6.5-1.8-8.7-1.2-2.2-3.5-3.3-6.8-3.3-2.9 0-5.7 1-8.4 3.1s-4.1 3.4-4.1 4.1v27.4c0 4.2.5 6.8 1.4 7.8 1 1 3 1.8 6.2 2.2v1.6H.4v-1.7zM68.7 53.2c3.4-2.2 10.2-5.2 20.4-9.1v-4.7c0-3.8-.4-6.4-1.1-7.9-1.3-2.5-3.9-3.7-7.8-3.7-1.9 0-3.7.5-5.4 1.4-1.7 1-2.6 2.4-2.6 4.1 0 .4.1 1.2.3 2.3.2 1.1.3 1.7.3 2 0 2.1-.7 3.5-2.1 4.3-.8.5-1.7.7-2.8.7-1.7 0-2.9-.5-3.8-1.6-.9-1.1-1.3-2.3-1.3-3.6 0-2.6 1.6-5.3 4.8-8.2 3.2-2.8 7.9-4.3 14.1-4.3 7.2 0 12.1 2.3 14.6 7 1.4 2.6 2.1 6.3 2.1 11.2v22.3c0 2.2.1 3.6.4 4.5.5 1.4 1.5 2.2 3 2.2.9 0 1.6-.1 2.1-.4.6-.3 1.5-.9 2.9-1.9v2.9c-1.2 1.4-2.5 2.6-3.8 3.6-2.1 1.4-4.2 2.1-6.3 2.1-2.5 0-4.3-.8-5.5-2.4-1.1-1.6-1.8-3.6-1.9-5.8-2.8 2.4-5.2 4.3-7.2 5.5-3.4 2-6.6 3-9.6 3-3.2 0-6-1.1-8.3-3.4-2.3-2.2-3.5-5.1-3.5-8.5-.1-5.5 2.6-10 8-13.6zM89.1 47c-4.3 1.4-7.8 3-10.6 4.7-5.3 3.3-8 7-8 11.2 0 3.4 1.1 5.9 3.3 7.5 1.4 1 3.1 1.6 4.8 1.6 2.4 0 4.8-.7 7-2.1 2.2-1.4 3.4-3.1 3.4-5.2V47zM131.5 26.1v1.7c-1.9.2-3.3.5-4.1.9-.8.4-1.2 1.2-1.2 2.4 0 .6.1 1.2.3 1.7.2.5.5 1.3.9 2.4l11.7 28 9.9-24.7c.5-1.2.9-2.5 1.4-3.8.4-1.3.6-2.4.6-3.1 0-1.4-.7-2.5-2.1-3.1-.8-.3-1.9-.6-3.3-.7v-1.7h15.8v1.7c-1.8.1-3.1.8-3.9 1.8-.8 1.1-2 3.5-3.5 7.3L137.8 77c-.3.7-.5 1.2-.7 1.4-.2.3-.4.4-.8.4s-.7-.2-.9-.6c-.3-.4-.5-1-.8-1.6l-17-40.7c-1.4-3.3-2.8-5.5-4.4-6.7-.9-.7-2.3-1.1-4.1-1.3v-1.7h22.4zM166.2 76.2c4-.4 6.5-1 7.5-2s1.6-3.6 1.6-8V39.7c0-2.4-.2-4.1-.5-5-.6-1.5-1.7-2.3-3.5-2.3-.4 0-.8 0-1.2.1-.4.1-1.5.4-3.4.9v-1.7l2.4-.8c6.5-2.1 11-3.7 13.6-4.8 1-.4 1.7-.7 2-.7.1.3.1.5.1.8v40c0 4.2.5 6.9 1.5 8 1 1.1 3.3 1.8 6.9 2.1v1.6h-27v-1.7zm8.9-74.4c1.1-1.1 2.5-1.7 4.1-1.7 1.6 0 3 .6 4.1 1.7 1.1 1.1 1.7 2.5 1.7 4.1 0 1.6-.6 2.9-1.7 4.1-1.1 1.1-2.5 1.7-4.1 1.7-1.6 0-3-.6-4.1-1.7-1.1-1.1-1.7-2.5-1.7-4.1 0-1.6.5-2.9 1.7-4.1zM197.7 76.2c2.6-.3 4.5-1 5.5-2 1.1-1 1.6-3.2 1.6-6.6V39.4c0-2.4-.2-4-.7-5-.7-1.4-2.2-2.1-4.3-2.1-.3 0-.7 0-1 .1-.4 0-.8.1-1.3.2v-1.9c1.5-.4 5.1-1.6 10.8-3.4l5.2-1.7c.3 0 .4.1.5.3.1.2.1.4.1.8v8.2c3.4-3.2 6.1-5.4 8-6.6 2.9-1.8 5.9-2.7 9-2.7 2.5 0 4.8.7 6.9 2.2 4 2.8 6 7.8 6 15.1v26c0 2.7.5 4.6 1.6 5.8 1.1 1.2 2.9 1.8 5.4 1.8v1.6h-23.8v-1.6c2.7-.4 4.6-1.1 5.7-2.3 1.1-1.1 1.6-3.6 1.6-7.4v-24c0-3.2-.6-5.8-1.8-7.9-1.2-2.1-3.4-3.1-6.5-3.1-2.2 0-4.4.7-6.6 2.2-1.3.9-2.9 2.3-4.9 4.2v31.2c0 2.7.6 4.5 1.8 5.4 1.2.9 3.1 1.4 5.6 1.5v1.6h-24.3v-1.7zM263.2 53.1c-1.9-2.9-2.8-6.1-2.8-9.6 0-4.3 1.7-8.5 5.2-12.4 3.4-3.9 8.3-5.8 14.6-5.8 2.7 0 5.7.6 9 1.9 3.3 1.3 6.4 1.9 9.4 1.9.8 0 2 0 3.5-.1 1.6-.1 2.7-.1 3.4-.1h.7v4.5h-9.6c.7 1.6 1.2 2.9 1.6 4.1.6 2.2.9 4.2.9 6.1 0 4.2-1.8 8.1-5.3 11.7-3.5 3.5-8.2 5.3-14.2 5.3-.9 0-2.6-.2-5-.5-1.1 0-2.5.9-4.3 2.7-1.8 1.8-2.7 3.3-2.7 4.5 0 1.2 1.3 2.1 3.9 2.6 1.7.4 3.6.6 5.7.6 9.5 0 16 .5 19.4 1.6 5.6 1.7 8.4 5.5 8.4 11.2 0 5.9-3.3 10.5-9.8 14-6.5 3.5-13.2 5.2-19.8 5.2-6.1 0-10.9-1.2-14.5-3.7-3.6-2.5-5.3-5.1-5.3-7.8 0-1.3.5-2.6 1.4-3.9.9-1.3 2.8-3.2 5.6-5.7l3.7-3.3.7-.7c-1.7-.7-3-1.3-3.8-1.9-1.5-1.1-2.2-2.5-2.2-4 0-1.4.6-2.9 1.9-4.5 1.3-1.6 4-4.3 8.2-8-3.4-1-6.1-3-7.9-5.9zm5.9 41.4c3.5 1.2 7.5 1.8 12 1.8 6.2 0 11.2-1.1 15-3.2 3.9-2.1 5.8-4.8 5.8-7.9 0-2.5-1.6-4.1-4.7-5-1.9-.5-5.6-.8-11-.8-1.4 0-2.8-.1-4.3-.1-1.5-.1-2.9-.1-4.2-.2-.8 0-2.1-.2-4-.4-1.8-.3-3.2-.5-4.1-.7-.4 0-1.5 1.2-3.3 3.5-1.8 2.4-2.6 4.6-2.6 6.6.1 3.1 1.9 5.2 5.4 6.4zm17.6-38.2c2.2-1.8 3.3-4.9 3.3-9.3 0-3.5-.9-7.5-2.7-11.9-1.8-4.4-4.8-6.6-9-6.6-3.6 0-6.1 1.7-7.5 5.2-.7 1.8-1.1 4.1-1.1 6.7 0 4.5 1.1 8.6 3.3 12.2 2.2 3.6 5 5.4 8.5 5.4 2.1 0 3.8-.6 5.2-1.7z"/><path fill="#523972" d="M367.1 26.5v4h-11.4l-.1 32.1c0 2.8.2 5 .7 6.4.9 2.6 2.6 3.8 5.2 3.8 1.3 0 2.5-.3 3.5-.9 1-.6 2.1-1.6 3.4-3l1.4 1.2-1.2 1.7c-1.9 2.6-4 4.4-6.1 5.5-2.2 1.1-4.2 1.6-6.2 1.6-4.4 0-7.3-1.9-8.9-5.8-.9-2.1-1.3-5-1.3-8.8V30.5H340c-.2-.1-.3-.2-.4-.3-.1-.1-.1-.3-.1-.4 0-.4.1-.7.3-.9.2-.2.7-.7 1.6-1.4 2.6-2.1 4.4-3.8 5.5-5.1 1.1-1.3 3.8-4.8 8-10.4.5 0 .8 0 .9.1.1.1.1.4.1.8v13.7h11.2zM370.7 76.2c3-.4 5-1.2 6-2.3.9-1.1 1.4-3.7 1.4-7.8V12.8c0-2.1-.3-3.6-.8-4.6-.5-1-1.8-1.5-3.9-1.5-.4 0-.8 0-1.2.1-.4.1-.8.1-1.3.2V5c1.6-.5 3.6-1.1 6-1.8s4.1-1.2 5-1.5l5.3-1.7.1.4v34.2c2.3-2.7 4.4-4.6 6.2-5.9 3.3-2.2 6.8-3.3 10.6-3.3 6 0 10.1 2.5 12.3 7.6 1.2 2.7 1.8 6.2 1.8 10.5v22.7c0 3.9.5 6.5 1.4 7.7.9 1.2 2.8 2 5.6 2.3v1.6h-24.1v-1.6c3.2-.4 5.3-1.2 6.2-2.3.9-1.1 1.4-3.7 1.4-7.7V43.7c0-3.6-.6-6.5-1.8-8.7-1.2-2.2-3.5-3.3-6.8-3.3-2.9 0-5.7 1-8.4 3.1s-4.1 3.4-4.1 4.1v27.4c0 4.2.5 6.8 1.4 7.8 1 1 3 1.8 6.2 2.2v1.6h-24.5v-1.7zM466.6 31c3.9 3.6 5.9 8.7 5.9 15.4h-35.3c.4 8.6 2.3 14.8 5.8 18.8 3.5 3.9 7.7 5.9 12.5 5.9 3.9 0 7.2-1 9.8-3.1 2.7-2 5.1-4.9 7.4-8.7l1.9.7c-1.5 4.7-4.4 9.1-8.5 13.1-4.2 4-9.3 6-15.3 6-7 0-12.4-2.6-16.2-7.9-3.8-5.3-5.7-11.3-5.7-18.2 0-7.5 2.2-13.9 6.6-19.3 4.4-5.4 10.2-8.1 17.2-8.1 5.3 0 9.9 1.8 13.9 5.4zm-26.7 4.3c-1.2 2-2 4.5-2.6 7.6h23.5c-.4-3.7-1.1-6.5-2.1-8.3-1.8-3.3-4.9-4.9-9.1-4.9-4.2 0-7.5 1.8-9.7 5.6zM479.5 76.2c4-.4 6.5-1 7.5-2s1.6-3.6 1.6-8V39.7c0-2.4-.2-4.1-.5-5-.6-1.5-1.7-2.3-3.5-2.3-.4 0-.8 0-1.2.1-.4.1-1.5.4-3.4.9v-1.7l2.4-.8c6.5-2.1 11-3.7 13.6-4.8 1-.4 1.7-.7 2-.7.1.3.1.5.1.8v40c0 4.2.5 6.9 1.5 8 1 1.1 3.3 1.8 6.9 2.1v1.6h-27v-1.7zm8.9-74.4c1.1-1.1 2.5-1.7 4.1-1.7 1.6 0 3 .6 4.1 1.7 1.1 1.1 1.7 2.5 1.7 4.1 0 1.6-.6 2.9-1.7 4.1-1.1 1.1-2.5 1.7-4.1 1.7-1.6 0-3-.6-4.1-1.7-1.1-1.1-1.7-2.5-1.7-4.1 0-1.6.6-2.9 1.7-4.1zM509.5 76c3.4-.3 5.7-.9 6.8-1.8 1.1-.9 1.7-2.8 1.7-5.8V43.2c0-3.7-.3-6.3-1-7.9-.7-1.6-1.9-2.4-3.8-2.4-.4 0-.9 0-1.5.1s-1.3.2-1.9.4v-1.8c2.1-.7 4.3-1.5 6.5-2.3 2.2-.8 3.8-1.3 4.6-1.7 1.8-.7 3.8-1.5 5.7-2.4.3 0 .4.1.5.3.1.2.1.6.1 1.2v9.1c2.4-3.3 4.7-5.9 6.9-7.7 2.2-1.9 4.5-2.8 6.9-2.8 1.9 0 3.4.6 4.6 1.7s1.8 2.6 1.8 4.3c0 1.5-.5 2.8-1.4 3.8-.9 1-2.1 1.6-3.4 1.6-1.4 0-2.8-.6-4.3-1.9-1.4-1.3-2.6-1.9-3.4-1.9-1.3 0-2.9 1-4.8 3.1s-2.8 4.3-2.8 6.5v25.1c0 3.2.7 5.4 2.2 6.6 1.5 1.2 4 1.8 7.4 1.8v1.8h-27.4V76zM576 100.8c3.5-.2 5.7-1 6.6-2.2.9-1.3 1.4-3.2 1.4-6V39.2c0-2.8-.3-4.6-1-5.4-.7-.8-2-1.2-3.9-1.2-.4 0-.8 0-1.1.1-.4 0-.9.1-1.5.2V31l5.3-1.7c.2 0 3.9-1.3 11.2-3.8.2 0 .3.1.4.3.1.2.1.4.1.6v7.5c2.4-2.4 4.6-4.3 6.5-5.5 3.3-2.1 6.8-3.1 10.3-3.1 5.1 0 9.5 2.2 13.2 6.5 3.7 4.4 5.5 10.3 5.5 17.9 0 7.4-2.2 14.1-6.6 20.2-4.4 6-10 9.1-16.7 9.1-2.1 0-3.9-.3-5.4-.8-2.4-.8-4.6-2.2-6.6-4.3V92c0 3.7.6 6 1.8 6.9 1.2.9 3.9 1.4 8 1.7v1.9H576v-1.7zm21.9-27.7c1.9 1.2 4.2 1.9 6.8 1.9 4 0 7.4-2 10.3-6 2.8-4 4.3-9.5 4.3-16.6 0-6.8-1.5-11.9-4.4-15.3-2.9-3.4-6.4-5.1-10.3-5.1-2.7 0-5.3.8-7.5 2.5-2.3 1.7-3.4 3.3-3.4 5v28c.9 2.5 2.3 4.4 4.2 5.6zM632.9 76c3.4-.3 5.7-.9 6.8-1.8 1.1-.9 1.7-2.8 1.7-5.8V43.2c0-3.7-.3-6.3-1-7.9-.7-1.6-1.9-2.4-3.8-2.4-.4 0-.9 0-1.5.1s-1.3.2-1.9.4v-1.8c2.1-.7 4.3-1.5 6.5-2.3 2.2-.8 3.8-1.3 4.6-1.7 1.8-.7 3.8-1.5 5.7-2.4.3 0 .4.1.5.3.1.2.1.6.1 1.2v9.1c2.4-3.3 4.7-5.9 6.9-7.7 2.2-1.9 4.5-2.8 6.9-2.8 1.9 0 3.4.6 4.6 1.7 1.2 1.1 1.8 2.6 1.8 4.3 0 1.5-.5 2.8-1.4 3.8-.9 1-2 1.6-3.4 1.6s-2.8-.6-4.3-1.9c-1.4-1.3-2.6-1.9-3.4-1.9-1.3 0-2.9 1-4.8 3.1s-2.8 4.3-2.8 6.5v25.1c0 3.2.7 5.4 2.2 6.6 1.5 1.2 4 1.8 7.4 1.8v1.8h-27.4V76zM680.2 33.2c4.7-5.1 10.7-7.7 18.1-7.7 7.3 0 13.4 2.4 18.3 7.2 4.8 4.8 7.2 11.2 7.2 19.3 0 7.4-2.3 13.8-7 19.3s-10.7 8.2-18.1 8.2c-7.1 0-13.2-2.6-18.1-7.8-4.9-5.2-7.4-11.8-7.4-19.7 0-7.4 2.4-13.7 7-18.8zm8.9-1.4c-3.7 3.4-5.6 9.2-5.6 17.5 0 6.6 1.5 12.8 4.5 18.5 3 5.7 7.1 8.6 12.5 8.6 4.2 0 7.4-1.9 9.6-5.7 2.2-3.8 3.4-8.8 3.4-15 0-6.4-1.4-12.5-4.3-18.1-2.9-5.7-7-8.5-12.4-8.5-3-.2-5.5.8-7.7 2.7zM727.9 100.8c3.5-.2 5.7-1 6.6-2.2.9-1.3 1.4-3.2 1.4-6V39.2c0-2.8-.3-4.6-1-5.4-.7-.8-2-1.2-3.9-1.2-.4 0-.8 0-1.1.1-.4 0-.9.1-1.5.2V31l5.3-1.7c.2 0 3.9-1.3 11.2-3.8.2 0 .3.1.4.3.1.2.1.4.1.6v7.5c2.4-2.4 4.6-4.3 6.5-5.5 3.3-2.1 6.8-3.1 10.3-3.1 5.1 0 9.5 2.2 13.2 6.5 3.7 4.4 5.5 10.3 5.5 17.9 0 7.4-2.2 14.1-6.6 20.2-4.4 6-10 9.1-16.7 9.1-2.1 0-3.9-.3-5.4-.8-2.4-.8-4.6-2.2-6.6-4.3V92c0 3.7.6 6 1.8 6.9 1.2.9 3.9 1.4 8 1.7v1.9h-27.5v-1.7zm21.9-27.7c1.9 1.2 4.2 1.9 6.8 1.9 4 0 7.4-2 10.3-6 2.8-4 4.3-9.5 4.3-16.6 0-6.8-1.5-11.9-4.4-15.3s-6.4-5.1-10.3-5.1c-2.7 0-5.3.8-7.5 2.5-2.3 1.7-3.4 3.3-3.4 5v28c.9 2.5 2.3 4.4 4.2 5.6zM824.1 31c3.9 3.6 5.9 8.7 5.9 15.4h-35.3c.4 8.6 2.3 14.8 5.8 18.8 3.5 3.9 7.7 5.9 12.5 5.9 3.9 0 7.2-1 9.8-3.1 2.7-2 5.1-4.9 7.4-8.7l1.9.7c-1.5 4.7-4.4 9.1-8.5 13.1-4.2 4-9.3 6-15.3 6-7 0-12.4-2.6-16.2-7.9-3.8-5.3-5.7-11.3-5.7-18.2 0-7.5 2.2-13.9 6.6-19.3 4.4-5.4 10.2-8.1 17.2-8.1 5.4 0 10 1.8 13.9 5.4zm-26.6 4.3c-1.2 2-2 4.5-2.6 7.6h23.5c-.4-3.7-1.1-6.5-2.1-8.3-1.8-3.3-4.9-4.9-9.1-4.9-4.3 0-7.5 1.8-9.7 5.6zM835.4 76c3.4-.3 5.7-.9 6.8-1.8 1.1-.9 1.7-2.8 1.7-5.8V43.2c0-3.7-.3-6.3-1-7.9-.7-1.6-1.9-2.4-3.8-2.4-.4 0-.9 0-1.5.1s-1.3.2-1.9.4v-1.8c2.1-.7 4.3-1.5 6.5-2.3 2.2-.8 3.8-1.3 4.6-1.7 1.8-.7 3.8-1.5 5.7-2.4.3 0 .4.1.5.3.1.2.1.6.1 1.2v9.1c2.4-3.3 4.7-5.9 6.9-7.7 2.2-1.9 4.5-2.8 6.9-2.8 1.9 0 3.4.6 4.6 1.7s1.8 2.6 1.8 4.3c0 1.5-.5 2.8-1.4 3.8-.9 1-2.1 1.6-3.4 1.6-1.4 0-2.8-.6-4.3-1.9-1.4-1.3-2.6-1.9-3.4-1.9-1.3 0-2.9 1-4.8 3.1s-2.8 4.3-2.8 6.5v25.1c0 3.2.7 5.4 2.2 6.6 1.5 1.2 4 1.8 7.4 1.8v1.8h-27.4V76z"/><path fill="#8B1C1B" d="M903.5 76.2c3.9-.2 6.5-.9 7.8-2.2 1.2-1.3 1.9-4 1.9-8.1V30.2h-9.5v-3.7h9.5c0-5.9.8-10.8 2.4-14.9 3-7.8 8.6-11.6 16.8-11.6 3.3 0 6.2.6 8.8 1.9 2.6 1.3 3.9 3 3.9 5.2 0 1.2-.4 2.3-1.3 3.3s-2 1.4-3.2 1.4c-1.1 0-2-.3-2.8-1-.8-.6-1.7-1.8-2.8-3.4l-1-1.3c-.5-.8-1.1-1.4-1.8-2-.7-.5-1.7-.8-2.9-.8-2.8 0-4.7 1.4-5.7 4.2-.6 1.5-.8 3.4-.8 5.8v13.2h13.9v3.7h-13.9v35.7c0 4.2.6 6.9 1.7 8 1.1 1.2 4.1 1.9 8.9 2.3v1.6h-29.7v-1.6zM949.2 33.2c4.7-5.1 10.7-7.7 18.1-7.7 7.3 0 13.4 2.4 18.3 7.2 4.8 4.8 7.2 11.2 7.2 19.3 0 7.4-2.3 13.8-7 19.3s-10.7 8.2-18.1 8.2c-7.1 0-13.2-2.6-18.1-7.8-4.9-5.2-7.4-11.8-7.4-19.7-.1-7.4 2.3-13.7 7-18.8zm8.9-1.4c-3.7 3.4-5.6 9.2-5.6 17.5 0 6.6 1.5 12.8 4.5 18.5 3 5.7 7.1 8.6 12.5 8.6 4.2 0 7.4-1.9 9.6-5.7 2.2-3.8 3.4-8.8 3.4-15 0-6.4-1.4-12.5-4.3-18.1-2.9-5.7-7-8.5-12.4-8.5-3-.2-5.6.8-7.7 2.7zM996.7 76c3.4-.3 5.7-.9 6.8-1.8 1.1-.9 1.7-2.8 1.7-5.8V43.2c0-3.7-.3-6.3-1-7.9-.7-1.6-1.9-2.4-3.8-2.4-.4 0-.9 0-1.5.1s-1.3.2-1.9.4v-1.8c2.1-.7 4.3-1.5 6.5-2.3 2.2-.8 3.8-1.3 4.6-1.7 1.8-.7 3.8-1.5 5.7-2.4.3 0 .4.1.5.3.1.2.1.6.1 1.2v9.1c2.4-3.3 4.7-5.9 6.9-7.7 2.2-1.9 4.5-2.8 6.9-2.8 1.9 0 3.4.6 4.6 1.7 1.2 1.1 1.8 2.6 1.8 4.3 0 1.5-.5 2.8-1.4 3.8-.9 1-2.1 1.6-3.4 1.6-1.4 0-2.8-.6-4.3-1.9-1.4-1.3-2.6-1.9-3.4-1.9-1.3 0-2.9 1-4.8 3.1s-2.8 4.3-2.8 6.5v25.1c0 3.2.7 5.4 2.2 6.6 1.5 1.2 4 1.8 7.4 1.8v1.8h-27.4V76z"/><path fill="#523972" d="M52.4 155.8c-2.2.3-3.9.6-5 1.1-1.1.5-1.6 1.5-1.6 2.9 0 .8.1 1.6.4 2.4.2.8.6 1.8 1 3l10.1 26.3 9.9-24.1c.4-1 .9-2.4 1.4-4.1.5-1.7.8-3 .8-3.8 0-1.4-.4-2.3-1.3-2.8s-2.1-.8-3.7-1.1V154h14.1v1.6c-.9.2-1.7.6-2.3 1.3-.6.7-1.4 2.4-2.5 5L56 206.1c-.1.3-.3.6-.4.7-.1.1-.3.2-.5.2-.4-.2-.7-.4-.8-.6l-13.6-33.6-13.6 33.6c-.1.2-.2.3-.3.5-.1.1-.3.2-.5.2-.4-.2-.7-.4-.8-.6l-16.6-41c-1.8-4.5-3-7.2-3.6-8-.6-.8-1.8-1.3-3.5-1.6v-1.6h20.7v1.6c-1.7.1-3 .5-3.9.9-.9.5-1.4 1.5-1.4 3 0 1.1.8 3.7 2.3 8 .9 2.4 2 5.3 3.4 8.7l6.4 15.6 9.8-21.1.1-.7c0-.7-.4-2.1-1.2-4.2-.8-2-1.6-3.9-2.3-5.5-.7-1.7-1.6-2.9-2.5-3.6-.9-.7-2.3-1.1-4-1.2v-1.6h23.2v1.6zM82.7 204.4c3-.4 5-1.2 6-2.3.9-1.1 1.4-3.7 1.4-7.8V141c0-2.1-.3-3.6-.8-4.6-.5-1-1.8-1.5-3.9-1.5-.4 0-.8 0-1.2.1-.4.1-.8.1-1.3.2v-2c1.6-.5 3.6-1.1 6-1.8s4.1-1.2 5-1.5l5.3-1.7.1.4v34.2c2.3-2.7 4.4-4.6 6.2-5.9 3.3-2.2 6.8-3.3 10.6-3.3 6 0 10.1 2.5 12.3 7.6 1.2 2.7 1.8 6.2 1.8 10.5v22.7c0 3.9.5 6.5 1.4 7.7.9 1.2 2.8 2 5.6 2.3v1.6h-24.1v-1.6c3.2-.4 5.3-1.2 6.2-2.3.9-1.1 1.4-3.7 1.4-7.7v-22.5c0-3.6-.6-6.5-1.8-8.7-1.2-2.2-3.5-3.3-6.8-3.3-2.9 0-5.7 1-8.4 3.1s-4.1 3.4-4.1 4.1v27.4c0 4.2.5 6.8 1.4 7.8 1 1 3 1.8 6.2 2.2v1.6H82.7v-1.7zM140.9 204.4c4-.4 6.5-1 7.5-2s1.6-3.6 1.6-8v-26.5c0-2.4-.2-4.1-.5-5-.6-1.5-1.7-2.3-3.5-2.3-.4 0-.8 0-1.2.1-.4.1-1.5.4-3.4.9v-1.7l2.4-.8c6.5-2.1 11-3.7 13.6-4.8 1-.4 1.7-.7 2-.7.1.3.1.5.1.8v40c0 4.2.5 6.9 1.5 8 1 1.1 3.3 1.8 6.9 2.1v1.6h-27v-1.7zm8.9-74.4c1.1-1.1 2.5-1.7 4.1-1.7 1.6 0 3 .6 4.1 1.7 1.1 1.1 1.7 2.5 1.7 4.1 0 1.6-.6 2.9-1.7 4.1-1.1 1.1-2.5 1.7-4.1 1.7-1.6 0-3-.6-4.1-1.7-1.1-1.1-1.7-2.5-1.7-4.1 0-1.6.6-2.9 1.7-4.1zM172.7 204.4c3.4-.3 5.8-1 7-2.1 1.2-1.1 1.8-3.1 1.8-6.2v-54.4c0-2.4-.2-4.1-.6-5.1-.7-1.6-2.2-2.3-4.5-2.3-.5 0-1.1.1-1.7.2-.6.1-1.4.3-2.3.5v-1.8c5-1.3 11-3.1 18.1-5.3.3 0 .4.1.5.3.1.2.1.7.1 1.4v66.7c0 3.2.6 5.3 1.7 6.3 1.1.9 3.4 1.5 6.9 1.8v1.6h-26.9v-1.6zM208 188.5h1.8c.9 4.2 2 7.5 3.4 9.7 2.6 4.2 6.4 6.2 11.4 6.2 2.8 0 5-.8 6.6-2.3 1.6-1.5 2.4-3.5 2.4-6 0-1.6-.5-3.1-1.4-4.5-.9-1.4-2.6-2.9-4.9-4.2l-6.2-3.6c-4.6-2.4-7.9-4.9-10.1-7.4-2.2-2.5-3.2-5.4-3.2-8.8 0-4.2 1.5-7.6 4.5-10.2 3-2.7 6.7-4 11.2-4 2 0 4.1.4 6.5 1.1 2.4.7 3.7 1.1 4 1.1.7 0 1.1-.1 1.4-.3.3-.2.6-.5.8-.9h1.3l.4 15.5h-1.7c-.7-3.6-1.7-6.4-3-8.4-2.3-3.7-5.6-5.6-10-5.6-2.6 0-4.6.8-6.1 2.4-1.5 1.6-2.2 3.5-2.2 5.6 0 3.4 2.6 6.5 7.7 9.1l7.3 4c7.9 4.3 11.9 9.3 11.9 15 0 4.4-1.6 8-4.9 10.7-3.3 2.8-7.6 4.2-12.9 4.2-2.2 0-4.7-.4-7.6-1.1-2.8-.7-4.5-1.1-5-1.1-.4 0-.8.2-1.2.5-.3.3-.6.7-.8 1.1H208v-17.8zM275.4 154.7v4H264l-.1 32.1c0 2.8.2 5 .7 6.4.9 2.6 2.6 3.8 5.2 3.8 1.3 0 2.5-.3 3.5-.9 1-.6 2.1-1.6 3.4-3l1.4 1.2-1.2 1.7c-1.9 2.6-4 4.4-6.1 5.5-2.2 1.1-4.2 1.6-6.2 1.6-4.4 0-7.3-1.9-8.9-5.8-.9-2.1-1.3-5-1.3-8.8v-33.7h-6.1c-.2-.1-.3-.2-.4-.3-.1-.1-.1-.3-.1-.4 0-.4.1-.7.3-.9.2-.2.7-.7 1.6-1.4 2.6-2.1 4.4-3.8 5.5-5.1 1.1-1.3 3.8-4.8 8-10.4.5 0 .8 0 .9.1.1.1.1.4.1.8v13.7h11.2zM335.5 154.7v4h-11.4l-.1 32.1c0 2.8.2 5 .7 6.4.9 2.6 2.6 3.8 5.2 3.8 1.3 0 2.5-.3 3.5-.9 1-.6 2.1-1.6 3.4-3l1.4 1.2-1.2 1.7c-1.9 2.6-4 4.4-6.1 5.5-2.2 1.1-4.2 1.6-6.2 1.6-4.4 0-7.3-1.9-8.9-5.8-.9-2.1-1.3-5-1.3-8.8v-33.7h-6.1c-.2-.1-.3-.2-.4-.3-.1-.1-.1-.3-.1-.4 0-.4.1-.7.3-.9.2-.2.7-.7 1.6-1.4 2.6-2.1 4.4-3.8 5.5-5.1 1.1-1.3 3.8-4.8 8-10.4.5 0 .8 0 .9.1.1.1.1.4.1.8v13.7h11.2zM339.2 204.4c3-.4 5-1.2 6-2.3.9-1.1 1.4-3.7 1.4-7.8V141c0-2.1-.3-3.6-.8-4.6-.5-1-1.8-1.5-3.9-1.5-.4 0-.8 0-1.2.1-.4.1-.8.1-1.3.2v-2c1.6-.5 3.6-1.1 6-1.8s4.1-1.2 5-1.5l5.3-1.7.1.4v34.2c2.3-2.7 4.4-4.6 6.2-5.9 3.3-2.2 6.8-3.3 10.6-3.3 6 0 10.1 2.5 12.3 7.6 1.2 2.7 1.8 6.2 1.8 10.5v22.7c0 3.9.5 6.5 1.4 7.7.9 1.2 2.8 2 5.6 2.3v1.6h-24.1v-1.6c3.2-.4 5.3-1.2 6.2-2.3.9-1.1 1.4-3.7 1.4-7.7v-22.5c0-3.6-.6-6.5-1.8-8.7-1.2-2.2-3.5-3.3-6.8-3.3-2.9 0-5.7 1-8.4 3.1s-4.1 3.4-4.1 4.1v27.4c0 4.2.5 6.8 1.4 7.8 1 1 3 1.8 6.2 2.2v1.6h-24.5v-1.7zM435 159.2c3.9 3.6 5.9 8.7 5.9 15.4h-35.3c.4 8.6 2.3 14.8 5.8 18.8 3.5 3.9 7.7 5.9 12.5 5.9 3.9 0 7.2-1 9.8-3.1 2.7-2 5.1-4.9 7.4-8.7l1.9.7c-1.5 4.7-4.4 9.1-8.5 13.1-4.2 4-9.3 6-15.3 6-7 0-12.4-2.6-16.2-7.9-3.8-5.3-5.7-11.3-5.7-18.2 0-7.5 2.2-13.9 6.6-19.3 4.4-5.4 10.2-8.1 17.2-8.1 5.4 0 10 1.8 13.9 5.4zm-26.6 4.3c-1.2 2-2 4.5-2.6 7.6h23.5c-.4-3.7-1.1-6.5-2.1-8.3-1.8-3.3-4.9-4.9-9.1-4.9-4.3 0-7.5 1.8-9.7 5.6zM476.1 204.5c2.9-.3 4.8-.7 5.8-1.4 1.5-1.1 2.2-3.2 2.2-6.5v-28.8c0-2.7-.4-4.5-1.1-5.4-.7-.9-1.9-1.3-3.6-1.3-.8 0-1.4 0-1.8.1-.4.1-.8.2-1.4.4v-1.9l4-1.3c1.4-.5 3.8-1.4 7.1-2.6 3.3-1.3 5-1.9 5.2-1.9.2 0 .3.1.3.3 0 .2.1.5.1 1.1v7.5c3.7-3.3 6.8-5.6 9.5-6.9 2.7-1.3 5.4-1.9 8.2-1.9 3.8 0 6.9 1.3 9.1 3.9 1.2 1.4 2.2 3.3 2.9 5.7 2.7-2.8 5.1-4.8 7.2-6.2 3.5-2.3 7.1-3.4 10.8-3.4 6 0 10 2.4 12 7.3 1.1 2.7 1.7 7.1 1.7 13v23.1c0 2.6.6 4.4 1.8 5.4 1.2.9 3.3 1.6 6.3 1.9v1.4h-25.1v-1.6c3.2-.3 5.4-.9 6.4-1.9 1-1 1.5-3 1.5-6.1v-24c0-3.6-.4-6.3-1.2-8-1.4-3-4.1-4.6-8.1-4.6-2.4 0-4.8.8-7.2 2.4-1.4.9-3.1 2.4-5.1 4.5v28.5c0 3 .5 5.3 1.6 6.8 1.1 1.6 3.3 2.4 6.7 2.5v1.4h-25.5v-1.4c3.5-.4 5.8-1.3 6.7-2.6 1-1.3 1.4-4.4 1.4-9.3v-15.5c0-5.7-.4-9.6-1.1-11.8-1.2-3.6-3.8-5.5-7.8-5.5-2.3 0-4.5.6-6.7 1.9-2.2 1.2-4.1 2.9-5.8 4.9V197c0 2.8.5 4.8 1.5 5.8 1 1.1 3.1 1.6 6.4 1.7v1.4h-25.3v-1.4zM575.1 181.4c3.4-2.2 10.2-5.2 20.4-9.1v-4.7c0-3.8-.4-6.4-1.1-7.9-1.3-2.5-3.9-3.7-7.8-3.7-1.9 0-3.7.5-5.4 1.4-1.7 1-2.6 2.4-2.6 4.1 0 .4.1 1.2.3 2.3.2 1.1.3 1.7.3 2 0 2.1-.7 3.5-2.1 4.3-.8.5-1.7.7-2.8.7-1.7 0-2.9-.5-3.8-1.6-.9-1.1-1.3-2.3-1.3-3.6 0-2.6 1.6-5.3 4.8-8.2 3.2-2.8 7.9-4.3 14.1-4.3 7.2 0 12.1 2.3 14.6 7 1.4 2.6 2.1 6.3 2.1 11.2v22.3c0 2.2.1 3.6.4 4.5.5 1.4 1.5 2.2 3 2.2.9 0 1.6-.1 2.1-.4.6-.3 1.5-.9 2.9-1.9v2.9c-1.2 1.4-2.5 2.6-3.8 3.6-2.1 1.4-4.2 2.1-6.3 2.1-2.5 0-4.3-.8-5.5-2.4-1.1-1.6-1.8-3.6-1.9-5.8-2.8 2.4-5.2 4.3-7.2 5.5-3.4 2-6.6 3-9.6 3-3.2 0-6-1.1-8.3-3.4-2.3-2.2-3.5-5.1-3.5-8.5-.1-5.5 2.6-10 8-13.6zm20.4-6.2c-4.3 1.4-7.8 3-10.6 4.7-5.3 3.3-8 7-8 11.2 0 3.4 1.1 5.9 3.3 7.5 1.4 1 3.1 1.6 4.8 1.6 2.4 0 4.8-.7 7-2.1 2.2-1.4 3.4-3.1 3.4-5.2v-17.7zM614 204.1c3.4-.3 5.7-.9 6.8-1.8 1.1-.9 1.7-2.8 1.7-5.8v-25.1c0-3.7-.3-6.3-1-7.9-.7-1.6-1.9-2.4-3.8-2.4-.4 0-.9 0-1.5.1s-1.3.2-1.9.4v-1.8c2.1-.7 4.3-1.5 6.5-2.3 2.2-.8 3.8-1.3 4.6-1.7 1.8-.7 3.8-1.5 5.7-2.4.3 0 .4.1.5.3.1.2.1.6.1 1.2v9.1c2.4-3.3 4.7-5.9 6.9-7.7 2.2-1.9 4.5-2.8 6.9-2.8 1.9 0 3.4.6 4.6 1.7 1.2 1.1 1.8 2.6 1.8 4.3 0 1.5-.5 2.8-1.4 3.8-.9 1-2.1 1.6-3.4 1.6-1.4 0-2.8-.6-4.3-1.9-1.4-1.3-2.6-1.9-3.4-1.9-1.3 0-2.9 1-4.8 3.1s-2.8 4.3-2.8 6.5v25.1c0 3.2.7 5.4 2.2 6.6 1.5 1.2 4 1.8 7.4 1.8v1.8H614v-1.9zM653.6 204.4c4-.4 6.5-1 7.5-2s1.6-3.6 1.6-8v-26.5c0-2.4-.2-4.1-.5-5-.6-1.5-1.7-2.3-3.5-2.3-.4 0-.8 0-1.2.1-.4.1-1.5.4-3.4.9v-1.7l2.4-.8c6.5-2.1 11-3.7 13.6-4.8 1-.4 1.7-.7 2-.7.1.3.1.5.1.8v40c0 4.2.5 6.9 1.5 8 1 1.1 3.3 1.8 6.9 2.1v1.6h-27v-1.7zm8.9-74.4c1.1-1.1 2.5-1.7 4.1-1.7 1.6 0 3 .6 4.1 1.7 1.1 1.1 1.7 2.5 1.7 4.1 0 1.6-.6 2.9-1.7 4.1-1.1 1.1-2.5 1.7-4.1 1.7-1.6 0-3-.6-4.1-1.7-1.1-1.1-1.7-2.5-1.7-4.1 0-1.6.6-2.9 1.7-4.1zM685.1 204.4c2.6-.3 4.5-1 5.5-2 1.1-1 1.6-3.2 1.6-6.6v-28.3c0-2.4-.2-4-.7-5-.7-1.4-2.2-2.1-4.3-2.1-.3 0-.7 0-1 .1-.4 0-.8.1-1.3.2v-1.9c1.5-.4 5.1-1.6 10.8-3.4l5.2-1.7c.3 0 .4.1.5.3.1.2.1.4.1.8v8.2c3.4-3.2 6.1-5.4 8-6.6 2.9-1.8 5.9-2.7 9-2.7 2.5 0 4.8.7 6.9 2.2 4 2.8 6 7.8 6 15.1v26c0 2.7.5 4.6 1.6 5.8 1.1 1.2 2.9 1.8 5.4 1.8v1.6h-23.8v-1.6c2.7-.4 4.6-1.1 5.7-2.3 1.1-1.1 1.6-3.6 1.6-7.4V171c0-3.2-.6-5.8-1.8-7.9-1.2-2.1-3.4-3.1-6.5-3.1-2.2 0-4.4.7-6.6 2.2-1.3.9-2.9 2.3-4.9 4.2v31.2c0 2.7.6 4.5 1.8 5.4 1.2.9 3.1 1.4 5.6 1.5v1.6h-24.3v-1.7zM779.9 159.2c3.9 3.6 5.9 8.7 5.9 15.4h-35.3c.4 8.6 2.3 14.8 5.8 18.8 3.5 3.9 7.7 5.9 12.5 5.9 3.9 0 7.2-1 9.8-3.1 2.7-2 5.1-4.9 7.4-8.7l1.9.7c-1.5 4.7-4.4 9.1-8.5 13.1-4.2 4-9.3 6-15.3 6-7 0-12.4-2.6-16.2-7.9-3.8-5.3-5.7-11.3-5.7-18.2 0-7.5 2.2-13.9 6.6-19.3 4.4-5.4 10.2-8.1 17.2-8.1 5.4 0 9.9 1.8 13.9 5.4zm-26.7 4.3c-1.2 2-2 4.5-2.6 7.6h23.5c-.4-3.7-1.1-6.5-2.1-8.3-1.8-3.3-4.9-4.9-9.1-4.9-4.2 0-7.5 1.8-9.7 5.6zM820.9 204.5c2.9-.3 4.8-.7 5.8-1.4 1.5-1.1 2.2-3.2 2.2-6.5v-28.8c0-2.7-.4-4.5-1.1-5.4-.7-.9-1.9-1.3-3.6-1.3-.8 0-1.4 0-1.8.1-.4.1-.8.2-1.4.4v-1.9l4-1.3c1.4-.5 3.8-1.4 7.1-2.6 3.3-1.3 5-1.9 5.2-1.9.2 0 .3.1.3.3 0 .2.1.5.1 1.1v7.5c3.7-3.3 6.8-5.6 9.5-6.9 2.7-1.3 5.4-1.9 8.2-1.9 3.8 0 6.9 1.3 9.1 3.9 1.2 1.4 2.2 3.3 2.9 5.7 2.7-2.8 5.1-4.8 7.2-6.2 3.5-2.3 7.1-3.4 10.8-3.4 6 0 10 2.4 12 7.3 1.1 2.7 1.7 7.1 1.7 13v23.1c0 2.6.6 4.4 1.8 5.4 1.2.9 3.3 1.6 6.3 1.9v1.4h-25.1v-1.6c3.2-.3 5.4-.9 6.4-1.9 1-1 1.5-3 1.5-6.1v-24c0-3.6-.4-6.3-1.2-8-1.4-3-4.1-4.6-8.1-4.6-2.4 0-4.8.8-7.2 2.4-1.4.9-3.1 2.4-5.1 4.5v28.5c0 3 .5 5.3 1.6 6.8 1.1 1.6 3.3 2.4 6.7 2.5v1.4h-25.5v-1.4c3.5-.4 5.8-1.3 6.7-2.6 1-1.3 1.4-4.4 1.4-9.3v-15.5c0-5.7-.4-9.6-1.1-11.8-1.2-3.6-3.8-5.5-7.8-5.5-2.3 0-4.5.6-6.7 1.9-2.2 1.2-4.1 2.9-5.8 4.9V197c0 2.8.5 4.8 1.5 5.8 1 1.1 3.1 1.6 6.4 1.7v1.4h-25.3v-1.4zM947.6 159.2c3.9 3.6 5.9 8.7 5.9 15.4h-35.3c.4 8.6 2.3 14.8 5.8 18.8 3.5 3.9 7.7 5.9 12.5 5.9 3.9 0 7.2-1 9.8-3.1 2.7-2 5.1-4.9 7.4-8.7l1.9.7c-1.5 4.7-4.4 9.1-8.5 13.1-4.2 4-9.3 6-15.3 6-7 0-12.4-2.6-16.2-7.9-3.8-5.3-5.7-11.3-5.7-18.2 0-7.5 2.2-13.9 6.6-19.3 4.4-5.4 10.2-8.1 17.2-8.1 5.4 0 10 1.8 13.9 5.4zm-26.7 4.3c-1.2 2-2 4.5-2.6 7.6h23.5c-.4-3.7-1.1-6.5-2.1-8.3-1.8-3.3-4.9-4.9-9.1-4.9-4.2 0-7.4 1.8-9.7 5.6zM960.2 204.5c2.9-.3 4.8-.7 5.8-1.4 1.5-1.1 2.2-3.2 2.2-6.5v-28.8c0-2.7-.4-4.5-1.1-5.4-.7-.9-1.9-1.3-3.6-1.3-.8 0-1.4 0-1.8.1-.4.1-.8.2-1.4.4v-1.9l4-1.3c1.4-.5 3.8-1.4 7.1-2.6 3.3-1.3 5-1.9 5.2-1.9.2 0 .3.1.3.3 0 .2.1.5.1 1.1v7.5c3.7-3.3 6.8-5.6 9.5-6.9 2.7-1.3 5.4-1.9 8.2-1.9 3.8 0 6.9 1.3 9.1 3.9 1.2 1.4 2.2 3.3 2.9 5.7 2.7-2.8 5.1-4.8 7.2-6.2 3.5-2.3 7.1-3.4 10.8-3.4 6 0 10 2.4 12 7.3 1.2 2.7 1.7 7.1 1.7 13v23.1c0 2.6.6 4.4 1.8 5.4 1.2.9 3.3 1.6 6.3 1.9v1.4h-25.1v-1.6c3.2-.3 5.4-.9 6.4-1.9 1-1 1.5-3 1.5-6.1v-24c0-3.6-.4-6.3-1.2-8-1.4-3-4.1-4.6-8.1-4.6-2.4 0-4.8.8-7.2 2.4-1.4.9-3.1 2.4-5.1 4.5v28.5c0 3 .5 5.3 1.6 6.8 1.1 1.6 3.3 2.4 6.7 2.5v1.4h-25.5v-1.4c3.5-.4 5.8-1.3 6.7-2.6 1-1.3 1.4-4.4 1.4-9.3v-15.5c0-5.7-.4-9.6-1.1-11.8-1.2-3.6-3.8-5.5-7.8-5.5-2.3 0-4.5.6-6.7 1.9-2.2 1.2-4.1 2.9-5.8 4.9V197c0 2.8.5 4.8 1.5 5.8 1 1.1 3.1 1.6 6.4 1.7v1.4h-25.3v-1.4zM9.4 289.6c4.7-5.1 10.7-7.7 18.1-7.7 7.3 0 13.4 2.4 18.3 7.2 4.8 4.8 7.2 11.2 7.2 19.3 0 7.4-2.3 13.8-7 19.3s-10.7 8.2-18.1 8.2c-7.1 0-13.2-2.6-18.1-7.8-4.9-5.2-7.4-11.8-7.4-19.7-.1-7.4 2.3-13.7 7-18.8zm8.9-1.4c-3.7 3.4-5.6 9.2-5.6 17.5 0 6.6 1.5 12.8 4.5 18.5 3 5.7 7.1 8.6 12.5 8.6 4.2 0 7.4-1.9 9.6-5.7 2.2-3.8 3.4-8.8 3.4-15 0-6.4-1.4-12.5-4.3-18.1-2.9-5.7-7-8.5-12.4-8.5-3-.2-5.6.8-7.7 2.7zM58.6 332.6c3.9-.2 6.5-.9 7.8-2.2 1.2-1.3 1.9-4 1.9-8.1v-35.7h-9.5v-3.7h9.5c0-5.9.8-10.8 2.4-14.9 3-7.8 8.6-11.6 16.8-11.6 3.3 0 6.2.6 8.8 1.9 2.6 1.3 3.9 3 3.9 5.2 0 1.2-.4 2.3-1.3 3.3s-2 1.4-3.2 1.4c-1.1 0-2-.3-2.8-1-.8-.6-1.7-1.8-2.8-3.4l-.9-1.4c-.5-.8-1.1-1.4-1.8-2-.7-.5-1.7-.8-2.9-.8-2.8 0-4.7 1.4-5.7 4.2-.6 1.5-.8 3.4-.8 5.8v13.2h13.9v3.7H77.8v35.7c0 4.2.6 6.9 1.7 8 1.1 1.2 4.1 1.9 8.9 2.3v1.6H58.6v-1.5z"/><path fill="#147792" d="M151.8 282.9v4h-11.4l-.1 32.1c0 2.8.2 5 .7 6.4.9 2.6 2.6 3.8 5.2 3.8 1.3 0 2.5-.3 3.5-.9 1-.6 2.1-1.6 3.4-3l1.4 1.2-1.2 1.7c-1.9 2.6-4 4.4-6.1 5.5-2.2 1.1-4.2 1.6-6.2 1.6-4.4 0-7.3-1.9-8.9-5.8-.9-2.1-1.3-5-1.3-8.8V287h-6.1c-.2-.1-.3-.2-.4-.3-.1-.1-.1-.3-.1-.4 0-.4.1-.7.3-.9.2-.2.7-.7 1.6-1.4 2.6-2.1 4.4-3.8 5.5-5.1 1.1-1.3 3.8-4.8 8-10.4.5 0 .8 0 .9.1.1.1.1.4.1.8v13.7h11.2zM155.5 332.6c3-.4 5-1.2 6-2.3.9-1.1 1.4-3.7 1.4-7.8v-53.4c0-2.1-.3-3.6-.8-4.6-.5-1-1.8-1.5-3.9-1.5-.4 0-.8 0-1.2.1-.4.1-.8.1-1.3.2v-2c1.6-.5 3.6-1.1 6-1.8s4.1-1.2 5-1.5l5.3-1.7.1.4v34.2c2.3-2.7 4.4-4.6 6.2-5.9 3.3-2.2 6.8-3.3 10.6-3.3 6 0 10.1 2.5 12.3 7.6 1.2 2.7 1.8 6.2 1.8 10.5v22.7c0 3.9.5 6.5 1.4 7.7.9 1.2 2.8 2 5.6 2.3v1.6h-24.1v-1.6c3.2-.4 5.3-1.2 6.2-2.3.9-1.1 1.4-3.7 1.4-7.7V300c0-3.6-.6-6.5-1.8-8.7-1.2-2.2-3.5-3.3-6.8-3.3-2.9 0-5.7 1-8.4 3.1s-4.1 3.4-4.1 4.1v27.4c0 4.2.5 6.8 1.4 7.8 1 1 3 1.8 6.2 2.2v1.6h-24.5v-1.6zM251.3 287.4c3.9 3.6 5.9 8.7 5.9 15.4h-35.3c.4 8.6 2.3 14.8 5.8 18.8 3.5 3.9 7.7 5.9 12.5 5.9 3.9 0 7.2-1 9.8-3.1 2.7-2 5.1-4.9 7.4-8.7l1.9.7c-1.5 4.7-4.4 9.1-8.5 13.1-4.2 4-9.3 6-15.3 6-7 0-12.4-2.6-16.2-7.9-3.8-5.3-5.7-11.3-5.7-18.2 0-7.5 2.2-13.9 6.6-19.3 4.4-5.4 10.2-8.1 17.2-8.1 5.4 0 10 1.8 13.9 5.4zm-26.6 4.3c-1.2 2-2 4.5-2.6 7.6h23.5c-.4-3.7-1.1-6.5-2.1-8.3-1.8-3.3-4.9-4.9-9.1-4.9-4.3 0-7.5 1.8-9.7 5.6zM296.5 316.7h1.8c.9 4.2 2 7.5 3.4 9.7 2.6 4.2 6.4 6.2 11.4 6.2 2.8 0 5-.8 6.6-2.3 1.6-1.5 2.4-3.5 2.4-6 0-1.6-.5-3.1-1.4-4.5-.9-1.4-2.6-2.9-4.9-4.2l-6.2-3.6c-4.6-2.4-7.9-4.9-10.1-7.4-2.2-2.5-3.2-5.4-3.2-8.8 0-4.2 1.5-7.6 4.5-10.2 3-2.7 6.7-4 11.2-4 2 0 4.1.4 6.5 1.1 2.4.7 3.7 1.1 4 1.1.7 0 1.1-.1 1.4-.3.3-.2.6-.5.8-.9h1.3l.4 15.5h-1.7c-.7-3.6-1.7-6.4-3-8.4-2.3-3.7-5.6-5.6-10-5.6-2.6 0-4.6.8-6.1 2.4-1.5 1.6-2.2 3.5-2.2 5.6 0 3.4 2.6 6.5 7.7 9.1l7.3 4c7.9 4.3 11.9 9.3 11.9 15 0 4.4-1.6 8-4.9 10.7-3.3 2.8-7.6 4.2-12.9 4.2-2.2 0-4.7-.4-7.6-1.1-2.8-.7-4.5-1.1-5-1.1-.4 0-.8.2-1.2.5-.3.3-.6.7-.8 1.1h-1.4v-17.8zM347.2 309.6c3.4-2.2 10.2-5.2 20.4-9.1v-4.7c0-3.8-.4-6.4-1.1-7.9-1.3-2.5-3.9-3.7-7.8-3.7-1.9 0-3.7.5-5.4 1.4-1.7 1-2.6 2.4-2.6 4.1 0 .4.1 1.2.3 2.3.2 1.1.3 1.7.3 2 0 2.1-.7 3.5-2.1 4.3-.8.5-1.7.7-2.8.7-1.7 0-2.9-.5-3.8-1.6-.9-1.1-1.3-2.3-1.3-3.6 0-2.6 1.6-5.3 4.8-8.2 3.2-2.8 7.9-4.3 14.1-4.3 7.2 0 12.1 2.3 14.6 7 1.4 2.6 2.1 6.3 2.1 11.2v22.3c0 2.2.1 3.6.4 4.5.5 1.4 1.5 2.2 3 2.2.9 0 1.6-.1 2.1-.4.6-.3 1.5-.9 2.9-1.9v2.9c-1.2 1.4-2.5 2.6-3.8 3.6-2.1 1.4-4.2 2.1-6.3 2.1-2.5 0-4.3-.8-5.5-2.4-1.1-1.6-1.8-3.6-1.9-5.8-2.8 2.4-5.2 4.3-7.2 5.5-3.4 2-6.6 3-9.6 3-3.2 0-6-1.1-8.3-3.4-2.3-2.2-3.5-5.1-3.5-8.5-.1-5.5 2.6-10 8-13.6zm20.4-6.2c-4.3 1.4-7.8 3-10.6 4.7-5.3 3.3-8 7-8 11.2 0 3.4 1.1 5.9 3.3 7.5 1.4 1 3.1 1.6 4.8 1.6 2.4 0 4.8-.7 7-2.1 2.2-1.4 3.4-3.1 3.4-5.2v-17.7zM387.3 332.7c2.9-.3 4.8-.7 5.8-1.4 1.5-1.1 2.2-3.2 2.2-6.5V296c0-2.7-.4-4.5-1.1-5.4-.7-.9-1.9-1.3-3.6-1.3-.8 0-1.4 0-1.8.1-.4.1-.8.2-1.4.4v-1.9l4-1.3c1.4-.5 3.8-1.4 7.1-2.6 3.3-1.3 5-1.9 5.2-1.9.2 0 .3.1.3.3 0 .2.1.5.1 1.1v7.5c3.7-3.3 6.8-5.6 9.5-6.9 2.7-1.3 5.4-1.9 8.2-1.9 3.8 0 6.9 1.3 9.1 3.9 1.2 1.4 2.2 3.3 2.9 5.7 2.7-2.8 5.1-4.8 7.2-6.2 3.5-2.3 7.1-3.4 10.8-3.4 6 0 10 2.4 12 7.3 1.1 2.7 1.7 7.1 1.7 13v23.1c0 2.6.6 4.4 1.8 5.4 1.2.9 3.3 1.6 6.3 1.9v1.4h-25.1v-1.6c3.2-.3 5.4-.9 6.4-1.9 1-1 1.5-3 1.5-6.1v-24c0-3.6-.4-6.3-1.2-8-1.4-3-4.1-4.6-8.1-4.6-2.4 0-4.8.8-7.2 2.4-1.4.9-3.1 2.4-5.1 4.5v28.5c0 3 .5 5.3 1.6 6.8s3.3 2.4 6.7 2.5v1.4h-25.5v-1.4c3.5-.4 5.8-1.3 6.7-2.6 1-1.3 1.4-4.4 1.4-9.3v-15.5c0-5.7-.4-9.6-1.1-11.8-1.2-3.6-3.8-5.5-7.8-5.5-2.3 0-4.5.6-6.7 1.9-2.2 1.2-4.1 2.9-5.8 4.9v30.4c0 2.8.5 4.8 1.5 5.8 1 1.1 3.1 1.6 6.4 1.7v1.4h-25.3v-1.5zM514 287.4c3.9 3.6 5.9 8.7 5.9 15.4h-35.3c.4 8.6 2.3 14.8 5.8 18.8 3.5 3.9 7.7 5.9 12.5 5.9 3.9 0 7.2-1 9.8-3.1 2.7-2 5.1-4.9 7.4-8.7l1.9.7c-1.5 4.7-4.4 9.1-8.5 13.1-4.2 4-9.3 6-15.3 6-7 0-12.4-2.6-16.2-7.9-3.8-5.3-5.7-11.3-5.7-18.2 0-7.5 2.2-13.9 6.6-19.3 4.4-5.4 10.2-8.1 17.2-8.1 5.3 0 9.9 1.8 13.9 5.4zm-26.7 4.3c-1.2 2-2 4.5-2.6 7.6h23.5c-.4-3.7-1.1-6.5-2.1-8.3-1.8-3.3-4.9-4.9-9.1-4.9-4.2 0-7.5 1.8-9.7 5.6z"/><path fill="#523972" d="M582.2 282.9v4h-11.4l-.1 32.1c0 2.8.2 5 .7 6.4.9 2.6 2.6 3.8 5.2 3.8 1.3 0 2.5-.3 3.5-.9 1-.6 2.1-1.6 3.4-3l1.4 1.2-1.2 1.7c-1.9 2.6-4 4.4-6.1 5.5-2.2 1.1-4.2 1.6-6.2 1.6-4.4 0-7.3-1.9-8.9-5.8-.9-2.1-1.3-5-1.3-8.8V287h-6.1c-.2-.1-.3-.2-.4-.3-.1-.1-.1-.3-.1-.4 0-.4.1-.7.3-.9.2-.2.7-.7 1.6-1.4 2.6-2.1 4.4-3.8 5.5-5.1 1.1-1.3 3.8-4.8 8-10.4.5 0 .8 0 .9.1.1.1.1.4.1.8v13.7h11.2zM637.9 284c-2.2.3-3.9.6-5 1.1-1.1.5-1.6 1.5-1.6 2.9 0 .8.1 1.6.4 2.4.2.8.6 1.8 1 3l10.1 26.3 9.9-24.1c.4-1 .9-2.4 1.4-4.1.5-1.7.8-3 .8-3.8 0-1.4-.4-2.3-1.3-2.8s-2.1-.8-3.7-1.1v-1.6H664v1.6c-.9.2-1.7.6-2.3 1.3-.6.7-1.4 2.4-2.5 5L641.4 334c-.1.3-.3.6-.4.7-.1.1-.3.2-.5.2-.4-.2-.7-.4-.8-.6L626.1 301l-13.6 33.6c-.1.2-.2.3-.3.5-.1.1-.3.2-.5.2-.4-.2-.7-.4-.8-.6l-16.6-41c-1.8-4.5-3-7.2-3.6-8-.6-.8-1.8-1.3-3.5-1.6v-1.6h20.7v1.6c-1.7.1-3 .5-3.9.9-.9.5-1.4 1.5-1.4 3 0 1.1.8 3.7 2.3 8 .9 2.4 2 5.3 3.4 8.7l6.4 15.6 9.8-21.1.1-.7c0-.7-.4-2.1-1.2-4.2-.8-2-1.6-3.9-2.3-5.5-.7-1.7-1.6-2.9-2.5-3.6-.9-.7-2.3-1.1-4-1.2v-1.6h23.2v1.6zM677.1 289.6c4.7-5.1 10.7-7.7 18.1-7.7 7.3 0 13.4 2.4 18.3 7.2 4.8 4.8 7.2 11.2 7.2 19.3 0 7.4-2.3 13.8-7 19.3s-10.7 8.2-18.1 8.2c-7.1 0-13.2-2.6-18.1-7.8-4.9-5.2-7.4-11.8-7.4-19.7-.1-7.4 2.3-13.7 7-18.8zm8.9-1.4c-3.7 3.4-5.6 9.2-5.6 17.5 0 6.6 1.5 12.8 4.5 18.5 3 5.7 7.1 8.6 12.5 8.6 4.2 0 7.4-1.9 9.6-5.7 2.2-3.8 3.4-8.8 3.4-15 0-6.4-1.4-12.5-4.3-18.1-2.9-5.7-7-8.5-12.4-8.5-3-.2-5.6.8-7.7 2.7zM763.2 309.5c-1.9-2.9-2.8-6.1-2.8-9.6 0-4.3 1.7-8.5 5.2-12.4 3.4-3.9 8.3-5.8 14.6-5.8 2.7 0 5.7.6 9 1.9 3.3 1.3 6.4 1.9 9.4 1.9.8 0 2 0 3.5-.1s2.7-.1 3.4-.1h.7v4.5h-9.6c.7 1.6 1.2 2.9 1.6 4.1.6 2.2.9 4.2.9 6.1 0 4.2-1.8 8.1-5.3 11.7-3.5 3.5-8.2 5.3-14.2 5.3-.9 0-2.6-.2-5-.5-1.1 0-2.5.9-4.3 2.7-1.8 1.8-2.7 3.3-2.7 4.5 0 1.2 1.3 2.1 3.9 2.6 1.7.4 3.6.6 5.7.6 9.5 0 16 .5 19.4 1.6 5.6 1.7 8.4 5.5 8.4 11.2 0 5.9-3.3 10.5-9.8 14-6.5 3.5-13.2 5.2-19.8 5.2-6.1 0-10.9-1.2-14.5-3.7-3.6-2.5-5.3-5.1-5.3-7.8 0-1.3.5-2.6 1.4-3.9.9-1.3 2.8-3.2 5.6-5.7l3.7-3.3.7-.7c-1.7-.7-3-1.3-3.8-1.9-1.5-1.1-2.2-2.5-2.2-4 0-1.4.6-2.9 1.9-4.5 1.3-1.6 4-4.3 8.2-8-3.4-1-6.1-3-7.9-5.9zm5.9 41.4c3.5 1.2 7.5 1.8 12 1.8 6.2 0 11.2-1.1 15-3.2 3.9-2.1 5.8-4.8 5.8-7.9 0-2.5-1.6-4.1-4.7-5-1.9-.5-5.6-.8-11-.8-1.4 0-2.8-.1-4.3-.1-1.5-.1-2.9-.1-4.2-.2-.8 0-2.1-.2-4-.4-1.8-.3-3.2-.5-4.1-.7-.4 0-1.5 1.2-3.3 3.5-1.8 2.4-2.6 4.6-2.6 6.6.1 3.1 1.8 5.2 5.4 6.4zm17.6-38.2c2.2-1.8 3.3-4.9 3.3-9.3 0-3.5-.9-7.5-2.7-11.9-1.8-4.4-4.8-6.6-9-6.6-3.6 0-6.1 1.7-7.5 5.2-.7 1.8-1.1 4.1-1.1 6.7 0 4.5 1.1 8.6 3.3 12.2 2.2 3.6 5 5.4 8.5 5.4 2.1 0 3.8-.6 5.2-1.7zM810.1 332.3c3.4-.3 5.7-.9 6.8-1.8 1.1-.9 1.7-2.8 1.7-5.8v-25.1c0-3.7-.3-6.3-1-7.9-.7-1.6-1.9-2.4-3.8-2.4-.4 0-.9 0-1.5.1s-1.3.2-1.9.4V288c2.1-.7 4.3-1.5 6.5-2.3 2.2-.8 3.8-1.3 4.6-1.7 1.8-.7 3.8-1.5 5.7-2.4.3 0 .4.1.5.3.1.2.1.6.1 1.2v9.1c2.4-3.3 4.7-5.9 6.9-7.7 2.2-1.9 4.5-2.8 6.9-2.8 1.9 0 3.4.6 4.6 1.7 1.2 1.1 1.8 2.6 1.8 4.3 0 1.5-.5 2.8-1.4 3.8-.9 1-2.1 1.6-3.4 1.6-1.4 0-2.8-.6-4.3-1.9-1.4-1.3-2.6-1.9-3.4-1.9-1.3 0-2.9 1-4.8 3.1s-2.8 4.3-2.8 6.5V324c0 3.2.7 5.4 2.2 6.6 1.5 1.2 4 1.8 7.4 1.8v1.8h-27.4v-1.9zM887.4 287.4c3.9 3.6 5.9 8.7 5.9 15.4H858c.4 8.6 2.3 14.8 5.8 18.8 3.5 3.9 7.7 5.9 12.5 5.9 3.9 0 7.2-1 9.8-3.1 2.7-2 5.1-4.9 7.4-8.7l1.9.7c-1.5 4.7-4.4 9.1-8.5 13.1-4.2 4-9.3 6-15.3 6-7 0-12.4-2.6-16.2-7.9-3.8-5.3-5.7-11.3-5.7-18.2 0-7.5 2.2-13.9 6.6-19.3 4.4-5.4 10.2-8.1 17.2-8.1 5.4 0 9.9 1.8 13.9 5.4zm-26.7 4.3c-1.2 2-2 4.5-2.6 7.6h23.5c-.4-3.7-1.1-6.5-2.1-8.3-1.8-3.3-4.9-4.9-9.1-4.9-4.2 0-7.4 1.8-9.7 5.6zM910.4 309.6c3.4-2.2 10.2-5.2 20.4-9.1v-4.7c0-3.8-.4-6.4-1.1-7.9-1.3-2.5-3.9-3.7-7.8-3.7-1.9 0-3.7.5-5.4 1.4-1.7 1-2.6 2.4-2.6 4.1 0 .4.1 1.2.3 2.3s.3 1.7.3 2c0 2.1-.7 3.5-2.1 4.3-.8.5-1.7.7-2.8.7-1.7 0-2.9-.5-3.8-1.6-.9-1.1-1.3-2.3-1.3-3.6 0-2.6 1.6-5.3 4.8-8.2 3.2-2.8 7.9-4.3 14.1-4.3 7.2 0 12.1 2.3 14.6 7 1.4 2.6 2.1 6.3 2.1 11.2v22.3c0 2.2.1 3.6.4 4.5.5 1.4 1.5 2.2 3 2.2.9 0 1.6-.1 2.1-.4.6-.3 1.5-.9 2.9-1.9v2.9c-1.2 1.4-2.5 2.6-3.8 3.6-2.1 1.4-4.2 2.1-6.3 2.1-2.5 0-4.3-.8-5.5-2.4-1.1-1.6-1.8-3.6-1.9-5.8-2.8 2.4-5.2 4.3-7.2 5.5-3.4 2-6.6 3-9.6 3-3.2 0-6-1.1-8.3-3.4-2.3-2.2-3.5-5.1-3.5-8.5-.1-5.5 2.6-10 8-13.6zm20.4-6.2c-4.3 1.4-7.8 3-10.6 4.7-5.3 3.3-8 7-8 11.2 0 3.4 1.1 5.9 3.3 7.5 1.4 1 3.1 1.6 4.8 1.6 2.4 0 4.8-.7 7-2.1 2.2-1.4 3.4-3.1 3.4-5.2v-17.7zM977.7 282.9v4h-11.4l-.1 32.1c0 2.8.2 5 .7 6.4.9 2.6 2.6 3.8 5.2 3.8 1.3 0 2.5-.3 3.5-.9 1-.6 2.1-1.6 3.4-3l1.4 1.2-1.2 1.7c-1.9 2.6-4 4.4-6.1 5.5-2.2 1.1-4.2 1.6-6.2 1.6-4.4 0-7.3-1.9-8.9-5.8-.9-2.1-1.3-5-1.3-8.8V287h-6.1c-.2-.1-.3-.2-.4-.3-.1-.1-.1-.3-.1-.4 0-.4.1-.7.3-.9.2-.2.7-.7 1.6-1.4 2.6-2.1 4.4-3.8 5.5-5.1 1.1-1.3 3.8-4.8 8-10.4.5 0 .8 0 .9.1.1.1.1.4.1.8v13.7h11.2zM0 485.4c3.5-.2 5.7-1 6.6-2.2.9-1.3 1.4-3.2 1.4-6v-53.4c0-2.8-.3-4.6-1-5.4-.7-.8-2-1.2-3.9-1.2-.4 0-.8 0-1.1.1-.4 0-.9.1-1.5.2v-1.8l5.3-1.7c.2 0 3.9-1.3 11.2-3.8.2 0 .3.1.4.3.1.2.1.4.1.6v7.5c2.4-2.4 4.6-4.3 6.5-5.5 3.3-2.1 6.8-3.1 10.3-3.1 5.1 0 9.5 2.2 13.2 6.5 3.7 4.4 5.5 10.3 5.5 17.9 0 7.4-2.2 14.1-6.6 20.2-4.4 6-10 9.1-16.7 9.1-2.1 0-3.9-.3-5.4-.8-2.4-.8-4.6-2.2-6.6-4.3v18.2c0 3.7.6 6 1.8 6.9 1.2.9 3.9 1.4 8 1.7v1.9H0v-1.9zm22-27.7c1.9 1.2 4.2 1.9 6.8 1.9 4 0 7.4-2 10.3-6 2.8-4 4.3-9.5 4.3-16.6 0-6.8-1.5-11.9-4.4-15.3-2.9-3.4-6.4-5.1-10.3-5.1-2.7 0-5.2.8-7.5 2.5s-3.4 3.3-3.4 5v28c.8 2.5 2.2 4.4 4.2 5.6zM68.7 437.8c3.4-2.2 10.2-5.2 20.4-9.1V424c0-3.8-.4-6.4-1.1-7.9-1.3-2.5-3.9-3.7-7.8-3.7-1.9 0-3.7.5-5.4 1.4-1.7 1-2.6 2.4-2.6 4.1 0 .4.1 1.2.3 2.3.2 1.1.3 1.7.3 2 0 2.1-.7 3.5-2.1 4.3-.8.5-1.7.7-2.8.7-1.7 0-2.9-.5-3.8-1.6-.9-1.1-1.3-2.3-1.3-3.6 0-2.6 1.6-5.3 4.8-8.2 3.2-2.8 7.9-4.3 14.1-4.3 7.2 0 12.1 2.3 14.6 7 1.4 2.6 2.1 6.3 2.1 11.2V450c0 2.2.1 3.6.4 4.5.5 1.4 1.5 2.2 3 2.2.9 0 1.6-.1 2.1-.4.6-.3 1.5-.9 2.9-1.9v2.9c-1.2 1.4-2.5 2.6-3.8 3.6-2.1 1.4-4.2 2.1-6.3 2.1-2.5 0-4.3-.8-5.5-2.4-1.1-1.6-1.8-3.6-1.9-5.8-2.8 2.4-5.2 4.3-7.2 5.5-3.4 2-6.6 3-9.6 3-3.2 0-6-1.1-8.3-3.4-2.3-2.2-3.5-5.1-3.5-8.5-.1-5.5 2.6-10 8-13.6zm20.4-6.2c-4.3 1.4-7.8 3-10.6 4.7-5.3 3.3-8 7-8 11.2 0 3.4 1.1 5.9 3.3 7.5 1.4 1 3.1 1.6 4.8 1.6 2.4 0 4.8-.7 7-2.1 2.2-1.4 3.4-3.1 3.4-5.2v-17.7zM113 444.9h1.8c.9 4.2 2 7.5 3.4 9.7 2.6 4.2 6.4 6.2 11.4 6.2 2.8 0 5-.8 6.6-2.3 1.6-1.5 2.4-3.5 2.4-6 0-1.6-.5-3.1-1.4-4.5-.9-1.4-2.6-2.9-4.9-4.2l-6.2-3.6c-4.6-2.4-7.9-4.9-10.1-7.4-2.2-2.5-3.2-5.4-3.2-8.8 0-4.2 1.5-7.6 4.5-10.2 3-2.7 6.7-4 11.2-4 2 0 4.1.4 6.5 1.1 2.4.7 3.7 1.1 4 1.1.7 0 1.1-.1 1.4-.3.3-.2.6-.5.8-.9h1.3l.4 15.5h-1.7c-.7-3.6-1.7-6.4-3-8.4-2.3-3.7-5.6-5.6-10-5.6-2.6 0-4.6.8-6.1 2.4-1.5 1.6-2.2 3.5-2.2 5.6 0 3.4 2.6 6.5 7.7 9.1l7.3 4c7.9 4.3 11.9 9.3 11.9 15 0 4.4-1.6 8-4.9 10.7-3.3 2.8-7.6 4.2-12.9 4.2-2.2 0-4.7-.4-7.6-1.1-2.8-.7-4.5-1.1-5-1.1-.4 0-.8.2-1.2.5-.3.3-.6.7-.8 1.1H113v-17.8zM157.3 444.9h1.8c.9 4.2 2 7.5 3.4 9.7 2.6 4.2 6.4 6.2 11.4 6.2 2.8 0 5-.8 6.6-2.3 1.6-1.5 2.4-3.5 2.4-6 0-1.6-.5-3.1-1.4-4.5-.9-1.4-2.6-2.9-4.9-4.2l-6.2-3.6c-4.6-2.4-7.9-4.9-10.1-7.4-2.2-2.5-3.2-5.4-3.2-8.8 0-4.2 1.5-7.6 4.5-10.2 3-2.7 6.7-4 11.2-4 2 0 4.1.4 6.5 1.1 2.4.7 3.7 1.1 4 1.1.7 0 1.1-.1 1.4-.3.3-.2.6-.5.8-.9h1.3l.4 15.5h-1.7c-.7-3.6-1.7-6.4-3-8.4-2.3-3.7-5.6-5.6-10-5.6-2.6 0-4.6.8-6.1 2.4-1.5 1.6-2.2 3.5-2.2 5.6 0 3.4 2.6 6.5 7.7 9.1l7.3 4c7.9 4.3 11.9 9.3 11.9 15 0 4.4-1.6 8-4.9 10.7-3.3 2.8-7.6 4.2-12.9 4.2-2.2 0-4.7-.4-7.6-1.1-2.8-.7-4.5-1.1-5-1.1-.4 0-.8.2-1.2.5-.3.3-.6.7-.8 1.1h-1.4v-17.8zM253.2 411.1v4h-11.4l-.1 32.1c0 2.8.2 5 .7 6.4.9 2.6 2.6 3.8 5.2 3.8 1.3 0 2.5-.3 3.5-.9 1-.6 2.1-1.6 3.4-3l1.4 1.2-1.2 1.7c-1.9 2.6-4 4.4-6.1 5.5-2.2 1.1-4.2 1.6-6.2 1.6-4.4 0-7.3-1.9-8.9-5.8-.9-2.1-1.3-5-1.3-8.8v-33.7h-6.1c-.2-.1-.3-.2-.4-.3-.1-.1-.1-.3-.1-.4 0-.4.1-.7.3-.9.2-.2.7-.7 1.6-1.4 2.6-2.1 4.4-3.8 5.5-5.1 1.1-1.3 3.8-4.8 8-10.4.5 0 .8 0 .9.1.1.1.1.4.1.8v13.7h11.2zM256.8 460.8c3-.4 5-1.2 6-2.3.9-1.1 1.4-3.7 1.4-7.8v-53.4c0-2.1-.3-3.6-.8-4.6-.5-1-1.8-1.5-3.9-1.5-.4 0-.8 0-1.2.1-.4.1-.8.1-1.3.2v-2c1.6-.5 3.6-1.1 6-1.8s4.1-1.2 5-1.5l5.3-1.7.1.4v34.2c2.3-2.7 4.4-4.6 6.2-5.9 3.3-2.2 6.8-3.3 10.6-3.3 6 0 10.1 2.5 12.3 7.6 1.2 2.7 1.8 6.2 1.8 10.5v22.7c0 3.9.5 6.5 1.4 7.7.9 1.2 2.8 2 5.6 2.3v1.6h-24.1v-1.6c3.2-.4 5.3-1.2 6.2-2.3.9-1.1 1.4-3.7 1.4-7.7v-22.5c0-3.6-.6-6.5-1.8-8.7-1.2-2.2-3.5-3.3-6.8-3.3-2.9 0-5.7 1-8.4 3.1s-4.1 3.4-4.1 4.1v27.4c0 4.2.5 6.8 1.4 7.8 1 1 3 1.8 6.2 2.2v1.6h-24.5v-1.6zM313.3 460.6c3.4-.3 5.7-.9 6.8-1.8 1.1-.9 1.7-2.8 1.7-5.8v-25.1c0-3.7-.3-6.3-1-7.9-.7-1.6-1.9-2.4-3.8-2.4-.4 0-.9 0-1.5.1s-1.3.2-1.9.4v-1.8c2.1-.7 4.3-1.5 6.5-2.3 2.2-.8 3.8-1.3 4.6-1.7 1.8-.7 3.8-1.5 5.7-2.4.3 0 .4.1.5.3.1.2.1.6.1 1.2v9.1c2.4-3.3 4.7-5.9 6.9-7.7 2.2-1.9 4.5-2.8 6.9-2.8 1.9 0 3.4.6 4.6 1.7 1.2 1.1 1.8 2.6 1.8 4.3 0 1.5-.5 2.8-1.4 3.8-.9 1-2.1 1.6-3.4 1.6-1.4 0-2.8-.6-4.3-1.9-1.4-1.3-2.6-1.9-3.4-1.9-1.3 0-2.9 1-4.8 3.1s-2.8 4.3-2.8 6.5v25.1c0 3.2.7 5.4 2.2 6.6 1.5 1.2 4 1.8 7.4 1.8v1.8h-27.4v-1.9zM360.7 417.8c4.7-5.1 10.7-7.7 18.1-7.7 7.3 0 13.4 2.4 18.3 7.2 4.8 4.8 7.2 11.2 7.2 19.3 0 7.4-2.3 13.8-7 19.3s-10.7 8.2-18.1 8.2c-7.1 0-13.2-2.6-18.1-7.8-4.9-5.2-7.4-11.8-7.4-19.7 0-7.4 2.3-13.7 7-18.8zm8.9-1.4c-3.7 3.4-5.6 9.2-5.6 17.5 0 6.6 1.5 12.8 4.5 18.5 3 5.7 7.1 8.6 12.5 8.6 4.2 0 7.4-1.9 9.6-5.7 2.2-3.8 3.4-8.8 3.4-15 0-6.4-1.4-12.5-4.3-18.1-2.9-5.7-7-8.5-12.4-8.5-3-.2-5.6.8-7.7 2.7zM425.4 410.9v35.6c0 2.5.4 4.5 1.1 6.1 1.4 2.8 3.9 4.2 7.6 4.2 2.5 0 5-.8 7.4-2.5 1.4-.9 2.8-2.2 4.2-3.8V420c0-2.9-.6-4.7-1.7-5.6-1.1-.9-3.3-1.4-6.7-1.6V411h18v39c0 2.5.5 4.3 1.4 5.2.9.9 2.8 1.4 5.8 1.3v1.6c-2 .6-3.5 1-4.5 1.3-1 .3-2.6.8-4.8 1.5-1 .3-3.1 1.1-6.3 2.4-.2 0-.3-.1-.3-.3 0-.2-.1-.4-.1-.6v-9c-2.5 3-4.8 5.2-6.9 6.7-3.2 2.2-6.5 3.3-10 3.3-3.2 0-6.3-1.2-9.1-3.5-2.9-2.3-4.3-6.1-4.3-11.4v-28.9c0-2.9-.6-4.9-1.9-5.9-.8-.6-2.6-1.1-5.2-1.3v-1.6h16.3zM475.3 437.7c-1.9-2.9-2.8-6.1-2.8-9.6 0-4.3 1.7-8.5 5.2-12.4 3.4-3.9 8.3-5.8 14.6-5.8 2.7 0 5.7.6 9 1.9 3.3 1.3 6.4 1.9 9.4 1.9.8 0 2 0 3.5-.1 1.6-.1 2.7-.1 3.4-.1h.7v4.5h-9.6c.7 1.6 1.2 2.9 1.6 4.1.6 2.2.9 4.2.9 6.1 0 4.2-1.8 8.1-5.3 11.7-3.5 3.5-8.2 5.3-14.2 5.3-.9 0-2.6-.2-5-.5-1.1 0-2.5.9-4.3 2.7-1.8 1.8-2.7 3.3-2.7 4.5 0 1.2 1.3 2.1 3.9 2.6 1.7.4 3.6.6 5.7.6 9.5 0 16 .5 19.4 1.6 5.6 1.7 8.4 5.5 8.4 11.2 0 5.9-3.3 10.5-9.8 14-6.5 3.5-13.2 5.2-19.8 5.2-6.1 0-10.9-1.2-14.5-3.7-3.6-2.5-5.3-5.1-5.3-7.8 0-1.3.5-2.6 1.4-3.9.9-1.3 2.8-3.2 5.6-5.7l3.7-3.3.7-.7c-1.7-.7-3-1.3-3.8-1.9-1.5-1.1-2.2-2.5-2.2-4 0-1.4.6-2.9 1.9-4.5 1.3-1.6 4-4.3 8.2-8-3.4-1-6.1-3-7.9-5.9zm5.9 41.4c3.5 1.2 7.5 1.8 12 1.8 6.2 0 11.2-1.1 15-3.2 3.9-2.1 5.8-4.8 5.8-7.9 0-2.5-1.6-4.1-4.7-5-1.9-.5-5.6-.8-11-.8-1.4 0-2.8-.1-4.3-.1-1.5-.1-2.9-.1-4.2-.2-.8 0-2.1-.2-4-.4-1.8-.3-3.2-.5-4.1-.7-.4 0-1.5 1.2-3.3 3.5-1.8 2.4-2.6 4.6-2.6 6.6.1 3.1 1.9 5.2 5.4 6.4zm17.6-38.2c2.2-1.8 3.3-4.9 3.3-9.3 0-3.5-.9-7.5-2.7-11.9-1.8-4.4-4.8-6.6-9-6.6-3.6 0-6.1 1.7-7.5 5.2-.7 1.8-1.1 4.1-1.1 6.7 0 4.5 1.1 8.6 3.3 12.2 2.2 3.6 5 5.4 8.5 5.4 2.2 0 3.9-.6 5.2-1.7zM522.7 460.8c3-.4 5-1.2 6-2.3.9-1.1 1.4-3.7 1.4-7.8v-53.4c0-2.1-.3-3.6-.8-4.6-.5-1-1.8-1.5-3.9-1.5-.4 0-.8 0-1.2.1-.4.1-.8.1-1.3.2v-2c1.6-.5 3.6-1.1 6-1.8s4.1-1.2 5-1.5l5.3-1.7.1.4v34.2c2.3-2.7 4.4-4.6 6.2-5.9 3.3-2.2 6.8-3.3 10.6-3.3 6 0 10.1 2.5 12.3 7.6 1.2 2.7 1.8 6.2 1.8 10.5v22.7c0 3.9.5 6.5 1.4 7.7.9 1.2 2.8 2 5.6 2.3v1.6h-24.1v-1.6c3.2-.4 5.3-1.2 6.2-2.3.9-1.1 1.4-3.7 1.4-7.7v-22.5c0-3.6-.6-6.5-1.8-8.7-1.2-2.2-3.5-3.3-6.8-3.3-2.9 0-5.7 1-8.4 3.1s-4.1 3.4-4.1 4.1v27.4c0 4.2.5 6.8 1.4 7.8 1 1 3 1.8 6.2 2.2v1.6h-24.5v-1.6zM647.5 413.5c3.4 2.4 5 5 5 7.8 0 1.2-.4 2.4-1.3 3.4-.9 1.1-2.2 1.6-4 1.6-1.3 0-2.4-.4-3.4-1.3s-1.7-2.2-2.1-3.9l-.7-2.7c-.5-2-1.3-3.4-2.5-4.2-1.2-.8-2.8-1.2-4.8-1.2-4.2 0-7.8 1.8-10.7 5.5-2.9 3.7-4.4 8.6-4.4 14.7 0 5.6 1.6 10.6 4.8 15.1 3.2 4.5 7.5 6.7 13 6.7 3.9 0 7.3-1.3 10.3-3.8 1.7-1.4 3.6-3.8 5.8-6.9l1.6.9c-2.1 4.5-4.3 8-6.7 10.6-4.5 5-9.7 7.5-15.6 7.5-5.8 0-10.9-2.3-15.4-6.8-4.5-4.6-6.7-10.8-6.7-18.6 0-7.7 2.4-14.3 7.3-19.8s11-8.3 18.4-8.3c4.7.1 8.7 1.3 12.1 3.7zM667.7 417.8c4.7-5.1 10.7-7.7 18.1-7.7 7.3 0 13.4 2.4 18.3 7.2 4.8 4.8 7.2 11.2 7.2 19.3 0 7.4-2.3 13.8-7 19.3s-10.7 8.2-18.1 8.2c-7.1 0-13.2-2.6-18.1-7.8-4.9-5.2-7.4-11.8-7.4-19.7-.1-7.4 2.3-13.7 7-18.8zm8.9-1.4c-3.7 3.4-5.6 9.2-5.6 17.5 0 6.6 1.5 12.8 4.5 18.5 3 5.7 7.1 8.6 12.5 8.6 4.2 0 7.4-1.9 9.6-5.7 2.2-3.8 3.4-8.8 3.4-15 0-6.4-1.4-12.5-4.3-18.1-2.9-5.7-7-8.5-12.4-8.5-3-.2-5.6.8-7.7 2.7zM716.8 460.8c2.6-.3 4.5-1 5.5-2 1.1-1 1.6-3.2 1.6-6.6V424c0-2.4-.2-4-.7-5-.7-1.4-2.2-2.1-4.3-2.1-.3 0-.7 0-1 .1-.4 0-.8.1-1.3.2v-1.9c1.5-.4 5.1-1.6 10.8-3.4l5.2-1.7c.3 0 .4.1.5.3.1.2.1.4.1.8v8.2c3.4-3.2 6.1-5.4 8-6.6 2.9-1.8 5.9-2.7 9-2.7 2.5 0 4.8.7 6.9 2.2 4 2.8 6 7.8 6 15.1v26c0 2.7.5 4.6 1.6 5.8 1.1 1.2 2.9 1.8 5.4 1.8v1.6h-23.8v-1.6c2.7-.4 4.6-1.1 5.7-2.3 1.1-1.1 1.6-3.6 1.6-7.4v-23.8c0-3.2-.6-5.8-1.8-7.9-1.2-2.1-3.4-3.1-6.5-3.1-2.2 0-4.4.7-6.6 2.2-1.3.9-2.9 2.3-4.9 4.2v31c0 2.7.6 4.5 1.8 5.4 1.2.9 3.1 1.4 5.6 1.5v1.6h-24.3v-1.7zM777.7 444.9h1.8c.9 4.2 2 7.5 3.4 9.7 2.6 4.2 6.4 6.2 11.4 6.2 2.8 0 5-.8 6.6-2.3 1.6-1.5 2.4-3.5 2.4-6 0-1.6-.5-3.1-1.4-4.5-.9-1.4-2.6-2.9-4.9-4.2l-6.2-3.6c-4.6-2.4-7.9-4.9-10.1-7.4-2.2-2.5-3.2-5.4-3.2-8.8 0-4.2 1.5-7.6 4.5-10.2 3-2.7 6.7-4 11.2-4 2 0 4.1.4 6.5 1.1 2.4.7 3.7 1.1 4 1.1.7 0 1.1-.1 1.4-.3.3-.2.6-.5.8-.9h1.3l.4 15.5h-1.7c-.7-3.6-1.7-6.4-3-8.4-2.3-3.7-5.6-5.6-10-5.6-2.6 0-4.6.8-6.1 2.4-1.5 1.6-2.2 3.5-2.2 5.6 0 3.4 2.6 6.5 7.7 9.1l7.3 4c7.9 4.3 11.9 9.3 11.9 15 0 4.4-1.6 8-4.9 10.7-3.3 2.8-7.6 4.2-12.9 4.2-2.2 0-4.7-.4-7.6-1.1-2.8-.7-4.5-1.1-5-1.1-.4 0-.8.2-1.2.5-.3.3-.6.7-.8 1.1h-1.4v-17.8zM818.3 460.8c4-.4 6.5-1 7.5-2s1.6-3.6 1.6-8v-26.5c0-2.4-.2-4.1-.5-5-.6-1.5-1.7-2.3-3.5-2.3-.4 0-.8 0-1.2.1-.4.1-1.5.4-3.4.9v-1.7l2.4-.8c6.5-2.1 11-3.7 13.6-4.8 1-.4 1.7-.7 2-.7.1.3.1.5.1.8v40c0 4.2.5 6.9 1.5 8 1 1.1 3.3 1.8 6.9 2.1v1.6h-27v-1.7zm8.8-74.4c1.1-1.1 2.5-1.7 4.1-1.7 1.6 0 3 .6 4.1 1.7 1.1 1.1 1.7 2.5 1.7 4.1 0 1.6-.6 2.9-1.7 4.1-1.1 1.1-2.5 1.7-4.1 1.7-1.6 0-3-.6-4.1-1.7-1.1-1.1-1.7-2.5-1.7-4.1.1-1.6.6-2.9 1.7-4.1zM882.1 411.6c1.5.8 2.9 1.9 4.3 3.2v-17.7c0-2.3-.2-3.8-.8-4.7-.5-.9-1.7-1.3-3.6-1.3-.4 0-.8 0-1.2.1-.3 0-1.1.1-2.2.2v-1.8l4.6-1.2c1.7-.4 3.3-.9 5-1.4 1.7-.5 3.1-.9 4.4-1.4.6-.2 1.6-.5 2.9-1.1l.3.1-.1 5.8c0 2.1-.1 4.3-.1 6.5s-.1 4.5-.1 6.6l-.1 45.5c0 2.4.3 4.1.9 5.1.6 1 2.2 1.4 4.7 1.4h1.2c.4 0 .8-.1 1.2-.1v1.8c-.2.1-2.9 1-8.1 2.8l-8.7 3.3-.4-.5V456c-2.1 2.3-3.9 3.9-5.4 4.8-2.7 1.7-5.8 2.5-9.4 2.5-6.3 0-11.4-2.4-15.3-7.3-3.9-4.9-5.9-10.5-5.9-16.9 0-8 2.3-15 7-20.7 4.7-5.8 10.4-8.7 17.2-8.7 3 .1 5.5.7 7.7 1.9zm1.7 43.3c1.8-1.7 2.7-3.3 2.7-4.8v-23.9c0-4.8-1.3-8.2-3.9-10.2-2.6-2-5.1-3-7.5-3-4.7 0-8.3 2.1-10.9 6.2-2.6 4.1-3.9 9.2-3.9 15.3 0 6 1.4 11.3 4.1 16 2.8 4.7 6.9 7 12.4 7 2.8-.1 5.2-.9 7-2.6zM944.5 415.6c3.9 3.6 5.9 8.7 5.9 15.4h-35.3c.4 8.6 2.3 14.8 5.8 18.8 3.5 3.9 7.7 5.9 12.5 5.9 3.9 0 7.2-1 9.8-3.1 2.7-2 5.1-4.9 7.4-8.7l1.9.7c-1.5 4.7-4.4 9.1-8.5 13.1-4.2 4-9.3 6-15.3 6-7 0-12.4-2.6-16.2-7.9-3.8-5.3-5.7-11.3-5.7-18.2 0-7.5 2.2-13.9 6.6-19.3 4.4-5.4 10.2-8.1 17.2-8.1 5.4 0 10 1.8 13.9 5.4zm-26.6 4.3c-1.2 2-2 4.5-2.6 7.6h23.5c-.4-3.7-1.1-6.5-2.1-8.3-1.8-3.3-4.9-4.9-9.1-4.9-4.3 0-7.5 1.8-9.7 5.6zM955.8 460.6c3.4-.3 5.7-.9 6.8-1.8 1.1-.9 1.7-2.8 1.7-5.8v-25.1c0-3.7-.3-6.3-1-7.9-.7-1.6-1.9-2.4-3.8-2.4-.4 0-.9 0-1.5.1s-1.3.2-1.9.4v-1.8c2.1-.7 4.3-1.5 6.5-2.3 2.2-.8 3.8-1.3 4.6-1.7 1.8-.7 3.8-1.5 5.7-2.4.3 0 .4.1.5.3.1.2.1.6.1 1.2v9.1c2.4-3.3 4.7-5.9 6.9-7.7 2.2-1.9 4.5-2.8 6.9-2.8 1.9 0 3.4.6 4.6 1.7 1.2 1.1 1.8 2.6 1.8 4.3 0 1.5-.5 2.8-1.4 3.8-.9 1-2.1 1.6-3.4 1.6-1.4 0-2.8-.6-4.3-1.9-1.4-1.3-2.6-1.9-3.4-1.9-1.3 0-2.9 1-4.8 3.1s-2.8 4.3-2.8 6.5v25.1c0 3.2.7 5.4 2.2 6.6 1.5 1.2 4 1.8 7.4 1.8v1.8h-27.4v-1.9zM1005.5 437.8c3.4-2.2 10.2-5.2 20.4-9.1V424c0-3.8-.4-6.4-1.1-7.9-1.3-2.5-3.9-3.7-7.8-3.7-1.9 0-3.7.5-5.4 1.4-1.7 1-2.6 2.4-2.6 4.1 0 .4.1 1.2.3 2.3.2 1.1.3 1.7.3 2 0 2.1-.7 3.5-2.1 4.3-.8.5-1.7.7-2.8.7-1.7 0-2.9-.5-3.8-1.6-.9-1.1-1.3-2.3-1.3-3.6 0-2.6 1.6-5.3 4.8-8.2 3.2-2.8 7.9-4.3 14.1-4.3 7.2 0 12.1 2.3 14.6 7 1.4 2.6 2.1 6.3 2.1 11.2V450c0 2.2.1 3.6.4 4.5.5 1.4 1.5 2.2 3 2.2.9 0 1.6-.1 2.1-.4.6-.3 1.5-.9 2.9-1.9v2.9c-1.2 1.4-2.5 2.6-3.8 3.6-2.1 1.4-4.2 2.1-6.3 2.1-2.5 0-4.3-.8-5.5-2.4-1.1-1.6-1.8-3.6-1.9-5.8-2.8 2.4-5.2 4.3-7.2 5.5-3.4 2-6.6 3-9.6 3-3.2 0-6-1.1-8.3-3.4-2.3-2.2-3.5-5.1-3.5-8.5-.1-5.5 2.6-10 8-13.6zm20.4-6.2c-4.3 1.4-7.8 3-10.6 4.7-5.3 3.3-8 7-8 11.2 0 3.4 1.1 5.9 3.3 7.5 1.4 1 3.1 1.6 4.8 1.6 2.4 0 4.8-.7 7-2.1 2.2-1.4 3.4-3.1 3.4-5.2v-17.7z"/><path fill="#2C2C2C" d="M11.7 566c3.4-2.2 10.2-5.2 20.4-9.1v-4.7c0-3.8-.4-6.4-1.1-7.9-1.3-2.5-3.9-3.7-7.8-3.7-1.9 0-3.7.5-5.4 1.4-1.7 1-2.6 2.4-2.6 4.1 0 .4.1 1.2.3 2.3.2 1.1.3 1.7.3 2 0 2.1-.7 3.5-2.1 4.3-.8.5-1.7.7-2.8.7-1.7 0-2.9-.5-3.8-1.6-.9-1.1-1.3-2.3-1.3-3.6 0-2.6 1.6-5.3 4.8-8.2 3.2-2.8 7.9-4.3 14.1-4.3 7.2 0 12.1 2.3 14.6 7 1.4 2.6 2.1 6.3 2.1 11.2v22.3c0 2.2.1 3.6.4 4.5.5 1.4 1.5 2.2 3 2.2.9 0 1.6-.1 2.1-.4.6-.3 1.5-.9 2.9-1.9v2.9c-1.2 1.4-2.5 2.6-3.8 3.6-2.1 1.4-4.2 2.1-6.3 2.1-2.5 0-4.3-.8-5.5-2.4-1.1-1.6-1.8-3.6-1.9-5.8-2.8 2.4-5.2 4.3-7.2 5.5-3.4 2-6.6 3-9.6 3-3.2 0-6-1.1-8.3-3.4-2.3-2.2-3.5-5.1-3.5-8.5-.1-5.5 2.6-10 8-13.6zm20.4-6.2c-4.3 1.4-7.8 3-10.6 4.7-5.3 3.3-8 7-8 11.2 0 3.4 1.1 5.9 3.3 7.5 1.4 1 3.1 1.6 4.8 1.6 2.4 0 4.8-.7 7-2.1 2.2-1.4 3.4-3.1 3.4-5.2v-17.7zM52.1 589c2.6-.3 4.5-1 5.5-2s1.6-3.2 1.6-6.6v-28.3c0-2.4-.2-4-.7-5-.7-1.4-2.2-2.1-4.3-2.1-.3 0-.7 0-1 .1-.4 0-.8.1-1.3.2v-1.9c1.5-.4 5.1-1.6 10.8-3.4l5.2-1.7c.3 0 .4.1.5.3.1.2.1.4.1.8v8.2c3.4-3.2 6.1-5.4 8-6.6 2.9-1.8 5.9-2.7 9-2.7 2.5 0 4.8.7 6.9 2.2 4 2.8 6 7.8 6 15.1v26c0 2.7.5 4.6 1.6 5.8 1.1 1.2 2.9 1.8 5.4 1.8v1.6H81.5V589c2.7-.4 4.6-1.1 5.7-2.3 1.1-1.1 1.6-3.6 1.6-7.4v-23.8c0-3.2-.6-5.8-1.8-7.9-1.2-2.1-3.4-3.1-6.5-3.1-2.2 0-4.4.7-6.6 2.2-1.3.9-2.9 2.3-4.9 4.2v31.2c0 2.7.6 4.5 1.8 5.4 1.2.9 3.1 1.4 5.6 1.5v1.6H52.1V589zM141.4 539.8c1.5.8 2.9 1.9 4.3 3.2v-17.7c0-2.3-.3-3.8-.8-4.7-.5-.9-1.7-1.3-3.6-1.3-.4 0-.8 0-1.2.1-.3 0-1.1.1-2.2.2v-1.8l4.6-1.2c1.7-.4 3.3-.9 5-1.4 1.7-.5 3.1-.9 4.4-1.4.6-.2 1.6-.5 2.9-1.1l.3.1-.1 5.8c0 2.1-.1 4.3-.1 6.5s-.1 4.5-.1 6.6l-.1 45.5c0 2.4.3 4.1.9 5.1.6 1 2.2 1.4 4.7 1.4h1.2c.4 0 .8-.1 1.2-.1v1.8c-.2.1-2.9 1-8.1 2.8l-8.7 3.3-.4-.5v-6.8c-2.1 2.3-3.9 3.9-5.4 4.8-2.7 1.7-5.8 2.5-9.4 2.5-6.3 0-11.4-2.4-15.3-7.3-3.9-4.9-5.9-10.5-5.9-16.9 0-8 2.3-15 7-20.7 4.7-5.8 10.4-8.7 17.2-8.7 3 .1 5.5.7 7.7 1.9zm1.7 43.3c1.8-1.7 2.7-3.3 2.7-4.8v-23.9c0-4.8-1.3-8.2-3.9-10.2-2.6-2-5.1-3-7.5-3-4.7 0-8.3 2.1-10.9 6.2-2.6 4.1-3.9 9.2-3.9 15.3 0 6 1.4 11.3 4.1 16 2.8 4.7 6.9 7 12.4 7 2.8-.1 5.2-.9 7-2.6z"/><path fill="#523972" d="M202.4 546c4.7-5.1 10.7-7.7 18.1-7.7 7.3 0 13.4 2.4 18.3 7.2 4.8 4.8 7.2 11.2 7.2 19.3 0 7.4-2.3 13.8-7 19.3s-10.7 8.2-18.1 8.2c-7.1 0-13.2-2.6-18.1-7.8-4.9-5.2-7.4-11.8-7.4-19.7 0-7.4 2.3-13.7 7-18.8zm8.9-1.4c-3.7 3.4-5.6 9.2-5.6 17.5 0 6.6 1.5 12.8 4.5 18.5 3 5.7 7.1 8.6 12.5 8.6 4.2 0 7.4-1.9 9.6-5.7 2.2-3.8 3.4-8.8 3.4-15 0-6.4-1.4-12.5-4.3-18.1-2.9-5.7-7-8.5-12.4-8.5-3-.2-5.6.8-7.7 2.7zM251.7 589c3.9-.2 6.5-.9 7.8-2.2 1.2-1.3 1.9-4 1.9-8.1V543h-9.5v-3.7h9.5c0-5.9.8-10.8 2.4-14.9 3-7.8 8.6-11.6 16.8-11.6 3.3 0 6.2.7 8.8 1.9 2.6 1.3 3.9 3 3.9 5.2 0 1.2-.4 2.3-1.3 3.3s-2 1.4-3.2 1.4c-1.1 0-2-.3-2.8-1-.8-.6-1.7-1.8-2.8-3.4l-.9-1.4c-.5-.8-1.1-1.4-1.8-2-.7-.5-1.7-.8-2.9-.8-2.8 0-4.7 1.4-5.7 4.2-.6 1.5-.8 3.4-.8 5.8v13.2H285v3.7h-13.9v35.7c0 4.2.6 6.9 1.7 8 1.1 1.2 4.1 1.9 8.9 2.3v1.6H252V589z"/><path fill="#523972" d="M316.4 539.3v4H305l-.1 32c0 2.8.2 5 .7 6.4.9 2.6 2.6 3.8 5.2 3.8 1.3 0 2.5-.3 3.5-.9 1-.6 2.1-1.6 3.4-3l1.4 1.2-1.2 1.7c-1.9 2.6-4 4.4-6.1 5.5-2.2 1.1-4.2 1.6-6.2 1.6-4.4 0-7.3-1.9-8.9-5.8-.9-2.1-1.3-5-1.3-8.8v-33.7h-6.1c-.2-.1-.3-.2-.4-.3-.1-.1-.1-.3-.1-.4 0-.4.1-.7.3-.9.2-.2.7-.7 1.6-1.4 2.6-2.1 4.4-3.8 5.5-5.1 1.1-1.3 3.8-4.8 8-10.4.5 0 .8 0 .9.1.1.1.1.4.1.8v13.7h11.2zM358.9 543.8c3.9 3.6 5.9 8.7 5.9 15.4h-35.3c.4 8.6 2.3 14.8 5.8 18.8 3.5 3.9 7.7 5.9 12.5 5.9 3.9 0 7.2-1 9.8-3.1 2.7-2 5.1-4.9 7.4-8.7l1.9.7c-1.5 4.7-4.4 9.1-8.5 13.1-4.2 4-9.3 6-15.3 6-7 0-12.4-2.6-16.2-7.9-3.8-5.3-5.7-11.3-5.7-18.2 0-7.5 2.2-13.9 6.6-19.3 4.4-5.4 10.2-8.1 17.2-8.1 5.4 0 10 1.8 13.9 5.4zm-26.7 4.3c-1.2 2-2 4.5-2.6 7.6h23.5c-.4-3.7-1.1-6.5-2.1-8.3-1.8-3.3-4.9-4.9-9.1-4.9-4.2 0-7.4 1.8-9.7 5.6zM371.7 589c2.6-.3 4.5-1 5.5-2s1.6-3.2 1.6-6.6v-28.3c0-2.4-.2-4-.7-5-.7-1.4-2.2-2.1-4.3-2.1-.3 0-.7 0-1 .1-.4 0-.8.1-1.3.2v-1.9c1.5-.4 5.1-1.6 10.8-3.4l5.2-1.7c.3 0 .4.1.5.3.1.2.1.4.1.8v8.2c3.4-3.2 6.1-5.4 8-6.6 2.9-1.8 5.9-2.7 9-2.7 2.5 0 4.8.7 6.9 2.2 4 2.8 6 7.8 6 15.1v26c0 2.7.5 4.6 1.6 5.8 1.1 1.2 2.9 1.8 5.4 1.8v1.6h-23.8V589c2.7-.4 4.6-1.1 5.7-2.3 1.1-1.1 1.6-3.6 1.6-7.4v-23.8c0-3.2-.6-5.8-1.8-7.9-1.2-2.1-3.4-3.1-6.5-3.1-2.2 0-4.4.7-6.6 2.2-1.3.9-2.9 2.3-4.9 4.2v31.2c0 2.7.6 4.5 1.8 5.4 1.2.9 3.1 1.4 5.6 1.5v1.6h-24.3V589zM465.6 565.9c-1.9-2.9-2.8-6.1-2.8-9.6 0-4.3 1.7-8.5 5.2-12.4 3.4-3.9 8.3-5.8 14.6-5.8 2.7 0 5.7.6 9 1.9 3.3 1.3 6.4 1.9 9.4 1.9.8 0 2 0 3.5-.1 1.6-.1 2.7-.1 3.4-.1h.7v4.5H499c.7 1.6 1.2 2.9 1.6 4.1.6 2.2.9 4.2.9 6.1 0 4.2-1.8 8.1-5.3 11.7-3.5 3.5-8.2 5.3-14.2 5.3-.9 0-2.6-.2-5-.5-1.1 0-2.5.9-4.3 2.7-1.8 1.8-2.7 3.3-2.7 4.5 0 1.2 1.3 2.1 3.9 2.6 1.7.4 3.6.6 5.7.6 9.5 0 16 .5 19.4 1.6 5.6 1.7 8.4 5.5 8.4 11.2 0 5.9-3.3 10.5-9.8 14-6.5 3.5-13.2 5.2-19.8 5.2-6.1 0-10.9-1.2-14.5-3.7-3.6-2.5-5.3-5.1-5.3-7.8 0-1.3.5-2.6 1.4-3.9.9-1.3 2.8-3.2 5.6-5.7l3.7-3.3.7-.7c-1.7-.7-3-1.3-3.8-1.9-1.5-1.1-2.2-2.5-2.2-4 0-1.4.6-2.9 1.9-4.5 1.3-1.6 4-4.3 8.2-8-3.4-1-6-3-7.9-5.9zm5.9 41.4c3.5 1.2 7.5 1.8 12 1.8 6.2 0 11.2-1.1 15-3.2 3.9-2.1 5.8-4.8 5.8-7.9 0-2.5-1.6-4.1-4.7-5-1.9-.5-5.6-.8-11-.8-1.4 0-2.8-.1-4.3-.1-1.5-.1-2.9-.1-4.2-.2-.8 0-2.1-.2-4-.4-1.8-.3-3.2-.5-4.1-.7-.4 0-1.5 1.2-3.3 3.5-1.8 2.4-2.6 4.6-2.6 6.6.2 3.1 1.9 5.2 5.4 6.4zm17.7-38.2c2.2-1.8 3.3-4.9 3.3-9.3 0-3.5-.9-7.5-2.7-11.9-1.8-4.4-4.8-6.6-9-6.6-3.6 0-6.1 1.7-7.5 5.2-.7 1.8-1.1 4.1-1.1 6.7 0 4.5 1.1 8.6 3.3 12.2 2.2 3.6 5 5.4 8.5 5.4 2.1 0 3.8-.6 5.2-1.7zM512.6 588.7c3.4-.3 5.7-.9 6.8-1.8 1.1-.9 1.7-2.8 1.7-5.8V556c0-3.7-.3-6.3-1-7.9-.7-1.6-1.9-2.4-3.8-2.4-.4 0-.9 0-1.5.1s-1.3.2-1.9.4v-1.8c2.1-.7 4.3-1.5 6.5-2.3 2.2-.8 3.8-1.3 4.6-1.7 1.8-.7 3.8-1.5 5.7-2.4.3 0 .4.1.5.3.1.2.1.6.1 1.2v9.1c2.4-3.3 4.7-5.9 6.9-7.7 2.2-1.9 4.5-2.8 6.9-2.8 1.9 0 3.4.6 4.6 1.7 1.2 1.1 1.8 2.6 1.8 4.3 0 1.5-.5 2.8-1.4 3.8-.9 1-2.1 1.6-3.4 1.6-1.4 0-2.8-.6-4.3-1.9-1.4-1.3-2.6-1.9-3.4-1.9-1.3 0-2.9 1-4.8 3.1s-2.8 4.3-2.8 6.5v25.1c0 3.2.7 5.4 2.2 6.6 1.5 1.2 4 1.8 7.4 1.8v1.8h-27.4v-1.9zM589.9 543.8c3.9 3.6 5.9 8.7 5.9 15.4h-35.3c.4 8.6 2.3 14.8 5.8 18.8 3.5 3.9 7.7 5.9 12.5 5.9 3.9 0 7.2-1 9.8-3.1 2.7-2 5.1-4.9 7.4-8.7l1.9.7c-1.5 4.7-4.4 9.1-8.5 13.1-4.2 4-9.3 6-15.3 6-7 0-12.4-2.6-16.2-7.9-3.8-5.3-5.7-11.3-5.7-18.2 0-7.5 2.2-13.9 6.6-19.3 4.4-5.4 10.2-8.1 17.2-8.1 5.3 0 9.9 1.8 13.9 5.4zm-26.7 4.3c-1.2 2-2 4.5-2.6 7.6h23.5c-.4-3.7-1.1-6.5-2.1-8.3-1.8-3.3-4.9-4.9-9.1-4.9-4.2 0-7.5 1.8-9.7 5.6zM612.8 566c3.4-2.2 10.2-5.2 20.4-9.1v-4.7c0-3.8-.4-6.4-1.1-7.9-1.3-2.5-3.9-3.7-7.8-3.7-1.9 0-3.7.5-5.4 1.4-1.7 1-2.6 2.4-2.6 4.1 0 .4.1 1.2.3 2.3.2 1.1.3 1.7.3 2 0 2.1-.7 3.5-2.1 4.3-.8.5-1.7.7-2.8.7-1.7 0-2.9-.5-3.8-1.6-.9-1.1-1.3-2.3-1.3-3.6 0-2.6 1.6-5.3 4.8-8.2 3.2-2.8 7.9-4.3 14.1-4.3 7.2 0 12.1 2.3 14.6 7 1.4 2.6 2.1 6.3 2.1 11.2v22.3c0 2.2.1 3.6.4 4.5.5 1.4 1.5 2.2 3 2.2.9 0 1.6-.1 2.1-.4.6-.3 1.5-.9 2.9-1.9v2.9c-1.2 1.4-2.5 2.6-3.8 3.6-2.1 1.4-4.2 2.1-6.3 2.1-2.5 0-4.3-.8-5.5-2.4-1.1-1.6-1.8-3.6-1.9-5.8-2.8 2.4-5.2 4.3-7.2 5.5-3.4 2-6.6 3-9.6 3-3.2 0-6-1.1-8.3-3.4-2.3-2.2-3.5-5.1-3.5-8.5 0-5.5 2.7-10 8-13.6zm20.5-6.2c-4.3 1.4-7.8 3-10.6 4.7-5.3 3.3-8 7-8 11.2 0 3.4 1.1 5.9 3.3 7.5 1.4 1 3.1 1.6 4.8 1.6 2.4 0 4.8-.7 7-2.1 2.2-1.4 3.4-3.1 3.4-5.2v-17.7zM680.2 539.3v4h-11.4l-.1 32c0 2.8.2 5 .7 6.4.9 2.6 2.6 3.8 5.2 3.8 1.3 0 2.5-.3 3.5-.9 1-.6 2.1-1.6 3.4-3l1.4 1.2-1.2 1.7c-1.9 2.6-4 4.4-6.1 5.5-2.2 1.1-4.2 1.6-6.2 1.6-4.4 0-7.3-1.9-8.9-5.8-.9-2.1-1.3-5-1.3-8.8v-33.7h-6.1c-.2-.1-.3-.2-.4-.3-.1-.1-.1-.3-.1-.4 0-.4.1-.7.3-.9.2-.2.7-.7 1.6-1.4 2.6-2.1 4.4-3.8 5.5-5.1 1.1-1.3 3.8-4.8 8-10.4.5 0 .8 0 .9.1.1.1.1.4.1.8v13.7h11.2zM751.6 541.7c3.4 2.4 5 5 5 7.8 0 1.2-.4 2.4-1.3 3.4-.9 1.1-2.2 1.6-4 1.6-1.3 0-2.4-.4-3.4-1.3s-1.7-2.2-2.1-3.9l-.7-2.7c-.5-2-1.3-3.4-2.5-4.2-1.2-.8-2.8-1.2-4.8-1.2-4.2 0-7.8 1.8-10.7 5.5-2.9 3.7-4.4 8.6-4.4 14.7 0 5.6 1.6 10.6 4.8 15.1 3.2 4.5 7.5 6.7 13 6.7 3.9 0 7.3-1.3 10.3-3.8 1.7-1.4 3.6-3.8 5.8-6.9l1.6.9c-2.1 4.5-4.3 8-6.7 10.6-4.5 5-9.7 7.5-15.6 7.5-5.8 0-10.9-2.3-15.4-6.8-4.5-4.6-6.7-10.8-6.7-18.6 0-7.7 2.4-14.3 7.3-19.8s11-8.3 18.4-8.3c4.8.1 8.8 1.3 12.1 3.7zM762.9 589c3-.4 5-1.2 6-2.3.9-1.1 1.4-3.7 1.4-7.8v-53.4c0-2.1-.3-3.6-.8-4.6-.5-1-1.8-1.5-3.9-1.5-.4 0-.8 0-1.2.1-.4.1-.8.1-1.3.2v-2c1.6-.5 3.6-1.1 6-1.8s4.1-1.2 5-1.5l5.3-1.7.1.4v34.2c2.3-2.7 4.4-4.6 6.2-5.9 3.3-2.2 6.8-3.3 10.6-3.3 6 0 10.1 2.5 12.3 7.6 1.2 2.7 1.8 6.2 1.8 10.5V579c0 3.9.5 6.5 1.4 7.7.9 1.2 2.8 2 5.6 2.3v1.6h-24.1V589c3.2-.4 5.3-1.2 6.2-2.3.9-1.1 1.4-3.7 1.4-7.7v-22.5c0-3.6-.6-6.5-1.8-8.7-1.2-2.2-3.5-3.3-6.8-3.3-2.9 0-5.7 1-8.4 3.1s-4.1 3.4-4.1 4.1V579c0 4.2.5 6.8 1.4 7.8 1 1 3 1.8 6.2 2.2v1.6h-24.5V589zM831.1 566c3.4-2.2 10.2-5.2 20.4-9.1v-4.7c0-3.8-.4-6.4-1.1-7.9-1.3-2.5-3.9-3.7-7.8-3.7-1.9 0-3.7.5-5.4 1.4-1.7 1-2.6 2.4-2.6 4.1 0 .4.1 1.2.3 2.3.2 1.1.3 1.7.3 2 0 2.1-.7 3.5-2.1 4.3-.8.5-1.7.7-2.8.7-1.7 0-2.9-.5-3.8-1.6-.9-1.1-1.3-2.3-1.3-3.6 0-2.6 1.6-5.3 4.8-8.2 3.2-2.8 7.9-4.3 14.1-4.3 7.2 0 12.1 2.3 14.6 7 1.4 2.6 2.1 6.3 2.1 11.2v22.3c0 2.2.1 3.6.4 4.5.5 1.4 1.5 2.2 3 2.2.9 0 1.6-.1 2.1-.4.6-.3 1.5-.9 2.9-1.9v2.9c-1.2 1.4-2.5 2.6-3.8 3.6-2.1 1.4-4.2 2.1-6.3 2.1-2.5 0-4.3-.8-5.5-2.4-1.1-1.6-1.8-3.6-1.9-5.8-2.8 2.4-5.2 4.3-7.2 5.5-3.4 2-6.6 3-9.6 3-3.2 0-6-1.1-8.3-3.4-2.3-2.2-3.5-5.1-3.5-8.5 0-5.5 2.6-10 8-13.6zm20.4-6.2c-4.3 1.4-7.8 3-10.6 4.7-5.3 3.3-8 7-8 11.2 0 3.4 1.1 5.9 3.3 7.5 1.4 1 3.1 1.6 4.8 1.6 2.4 0 4.8-.7 7-2.1 2.2-1.4 3.4-3.1 3.4-5.2v-17.7zM871.5 589c2.6-.3 4.5-1 5.5-2 1.1-1 1.6-3.2 1.6-6.6v-28.3c0-2.4-.2-4-.7-5-.7-1.4-2.2-2.1-4.3-2.1-.3 0-.7 0-1 .1-.4 0-.8.1-1.3.2v-1.9c1.5-.4 5.1-1.6 10.8-3.4l5.2-1.7c.3 0 .4.1.5.3.1.2.1.4.1.8v8.2c3.4-3.2 6.1-5.4 8-6.6 2.9-1.8 5.9-2.7 9-2.7 2.5 0 4.8.7 6.9 2.2 4 2.8 6 7.8 6 15.1v26c0 2.7.5 4.6 1.6 5.8 1.1 1.2 2.9 1.8 5.4 1.8v1.6H901V589c2.7-.4 4.6-1.1 5.7-2.3 1.1-1.1 1.6-3.6 1.6-7.4v-23.8c0-3.2-.6-5.8-1.8-7.9-1.2-2.1-3.4-3.1-6.5-3.1-2.2 0-4.4.7-6.6 2.2-1.3.9-2.9 2.3-4.9 4.2v31.2c0 2.7.6 4.5 1.8 5.4 1.2.9 3.1 1.4 5.6 1.5v1.6h-24.3V589zM937 565.9c-1.9-2.9-2.8-6.1-2.8-9.6 0-4.3 1.7-8.5 5.2-12.4 3.4-3.9 8.3-5.8 14.6-5.8 2.7 0 5.7.6 9 1.9 3.3 1.3 6.4 1.9 9.4 1.9.8 0 2 0 3.5-.1 1.6-.1 2.7-.1 3.4-.1h.7v4.5h-9.6c.7 1.6 1.2 2.9 1.6 4.1.6 2.2.9 4.2.9 6.1 0 4.2-1.8 8.1-5.3 11.7-3.5 3.5-8.2 5.3-14.2 5.3-.9 0-2.6-.2-5-.5-1.1 0-2.5.9-4.3 2.7-1.8 1.8-2.7 3.3-2.7 4.5 0 1.2 1.3 2.1 3.9 2.6 1.7.4 3.6.6 5.7.6 9.5 0 16 .5 19.4 1.6 5.6 1.7 8.4 5.5 8.4 11.2 0 5.9-3.3 10.5-9.8 14-6.5 3.5-13.2 5.2-19.8 5.2-6.1 0-10.9-1.2-14.5-3.7-3.6-2.5-5.3-5.1-5.3-7.8 0-1.3.5-2.6 1.4-3.9.9-1.3 2.8-3.2 5.6-5.7l3.7-3.3.7-.7c-1.7-.7-3-1.3-3.8-1.9-1.5-1.1-2.2-2.5-2.2-4 0-1.4.6-2.9 1.9-4.5 1.3-1.6 4-4.3 8.2-8-3.4-1-6-3-7.9-5.9zm5.9 41.4c3.5 1.2 7.5 1.8 12 1.8 6.2 0 11.2-1.1 15-3.2 3.9-2.1 5.8-4.8 5.8-7.9 0-2.5-1.6-4.1-4.7-5-1.9-.5-5.6-.8-11-.8-1.4 0-2.8-.1-4.3-.1-1.5-.1-2.9-.1-4.2-.2-.8 0-2.1-.2-4-.4-1.8-.3-3.2-.5-4.1-.7-.4 0-1.5 1.2-3.3 3.5-1.8 2.4-2.6 4.6-2.6 6.6.1 3.1 1.9 5.2 5.4 6.4zm17.7-38.2c2.2-1.8 3.3-4.9 3.3-9.3 0-3.5-.9-7.5-2.7-11.9-1.8-4.4-4.8-6.6-9-6.6-3.6 0-6.1 1.7-7.5 5.2-.7 1.8-1.1 4.1-1.1 6.7 0 4.5 1.1 8.6 3.3 12.2 2.2 3.6 5 5.4 8.5 5.4 2.1 0 3.8-.6 5.2-1.7zM1023.3 543.8c3.9 3.6 5.9 8.7 5.9 15.4h-35.3c.4 8.6 2.3 14.8 5.8 18.8 3.5 3.9 7.7 5.9 12.5 5.9 3.9 0 7.2-1 9.8-3.1 2.7-2 5.1-4.9 7.4-8.7l1.9.7c-1.5 4.7-4.4 9.1-8.5 13.1-4.2 4-9.3 6-15.3 6-7 0-12.4-2.6-16.2-7.9-3.8-5.3-5.7-11.3-5.7-18.2 0-7.5 2.2-13.9 6.6-19.3 4.4-5.4 10.2-8.1 17.2-8.1 5.3 0 9.9 1.8 13.9 5.4zm-26.7 4.3c-1.2 2-2 4.5-2.6 7.6h23.5c-.4-3.7-1.1-6.5-2.1-8.3-1.8-3.3-4.9-4.9-9.1-4.9-4.2 0-7.5 1.8-9.7 5.6z"/><path fill="#147792" d="M28.4 667.5v4H17.1l-.1 32c0 2.8.2 5 .7 6.4.9 2.6 2.6 3.8 5.2 3.8 1.3 0 2.5-.3 3.5-.9 1-.6 2.1-1.6 3.4-3l1.4 1.2-1.2 1.7c-1.9 2.6-4 4.4-6.1 5.5-2.2 1.1-4.2 1.6-6.2 1.6-4.4 0-7.3-1.9-8.9-5.8-.9-2.1-1.3-5-1.3-8.8v-33.7H1.4c-.2-.1-.3-.2-.4-.3-.1-.1-.1-.3-.1-.4 0-.4.1-.7.3-.9.2-.2.7-.7 1.6-1.4 2.6-2.1 4.4-3.8 5.5-5.1 1.1-1.3 3.8-4.8 8-10.4.5 0 .8 0 .9.1.1.1.1.4.1.8v13.7h11.1zM32.1 717.2c3-.4 5-1.2 6-2.3.9-1.1 1.4-3.7 1.4-7.8v-53.4c0-2.1-.3-3.6-.8-4.6-.5-1-1.8-1.5-3.9-1.5-.4 0-.8 0-1.2.1-.4.1-.8.1-1.3.2v-2c1.6-.5 3.6-1.1 6-1.8s4.1-1.2 5-1.5l5.3-1.7.1.4v34.2c2.3-2.7 4.4-4.6 6.2-5.9 3.3-2.2 6.8-3.3 10.6-3.3 6 0 10.1 2.5 12.3 7.6 1.2 2.7 1.8 6.2 1.8 10.5v22.7c0 3.9.5 6.5 1.4 7.7.9 1.2 2.8 2 5.6 2.3v1.6H62.5v-1.6c3.2-.4 5.3-1.2 6.2-2.3.9-1.1 1.4-3.7 1.4-7.7v-22.5c0-3.6-.6-6.5-1.8-8.7-1.2-2.2-3.5-3.3-6.8-3.3-2.9 0-5.7 1-8.4 3.1s-4.1 3.4-4.1 4.1v27.4c0 4.2.5 6.8 1.4 7.8 1 1 3 1.8 6.2 2.2v1.6H32.1v-1.6zM127.9 672c3.9 3.6 5.9 8.7 5.9 15.4H98.5c.4 8.6 2.3 14.8 5.8 18.8 3.5 3.9 7.7 5.9 12.5 5.9 3.9 0 7.2-1 9.8-3.1 2.7-2 5.1-4.9 7.4-8.7l1.9.7c-1.5 4.7-4.4 9.1-8.5 13.1-4.2 4-9.3 6-15.3 6-7 0-12.4-2.6-16.2-7.9-3.8-5.3-5.7-11.3-5.7-18.2 0-7.5 2.2-13.9 6.6-19.3 4.4-5.4 10.2-8.1 17.2-8.1 5.4 0 10 1.8 13.9 5.4zm-26.6 4.3c-1.2 2-2 4.5-2.6 7.6h23.5c-.4-3.7-1.1-6.5-2.1-8.3-1.8-3.3-4.9-4.9-9.1-4.9-4.3 0-7.5 1.8-9.7 5.6zM140.9 717.2c4-.4 6.5-1 7.5-2s1.6-3.6 1.6-8v-26.5c0-2.4-.2-4.1-.5-5-.6-1.5-1.7-2.3-3.5-2.3-.4 0-.8 0-1.2.1-.4.1-1.5.4-3.4.9v-1.7l2.4-.8c6.5-2.1 11-3.7 13.6-4.8 1-.4 1.7-.7 2-.7.1.3.1.5.1.8v40c0 4.2.5 6.9 1.5 8 1 1.1 3.3 1.8 6.9 2.1v1.6h-27v-1.7zm8.8-74.4c1.1-1.1 2.5-1.7 4.1-1.7 1.6 0 3 .6 4.1 1.7 1.1 1.1 1.7 2.5 1.7 4.1 0 1.6-.6 2.9-1.7 4.1-1.1 1.1-2.5 1.7-4.1 1.7-1.6 0-3-.6-4.1-1.7-1.1-1.1-1.7-2.5-1.7-4.1.1-1.6.6-2.9 1.7-4.1zM170.8 716.9c3.4-.3 5.7-.9 6.8-1.8 1.1-.9 1.7-2.8 1.7-5.8v-25.1c0-3.7-.3-6.3-1-7.9-.7-1.6-1.9-2.4-3.8-2.4-.4 0-.9 0-1.5.1s-1.3.2-1.9.4v-1.8c2.1-.7 4.3-1.5 6.5-2.3 2.2-.8 3.8-1.3 4.6-1.7 1.8-.7 3.8-1.5 5.7-2.4.3 0 .4.1.5.3.1.2.1.6.1 1.2v9.1c2.4-3.3 4.7-5.9 6.9-7.7 2.2-1.9 4.5-2.8 6.9-2.8 1.9 0 3.4.6 4.6 1.7s1.8 2.6 1.8 4.3c0 1.5-.5 2.8-1.4 3.8-.9 1-2.1 1.6-3.4 1.6-1.4 0-2.8-.6-4.3-1.9-1.4-1.3-2.6-1.9-3.4-1.9-1.3 0-2.9 1-4.8 3.1s-2.8 4.3-2.8 6.5v25.1c0 3.2.7 5.4 2.2 6.6 1.5 1.2 4 1.8 7.4 1.8v1.8h-27.4v-1.9zM271.2 668c1.5.8 2.9 1.9 4.3 3.2v-17.7c0-2.3-.3-3.8-.8-4.7-.5-.9-1.7-1.3-3.6-1.3-.4 0-.8 0-1.2.1-.3 0-1.1.1-2.2.2V646l4.6-1.2c1.7-.4 3.3-.9 5-1.4 1.7-.5 3.1-.9 4.4-1.4.6-.2 1.6-.5 2.9-1.1l.3.1-.1 5.8c0 2.1-.1 4.3-.1 6.5s-.1 4.5-.1 6.6l-.1 45.5c0 2.4.3 4.1.9 5.1.6 1 2.2 1.4 4.7 1.4h1.2c.4 0 .8-.1 1.2-.1v1.8c-.2.1-2.9 1-8.1 2.8l-8.7 3.3-.4-.5v-6.8c-2.1 2.3-3.9 3.9-5.4 4.8-2.7 1.7-5.8 2.5-9.4 2.5-6.3 0-11.4-2.4-15.3-7.3-3.9-4.9-5.9-10.5-5.9-16.9 0-8 2.3-15 7-20.7 4.7-5.8 10.4-8.7 17.2-8.7 2.9.1 5.4.7 7.7 1.9zm1.6 43.3c1.8-1.7 2.7-3.3 2.7-4.8v-23.9c0-4.8-1.3-8.2-3.9-10.2-2.6-2-5.1-3-7.5-3-4.7 0-8.3 2.1-10.9 6.2-2.6 4.1-3.9 9.2-3.9 15.3 0 6 1.4 11.3 4.1 16 2.8 4.7 6.9 7 12.4 7 2.9-.1 5.2-.9 7-2.6zM333.6 672c3.9 3.6 5.9 8.7 5.9 15.4h-35.3c.4 8.6 2.3 14.8 5.8 18.8 3.5 3.9 7.7 5.9 12.5 5.9 3.9 0 7.2-1 9.8-3.1 2.7-2 5.1-4.9 7.4-8.7l1.9.7c-1.5 4.7-4.4 9.1-8.5 13.1-4.2 4-9.3 6-15.3 6-7 0-12.4-2.6-16.2-7.9-3.8-5.3-5.7-11.3-5.7-18.2 0-7.5 2.2-13.9 6.6-19.3 4.4-5.4 10.2-8.1 17.2-8.1 5.4 0 9.9 1.8 13.9 5.4zm-26.7 4.3c-1.2 2-2 4.5-2.6 7.6h23.5c-.4-3.7-1.1-6.5-2.1-8.3-1.8-3.3-4.9-4.9-9.1-4.9-4.2 0-7.5 1.8-9.7 5.6zM368.8 667.1v1.7c-1.9.2-3.3.5-4.1.9-.8.4-1.2 1.2-1.2 2.4 0 .6.1 1.2.3 1.7.2.5.5 1.3.9 2.4l11.7 28 9.9-24.7c.5-1.2.9-2.5 1.4-3.8.4-1.3.6-2.4.6-3.1 0-1.4-.7-2.5-2.1-3.1-.8-.3-1.9-.6-3.3-.7v-1.7h15.8v1.7c-1.8.1-3.1.8-3.9 1.8-.8 1.1-2 3.5-3.5 7.3L375.1 718c-.3.7-.5 1.2-.7 1.4-.2.3-.4.4-.8.4s-.7-.2-.9-.6c-.3-.4-.5-1-.8-1.6l-17-40.7c-1.4-3.3-2.8-5.5-4.4-6.7-.9-.7-2.3-1.1-4.1-1.3v-1.7h22.4zM441.1 672c3.9 3.6 5.9 8.7 5.9 15.4h-35.3c.4 8.6 2.3 14.8 5.8 18.8 3.5 3.9 7.7 5.9 12.5 5.9 3.9 0 7.2-1 9.8-3.1 2.7-2 5.1-4.9 7.4-8.7l1.9.7c-1.5 4.7-4.4 9.1-8.5 13.1-4.2 4-9.3 6-15.3 6-7 0-12.4-2.6-16.2-7.9-3.8-5.3-5.7-11.3-5.7-18.2 0-7.5 2.2-13.9 6.6-19.3 4.4-5.4 10.2-8.1 17.2-8.1 5.4 0 10 1.8 13.9 5.4zm-26.6 4.3c-1.2 2-2 4.5-2.6 7.6h23.5c-.4-3.7-1.1-6.5-2.1-8.3-1.8-3.3-4.9-4.9-9.1-4.9-4.3 0-7.5 1.8-9.7 5.6zM454.2 717.2c3.4-.3 5.8-1 7-2.1 1.2-1.1 1.8-3.1 1.8-6.2v-54.4c0-2.4-.2-4.1-.6-5.1-.7-1.6-2.2-2.3-4.5-2.3-.5 0-1.1.1-1.7.2-.6.1-1.4.3-2.3.5V646c5-1.3 11-3.1 18.1-5.3.3 0 .4.1.5.3.1.2.1.7.1 1.4v66.7c0 3.2.6 5.3 1.7 6.3 1.1.9 3.4 1.5 6.9 1.8v1.6h-26.9v-1.6zM493.5 674.2c4.7-5.1 10.7-7.7 18.1-7.7 7.3 0 13.4 2.4 18.3 7.2 4.8 4.8 7.2 11.2 7.2 19.3 0 7.4-2.3 13.8-7 19.3s-10.7 8.2-18.1 8.2c-7.1 0-13.2-2.6-18.1-7.8-4.9-5.2-7.4-11.8-7.4-19.7-.1-7.4 2.3-13.7 7-18.8zm8.8-1.4c-3.7 3.4-5.6 9.2-5.6 17.5 0 6.6 1.5 12.8 4.5 18.5 3 5.7 7.1 8.6 12.5 8.6 4.2 0 7.4-1.9 9.6-5.7 2.2-3.8 3.4-8.8 3.4-15 0-6.4-1.4-12.5-4.3-18.1-2.9-5.7-7-8.5-12.4-8.5-3-.2-5.5.8-7.7 2.7zM541.1 741.8c3.5-.2 5.7-1 6.6-2.2.9-1.3 1.4-3.2 1.4-6v-53.4c0-2.8-.3-4.6-1-5.4-.7-.8-2-1.2-3.9-1.2-.4 0-.8 0-1.1.1-.4 0-.9.1-1.5.2V672l5.3-1.7c.2 0 3.9-1.3 11.2-3.8.2 0 .3.1.4.2.1.2.1.4.1.6v7.5c2.4-2.4 4.6-4.3 6.5-5.5 3.3-2.1 6.8-3.1 10.3-3.1 5.1 0 9.5 2.2 13.2 6.5 3.7 4.4 5.5 10.3 5.5 17.9 0 7.4-2.2 14.1-6.6 20.2-4.4 6-10 9.1-16.7 9.1-2.1 0-3.9-.3-5.4-.8-2.4-.8-4.6-2.2-6.6-4.3V733c0 3.7.6 6 1.8 6.9 1.2.9 3.9 1.4 8 1.7v1.9h-27.5v-1.7zm21.9-27.7c1.9 1.2 4.2 1.9 6.8 1.9 4 0 7.4-2 10.3-6 2.8-4 4.3-9.5 4.3-16.6 0-6.8-1.5-11.9-4.4-15.3-2.9-3.4-6.4-5.1-10.3-5.1-2.7 0-5.2.8-7.5 2.5s-3.4 3.3-3.4 5v28c.9 2.5 2.3 4.4 4.2 5.6zM599.3 717.3c2.9-.3 4.8-.7 5.8-1.4 1.5-1.1 2.2-3.2 2.2-6.5v-28.8c0-2.7-.4-4.5-1.1-5.4-.7-.9-1.9-1.3-3.6-1.3-.8 0-1.4 0-1.8.1-.4.1-.8.2-1.4.4v-1.9l4-1.3c1.4-.5 3.8-1.4 7.1-2.6 3.3-1.3 5-1.9 5.2-1.9.2 0 .3.1.3.3 0 .2.1.5.1 1.1v7.5c3.7-3.3 6.8-5.6 9.5-6.9 2.7-1.3 5.4-1.9 8.2-1.9 3.8 0 6.9 1.3 9.1 3.9 1.2 1.4 2.2 3.3 2.9 5.7 2.7-2.8 5.1-4.8 7.2-6.2 3.5-2.3 7.1-3.4 10.8-3.4 6 0 10 2.4 12 7.3 1.1 2.7 1.7 7.1 1.7 13v23.1c0 2.6.6 4.4 1.8 5.4 1.2.9 3.3 1.6 6.3 1.9v1.4h-25.1v-1.6c3.2-.3 5.4-.9 6.4-1.9 1-1 1.5-3 1.5-6.1v-24c0-3.6-.4-6.3-1.2-8-1.4-3-4.1-4.6-8.1-4.6-2.4 0-4.8.8-7.2 2.4-1.4.9-3.1 2.4-5.1 4.5V708c0 3 .5 5.3 1.6 6.8 1.1 1.6 3.3 2.4 6.7 2.5v1.4h-25.5v-1.4c3.5-.4 5.8-1.3 6.7-2.6 1-1.3 1.4-4.4 1.4-9.3v-15.5c0-5.7-.4-9.6-1.1-11.8-1.2-3.6-3.8-5.5-7.8-5.5-2.3 0-4.5.6-6.7 1.9-2.2 1.2-4.1 2.9-5.8 4.9v30.4c0 2.8.5 4.8 1.5 5.8 1 1.1 3.1 1.6 6.4 1.7v1.4h-25.3v-1.4zM726 672c3.9 3.6 5.9 8.7 5.9 15.4h-35.3c.4 8.6 2.3 14.8 5.8 18.8 3.5 3.9 7.7 5.9 12.5 5.9 3.9 0 7.2-1 9.8-3.1 2.7-2 5.1-4.9 7.4-8.7l1.9.7c-1.5 4.7-4.4 9.1-8.5 13.1-4.2 4-9.3 6-15.3 6-7 0-12.4-2.6-16.2-7.9-3.8-5.3-5.7-11.3-5.7-18.2 0-7.5 2.2-13.9 6.6-19.3 4.4-5.4 10.2-8.1 17.2-8.1 5.3 0 9.9 1.8 13.9 5.4zm-26.7 4.3c-1.2 2-2 4.5-2.6 7.6h23.5c-.4-3.7-1.1-6.5-2.1-8.3-1.8-3.3-4.9-4.9-9.1-4.9-4.2 0-7.5 1.8-9.7 5.6zM738.8 717.2c2.6-.3 4.5-1 5.5-2 1.1-1 1.6-3.2 1.6-6.6v-28.3c0-2.4-.2-4-.7-5-.7-1.4-2.2-2.1-4.3-2.1-.3 0-.7 0-1 .1-.4 0-.8.1-1.3.2v-1.9c1.5-.4 5.1-1.6 10.8-3.4l5.2-1.7c.3 0 .4.1.5.3.1.2.1.4.1.8v8.2c3.4-3.2 6.1-5.4 8-6.6 2.9-1.8 5.9-2.7 9-2.7 2.5 0 4.8.7 6.9 2.2 4 2.8 6 7.8 6 15.1v26c0 2.7.5 4.6 1.6 5.8 1.1 1.2 2.9 1.8 5.4 1.8v1.6h-23.8v-1.6c2.7-.4 4.6-1.1 5.7-2.3 1.1-1.1 1.6-3.6 1.6-7.4v-23.8c0-3.2-.6-5.8-1.8-7.9-1.2-2.1-3.4-3.1-6.5-3.1-2.2 0-4.4.7-6.6 2.2-1.3.9-2.9 2.3-4.9 4.2v31.2c0 2.7.6 4.5 1.8 5.4 1.2.9 3.1 1.4 5.6 1.5v1.6h-24.3v-1.8zM822.7 667.5v4h-11.4l-.1 32c0 2.8.2 5 .7 6.4.9 2.6 2.6 3.8 5.2 3.8 1.3 0 2.5-.3 3.5-.9 1-.6 2.1-1.6 3.4-3l1.4 1.2-1.2 1.7c-1.9 2.6-4 4.4-6.1 5.5-2.2 1.1-4.2 1.6-6.2 1.6-4.4 0-7.3-1.9-8.9-5.8-.9-2.1-1.3-5-1.3-8.8v-33.7h-6.1c-.2-.1-.3-.2-.4-.3-.1-.1-.1-.3-.1-.4 0-.4.1-.7.3-.9.2-.2.7-.7 1.6-1.4 2.6-2.1 4.4-3.8 5.5-5.1 1.1-1.3 3.8-4.8 8-10.4.5 0 .8 0 .9.1.1.1.1.4.1.8v13.7h11.2zM839.4 718.3c-1.2-1.2-1.8-2.7-1.8-4.5 0-1.7.6-3.2 1.9-4.5 1.2-1.2 2.7-1.8 4.5-1.8 1.7 0 3.2.6 4.5 1.8 1.2 1.2 1.8 2.7 1.8 4.5 0 1.7-.6 3.2-1.8 4.5s-2.7 1.9-4.5 1.9c-1.9-.1-3.4-.7-4.6-1.9z"/><path fill="#523972" d="M889.7 695.9c1.9 5.1 4.2 9.2 6.8 12.2 4.5 5.3 10.1 8 16.8 8 3.6 0 6.8-1.1 9.4-3.4 2.6-2.3 4-5.5 4-9.6 0-3.7-1.3-6.9-4-9.7-1.7-1.7-5.4-4.4-11-7.8l-9.7-6.1c-2.9-1.9-5.3-3.7-7-5.6-3.2-3.6-4.8-7.6-4.8-11.9 0-5.7 1.9-10.5 5.7-14.4 3.8-3.8 8.9-5.7 15.2-5.7 2.6 0 5.7.6 9.4 1.9 3.7 1.3 5.7 1.9 6.3 1.9 1.4 0 2.4-.3 2.9-1s1-1.6 1.3-2.8h2.3l2.5 24.3H933c-1.9-7.3-4.8-12.4-8.9-15.3-4.1-2.9-8.2-4.3-12.2-4.3-3.1 0-5.8.9-8.2 2.8-2.3 1.8-3.5 4.4-3.5 7.7 0 2.9.9 5.4 2.7 7.5 1.8 2.1 4.5 4.3 8.3 6.6l10 6.2c6.3 3.9 10.7 7.4 13.3 10.6 2.5 3.3 3.8 7.1 3.8 11.6 0 6-2.3 11-6.8 15s-10.3 6-17.3 6c-3.5 0-7.2-.7-11-2s-6-2-6.6-2c-1.3 0-2.2.4-2.7 1.2-.5.8-.8 1.7-.9 2.6h-2.5l-3.4-24.3h2.6zM946.2 741.8c3.5-.2 5.7-1 6.6-2.2.9-1.3 1.4-3.2 1.4-6v-53.4c0-2.8-.3-4.6-1-5.4-.7-.8-2-1.2-3.9-1.2-.4 0-.8 0-1.1.1-.4 0-.9.1-1.5.2V672l5.3-1.7c.2 0 3.9-1.3 11.2-3.8.2 0 .3.1.4.2.1.2.1.4.1.6v7.5c2.4-2.4 4.6-4.3 6.5-5.5 3.3-2.1 6.8-3.1 10.3-3.1 5.1 0 9.5 2.2 13.2 6.5 3.7 4.4 5.5 10.3 5.5 17.9 0 7.4-2.2 14.1-6.6 20.2-4.4 6-10 9.1-16.7 9.1-2.1 0-3.9-.3-5.4-.8-2.4-.8-4.6-2.2-6.6-4.3V733c0 3.7.6 6 1.8 6.9 1.2.9 3.9 1.4 8 1.7v1.9h-27.5v-1.7zm22-27.7c1.9 1.2 4.2 1.9 6.8 1.9 4 0 7.4-2 10.3-6 2.8-4 4.3-9.5 4.3-16.6 0-6.8-1.5-11.9-4.4-15.3-2.9-3.4-6.4-5.1-10.3-5.1-2.7 0-5.2.8-7.5 2.5s-3.4 3.3-3.4 5v28c.8 2.5 2.3 4.4 4.2 5.6z"/><path fill="#2C2C2C" d="M11.7 822.4c3.4-2.2 10.2-5.2 20.4-9.1v-4.7c0-3.8-.4-6.4-1.1-7.9-1.3-2.5-3.9-3.7-7.8-3.7-1.9 0-3.7.5-5.4 1.4-1.7 1-2.6 2.4-2.6 4.1 0 .4.1 1.2.3 2.3.2 1.1.3 1.7.3 2 0 2.1-.7 3.5-2.1 4.3-.8.5-1.7.7-2.8.7-1.7 0-2.9-.5-3.8-1.6-.9-1.1-1.3-2.3-1.3-3.6 0-2.6 1.6-5.3 4.8-8.2 3.2-2.8 7.9-4.3 14.1-4.3 7.2 0 12.1 2.3 14.6 7 1.4 2.6 2.1 6.3 2.1 11.2v22.3c0 2.2.1 3.6.4 4.5.5 1.4 1.5 2.2 3 2.2.9 0 1.6-.1 2.1-.4.6-.3 1.5-.9 2.9-1.9v2.9c-1.2 1.4-2.5 2.6-3.8 3.6-2.1 1.4-4.2 2.1-6.3 2.1-2.5 0-4.3-.8-5.5-2.4-1.1-1.6-1.8-3.6-1.9-5.8-2.8 2.4-5.2 4.3-7.2 5.5-3.4 2-6.6 3-9.6 3-3.2 0-6-1.1-8.3-3.4-2.3-2.2-3.5-5.1-3.5-8.5-.1-5.5 2.6-10 8-13.6zm20.4-6.2c-4.3 1.4-7.8 3-10.6 4.7-5.3 3.3-8 7-8 11.2 0 3.4 1.1 5.9 3.3 7.5 1.4 1 3.1 1.6 4.8 1.6 2.4 0 4.8-.7 7-2.1 2.2-1.4 3.4-3.1 3.4-5.2v-17.7zM60.6 822.3c-1.9-2.9-2.8-6.1-2.8-9.6 0-4.3 1.7-8.5 5.2-12.4 3.4-3.9 8.3-5.8 14.6-5.8 2.7 0 5.7.6 9 1.9 3.3 1.3 6.4 1.9 9.4 1.9.8 0 2 0 3.5-.1 1.6-.1 2.7-.1 3.4-.1h.7v4.5H94c.7 1.6 1.2 2.9 1.6 4.1.6 2.2.9 4.2.9 6.1 0 4.2-1.8 8.1-5.3 11.7-3.5 3.5-8.2 5.3-14.2 5.3-.9 0-2.6-.2-5-.5-1.1 0-2.5.9-4.3 2.7-1.8 1.8-2.7 3.3-2.7 4.5 0 1.2 1.3 2.1 3.9 2.6 1.7.4 3.6.6 5.7.6 9.5 0 16 .5 19.4 1.6 5.6 1.7 8.4 5.5 8.4 11.2 0 5.9-3.3 10.5-9.8 14-6.5 3.5-13.2 5.2-19.8 5.2-6.1 0-10.9-1.2-14.5-3.7-3.6-2.5-5.3-5.1-5.3-7.8 0-1.3.5-2.6 1.4-3.9.9-1.3 2.8-3.2 5.6-5.7l3.7-3.3.7-.7c-1.7-.7-3-1.3-3.8-1.9-1.5-1.1-2.2-2.5-2.2-4 0-1.4.6-2.9 1.9-4.5 1.3-1.6 4-4.3 8.2-8-3.4-1-6.1-3-7.9-5.9zm5.9 41.4c3.5 1.2 7.5 1.8 12 1.8 6.2 0 11.2-1.1 15-3.2 3.9-2.1 5.8-4.8 5.8-7.9 0-2.5-1.6-4.1-4.7-5-1.9-.5-5.6-.8-11-.8-1.4 0-2.8-.1-4.3-.1-1.5-.1-2.9-.1-4.2-.2-.8 0-2.1-.2-4-.4-1.8-.3-3.2-.5-4.1-.7-.4 0-1.5 1.2-3.3 3.5-1.8 2.4-2.6 4.6-2.6 6.6.1 3.1 1.9 5.2 5.4 6.4zm17.6-38.2c2.2-1.8 3.3-4.9 3.3-9.3 0-3.5-.9-7.5-2.7-11.9-1.8-4.4-4.8-6.6-9-6.6-3.6 0-6.1 1.7-7.5 5.2-.7 1.8-1.1 4.1-1.1 6.7 0 4.5 1.1 8.6 3.3 12.2 2.2 3.6 5 5.4 8.5 5.4 2.1 0 3.9-.6 5.2-1.7zM119.2 822.4c3.4-2.2 10.2-5.2 20.4-9.1v-4.7c0-3.8-.4-6.4-1.1-7.9-1.3-2.5-3.9-3.7-7.8-3.7-1.9 0-3.7.5-5.4 1.4-1.7 1-2.6 2.4-2.6 4.1 0 .4.1 1.2.3 2.3.2 1.1.3 1.7.3 2 0 2.1-.7 3.5-2.1 4.3-.8.5-1.7.7-2.8.7-1.7 0-2.9-.5-3.8-1.6-.9-1.1-1.3-2.3-1.3-3.6 0-2.6 1.6-5.3 4.8-8.2 3.2-2.8 7.9-4.3 14.1-4.3 7.2 0 12.1 2.3 14.6 7 1.4 2.6 2.1 6.3 2.1 11.2v22.3c0 2.2.1 3.6.4 4.5.5 1.4 1.5 2.2 3 2.2.9 0 1.6-.1 2.1-.4.6-.3 1.5-.9 2.9-1.9v2.9c-1.2 1.4-2.5 2.6-3.8 3.6-2.1 1.4-4.2 2.1-6.3 2.1-2.5 0-4.3-.8-5.5-2.4-1.1-1.6-1.8-3.6-1.9-5.8-2.8 2.4-5.2 4.3-7.2 5.5-3.4 2-6.6 3-9.6 3-3.2 0-6-1.1-8.3-3.4-2.3-2.2-3.5-5.1-3.5-8.5 0-5.5 2.7-10 8-13.6zm20.5-6.2c-4.3 1.4-7.8 3-10.6 4.7-5.3 3.3-8 7-8 11.2 0 3.4 1.1 5.9 3.3 7.5 1.4 1 3.1 1.6 4.8 1.6 2.4 0 4.8-.7 7-2.1 2.2-1.4 3.4-3.1 3.4-5.2v-17.7zM159.8 845.4c4-.4 6.5-1 7.5-2s1.6-3.6 1.6-8v-26.5c0-2.4-.2-4.1-.5-5-.6-1.5-1.7-2.3-3.5-2.3-.4 0-.8 0-1.2.1-.4.1-1.5.4-3.4.9v-1.7l2.4-.8c6.5-2.1 11-3.7 13.6-4.8 1-.4 1.7-.7 2-.7.1.3.1.5.1.8v40c0 4.2.5 6.9 1.5 8 1 1.1 3.3 1.8 6.9 2.1v1.6h-27v-1.7zm8.8-74.4c1.1-1.1 2.5-1.7 4.1-1.7 1.6 0 3 .6 4.1 1.7 1.1 1.1 1.7 2.5 1.7 4.1 0 1.6-.6 2.9-1.7 4.1-1.1 1.1-2.5 1.7-4.1 1.7-1.6 0-3-.6-4.1-1.7-1.1-1.1-1.7-2.5-1.7-4.1.1-1.6.6-2.9 1.7-4.1zM191.3 845.4c2.6-.3 4.5-1 5.5-2s1.6-3.2 1.6-6.6v-28.3c0-2.4-.2-4-.7-5-.7-1.4-2.2-2.1-4.3-2.1-.3 0-.7 0-1 .1-.4 0-.8.1-1.3.2v-1.9c1.5-.4 5.1-1.6 10.8-3.4l5.2-1.7c.3 0 .4.1.5.3.1.2.1.4.1.8v8.2c3.4-3.2 6.1-5.4 8-6.6 2.9-1.8 5.9-2.7 9-2.7 2.5 0 4.8.7 6.9 2.2 4 2.8 6 7.8 6 15.1v26c0 2.7.5 4.6 1.6 5.8 1.1 1.2 2.9 1.8 5.4 1.8v1.6h-23.8v-1.6c2.7-.4 4.6-1.1 5.7-2.3 1.1-1.1 1.6-3.6 1.6-7.4V812c0-3.2-.6-5.8-1.8-7.9-1.2-2.1-3.4-3.1-6.5-3.1-2.2 0-4.4.7-6.6 2.2-1.3.9-2.9 2.3-4.9 4.2v31.2c0 2.7.6 4.5 1.8 5.4 1.2.9 3.1 1.4 5.6 1.5v1.6h-24.3v-1.7z"/><path fill="#523972" d="M270.1 856.3c-2.7 3.2-5.6 5.5-8.7 7l-1.1-2.2c3.6-2 6-4.2 7.4-6.5 1.4-2.3 2-4.3 2-5.8 0-.5-.2-.9-.5-1-.3-.1-.7-.2-1.1-.2l-3.7.4c-1.6 0-3-.5-4.3-1.5-1.3-1-1.9-2.5-1.9-4.4 0-1.5.5-2.9 1.6-4.3s2.8-2.1 5.3-2.1c2.3 0 4.4.9 6.3 2.8 1.9 1.8 2.8 4.4 2.8 7.7-.1 3.4-1.4 6.9-4.1 10.1zM303.6 776.2v-1.9c4.2-1 8.1-2 11.4-3.2 3.4-1.2 5.2-1.8 5.5-1.8.1.2.1.4.1.7v33.9c1-1.8 2.4-3.5 4.3-5.1 3.4-2.8 7.3-4.2 11.8-4.2 5.4 0 10.1 2.3 13.9 6.9 3.9 4.6 5.8 10.6 5.8 17.9 0 7.9-2.5 14.6-7.5 20.2s-11.6 8.4-19.8 8.4c-4.1 0-8.2-.8-12.1-2.4-4-1.6-6-3.3-6-4.9v-58.8c0-2.2-.3-3.7-.9-4.6-.6-.9-2-1.4-4.1-1.4l-2.4.3zm21.2 66.8c2.5.8 4.8 1.3 6.7 1.3 5.2 0 9-1.9 11.5-5.8s3.7-8.6 3.7-14.1-1.2-10.6-3.5-15.3c-2.3-4.7-6.1-7-11.3-7-2.6 0-5.2.8-7.7 2.4-2.5 1.6-3.8 3.7-3.8 6.1v28.3c.4 1.8 1.8 3.2 4.4 4.1zM372.4 822.4c3.4-2.2 10.2-5.2 20.4-9.1v-4.7c0-3.8-.4-6.4-1.1-7.9-1.3-2.5-3.9-3.7-7.8-3.7-1.9 0-3.7.5-5.4 1.4-1.7 1-2.6 2.4-2.6 4.1 0 .4.1 1.2.3 2.3.2 1.1.3 1.7.3 2 0 2.1-.7 3.5-2.1 4.3-.8.5-1.7.7-2.8.7-1.7 0-2.9-.5-3.8-1.6-.9-1.1-1.3-2.3-1.3-3.6 0-2.6 1.6-5.3 4.8-8.2 3.2-2.8 7.9-4.3 14.1-4.3 7.2 0 12.1 2.3 14.6 7 1.4 2.6 2.1 6.3 2.1 11.2v22.3c0 2.2.1 3.6.4 4.5.5 1.4 1.5 2.2 3 2.2.9 0 1.6-.1 2.1-.4.6-.3 1.5-.9 2.9-1.9v2.9c-1.2 1.4-2.5 2.6-3.8 3.6-2.1 1.4-4.2 2.1-6.3 2.1-2.5 0-4.3-.8-5.5-2.4-1.1-1.6-1.8-3.6-1.9-5.8-2.8 2.4-5.2 4.3-7.2 5.5-3.4 2-6.6 3-9.6 3-3.2 0-6-1.1-8.3-3.4-2.3-2.2-3.5-5.1-3.5-8.5-.1-5.5 2.6-10 8-13.6zm20.4-6.2c-4.3 1.4-7.8 3-10.6 4.7-5.3 3.3-8 7-8 11.2 0 3.4 1.1 5.9 3.3 7.5 1.4 1 3.1 1.6 4.8 1.6 2.4 0 4.8-.7 7-2.1 2.2-1.4 3.4-3.1 3.4-5.2v-17.7zM411.3 845.1c3.4-.3 5.7-.9 6.8-1.8 1.1-.9 1.7-2.8 1.7-5.8v-25.1c0-3.7-.3-6.3-1-7.9-.7-1.6-1.9-2.4-3.8-2.4-.4 0-.9 0-1.5.1s-1.3.2-1.9.4v-1.8c2.1-.7 4.3-1.5 6.5-2.3 2.2-.8 3.8-1.3 4.6-1.7 1.8-.7 3.8-1.5 5.7-2.4.3 0 .4.1.5.3.1.2.1.6.1 1.2v9.1c2.4-3.3 4.7-5.9 6.9-7.7 2.2-1.9 4.5-2.8 6.9-2.8 1.9 0 3.4.6 4.6 1.7 1.2 1.1 1.8 2.6 1.8 4.3 0 1.5-.5 2.8-1.4 3.8-.9 1-2.1 1.6-3.4 1.6-1.4 0-2.8-.6-4.3-1.9-1.4-1.3-2.6-1.9-3.4-1.9-1.3 0-2.9 1-4.8 3.1s-2.8 4.3-2.8 6.5v25.1c0 3.2.7 5.4 2.2 6.6 1.5 1.2 4 1.8 7.4 1.8v1.8h-27.4v-1.9zM488.5 800.2c3.9 3.6 5.9 8.7 5.9 15.4h-35.3c.4 8.6 2.3 14.8 5.8 18.8 3.5 3.9 7.7 5.9 12.5 5.9 3.9 0 7.2-1 9.8-3.1 2.7-2 5.1-4.9 7.4-8.7l1.9.7c-1.5 4.7-4.4 9.1-8.5 13.1-4.2 4-9.3 6-15.3 6-7 0-12.4-2.6-16.2-7.9-3.8-5.3-5.7-11.3-5.7-18.2 0-7.5 2.2-13.9 6.6-19.3 4.4-5.4 10.2-8.1 17.2-8.1 5.4 0 10 1.8 13.9 5.4zm-26.6 4.3c-1.2 2-2 4.5-2.6 7.6h23.5c-.4-3.7-1.1-6.5-2.1-8.3-1.8-3.3-4.9-4.9-9.1-4.9-4.3 0-7.5 1.8-9.7 5.6zM501.6 845.4c3.4-.3 5.8-1 7-2.1 1.2-1.1 1.8-3.1 1.8-6.2v-54.4c0-2.4-.2-4.1-.6-5.1-.7-1.6-2.2-2.3-4.5-2.3-.5 0-1.1.1-1.7.2-.6.1-1.4.3-2.3.5v-1.8c5-1.3 11-3.1 18.1-5.3.3 0 .4.1.5.3.1.2.1.7.1 1.4v66.7c0 3.2.6 5.3 1.7 6.3 1.1.9 3.4 1.5 6.9 1.8v1.6h-26.9v-1.6zM532.5 795.8H556v1.6c-1.9 0-3.2.2-4.1.5-1.7.5-2.6 1.5-2.6 2.9 0 .5.1 1.1.3 1.6.2.6.5 1.4 1 2.5l12.9 27.8 10.6-28.1c.1-.3.3-1 .5-2.1s.4-1.8.4-2.2c0-1-.3-1.7-1-2.2-.7-.5-1.5-.7-2.6-.8l-1.7-.1v-1.6H585v1.6c-1.5.2-2.7.7-3.4 1.6-.8.9-1.4 2.1-2 3.7L562 849.1c-3 8-6 13.8-8.7 17.4-2.8 3.6-6.3 5.4-10.6 5.4-2.1 0-4-.5-5.8-1.6-1.8-1-2.7-2.7-2.7-5 0-1.5.5-2.7 1.6-3.6 1.1-.9 2.4-1.4 4.1-1.4 1 0 2.4.4 4.3 1.1 1.9.7 3.2 1.1 4 1.1 2.1 0 4.2-2.5 6.5-7.6 2.3-5 3.4-8.4 3.4-10 0-.3-.1-.7-.2-1.2s-.2-.9-.4-1.3L540 804.5c-1.3-2.7-2.4-4.6-3.3-5.4-.9-.9-2.3-1.4-4.2-1.7v-1.6zM634 795.5v35.6c0 2.5.4 4.5 1.1 6.1 1.4 2.8 3.9 4.2 7.6 4.2 2.5 0 5-.8 7.4-2.5 1.4-.9 2.8-2.2 4.2-3.8v-30.5c0-2.9-.6-4.7-1.7-5.6-1.1-.9-3.3-1.4-6.7-1.6v-1.8h18v39.2c0 2.5.5 4.3 1.4 5.2.9.9 2.8 1.4 5.8 1.3v1.6c-2 .6-3.5 1-4.5 1.3-1 .3-2.6.8-4.8 1.5-1 .3-3.1 1.1-6.3 2.4-.2 0-.3-.1-.3-.2 0-.2-.1-.4-.1-.6v-9c-2.5 3-4.8 5.2-6.9 6.7-3.2 2.2-6.5 3.3-10 3.3-3.2 0-6.3-1.2-9.1-3.5-2.9-2.3-4.3-6.1-4.3-11.4v-28.9c0-2.9-.6-4.9-1.9-5.9-.8-.6-2.6-1.1-5.2-1.3v-1.6H634zM675.4 845.4c2.6-.3 4.5-1 5.5-2 1.1-1 1.6-3.2 1.6-6.6v-28.3c0-2.4-.2-4-.7-5-.7-1.4-2.2-2.1-4.3-2.1-.3 0-.7 0-1 .1-.4 0-.8.1-1.3.2v-1.9c1.5-.4 5.1-1.6 10.8-3.4l5.2-1.7c.3 0 .4.1.5.3.1.2.1.4.1.8v8.2c3.4-3.2 6.1-5.4 8-6.6 2.9-1.8 5.9-2.7 9-2.7 2.5 0 4.8.7 6.9 2.2 4 2.8 6 7.8 6 15.1v26c0 2.7.5 4.6 1.6 5.8 1.1 1.2 2.9 1.8 5.4 1.8v1.6h-23.8v-1.6c2.7-.4 4.6-1.1 5.7-2.3 1.1-1.1 1.6-3.6 1.6-7.4V812c0-3.2-.6-5.8-1.8-7.9-1.2-2.1-3.4-3.1-6.5-3.1-2.2 0-4.4.7-6.6 2.2-1.3.9-2.9 2.3-4.9 4.2v31.2c0 2.7.6 4.5 1.8 5.4 1.2.9 3.1 1.4 5.6 1.5v1.6h-24.3v-1.7zM764.8 796.2c1.5.8 2.9 1.9 4.3 3.2v-17.7c0-2.3-.2-3.8-.8-4.7-.5-.9-1.7-1.3-3.6-1.3-.4 0-.8 0-1.2.1s-1.1.1-2.2.2v-1.8l4.6-1.2c1.7-.4 3.3-.9 5-1.4 1.7-.5 3.1-.9 4.4-1.4.6-.2 1.6-.5 2.9-1.1l.3.1-.1 5.8c0 2.1-.1 4.3-.1 6.5s-.1 4.5-.1 6.6l-.1 45.5c0 2.4.3 4.1.9 5.1.6 1 2.2 1.4 4.7 1.4h1.2c.4 0 .8-.1 1.2-.1v1.8c-.2.1-2.9 1-8.1 2.8l-8.7 3.3-.4-.5v-6.8c-2.1 2.3-3.9 3.9-5.4 4.8-2.7 1.7-5.8 2.5-9.4 2.5-6.3 0-11.4-2.4-15.3-7.3-3.9-4.9-5.9-10.5-5.9-16.9 0-8 2.3-15 7-20.7 4.7-5.8 10.4-8.7 17.2-8.7 3 .1 5.4.7 7.7 1.9zm1.6 43.3c1.8-1.7 2.7-3.3 2.7-4.8v-23.9c0-4.8-1.3-8.2-3.9-10.2-2.6-2-5.1-3-7.5-3-4.7 0-8.3 2.1-10.9 6.2-2.6 4.1-3.9 9.2-3.9 15.3 0 6 1.4 11.3 4.1 16 2.8 4.7 6.9 7 12.4 7 2.9-.1 5.2-.9 7-2.6zM827.2 800.2c3.9 3.6 5.9 8.7 5.9 15.4h-35.3c.4 8.6 2.3 14.8 5.8 18.8 3.5 3.9 7.7 5.9 12.5 5.9 3.9 0 7.2-1 9.8-3.1 2.7-2 5.1-4.9 7.4-8.7l1.9.7c-1.5 4.7-4.4 9.1-8.5 13.1-4.2 4-9.3 6-15.3 6-7 0-12.4-2.6-16.2-7.9-3.8-5.3-5.7-11.3-5.7-18.2 0-7.5 2.2-13.9 6.6-19.3 4.4-5.4 10.2-8.1 17.2-8.1 5.4 0 9.9 1.8 13.9 5.4zm-26.7 4.3c-1.2 2-2 4.5-2.6 7.6h23.5c-.4-3.7-1.1-6.5-2.1-8.3-1.8-3.3-4.9-4.9-9.1-4.9-4.2 0-7.4 1.8-9.7 5.6zM838.4 845.1c3.4-.3 5.7-.9 6.8-1.8 1.1-.9 1.7-2.8 1.7-5.8v-25.1c0-3.7-.3-6.3-1-7.9-.7-1.6-1.9-2.4-3.8-2.4-.4 0-.9 0-1.5.1s-1.3.2-1.9.4v-1.8c2.1-.7 4.3-1.5 6.5-2.3s3.8-1.3 4.6-1.7c1.8-.7 3.8-1.5 5.7-2.4.3 0 .4.1.5.3.1.2.1.6.1 1.2v9.1c2.4-3.3 4.7-5.9 6.9-7.7 2.2-1.9 4.5-2.8 6.9-2.8 1.9 0 3.4.6 4.6 1.7 1.2 1.1 1.8 2.6 1.8 4.3 0 1.5-.5 2.8-1.4 3.8-.9 1-2.1 1.6-3.4 1.6-1.4 0-2.8-.6-4.3-1.9-1.4-1.3-2.6-1.9-3.4-1.9-1.3 0-2.9 1-4.8 3.1s-2.8 4.3-2.8 6.5v25.1c0 3.2.7 5.4 2.2 6.6 1.5 1.2 4 1.8 7.4 1.8v1.8h-27.4v-1.9zM886.4 822.3c-1.9-2.9-2.8-6.1-2.8-9.6 0-4.3 1.7-8.5 5.2-12.4 3.4-3.9 8.3-5.8 14.6-5.8 2.7 0 5.7.6 9 1.9 3.3 1.3 6.4 1.9 9.4 1.9.8 0 2 0 3.5-.1 1.6-.1 2.7-.1 3.4-.1h.7v4.5h-9.6c.7 1.6 1.2 2.9 1.6 4.1.6 2.2.9 4.2.9 6.1 0 4.2-1.8 8.1-5.3 11.7-3.5 3.5-8.2 5.3-14.2 5.3-.9 0-2.6-.2-5-.5-1.1 0-2.5.9-4.3 2.7-1.8 1.8-2.7 3.3-2.7 4.5 0 1.2 1.3 2.1 3.9 2.6 1.7.4 3.6.6 5.7.6 9.5 0 16 .5 19.4 1.6 5.6 1.7 8.4 5.5 8.4 11.2 0 5.9-3.3 10.5-9.8 14-6.5 3.5-13.2 5.2-19.8 5.2-6.1 0-10.9-1.2-14.5-3.7-3.6-2.5-5.3-5.1-5.3-7.8 0-1.3.5-2.6 1.4-3.9.9-1.3 2.8-3.2 5.6-5.7l3.7-3.3.7-.7c-1.7-.7-3-1.3-3.8-1.9-1.5-1.1-2.2-2.5-2.2-4 0-1.4.6-2.9 1.9-4.5 1.3-1.6 4-4.3 8.2-8-3.4-1-6-3-7.9-5.9zm5.9 41.4c3.5 1.2 7.5 1.8 12 1.8 6.2 0 11.2-1.1 15-3.2s5.8-4.8 5.8-7.9c0-2.5-1.6-4.1-4.7-5-1.9-.5-5.6-.8-11-.8-1.4 0-2.8-.1-4.3-.1-1.5-.1-2.9-.1-4.2-.2-.8 0-2.1-.2-4-.4-1.8-.3-3.2-.5-4.1-.7-.4 0-1.5 1.2-3.3 3.5-1.8 2.4-2.6 4.6-2.6 6.6.1 3.1 1.9 5.2 5.4 6.4zm17.7-38.2c2.2-1.8 3.3-4.9 3.3-9.3 0-3.5-.9-7.5-2.7-11.9-1.8-4.4-4.8-6.6-9-6.6-3.6 0-6.1 1.7-7.5 5.2-.7 1.8-1.1 4.1-1.1 6.7 0 4.5 1.1 8.6 3.3 12.2 2.2 3.6 5 5.4 8.5 5.4 2.1 0 3.8-.6 5.2-1.7zM942.8 802.4c4.7-5.1 10.7-7.7 18.1-7.7 7.3 0 13.4 2.4 18.3 7.2 4.8 4.8 7.2 11.2 7.2 19.3 0 7.4-2.3 13.8-7 19.3s-10.7 8.2-18.1 8.2c-7.1 0-13.2-2.6-18.1-7.8-4.9-5.2-7.4-11.8-7.4-19.7-.1-7.4 2.3-13.7 7-18.8zm8.9-1.4c-3.7 3.4-5.6 9.2-5.6 17.5 0 6.6 1.5 12.8 4.5 18.5 3 5.7 7.1 8.6 12.5 8.6 4.2 0 7.4-1.9 9.6-5.7 2.2-3.8 3.4-8.8 3.4-15 0-6.4-1.4-12.5-4.3-18.1-2.9-5.7-7-8.5-12.4-8.5-3-.2-5.6.8-7.7 2.7z"/><path fill="#2C2C2C" d="M1.3 973.7c2.9-.3 4.8-.7 5.8-1.4 1.5-1.1 2.2-3.2 2.2-6.5V937c0-2.7-.4-4.5-1.1-5.4-.7-.9-1.9-1.3-3.6-1.3-.8 0-1.4 0-1.8.1-.4.1-.8.2-1.4.4v-1.9l4-1.3c1.4-.5 3.8-1.4 7.1-2.6 3.3-1.3 5-1.9 5.2-1.9.2 0 .3.1.3.3 0 .2.1.5.1 1.1v7.5c3.7-3.3 6.8-5.6 9.5-6.9 2.7-1.3 5.4-1.9 8.2-1.9 3.8 0 6.9 1.3 9.1 3.9 1.2 1.4 2.2 3.3 2.9 5.7 2.7-2.8 5.1-4.8 7.2-6.2 3.5-2.3 7.1-3.4 10.8-3.4 6 0 10 2.4 12 7.3 1.1 2.7 1.7 7.1 1.7 13v23.1c0 2.6.6 4.4 1.8 5.4 1.2.9 3.3 1.6 6.3 1.9v1.4H62.7v-1.6c3.2-.3 5.4-.9 6.4-1.9 1-1 1.5-3 1.5-6.1v-24c0-3.6-.4-6.3-1.2-8-1.4-3-4.1-4.6-8.1-4.6-2.4 0-4.8.8-7.2 2.4-1.4.9-3.1 2.4-5.1 4.5v28.5c0 3 .5 5.3 1.6 6.8 1.1 1.6 3.3 2.4 6.7 2.5v1.4H31.9v-1.4c3.5-.4 5.8-1.3 6.7-2.6 1-1.3 1.4-4.4 1.4-9.3v-15.5c0-5.7-.4-9.6-1.1-11.8-1.2-3.6-3.8-5.5-7.8-5.5-2.3 0-4.5.6-6.7 1.9-2.2 1.2-4.1 2.9-5.8 4.9v30.4c0 2.8.5 4.8 1.5 5.8 1 1.1 3.1 1.6 6.4 1.7v1.4H1.3v-1.5zM127.9 928.4c3.9 3.6 5.9 8.7 5.9 15.4H98.5c.4 8.6 2.3 14.8 5.8 18.8 3.5 3.9 7.7 5.9 12.5 5.9 3.9 0 7.2-1 9.8-3.1 2.7-2 5.1-4.9 7.4-8.7l1.9.7c-1.5 4.7-4.4 9.1-8.5 13.1-4.2 4-9.3 6-15.3 6-7 0-12.4-2.6-16.2-7.9-3.8-5.3-5.7-11.3-5.7-18.2 0-7.5 2.2-13.9 6.6-19.3 4.4-5.4 10.2-8.1 17.2-8.1 5.4 0 10 1.8 13.9 5.4zm-26.6 4.3c-1.2 2-2 4.5-2.6 7.6h23.5c-.4-3.7-1.1-6.5-2.1-8.3-1.8-3.3-4.9-4.9-9.1-4.9-4.3 0-7.5 1.8-9.7 5.6zM167.6 923.9v4h-11.4l-.1 32c0 2.8.2 5 .7 6.4.9 2.6 2.6 3.8 5.2 3.8 1.3 0 2.5-.3 3.5-.9 1-.6 2.1-1.6 3.4-3l1.4 1.2-1.2 1.7c-1.9 2.6-4 4.4-6.1 5.5-2.2 1.1-4.2 1.6-6.2 1.6-4.4 0-7.3-1.9-8.9-5.8-.9-2.1-1.3-5-1.3-8.8v-33.7h-6.1c-.2-.1-.3-.2-.4-.3-.1-.1-.1-.3-.1-.4 0-.4.1-.7.3-.9.2-.2.7-.7 1.6-1.4 2.6-2.1 4.4-3.8 5.5-5.1 1.1-1.3 3.8-4.8 8-10.4.5 0 .8 0 .9.1.1.1.1.4.1.8V924h11.2zM182.6 950.6c3.4-2.2 10.2-5.2 20.4-9.1v-4.7c0-3.8-.4-6.4-1.1-7.9-1.3-2.5-3.9-3.7-7.8-3.7-1.9 0-3.7.5-5.4 1.4-1.7 1-2.6 2.4-2.6 4.1 0 .4.1 1.2.3 2.3.2 1.1.3 1.7.3 2 0 2.1-.7 3.5-2.1 4.3-.8.5-1.7.7-2.8.7-1.7 0-2.9-.5-3.8-1.6-.9-1.1-1.3-2.3-1.3-3.6 0-2.6 1.6-5.3 4.8-8.2 3.2-2.8 7.9-4.3 14.1-4.3 7.2 0 12.1 2.3 14.6 7 1.4 2.6 2.1 6.3 2.1 11.2v22.3c0 2.2.1 3.6.4 4.5.5 1.4 1.5 2.2 3 2.2.9 0 1.6-.1 2.1-.4.6-.3 1.5-.9 2.9-1.9v2.9c-1.2 1.4-2.5 2.6-3.8 3.6-2.1 1.4-4.2 2.1-6.3 2.1-2.5 0-4.3-.8-5.5-2.4-1.1-1.6-1.8-3.6-1.9-5.8-2.8 2.4-5.2 4.3-7.2 5.5-3.4 2-6.6 3-9.6 3-3.2 0-6-1.1-8.3-3.4-2.3-2.2-3.5-5.1-3.5-8.5-.1-5.5 2.6-10 8-13.6zm20.4-6.2c-4.3 1.4-7.8 3-10.6 4.7-5.3 3.3-8 7-8 11.2 0 3.4 1.1 5.9 3.3 7.5 1.4 1 3.1 1.6 4.8 1.6 2.4 0 4.8-.7 7-2.1 2.2-1.4 3.4-3.1 3.4-5.2v-17.7zM222.7 973.7c2.9-.3 4.8-.7 5.8-1.4 1.5-1.1 2.2-3.2 2.2-6.5V937c0-2.7-.4-4.5-1.1-5.4-.7-.9-1.9-1.3-3.6-1.3-.8 0-1.4 0-1.8.1-.4.1-.8.2-1.4.4v-1.9l4-1.3c1.4-.5 3.8-1.4 7.1-2.6 3.3-1.3 5-1.9 5.2-1.9.2 0 .3.1.3.3 0 .2.1.5.1 1.1v7.5c3.7-3.3 6.8-5.6 9.5-6.9 2.7-1.3 5.4-1.9 8.2-1.9 3.8 0 6.9 1.3 9.1 3.9 1.2 1.4 2.2 3.3 2.9 5.7 2.7-2.8 5.1-4.8 7.2-6.2 3.5-2.3 7.1-3.4 10.8-3.4 6 0 10 2.4 12 7.3 1.1 2.7 1.7 7.1 1.7 13v23.1c0 2.6.6 4.4 1.8 5.4 1.2.9 3.3 1.6 6.3 1.9v1.4h-25.1v-1.6c3.2-.3 5.4-.9 6.4-1.9 1-1 1.5-3 1.5-6.1v-24c0-3.6-.4-6.3-1.2-8-1.4-3-4.1-4.6-8.1-4.6-2.4 0-4.8.8-7.2 2.4-1.4.9-3.1 2.4-5.1 4.5v28.5c0 3 .5 5.3 1.6 6.8s3.3 2.4 6.7 2.5v1.4H253v-1.4c3.5-.4 5.8-1.3 6.7-2.6 1-1.3 1.4-4.4 1.4-9.3v-15.5c0-5.7-.4-9.6-1.1-11.8-1.2-3.6-3.8-5.5-7.8-5.5-2.3 0-4.5.6-6.7 1.9-2.2 1.2-4.1 2.9-5.8 4.9v30.4c0 2.8.5 4.8 1.5 5.8 1 1.1 3.1 1.6 6.4 1.7v1.4h-25.3v-1.5zM319.5 930.6c4.7-5.1 10.7-7.7 18.1-7.7 7.3 0 13.4 2.4 18.3 7.2 4.8 4.8 7.2 11.2 7.2 19.3 0 7.4-2.3 13.8-7 19.3s-10.7 8.2-18.1 8.2c-7.1 0-13.2-2.6-18.1-7.8-4.9-5.2-7.4-11.8-7.4-19.7-.1-7.4 2.3-13.7 7-18.8zm8.9-1.4c-3.7 3.4-5.6 9.2-5.6 17.5 0 6.6 1.5 12.8 4.5 18.5 3 5.7 7.1 8.6 12.5 8.6 4.2 0 7.4-1.9 9.6-5.7 2.2-3.8 3.4-8.8 3.4-15 0-6.4-1.4-12.5-4.3-18.1-2.9-5.7-7-8.5-12.4-8.5-3-.2-5.6.8-7.7 2.7zM367 973.3c3.4-.3 5.7-.9 6.8-1.8 1.1-.9 1.7-2.8 1.7-5.8v-25.1c0-3.7-.3-6.3-1-7.9-.7-1.6-1.9-2.4-3.8-2.4-.4 0-.9 0-1.5.1s-1.3.2-1.9.4V929c2.1-.7 4.3-1.5 6.5-2.3 2.2-.8 3.8-1.3 4.6-1.7 1.8-.7 3.8-1.5 5.7-2.4.3 0 .4.1.5.3.1.2.1.6.1 1.2v9.1c2.4-3.3 4.7-5.9 6.9-7.7 2.2-1.9 4.5-2.8 6.9-2.8 1.9 0 3.4.6 4.6 1.7s1.8 2.6 1.8 4.3c0 1.5-.5 2.8-1.4 3.8-.9 1-2.1 1.6-3.4 1.6-1.4 0-2.8-.6-4.3-1.9-1.4-1.3-2.6-1.9-3.4-1.9-1.3 0-2.9 1-4.8 3.1s-2.8 4.3-2.8 6.5V965c0 3.2.7 5.4 2.2 6.6 1.5 1.2 4 1.8 7.4 1.8v1.8H367v-1.9zM405 998.2c3.5-.2 5.7-1 6.6-2.2.9-1.3 1.4-3.2 1.4-6v-53.4c0-2.8-.3-4.6-1-5.4-.7-.8-2-1.2-3.9-1.2-.4 0-.8 0-1.1.1-.4 0-.9.1-1.5.2v-1.8l5.3-1.7c.2 0 3.9-1.3 11.2-3.8.2 0 .3.1.4.2.1.2.1.4.1.6v7.5c2.4-2.4 4.6-4.3 6.5-5.5 3.3-2.1 6.8-3.1 10.3-3.1 5.1 0 9.5 2.2 13.2 6.5 3.7 4.4 5.5 10.3 5.5 17.9 0 7.4-2.2 14.1-6.6 20.2-4.4 6-10 9.1-16.7 9.1-2.1 0-3.9-.3-5.4-.8-2.4-.8-4.6-2.2-6.6-4.3v18.2c0 3.7.6 6 1.8 6.9 1.2.9 3.9 1.4 8 1.7v1.9H405v-1.8zm22-27.7c1.9 1.2 4.2 1.9 6.8 1.9 4 0 7.4-2 10.3-6 2.8-4 4.3-9.5 4.3-16.6 0-6.8-1.5-11.9-4.4-15.3-2.9-3.4-6.4-5.1-10.3-5.1-2.7 0-5.2.8-7.5 2.5s-3.4 3.3-3.4 5v28c.8 2.5 2.3 4.4 4.2 5.6zM462.4 973.6c3-.4 5-1.2 6-2.3.9-1.1 1.4-3.7 1.4-7.8v-53.4c0-2.1-.3-3.6-.8-4.6-.5-1-1.8-1.5-3.9-1.5-.4 0-.8 0-1.2.1-.4.1-.8.1-1.3.2v-2c1.6-.5 3.6-1.1 6-1.8s4.1-1.2 5-1.5l5.3-1.7.1.4v34.2c2.3-2.7 4.4-4.6 6.2-5.9 3.3-2.2 6.8-3.3 10.6-3.3 6 0 10.1 2.5 12.3 7.6 1.2 2.7 1.8 6.2 1.8 10.5v22.7c0 3.9.5 6.5 1.4 7.7.9 1.2 2.8 2 5.6 2.3v1.6h-24.1v-1.6c3.2-.4 5.3-1.2 6.2-2.3.9-1.1 1.4-3.7 1.4-7.7V941c0-3.6-.6-6.5-1.8-8.7-1.2-2.2-3.5-3.3-6.8-3.3-2.9 0-5.7 1-8.4 3.1s-4.1 3.4-4.1 4.1v27.4c0 4.2.5 6.8 1.4 7.8 1 1 3 1.8 6.2 2.2v1.6h-24.5v-1.6zM528.3 930.6c4.7-5.1 10.7-7.7 18.1-7.7 7.3 0 13.4 2.4 18.3 7.2 4.8 4.8 7.2 11.2 7.2 19.3 0 7.4-2.3 13.8-7 19.3s-10.7 8.2-18.1 8.2c-7.1 0-13.2-2.6-18.1-7.8-4.9-5.2-7.4-11.8-7.4-19.7 0-7.4 2.4-13.7 7-18.8zm8.9-1.4c-3.7 3.4-5.6 9.2-5.6 17.5 0 6.6 1.5 12.8 4.5 18.5 3 5.7 7.1 8.6 12.5 8.6 4.2 0 7.4-1.9 9.6-5.7 2.2-3.8 3.4-8.8 3.4-15 0-6.4-1.4-12.5-4.3-18.1-2.9-5.7-7-8.5-12.4-8.5-3-.2-5.5.8-7.7 2.7zM581.3 957.7h1.8c.9 4.2 2 7.5 3.4 9.7 2.6 4.2 6.4 6.2 11.4 6.2 2.8 0 5-.8 6.6-2.3 1.6-1.5 2.4-3.5 2.4-6 0-1.6-.5-3.1-1.4-4.5-.9-1.4-2.6-2.9-4.9-4.2l-6.2-3.6c-4.6-2.4-7.9-4.9-10.1-7.4-2.2-2.5-3.2-5.4-3.2-8.8 0-4.2 1.5-7.6 4.5-10.2 3-2.7 6.7-4 11.2-4 2 0 4.1.4 6.5 1.1 2.4.7 3.7 1.1 4 1.1.7 0 1.1-.1 1.4-.3.3-.2.6-.5.8-.9h1.3l.4 15.5h-1.7c-.7-3.6-1.7-6.4-3-8.4-2.3-3.7-5.6-5.6-10-5.6-2.6 0-4.6.8-6.1 2.4-1.5 1.6-2.2 3.5-2.2 5.6 0 3.4 2.6 6.5 7.7 9.1l7.3 4c7.9 4.3 11.9 9.3 11.9 15 0 4.4-1.6 8-4.9 10.7-3.3 2.8-7.6 4.2-12.9 4.2-2.2 0-4.7-.4-7.6-1.1-2.8-.7-4.5-1.1-5-1.1-.4 0-.8.2-1.2.5-.3.3-.6.7-.8 1.1h-1.4v-17.8zM622 973.6c4-.4 6.5-1 7.5-2s1.6-3.6 1.6-8v-26.5c0-2.4-.2-4.1-.5-5-.6-1.5-1.7-2.3-3.5-2.3-.4 0-.8 0-1.2.1-.4.1-1.5.4-3.4.9v-1.7l2.4-.8c6.5-2.1 11-3.7 13.6-4.8 1-.4 1.7-.7 2-.7.1.3.1.5.1.8v40c0 4.2.5 6.9 1.5 8 1 1.1 3.3 1.8 6.9 2.1v1.6h-27v-1.7zm8.8-74.4c1.1-1.1 2.5-1.7 4.1-1.7 1.6 0 3 .6 4.1 1.7 1.1 1.1 1.7 2.5 1.7 4.1 0 1.6-.6 2.9-1.7 4.1-1.1 1.1-2.5 1.7-4.1 1.7-1.6 0-3-.6-4.1-1.7-1.1-1.1-1.7-2.5-1.7-4.1 0-1.6.6-2.9 1.7-4.1zM657.4 957.7h1.8c.9 4.2 2 7.5 3.4 9.7 2.6 4.2 6.4 6.2 11.4 6.2 2.8 0 5-.8 6.6-2.3 1.6-1.5 2.4-3.5 2.4-6 0-1.6-.5-3.1-1.4-4.5-.9-1.4-2.6-2.9-4.9-4.2l-6.2-3.6c-4.6-2.4-7.9-4.9-10.1-7.4-2.2-2.5-3.2-5.4-3.2-8.8 0-4.2 1.5-7.6 4.5-10.2s6.7-4 11.2-4c2 0 4.1.4 6.5 1.1 2.4.7 3.7 1.1 4 1.1.7 0 1.1-.1 1.4-.3.3-.2.6-.5.8-.9h1.3l.4 15.5h-1.7c-.7-3.6-1.7-6.4-3-8.4-2.3-3.7-5.6-5.6-10-5.6-2.6 0-4.6.8-6.1 2.4-1.5 1.6-2.2 3.5-2.2 5.6 0 3.4 2.6 6.5 7.7 9.1l7.3 4c7.9 4.3 11.9 9.3 11.9 15 0 4.4-1.6 8-4.9 10.7s-7.6 4.2-12.9 4.2c-2.2 0-4.7-.4-7.6-1.1-2.8-.7-4.5-1.1-5-1.1-.4 0-.8.2-1.2.5-.3.3-.6.7-.8 1.1h-1.4v-17.8zM709.8 974.7c-1.2-1.2-1.8-2.7-1.8-4.5 0-1.7.6-3.2 1.9-4.5 1.2-1.2 2.7-1.8 4.5-1.8 1.7 0 3.2.6 4.5 1.8 1.2 1.2 1.8 2.7 1.8 4.5 0 1.7-.6 3.2-1.8 4.5s-2.7 1.9-4.5 1.9c-1.8-.1-3.4-.7-4.6-1.9z"/><path fill="#147792" d="M755 899.8h64.4l.6 19.4h-2.7c-1.3-6.1-3-10-5.1-11.9-2.1-1.8-6.4-2.8-13-2.8h-6.3v58.3c0 4.4.7 7.1 2.1 8.2 1.4 1.1 4.4 1.7 9 2.1v2.1h-33.2v-2.1c4.8-.4 7.8-1.2 9-2.4 1.2-1.2 1.8-4.3 1.8-9.2v-57h-6.4c-6.3 0-10.6.9-12.9 2.7-2.3 1.8-4 5.8-5.1 11.9h-2.8l.6-19.3zM823.3 973.6c3-.4 5-1.2 6-2.3.9-1.1 1.4-3.7 1.4-7.8v-53.4c0-2.1-.3-3.6-.8-4.6-.5-1-1.8-1.5-3.9-1.5-.4 0-.8 0-1.2.1-.4.1-.8.1-1.3.2v-2c1.6-.5 3.6-1.1 6-1.8s4.1-1.2 5-1.5l5.3-1.7.1.4v34.2c2.3-2.7 4.4-4.6 6.2-5.9 3.3-2.2 6.8-3.3 10.6-3.3 6 0 10.1 2.5 12.3 7.6 1.2 2.7 1.8 6.2 1.8 10.5v22.7c0 3.9.5 6.5 1.4 7.7.9 1.2 2.8 2 5.6 2.3v1.6h-24.1v-1.6c3.2-.4 5.3-1.2 6.2-2.3.9-1.1 1.4-3.7 1.4-7.7V941c0-3.6-.6-6.5-1.8-8.7-1.2-2.2-3.5-3.3-6.8-3.3-2.9 0-5.7 1-8.4 3.1s-4.1 3.4-4.1 4.1v27.4c0 4.2.5 6.8 1.4 7.8 1 1 3 1.8 6.2 2.2v1.6h-24.5v-1.6zM919.2 928.4c3.9 3.6 5.9 8.7 5.9 15.4h-35.3c.4 8.6 2.3 14.8 5.8 18.8 3.5 3.9 7.7 5.9 12.5 5.9 3.9 0 7.2-1 9.8-3.1 2.7-2 5.1-4.9 7.4-8.7l1.9.7c-1.5 4.7-4.4 9.1-8.5 13.1-4.2 4-9.3 6-15.3 6-7 0-12.4-2.6-16.2-7.9-3.8-5.3-5.7-11.3-5.7-18.2 0-7.5 2.2-13.9 6.6-19.3 4.4-5.4 10.2-8.1 17.2-8.1 5.3 0 9.9 1.8 13.9 5.4zm-26.7 4.3c-1.2 2-2 4.5-2.6 7.6h23.5c-.4-3.7-1.1-6.5-2.1-8.3-1.8-3.3-4.9-4.9-9.1-4.9-4.2 0-7.5 1.8-9.7 5.6z"/><path fill="#523972" d="M960.7 973.6c3.4-.3 5.8-1 7-2.1 1.2-1.1 1.8-3.1 1.8-6.2V911c0-2.4-.2-4.1-.6-5.1-.7-1.6-2.2-2.3-4.5-2.3-.5 0-1.1.1-1.7.2-.6.1-1.4.3-2.3.5v-1.8c5-1.3 11-3.1 18.1-5.3.3 0 .4.1.5.3.1.2.1.7.1 1.4v66.7c0 3.2.6 5.3 1.7 6.3 1.1.9 3.4 1.5 6.9 1.8v1.6h-26.9v-1.7zM1002.3 950.6c3.4-2.2 10.2-5.2 20.4-9.1v-4.7c0-3.8-.4-6.4-1.1-7.9-1.3-2.5-3.9-3.7-7.8-3.7-1.9 0-3.7.5-5.4 1.4-1.7 1-2.6 2.4-2.6 4.1 0 .4.1 1.2.3 2.3.2 1.1.3 1.7.3 2 0 2.1-.7 3.5-2.1 4.3-.8.5-1.7.7-2.8.7-1.7 0-2.9-.5-3.8-1.6-.9-1.1-1.3-2.3-1.3-3.6 0-2.6 1.6-5.3 4.8-8.2 3.2-2.8 7.9-4.3 14.1-4.3 7.2 0 12.1 2.3 14.6 7 1.4 2.6 2.1 6.3 2.1 11.2v22.3c0 2.2.1 3.6.4 4.5.5 1.4 1.5 2.2 3 2.2.9 0 1.6-.1 2.1-.4.6-.3 1.5-.9 2.9-1.9v2.9c-1.2 1.4-2.5 2.6-3.8 3.6-2.1 1.4-4.2 2.1-6.3 2.1-2.5 0-4.3-.8-5.5-2.4-1.1-1.6-1.8-3.6-1.9-5.8-2.8 2.4-5.2 4.3-7.2 5.5-3.4 2-6.6 3-9.6 3-3.2 0-6-1.1-8.3-3.4-2.3-2.2-3.5-5.1-3.5-8.5-.1-5.5 2.6-10 8-13.6zm20.4-6.2c-4.3 1.4-7.8 3-10.6 4.7-5.3 3.3-8 7-8 11.2 0 3.4 1.1 5.9 3.3 7.5 1.4 1 3.1 1.6 4.8 1.6 2.4 0 4.8-.7 7-2.1 2.2-1.4 3.4-3.1 3.4-5.2v-17.7z"/></svg>