<svg xmlns="http://www.w3.org/2000/svg" viewBox="0 0 1000 1000"><path d="M21.5 23.8c5.2 0 13.6 2.1 13.6 6.5 0 1.6-1.2 3.1-3.3 3.1-4.4 0-4.9-6.7-10.9-6.7-6.9 0-10.7 7.4-10.7 15.7 0 8.2 4 16.3 14.2 16.3 6.4 0 10-3.5 10-3.5l.9 1.8s-3.9 7.5-13.9 7.5c-12 0-18.2-9.7-18.2-19.6 0-10.4 6.5-21.1 18.3-21.1zM61.2 23.8c12.5 0 19 8.2 19 18.8 0 10.6-6.6 21.9-20.3 21.9C47.7 64.5 41 56 41 45c0-10.1 5.6-21.2 20.2-21.2zM61 61.5c7.3 0 11.2-7.4 11.2-16.6 0-8.5-3.4-18.3-12.1-18.3-7.9 0-11.2 8.1-11.2 16.3 0 8.7 3.5 18.6 12.1 18.6zM86.7 61.2c3.9-.4 5.3-2.5 5.3-5.6V34.8c0-3.7-.1-5.8-2.6-5.8h-3.9v-2.3c8.4-1.7 13.9-4 13.9-4l.3.3s-.8 2.8-1 10.9c2.6-4.8 7.1-10 11.6-10 2.1 0 4.6 1 4.6 3.9 0 2.6-1.8 4.2-4 4.2-2 0-2.2-1.5-4.2-1.5-2.9 0-5.8 2.8-7.6 5v20.2c0 2.6-.4 4.6-.4 4.6l8.2.8-.3 2.1-19.7.5v-2.5zM118.9 61.2c3.9-.4 5.3-2.5 5.3-5.6V34.8c0-3.7-.1-5.8-2.6-5.8h-3.9v-2.3c8.4-1.7 13.7-4 13.7-4l.3.3s-.8 2.8-.9 10.5c3.1-4.6 9.1-9.5 16.3-9.5 5.9 0 9.8 3.3 9.8 11.6v20.3c0 2.6-.4 4.5-.4 4.5l7.3.9-.3 2.1-18.5.5v-2.5c3.9-.4 4.9-2.5 4.9-5.6V37.2c0-6.5-2.5-8.2-5.9-8.2-3.9 0-9.2 2.3-12.8 6v20.6c0 2.6-.4 4.5-.4 4.5l6.9.9-.3 2.1-18.5.5v-2.4zM192.5 61.2c3.9-.4 5.3-2.5 5.3-5.6V12c0-1.1 0-2.1-.1-2.8-3.2-.7-5.4-4.3-10.2-4.3-4.9 0-7.3 4.1-7.3 15.2v4.7H191l-.7 4.1H181l-.9.9v25.8c0 2.6-.4 4.6-.4 4.6l6.9.8-.3 2.1-18.5.5v-2.5c3.9-.4 5.3-2.5 5.3-5.6V29.2h-5.4v-2.6l5.4-1.9v-2.3c0-12.8 6.7-21.5 18.4-21.5 2.4 0 5.1.3 7.3 1.2 4.6-1.2 6.6-2.1 6.6-2.1l.3.3s-.9 3.2-.9 9.8v45.6c0 2.6-.4 4.6-.4 4.6l7.3.8-.3 2.1-18.9.5v-2.5zM236.2 23.8c12.5 0 19 8.2 19 18.8 0 10.6-6.6 21.9-20.3 21.9C222.7 64.5 216 56 216 45c0-10.1 5.6-21.2 20.2-21.2zm-.2 37.7c7.3 0 11.2-7.4 11.2-16.6 0-8.5-3.4-18.3-12.1-18.3-7.9 0-11.2 8.1-11.2 16.3 0 8.7 3.6 18.6 12.1 18.6zM263.3 31.9c-1.7-4.4-4.7-5-4.7-5v-2.1h3.9c5.4 0 8.4-.3 8.4-.3l.3.3s-1.6 3.7-.1 7.9l6.7 18.1 1.4 4.6 8-19c.4-1.1.9-2.6.5-3.9l-.2-.6c-1.6-4.4-4.7-5-4.7-5v-2.1h3.9c5.4 0 8.4-.3 8.4-.3l.3.3s-1.6 3.7-.1 7.9l6.6 17.8c.5 1.5 1 3.3 1.5 4.9l9.4-22.2c1.5-3.4-1-5.4-4.3-6.2v-2.1H320l.4 1.4s-1.5.7-3.1 4.5l-14.4 33.8-3.2-1.1-9.7-25.3-11.2 26.3-3.2-1.1-12.3-31.5zM342.5 23.8c7.4 0 14.7 4.8 14.9 14.2 0 0-2.2.9-3.9 1.1l-21.4 3.1-.9 1c.3 7.8 4.3 15.4 13.9 15.4 7 0 11.2-4.1 11.2-4.1l.9 1.8s-4.5 8.1-14.7 8.1c-12.2 0-18.2-9.5-18.2-19.6.1-11.6 7.8-21 18.2-21zm-11.1 15.3l18-2.3s-.7-9.8-8.2-9.8c-5.8 0-9 5.7-9.8 12.1zM363.8 61.2c3.9-.4 5.3-2.5 5.3-5.6V34.8c0-3.7-.1-5.8-2.6-5.8h-3.9v-2.3c8.4-1.7 13.9-4 13.9-4l.3.3s-.8 2.8-1 10.9c2.6-4.8 7.1-10 11.6-10 2.1 0 4.6 1 4.6 3.9 0 2.6-1.8 4.2-4 4.2-2 0-2.2-1.5-4.2-1.5-2.9 0-5.8 2.8-7.6 5v20.2c0 2.6-.4 4.6-.4 4.6l8.2.8-.3 2.1-19.7.5v-2.5zM395.6 56.7l6.6-3.5c2.6 2.7 3.9 6 3.9 9.6 0 7.2-3.9 11.3-8.7 15.3l-2.1-2.2c3-2.6 5.9-5.4 5.9-9.1 0-2.7-1.8-4.9-5.6-7v-3.1zM451.6 41.9l2.9-.4c.1-1.8.1-6.8-.3-9.2-.6-3.2-2.2-5.5-5.4-5.5-5.8 0-9.1 8.2-9.1 8.2H437l-1.5-6.4s6.3-4.8 15.9-4.8c8.1 0 10.2 3.3 10.2 12.3v19.7c0 2.7.3 4 2.3 4 2.3 0 4.7-1.7 4.7-1.7l1.1 1.8s-4 4.5-9.1 4.5c-3.3 0-5.8-1.9-5.8-6.1v-2.1s-4.5 8.2-13.4 8.2c-5.7 0-8.9-4-8.9-8.7-.1-8.2 10.1-12.4 19.1-13.8zm2.9 12.5V44.3l-2.7.4c-4.9.8-11.8 3.3-11.8 9.5 0 3.4 2.2 5.3 4.8 5.3 3.3.1 7.4-3.2 9.7-5.1zM472.8 61.2c3.9-.4 5.3-2.5 5.3-5.6V34.8c0-3.7-.1-5.8-2.6-5.8h-3.9v-2.3c8.4-1.7 13.7-4 13.7-4l.3.3s-.8 2.8-.9 10.5c3.1-4.6 9.1-9.5 16.3-9.5 5.9 0 9.8 3.3 9.8 11.6v20.3c0 2.6-.4 4.5-.4 4.5l7.3.9-.3 2.1-18.5.5v-2.5c3.9-.4 4.9-2.5 4.9-5.6V37.2c0-6.5-2.5-8.2-5.9-8.2-3.9 0-9.2 2.3-12.8 6v20.6c0 2.6-.4 4.5-.4 4.5l6.9.9-.3 2.1-18.5.5v-2.4zM543.7 23.8c3.1 0 6.1.5 6.1.5V12c0-3.7-.1-5.8-2.6-5.8h-3.6V3.9c9.9-2.1 13.8-3.9 13.8-3.9l.3.3s-.9 3.2-.9 9.8v45.2c0 4.9 2 4.9 4.8 4.9h2.4l-.3 2.3c-9.4.9-13.7 1.6-13.7 1.6l-.3-.3s.3-2.4.3-4.5v-1.8c-2.3 3.4-5.8 7-12.3 7-10.6 0-16.1-9.3-16.1-18.6.2-10.9 7.5-22.1 22.1-22.1zm6.1 31.9V31.6c0-3.9-3.4-4.5-6.2-4.5-8.8 0-14.4 6.3-14.4 16.2 0 8.2 3.9 16.2 11.7 16.2 4.2 0 7.6-2.4 8.9-3.8zM605.7 41.9l2.9-.4c.1-1.8.1-6.8-.3-9.2-.6-3.2-2.2-5.5-5.4-5.5-5.8 0-9.1 8.2-9.1 8.2H591l-1.5-6.4s6.3-4.8 15.9-4.8c8.1 0 10.2 3.3 10.2 12.3v19.7c0 2.7.3 4 2.3 4 2.3 0 4.7-1.7 4.7-1.7l1.1 1.8s-4 4.5-9.1 4.5c-3.3 0-5.8-1.9-5.8-6.1v-2.1s-4.5 8.2-13.4 8.2c-5.7 0-8.9-4-8.9-8.7.1-8.2 10.3-12.4 19.2-13.8zm2.9 12.5V44.3l-2.7.4c-4.9.8-11.8 3.3-11.8 9.5 0 3.4 2.2 5.3 4.8 5.3 3.4.1 7.5-3.2 9.7-5.1zM628.1 52.1h2.6c.5 7.3 5.6 9.4 9.7 9.4 4.2 0 7.1-2.2 7.1-5.8 0-9.2-19.7-8.6-19.7-21 0-6.4 4.9-10.9 14-10.9 5.2 0 10.7 1.5 10.7 1.5l-1.7 8.8h-2.7c0-7-5.9-7.5-7.7-7.5-4.6 0-6.4 2.8-6.4 5.5 0 9.1 19.6 7.5 19.6 21 0 7.1-5.6 11.2-13.7 11.2-3.9 0-12.9-.9-12.9-5.8 0-1.6 1.1-6.4 1.1-6.4zM697.7 23.8c5.2 0 13.6 2.1 13.6 6.5 0 1.6-1.2 3.1-3.3 3.1-4.4 0-4.9-6.7-10.9-6.7-6.9 0-10.7 7.4-10.7 15.7 0 8.2 4 16.3 14.2 16.3 6.4 0 10-3.5 10-3.5l.9 1.8s-3.9 7.5-13.9 7.5c-12 0-18.2-9.7-18.2-19.6 0-10.4 6.5-21.1 18.3-21.1zM716.3 61.2c3.9-.4 5.3-2.5 5.3-5.6V12c0-3.7-.1-5.8-2.6-5.8h-3.6V3.9c9.9-2.1 13.8-3.9 13.8-3.9l.3.3s-.9 3.2-.9 9.8v45.6c0 2.6-.4 4.6-.4 4.6l7.3.8-.3 2.1-18.9.5v-2.5zM758 23.8c7.4 0 14.7 4.8 14.9 14.2 0 0-2.2.9-3.9 1.1l-21.4 3.1-.9 1c.3 7.8 4.3 15.4 13.9 15.4 7 0 11.2-4.1 11.2-4.1l.9 1.8s-4.5 8.1-14.7 8.1c-12.2 0-18.2-9.5-18.2-19.6.1-11.6 7.8-21 18.2-21zm-11.1 15.3l18-2.3s-.7-9.8-8.2-9.8c-5.8 0-9 5.7-9.8 12.1zM797.6 41.9l2.9-.4c.1-1.8.1-6.8-.3-9.2-.6-3.2-2.2-5.5-5.4-5.5-5.8 0-9.1 8.2-9.1 8.2H783l-1.5-6.4s6.3-4.8 15.9-4.8c8.1 0 10.2 3.3 10.2 12.3v19.7c0 2.7.3 4 2.3 4 2.3 0 4.7-1.7 4.7-1.7l1.1 1.8s-4 4.5-9.1 4.5c-3.3 0-5.8-1.9-5.8-6.1v-2.1s-4.5 8.2-13.4 8.2c-5.7 0-8.9-4-8.9-8.7 0-8.2 10.2-12.4 19.1-13.8zm2.9 12.5V44.3l-2.7.4c-4.9.8-11.8 3.3-11.8 9.5 0 3.4 2.2 5.3 4.8 5.3 3.4.1 7.5-3.2 9.7-5.1zM818.8 61.2c3.9-.4 5.3-2.5 5.3-5.6V34.8c0-3.7-.1-5.8-2.6-5.8h-3.9v-2.3c8.4-1.7 13.9-4 13.9-4l.3.3s-.8 2.8-1 10.9c2.6-4.8 7.1-10 11.6-10 2.1 0 4.6 1 4.6 3.9 0 2.6-1.8 4.2-4 4.2-2 0-2.2-1.5-4.2-1.5-2.9 0-5.8 2.8-7.6 5v20.2c0 2.6-.4 4.6-.4 4.6l8.2.8-.3 2.1-19.7.5v-2.5zM888.6 41.9l2.9-.4c.1-1.8.1-6.8-.3-9.2-.6-3.2-2.2-5.5-5.4-5.5-5.8 0-9.1 8.2-9.1 8.2H874l-1.5-6.4s6.3-4.8 15.9-4.8c8.1 0 10.2 3.3 10.2 12.3v19.7c0 2.7.3 4 2.3 4 2.3 0 4.7-1.7 4.7-1.7l1.1 1.8s-4 4.5-9.1 4.5c-3.3 0-5.8-1.9-5.8-6.1v-2.1s-4.5 8.2-13.4 8.2c-5.7 0-8.9-4-8.9-8.7 0-8.2 10.2-12.4 19.1-13.8zm2.9 12.5V44.3l-2.7.4c-4.9.8-11.8 3.3-11.8 9.5 0 3.4 2.2 5.3 4.8 5.3 3.4.1 7.5-3.2 9.7-5.1zM911 52.1h2.6c.5 7.3 5.6 9.4 9.7 9.4 4.2 0 7.1-2.2 7.1-5.8 0-9.2-19.7-8.6-19.7-21 0-6.4 4.9-10.9 14-10.9 5.1 0 10.7 1.5 10.7 1.5l-1.7 8.8H931c0-7-5.9-7.5-7.7-7.5-4.6 0-6.4 2.8-6.4 5.5 0 9.1 19.6 7.5 19.6 21 0 7.1-5.6 11.2-13.7 11.2-3.9 0-12.9-.9-12.9-5.8 0-1.6 1.1-6.4 1.1-6.4zM980.6 23.8c5.2 0 13.6 2.1 13.6 6.5 0 1.6-1.2 3.1-3.3 3.1-4.4 0-4.9-6.7-10.9-6.7-6.9 0-10.7 7.4-10.7 15.7 0 8.2 4 16.3 14.2 16.3 6.4 0 10-3.5 10-3.5l.9 1.8s-3.9 7.5-13.9 7.5c-12 0-18.2-9.7-18.2-19.6 0-10.4 6.5-21.1 18.3-21.1zM1000.1 61.2c3.9-.4 5.3-2.5 5.3-5.6V34.8c0-3.7-.1-5.8-2.6-5.8H999v-2.3c8.4-1.7 13.9-4 13.9-4l.3.3s-.8 2.8-1 10.9c2.6-4.8 7.1-10 11.6-10 2.1 0 4.6 1 4.6 3.9 0 2.6-1.8 4.2-4 4.2-2 0-2.2-1.5-4.2-1.5-2.9 0-5.8 2.8-7.6 5v20.2c0 2.6-.4 4.6-.4 4.6l8.2.8-.3 2.1-19.7.5v-2.5zM4.4 166.5H7c.5 7.3 5.6 9.4 9.7 9.4 4.2 0 7.1-2.2 7.1-5.8 0-9.2-19.7-8.6-19.7-21 0-6.4 4.9-10.9 14-10.9 5.1 0 10.7 1.5 10.7 1.5l-1.7 8.8h-2.7c0-7-5.9-7.5-7.7-7.5-4.6 0-6.4 2.8-6.4 5.5 0 9.1 19.6 7.5 19.6 21 0 7.1-5.6 11.2-13.7 11.2-3.9 0-12.9-.9-12.9-5.8 0-1.6 1.1-6.4 1.1-6.4zM40.5 149.2c0-2.5.3-5.6.3-5.6h-5.7V141s3.8-.8 5.8-2.7l3.2-9.4 3.9.1.3.3s-.8 2.5-.8 8.6v1.3h13.4l-.6 4.1H48.4l-.9.9V166c0 5 1.5 7.7 6 7.7 3.9 0 7.7-1.8 7.7-1.8l1.1 1.6s-4.9 5.3-12.4 5.3c-6.1 0-9.5-3.4-9.5-11.2v-18.4z"/><path fill="#FF1D25" d="M84.2 138.2c7.4 0 14.7 4.8 14.9 14.2 0 0-2.2.9-3.9 1.1l-21.4 3.1-.9 1c.3 7.8 4.3 15.4 13.9 15.4 7 0 11.2-4.1 11.2-4.1l.9 1.8s-4.5 8.1-14.7 8.1c-12.2 0-18.2-9.5-18.2-19.6.1-11.5 7.8-21 18.2-21zm-11.1 15.4l18-2.3s-.7-9.8-8.2-9.8c-5.7 0-9 5.6-9.8 12.1z"/><path d="M123.7 138.2c7.4 0 14.7 4.8 14.9 14.2 0 0-2.2.9-3.9 1.1l-21.4 3.1-.9 1c.3 7.8 4.3 15.4 13.9 15.4 7 0 11.2-4.1 11.2-4.1l.9 1.8s-4.5 8.1-14.7 8.1c-12.2 0-18.2-9.5-18.2-19.6.1-11.5 7.8-21 18.2-21zm-11.1 15.4l18-2.3s-.7-9.8-8.2-9.8c-5.8 0-9 5.6-9.8 12.1zM145.1 196.4c3.9-2.1 4.5-4.1 4.5-8.1v-39.1c0-3.7-.1-5.8-2.6-5.8h-3.4v-2.3c8.4-1.7 13.5-4 13.5-4l.3.3s-.5 2.1-.9 7.6c2.3-2.9 5.6-6.7 12.4-6.7 10.5 0 15.6 9.3 15.6 18.7 0 10.9-7 22-22.1 22-2.3 0-4.1-.3-5.8-.5v9.9c0 2.6-.4 4.9-.4 4.9h9l-.3 2.1s-13.6 1.6-19.7 3.7v-2.7zm31.8-37c0-8.2-3.6-16.2-11.2-16.2-3.3 0-6.4 1.5-9.1 3.6V171c0 4 3.3 4.6 6.2 4.6 8.9 0 14.1-6.4 14.1-16.2zM189.8 175.6c3.9-.4 5.3-2.5 5.3-5.6v-43.6c0-3.7-.1-5.8-2.6-5.8h-3.6v-2.3c9.9-2.1 13.8-3.9 13.8-3.9l.3.3s-.9 3.2-.9 9.8v45.6c0 2.6-.4 4.6-.4 4.6l7.3.8-.3 2.1-18.9.5v-2.5zM231.4 138.2c7.4 0 14.7 4.8 14.9 14.2 0 0-2.2.9-3.9 1.1l-21.4 3.1-.9 1c.3 7.8 4.3 15.4 13.9 15.4 7 0 11.2-4.1 11.2-4.1l.9 1.8s-4.5 8.1-14.7 8.1c-12.2 0-18.2-9.5-18.2-19.6.1-11.5 7.8-21 18.2-21zm-11.1 15.4l18-2.3s-.7-9.8-8.2-9.8c-5.7 0-9 5.6-9.8 12.1zM254 166.5h2.6c.5 7.3 5.6 9.4 9.7 9.4 4.2 0 7.1-2.2 7.1-5.8 0-9.2-19.7-8.6-19.7-21 0-6.4 4.9-10.9 14-10.9 5.1 0 10.7 1.5 10.7 1.5l-1.7 8.8H274c0-7-5.9-7.5-7.7-7.5-4.6 0-6.4 2.8-6.4 5.5 0 9.1 19.6 7.5 19.6 21 0 7.1-5.6 11.2-13.7 11.2-3.9 0-12.9-.9-12.9-5.8 0-1.6 1.1-6.4 1.1-6.4zM287.4 171.2l6.6-3.5c2.6 2.7 3.9 6 3.9 9.6 0 7.2-3.9 11.3-8.7 15.3l-2.1-2.2c3-2.6 5.9-5.4 5.9-9.1 0-2.7-1.8-4.9-5.6-7v-3.1zM325 196.4c3.9-2.1 4.5-4.1 4.5-8.1v-39.1c0-3.7-.1-5.8-2.6-5.8h-3.4v-2.3c8.4-1.7 13.5-4 13.5-4l.3.3s-.5 2.1-.9 7.6c2.3-2.9 5.6-6.7 12.4-6.7 10.5 0 15.6 9.3 15.6 18.7 0 10.9-7 22-22.1 22-2.3 0-4.1-.3-5.8-.5v9.9c0 2.6-.4 4.9-.4 4.9h9l-.3 2.1s-13.6 1.6-19.7 3.7v-2.7zm31.9-37c0-8.2-3.6-16.2-11.2-16.2-3.3 0-6.4 1.5-9.1 3.6V171c0 4 3.3 4.6 6.2 4.6 8.8 0 14.1-6.4 14.1-16.2zM370.9 175.6c3.9-.4 5.3-2.5 5.3-5.6v-20.9c0-3.7-.1-5.8-2.6-5.8h-3.9V141c12.5-2.9 14.3-4 14.3-4l.1.3s-.9 2.8-.9 9.8v23c0 2.6-.4 4.6-.4 4.6l7.3.8-.3 2.1-18.9.5v-2.5zm3.4-50.8c0-2.5 2.1-4.6 4.6-4.6 2.5 0 4.6 2.1 4.6 4.6 0 2.5-2.1 4.6-4.6 4.6-2.4.1-4.6-2.1-4.6-4.6zM393.8 175.6c3.9-.4 5.3-2.5 5.3-5.6v-43.6c0-3.7-.1-5.8-2.6-5.8h-3.6v-2.3c9.9-2.1 13.8-3.9 13.8-3.9l.3.3s-.9 3.2-.9 9.8v45.6c0 2.6-.4 4.6-.4 4.6l7.3.8-.3 2.1-18.9.5v-2.5zM435.4 138.2c7.4 0 14.7 4.8 14.9 14.2 0 0-2.2.9-3.9 1.1l-21.4 3.1-.9 1c.3 7.8 4.3 15.4 13.9 15.4 7 0 11.2-4.1 11.2-4.1l.9 1.8s-4.5 8.1-14.7 8.1c-12.2 0-18.2-9.5-18.2-19.6.1-11.5 7.8-21 18.2-21zm-11 15.4l18-2.3s-.7-9.8-8.2-9.8c-5.8 0-9.1 5.6-9.8 12.1zM478.7 138.2c3.1 0 6.1.5 6.1.5v-12.3c0-3.7-.1-5.8-2.6-5.8h-3.6v-2.3c9.9-2.1 13.8-3.9 13.8-3.9l.3.3s-.9 3.2-.9 9.8v45.2c0 4.9 2 4.9 4.8 4.9h2.4l-.3 2.3c-9.4.9-13.7 1.6-13.7 1.6l-.3-.3s.3-2.4.3-4.5v-1.8c-2.3 3.4-5.8 7-12.3 7-10.6 0-16.1-9.3-16.1-18.6.1-10.8 7.4-22.1 22.1-22.1zm6.1 31.9V146c0-3.9-3.4-4.5-6.2-4.5-8.8 0-14.4 6.3-14.4 16.2 0 8.2 3.9 16.2 11.7 16.2 4.2 0 7.5-2.4 8.9-3.8zM542.5 138.2c12.5 0 19 8.2 19 18.8 0 10.6-6.6 21.9-20.3 21.9-12.1 0-18.8-8.5-18.8-19.5 0-10 5.5-21.2 20.1-21.2zm-.1 37.8c7.3 0 11.2-7.4 11.2-16.6 0-8.5-3.4-18.3-12.1-18.3-7.9 0-11.2 8.1-11.2 16.3 0 8.6 3.5 18.6 12.1 18.6zM568 175.6c3.9-.4 5.3-2.5 5.3-5.6v-20.9c0-3.7-.1-5.8-2.6-5.8h-3.9V141c8.4-1.7 13.7-4 13.7-4l.3.3s-.8 2.8-.9 10.5c3.1-4.6 9.1-9.5 16.3-9.5 5.9 0 9.8 3.3 9.8 11.6v20.3c0 2.6-.4 4.5-.4 4.5l7.3.9-.3 2.1-18.5.5v-2.5c3.9-.4 4.9-2.5 4.9-5.6v-18.4c0-6.5-2.5-8.2-5.9-8.2-3.9 0-9.2 2.3-12.8 6v20.6c0 2.6-.4 4.5-.4 4.5l6.9.9-.3 2.1-18.5.5v-2.5z"/><path fill="#FF1D25" d="M635.2 138.2c7.4 0 14.7 4.8 14.9 14.2 0 0-2.2.9-3.9 1.1l-21.4 3.1-.9 1c.3 7.8 4.3 15.4 13.9 15.4 7 0 11.2-4.1 11.2-4.1l.9 1.8s-4.5 8.1-14.7 8.1c-12.2 0-18.2-9.5-18.2-19.6.1-11.5 7.9-21 18.2-21zm-11 15.4l18-2.3s-.7-9.8-8.2-9.8c-5.8 0-9.1 5.6-9.8 12.1z"/><path d="M680 149.2c0-3.7-.1-5.8-2.6-5.8h-3V141c8.3-1.5 13-3.2 13-3.2l.3.3s-.8 2.4-.8 9v18.4c0 6.5 2.3 8.2 5.8 8.2 3.9 0 8.8-2.3 12.4-6.1v-18.4c0-3.7-.1-5.8-2.6-5.8H700V141c8.2-1.5 12.9-3.2 12.9-3.2l.3.3s-.8 2.4-.8 9v22.7c0 4.9 2 4.9 4.8 4.9h2.4l-.3 2.3c-9.4.9-14.1 1.7-14.1 1.7l-.3-.3s.8-2.5.8-4.6v-4.5c-3.1 4.5-8.8 9.6-16 9.6-6 0-9.7-3.3-9.7-11.5v-18.2zM723.9 196.4c3.9-2.1 4.5-4.1 4.5-8.1v-39.1c0-3.7-.1-5.8-2.6-5.8h-3.4v-2.3c8.4-1.7 13.5-4 13.5-4l.3.3s-.5 2.1-.9 7.6c2.3-2.9 5.6-6.7 12.4-6.7 10.5 0 15.6 9.3 15.6 18.7 0 10.9-7 22-22.1 22-2.3 0-4.1-.3-5.8-.5v9.9c0 2.6-.4 4.9-.4 4.9h9l-.3 2.1s-13.6 1.6-19.7 3.7v-2.7zm31.8-37c0-8.2-3.6-16.2-11.2-16.2-3.3 0-6.4 1.5-9.1 3.6V171c0 4 3.3 4.6 6.2 4.6 8.9 0 14.1-6.4 14.1-16.2zM789.9 138.2c12.5 0 19 8.2 19 18.8 0 10.6-6.6 21.9-20.3 21.9-12.1 0-18.8-8.5-18.8-19.5-.1-10 5.5-21.2 20.1-21.2zm-.2 37.8c7.3 0 11.2-7.4 11.2-16.6 0-8.5-3.4-18.3-12.1-18.3-7.9 0-11.2 8.1-11.2 16.3 0 8.6 3.5 18.6 12.1 18.6zM815.4 175.6c3.9-.4 5.3-2.5 5.3-5.6v-20.9c0-3.7-.1-5.8-2.6-5.8h-3.9V141c8.4-1.7 13.7-4 13.7-4l.3.3s-.8 2.8-.9 10.5c3.1-4.6 9.1-9.5 16.3-9.5 5.9 0 9.8 3.3 9.8 11.6v20.3c0 2.6-.4 4.5-.4 4.5l7.3.9-.3 2.1-18.5.5v-2.5c3.9-.4 4.9-2.5 4.9-5.6v-18.4c0-6.5-2.5-8.2-5.9-8.2-3.9 0-9.2 2.3-12.8 6v20.6c0 2.6-.4 4.5-.4 4.5l6.9.9-.3 2.1-18.5.5v-2.5zM902.1 156.3l2.9-.4c.1-1.8.1-6.8-.3-9.2-.6-3.2-2.2-5.5-5.4-5.5-5.8 0-9.1 8.2-9.1 8.2h-2.7L886 143s6.3-4.8 15.9-4.8c8.1 0 10.2 3.3 10.2 12.3v19.7c0 2.7.3 4 2.3 4 2.3 0 4.7-1.7 4.7-1.7l1.1 1.8s-4 4.5-9.1 4.5c-3.3 0-5.8-1.9-5.8-6.1v-2.1s-4.5 8.2-13.4 8.2c-5.7 0-8.9-4-8.9-8.7-.1-8.1 10.2-12.4 19.1-13.8zm2.9 12.6v-10.1l-2.7.4c-4.9.8-11.8 3.3-11.8 9.5 0 3.4 2.2 5.3 4.8 5.3 3.3 0 7.5-3.3 9.7-5.1zM923.3 175.6c3.9-.4 5.3-2.5 5.3-5.6v-20.9c0-3.7-.1-5.8-2.6-5.8h-3.9V141c8.4-1.7 13.7-4 13.7-4l.3.3s-.8 2.8-.9 10.5c3.1-4.6 9.1-9.5 16.3-9.5 5.9 0 9.8 3.3 9.8 11.6v20.3c0 2.6-.4 4.5-.4 4.5l7.3.9-.3 2.1-18.5.5v-2.5c3.9-.4 4.9-2.5 4.9-5.6v-18.4c0-6.5-2.5-8.2-5.9-8.2-3.9 0-9.2 2.3-12.8 6v20.6c0 2.6-.4 4.5-.4 4.5l6.9.9-.3 2.1-18.5.5v-2.5zM992.5 138.2c12.5 0 19 8.2 19 18.8 0 10.6-6.6 21.9-20.3 21.9-12.1 0-18.8-8.5-18.8-19.5 0-10 5.6-21.2 20.1-21.2zm-.1 37.8c7.3 0 11.2-7.4 11.2-16.6 0-8.5-3.4-18.3-12.1-18.3-7.9 0-11.2 8.1-11.2 16.3 0 8.6 3.5 18.6 12.1 18.6zM25.1 252.7c3.1 0 6.1.5 6.1.5v-12.3c0-3.7-.1-5.8-2.6-5.8H25v-2.3c9.9-2.1 13.8-3.9 13.8-3.9l.3.3s-.9 3.2-.9 9.8v45.2c0 4.9 2 4.9 4.8 4.9h2.4l-.3 2.3c-9.4.9-13.7 1.6-13.7 1.6l-.3-.3s.3-2.4.3-4.5v-1.8c-2.3 3.4-5.8 7-12.3 7-10.6 0-16.1-9.3-16.1-18.6.1-10.9 7.4-22.1 22.1-22.1zm6.1 31.9v-24.1c0-3.9-3.4-4.5-6.2-4.5-8.8 0-14.4 6.3-14.4 16.2 0 8.2 3.9 16.2 11.7 16.2 4.1 0 7.5-2.4 8.9-3.8zM51.1 260.8c-1.7-4.4-4.7-5-4.7-5v-2.1h3.9c5.4 0 8.4-.3 8.4-.3l.3.3s-1.6 3.7-.1 7.9l6.7 18.1 1.4 4.6 8-19c.4-1.1.9-2.6.5-3.9l-.2-.6c-1.6-4.4-4.7-5-4.7-5v-2.1h3.9c5.4 0 8.4-.3 8.4-.3l.3.3s-1.6 3.7-.1 7.9l6.6 17.8c.5 1.5 1 3.3 1.5 4.9l9.4-22.2c1.5-3.4-1-5.4-4.3-6.2v-2.1h11.5l.4 1.4s-1.5.7-3.1 4.5l-14.4 33.8-3.2-1.1-9.9-25.2-11.2 26.3-3.2-1.1-12.1-31.6zM130.2 252.7c7.4 0 14.7 4.8 14.9 14.2 0 0-2.2.9-3.9 1.1l-21.4 3.1-.9 1c.3 7.8 4.3 15.4 13.9 15.4 7 0 11.2-4.1 11.2-4.1l.9 1.8s-4.5 8.1-14.7 8.1c-12.2 0-18.2-9.5-18.2-19.6.1-11.6 7.8-21 18.2-21zM119.1 268l18-2.3s-.7-9.8-8.2-9.8c-5.7 0-9 5.7-9.8 12.1z"/><path fill="#FF1D25" d="M150.7 290.1c3.9-.4 5.3-2.5 5.3-5.6v-43.6c0-3.7-.1-5.8-2.6-5.8h-3.6v-2.3c9.9-2.1 13.8-3.9 13.8-3.9l.3.3s-.9 3.2-.9 9.8v45.6c0 2.6-.4 4.6-.4 4.6l7.3.8-.3 2.1-18.9.5v-2.5z"/><path d="M173.6 290.1c3.9-.4 5.3-2.5 5.3-5.6v-43.6c0-3.7-.1-5.8-2.6-5.8h-3.6v-2.3c9.9-2.1 13.8-3.9 13.8-3.9l.3.3s-.9 3.2-.9 9.8v45.6c0 2.6-.4 4.6-.4 4.6l7.3.8-.3 2.1-18.9.5v-2.5zM220.9 263.6c0-2.5.3-5.6.3-5.6h-5.7v-2.6s3.8-.8 5.8-2.7l3.2-9.4 3.9.1.3.3s-.8 2.5-.8 8.6v1.3h13.4l-.6 4.1h-11.8l-.9.9v21.8c0 5 1.5 7.7 6 7.7 3.9 0 7.7-1.8 7.7-1.8l1.1 1.6s-4.9 5.3-12.4 5.3c-6.1 0-9.5-3.4-9.5-11.2v-18.4zM245.6 290.1c3.9-.4 5.3-2.5 5.3-5.6v-43.6c0-3.7-.1-5.8-2.6-5.8h-3.6v-2.3c9.9-2.1 13.8-3.9 13.8-3.9l.3.3s-.9 3.2-.9 9.8v16.7c0 3.9-.3 5.7-.3 6.4 3.1-4.5 9.1-9.3 16.3-9.3 5.9 0 9.8 3.3 9.8 11.6v20.3c0 2.6-.4 4.6-.4 4.6l7.3.8-.3 2.1-18.5.5v-2.5c3.5-.4 4.9-2.5 4.9-5.6v-18.4c0-6.5-2.5-8.2-5.9-8.2-3.9 0-9.2 2.4-12.8 5.8v20.8c0 2.6-.4 4.6-.4 4.6l6.9.8-.3 2.1-18.5.5v-2.5z"/><path fill="#FF1D25" d="M312.9 252.7c7.4 0 14.7 4.8 14.9 14.2 0 0-2.2.9-3.9 1.1l-21.4 3.1-.9 1c.3 7.8 4.3 15.4 13.9 15.4 7 0 11.2-4.1 11.2-4.1l.9 1.8s-4.5 8.1-14.7 8.1c-12.2 0-18.2-9.5-18.2-19.6 0-11.6 7.8-21 18.2-21zM301.8 268l18-2.3s-.7-9.8-8.2-9.8c-5.8 0-9 5.7-9.8 12.1z"/><path d="M356 276.9h2.9c0 10.5 6.6 13.2 12.4 13.2 5.6 0 10.9-2.4 10.9-9 0-14.9-26.9-14.7-26.9-32.1 0-8.5 6.4-14.9 19.1-14.9 6.1 0 12.3 1.4 14.2 1.6l-2.7 13.4H383c.9-6.4-2.4-11.8-9.6-11.8-5.8 0-10.6 2.7-10.6 8.9 0 15 26.9 13.6 26.9 32 0 10.3-8.8 15.1-19.1 15.1-7.5 0-16.6-2.6-16.6-8.8.1-1.3.4-2.5 2-7.6zM415.1 252.7c7.4 0 14.7 4.8 14.9 14.2 0 0-2.2.9-3.9 1.1l-21.4 3.1-.9 1c.3 7.8 4.3 15.4 13.9 15.4 7 0 11.2-4.1 11.2-4.1l.9 1.8s-4.5 8.1-14.7 8.1c-12.2 0-18.2-9.5-18.2-19.6.1-11.6 7.8-21 18.2-21zM404 268l18-2.3s-.7-9.8-8.2-9.8c-5.8 0-9 5.7-9.8 12.1z"/><path fill="#FF1D25" d="M454.7 270.8l2.9-.4c.1-1.8.1-6.8-.3-9.2-.6-3.2-2.2-5.5-5.4-5.5-5.8 0-9.1 8.2-9.1 8.2h-2.7l-1.5-6.4s6.3-4.8 15.9-4.8c8.1 0 10.2 3.3 10.2 12.3v19.7c0 2.7.3 4 2.3 4 2.3 0 4.7-1.7 4.7-1.7l1.1 1.8s-4 4.5-9.1 4.5c-3.3 0-5.8-1.9-5.8-6.1v-2.1s-4.5 8.2-13.4 8.2c-5.7 0-8.9-4-8.9-8.7 0-8.2 10.2-12.5 19.1-13.8zm3 12.5v-10.1l-2.7.4c-4.9.8-11.8 3.3-11.8 9.5 0 3.4 2.2 5.3 4.8 5.3 3.3.1 7.4-3.2 9.7-5.1z"/><path d="M496.5 289.8c3.8-.4 6.2-2.4 6.2-5.3v-41c0-4.1 0-5-6.4-6.3v-2.1h6.7c7.7 0 9.6-.3 9.6-.3l.4.3s-2.8 3.3-2.8 10.4v15.1h1.6s1.5-.9 2.9-2.3l16.7-16.7c1.6-1.6 1.7-3.9-2.4-4.4v-2.1h16.1l.4 1.2s-4.6 1-11.1 7.5l-16.2 16.1v.9l20.8 23.9c3.9 4.5 4.5 4.6 7.3 4.9l.9.1-.3 2.7h-12.6l-.3-.3s-.9-2.6-6.4-9.1l-16.1-18.6h-1.4v20.2c0 2.5-.4 4.4-.4 4.4l7.7.8-.3 2.4-20.7.5v-2.9zM550.4 290.1c3.9-.4 5.3-2.5 5.3-5.6v-20.9c0-3.7-.1-5.8-2.6-5.8h-3.9v-2.3c12.5-2.9 14.3-4 14.3-4l.1.3s-.9 2.8-.9 9.8v23c0 2.6-.4 4.6-.4 4.6l7.3.8-.3 2.1-18.9.5v-2.5zm3.5-50.8c0-2.5 2.1-4.6 4.6-4.6 2.5 0 4.6 2.1 4.6 4.6 0 2.5-2.1 4.6-4.6 4.6-2.5 0-4.6-2.1-4.6-4.6zM574.2 290.1c3.9-.4 5.3-2.5 5.3-5.6v-20.9c0-3.7-.1-5.8-2.6-5.8H573v-2.3c8.4-1.7 13.7-4 13.7-4l.3.3s-.8 2.8-.9 10.5c3.1-4.6 9.1-9.5 16.3-9.5 5.9 0 9.8 3.3 9.8 11.6v20.3c0 2.6-.4 4.5-.4 4.5l7.3.9-.3 2.1-18.5.5v-2.5c3.9-.4 4.9-2.5 4.9-5.6v-18.4c0-6.5-2.5-8.2-5.9-8.2-3.9 0-9.2 2.3-12.8 6v20.6c0 2.6-.4 4.5-.4 4.5l6.9.9-.3 2.1-18.5.5v-2.5zM633.9 279.1c-5.8-1.6-10.3-5.8-10.3-12.6 0-8.9 7.6-13.8 16-13.8 5 0 7 1.7 11.3 1.7h4.1c2.7 0 5.7-1.1 5.7-1.1l-.8 5.6h-4.5c-1.9 0-3-.3-3-.3s3.5 3 3.5 8.4c0 8.1-7.7 12.9-16.3 12.9-1.5 0-2.8-.1-4.2-.3-.6.7-2.1 2.4-2.1 3.6 0 2.3 5.1 2.9 11.8 4.3 7.2 1.5 14.9 3.9 14.9 10.8 0 8.4-11.2 14.4-21.8 14.4-7.7 0-16.1-3.2-16.1-10.4 0-6.6 6.9-9.2 10.8-10.7-4-1-7.1-2.6-7.1-5.5 0-3.7 5-5.4 8.1-7zM635 292c-2.1 1.4-6.1 4.5-6.1 9.3 0 5.3 5.2 8.2 10.8 8.2 6.3 0 13.2-3.4 13.2-8.7 0-4.4-5.1-6.1-10.7-7.3-2.4-.6-4.9-1-7.2-1.5zm13.5-25c0-5.5-2.8-11.3-9-11.3-6 0-8.4 5.2-8.4 10.6 0 5.3 2.5 10.6 8.8 10.6 6.1 0 8.6-4.8 8.6-9.9zM702.4 270.8l2.9-.4c.1-1.8.1-6.8-.3-9.2-.6-3.2-2.2-5.5-5.4-5.5-5.8 0-9.1 8.2-9.1 8.2h-2.7l-1.5-6.4s6.3-4.8 15.9-4.8c8.1 0 10.2 3.3 10.2 12.3v19.7c0 2.7.3 4 2.3 4 2.3 0 4.7-1.7 4.7-1.7l1.1 1.8s-4 4.5-9.1 4.5c-3.3 0-5.8-1.9-5.8-6.1v-2.1s-4.5 8.2-13.4 8.2c-5.7 0-8.9-4-8.9-8.7-.1-8.2 10.1-12.5 19.1-13.8zm2.9 12.5v-10.1l-2.7.4c-4.9.8-11.8 3.3-11.8 9.5 0 3.4 2.2 5.3 4.8 5.3 3.3.1 7.4-3.2 9.7-5.1zM723.6 290.1c3.9-.4 5.3-2.5 5.3-5.6v-20.9c0-3.7-.1-5.8-2.6-5.8h-3.9v-2.3c8.4-1.7 13.7-4 13.7-4l.3.3s-.8 2.8-.9 10.5c3.1-4.6 9.1-9.5 16.3-9.5 5.9 0 9.8 3.3 9.8 11.6v20.3c0 2.6-.4 4.5-.4 4.5l7.3.9-.3 2.1-18.5.5v-2.5c3.9-.4 4.9-2.5 4.9-5.6v-18.4c0-6.5-2.5-8.2-5.9-8.2-3.9 0-9.2 2.3-12.8 6v20.6c0 2.6-.4 4.5-.4 4.5l6.9.9-.3 2.1-18.5.5v-2.5zM794.5 252.7c3.1 0 6.1.5 6.1.5v-12.3c0-3.7-.1-5.8-2.6-5.8h-3.6v-2.3c9.9-2.1 13.8-3.9 13.8-3.9l.3.3s-.9 3.2-.9 9.8v45.2c0 4.9 2 4.9 4.8 4.9h2.4l-.3 2.3c-9.4.9-13.7 1.6-13.7 1.6l-.3-.3s.3-2.4.3-4.5v-1.8c-2.3 3.4-5.8 7-12.3 7-10.6 0-16.1-9.3-16.1-18.6.2-10.9 7.5-22.1 22.1-22.1zm6.1 31.9v-24.1c0-3.9-3.4-4.5-6.2-4.5-8.8 0-14.4 6.3-14.4 16.2 0 8.2 3.9 16.2 11.7 16.2 4.2 0 7.6-2.4 8.9-3.8zM837.4 290.1c3.9-.4 5.3-2.5 5.3-5.6v-43.6c0-3.7-.1-5.8-2.6-5.8h-3.6v-2.3c9.9-2.1 13.8-3.9 13.8-3.9l.3.3s-.9 3.2-.9 9.8v16.7c0 3.9-.3 5.7-.3 6.4 3.1-4.5 9.1-9.3 16.3-9.3 5.9 0 9.8 3.3 9.8 11.6v20.3c0 2.6-.4 4.6-.4 4.6l7.3.8-.3 2.1-18.5.5v-2.5c3.5-.4 4.9-2.5 4.9-5.6v-18.4c0-6.5-2.5-8.2-5.9-8.2-3.9 0-9.2 2.4-12.8 5.8v20.8c0 2.6-.4 4.6-.4 4.6l6.9.8-.3 2.1-18.5.5v-2.5zM886.5 290.1c3.9-.4 5.3-2.5 5.3-5.6v-20.9c0-3.7-.1-5.8-2.6-5.8h-3.9v-2.3c12.5-2.9 14.3-4 14.3-4l.1.3s-.9 2.8-.9 9.8v23c0 2.6-.4 4.6-.4 4.6l7.3.8-.3 2.1-18.9.5v-2.5zm3.4-50.8c0-2.5 2.1-4.6 4.6-4.6 2.5 0 4.6 2.1 4.6 4.6 0 2.5-2.1 4.6-4.6 4.6-2.5 0-4.6-2.1-4.6-4.6zM911.4 281h2.6c.5 7.3 5.6 9.4 9.7 9.4 4.2 0 7.1-2.2 7.1-5.8 0-9.2-19.7-8.6-19.7-21 0-6.4 4.9-10.9 14-10.9 5.1 0 10.7 1.5 10.7 1.5l-1.7 8.8h-2.7c0-7-5.9-7.5-7.7-7.5-4.6 0-6.4 2.8-6.4 5.5 0 9.1 19.6 7.5 19.6 21 0 7.1-5.6 11.2-13.7 11.2-3.9 0-12.9-.9-12.9-5.8 0-1.6 1.1-6.4 1.1-6.4zM963.9 281h2.6c.5 7.3 5.6 9.4 9.7 9.4 4.2 0 7.1-2.2 7.1-5.8 0-9.2-19.7-8.6-19.7-21 0-6.4 4.9-10.9 14-10.9 5.1 0 10.7 1.5 10.7 1.5l-1.7 8.8H984c0-7-5.9-7.5-7.7-7.5-4.6 0-6.4 2.8-6.4 5.5 0 9.1 19.6 7.5 19.6 21 0 7.1-5.6 11.2-13.7 11.2-3.9 0-12.9-.9-12.9-5.8-.1-1.6 1-6.4 1-6.4zM999.9 263.6c0-3.7-.1-5.8-2.6-5.8h-3v-2.4c8.3-1.5 13-3.2 13-3.2l.3.3s-.8 2.4-.8 9v18.4c0 6.5 2.3 8.2 5.8 8.2 3.9 0 8.8-2.3 12.4-6.1v-18.4c0-3.7-.1-5.8-2.6-5.8h-2.8v-2.4c8.2-1.5 12.9-3.2 12.9-3.2l.3.3s-.8 2.4-.8 9v22.7c0 4.9 2 4.9 4.8 4.9h2.4l-.3 2.3c-9.4.9-14.1 1.7-14.1 1.7l-.3-.3s.8-2.5.8-4.6v-4.5c-3.1 4.5-8.8 9.6-16 9.6-6 0-9.7-3.3-9.7-11.5v-18.2zM15.1 413.5l2.7-6.4c-.4-1.2-1.1-3.2-2.1-5.6l-11-26.3c-1.8-4.3-4.8-5-4.8-5v-2.1h4c5.4 0 8.8-.3 8.8-.3l.3.3c-1 2.1-1 5.6-.1 7.9l7 17.4c.5 1.5 1.2 3.6 1.6 5.2l9.7-22.1c1.5-3.4-1.5-5.3-4.7-6.2v-2.1h11.9l.4 1.4s-1.5.9-3.1 4.5L21 407.8c-2.3 5.2-7.2 19.3-15.4 19.3-2.5 0-3.8-1.7-3.8-3.6 0-1.7 1.1-3.5 4.2-3.5 4.6 0 7.6-2.9 9.1-6.5zM60.6 367.1c7.4 0 14.7 4.8 14.9 14.2 0 0-2.2.9-3.9 1.1l-21.4 3.1-.9 1c.3 7.8 4.3 15.4 13.9 15.4 7 0 11.2-4.1 11.2-4.1l.9 1.8s-4.5 8.1-14.7 8.1c-12.2 0-18.2-9.5-18.2-19.6.1-11.6 7.8-21 18.2-21zm-11.1 15.4l18-2.3s-.7-9.8-8.2-9.8c-5.7 0-9 5.6-9.8 12.1z"/><path fill="#FF1D25" d="M81.1 404.5c3.9-.4 5.3-2.5 5.3-5.6v-43.6c0-3.7-.1-5.8-2.6-5.8h-3.6v-2.3c9.9-2.1 13.8-3.9 13.8-3.9l.3.3s-.9 3.2-.9 9.8V399c0 2.6-.4 4.6-.4 4.6l7.3.8-.3 2.1-18.9.5v-2.5z"/><path d="M104 404.5c3.9-.4 5.3-2.5 5.3-5.6v-43.6c0-3.7-.1-5.8-2.6-5.8h-3.6v-2.3c9.9-2.1 13.8-3.9 13.8-3.9l.3.3s-.9 3.2-.9 9.8V399c0 2.6-.4 4.6-.4 4.6l7.3.8-.3 2.1-18.9.5v-2.5zM147.7 367.1c12.5 0 19 8.2 19 18.8 0 10.6-6.6 21.9-20.3 21.9-12.1 0-18.8-8.5-18.8-19.5-.1-10 5.5-21.2 20.1-21.2zm-.2 37.8c7.3 0 11.2-7.4 11.2-16.6 0-8.5-3.4-18.3-12.1-18.3-7.9 0-11.2 8.1-11.2 16.3 0 8.6 3.6 18.6 12.1 18.6zM174.8 375.3c-1.7-4.4-4.7-5-4.7-5v-2.1h3.9c5.4 0 8.4-.3 8.4-.3l.3.3s-1.6 3.7-.1 7.9l6.7 18.1 1.4 4.6 8-19c.4-1.1.9-2.6.5-3.9l-.2-.6c-1.6-4.4-4.7-5-4.7-5v-2.1h3.9c5.4 0 8.4-.3 8.4-.3l.3.3s-1.6 3.7-.1 7.9l6.6 17.8c.5 1.5 1 3.3 1.5 4.9l9.4-22.2c1.5-3.4-1-5.4-4.3-6.2v-2.1h11.5l.4 1.4s-1.5.7-3.1 4.5L214.4 408l-3.2-1.1-9.9-25.2-11.2 26.3-3.2-1.1-12.1-31.6zM256.4 395.4h2.6c.5 7.3 5.6 9.4 9.7 9.4 4.2 0 7.1-2.2 7.1-5.8 0-9.2-19.7-8.6-19.7-21 0-6.4 4.9-10.9 14-10.9 5.1 0 10.7 1.5 10.7 1.5l-1.7 8.8h-2.7c0-7-5.9-7.5-7.7-7.5-4.6 0-6.4 2.8-6.4 5.5 0 9.1 19.6 7.5 19.6 21 0 7.1-5.6 11.2-13.7 11.2-3.9 0-12.9-.9-12.9-5.8 0-1.6 1.1-6.4 1.1-6.4zM306.6 385.2l2.9-.4c.1-1.8.1-6.8-.3-9.2-.6-3.2-2.2-5.5-5.4-5.5-5.8 0-9.1 8.2-9.1 8.2H292l-1.5-6.4s6.3-4.8 15.9-4.8c8.1 0 10.2 3.3 10.2 12.3v19.7c0 2.7.3 4 2.3 4 2.3 0 4.7-1.7 4.7-1.7l1.1 1.8s-4 4.5-9.1 4.5c-3.3 0-5.8-1.9-5.8-6.1v-2.1s-4.5 8.2-13.4 8.2c-5.7 0-8.9-4-8.9-8.7 0-8.1 10.2-12.4 19.1-13.8zm2.9 12.5v-10.1l-2.7.4c-4.9.8-11.8 3.3-11.8 9.5 0 3.4 2.2 5.3 4.8 5.3 3.4.1 7.5-3.2 9.7-5.1zM327.8 404.5c3.9-.4 5.3-2.5 5.3-5.6V378c0-3.7-.1-5.8-2.6-5.8h-3.9v-2.3c8.4-1.7 13.7-4 13.7-4l.3.3s-.8 2.8-.9 10.5c3.1-4.6 9.1-9.5 16.3-9.5 5.9 0 9.8 3.3 9.8 11.6v20.3c0 2.6-.4 4.5-.4 4.5l7.3.9-.3 2.1-18.4.4v-2.5c3.9-.4 4.9-2.5 4.9-5.6v-18.4c0-6.5-2.5-8.2-5.9-8.2-3.9 0-9.2 2.3-12.8 6v20.6c0 2.6-.4 4.5-.4 4.5l6.9.9-.3 2.1-18.5.5v-2.4zM398.8 367.1c3.1 0 6.1.5 6.1.5v-12.3c0-3.7-.1-5.8-2.6-5.8h-3.6v-2.3c9.9-2.1 13.8-3.9 13.8-3.9l.3.3s-.9 3.2-.9 9.8v45.2c0 4.9 2 4.9 4.8 4.9h2.4l-.3 2.3c-9.4.9-13.7 1.6-13.7 1.6l-.3-.3s.3-2.4.3-4.5v-1.8c-2.3 3.4-5.8 7-12.3 7-10.6 0-16.1-9.3-16.1-18.6.1-10.9 7.4-22.1 22.1-22.1zm6.1 31.9v-24.1c0-3.9-3.4-4.5-6.2-4.5-8.8 0-14.4 6.3-14.4 16.2 0 8.2 3.9 16.2 11.7 16.2 4.1 0 7.5-2.4 8.9-3.8zM429.9 397.5c2.8 0 5.2 2.3 5.2 5.1s-2.3 5.1-5.2 5.1c-2.8 0-5.1-2.3-5.1-5.1s2.3-5.1 5.1-5.1zM464 404.3c3.9-.4 6.2-2.2 6.2-5.3v-38.6c0-5.9-1.4-7.6-7-8.7v-2.1h2.6c4.2 0 8.6-.3 8.6-.3s1 2 3.2 4.5l31.1 35.9c1.1 1.4 2.5 3.2 3.4 4.5v-35.7c0-3.8-.1-5.8-7-6.4v-2.4h16.3l.4 1.2s-5.9 1.6-5.9 8.8v47.7h-2.2l-36.5-43.1c-1-1.2-2.2-2.8-3.1-4.1v39c0 2.6-.4 4.6-.4 4.6l7.7.5-.3 2.4-17.1.3v-2.7zM547 367.1c12.5 0 19 8.2 19 18.8 0 10.6-6.6 21.9-20.3 21.9-12.1 0-18.8-8.5-18.8-19.5-.1-10 5.5-21.2 20.1-21.2zm-.2 37.8c7.3 0 11.2-7.4 11.2-16.6 0-8.5-3.4-18.3-12.1-18.3-7.9 0-11.2 8.1-11.2 16.3 0 8.6 3.5 18.6 12.1 18.6zM574 400.1l6.6-3.5c2.6 2.7 3.9 6 3.9 9.6 0 7.2-3.9 11.3-8.7 15.3l-2.1-2.2c3-2.6 5.9-5.4 5.9-9.1 0-2.7-1.8-4.9-5.6-7v-3.1zM611.6 404.5c3.9-.4 5.3-2.5 5.3-5.6V378c0-3.7-.1-5.8-2.6-5.8h-3.9v-2.3c12.5-2.9 14.3-4 14.3-4l.1.3s-.9 2.8-.9 9.8v23c0 2.6-.4 4.6-.4 4.6l7.3.8-.3 2.1-18.9.5v-2.5zm3.5-50.8c0-2.5 2.1-4.6 4.6-4.6 2.5 0 4.6 2.1 4.6 4.6 0 2.5-2.1 4.6-4.6 4.6-2.5 0-4.6-2.1-4.6-4.6zM635.4 404.5c3.9-.4 5.3-2.5 5.3-5.6V378c0-3.7-.1-5.8-2.6-5.8h-3.9v-2.3c8.4-1.7 13.7-4 13.7-4l.3.3s-.8 2.8-.9 10.5c3.1-4.6 9.1-9.5 16.3-9.5 5.9 0 9.8 3.3 9.8 11.6v20.3c0 2.6-.4 4.5-.4 4.5l7.3.9-.3 2.1-18.5.5v-2.5c3.9-.4 4.9-2.5 4.9-5.6v-18.4c0-6.5-2.5-8.2-5.9-8.2-3.9 0-9.2 2.3-12.8 6V399c0 2.6-.4 4.5-.4 4.5l6.9.9-.3 2.1-18.5.5v-2.5zM706.4 367.1c3.1 0 6.1.5 6.1.5v-12.3c0-3.7-.1-5.8-2.6-5.8h-3.6v-2.3c9.9-2.1 13.8-3.9 13.8-3.9l.3.3s-.9 3.2-.9 9.8v45.2c0 4.9 2 4.9 4.8 4.9h2.4l-.3 2.3c-9.4.9-13.7 1.6-13.7 1.6l-.3-.3s.3-2.4.3-4.5v-1.8c-2.3 3.4-5.8 7-12.3 7-10.6 0-16.1-9.3-16.1-18.6.1-10.9 7.4-22.1 22.1-22.1zm6.1 31.9v-24.1c0-3.9-3.4-4.5-6.2-4.5-8.8 0-14.4 6.3-14.4 16.2 0 8.2 3.9 16.2 11.7 16.2 4.2 0 7.5-2.4 8.9-3.8z"/><path fill="#FF1D25" d="M748.9 367.1c7.4 0 14.7 4.8 14.9 14.2 0 0-2.2.9-3.9 1.1l-21.4 3.1-.9 1c.3 7.8 4.3 15.4 13.9 15.4 7 0 11.2-4.1 11.2-4.1l.9 1.8s-4.5 8.1-14.7 8.1c-12.2 0-18.2-9.5-18.2-19.6.1-11.6 7.8-21 18.2-21zm-11.1 15.4l18-2.3s-.7-9.8-8.2-9.8c-5.8 0-9 5.6-9.8 12.1z"/><path d="M788.4 367.1c7.4 0 14.7 4.8 14.9 14.2 0 0-2.2.9-3.9 1.1l-21.4 3.1-.9 1c.3 7.8 4.3 15.4 13.9 15.4 7 0 11.2-4.1 11.2-4.1l.9 1.8s-4.5 8.1-14.7 8.1c-12.2 0-18.2-9.5-18.2-19.6 0-11.6 7.8-21 18.2-21zm-11.1 15.4l18-2.3s-.7-9.8-8.2-9.8c-5.8 0-9 5.6-9.8 12.1zM831.6 367.1c3.1 0 6.1.5 6.1.5v-12.3c0-3.7-.1-5.8-2.6-5.8h-3.6v-2.3c9.9-2.1 13.8-3.9 13.8-3.9l.3.3s-.9 3.2-.9 9.8v45.2c0 4.9 2 4.9 4.8 4.9h2.4l-.3 2.3c-9.4.9-13.7 1.6-13.7 1.6l-.3-.3s.3-2.4.3-4.5v-1.8c-2.3 3.4-5.8 7-12.3 7-10.6 0-16.1-9.3-16.1-18.6.1-10.9 7.4-22.1 22.1-22.1zm6.1 31.9v-24.1c0-3.9-3.4-4.5-6.2-4.5-8.8 0-14.4 6.3-14.4 16.2 0 8.2 3.9 16.2 11.7 16.2 4.2 0 7.5-2.4 8.9-3.8zM859.3 400.1l6.6-3.5c2.6 2.7 3.9 6 3.9 9.6 0 7.2-3.9 11.3-8.7 15.3l-2.1-2.2c3-2.6 5.9-5.4 5.9-9.1 0-2.7-1.8-4.9-5.6-7v-3.1zm5-32c2.8 0 5.1 2.3 5.1 5.2 0 2.8-2.3 5.1-5.1 5.1s-5.1-2.3-5.1-5.1 2.3-5.2 5.1-5.2zM902.8 378.1c0-2.5.3-5.6.3-5.6h-5.7v-2.6s3.8-.8 5.8-2.7l3.2-9.4 3.9.1.3.3s-.8 2.5-.8 8.6v1.3h13.4l-.6 4.1h-11.8l-.9.9v21.8c0 5 1.5 7.7 6 7.7 3.9 0 7.7-1.8 7.7-1.8l1.1 1.6s-4.9 5.3-12.4 5.3c-6.1 0-9.5-3.4-9.5-11.2v-18.4zM927.5 404.5c3.9-.4 5.3-2.5 5.3-5.6v-43.6c0-3.7-.1-5.8-2.6-5.8h-3.6v-2.3c9.9-2.1 13.8-3.9 13.8-3.9l.3.3s-.9 3.2-.9 9.8V370c0 3.9-.3 5.7-.3 6.4 3.1-4.5 9.1-9.3 16.3-9.3 5.9 0 9.8 3.3 9.8 11.6V399c0 2.6-.4 4.6-.4 4.6l7.3.8-.3 2.1-18.5.5v-2.5c3.5-.4 4.9-2.5 4.9-5.6v-18.4c0-6.5-2.5-8.2-5.9-8.2-3.9 0-9.2 2.4-12.8 5.8v20.8c0 2.6-.4 4.6-.4 4.6l6.9.8-.3 2.1-18.5.5v-2.4z"/><path fill="#FF1D25" d="M994.7 367.1c7.4 0 14.7 4.8 14.9 14.2 0 0-2.2.9-3.9 1.1l-21.4 3.1-.9 1c.3 7.8 4.3 15.4 13.9 15.4 7 0 11.2-4.1 11.2-4.1l.9 1.8s-4.5 8.1-14.7 8.1c-12.2 0-18.2-9.5-18.2-19.6.1-11.6 7.8-21 18.2-21zm-11.1 15.4l18-2.3s-.7-9.8-8.2-9.8c-5.7 0-9 5.6-9.8 12.1z"/><path d="M3.2 539.7c3.9-2.1 4.5-4.1 4.5-8.1v-39.1c0-3.7-.1-5.8-2.6-5.8H1.6v-2.3c8.4-1.7 13.5-4 13.5-4l.3.3s-.5 2.1-.9 7.6c2.3-2.9 5.6-6.7 12.4-6.7 10.5 0 15.6 9.3 15.6 18.7 0 10.9-7 22-22.1 22-2.3 0-4.1-.3-5.8-.5v9.9c0 2.6-.4 4.9-.4 4.9h9l-.3 2.1s-13.6 1.6-19.7 3.7v-2.7zm31.8-37c0-8.2-3.6-16.2-11.2-16.2-3.3 0-6.4 1.5-9.1 3.6v24.2c0 4 3.3 4.6 6.2 4.6 8.9.1 14.1-6.4 14.1-16.2zM47.9 519c3.9-.4 5.3-2.5 5.3-5.6v-43.6c0-3.7-.1-5.8-2.6-5.8H47v-2.3c9.9-2.1 13.8-3.9 13.8-3.9l.3.3s-.9 3.2-.9 9.8v45.6c0 2.6-.4 4.6-.4 4.6l7.3.8-.3 2.1-18.9.5V519zM71.7 519c3.9-.4 5.3-2.5 5.3-5.6v-20.9c0-3.7-.1-5.8-2.6-5.8h-3.9v-2.3c12.5-2.9 14.3-4 14.3-4l.1.3s-.9 2.8-.9 9.8v23c0 2.6-.4 4.6-.4 4.6l7.3.8-.3 2.1-18.9.5V519zm3.4-50.8c0-2.5 2.1-4.6 4.6-4.6 2.5 0 4.6 2.1 4.6 4.6 0 2.5-2.1 4.6-4.6 4.6-2.5 0-4.6-2.2-4.6-4.6zM113.7 499.7l2.9-.4c.1-1.8.1-6.8-.3-9.2-.6-3.2-2.2-5.5-5.4-5.5-5.8 0-9.1 8.2-9.1 8.2h-2.7l-1.5-6.4s6.3-4.8 15.9-4.8c8.1 0 10.2 3.3 10.2 12.3v19.7c0 2.7.3 4 2.3 4 2.3 0 4.7-1.7 4.7-1.7l1.1 1.8s-4 4.5-9.1 4.5c-3.3 0-5.8-1.9-5.8-6.1V514s-4.5 8.2-13.4 8.2c-5.7 0-8.9-4-8.9-8.7 0-8.2 10.2-12.5 19.1-13.8zm2.9 12.5v-10.1l-2.7.4c-4.9.8-11.8 3.3-11.8 9.5 0 3.4 2.2 5.3 4.8 5.3 3.4 0 7.5-3.2 9.7-5.1zM134.9 519c3.9-.4 5.3-2.5 5.3-5.6v-20.9c0-3.7-.1-5.8-2.6-5.8h-3.9v-2.3c8.4-1.7 13.7-4 13.7-4l.3.3s-.8 2.8-.9 10.5c3.1-4.6 9.1-9.5 16.3-9.5 5.9 0 9.8 3.3 9.8 11.6v20.3c0 2.6-.4 4.5-.4 4.5l7.3.9-.3 2.1-18.5.5V519c3.9-.4 4.9-2.5 4.9-5.6V495c0-6.5-2.5-8.2-5.9-8.2-3.9 0-9.2 2.3-12.8 6v20.6c0 2.6-.4 4.5-.4 4.5l6.9.9-.3 2.1-18.5.5V519zM188 492.5c0-2.5.3-5.6.3-5.6h-5.7v-2.6s3.8-.8 5.8-2.7l3.2-9.4 3.9.1.3.3s-.8 2.5-.8 8.6v1.3h13.4l-.6 4.1H196l-.9.9v21.8c0 5 1.5 7.7 6 7.7 3.9 0 7.7-1.8 7.7-1.8l1.1 1.6s-4.9 5.3-12.4 5.3c-6.1 0-9.5-3.4-9.5-11.2v-18.4zM215 514.5l6.6-3.5c2.6 2.7 3.9 6 3.9 9.6 0 7.2-3.9 11.3-8.7 15.3l-2.1-2.2c3-2.6 5.9-5.4 5.9-9.1 0-2.7-1.8-4.9-5.6-7v-3.1zM256.9 492.5c0-2.5.3-5.6.3-5.6h-5.7v-2.6s3.8-.8 5.8-2.7l3.2-9.4 3.9.1.3.3s-.8 2.5-.8 8.6v1.3h13.4l-.6 4.1h-11.8l-.9.9v21.8c0 5 1.5 7.7 6 7.7 3.9 0 7.7-1.8 7.7-1.8l1.1 1.6s-4.9 5.3-12.4 5.3c-6.1 0-9.5-3.4-9.5-11.2v-18.4zM281.6 519c3.9-.4 5.3-2.5 5.3-5.6v-43.6c0-3.7-.1-5.8-2.6-5.8h-3.6v-2.3c9.9-2.1 13.8-3.9 13.8-3.9l.3.3s-.9 3.2-.9 9.8v16.7c0 3.9-.3 5.7-.3 6.4 3.1-4.5 9.1-9.3 16.3-9.3 5.9 0 9.8 3.3 9.8 11.6v20.3c0 2.6-.4 4.6-.4 4.6l7.3.8-.3 2.1-18.5.5V519c3.5-.4 4.9-2.5 4.9-5.6V495c0-6.5-2.5-8.2-5.9-8.2-3.9 0-9.2 2.4-12.8 5.8v20.8c0 2.6-.4 4.6-.4 4.6l6.9.8-.3 2.1-18.5.5V519zM349 499.7l2.9-.4c.1-1.8.1-6.8-.3-9.2-.6-3.2-2.2-5.5-5.4-5.5-5.8 0-9.1 8.2-9.1 8.2h-2.7l-1.5-6.4s6.3-4.8 15.9-4.8c8.1 0 10.2 3.3 10.2 12.3v19.7c0 2.7.3 4 2.3 4 2.3 0 4.7-1.7 4.7-1.7l1.1 1.8s-4 4.5-9.1 4.5c-3.3 0-5.8-1.9-5.8-6.1V514s-4.5 8.2-13.4 8.2c-5.7 0-8.9-4-8.9-8.7-.1-8.2 10.2-12.5 19.1-13.8zm2.9 12.5v-10.1l-2.7.4c-4.9.8-11.8 3.3-11.8 9.5 0 3.4 2.2 5.3 4.8 5.3 3.4 0 7.5-3.2 9.7-5.1zM374.4 492.5c0-2.5.3-5.6.3-5.6H369v-2.6s3.8-.8 5.8-2.7l3.2-9.4 3.9.1.3.3s-.8 2.5-.8 8.6v1.3h13.4l-.6 4.1h-11.8l-.9.9v21.8c0 5 1.5 7.7 6 7.7 3.9 0 7.7-1.8 7.7-1.8l1.1 1.6s-4.9 5.3-12.4 5.3c-6.1 0-9.5-3.4-9.5-11.2v-18.4zM423.5 492.5c0-2.5.3-5.6.3-5.6h-5.7v-2.6s3.8-.8 5.8-2.7l3.2-9.4 3.9.1.3.3s-.8 2.5-.8 8.6v1.3h13.4l-.6 4.1h-11.8l-.9.9v21.8c0 5 1.5 7.7 6 7.7 3.9 0 7.7-1.8 7.7-1.8l1.1 1.6s-4.9 5.3-12.4 5.3c-6.1 0-9.5-3.4-9.5-11.2v-18.4zM448.2 519c3.9-.4 5.3-2.5 5.3-5.6v-43.6c0-3.7-.1-5.8-2.6-5.8h-3.6v-2.3c9.9-2.1 13.8-3.9 13.8-3.9l.3.3s-.9 3.2-.9 9.8v16.7c0 3.9-.3 5.7-.3 6.4 3.1-4.5 9.1-9.3 16.3-9.3 5.9 0 9.8 3.3 9.8 11.6v20.3c0 2.6-.4 4.6-.4 4.6l7.3.8-.3 2.1-18.5.5V519c3.5-.4 4.9-2.5 4.9-5.6V495c0-6.5-2.5-8.2-5.9-8.2-3.9 0-9.2 2.4-12.8 5.8v20.8c0 2.6-.4 4.6-.4 4.6l6.9.8-.3 2.1-18.5.5V519z"/><path fill="#FF1D25" d="M515.4 481.5c7.4 0 14.7 4.8 14.9 14.2 0 0-2.2.9-3.9 1.1L505 500l-.9 1c.3 7.8 4.3 15.4 13.9 15.4 7 0 11.2-4.1 11.2-4.1l.9 1.8s-4.5 8.1-14.7 8.1c-12.2 0-18.2-9.5-18.2-19.6.1-11.6 7.8-21.1 18.2-21.1zm-11.1 15.4l18-2.3s-.7-9.8-8.2-9.8c-5.7 0-9 5.7-9.8 12.1z"/><path d="M557.3 509.9h2.6c.5 7.3 5.6 9.4 9.7 9.4 4.2 0 7.1-2.2 7.1-5.8 0-9.2-19.7-8.6-19.7-21 0-6.4 4.9-10.9 14-10.9 5.1 0 10.7 1.5 10.7 1.5l-1.7 8.8h-2.7c0-7-5.9-7.5-7.7-7.5-4.6 0-6.4 2.8-6.4 5.5 0 9.1 19.6 7.5 19.6 21 0 7.1-5.6 11.2-13.7 11.2-3.9 0-12.9-.9-12.9-5.8 0-1.6 1.1-6.4 1.1-6.4zM588.4 519c3.9-.4 5.3-2.5 5.3-5.6v-43.6c0-3.7-.1-5.8-2.6-5.8h-3.6v-2.3c9.9-2.1 13.8-3.9 13.8-3.9l.3.3s-.9 3.2-.9 9.8v45.6c0 2.6-.4 4.6-.4 4.6l7.3.8-.3 2.1-18.9.5V519zM612.1 519c3.9-.4 5.3-2.5 5.3-5.6v-20.9c0-3.7-.1-5.8-2.6-5.8H611v-2.3c12.5-2.9 14.3-4 14.3-4l.1.3s-.9 2.8-.9 9.8v23c0 2.6-.4 4.6-.4 4.6l7.3.8-.3 2.1-18.9.5V519zm3.5-50.8c0-2.5 2.1-4.6 4.6-4.6 2.5 0 4.6 2.1 4.6 4.6 0 2.5-2.1 4.6-4.6 4.6-2.5 0-4.6-2.2-4.6-4.6z"/><path fill="#FF1D25" d="M646.5 508c-5.8-1.6-10.3-5.8-10.3-12.6 0-8.9 7.6-13.8 16.1-13.8 5 0 7 1.7 11.3 1.7h4.1c2.7 0 5.7-1.1 5.7-1.1l-.8 5.6H668c-1.9 0-3-.3-3-.3s3.5 3 3.5 8.4c0 8.1-7.7 12.9-16.3 12.9-1.5 0-2.8-.1-4.2-.3-.6.7-2.1 2.4-2.1 3.6 0 2.3 5.1 2.9 11.8 4.3 7.2 1.5 14.9 3.9 14.9 10.8 0 8.4-11.2 14.4-21.8 14.4-7.7 0-16.1-3.2-16.1-10.4 0-6.6 6.9-9.2 10.8-10.7-4-1-7.1-2.6-7.1-5.5 0-3.7 5-5.4 8.1-7zm1.1 12.9c-2.1 1.4-6.1 4.5-6.1 9.3 0 5.3 5.2 8.2 10.8 8.2 6.3 0 13.2-3.4 13.2-8.7 0-4.4-5.1-6.1-10.7-7.3-2.4-.6-4.9-1-7.2-1.5zm13.5-25c0-5.5-2.8-11.3-9-11.3-6 0-8.4 5.2-8.4 10.6 0 5.3 2.5 10.6 8.8 10.6 6.2 0 8.6-4.9 8.6-9.9zM676.5 519c3.9-.4 5.3-2.5 5.3-5.6v-43.6c0-3.7-.1-5.8-2.6-5.8h-3.6v-2.3c9.9-2.1 13.8-3.9 13.8-3.9l.3.3s-.9 3.2-.9 9.8v16.7c0 3.9-.3 5.7-.3 6.4 3.1-4.5 9.1-9.3 16.3-9.3 5.9 0 9.8 3.3 9.8 11.6v20.3c0 2.6-.4 4.6-.4 4.6l7.3.8-.3 2.1-18.5.5V519c3.5-.4 4.9-2.5 4.9-5.6V495c0-6.5-2.5-8.2-5.9-8.2-3.9 0-9.2 2.4-12.8 5.8v20.8c0 2.6-.4 4.6-.4 4.6l6.9.8-.3 2.1-18.5.5V519z"/><path d="M729.6 492.5c0-2.5.3-5.6.3-5.6h-5.7v-2.6s3.8-.8 5.8-2.7l3.2-9.4 3.9.1.3.3s-.8 2.5-.8 8.6v1.3H750l-.6 4.1h-11.8l-.9.9v21.8c0 5 1.5 7.7 6 7.7 3.9 0 7.7-1.8 7.7-1.8l1.1 1.6s-4.9 5.3-12.4 5.3c-6.1 0-9.5-3.4-9.5-11.2v-18.4zM773.2 481.5c7.4 0 14.7 4.8 14.9 14.2 0 0-2.2.9-3.9 1.1l-21.4 3.1-.9 1c.3 7.8 4.3 15.4 13.9 15.4 7 0 11.2-4.1 11.2-4.1l.9 1.8s-4.5 8.1-14.7 8.1c-12.2 0-18.2-9.5-18.2-19.6.1-11.5 7.9-21 18.2-21zm-11 15.4l18-2.3s-.7-9.8-8.2-9.8c-5.8 0-9.1 5.7-9.8 12.1zM795.8 509.9h2.6c.5 7.3 5.6 9.4 9.7 9.4 4.2 0 7.1-2.2 7.1-5.8 0-9.2-19.7-8.6-19.7-21 0-6.4 4.9-10.9 14-10.9 5.1 0 10.7 1.5 10.7 1.5l-1.7 8.8h-2.7c0-7-5.9-7.5-7.7-7.5-4.6 0-6.4 2.8-6.4 5.5 0 9.1 19.6 7.5 19.6 21 0 7.1-5.6 11.2-13.7 11.2-3.9 0-12.9-.9-12.9-5.8 0-1.6 1.1-6.4 1.1-6.4zM832 492.5c0-2.5.3-5.6.3-5.6h-5.7v-2.6s3.8-.8 5.8-2.7l3.2-9.4 3.9.1.3.3s-.8 2.5-.8 8.6v1.3h13.4l-.6 4.1H840l-.9.9v21.8c0 5 1.5 7.7 6 7.7 3.9 0 7.7-1.8 7.7-1.8l1.1 1.6s-4.9 5.3-12.4 5.3c-6.1 0-9.5-3.4-9.5-11.2v-18.4zM895.1 499.7l2.9-.4c.1-1.8.1-6.8-.3-9.2-.6-3.2-2.2-5.5-5.4-5.5-5.8 0-9.1 8.2-9.1 8.2h-2.7l-1.5-6.4s6.3-4.8 15.9-4.8c8.1 0 10.2 3.3 10.2 12.3v19.7c0 2.7.3 4 2.3 4 2.3 0 4.7-1.7 4.7-1.7l1.1 1.8s-4 4.5-9.1 4.5c-3.3 0-5.8-1.9-5.8-6.1V514s-4.5 8.2-13.4 8.2c-5.7 0-8.9-4-8.9-8.7 0-8.2 10.2-12.5 19.1-13.8zm2.9 12.5v-10.1l-2.7.4c-4.9.8-11.8 3.3-11.8 9.5 0 3.4 2.2 5.3 4.8 5.3 3.4 0 7.5-3.2 9.7-5.1zM926.9 508c-5.8-1.6-10.3-5.8-10.3-12.6 0-8.9 7.6-13.8 16.1-13.8 5 0 7 1.7 11.3 1.7h4.1c2.7 0 5.7-1.1 5.7-1.1l-.8 5.6h-4.5c-1.9 0-3-.3-3-.3s3.5 3 3.5 8.4c0 8.1-7.7 12.9-16.3 12.9-1.5 0-2.8-.1-4.2-.3-.6.7-2.1 2.4-2.1 3.6 0 2.3 5.2 2.9 11.8 4.3 7.2 1.5 14.9 3.9 14.9 10.8 0 8.4-11.2 14.4-21.8 14.4-7.7 0-16.1-3.2-16.1-10.4 0-6.6 6.9-9.2 10.8-10.7-4-1-7.1-2.6-7.1-5.5-.1-3.7 4.9-5.4 8-7zm1.1 12.9c-2.1 1.4-6.1 4.5-6.1 9.3 0 5.3 5.1 8.2 10.8 8.2 6.3 0 13.2-3.4 13.2-8.7 0-4.4-5.1-6.1-10.7-7.3-2.4-.6-4.9-1-7.2-1.5zm13.5-25c0-5.5-2.8-11.3-9-11.3-6 0-8.4 5.2-8.4 10.6 0 5.3 2.5 10.6 8.8 10.6 6.2 0 8.6-4.9 8.6-9.9zM957.8 519c3.9-.4 5.3-2.5 5.3-5.6v-20.9c0-3.7-.1-5.8-2.6-5.8h-3.9v-2.3c12.5-2.9 14.3-4 14.3-4l.1.3s-.9 2.8-.9 9.8v23c0 2.6-.4 4.6-.4 4.6l7.3.8-.3 2.1-18.9.5V519zm3.4-50.8c0-2.5 2.1-4.6 4.6-4.6 2.5 0 4.6 2.1 4.6 4.6 0 2.5-2.1 4.6-4.6 4.6-2.4 0-4.6-2.2-4.6-4.6zM985.8 492.5c0-2.5.3-5.6.3-5.6h-5.7v-2.6s3.8-.8 5.8-2.7l3.2-9.4 3.9.1.3.3s-.8 2.5-.8 8.6v1.3h13.4l-.6 4.1h-11.8l-.9.9v21.8c0 5 1.5 7.7 6 7.7 3.9 0 7.7-1.8 7.7-1.8l1.1 1.6s-4.9 5.3-12.4 5.3c-6.1 0-9.5-3.4-9.5-11.2v-18.4zM6.4 626.8v-42.6c0-3.7-.1-5.8-2.6-5.8H.3v-2.3c9.9-2.1 13.8-3.9 13.8-3.9l.3.3s-.9 3.2-.9 9.8V596c0 3.9-.3 5.7-.3 6.4 2.3-2.8 5.8-6.4 12.2-6.4 10.5 0 15.9 9.3 15.9 18.7 0 10.8-7.1 22-22.1 22-4.6 0-10.1-1-13.1-1l-.3-.3c-.1 0 .6-3.8.6-8.6zm13.3 6.6c8.3 0 14-6.4 14-16.2 0-8.2-3.9-16.2-11.7-16.2-3.8 0-7.3 2-8.6 3.2v28.1c.1-.1 2.7 1.1 6.3 1.1zM65.8 596c7.4 0 14.7 4.8 14.9 14.2 0 0-2.2.9-3.9 1.1l-21.4 3.1-.9 1c.3 7.8 4.3 15.4 13.9 15.4 7 0 11.2-4.1 11.2-4.1l.9 1.8s-4.5 8.1-14.7 8.1c-12.2 0-18.2-9.5-18.2-19.6.1-11.6 7.8-21 18.2-21zm-11 15.4l18-2.3s-.7-9.8-8.2-9.8c-5.8 0-9.1 5.6-9.8 12.1zM91.4 607c0-2.5.3-5.6.3-5.6H86v-2.6s3.8-.8 5.8-2.7l3.2-9.4 3.9.1.3.3s-.8 2.5-.8 8.6v1.3h13.4l-.6 4.1H99.3l-.9.9v21.8c0 5 1.5 7.7 6 7.7 3.9 0 7.7-1.8 7.7-1.8l1.1 1.6s-4.9 5.3-12.4 5.3c-6.1 0-9.5-3.4-9.5-11.2V607zM118.6 604.1c-1.7-4.4-4.7-5-4.7-5V597h3.9c5.4 0 8.4-.3 8.4-.3l.3.3s-1.6 3.7-.1 7.9l6.7 18.1 1.4 4.6 8-19c.4-1.1.9-2.6.5-3.9l-.2-.6c-1.6-4.4-4.7-5-4.7-5V597h3.9c5.4 0 8.4-.3 8.4-.3l.3.3s-1.6 3.7-.1 7.9l6.6 17.8c.5 1.5 1 3.3 1.5 4.9l9.4-22.2c1.5-3.4-1-5.4-4.3-6.2V597h11.5l.4 1.4s-1.5.7-3.1 4.5l-14.4 33.8-3.2-1.1-9.9-25.2-11.2 26.3-3.2-1.1-12.1-31.5z"/><path fill="#FF1D25" d="M197.8 596c7.4 0 14.7 4.8 14.9 14.2 0 0-2.2.9-3.9 1.1l-21.4 3.1-.9 1c.3 7.8 4.3 15.4 13.9 15.4 7 0 11.2-4.1 11.2-4.1l.9 1.8s-4.5 8.1-14.7 8.1c-12.2 0-18.2-9.5-18.2-19.6 0-11.6 7.8-21 18.2-21zm-11.1 15.4l18-2.3s-.7-9.8-8.2-9.8c-5.8 0-9 5.6-9.8 12.1z"/><path d="M237.2 596c7.4 0 14.7 4.8 14.9 14.2 0 0-2.2.9-3.9 1.1l-21.4 3.1-.9 1c.3 7.8 4.3 15.4 13.9 15.4 7 0 11.2-4.1 11.2-4.1l.9 1.8s-4.5 8.1-14.7 8.1c-12.2 0-18.2-9.5-18.2-19.6.1-11.6 7.9-21 18.2-21zm-11 15.4l18-2.3s-.7-9.8-8.2-9.8c-5.8 0-9.1 5.6-9.8 12.1zM258.6 633.4c3.9-.4 5.3-2.5 5.3-5.6V607c0-3.7-.1-5.8-2.6-5.8h-3.9v-2.3c8.4-1.7 13.7-4 13.7-4l.3.3s-.8 2.8-.9 10.5c3.1-4.6 9.1-9.5 16.3-9.5 5.9 0 9.8 3.3 9.8 11.6v20.3c0 2.6-.4 4.5-.4 4.5l7.3.9-.3 2.1-18.5.5v-2.5c3.9-.4 4.9-2.5 4.9-5.6v-18.4c0-6.5-2.5-8.2-5.9-8.2-3.9 0-9.2 2.3-12.8 6V628c0 2.6-.4 4.5-.4 4.5l6.9.9-.3 2.1-18.5.5v-2.6zM331.2 607c0-2.5.3-5.6.3-5.6h-5.7v-2.6s3.8-.8 5.8-2.7l3.2-9.4 3.9.1.3.3s-.8 2.5-.8 8.6v1.3h13.4l-.6 4.1h-11.8l-.9.9v21.8c0 5 1.5 7.7 6 7.7 3.9 0 7.7-1.8 7.7-1.8l1.1 1.6s-4.9 5.3-12.4 5.3c-6.1 0-9.5-3.4-9.5-11.2V607zM355.9 633.4c3.9-.4 5.3-2.5 5.3-5.6v-43.6c0-3.7-.1-5.8-2.6-5.8H355v-2.3c9.9-2.1 13.8-3.9 13.8-3.9l.3.3s-.9 3.2-.9 9.8V599c0 3.9-.3 5.7-.3 6.4 3.1-4.5 9.1-9.3 16.3-9.3 5.9 0 9.8 3.3 9.8 11.6V628c0 2.6-.4 4.6-.4 4.6l7.3.8-.3 2.1-18.5.5v-2.5c3.5-.4 4.9-2.5 4.9-5.6v-18.4c0-6.5-2.5-8.2-5.9-8.2-3.9 0-9.2 2.4-12.8 5.8v20.8c0 2.6-.4 4.6-.4 4.6l6.9.8-.3 2.1-18.5.5v-2.5z"/><path fill="#FF1D25" d="M423.1 596c7.4 0 14.7 4.8 14.9 14.2 0 0-2.2.9-3.9 1.1l-21.4 3.1-.9 1c.3 7.8 4.3 15.4 13.9 15.4 7 0 11.2-4.1 11.2-4.1l.9 1.8s-4.5 8.1-14.7 8.1c-12.2 0-18.2-9.5-18.2-19.6.1-11.6 7.9-21 18.2-21zm-11 15.4l18-2.3s-.7-9.8-8.2-9.8c-5.8 0-9.1 5.6-9.8 12.1z"/><path d="M467.1 626.8v-42.6c0-3.7-.1-5.8-2.6-5.8h-3.6v-2.3c9.9-2.1 13.8-3.9 13.8-3.9l.3.3s-.9 3.2-.9 9.8V596c0 3.9-.3 5.7-.3 6.4 2.3-2.8 5.8-6.4 12.2-6.4 10.5 0 15.9 9.3 15.9 18.7 0 10.8-7.1 22-22.1 22-4.6 0-10.1-1-13.1-1l-.3-.3c-.1 0 .7-3.8.7-8.6zm13.3 6.6c8.3 0 14-6.4 14-16.2 0-8.2-3.9-16.2-11.7-16.2-3.8 0-7.3 2-8.6 3.2v28.1c0-.1 2.7 1.1 6.3 1.1zM508.4 633.4c3.9-.4 5.3-2.5 5.3-5.6V607c0-3.7-.1-5.8-2.6-5.8h-3.9v-2.3c8.4-1.7 13.9-4 13.9-4l.3.3s-.8 2.8-1 10.9c2.6-4.8 7.1-10 11.6-10 2.1 0 4.6 1 4.6 3.9 0 2.6-1.8 4.2-4 4.2-2 0-2.2-1.5-4.2-1.5-2.9 0-5.8 2.8-7.6 5v20.2c0 2.6-.4 4.6-.4 4.6l8.2.8-.3 2.1-19.7.5v-2.5zM558.8 614.1l2.9-.4c.1-1.8.1-6.8-.3-9.2-.6-3.2-2.2-5.5-5.4-5.5-5.8 0-9.1 8.2-9.1 8.2h-2.7l-1.5-6.4s6.3-4.8 15.9-4.8c8.1 0 10.2 3.3 10.2 12.3V628c0 2.7.3 4 2.3 4 2.3 0 4.7-1.7 4.7-1.7l1.1 1.8s-4 4.5-9.1 4.5c-3.3 0-5.8-1.9-5.8-6.1v-2.1s-4.5 8.2-13.4 8.2c-5.7 0-8.9-4-8.9-8.7 0-8.1 10.2-12.4 19.1-13.8zm3 12.5v-10.1l-2.7.4c-4.9.8-11.8 3.3-11.8 9.5 0 3.4 2.2 5.3 4.8 5.3 3.3.1 7.4-3.2 9.7-5.1zM580 633.4c3.9-.4 5.3-2.5 5.3-5.6V607c0-3.7-.1-5.8-2.6-5.8h-3.9v-2.3c8.4-1.7 13.7-4 13.7-4l.3.3s-.8 2.8-.9 10.5c3.1-4.6 9.1-9.5 16.3-9.5 5.9 0 9.8 3.3 9.8 11.6v20.3c0 2.6-.4 4.5-.4 4.5l7.3.9-.3 2.1-18.5.5v-2.5c3.9-.4 4.9-2.5 4.9-5.6v-18.4c0-6.5-2.5-8.2-5.9-8.2-3.9 0-9.2 2.3-12.8 6V628c0 2.6-.4 4.5-.4 4.5l6.9.9-.3 2.1-18.5.5v-2.6zM647.5 596c5.2 0 13.6 2.1 13.6 6.5 0 1.6-1.2 3.1-3.3 3.1-4.4 0-4.9-6.7-10.9-6.7-6.9 0-10.7 7.4-10.7 15.7 0 8.2 4 16.3 14.2 16.3 6.4 0 10-3.5 10-3.5l.9 1.8s-3.9 7.5-13.9 7.5c-12 0-18.2-9.7-18.2-19.6-.1-10.4 6.5-21.1 18.3-21.1zM666.1 633.4c3.9-.4 5.3-2.5 5.3-5.6v-43.6c0-3.7-.1-5.8-2.6-5.8h-3.6v-2.3c9.9-2.1 13.8-3.9 13.8-3.9l.3.3s-.9 3.2-.9 9.8V599c0 3.9-.3 5.7-.3 6.4 3.1-4.5 9.1-9.3 16.3-9.3 5.9 0 9.8 3.3 9.8 11.6V628c0 2.6-.4 4.6-.4 4.6l7.3.8-.3 2.1-18.5.5v-2.5c3.5-.4 4.9-2.5 4.9-5.6v-18.4c0-6.5-2.5-8.2-5.9-8.2-3.9 0-9.2 2.4-12.8 5.8v20.8c0 2.6-.4 4.6-.4 4.6l6.9.8-.3 2.1-18.5.5v-2.5zM733.3 596c7.4 0 14.7 4.8 14.9 14.2 0 0-2.2.9-3.9 1.1l-21.4 3.1-.9 1c.3 7.8 4.3 15.4 13.9 15.4 7 0 11.2-4.1 11.2-4.1l.9 1.8s-4.5 8.1-14.7 8.1c-12.2 0-18.2-9.5-18.2-19.6.1-11.6 7.9-21 18.2-21zm-11 15.4l18-2.3s-.7-9.8-8.2-9.8c-5.8 0-9.1 5.6-9.8 12.1zM755.9 624.3h2.6c.5 7.3 5.6 9.4 9.7 9.4 4.2 0 7.1-2.2 7.1-5.8 0-9.2-19.7-8.6-19.7-21 0-6.4 4.9-10.9 14-10.9 5.1 0 10.7 1.5 10.7 1.5l-1.7 8.8H776c0-7-5.9-7.5-7.7-7.5-4.6 0-6.4 2.8-6.4 5.5 0 9.1 19.6 7.5 19.6 21 0 7.1-5.6 11.2-13.7 11.2-3.9 0-12.9-.9-12.9-5.8-.1-1.6 1-6.4 1-6.4zM789.3 628.9l6.6-3.5c2.6 2.7 3.9 6 3.9 9.6 0 7.2-3.9 11.3-8.7 15.3l-2.1-2.2c3-2.6 5.9-5.4 5.9-9.1 0-2.7-1.8-4.9-5.6-7v-3.1zM845.3 614.1l2.9-.4c.1-1.8.1-6.8-.3-9.2-.6-3.2-2.2-5.5-5.4-5.5-5.8 0-9.1 8.2-9.1 8.2h-2.7l-1.5-6.4s6.3-4.8 15.9-4.8c8.1 0 10.2 3.3 10.2 12.3V628c0 2.7.3 4 2.3 4 2.3 0 4.7-1.7 4.7-1.7l1.1 1.8s-4 4.5-9.1 4.5c-3.3 0-5.8-1.9-5.8-6.1v-2.1s-4.5 8.2-13.4 8.2c-5.7 0-8.9-4-8.9-8.7-.1-8.1 10.1-12.4 19.1-13.8zm2.9 12.5v-10.1l-2.7.4c-4.9.8-11.8 3.3-11.8 9.5 0 3.4 2.2 5.3 4.8 5.3 3.3.1 7.4-3.2 9.7-5.1zM867.7 624.3h2.6c.5 7.3 5.6 9.4 9.7 9.4 4.2 0 7.1-2.2 7.1-5.8 0-9.2-19.7-8.6-19.7-21 0-6.4 4.9-10.9 14-10.9 5.1 0 10.7 1.5 10.7 1.5l-1.7 8.8h-2.7c0-7-5.9-7.5-7.7-7.5-4.6 0-6.4 2.8-6.4 5.5 0 9.1 19.6 7.5 19.6 21 0 7.1-5.6 11.2-13.7 11.2-3.9 0-12.9-.9-12.9-5.8-.1-1.6 1.1-6.4 1.1-6.4zM922.2 626.8v-42.6c0-3.7-.1-5.8-2.6-5.8H916v-2.3c9.9-2.1 13.8-3.9 13.8-3.9l.3.3s-.9 3.2-.9 9.8V596c0 3.9-.3 5.7-.3 6.4 2.3-2.8 5.8-6.4 12.2-6.4 10.5 0 15.9 9.3 15.9 18.7 0 10.8-7.1 22-22.1 22-4.6 0-10.1-1-13.1-1l-.3-.3c-.1 0 .7-3.8.7-8.6zm13.3 6.6c8.3 0 14-6.4 14-16.2 0-8.2-3.9-16.2-11.7-16.2-3.8 0-7.3 2-8.6 3.2v28.1c0-.1 2.7 1.1 6.3 1.1zM963.4 633.4c3.9-.4 5.3-2.5 5.3-5.6V607c0-3.7-.1-5.8-2.6-5.8h-3.9v-2.3c12.5-2.9 14.3-4 14.3-4l.1.3s-.9 2.8-.9 9.8v23c0 2.6-.4 4.6-.4 4.6l7.3.8-.3 2.1-18.9.5v-2.6zm3.5-50.8c0-2.5 2.1-4.6 4.6-4.6 2.5 0 4.6 2.1 4.6 4.6 0 2.5-2.1 4.6-4.6 4.6-2.5 0-4.6-2.1-4.6-4.6zM987.2 633.4c3.9-.4 5.3-2.5 5.3-5.6V607c0-3.7-.1-5.8-2.6-5.8H986v-2.3c8.4-1.7 13.9-4 13.9-4l.3.3s-.8 2.8-1 10.9c2.6-4.8 7.1-10 11.6-10 2.1 0 4.6 1 4.6 3.9 0 2.6-1.8 4.2-4 4.2-2 0-2.2-1.5-4.2-1.5-2.9 0-5.8 2.8-7.6 5v20.2c0 2.6-.4 4.6-.4 4.6l8.2.8-.3 2.1-19.7.5v-2.5zM7.4 721.4c0-2.5.3-5.6.3-5.6H2v-2.6s3.8-.8 5.8-2.7l3.2-9.4 3.9.1.3.3s-.8 2.5-.8 8.6v1.3h13.4l-.6 4.1H15.3l-.9.9v21.8c0 5 1.5 7.7 6 7.7 3.9 0 7.7-1.8 7.7-1.8l1.1 1.6s-4.9 5.3-12.4 5.3c-6.1 0-9.5-3.4-9.5-11.2v-18.4zM32.1 747.9c3.9-.4 5.3-2.5 5.3-5.6v-43.6c0-3.7-.1-5.8-2.6-5.8h-3.6v-2.3c9.9-2.1 13.8-3.9 13.8-3.9l.3.3s-.9 3.2-.9 9.8v16.7c0 3.9-.3 5.7-.3 6.4 3.1-4.5 9.1-9.3 16.3-9.3 5.9 0 9.8 3.3 9.8 11.6v20.3c0 2.6-.4 4.6-.4 4.6l7.3.8-.3 2.1-18.5.5V748c3.5-.4 4.9-2.5 4.9-5.6V724c0-6.5-2.5-8.2-5.9-8.2-3.9 0-9.2 2.4-12.8 5.8v20.8c0 2.6-.4 4.6-.4 4.6l6.9.8-.3 2.1-18.5.5v-2.5z"/><path fill="#FF1D25" d="M99.3 710.4c7.4 0 14.7 4.8 14.9 14.2 0 0-2.2.9-3.9 1.1l-21.4 3.1-.9 1c.3 7.8 4.3 15.4 13.9 15.4 7 0 11.2-4.1 11.2-4.1l.9 1.8s-4.5 8.1-14.7 8.1c-12.2 0-18.2-9.5-18.2-19.6.1-11.5 7.8-21 18.2-21zm-11.1 15.4l18-2.3s-.7-9.8-8.2-9.8c-5.7 0-9 5.7-9.8 12.1z"/><path d="M142.5 734.6h2.9c0 10.5 6.6 13.2 12.4 13.2 5.6 0 10.9-2.4 10.9-9 0-14.9-26.9-14.7-26.9-32.1 0-8.5 6.4-14.9 19.1-14.9 6.1 0 12.3 1.4 14.2 1.6l-2.7 13.4h-2.9c.9-6.4-2.4-11.8-9.6-11.8-5.8 0-10.6 2.7-10.6 8.9 0 15 26.9 13.6 26.9 32 0 10.3-8.8 15.1-19.1 15.1-7.5 0-16.6-2.6-16.6-8.8 0-1.2.3-2.4 2-7.6zM201.5 710.4c7.4 0 14.7 4.8 14.9 14.2 0 0-2.2.9-3.9 1.1l-21.4 3.1-.9 1c.3 7.8 4.3 15.4 13.9 15.4 7 0 11.2-4.1 11.2-4.1l.9 1.8s-4.5 8.1-14.7 8.1c-12.2 0-18.2-9.5-18.2-19.6.1-11.5 7.8-21 18.2-21zm-11 15.4l18-2.3s-.7-9.8-8.2-9.8c-5.8 0-9.1 5.7-9.8 12.1z"/><path fill="#FF1D25" d="M241.2 728.5l2.9-.4c.1-1.8.1-6.8-.3-9.2-.6-3.2-2.2-5.5-5.4-5.5-5.8 0-9.1 8.2-9.1 8.2h-2.7l-1.5-6.4s6.3-4.8 15.9-4.8c8.1 0 10.2 3.3 10.2 12.3v19.7c0 2.7.3 4 2.3 4 2.3 0 4.7-1.7 4.7-1.7l1.1 1.8s-4 4.5-9.1 4.5c-3.3 0-5.8-1.9-5.8-6.1V743s-4.5 8.2-13.4 8.2c-5.7 0-8.9-4-8.9-8.7-.1-8.3 10.2-12.6 19.1-14zm2.9 12.6V731l-2.7.4c-4.9.8-11.8 3.3-11.8 9.5 0 3.4 2.2 5.3 4.8 5.3 3.4 0 7.5-3.2 9.7-5.1z"/><path d="M283 747.6c3.8-.4 6.2-2.4 6.2-5.3v-41c0-4.1 0-5-6.4-6.3v-2.1h6.7c7.7 0 9.6-.3 9.6-.3l.4.3s-2.8 3.3-2.8 10.4v15.1h1.6s1.5-.9 2.9-2.3l16.7-16.7c1.6-1.6 1.7-3.9-2.4-4.4v-2.1h16.1l.4 1.2s-4.6 1-11.1 7.5l-16.2 16.1v.9l20.8 23.9c3.9 4.5 4.5 4.6 7.3 4.9l.9.1-.3 2.7h-12.6l-.3-.3s-.9-2.6-6.4-9.1L298 722.2h-1.4v20.2c0 2.5-.4 4.4-.4 4.4l7.7.8-.3 2.4-20.7.5v-2.9zM336.9 747.9c3.9-.4 5.3-2.5 5.3-5.6v-20.9c0-3.7-.1-5.8-2.6-5.8h-3.9v-2.3c12.5-2.9 14.3-4 14.3-4l.1.3s-.9 2.8-.9 9.8v23c0 2.6-.4 4.6-.4 4.6l7.3.8-.3 2.1-18.9.5v-2.5zm3.4-50.9c0-2.5 2.1-4.6 4.6-4.6 2.5 0 4.6 2.1 4.6 4.6 0 2.5-2.1 4.6-4.6 4.6-2.4.1-4.6-2.1-4.6-4.6zM360.7 747.9c3.9-.4 5.3-2.5 5.3-5.6v-20.9c0-3.7-.1-5.8-2.6-5.8h-3.9v-2.3c8.4-1.7 13.7-4 13.7-4l.3.3s-.8 2.8-.9 10.5c3.1-4.6 9.1-9.5 16.3-9.5 5.9 0 9.8 3.3 9.8 11.6v20.3c0 2.6-.4 4.5-.4 4.5l7.3.9-.3 2.1-18.5.5V748c3.9-.4 4.9-2.5 4.9-5.6V724c0-6.5-2.5-8.2-5.9-8.2-3.9 0-9.2 2.3-12.8 6v20.6c0 2.6-.4 4.5-.4 4.5l6.9.9-.3 2.1-18.5.5v-2.5zM420.3 736.9c-5.8-1.6-10.3-5.8-10.3-12.6 0-8.9 7.6-13.8 16-13.8 5 0 7 1.7 11.3 1.7h4.1c2.7 0 5.7-1.1 5.7-1.1l-.8 5.6h-4.5c-1.9 0-3-.3-3-.3s3.5 3 3.5 8.4c0 8.1-7.7 12.9-16.3 12.9-1.5 0-2.8-.1-4.2-.3-.6.7-2.1 2.4-2.1 3.6 0 2.3 5.1 2.9 11.8 4.3 7.2 1.5 14.9 3.9 14.9 10.8 0 8.4-11.2 14.4-21.8 14.4-7.7 0-16.1-3.2-16.1-10.4 0-6.6 6.9-9.2 10.8-10.7-4-1-7.1-2.6-7.1-5.5 0-3.7 5-5.4 8.1-7zm1.1 12.8c-2.1 1.4-6.1 4.5-6.1 9.3 0 5.3 5.2 8.2 10.8 8.2 6.3 0 13.2-3.4 13.2-8.7 0-4.4-5.1-6.1-10.7-7.3-2.4-.5-4.9-.9-7.2-1.5zm13.5-24.9c0-5.5-2.8-11.3-9-11.3-6 0-8.4 5.2-8.4 10.6 0 5.3 2.5 10.6 8.8 10.6 6.2-.1 8.6-4.9 8.6-9.9zM458 740.8c2.8 0 5.2 2.3 5.2 5.1s-2.3 5.1-5.2 5.1c-2.8 0-5.1-2.3-5.1-5.1s2.3-5.1 5.1-5.1zM491.9 747.6c3.8-.4 6.2-2.4 6.2-5.3v-41c0-4.1 0-5-6.4-6.3v-2.1h6.7c7.7 0 9.6-.3 9.6-.3l.4.3s-2.8 3.3-2.8 10.4v39.1c0 2.5-.4 4.4-.4 4.4l8.2.8-.3 2.4-21.1.5v-2.9zM522.1 721.4c0-2.5.3-5.6.3-5.6h-5.7v-2.6s3.8-.8 5.8-2.7l3.2-9.4 3.9.1.3.3s-.8 2.5-.8 8.6v1.3h13.4l-.6 4.1H530l-.9.9v21.8c0 5 1.5 7.7 6 7.7 3.9 0 7.7-1.8 7.7-1.8l1.1 1.6s-4.9 5.3-12.4 5.3c-6.1 0-9.5-3.4-9.5-11.2v-18.4zM548.9 738.8h2.6c.5 7.3 5.6 9.4 9.7 9.4 4.2 0 7.1-2.2 7.1-5.8 0-9.2-19.7-8.6-19.7-21 0-6.4 4.9-10.9 14-10.9 5.1 0 10.7 1.5 10.7 1.5l-1.7 8.8H569c0-7-5.9-7.5-7.7-7.5-4.6 0-6.4 2.8-6.4 5.5 0 9.1 19.6 7.5 19.6 21 0 7.1-5.6 11.2-13.7 11.2-3.9 0-12.9-.9-12.9-5.8-.1-1.6 1-6.4 1-6.4zM601.8 718.6c-1.7-4.4-4.7-5-4.7-5v-2.1h3.9c5.4 0 8.4-.3 8.4-.3l.3.3s-1.6 3.7-.1 7.9l6.7 18.1 1.4 4.6 8-19c.4-1.1.9-2.6.5-3.9l-.2-.6c-1.6-4.4-4.7-5-4.7-5v-2.1h3.9c5.4 0 8.4-.3 8.4-.3l.3.3s-1.6 3.7-.1 7.9l6.6 17.8c.5 1.5 1 3.3 1.5 4.9l9.4-22.2c1.5-3.4-1-5.4-4.3-6.2v-2.1h11.5l.4 1.4s-1.5.7-3.1 4.5l-14.4 33.8-3.2-1.1-9.9-25.2-11.2 26.4-3.2-1.1-12.1-31.7zM681.1 728.5l2.9-.4c.1-1.8.1-6.8-.3-9.2-.6-3.2-2.2-5.5-5.4-5.5-5.8 0-9.1 8.2-9.1 8.2h-2.7l-1.5-6.4s6.3-4.8 15.9-4.8c8.1 0 10.2 3.3 10.2 12.3v19.7c0 2.7.3 4 2.3 4 2.3 0 4.7-1.7 4.7-1.7l1.1 1.8s-4 4.5-9.1 4.5c-3.3 0-5.8-1.9-5.8-6.1V743s-4.5 8.2-13.4 8.2c-5.7 0-8.9-4-8.9-8.7-.1-8.3 10.1-12.6 19.1-14zm2.9 12.6V731l-2.7.4c-4.9.8-11.8 3.3-11.8 9.5 0 3.4 2.2 5.3 4.8 5.3 3.3 0 7.5-3.2 9.7-5.1z"/><path fill="#FF1D25" d="M701.4 747.9c3.9-.4 5.3-2.5 5.3-5.6v-43.6c0-3.7-.1-5.8-2.6-5.8h-3.6v-2.3c9.9-2.1 13.8-3.9 13.8-3.9l.3.3s-.9 3.2-.9 9.8v45.6c0 2.6-.4 4.6-.4 4.6l7.3.8-.3 2.1-18.9.5v-2.5z"/><path d="M724.3 747.9c3.9-.4 5.3-2.5 5.3-5.6v-43.6c0-3.7-.1-5.8-2.6-5.8h-3.6v-2.3c9.9-2.1 13.8-3.9 13.8-3.9l.3.3s-.9 3.2-.9 9.8v45.6c0 2.6-.4 4.6-.4 4.6l7.3.8-.3 2.1-18.9.5v-2.5zM749.3 738.8h2.6c.5 7.3 5.6 9.4 9.7 9.4 4.2 0 7.1-2.2 7.1-5.8 0-9.2-19.7-8.6-19.7-21 0-6.4 4.9-10.9 14-10.9 5.1 0 10.7 1.5 10.7 1.5l-1.7 8.8h-2.7c0-7-5.9-7.5-7.7-7.5-4.6 0-6.4 2.8-6.4 5.5 0 9.1 19.6 7.5 19.6 21 0 7.1-5.6 11.2-13.7 11.2-3.9 0-12.9-.9-12.9-5.8 0-1.6 1.1-6.4 1.1-6.4zM818.8 728.5l2.9-.4c.1-1.8.1-6.8-.3-9.2-.6-3.2-2.2-5.5-5.4-5.5-5.8 0-9.1 8.2-9.1 8.2h-2.7l-1.5-6.4s6.3-4.8 15.9-4.8c8.1 0 10.2 3.3 10.2 12.3v19.7c0 2.7.3 4 2.3 4 2.3 0 4.7-1.7 4.7-1.7l1.1 1.8s-4 4.5-9.1 4.5c-3.3 0-5.8-1.9-5.8-6.1V743s-4.5 8.2-13.4 8.2c-5.7 0-8.9-4-8.9-8.7 0-8.3 10.2-12.6 19.1-14zm2.9 12.6V731l-2.7.4c-4.9.8-11.8 3.3-11.8 9.5 0 3.4 2.2 5.3 4.8 5.3 3.4 0 7.5-3.2 9.7-5.1zM840 747.9c3.9-.4 5.3-2.5 5.3-5.6v-20.9c0-3.7-.1-5.8-2.6-5.8h-3.9v-2.3c8.4-1.7 13.9-4 13.9-4l.3.3s-.8 2.8-1 10.9c2.6-4.8 7.1-10 11.6-10 2.1 0 4.6 1 4.6 3.9 0 2.6-1.8 4.2-4 4.2-2 0-2.2-1.5-4.2-1.5-2.9 0-5.8 2.8-7.6 5v20.2c0 2.6-.4 4.6-.4 4.6l8.2.8-.3 2.1-19.7.5v-2.4z"/><path fill="#FF1D25" d="M890 710.4c7.4 0 14.7 4.8 14.9 14.2 0 0-2.2.9-3.9 1.1l-21.4 3.1-.9 1c.3 7.8 4.3 15.4 13.9 15.4 7 0 11.2-4.1 11.2-4.1l.9 1.8s-4.5 8.1-14.7 8.1c-12.2 0-18.2-9.5-18.2-19.6.1-11.5 7.8-21 18.2-21zm-11.1 15.4l18-2.3s-.7-9.8-8.2-9.8c-5.8 0-9 5.7-9.8 12.1z"/><path d="M933.9 741.2v-42.6c0-3.7-.1-5.8-2.6-5.8h-3.6v-2.3c9.9-2.1 13.8-3.9 13.8-3.9l.3.3s-.9 3.2-.9 9.8v13.7c0 3.9-.3 5.7-.3 6.4 2.3-2.8 5.8-6.4 12.2-6.4 10.5 0 15.9 9.3 15.9 18.7 0 10.8-7.1 22-22.1 22-4.6 0-10.1-1-13.1-1l-.3-.3c-.1 0 .7-3.7.7-8.6zm13.3 6.7c8.3 0 14-6.4 14-16.2 0-8.2-3.9-16.2-11.7-16.2-3.8 0-7.3 2-8.6 3.2v28.1c.1-.1 2.7 1.1 6.3 1.1z"/><path fill="#FF1D25" d="M979.3 721.4c0-3.7-.1-5.8-2.6-5.8h-3v-2.4c8.3-1.5 13-3.2 13-3.2l.3.3s-.8 2.4-.8 9v18.4c0 6.5 2.3 8.2 5.8 8.2 3.9 0 8.8-2.3 12.4-6.1v-18.4c0-3.7-.1-5.8-2.6-5.8H999v-2.4c8.2-1.5 12.9-3.2 12.9-3.2l.3.3s-.8 2.4-.8 9V742c0 4.9 2 4.9 4.8 4.9h2.4l-.3 2.3c-9.4.9-14.1 1.7-14.1 1.7l-.3-.3s.8-2.5.8-4.6v-4.5c-3.1 4.5-8.8 9.6-16 9.6-6 0-9.7-3.3-9.7-11.5v-18.2z"/><path d="M23.3 824.9c12.5 0 19 8.2 19 18.8 0 10.6-6.6 21.9-20.3 21.9-12.1 0-18.8-8.5-18.8-19.5 0-10.1 5.6-21.2 20.1-21.2zm-.1 37.7c7.3 0 11.2-7.4 11.2-16.6 0-8.5-3.4-18.3-12.1-18.3-7.9 0-11.2 8.1-11.2 16.3 0 8.7 3.5 18.6 12.1 18.6zM48.8 862.3c3.9-.4 5.3-2.5 5.3-5.6v-26.4h-5.4v-2.6l5.4-1.9v-2.3c0-12.8 6.4-21.5 17.5-21.5 4.1 0 9.2 1.5 9.2 5.1 0 1.6-1.3 3.3-3.6 3.3-3.1 0-5-4.4-9.6-4.4-4.4 0-6.4 4.1-6.4 15.2v4.7h12.1l-.7 4.1H62l-.9.9v25.8c0 2.6-.4 4.6-.4 4.6l9 .8-.3 2.1-20.6.5v-2.4zM97.4 853.2h2.6c.5 7.3 5.6 9.4 9.7 9.4 4.2 0 7.1-2.2 7.1-5.8 0-9.2-19.7-8.6-19.7-21 0-6.4 4.9-10.9 14-10.9 5.1 0 10.7 1.5 10.7 1.5l-1.7 8.8h-2.7c0-7-5.9-7.5-7.7-7.5-4.6 0-6.4 2.8-6.4 5.5 0 9.1 19.6 7.5 19.6 21 0 7.1-5.6 11.2-13.7 11.2-3.9 0-12.9-.9-12.9-5.8 0-1.6 1.1-6.4 1.1-6.4zM128.5 862.3c3.9-.4 5.3-2.5 5.3-5.6v-43.6c0-3.7-.1-5.8-2.6-5.8h-3.6V805c9.9-2.1 13.8-3.9 13.8-3.9l.3.3s-.9 3.2-.9 9.8v16.7c0 3.9-.3 5.7-.3 6.4 3.1-4.5 9.1-9.3 16.3-9.3 5.9 0 9.8 3.3 9.8 11.6v20.3c0 2.6-.4 4.6-.4 4.6l7.3.8-.3 2.1-18.5.5v-2.5c3.5-.4 4.9-2.5 4.9-5.6v-18.4c0-6.5-2.5-8.2-5.9-8.2-3.9 0-9.2 2.4-12.8 5.8v20.8c0 2.6-.4 4.6-.4 4.6l6.9.8-.3 2.1-18.5.5v-2.5zM195.7 824.9c7.4 0 14.7 4.8 14.9 14.2 0 0-2.2.9-3.9 1.1l-21.4 3.1-.9 1c.3 7.8 4.3 15.4 13.9 15.4 7 0 11.2-4.1 11.2-4.1l.9 1.8s-4.5 8.1-14.7 8.1c-12.2 0-18.2-9.5-18.2-19.6.1-11.6 7.8-21 18.2-21zm-11.1 15.3l18-2.3s-.7-9.8-8.2-9.8c-5.7 0-9 5.7-9.8 12.1z"/><path fill="#FF1D25" d="M216.2 862.3c3.9-.4 5.3-2.5 5.3-5.6v-43.6c0-3.7-.1-5.8-2.6-5.8h-3.6V805c9.9-2.1 13.8-3.9 13.8-3.9l.3.3s-.9 3.2-.9 9.8v45.6c0 2.6-.4 4.6-.4 4.6l7.3.8-.3 2.1-18.9.5v-2.5z"/><path d="M239.1 862.3c3.9-.4 5.3-2.5 5.3-5.6v-43.6c0-3.7-.1-5.8-2.6-5.8h-3.6V805c9.9-2.1 13.8-3.9 13.8-3.9l.3.3s-.9 3.2-.9 9.8v45.6c0 2.6-.4 4.6-.4 4.6l7.3.8-.3 2.1-18.9.5v-2.5zM264.1 853.2h2.6c.5 7.3 5.6 9.4 9.7 9.4 4.2 0 7.1-2.2 7.1-5.8 0-9.2-19.7-8.6-19.7-21 0-6.4 4.9-10.9 14-10.9 5.1 0 10.7 1.5 10.7 1.5l-1.7 8.8h-2.7c0-7-5.9-7.5-7.7-7.5-4.6 0-6.4 2.8-6.4 5.5 0 9.1 19.6 7.5 19.6 21 0 7.1-5.6 11.2-13.7 11.2-3.9 0-12.9-.9-12.9-5.8 0-1.6 1.1-6.4 1.1-6.4zM297.5 857.8l6.6-3.5c2.6 2.7 3.9 6 3.9 9.6 0 7.2-3.9 11.3-8.7 15.3l-2.1-2.2c3-2.6 5.9-5.4 5.9-9.1 0-2.7-1.8-4.9-5.6-7v-3.1zM339.4 835.9c0-2.5.3-5.6.3-5.6H334v-2.6s3.8-.8 5.8-2.7l3.2-9.4 3.9.1.3.3s-.8 2.5-.8 8.6v1.3h13.4l-.6 4.1h-11.8l-.9.9v21.8c0 5 1.5 7.7 6 7.7 3.9 0 7.7-1.8 7.7-1.8l1.1 1.6s-4.9 5.3-12.4 5.3c-6.1 0-9.5-3.4-9.5-11.2v-18.4zM364.1 862.3c3.9-.4 5.3-2.5 5.3-5.6v-43.6c0-3.7-.1-5.8-2.6-5.8h-3.6V805c9.9-2.1 13.8-3.9 13.8-3.9l.3.3s-.9 3.2-.9 9.8v16.7c0 3.9-.3 5.7-.3 6.4 3.1-4.5 9.1-9.3 16.3-9.3 5.9 0 9.8 3.3 9.8 11.6v20.3c0 2.6-.4 4.6-.4 4.6l7.3.8-.3 2.1-18.5.5v-2.5c3.5-.4 4.9-2.5 4.9-5.6v-18.4c0-6.5-2.5-8.2-5.9-8.2-3.9 0-9.2 2.4-12.8 5.8v20.8c0 2.6-.4 4.6-.4 4.6l6.9.8-.3 2.1-18.5.5v-2.5zM431.5 843l2.9-.4c.1-1.8.1-6.8-.3-9.2-.6-3.2-2.2-5.5-5.4-5.5-5.8 0-9.1 8.2-9.1 8.2h-2.7l-1.5-6.4s6.3-4.8 15.9-4.8c8.1 0 10.2 3.3 10.2 12.3v19.7c0 2.7.3 4 2.3 4 2.3 0 4.7-1.7 4.7-1.7l1.1 1.8s-4 4.5-9.1 4.5c-3.3 0-5.8-1.9-5.8-6.1v-2.1s-4.5 8.2-13.4 8.2c-5.7 0-8.9-4-8.9-8.7-.1-8.1 10.1-12.4 19.1-13.8zm2.9 12.5v-10.1l-2.7.4c-4.9.8-11.8 3.3-11.8 9.5 0 3.4 2.2 5.3 4.8 5.3 3.3.1 7.5-3.2 9.7-5.1zM456.9 835.9c0-2.5.3-5.6.3-5.6h-5.7v-2.6s3.8-.8 5.8-2.7l3.2-9.4 3.9.1.3.3s-.8 2.5-.8 8.6v1.3h13.4l-.6 4.1h-11.8l-.9.9v21.8c0 5 1.5 7.7 6 7.7 3.9 0 7.7-1.8 7.7-1.8l1.1 1.6s-4.9 5.3-12.4 5.3c-6.1 0-9.5-3.4-9.5-11.2v-18.4zM521.9 824.9c12.5 0 19 8.2 19 18.8 0 10.6-6.6 21.9-20.3 21.9-12.1 0-18.8-8.5-18.8-19.5 0-10.1 5.5-21.2 20.1-21.2zm-.1 37.7c7.3 0 11.2-7.4 11.2-16.6 0-8.5-3.4-18.3-12.1-18.3-7.9 0-11.2 8.1-11.2 16.3 0 8.7 3.5 18.6 12.1 18.6zM547.4 883.1c3.9-2.1 4.5-4.1 4.5-8.1v-39.1c0-3.7-.1-5.8-2.6-5.8h-3.4v-2.3c8.4-1.7 13.5-4 13.5-4l.3.3s-.5 2.1-.9 7.6c2.3-2.9 5.6-6.7 12.4-6.7 10.5 0 15.6 9.3 15.6 18.7 0 10.9-7 22-22.1 22-2.3 0-4.1-.3-5.8-.5v9.9c0 2.6-.4 4.9-.4 4.9h9l-.3 2.1s-13.6 1.6-19.7 3.7v-2.7zm31.9-37c0-8.2-3.6-16.2-11.2-16.2-3.3 0-6.4 1.5-9.1 3.6v24.2c0 4 3.3 4.6 6.2 4.6 8.8 0 14.1-6.4 14.1-16.2zM611.4 824.9c7.4 0 14.7 4.8 14.9 14.2 0 0-2.2.9-3.9 1.1l-21.4 3.1-.9 1c.3 7.8 4.3 15.4 13.9 15.4 7 0 11.2-4.1 11.2-4.1l.9 1.8s-4.5 8.1-14.7 8.1c-12.2 0-18.2-9.5-18.2-19.6.1-11.6 7.8-21 18.2-21zm-11.1 15.3l18-2.3s-.7-9.8-8.2-9.8c-5.8 0-9 5.7-9.8 12.1zM632.7 862.3c3.9-.4 5.3-2.5 5.3-5.6v-20.9c0-3.7-.1-5.8-2.6-5.8h-3.9v-2.3c8.4-1.7 13.7-4 13.7-4l.3.3s-.8 2.8-.9 10.5c3.1-4.6 9.1-9.5 16.3-9.5 5.9 0 9.8 3.3 9.8 11.6v20.3c0 2.6-.4 4.5-.4 4.5l7.3.9-.3 2.1-18.5.5v-2.5c3.9-.4 4.9-2.5 4.9-5.6v-18.4c0-6.5-2.5-8.2-5.9-8.2-3.9 0-9.2 2.3-12.8 6v20.6c0 2.6-.4 4.5-.4 4.5l6.9.9-.3 2.1-18.5.5v-2.5zM719.4 843l2.9-.4c.1-1.8.1-6.8-.3-9.2-.6-3.2-2.2-5.5-5.4-5.5-5.8 0-9.1 8.2-9.1 8.2h-2.7l-1.5-6.4s6.3-4.8 15.9-4.8c8.1 0 10.2 3.3 10.2 12.3v19.7c0 2.7.3 4 2.3 4 2.3 0 4.7-1.7 4.7-1.7l1.1 1.8s-4 4.5-9.1 4.5c-3.3 0-5.8-1.9-5.8-6.1v-2.1s-4.5 8.2-13.4 8.2c-5.7 0-8.9-4-8.9-8.7 0-8.1 10.2-12.4 19.1-13.8zm2.9 12.5v-10.1l-2.7.4c-4.9.8-11.8 3.3-11.8 9.5 0 3.4 2.2 5.3 4.8 5.3 3.4.1 7.5-3.2 9.7-5.1zM740.6 862.3c3.9-.4 5.3-2.5 5.3-5.6v-20.9c0-3.7-.1-5.8-2.6-5.8h-3.9v-2.3c8.4-1.7 13.7-4 13.7-4l.3.3s-.8 2.8-.9 10.5c3.1-4.6 9.1-9.5 16.3-9.5 5.9 0 9.8 3.3 9.8 11.6v20.3c0 2.6-.4 4.5-.4 4.5l7.3.9-.3 2.1-18.5.5v-2.5c3.9-.4 4.9-2.5 4.9-5.6v-18.4c0-6.5-2.5-8.2-5.9-8.2-3.9 0-9.2 2.3-12.8 6v20.6c0 2.6-.4 4.5-.4 4.5l6.9.9-.3 2.1-18.5.5v-2.5zM811.6 824.9c3.1 0 6.1.5 6.1.5v-12.3c0-3.7-.1-5.8-2.6-5.8h-3.6V805c9.9-2.1 13.8-3.9 13.8-3.9l.3.3s-.9 3.2-.9 9.8v45.2c0 4.9 2 4.9 4.8 4.9h2.4l-.3 2.3c-9.4.9-13.7 1.6-13.7 1.6l-.3-.3s.3-2.4.3-4.5v-1.8c-2.3 3.4-5.8 7-12.3 7-10.6 0-16.1-9.3-16.1-18.6.1-10.9 7.4-22.1 22.1-22.1zm6.1 31.9v-24.1c0-3.9-3.4-4.6-6.2-4.6-8.8 0-14.4 6.3-14.4 16.2 0 8.2 3.9 16.2 11.7 16.2 4.2.1 7.5-2.3 8.9-3.7zM873.7 824.9c5.2 0 13.6 2.1 13.6 6.5 0 1.6-1.2 3.1-3.3 3.1-4.4 0-4.9-6.7-10.9-6.7-6.9 0-10.7 7.4-10.7 15.7 0 8.2 4 16.3 14.2 16.3 6.4 0 10-3.5 10-3.5l.9 1.8s-3.9 7.5-13.9 7.5c-12 0-18.2-9.7-18.2-19.6-.1-10.4 6.4-21.1 18.3-21.1zM892.3 862.3c3.9-.4 5.3-2.5 5.3-5.6v-43.6c0-3.7-.1-5.8-2.6-5.8h-3.6V805c9.9-2.1 13.8-3.9 13.8-3.9l.3.3s-.9 3.2-.9 9.8v45.6c0 2.6-.4 4.6-.4 4.6l7.3.8-.3 2.1-18.9.5v-2.5zM936 824.9c12.5 0 19 8.2 19 18.8 0 10.6-6.6 21.9-20.3 21.9-12.1 0-18.8-8.5-18.8-19.5-.1-10.1 5.5-21.2 20.1-21.2zm-.2 37.7c7.3 0 11.2-7.4 11.2-16.6 0-8.5-3.4-18.3-12.1-18.3-7.9 0-11.2 8.1-11.2 16.3 0 8.7 3.5 18.6 12.1 18.6zM962.7 853.2h2.6c.5 7.3 5.6 9.4 9.7 9.4 4.2 0 7.1-2.2 7.1-5.8 0-9.2-19.7-8.6-19.7-21 0-6.4 4.9-10.9 14-10.9 5.1 0 10.7 1.5 10.7 1.5l-1.7 8.8h-2.7c0-7-5.9-7.5-7.7-7.5-4.6 0-6.4 2.8-6.4 5.5 0 9.1 19.6 7.5 19.6 21 0 7.1-5.6 11.2-13.7 11.2-3.9 0-12.9-.9-12.9-5.8 0-1.6 1.1-6.4 1.1-6.4z"/><path fill="#FF1D25" d="M1012.7 824.9c7.4 0 14.7 4.8 14.9 14.2 0 0-2.2.9-3.9 1.1l-21.4 3.1-.9 1c.3 7.8 4.3 15.4 13.9 15.4 7 0 11.2-4.1 11.2-4.1l.9 1.8s-4.5 8.1-14.7 8.1c-12.2 0-18.2-9.5-18.2-19.6.1-11.6 7.8-21 18.2-21zm-11.1 15.3l18-2.3s-.7-9.8-8.2-9.8c-5.7 0-9 5.7-9.8 12.1z"/><path d="M13.7 965.8C8 964.1 3.4 960 3.4 953.1c0-8.9 7.6-13.8 16.1-13.8 5 0 7 1.7 11.3 1.7h4.1c2.7 0 5.7-1.1 5.7-1.1l-.8 5.6h-4.5c-1.9 0-3-.3-3-.3s3.5 3 3.5 8.4c0 8.1-7.7 12.9-16.3 12.9-1.5 0-2.8-.1-4.2-.3-.6.7-2.1 2.4-2.1 3.6 0 2.3 5.1 2.9 11.8 4.3 7.2 1.5 14.9 3.9 14.9 10.8 0 8.4-11.2 14.4-21.8 14.4-7.7 0-16.1-3.2-16.1-10.4 0-6.6 6.9-9.2 10.8-10.7-4-1-7.1-2.6-7.1-5.5 0-3.6 4.9-5.3 8-6.9zm1.1 12.8c-2.1 1.4-6.1 4.5-6.1 9.3 0 5.3 5.2 8.2 10.8 8.2 6.3 0 13.2-3.4 13.2-8.7 0-4.4-5.1-6.1-10.7-7.3-2.3-.5-4.8-1-7.2-1.5zm13.5-24.9c0-5.5-2.8-11.3-9-11.3-6 0-8.4 5.2-8.4 10.6 0 5.3 2.5 10.6 8.8 10.6 6.2-.1 8.6-4.9 8.6-9.9zM43.8 976.7c3.9-.4 5.3-2.5 5.3-5.6v-43.6c0-3.7-.1-5.8-2.6-5.8h-3.6v-2.3c9.9-2.1 13.8-3.9 13.8-3.9l.3.3s-.9 3.2-.9 9.8v45.6c0 2.6-.4 4.6-.4 4.6l7.3.8-.3 2.1-18.9.5v-2.5zM67.5 976.7c3.9-.4 5.3-2.5 5.3-5.6v-20.9c0-3.7-.1-5.8-2.6-5.8h-3.9v-2.3c12.5-2.9 14.3-4 14.3-4l.1.3s-.9 2.8-.9 9.8v23c0 2.6-.4 4.6-.4 4.6l7.3.8-.3 2.1-18.9.5v-2.5zm3.5-50.8c0-2.5 2.1-4.6 4.6-4.6 2.5 0 4.6 2.1 4.6 4.6 0 2.5-2.1 4.6-4.6 4.6-2.5.1-4.6-2.1-4.6-4.6z"/><path fill="#FF1D25" d="M95.5 950.3c0-2.5.3-5.6.3-5.6h-5.7v-2.6s3.8-.8 5.8-2.7l3.2-9.4 3.9.1.3.3s-.8 2.5-.8 8.6v1.3h13.4l-.6 4.1h-11.8l-.9.9v21.8c0 5 1.5 7.7 6 7.7 3.9 0 7.7-1.8 7.7-1.8l1.1 1.6s-4.9 5.3-12.4 5.3c-6.1 0-9.5-3.4-9.5-11.2v-18.4z"/><path d="M125.3 950.3c0-2.5.3-5.6.3-5.6h-5.7v-2.6s3.8-.8 5.8-2.7l3.2-9.4 3.9.1.3.3s-.8 2.5-.8 8.6v1.3h13.4l-.6 4.1h-11.8l-.9.9v21.8c0 5 1.5 7.7 6 7.7 3.9 0 7.7-1.8 7.7-1.8l1.1 1.6s-4.9 5.3-12.4 5.3c-6.1 0-9.5-3.4-9.5-11.2v-18.4zM169 939.3c7.4 0 14.7 4.8 14.9 14.2 0 0-2.2.9-3.9 1.1l-21.4 3.1-.9 1c.3 7.8 4.3 15.4 13.9 15.4 7 0 11.2-4.1 11.2-4.1l.9 1.8s-4.5 8.1-14.7 8.1c-12.2 0-18.2-9.5-18.2-19.6.1-11.5 7.8-21 18.2-21zm-11.1 15.4l18-2.3s-.7-9.8-8.2-9.8c-5.7 0-9 5.6-9.8 12.1zM190.4 976.7c3.9-.4 5.3-2.5 5.3-5.6v-20.9c0-3.7-.1-5.8-2.6-5.8h-3.9v-2.3c8.4-1.7 13.9-4 13.9-4l.3.3s-.8 2.8-1 10.9c2.6-4.8 7.1-10 11.6-10 2.1 0 4.6 1 4.6 3.9 0 2.6-1.8 4.2-4 4.2-2 0-2.2-1.5-4.2-1.5-2.9 0-5.8 2.8-7.6 5v20.2c0 2.6-.4 4.6-.4 4.6l8.2.8-.3 2.1-19.7.5v-2.4zM222.6 976.7c3.9-.4 5.3-2.5 5.3-5.6v-20.9c0-3.7-.1-5.8-2.6-5.8h-3.9v-2.3c12.5-2.9 14.3-4 14.3-4l.1.3s-.9 2.8-.9 9.8v23c0 2.6-.4 4.6-.4 4.6l7.3.8-.3 2.1-18.9.5v-2.5zm3.4-50.8c0-2.5 2.1-4.6 4.6-4.6 2.5 0 4.6 2.1 4.6 4.6 0 2.5-2.1 4.6-4.6 4.6-2.5.1-4.6-2.1-4.6-4.6zM246.3 976.7c3.9-.4 5.3-2.5 5.3-5.6v-20.9c0-3.7-.1-5.8-2.6-5.8h-3.9v-2.3c8.4-1.7 13.7-4 13.7-4l.3.3s-.8 2.8-.9 10.5c3.1-4.6 9.1-9.5 16.3-9.5 5.9 0 9.8 3.3 9.8 11.6v20.3c0 2.6-.4 4.5-.4 4.5l7.3.9-.3 2.1-18.5.5v-2.5c3.9-.4 4.9-2.5 4.9-5.6v-18.4c0-6.5-2.5-8.2-5.9-8.2-3.9 0-9.2 2.3-12.8 6v20.6c0 2.6-.4 4.5-.4 4.5l6.9.9-.3 2.1-18.5.5v-2.5zM306 965.8c-5.8-1.6-10.3-5.8-10.3-12.6 0-8.9 7.6-13.8 16-13.8 5 0 7 1.7 11.3 1.7h4.1c2.7 0 5.7-1.1 5.7-1.1l-.8 5.6h-4.5c-1.9 0-3-.3-3-.3s3.5 3 3.5 8.4c0 8.1-7.7 12.9-16.3 12.9-1.5 0-2.8-.1-4.2-.3-.6.7-2.1 2.4-2.1 3.6 0 2.3 5.1 2.9 11.8 4.3 7.2 1.5 14.9 3.9 14.9 10.8 0 8.4-11.2 14.4-21.8 14.4-7.7 0-16.1-3.2-16.1-10.4 0-6.6 6.9-9.2 10.8-10.7-4-1-7.1-2.6-7.1-5.5 0-3.7 5-5.4 8.1-7zm1.1 12.8c-2.1 1.4-6.1 4.5-6.1 9.3 0 5.3 5.2 8.2 10.8 8.2 6.3 0 13.2-3.4 13.2-8.7 0-4.4-5.1-6.1-10.7-7.3-2.4-.5-4.9-1-7.2-1.5zm13.5-24.9c0-5.5-2.8-11.3-9-11.3-6 0-8.4 5.2-8.4 10.6 0 5.3 2.5 10.6 8.8 10.6 6.2-.1 8.6-4.9 8.6-9.9zM356.2 997.5c3.9-2.1 4.5-4.1 4.5-8.1v-39.1c0-3.7-.1-5.8-2.6-5.8h-3.4v-2.3c8.4-1.7 13.5-4 13.5-4l.3.3s-.5 2.1-.9 7.6c2.3-2.9 5.6-6.7 12.4-6.7 10.5 0 15.6 9.3 15.6 18.7 0 10.9-7 22-22.1 22-2.3 0-4.1-.3-5.8-.5v9.9c0 2.6-.4 4.9-.4 4.9h9l-.3 2.1s-13.6 1.6-19.7 3.7v-2.7zm31.8-37c0-8.2-3.6-16.2-11.2-16.2-3.3 0-6.4 1.5-9.1 3.6v24.2c0 4 3.3 4.6 6.2 4.6 8.9 0 14.1-6.4 14.1-16.2z"/><path fill="#FF1D25" d="M420.1 939.3c7.4 0 14.7 4.8 14.9 14.2 0 0-2.2.9-3.9 1.1l-21.4 3.1-.9 1c.3 7.8 4.3 15.4 13.9 15.4 7 0 11.2-4.1 11.2-4.1l.9 1.8s-4.5 8.1-14.7 8.1c-12.2 0-18.2-9.5-18.2-19.6.1-11.5 7.9-21 18.2-21zm-11 15.4l18-2.3s-.7-9.8-8.2-9.8c-5.8 0-9.1 5.6-9.8 12.1z"/><path d="M459.8 957.4l2.9-.4c.1-1.8.1-6.8-.3-9.2-.6-3.2-2.2-5.5-5.4-5.5-5.8 0-9.1 8.2-9.1 8.2h-2.7l-1.5-6.4s6.3-4.8 15.9-4.8c8.1 0 10.2 3.3 10.2 12.3v19.7c0 2.7.3 4 2.3 4 2.3 0 4.7-1.7 4.7-1.7l1.1 1.8s-4 4.5-9.1 4.5c-3.3 0-5.8-1.9-5.8-6.1v-2.1s-4.5 8.2-13.4 8.2c-5.7 0-8.9-4-8.9-8.7 0-8.1 10.2-12.4 19.1-13.8zm2.9 12.6v-10.1l-2.7.4c-4.9.8-11.8 3.3-11.8 9.5 0 3.4 2.2 5.3 4.8 5.3 3.4 0 7.5-3.3 9.7-5.1zM481 976.7c3.9-.4 5.3-2.5 5.3-5.6v-20.9c0-3.7-.1-5.8-2.6-5.8h-3.9v-2.3c8.4-1.7 13.9-4 13.9-4l.3.3s-.8 2.8-1 10.9c2.6-4.8 7.1-10 11.6-10 2.1 0 4.6 1 4.6 3.9 0 2.6-1.8 4.2-4 4.2-2 0-2.2-1.5-4.2-1.5-2.9 0-5.8 2.8-7.6 5v20.2c0 2.6-.4 4.6-.4 4.6l8.2.8-.3 2.1-19.7.5v-2.4zM512.3 976.7c3.9-.4 5.3-2.5 5.3-5.6v-43.6c0-3.7-.1-5.8-2.6-5.8h-3.6v-2.3c9.9-2.1 13.8-3.9 13.8-3.9l.3.3s-.9 3.2-.9 9.8v45.6c0 2.6-.4 4.6-.4 4.6l7.3.8-.3 2.1-18.9.5v-2.5zM537.6 972.3l6.6-3.5c2.6 2.7 3.9 6 3.9 9.6 0 7.2-3.9 11.3-8.7 15.3l-2.1-2.2c3-2.6 5.9-5.4 5.9-9.1 0-2.7-1.8-4.9-5.6-7v-3.1zM576.9 947.5c-1.7-4.4-4.7-5-4.7-5v-2.1h3.9c5.4 0 8.4-.3 8.4-.3l.3.3s-1.6 3.7-.1 7.9l6.7 18.1 1.4 4.6 8-19c.4-1.1.9-2.6.5-3.9l-.2-.6c-1.6-4.4-4.7-5-4.7-5v-2.1h3.9c5.4 0 8.4-.3 8.4-.3l.3.3s-1.6 3.7-.1 7.9l6.6 17.8c.5 1.5 1 3.3 1.5 4.9l9.4-22.2c1.5-3.4-1-5.4-4.3-6.2v-2.1h11.5l.4 1.4s-1.5.7-3.1 4.5l-14.4 33.8-3.2-1.1-9.9-25.2-11.2 26.4-3.2-1.1-12.1-31.7z"/><path fill="#FF1D25" d="M636.8 976.7c3.9-.4 5.3-2.5 5.3-5.6v-43.6c0-3.7-.1-5.8-2.6-5.8h-3.6v-2.3c9.9-2.1 13.8-3.9 13.8-3.9l.3.3s-.9 3.2-.9 9.8v16.7c0 3.9-.3 5.7-.3 6.4 3.1-4.5 9.1-9.3 16.3-9.3 5.9 0 9.8 3.3 9.8 11.6v20.3c0 2.6-.4 4.6-.4 4.6l7.3.8-.3 2.1-18.5.5v-2.5c3.5-.4 4.9-2.5 4.9-5.6v-18.4c0-6.5-2.5-8.2-5.9-8.2-3.9 0-9.2 2.4-12.8 5.8v20.8c0 2.6-.4 4.6-.4 4.6l6.9.8-.3 2.1-18.5.5v-2.5z"/><path d="M685.9 976.7c3.9-.4 5.3-2.5 5.3-5.6v-20.9c0-3.7-.1-5.8-2.6-5.8h-3.9v-2.3c12.5-2.9 14.3-4 14.3-4l.1.3s-.9 2.8-.9 9.8v23c0 2.6-.4 4.6-.4 4.6l7.3.8-.3 2.1-18.9.5v-2.5zm3.4-50.8c0-2.5 2.1-4.6 4.6-4.6 2.5 0 4.6 2.1 4.6 4.6 0 2.5-2.1 4.6-4.6 4.6-2.4.1-4.6-2.1-4.6-4.6zM727.8 939.3c5.2 0 13.6 2.1 13.6 6.5 0 1.6-1.2 3.1-3.3 3.1-4.4 0-4.9-6.7-10.9-6.7-6.9 0-10.7 7.4-10.7 15.7 0 8.2 4 16.3 14.2 16.3 6.4 0 10-3.5 10-3.5l.9 1.8s-3.9 7.5-13.9 7.5c-12 0-18.2-9.7-18.2-19.6-.1-10.4 6.4-21.1 18.3-21.1zM746.4 976.7c3.9-.4 5.3-2.5 5.3-5.6v-43.6c0-3.7-.1-5.8-2.6-5.8h-3.6v-2.3c9.9-2.1 13.8-3.9 13.8-3.9l.3.3s-.9 3.2-.9 9.8v16.7c0 3.9-.3 5.7-.3 6.4 3.1-4.5 9.1-9.3 16.3-9.3 5.9 0 9.8 3.3 9.8 11.6v20.3c0 2.6-.4 4.6-.4 4.6l7.3.8-.3 2.1-18.5.5v-2.5c3.5-.4 4.9-2.5 4.9-5.6v-18.4c0-6.5-2.5-8.2-5.9-8.2-3.9 0-9.2 2.4-12.8 5.8v20.8c0 2.6-.4 4.6-.4 4.6l6.9.8-.3 2.1-18.5.5v-2.5zM816.4 947.5c-1.7-4.4-4.7-5-4.7-5v-2.1h3.9c5.4 0 8.4-.3 8.4-.3l.3.3s-1.6 3.7-.1 7.9l6.7 18.1 1.4 4.6 8-19c.4-1.1.9-2.6.5-3.9l-.2-.6c-1.6-4.4-4.7-5-4.7-5v-2.1h3.9c5.4 0 8.4-.3 8.4-.3l.3.3s-1.6 3.7-.1 7.9l6.6 17.8c.5 1.5 1 3.3 1.5 4.9l9.4-22.2c1.5-3.4-1-5.4-4.3-6.2v-2.1h11.5l.4 1.4s-1.5.7-3.1 4.5L856 980.2l-3-1.2-9.9-25.2-11.2 26.4-3.2-1.1-12.3-31.6zM897.6 939.3c12.5 0 19 8.2 19 18.8 0 10.6-6.6 21.9-20.3 21.9-12.1 0-18.8-8.5-18.8-19.5 0-10 5.5-21.2 20.1-21.2zm-.2 37.8c7.3 0 11.2-7.4 11.2-16.6 0-8.5-3.4-18.3-12.1-18.3-7.9 0-11.2 8.1-11.2 16.3 0 8.6 3.6 18.6 12.1 18.6zM927.2 950.3c0-3.7-.1-5.8-2.6-5.8h-3v-2.4c8.3-1.5 13-3.2 13-3.2l.3.3s-.8 2.4-.8 9v18.4c0 6.5 2.3 8.2 5.8 8.2 3.9 0 8.8-2.3 12.4-6.1v-18.4c0-3.7-.1-5.8-2.6-5.8h-2.8v-2.4c8.2-1.5 12.9-3.2 12.9-3.2l.3.3s-.8 2.4-.8 9v22.7c0 4.9 2 4.9 4.8 4.9h2.4l-.3 2.3c-9.4.9-14.1 1.7-14.1 1.7l-.3-.3s.8-2.5.8-4.6v-4.5c-3.1 4.5-8.8 9.6-16 9.6-6 0-9.7-3.3-9.7-11.5v-18.2z"/><path fill="#FF1D25" d="M970.2 976.7c3.9-.4 5.3-2.5 5.3-5.6v-43.6c0-3.7-.1-5.8-2.6-5.8h-3.6v-2.3c9.9-2.1 13.8-3.9 13.8-3.9l.3.3s-.9 3.2-.9 9.8v45.6c0 2.6-.4 4.6-.4 4.6l7.3.8-.3 2.1-18.9.5v-2.5z"/><path d="M1015.9 939.3c3.1 0 6.1.5 6.1.5v-12.3c0-3.7-.1-5.8-2.6-5.8h-3.6v-2.3c9.9-2.1 13.8-3.9 13.8-3.9l.3.3s-.9 3.2-.9 9.8v45.2c0 4.9 2 4.9 4.8 4.9h2.4l-.3 2.3c-9.4.9-13.7 1.6-13.7 1.6l-.3-.3s.3-2.4.3-4.5V973c-2.3 3.4-5.8 7-12.3 7-10.6 0-16.1-9.3-16.1-18.6.1-10.8 7.4-22.1 22.1-22.1zm6.1 31.9v-24.1c0-3.9-3.4-4.6-6.2-4.6-8.8 0-14.4 6.3-14.4 16.2 0 8.2 3.9 16.2 11.7 16.2 4.2.1 7.5-2.3 8.9-3.7z"/></svg>