<svg xmlns="http://www.w3.org/2000/svg" viewBox="0 0 180 180"><path fill="#231F20" d="M91.1 97.2l-.5-2.6-.6-1-.4-2.5-.2-.1-.6.6-.6-1-.4-1.5-.7-.1-.4-1h-.4l-.8-.7-.2-.6-.7 1.4-.5 2.6-.6 2.1-.6-1.5-1 1.7-1.1-1.5-.4-.2h-.8l-.8.4-.5 1.1-.5.7-.7 1.4-.4-.9-.3.9h-.7l-.5-.6-.2.3-.5.2-.5 2.1-1.4-1.4-1-3-.3-.3-.6.3-.5-1.5-.6-.5-.3-.7-.5.4-.6-.4-.3-.4-.5 1H66l-.5.2h-.6l-.4-.8-.3.5-.7.5-.9-.5h-.7l-.5-1.4-1.5-.8-.3-.4-.3-.2-.5.6-.5-.6-.6 1.1-.7-1.2-.6-.2-.3-.6-.6.2-.5-.8-.6-1.4-.9-1H53l-.5-.4.3-.4.3.2h.6l1.1 1.3.6 1.4.2.4.6-.2.5.9.6.2.2.5.5-.9.6.8.4-.4.8.4.3.4 1.5.8.5 1.2h.5l.7.4.4-.3.7-1.2.7 1.3h.3l.5-.2h1.2l.7-1.5.8 1 .2.1.7-.6.5 1.2.6.5.3 1 .4-.2.6.8 1 3 .6.6.4-1.5.6-.2.5-.8.7 1h.1l.6-1.7.5 1.1.3-.5.5-.7.5-1.2 1.1-.6h1.1l.6.3.7 1 1.1-1.9.5 1.1.2-.7.5-2.7.3-.7 1-1.8.5 1.7.5.4h.7l.4 1 .6.2.5 1.7.2.3.4-.4.8.3.5 2.7.6 1 .2 1 .3-.6.6-.7.3-1.4.8-1.7.6-1.8h.6l.4-.6.7-.4h.9l.4-.8h.7l.6.4.5 1.3.4.2.7 1.3c.1-.2.2-.3.2-.4 0-.2.2-.2.8-.4l.2-.1.3.6.8-1.3h.8l.3.2.5-.3.3.2 1.5-1.8.6.6.5-.2h.6l.3.5 1 1 .7-.4.5-.7.2-.1.5-.3h.5v.5h-.5l-.4.2-.5.7-1.1.6-1.2-1.3-.2-.3h-.3l-.6.3-.5-.5-1.5 1.8-.4-.3-.5.3-.5-.3h-.3l-1.1 1.8-.5-.9c-.1 0-.3.1-.3.1-.1.1-.2.3-.5.7l-.2.3-1-1.8-.5-.2-.5-1.3-.2.2h-.3l-.4.8h-1.1l-.5.3-.4.7h-.5l-.5 1.5-1 1.7-.4 1.5-.6.7-.7 2z"/><g fill="#231F20"><path d="M119.9 90.2c-.3-.2-.7-.8-.7-1.4 0-1 .7-1.9 2-1.9s2 .9 2 1.9c0 .7-.4 1.2-.7 1.4.5.3.8.9.8 1.6 0 1.2-.9 2-2.2 2-1.3 0-2.2-.8-2.2-2 .1-.7.5-1.3 1-1.6zm1.3 2.7c.6 0 1.1-.4 1.1-1.1 0-.6-.4-1.1-1.1-1.1-.6 0-1.1.5-1.1 1.1.1.6.5 1.1 1.1 1.1zm1-4.1c0-.5-.4-.9-.9-.9s-.9.4-.9.9.4.9.9.9.9-.4.9-.9zM125 88.3c0-.8.6-1.5 1.5-1.5.8 0 1.5.6 1.5 1.5 0 .8-.6 1.5-1.5 1.5-.8 0-1.5-.6-1.5-1.5zm2.3 0c0-.5-.3-.8-.8-.8s-.8.3-.8.8.3.8.8.8c.5.1.8-.3.8-.8zM130.8 90.4c0-1.1 0-1.4.2-1.8.4-1.1 1.2-1.7 2.4-1.7 1.1 0 1.9.6 2.3 1.5 0 0 0 .1-.1.1l-.8.4h-.1c-.2-.5-.6-.9-1.3-.9-.6 0-1 .3-1.2.9-.1.3-.1.5-.1 1.5s0 1.3.1 1.5c.2.5.6.9 1.2.9.7 0 1-.4 1.3-.9 0 0 .1-.1.1 0l.8.4c.1 0 .1.1.1.1-.4.9-1.2 1.5-2.3 1.5-1.1 0-2-.6-2.4-1.7-.2-.4-.2-.7-.2-1.8z"/></g><g fill="#231F20"><path d="M140 87.6c-.3 0-.5-.2-.5-.5s.2-.5.5-.5.5.2.5.5-.3.5-.5.5zm-.4 6.2v-5h.7v5h-.7zM145.2 93.8v-3.4c0-.6-.3-1-.9-1-.5 0-1.1.3-1.6.9v3.6h-.7v-5h.5l.1.7c.5-.5 1.1-.8 1.8-.8 1 0 1.5.6 1.5 1.5v3.5h-.7zM151.7 93.8H150v-7.2h1.7c1.5 0 2.2.7 2.2 1.8 0 .8-.4 1.3-1.1 1.6.9.2 1.4.8 1.4 1.8.1 1.3-1 2-2.5 2zm0-6.6h-.9v2.5h.9c1 0 1.6-.6 1.6-1.3s-.6-1.2-1.6-1.2zm0 3.1h-1v2.9h1c1.1 0 1.8-.5 1.8-1.4.1-1.1-.7-1.5-1.8-1.5zM159.5 91.3H156c0 1.2.6 1.9 1.6 1.9.7 0 1.2-.3 1.8-.7l.1.6c-.5.4-1.1.7-1.9.7-1.3 0-2.2-.9-2.2-2.6 0-1.6.9-2.6 2.1-2.6 1.4 0 2 1.1 2 2.5v.2zm-2.1-2c-.8 0-1.3.6-1.4 1.5h2.7c0-.9-.5-1.5-1.3-1.5zM161.5 90.7v3.1h-.7v-5h.5l.2 1c.4-.6.9-1.1 1.8-1.1l.1.7c-.9 0-1.6.6-1.9 1.3zM164.5 93.8v-7.4l.7-.1v7.5h-.7zM167.3 87.6c-.3 0-.5-.2-.5-.5s.2-.5.5-.5.5.2.5.5c-.1.3-.3.5-.5.5zm-.4 6.2v-5h.7v5h-.7zM172.5 93.8v-3.4c0-.6-.3-1-.9-1-.5 0-1.1.3-1.6.9v3.6h-.7v-5h.5l.1.7c.5-.5 1.1-.8 1.8-.8 1 0 1.5.6 1.5 1.5v3.5h-.7zM174.7 93.8v-1h.8v1h-.8z"/></g><path fill="#231F20" d="M111.5 86.2c.8 0 1.4.6 1.4 1.4 0 .8-.6 1.4-1.4 1.4-.8 0-1.4-.6-1.4-1.4 0-.7.6-1.4 1.4-1.4"/><g fill="#231F20"><path d="M7.5 87.2v6.6h-.7v-6.6H4.5v-.7h5.3l.1.7H7.5zM11.6 93.9c-1.3 0-2.2-.9-2.2-2.6 0-1.6 1-2.6 2.2-2.6 1.3 0 2.3.9 2.3 2.6 0 1.6-1 2.6-2.3 2.6zm0-4.6c-1 0-1.5.8-1.5 2 0 1.1.5 2 1.5 2s1.5-.8 1.5-2c.1-1.2-.5-2-1.5-2zM18.6 93.8l-.1-.8c-.4.5-.9.8-1.6.8-1.1 0-2-.8-2-2.4 0-1.8 1.1-2.7 2.3-2.7.5 0 .9.1 1.3.3v-2.6l.7-.1v7.5h-.6zm-.1-4.2c-.4-.2-.8-.3-1.3-.3-.9 0-1.6.7-1.6 2.1 0 1.2.6 1.9 1.4 1.9.6 0 1-.4 1.5-.9v-2.8zM23.8 93.8l-.1-.7c-.5.4-1 .8-1.8.8-.9 0-1.5-.5-1.5-1.4 0-1.2.9-1.7 3.2-1.9v-.3c0-.7-.4-1-1-1s-1.2.2-1.7.4l-.1-.6c.6-.3 1.1-.4 1.8-.4 1.1 0 1.7.5 1.7 1.5v3.5h-.5zm-.2-2.7c-2 .2-2.5.7-2.5 1.3 0 .5.4.8.9.8s1.1-.3 1.6-.7v-1.4zM27.6 94.4c-.4 1-.8 1.3-1.5 1.3h-.3l-.1-.7h.4c.4 0 .7-.2.8-.7l.2-.6-1.9-4.9.7-.1 1.5 4.2 1.5-4.2h.7l-2 5.7zM36.3 93.8l-.1-.7c-.5.4-1 .8-1.8.8-.9 0-1.5-.5-1.5-1.4 0-1.2.9-1.7 3.2-1.9v-.3c0-.7-.4-1-1-1s-1.2.2-1.7.4l-.1-.6c.6-.3 1.1-.4 1.8-.4 1.1 0 1.7.5 1.7 1.5v3.5h-.5zm-.2-2.7c-2 .2-2.5.7-2.5 1.3 0 .5.4.8.9.8s1.1-.3 1.6-.7v-1.4zM39.1 90.7v3.1h-.7v-5h.5l.2 1c.4-.6.9-1.1 1.8-1.1l.1.7c-.9 0-1.6.6-1.9 1.3zM45.6 91.3h-3.5c0 1.2.6 1.9 1.6 1.9.7 0 1.2-.3 1.8-.7l.1.6c-.5.4-1.1.7-1.9.7-1.3 0-2.2-.9-2.2-2.6 0-1.6.9-2.6 2.1-2.6 1.4 0 2 1.1 2 2.5v.2zm-2-2c-.8 0-1.3.6-1.4 1.5h2.7c0-.9-.5-1.5-1.3-1.5z"/></g></svg>