<svg xmlns="http://www.w3.org/2000/svg" viewBox="0 0 1000 1000"><path fill="#C0C0C0" d="M294.3 954h78.5v2h-78.5zM102 954h192.3v2H102zM0 954h102v2H0zM294.3 897.1h78.5v2h-78.5z"/><path fill="#C0C0C0" d="M294.3 954h78.5v2h-78.5zM102 897.1h192.3v2H102zM102 954h192.3v2H102zM0 897.1h102v2H0zM0 954h102v2H0zM294.3 840.2h78.5v2h-78.5zM294.3 897.1h78.5v2h-78.5zM102 840.2h192.3v2H102z"/><path fill="#C0C0C0" d="M102 897.1h192.3v2H102zM0 840.2h102v2H0zM0 897.1h102v2H0zM294.3 783.3h78.5v2h-78.5zM294.3 840.2h78.5v2h-78.5zM102 783.3h192.3v2H102zM102 840.2h192.3v2H102zM0 783.3h102v2H0z"/><path fill="#C0C0C0" d="M0 840.2h102v2H0zM294.3 726.4h78.5v2h-78.5zM294.3 783.3h78.5v2h-78.5zM102 726.4h192.3v2H102zM102 783.3h192.3v2H102zM0 726.4h102v2H0zM0 783.3h102v2H0zM294.3 669.5h78.5v2h-78.5z"/><path fill="#C0C0C0" d="M294.3 726.4h78.5v2h-78.5zM102 669.5h192.3v2H102zM102 726.4h192.3v2H102zM0 669.5h102v2H0zM0 726.4h102v2H0zM294.3 612.6h78.5v2h-78.5zM294.3 669.5h78.5v2h-78.5zM102 612.6h192.3v2H102z"/><path fill="#C0C0C0" d="M102 669.5h192.3v2H102zM0 612.6h102v2H0zM0 669.5h102v2H0zM294.3 555.7h78.5v2h-78.5zM294.3 612.6h78.5v2h-78.5zM102 555.7h192.3v2H102zM102 612.6h192.3v2H102zM0 555.7h102v2H0z"/><path fill="#C0C0C0" d="M0 612.6h102v2H0zM294.3 498.8h78.5v2h-78.5zM294.3 555.7h78.5v2h-78.5zM102 498.8h192.3v2H102zM102 555.7h192.3v2H102zM0 498.8h102v2H0zM0 555.7h102v2H0zM294.3 441.9h78.5v2h-78.5z"/><path fill="#C0C0C0" d="M294.3 498.8h78.5v2h-78.5zM102 441.9h192.3v2H102zM102 498.8h192.3v2H102zM0 441.9h102v2H0zM0 498.8h102v2H0zM294.3 385h78.5v2h-78.5zM294.3 441.9h78.5v2h-78.5zM102 385h192.3v2H102z"/><path fill="#C0C0C0" d="M102 441.9h192.3v2H102zM0 385h102v2H0zM0 441.9h102v2H0zM294.3 328.1h78.5v2h-78.5zM294.3 385h78.5v2h-78.5zM102 328.1h192.3v2H102zM102 385h192.3v2H102zM0 328.1h102v2H0z"/><path fill="#C0C0C0" d="M0 385h102v2H0zM294.3 271.1h78.5v2h-78.5zM294.3 328.1h78.5v2h-78.5zM102 271.1h192.3v2H102zM102 328.1h192.3v2H102zM0 271.1h102v2H0zM0 328.1h102v2H0zM294.3 214.2h78.5v2h-78.5z"/><path fill="#C0C0C0" d="M294.3 271.1h78.5v2h-78.5zM102 214.2h192.3v2H102zM102 271.1h192.3v2H102zM0 214.2h102v2H0zM0 271.1h102v2H0zM294.3 157.3h78.5v2h-78.5zM294.3 214.2h78.5v2h-78.5zM102 157.3h192.3v2H102z"/><path fill="#C0C0C0" d="M102 214.2h192.3v2H102zM0 157.3h102v2H0zM0 214.2h102v2H0zM294.3 100.4h78.5v2h-78.5zM294.3 157.3h78.5v2h-78.5zM102 100.4h192.3v2H102zM102 157.3h192.3v2H102zM0 100.4h102v2H0z"/><path fill="#C0C0C0" d="M0 157.3h102v2H0zM294.3 43.5h78.5v2h-78.5zM294.3 100.4h78.5v2h-78.5zM102 43.5h192.3v2H102zM102 100.4h192.3v2H102zM0 43.5h102v2H0zM0 100.4h102v2H0z"/><path fill="#C0C0C0" d="M294.3 43.5h78.5v2h-78.5zM102 43.5h192.3v2H102zM0 43.5h102v2H0z"/><path d="M54.8.6L56.4 11l.4 1.4.5 1v.5l.4.4-.6.5-.5 1.7.5 1.5-.3 1.8.4.5v.5L46 20.7v.7l1 1-.2.6.2.5-.7.6-.2-.1v.1h.2l-.4.3-1.7.2 1.2-.3-.4-.6h-.4l-.1-.4.1-.5-.4-.8-.6 2.1-.8-.4h-.5l-.1-7.6 2-15.2-.2-.5 10.8.2zM43.9 24.4h-1l.8-.1.2.1zM119.8 3.3h3.4l8.2 22.5h-3.3l-2.4-6.7h-8.8l-2.4 6.7h-3.1l8.4-22.5zm5.1 13.3l-3.5-9.9-3.6 9.9h7.1zM133.9 3.3h2.8v22.5h-2.8V3.3zM149.6 15.9c.6-.1 1.1-.3 1.3-.8.1-.2.2-.6.2-1.1 0-.9-.3-1.6-1-2.1-.7-.4-1.6-.6-2.9-.6-1.4 0-2.5.4-3.1 1.2-.3.4-.6 1.1-.7 1.9h-2.6c.1-2 .7-3.4 2-4.2 1.3-.8 2.7-1.2 4.4-1.2 1.9 0 3.5.4 4.7 1.1 1.2.7 1.8 1.9 1.8 3.4V23c0 .3.1.5.2.7.1.2.4.3.7.3h.4c.2 0 .3 0 .5-.1v2c-.4.1-.8.2-1 .2h-.9c-1 0-1.6-.3-2.1-1-.2-.4-.4-.9-.5-1.5-.6.7-1.4 1.4-2.4 1.9-1.1.5-2.2.8-3.5.8-1.5 0-2.8-.5-3.7-1.4-1-.9-1.4-2.1-1.4-3.5 0-1.5.5-2.7 1.4-3.5 1-.8 2.2-1.4 3.7-1.5l4.5-.5zm-5.8 7.5c.6.5 1.3.7 2.1.7 1 0 1.9-.2 2.8-.7 1.5-.7 2.3-2 2.3-3.7v-2.2c-.3.2-.8.4-1.3.5-.5.1-1.1.2-1.6.3l-1.7.2c-1 .1-1.8.3-2.3.6-.9.5-1.3 1.2-1.3 2.3.1.9.4 1.5 1 2zM158.9 22.5h3.2v3.3h-3.2v-3.3zM305.5 3.3h9.7c2.7 0 4.5.8 5.7 2.4.7.9 1 2 1 3.2 0 1.4-.4 2.6-1.2 3.5-.4.5-1 .9-1.8 1.3 1.2.4 2 .9 2.6 1.5 1 1 1.5 2.3 1.5 4.1 0 1.5-.5 2.8-1.4 3.9-1.4 1.8-3.5 2.6-6.5 2.6h-9.6V3.3zm8.6 9.6c1.3 0 2.3-.2 3-.5 1.1-.6 1.7-1.6 1.7-3 0-1.5-.6-2.5-1.8-3-.7-.3-1.7-.4-3-.4h-5.5v7h5.6zm1 10.4c1.9 0 3.2-.5 4-1.6.5-.7.8-1.5.8-2.5 0-1.6-.7-2.7-2.2-3.3-.8-.3-1.8-.5-3.1-.5h-6.1v7.9h6.6zM19.4 76v.2l.1.3-.5-.5h.4zm.3 1.1l-.1.2-.2-.2H19.7zm1.7 1.2l-.1-.2.1.2zm1.2 1l-.4.1v-.1h.4zm.4.6l.2.1H23v-.1zm.3 0l.1-.1v.1h-.1zm.1.4l.3.6.1.1h-.1l-.3-.7zm.9 0l-.2-.1.3-.2.1.3h-.2zm.8 1.3h.2-.2zm.5-.5zm.8.1l.2.1-.4.3-.1-.5.3.1zm.6.4h-.6v-.1l.6-.2v.3zm.6-.1v.4h-.4l.3-.5.1.1zm.2.2l.1.3h-.2l.1-.3zm.2 0l.1.2H28v-.2zm.1 0v.2l-.1-.2h.1zm.1-.1l-.2-.1.1-.1.1.2zm.2.1zm1.7-.1l-.2.4h-.5l-.6-.3 1.3-.1zm.3.5l.2.2.3.1-.5-.1-.4-.3.4.1zm1.1.1h-.2.2zm1.2 0l-.2-.1h.1l.1.1zm.5 0H33h.2zm.5-.1V82l.2.1h-.2zm.4-.2v.2l-.2-.1.2-.1zm0 0v-.2h.1l-.1.2zm.8-11.4l-.3-.2-.1-.3.4.5zm1 10.8l.1.3-1 .5h-.3l1.2-.8zm-.5-5.7l-.2.1-.2-.1h.4zm0 .9l.2.1-.2-.1zm1.2 5.1l.4-.3-.1-.3.7.1-.6.6h-1l.6-.1zm.5-15.6l.4-.1.9.9-.6.3-.1-.3-.3-.2.1-.1-.3-.4H37l-.3.2-.2-.2.2-.6.4.5zm.3.6l-.2-.2.2.2zm.2 14.6l-.1.1h-.1v-.1h.2zm.4-.4l.2.2h-.3v-.2h.1zm.2-.1l.1.2-.1.1-.1-.2h.1zm1.3-9.3l.3.7-.5.3-.9-.9 1.1-.1zm-.7 9.6h-.3l.1-.1.2.1zm1.2-1.2h.2l.1.4.2.1v.2l-1.6.1.4-.6.7-.2zm10.4-6.4h-.3v-.1l.3-1.5.7-.4 1.1.1-.8-.3.5-.7-.5.5-.5-.1-1.3 1.6-.1.1-.2-.1h-.2l.3.6-.4.3-.2-.2-.6.9.8.5-.9 1.1-1.8 1.1v.6l-1.6.7-.2.3.4.2-.3.3v-.3h-.1l-.1.3-.8.1-.1.4-.1-.4-1.3.7.2-.3-.5-.2-.2.8h-.4l-.2-.5v.5l-.4-.3v.3l-.3.1.1-.3 1.5-1.1.6-.1.3.5v-.2l.4.2v-.8l1.4-.8.2.2.3-.8.7-.3v-.9h.3l-.3-.3.5-.7.1-.6-1.1.7-.2-.5.2-.1.1.2-.1-.2-.4-.2-.3 1.2-1.1-1.2-1.1.7-.4-.1.5-.2.1-.4h-.2l-.1-.3.3-.3-.5-1.4.5-.6-.7.6v.4l-.8.1-1.1-1.2.5-.5.1.2.2.2-.1.2.8-.1-.3-.2.1-.2-.2.1-.6-.2h-.2l.3-.3-.4-.2h.1v-.2h.1V70h.1l.2-.2-.4.2-.3.3-.3-1.1h.4l.5-.9.3.2-.1-.6.5-.2v-.3l.4.1-.1.3 1.2-.8.7.1.4-.5-.5-.9.5-.4-.1-.3-1.1.8-.2-.5v.4l-1.9-.5v-.5l-.2-.4v-.2l.5.1-.7-.4-.5-.5h.5l.8-.5.6.1-.1-.3.9-.2h.3l-.5.6.3.3 1.6.1-.1-.4-.4.1-.1-1.1.3.8.8.2v-.4l-.8.1.1-.6-.4-.1.1-.3v-.1h-.8l-.2-.8-1.2-1.4.3-.7 1.5-.1 1.1-1.7-.1.3 1.2-.5-.2.3.2.3.3-.5-.5-.2 1.2-.2.8-.8.4.3-.3.4.1.2.5-.6.4.6 1-.1.1.4-.3.1.8.1.8-.2 2.4.6 1-.4 1.2.5 2.8 13.8 1.4-.3v.4l1.7 1.5.4-.5h.1l.1-.8.7-.3 2 1.4 2 2.2 1.6.3.5 1.6-.5.5.1-.9-.2.4.2-.3-.7-1.1-.7 1.1-.1-.9.3-.1v-.1l-1-.4-.4-.5-.7.1v-.2h.2l.1-.2v-.1l-.6-.3.1-.1.4.2.1-.1-.6-.4v.2l-.3-.5-.3.1v-.7.8l-.3-.2h-.3l-.9-1.4.8 1.7-.4-.2-.3.2-.1-.8-.3-.1.1.5-.8-.4v.4l.4-.2.6.5-.3.5-2.9-1.4.2-.8.2.6.2-.4-.5-.3-.6.7H58V72l-.1-.3-.2.3-1.9.3-.6-.3.1-.8-.4.8-.4-.2.1-.1.1-.2h-.5l.1-.2-.4.1.3-.2h-.5l.3-.4-.7.4-.3-.3-.2.4v-.7l-.6.8.5.3-.2.1-.1.2h.5l-.3.3v.5l-.6.2-.1-.5-.1.7-.1-.4v.5l-.2-.2v.3l-.5.1-.3.5-.5.1-.1-.4.4-.1.2-.4-.3.2zM40.3 63.2l.3-.2v.1l-.3.1zm.3-.3l.2-.2h.1l-.3.2zm.2 17.9v.2-.2zm.2.2h-.1v-.1l.1.1zm.3-.8l-.2-.1.2-.1v.2zm.2-17.7l-.1.1.1-.1zm.1 0l.4-.2h-.1l-.3.2zm.1 17.4l-.1.1-.1-.1h.2zm.4-.1H42h.1zm.6 0l.1.2h-.3l.2-.4v.2zm.1-12.8v.2h-.2l.1-.1h.1zm.1 12.7v.2l-.2-.1.2-.1zm.1-5.1l-.2.1.3-.3-.1.2zm0 4.9l.1.1v.1l-.2-.1.1-.1zm.4.5l-.4.4V80h.4zm.3 0l-.2.2.2-.3v.1zm.1.2v.1h-.1v-.1h.1zm0 .1l.1.1-.1.1v-.2zm.2-1.1zm.4-.3l.1.2h-.3v-.2h.2zm1.5-.9l-.2.1.1-.1h.1zm1.3 1.2h-.3l.2-.2h.1v.2zm2-3.2l.7.6-.6.1.3.3-.4-.1-.8 1 .3-.6h-.3l-.1.4-.4-.8.5-.4.1.1v.1h.2v.2l.1.1.1.1-.2-.8.3.3.4-.3-.4-.4.2.1zm-1.1 2v.1l-.3.2.3-.3zm.3 0l-.1.1h-.2l.1-.1h.2zm.1.1h-.2V78l.2.1zm.4-4.2h-.1v-.1l.1-.1v.2zM49 76v.1l-.2-.1.1-.1.1.1zm0-.3l.2.2h.1l-.4-.1.1-.1zm.1 1.4l.2.1-.3.2-.1-.2.2-.1zm.3-1.6l-.1-.1.1-.2.6.2-.7.5-.3-.2.4-.2zm0 0l-.1-.1.1.1zm0 .5zm.2-.8l.1-.3-.1.3zm0 .7zm.1-1.4zm.2-2.2l.1-.3.1.1-.2.2zm.2 3.3l.1-.2-.1.2zm.9-1.8v-.2.2zm.3-.2zm1.5-1.9l-.1-.1v-.1h.1v.2zm0-.5l.1.1-.1.1v-.2zm.1.3v.2-.2zm.6-.3h-.1.1zm.5.7l.2.1.1-.1v.1l-.3.2v-.3zm.3-.1l-.1.1.4-.4v.1l-.3.2zm.8.2h-.2l.2-.2v.2zm7.3 2v.3l-.1-.4.1.1zm.4-.4l.1.3.6-.3v.4l-.8-.1.8.2.2.4-.9-.3.3.4-.2.1-.6-.4V74l.3.1-.4-.4v-.1l.2.3.4-.3zm.5 1.3l.1.4-.2.1-.2-.5h.3zm.2-1.7l.6.1.6.7-.7-.5.7.9-.5.7.1-.6-.8-1.3zm0 1.5l.4.1.4.8.3.8-.4-.7-.4-.1-.3-.9zm.3-1.5l.1.1-.3-.1h.2zm1 2l.3.3v1l-.5-1.2.2-.1zm0-.4h.8l.1.5-.5-.3.3.6-.4.1-.3-.9zm.1 1.8h.1v.1l-.1-.1zm.4 0zm0-.9l1.6.9-.4-.1-.1.3.6.1.3.9-.8-.7-.4.1v-.6l-.3.1.1-.4-.3-.3h-.2l-.1-.3zm.3.3l.1.3-.3.3v-.3l.2-.3zm0 .6h.3l-.2.1-.1-.1zm0 .4v.1-.1zm0-2.1l.3.3-.1.2h-.2v-.5zm.1 2.2h.2l-.1.3-.2-.1.1-.2zm.3-1.6v.3l-.3-.1.1-.1.2-.1zm-.2 1zm0 .6zm.2-.1l-.1-.1.1.1zm0 .2l.1.1-.1.1v-.2zm.2-1.5h.3l.2.3-.6-.1.1-.3v.1zm.2-.2l.3.2-.1.1-.5-.4.3.1zm-.1 2l.5.5-.5-.3v-.2zm.2-.2l.2.2-.2.1v-.3zm.2.3h.1l.1.2-.2-.1v-.1zm.7-1.9l.4.3v.8l-.3-.5v.4l-.4-.1.3-.9zm-.3 1l.3.1v.2h-.1l-.2-.3zm.6.2l-.2.3-.1-.4h.1l.2.1zm.2.4h-.2l.2-.2v.2zM119.8 60.2h3.4l8.2 22.5h-3.3l-2.4-6.7h-8.8l-2.4 6.7h-3.1l8.4-22.5zm5.1 13.3l-3.5-9.9-3.6 9.9h7.1zM133.9 60.2h2.8v22.5h-2.8V60.2zM149.6 72.8c.6-.1 1.1-.3 1.3-.8.1-.2.2-.6.2-1.1 0-.9-.3-1.6-1-2.1-.7-.4-1.6-.6-2.9-.6-1.4 0-2.5.4-3.1 1.2-.3.4-.6 1.1-.7 1.9h-2.6c.1-2 .7-3.4 2-4.2 1.3-.8 2.7-1.2 4.4-1.2 1.9 0 3.5.4 4.7 1.1 1.2.7 1.8 1.9 1.8 3.4v9.5c0 .3.1.5.2.7.1.2.4.3.7.3h.4c.2 0 .3 0 .5-.1v2c-.4.1-.8.2-1 .2h-.9c-1 0-1.6-.3-2.1-1-.2-.4-.4-.9-.5-1.5-.6.7-1.4 1.4-2.4 1.9s-2.2.8-3.5.8c-1.5 0-2.8-.5-3.7-1.4-1-.9-1.4-2.1-1.4-3.5 0-1.5.5-2.7 1.4-3.5 1-.8 2.2-1.4 3.7-1.5l4.5-.5zm-5.8 7.5c.6.5 1.3.7 2.1.7 1 0 1.9-.2 2.8-.7 1.5-.7 2.3-2 2.3-3.7v-2.2c-.3.2-.8.4-1.3.5-.5.1-1.1.2-1.6.3l-1.7.2c-1 .1-1.8.3-2.3.6-.9.5-1.3 1.2-1.3 2.3.1.9.4 1.5 1 2zM159.9 77.6c.1.9.3 1.6.7 2.1.7.9 1.9 1.3 3.7 1.3 1 0 2-.2 2.8-.7.8-.4 1.2-1.1 1.2-2.1 0-.7-.3-1.2-1-1.6-.4-.2-1.2-.5-2.4-.8l-2.2-.6c-1.4-.3-2.5-.7-3.1-1.2-1.2-.7-1.8-1.8-1.8-3.1 0-1.6.6-2.8 1.7-3.8s2.7-1.4 4.6-1.4c2.5 0 4.3.7 5.4 2.2.7.9 1 1.9 1 3h-2.6c-.1-.6-.3-1.2-.7-1.7-.6-.7-1.8-1.1-3.4-1.1-1.1 0-1.9.2-2.4.6-.5.4-.8.9-.8 1.6 0 .7.4 1.3 1.1 1.7.4.3 1 .5 1.8.7l1.9.4c2 .5 3.4.9 4.1 1.4 1.1.7 1.6 1.8 1.6 3.3 0 1.5-.6 2.7-1.7 3.8-1.1 1.1-2.8 1.6-5.1 1.6-2.5 0-4.2-.6-5.3-1.7s-1.6-2.5-1.7-4.1h2.6zM173.9 60.2h2.7v13.1l7.1-7h3.5l-6.3 6.1 6.7 10.3H184l-5.2-8.4-2.3 2.2v6.2h-2.7V60.2zM198.5 72.8c.6-.1 1.1-.3 1.3-.8.1-.2.2-.6.2-1.1 0-.9-.3-1.6-1-2.1-.7-.4-1.6-.6-2.9-.6-1.4 0-2.5.4-3.1 1.2-.3.4-.6 1.1-.7 1.9h-2.6c.1-2 .7-3.4 2-4.2s2.7-1.2 4.4-1.2c1.9 0 3.5.4 4.7 1.1 1.2.7 1.8 1.9 1.8 3.4v9.5c0 .3.1.5.2.7.1.2.4.3.7.3h.4c.2 0 .3 0 .5-.1v2c-.4.1-.8.2-1 .2h-.9c-1 0-1.6-.3-2.1-1-.2-.4-.4-.9-.5-1.5-.6.7-1.4 1.4-2.4 1.9s-2.2.8-3.5.8c-1.5 0-2.8-.5-3.7-1.4-1-.9-1.4-2.1-1.4-3.5 0-1.5.5-2.7 1.4-3.5 1-.8 2.2-1.4 3.7-1.5l4.5-.5zm-5.8 7.5c.6.5 1.3.7 2.1.7 1 0 1.9-.2 2.8-.7 1.5-.7 2.3-2 2.3-3.7v-2.2c-.3.2-.8.4-1.3.5-.5.1-1.1.2-1.6.3l-1.7.2c-1 .1-1.8.3-2.3.6-.9.5-1.3 1.2-1.3 2.3.1.9.4 1.5 1 2zM312.1 60.2h3.4l8.2 22.5h-3.3L318 76h-8.8l-2.4 6.7h-3.1l8.4-22.5zm5.1 13.3l-3.5-9.9-3.6 9.9h7.1zM59.8 118.3l.2 19.5h-7.1L40 132.7l.4-.9h.6l.3-.5-.1-.6-.6-.3v-.5l-.1-.5v-.4l.3-.2.4-.4.2-.7-.1-1 .5-.6.9-.6-.8-.8-.1-.7-.6-1-.1-1 .3-.3-.3-1.3.1-1.5-.3-.6.1-.4.5-.2.6.2.4.4.4-.1.3-.7.2-3.2 16.4.2v3.8zM119.8 117.2h3.4l8.2 22.5h-3.3l-2.4-6.7h-8.8l-2.4 6.7h-3.1l8.4-22.5zm5.1 13.2l-3.5-9.9-3.6 9.9h7.1zM133.9 123.3h2.6v2.8c.2-.6.7-1.2 1.6-2 .8-.8 1.8-1.2 2.9-1.2h.3c.1 0 .3 0 .6.1v2.9c-.2 0-.3-.1-.5-.1h-.5c-1.4 0-2.5.4-3.2 1.3-.7.9-1.1 1.9-1.1 3.1v9.4h-2.8v-16.3zM144.3 117.2h2.8v3.1h-2.8v-3.1zm0 6.1h2.8v16.3h-2.8v-16.3zM150 137.5l9.8-11.8h-9v-2.5h12.7v2.3l-9.7 11.7h10v2.5H150v-2.2zM167.6 136.3h3.2v3.3h-3.2v-3.3zM305.7 117.2h9c3.1 0 5.4 1.1 7.1 3.3 1.5 2 2.3 4.5 2.3 7.6 0 2.4-.4 4.6-1.3 6.5-1.6 3.4-4.3 5.1-8.1 5.1h-9v-22.5zm8.4 19.9c1 0 1.8-.1 2.5-.3 1.2-.4 2.1-1.2 2.8-2.3.6-.9 1-2.1 1.3-3.5.2-.8.2-1.6.2-2.4 0-2.8-.5-5-1.6-6.5s-2.8-2.3-5.2-2.3h-5.3v17.3h5.3zM36.8 171.3l11.8.2h12.2l.5.8v.6l-1.2 1.2-.4.8 3.6-.2.2.7-.4-.1-.2.3.5.3-1.3.7.2.5-.2.3.1.3-.5.3v.4l-.4.6.2 1.4-.2.2H61l-.3.6-.5.3.2.6-1 .6-.1.6h-.4l-.3.6v1.5l-.5.3h-.3v.6h-.4l-.2.6-.6.3.5.4-.1.4-1.1.4.4.3-.3.4.2.4-1 .9.4.3-.1.3-.4.1.6.6v.7l-.3.3.4.3.1.8-.4.2v.7H39.3V191l-.8-.3-1.1.2v-.2h-.3l-.3-.5.6-11.6-.6-7.3zM119.8 174.1h3.4l8.2 22.5h-3.3l-2.4-6.7h-8.8l-2.4 6.7h-3.1l8.4-22.5zm5.1 13.2l-3.5-9.9-3.6 9.9h7.1zM133.9 180.2h2.6v2.8c.2-.6.7-1.2 1.6-2 .8-.8 1.8-1.2 2.9-1.2h.3c.1 0 .3 0 .6.1v2.9c-.2 0-.3-.1-.5-.1h-.5c-1.4 0-2.5.4-3.2 1.3-.7.9-1.1 1.9-1.1 3.1v9.4h-2.8v-16.3zM144.2 174.1h2.7v13.1l7.1-7h3.5l-6.3 6.1 6.7 10.3h-3.5l-5.2-8.4-2.3 2.2v6.2h-2.7v-22.5zM160.6 193.2h3.2v3.3h-3.2v-3.3zM321.5 175.7c1.6 1.5 2.4 3.2 2.6 5.1h-3c-.3-1.5-1-2.6-2-3.4s-2.4-1.3-4.2-1.3c-2.2 0-3.9.8-5.3 2.3-1.3 1.6-2 4-2 7.2 0 2.6.6 4.8 1.8 6.4s3 2.5 5.4 2.5c2.2 0 3.9-.9 5-2.6.6-.9 1.1-2.1 1.4-3.6h3c-.3 2.4-1.1 4.4-2.6 6-1.8 1.9-4.2 2.9-7.2 2.9-2.6 0-4.8-.8-6.5-2.4-2.3-2.1-3.5-5.3-3.5-9.7 0-3.3.9-6 2.6-8.2 1.9-2.3 4.5-3.5 7.8-3.5 3 0 5.1.8 6.7 2.3zM47.7 229l.1 5.3 12.5 10.5.8 1.4.6.4-.9 1.1.1 1.2-.5.4.3.9.5.2v.7l-6.1 1.1-.3-.4.3.1-.1-.2-.3.1-.2-1.1-.6-.8-1.5-1h-.6l-.3-.8-.7.1-.8-.3-.4-.5-.6-.4-2-.1-.3-.2V245l-.6-.2v-.6l-.9-.7-.5-.9-.8-.8-.2-.9.3-.1.2-.6-.3-.3h-.5l-.4-.5-.5-1.1v-.7l.3-.1v.6l.6.4h.2l-.3-.8-.3-.2-.2-.5.1-.1h1.5l.1-.3.5.3-.4-.3-.6.4.2-.3-.5.3-.3-.3-.3.3-.5-.3h-.3l.2.7-.2.2-.9-.7-.2.3.1-.7.3.3-.6-1-1.3-1.4v-.4l-.2-.8.1-.9-.4-.8-.8-.7v-.5l.2-.8.4-.4-.2.2.4-1.9-.2-.7-.2-.3v-.6h8.8l.1 3.2zm-.3 19.1h-.3l.1-.1.2.1zm.6.1l.1.2-.3.2-.2-.4h.4zm.5-.1h.6l.1.1-.6.2-.3-.3h.2zm.8 2.1h.2v.1l-.3-.1h.1zm2.7-.4l.1.3h-.3l-.4-.4.6.1zm0 1.6h-.3l-.3-.7h.1l.5.7zM129.2 232.6c1.6 1.5 2.4 3.2 2.6 5.1h-3c-.3-1.5-1-2.6-2-3.4-1-.8-2.4-1.3-4.2-1.3-2.2 0-3.9.8-5.3 2.3-1.3 1.6-2 4-2 7.2 0 2.6.6 4.8 1.8 6.4 1.2 1.6 3 2.5 5.4 2.5 2.2 0 3.9-.9 5-2.6.6-.9 1.1-2.1 1.4-3.6h3c-.3 2.4-1.1 4.4-2.6 6-1.8 1.9-4.2 2.9-7.2 2.9-2.6 0-4.8-.8-6.5-2.4-2.3-2.1-3.5-5.3-3.5-9.7 0-3.3.9-6 2.6-8.2 1.9-2.3 4.5-3.5 7.8-3.5 2.9.1 5.1.8 6.7 2.3zM144.4 243.6c.6-.1 1.1-.3 1.3-.8.1-.2.2-.6.2-1.1 0-.9-.3-1.6-1-2.1-.7-.4-1.6-.6-2.9-.6-1.4 0-2.5.4-3.1 1.2-.3.4-.6 1.1-.7 1.9h-2.6c.1-2 .7-3.4 2-4.2 1.3-.8 2.7-1.2 4.4-1.2 1.9 0 3.5.4 4.7 1.1 1.2.7 1.8 1.9 1.8 3.4v9.5c0 .3.1.5.2.7.1.2.4.3.7.3h.4c.2 0 .3 0 .5-.1v2c-.4.1-.8.2-1 .2h-.9c-1 0-1.6-.3-2.1-1-.2-.4-.4-.9-.5-1.5-.6.7-1.4 1.4-2.4 1.9-1.1.5-2.2.8-3.5.8-1.5 0-2.8-.5-3.7-1.4-1-.9-1.4-2.1-1.4-3.5 0-1.5.5-2.7 1.4-3.5 1-.8 2.2-1.4 3.7-1.5l4.5-.5zm-5.8 7.4c.6.5 1.3.7 2.1.7 1 0 1.9-.2 2.8-.7 1.5-.7 2.3-2 2.3-3.7v-2.2c-.3.2-.8.4-1.3.5-.5.1-1.1.2-1.6.3l-1.7.2c-1 .1-1.8.3-2.3.6-.9.5-1.3 1.2-1.3 2.3.1.9.4 1.5 1 2zM153.1 231h2.8v22.5h-2.8V231zM160 231h2.8v3.1H160V231zm0 6.1h2.8v16.3H160v-16.3zM168.3 232.1c.6-.9 1.9-1.4 3.7-1.4h1.1v2.5h-1c-.8 0-1.4.2-1.5.7-.2.4-.2 1.5-.2 3.3h2.8v2.2h-2.8v14.2h-2.7v-14.2h-2.3v-2.2h2.3v-2.6c0-1.2.2-2 .6-2.5zM176.4 250.1h3.2v3.3h-3.2v-3.3zM305.9 231h16.3v2.8h-13.4v6.8h12.4v2.6h-12.4v7.6h13.6v2.7h-16.6V231zM65.6 290.8l.8 17.4-15.9.3-16.8-.3.9-23.2 15.3.3 15.6-.3.1 5.8zM129.2 289.5c1.6 1.5 2.4 3.2 2.6 5.1h-3c-.3-1.5-1-2.6-2-3.4s-2.4-1.3-4.2-1.3c-2.2 0-3.9.8-5.3 2.3-1.3 1.6-2 4-2 7.2 0 2.6.6 4.8 1.8 6.4 1.2 1.6 3 2.5 5.4 2.5 2.2 0 3.9-.9 5-2.6.6-.9 1.1-2.1 1.4-3.6h3c-.3 2.4-1.1 4.4-2.6 6-1.8 1.9-4.2 2.9-7.2 2.9-2.6 0-4.8-.8-6.5-2.4-2.3-2.1-3.5-5.3-3.5-9.7 0-3.3.9-6 2.6-8.2 1.9-2.3 4.5-3.5 7.8-3.5 2.9.1 5.1.8 6.7 2.3zM147.5 295.6c1.5 1.4 2.2 3.5 2.2 6.2 0 2.6-.6 4.8-1.9 6.6-1.3 1.7-3.3 2.6-6 2.6-2.2 0-4-.8-5.3-2.3-1.3-1.5-2-3.6-2-6.2 0-2.8.7-5 2.1-6.6 1.4-1.6 3.3-2.5 5.6-2.5 2 .1 3.8.8 5.3 2.2zm-1.8 10.9c.7-1.4 1-2.9 1-4.6 0-1.5-.2-2.8-.7-3.7-.8-1.5-2.1-2.3-4-2.3-1.7 0-2.9.6-3.6 1.9-.8 1.3-1.1 2.8-1.1 4.7 0 1.7.4 3.2 1.1 4.4.8 1.2 2 1.7 3.6 1.7 1.8 0 3.1-.7 3.7-2.1zM153.1 287.9h2.8v22.5h-2.8v-22.5zM171.9 295.6c1.5 1.4 2.2 3.5 2.2 6.2 0 2.6-.6 4.8-1.9 6.6-1.3 1.7-3.3 2.6-6 2.6-2.2 0-4-.8-5.3-2.3-1.3-1.5-2-3.6-2-6.2 0-2.8.7-5 2.1-6.6 1.4-1.6 3.3-2.5 5.6-2.5 2.1.1 3.8.8 5.3 2.2zm-1.7 10.9c.7-1.4 1-2.9 1-4.6 0-1.5-.2-2.8-.7-3.7-.8-1.5-2.1-2.3-4-2.3-1.7 0-2.9.6-3.6 1.9-.8 1.3-1.1 2.8-1.1 4.7 0 1.7.4 3.2 1.1 4.4.8 1.2 2 1.7 3.6 1.7 1.8 0 3-.7 3.7-2.1zM178.1 307h3.2v3.3h-3.2V307zM305.9 287.9h15.6v2.8h-12.6v6.8H320v2.7h-11.1v10.2h-3.1v-22.5zM46.1 342l3.2.2.1.6.7-.1v-.5l16.6.1.3 11.7-.2 2.5-.4.5-.3 1.6-.5.2.3-.4-.4-.2H64l-1.3.6-.8-.8-.4 1-1.4-.3-.2.6-.5-.3-1.1.7-1-.6v-.8l-.8-.4.7 1-.2.5.3.2-.4.3-1.5-.2-.9.7-.2-.3-.3.1-1.1-.4-1 .3-.5.3-.9-.3-1.1.2H48l-.3-.4-.1-.7-1.7 2-.7.2-1.3 1-.5.2-.4-.4-.8.5-.2-.1-.6.7-.6-.2-1 .5-2.2 1.4h-.5l-.3.6-.1-.2-1 .5-.3-.3-.8.4-1.3-2.2 4.3-2.5-1.1-1.8 1.2-17.6 8.4.1zM129.2 346.4c1.6 1.5 2.4 3.2 2.6 5.1h-3c-.3-1.5-1-2.6-2-3.4s-2.4-1.3-4.2-1.3c-2.2 0-3.9.8-5.3 2.3-1.3 1.6-2 4-2 7.2 0 2.6.6 4.8 1.8 6.4 1.2 1.6 3 2.5 5.4 2.5 2.2 0 3.9-.9 5-2.6.6-.9 1.1-2.1 1.4-3.6h3c-.3 2.4-1.1 4.4-2.6 6-1.8 1.9-4.2 2.9-7.2 2.9-2.6 0-4.8-.8-6.5-2.4-2.3-2.1-3.5-5.3-3.5-9.7 0-3.3.9-6 2.6-8.2 1.9-2.3 4.5-3.5 7.8-3.5 2.9.1 5.1.8 6.7 2.3zM147.5 352.5c1.5 1.4 2.2 3.5 2.2 6.2 0 2.6-.6 4.8-1.9 6.6-1.3 1.7-3.3 2.6-6 2.6-2.2 0-4-.8-5.3-2.3-1.3-1.5-2-3.6-2-6.2 0-2.8.7-5 2.1-6.6 1.4-1.6 3.3-2.5 5.6-2.5 2 .1 3.8.8 5.3 2.2zm-1.8 10.9c.7-1.4 1-2.9 1-4.6 0-1.5-.2-2.8-.7-3.7-.8-1.5-2.1-2.3-4-2.3-1.7 0-2.9.6-3.6 1.9-.8 1.3-1.1 2.8-1.1 4.7 0 1.7.4 3.2 1.1 4.4.8 1.2 2 1.7 3.6 1.7 1.8 0 3.1-.7 3.7-2.1zM153 350.9h2.6v2.3c.8-1 1.6-1.7 2.5-2.1.9-.4 1.8-.6 2.9-.6 2.3 0 3.9.8 4.7 2.4.5.9.7 2.2.7 3.8v10.5h-2.8v-10.3c0-1-.1-1.8-.4-2.4-.5-1-1.4-1.5-2.7-1.5-.7 0-1.2.1-1.6.2-.8.2-1.4.7-2 1.3-.5.5-.8 1.1-.9 1.7-.1.6-.2 1.4-.2 2.5v8.6H153v-16.4zM170.5 350.9h2.6v2.3c.8-1 1.6-1.7 2.5-2.1.9-.4 1.8-.6 2.9-.6 2.3 0 3.9.8 4.7 2.4.5.9.7 2.2.7 3.8v10.5h-2.8v-10.3c0-1-.1-1.8-.4-2.4-.5-1-1.4-1.5-2.7-1.5-.7 0-1.2.1-1.6.2-.8.2-1.4.7-2 1.3-.5.5-.8 1.1-.9 1.7-.1.6-.2 1.4-.2 2.5v8.6h-2.8v-16.4zM188.6 364h3.2v3.3h-3.2V364zM320.6 345.4c2.2 1.2 3.6 3.2 4 6.2h-3c-.4-1.6-1.1-2.8-2.2-3.6-1.1-.8-2.6-1.1-4.3-1.1-2 0-3.8.8-5.2 2.3-1.4 1.6-2.1 3.9-2.1 7 0 2.7.6 4.9 1.7 6.5 1.2 1.7 3 2.5 5.6 2.5 2 0 3.6-.6 5-1.8s2-3.1 2-5.7H315v-2.5h9.9v12h-2l-.7-2.9c-1 1.1-1.9 1.9-2.7 2.4-1.3.8-3 1.1-5 1.1-2.6 0-4.9-.9-6.8-2.6-2.1-2.2-3.1-5.1-3.1-8.9 0-3.8 1-6.8 3-9 1.9-2.1 4.4-3.2 7.4-3.2 2.2.1 4 .5 5.6 1.3zM49.9 398.6l-.7.6-.2.7-.8 1.1-.6.3-.2.7.6.6.1.7-.3 1 1.3 2.4.4.1.4.6.4 1-.1 1.5.2 1.7.3.2.7 1.3.1 1.1 1.9 2.1 1.2.1.1.3.2 1.9-.2.7v-.8l-.2-.2h-.7l.2.7h-.4l.7.4-.3.2-1 .3-.2.3h.3l-.3.3 1.2-.3.4.4.5-.8.2 2.8-.4-.1-.1.1H46l-1-22.1 1.1-1.4 1.4-.6H49l.9.1zM113.4 401.7h9c3.1 0 5.4 1.1 7.1 3.3 1.5 2 2.3 4.5 2.3 7.6 0 2.4-.4 4.6-1.3 6.5-1.6 3.4-4.3 5.1-8.1 5.1h-9v-22.5zm8.4 19.9c1 0 1.8-.1 2.5-.3 1.2-.4 2.1-1.2 2.8-2.3.6-.9 1-2.1 1.3-3.5.1-.8.2-1.6.2-2.4 0-2.8-.5-5-1.6-6.5s-2.8-2.3-5.2-2.3h-5.3v17.3h5.3zM145.7 408.2c1.1.5 1.9 1.3 2.5 2.1.5.8.9 1.8 1.1 2.9.2.8.2 2 .2 3.6h-11.9c.1 1.7.4 3 1.2 4 .7 1 1.9 1.5 3.4 1.5 1.4 0 2.6-.5 3.4-1.4.5-.6.8-1.2 1-1.9h2.7c-.1.6-.3 1.3-.7 2-.4.7-.9 1.3-1.4 1.8-.8.8-1.9 1.4-3.1 1.7-.7.2-1.4.2-2.2.2-2 0-3.8-.7-5.2-2.2-1.4-1.5-2.1-3.6-2.1-6.2s.7-4.8 2.1-6.4c1.4-1.6 3.3-2.5 5.6-2.5 1.2 0 2.3.3 3.4.8zm1 6.5c-.1-1.2-.4-2.2-.8-2.9-.8-1.3-2-2-3.8-2-1.3 0-2.3.5-3.2 1.4-.9.9-1.3 2.1-1.4 3.5h9.2zM153.1 401.7h2.8v22.5h-2.8v-22.5zM160.7 420.9h3.2v3.3h-3.2v-3.3zM305.6 401.7h3.1v9.3h11.6v-9.3h3.1v22.5h-3.1v-10.5h-11.6v10.5h-3.1v-22.5zM60.3 468.5l-11.1 11.3v-4.2l-.7-6.3-4.1-2.5-.9-1.2-3.9-3.3 7.2-7.3 13.5 13.5zM113.4 458.6h9c3.1 0 5.4 1.1 7.1 3.3 1.5 2 2.3 4.5 2.3 7.6 0 2.4-.4 4.6-1.3 6.5-1.6 3.4-4.3 5.1-8.1 5.1h-9v-22.5zm8.4 19.9c1 0 1.8-.1 2.5-.3 1.2-.4 2.1-1.2 2.8-2.3.6-.9 1-2.1 1.3-3.5.1-.8.2-1.6.2-2.4 0-2.8-.5-5-1.6-6.5s-2.8-2.3-5.2-2.3h-5.3v17.3h5.3zM136.2 477.8h3.2v3.3h-3.2v-3.3zM160.6 460.2c1.6 1.5 2.4 3.2 2.6 5.1h-3c-.3-1.5-1-2.6-2-3.4s-2.4-1.3-4.2-1.3c-2.2 0-3.9.8-5.3 2.3-1.3 1.6-2 4-2 7.2 0 2.6.6 4.8 1.8 6.4 1.2 1.6 3 2.5 5.4 2.5 2.2 0 3.9-.9 5-2.6.6-.9 1.1-2.1 1.4-3.6h3c-.3 2.4-1.1 4.4-2.6 6-1.8 1.9-4.2 2.9-7.2 2.9-2.6 0-4.8-.8-6.5-2.4-2.3-2.1-3.5-5.3-3.5-9.7 0-3.3.9-6 2.6-8.2 1.9-2.3 4.5-3.5 7.8-3.5 2.9.1 5.1.8 6.7 2.3zM167.6 477.8h3.2v3.3h-3.2v-3.3zM315.5 464.7h3.1c-.4 1.1-1.3 3.5-2.6 7.2-1 2.8-1.8 5.1-2.5 6.9-1.6 4.2-2.7 6.7-3.4 7.7-.7.9-1.8 1.4-3.4 1.4h-.9c-.2 0-.5-.1-.8-.2v-2.5c.5.1.8.2 1 .2h.6c.5 0 .9-.1 1.1-.3l.6-.6c.1-.1.2-.5.6-1.3.3-.8.5-1.3.7-1.7l-6.1-16.9h3.1L311 478l4.5-13.3zM54.7 524l-.1-.4h-.2v.4h-.3v-.5l-.5-.2v.2h.1l-.2.1.5.3-.3.6-.5-.5.3.4v.2l-.4-.8.7-2.2.2-1-.3-.3h.3v-.4l-.3-.3-.2-.8h-.9l-.6-1-.6-.4.1-.5-.5-.3-.4-.8-1.1-.7-.5.1-.1-.2-.7.3.2.2-.3-.1v.1l.4.2v.1l-.1.1-.4-.1-1.3.6.1-.2-.5.3-1.1.1-.1-.2-.2-.5.3.7.1-.5-.1-.3-1.1-1.1.8.5.2-.1-.3.1v-.5l-.3.1-.5-.3.6-.3-.1-.2-.4.2-.2-.2-.3.2.3.1.1.4-1.1-.6-1.5-.5.6.1.2-.2.2.2v-.2l.4.2-.1-.4-.3-.2-.6.2v-.2h-.3l-.3.4-.6-.1-1.4.2 1-.3-.4-.3.2-.2-.2-.2-.2.6-.4-.4.1.4-.4.5-.9.2.6-.7-.3-.2.2-.6-.7-.7.1-.5 8.6.4.4 1.1 8.8.8.3.8h.4v-1.5l.2-.2 1.9.4v.7l-.3-.4v.3l.4.3.5 2.6 1.1 2.9 1 1.6.4.7-.2.3v.7l.5 1.4-.7-1.4.1-1.5h-.6v-.6l-.4-.2.5 1.6 1.2 2.7.1.7.5 1.2v-.1l-.4-.1.6.4.4 1.3-.4 4v-.5l-.4 1.1-.1 1-.3.5.1.2-.2-.2h-.2l.2.1v.2l-.2-.1v-.2l-.8.3-.5-.1-.7.3-.3-.3-.1-.3.3-.4.2.2.3.2H60l.3-.1-.8-.5-.1-.7-.6-1-.9-.4-.4.1.3-.3-.3-.1-.2-.5v.2l-.2-1.4-.1-.2v.2l-.4-.1.7-.9-.4.2-.1.4h-.4l-.1-1.4.4-.3-.7.3-1-.6.4.9-.5-.2-.8-1.8v-.4l-.4-.3-.1-.2.3.2-.1-.1h.2l-.2-.2h.3-.1l.7-.9zm-13.9-10.4l-2.3.1h-.2l2-.2.6.1h-.1zm4.8 3l-.1.2-.3-.2h.4zm.4.2l-.2.1-.2-.1h.4l1-.6-1 .6zm1.2-.6H47l.3-.2-.1.2zm5.3 2.7v-.1.1zm1.2 1.5zm0 0zm.3 5.5l-.3-.4h.1l.2.4zm1.1 2.3l-.1.2v-.4l.1.2zm.5 1l.3.1-.4-.1-.2-.3.3.3zm.1-.1l-.4-.7h.3l.1.7zm1.2 7.5v.1h-.3.1l.2-.1zm.3 0l-.3.1.1-.2.2.1zm0-5.1l-.1.1-.1-.1h.2zm.3 4.7l.1.2-.4.3.2-.3h.2l-.1-.2zm.1-4.6l-.1-.1.1.1zm.2 0v.2l-.2-.1.2-.1zm0 4.6l-.1.1v-.2l.1.1zm.1.1l-.1-.1h.1v.1zm.3-4.5h-.3v-.1l.1-.1.2.2zm0 4.5l-.2-.3.1.1.1.2zm1-.2h-.3l.4-.1v.1h-.1zm0-2.5H59h.2zm.9-7.2l-.9.9.7.8.6.3.3-1.1-.2-.5-.5-.4zm-.8 7.4l-.1-.1h.1v.1zm.4 2.2l-.4.1.4-.3v.2zm.4-.3h-.2l.2-.2v.2zm.6-14.5v1.3l-.3-1.1.3-.3v.1zm0 14.1l.1-.1-.1.1zm1-1l-.7.8h-.1l.8-1.1v-.3l.4-.3-.4.9zm.6-7.9l-.4-.9-.6-1.7.3.6.7 2zm-.1 6.9l.1-.2v.1l-.1.1zm.2-1v-.2.2zM113.6 515.5h15.6v2.8h-12.6v6.8h11.1v2.7h-11.1V538h-3.1v-22.5zM132.1 515.5h2.8V538h-2.8v-22.5zM147.8 528.1c.6-.1 1.1-.3 1.3-.8.1-.2.2-.6.2-1.1 0-.9-.3-1.6-1-2.1s-1.6-.6-2.9-.6c-1.4 0-2.5.4-3.1 1.2-.3.4-.6 1.1-.7 1.9H139c.1-2 .7-3.4 2-4.2 1.3-.8 2.7-1.2 4.4-1.2 1.9 0 3.5.4 4.7 1.1 1.2.7 1.8 1.9 1.8 3.4v9.5c0 .3.1.5.2.7.1.2.4.3.7.3h.4c.2 0 .3 0 .5-.1v2c-.4.1-.8.2-1 .2h-.9c-1 0-1.6-.3-2.1-1-.2-.4-.4-.9-.5-1.5-.6.7-1.4 1.4-2.4 1.9-1.1.5-2.2.8-3.5.8-1.5 0-2.8-.5-3.7-1.4-1-.9-1.4-2.1-1.4-3.5 0-1.5.5-2.7 1.4-3.5 1-.8 2.2-1.4 3.7-1.5l4.5-.5zm-5.8 7.4c.6.5 1.3.7 2.1.7 1 0 1.9-.2 2.8-.7 1.5-.7 2.3-2 2.3-3.7v-2.2c-.3.2-.8.4-1.3.5-.5.1-1.1.2-1.6.3l-1.7.2c-1 .1-1.8.3-2.3.6-.9.5-1.3 1.2-1.3 2.3.2 1 .5 1.6 1 2zM157.2 534.7h3.2v3.3h-3.2v-3.3zM306.3 515.5h3.1V538h-3.1v-22.5zM42.1 582.7l-.6-1.2-.3-1.5-1.4-10.7 10.6.2-.9.9-.1.6.7.6.6.6.7.2.7 1.5.7 1.1 1.3 1 .4.9 1.1.7v.6l.4.3-.1.3.3.2.1.4 1 .6.5 1.5v.7l.9.7.3.8v1l1.4.7-.3.3-.2-.1-.2.2.2.2-.2.2-.6-.2.1.1-.2.2.5.1-.3.5-.8-.1.3.3-.2.3.4-.1v-.2.2l-.1.6-.3-.4.2.2-.6.3.3.1-.1.2.6-.3-.5.8-.3-.2.3.5-.9-.2.7.3.3.3-.4.6-.2-.4h-.1v.5l-.2-.1.2.3.2-.3-.1.6-.4-.3.3.3-.3.2.3.2-.2.3.1.3h-.2l.1.7-2.1-.6-.3.4.1.8-.2 1.1h-.6l-.3-1-11.7-.9-.6-1.4-.1-.6-.3-.5.3-1.9-.4-1.4.6-1.8.6-.6-.4-.3-.1-1zm15.5 8.9l-.2-.8.3-.4-.2.8v.4zM128.3 573c2.2 1.2 3.6 3.2 4 6.2h-3c-.4-1.6-1.1-2.8-2.2-3.6-1.1-.8-2.6-1.1-4.3-1.1-2 0-3.8.8-5.2 2.3-1.4 1.6-2.1 3.9-2.1 7 0 2.7.6 4.9 1.7 6.5 1.2 1.7 3 2.5 5.6 2.5 2 0 3.6-.6 5-1.8 1.3-1.2 2-3.1 2-5.7h-7.1v-2.5h9.9v12h-2l-.6-2.8c-1 1.1-1.9 1.9-2.7 2.4-1.3.8-3 1.1-5 1.1-2.6 0-4.9-.9-6.8-2.6-2.1-2.2-3.1-5.1-3.1-8.9 0-3.8 1-6.8 3-9 1.9-2.1 4.4-3.2 7.4-3.2 2.1 0 3.9.4 5.5 1.2zM146.1 585c.6-.1 1.1-.3 1.3-.8.1-.2.2-.6.2-1.1 0-.9-.3-1.6-1-2.1-.7-.4-1.6-.6-2.9-.6-1.4 0-2.5.4-3.1 1.2-.3.4-.6 1.1-.7 1.9h-2.6c.1-2 .7-3.4 2-4.2 1.3-.8 2.7-1.2 4.4-1.2 1.9 0 3.5.4 4.7 1.1 1.2.7 1.8 1.9 1.8 3.4v9.5c0 .3.1.5.2.7.1.2.4.3.7.3h.4c.2 0 .3 0 .5-.1v2c-.4.1-.8.2-1 .2h-.9c-1 0-1.6-.3-2.1-1-.2-.4-.4-.9-.5-1.5-.6.7-1.4 1.4-2.4 1.9-1.1.5-2.2.8-3.5.8-1.5 0-2.8-.5-3.7-1.4-1-.9-1.4-2.1-1.4-3.5 0-1.5.5-2.7 1.4-3.5 1-.8 2.2-1.4 3.7-1.5l4.5-.5zm-5.8 7.4c.6.5 1.3.7 2.1.7 1 0 1.9-.2 2.8-.7 1.5-.7 2.3-2 2.3-3.7v-2.2c-.3.2-.8.4-1.3.5-.5.1-1.1.2-1.6.3l-1.7.2c-1 .1-1.8.3-2.3.6-.9.5-1.3 1.2-1.3 2.3.1 1 .4 1.6 1 2zM155.4 591.6h3.2v3.3h-3.2v-3.3zM316.6 588.2c0 1.9-.3 3.4-.8 4.4-1 1.9-3 2.9-6 2.9-1.7 0-3.1-.5-4.3-1.4-1.2-.9-1.8-2.5-1.8-4.9v-1.6h2.9v1.6c0 1.2.3 2.1.8 2.8.5.6 1.4.9 2.6.9 1.6 0 2.7-.6 3.2-1.7.3-.7.5-2 .5-3.9v-15h3v15.9zM30.3 628.5l-.1-.7 1.2-.9-.1.7-1 .9zm6.1-3.2l-.7 2.8-2.5-1.3 1.5-1.5h1.7zm10.7 4.9l1.3 1.2.2 1.4-2.1-.9-.8.6-1.2-2.1 2.3-1.1.3.9zm4.9 2.9l2.5.5h1.3l-4.2.5.4-1zm2.5 3.6h-.7l-.6-1.2 1.5.2-.2 1zm2.2-2.1l.7 1 1.8-.3 1.8 1.6-3 1.1-2.1-2.5.8-.9zm.3 3.9l-.7.1-.3-.2.8-.5.2.6zm7.1 2.8l2.8 1.2 3 3.5-6.4 4.8-1.7-1.1-1.1-5.4 1.7-1.8-.3-2.1 2 .9zM113.3 629.3h3.1v9.3H128v-9.3h3.1v22.5H128v-10.5h-11.6v10.5h-3.1v-22.5zM144.4 641.9c.6-.1 1.1-.3 1.3-.8.1-.2.2-.6.2-1.1 0-.9-.3-1.6-1-2.1-.7-.4-1.6-.6-2.9-.6-1.4 0-2.5.4-3.1 1.2-.3.4-.6 1.1-.7 1.9h-2.6c.1-2 .7-3.4 2-4.2 1.3-.8 2.7-1.2 4.4-1.2 1.9 0 3.5.4 4.7 1.1 1.2.7 1.8 1.9 1.8 3.4v9.5c0 .3.1.5.2.7.1.2.4.3.7.3h.4c.2 0 .3 0 .5-.1v2c-.4.1-.8.2-1 .2h-.9c-1 0-1.6-.3-2.1-1-.2-.4-.4-.9-.5-1.5-.6.7-1.4 1.4-2.4 1.9-1.1.5-2.2.8-3.5.8-1.5 0-2.8-.5-3.7-1.4-1-.9-1.4-2.1-1.4-3.5 0-1.5.5-2.7 1.4-3.5 1-.8 2.2-1.4 3.7-1.5l4.5-.5zm-5.8 7.4c.6.5 1.3.7 2.1.7 1 0 1.9-.2 2.8-.7 1.5-.7 2.3-2 2.3-3.7v-2.2c-.3.2-.8.4-1.3.5-.5.1-1.1.2-1.6.3l-1.7.2c-1 .1-1.8.3-2.3.6-.9.5-1.3 1.2-1.3 2.3.1 1 .4 1.6 1 2zM154.3 635.4l3.2 12.9 3.2-12.9h3.1l3.2 12.9 3.4-12.9h2.8l-4.8 16.4h-2.9l-3.3-12.7-3.2 12.7h-3l-4.7-16.4h3zM184.5 641.9c.6-.1 1.1-.3 1.3-.8.1-.2.2-.6.2-1.1 0-.9-.3-1.6-1-2.1-.7-.4-1.6-.6-2.9-.6-1.4 0-2.5.4-3.1 1.2-.3.4-.6 1.1-.7 1.9h-2.6c.1-2 .7-3.4 2-4.2 1.3-.8 2.7-1.2 4.4-1.2 1.9 0 3.5.4 4.7 1.1 1.2.7 1.8 1.9 1.8 3.4v9.5c0 .3.1.5.2.7.1.2.4.3.7.3h.4c.2 0 .3 0 .5-.1v2c-.4.1-.8.2-1 .2h-.9c-1 0-1.6-.3-2.1-1-.2-.4-.4-.9-.5-1.5-.6.7-1.4 1.4-2.4 1.9-1.1.5-2.2.8-3.5.8-1.5 0-2.8-.5-3.7-1.4s-1.4-2.1-1.4-3.5c0-1.5.5-2.7 1.4-3.5 1-.8 2.2-1.4 3.7-1.5l4.5-.5zm-5.8 7.4c.6.5 1.3.7 2.1.7 1 0 1.9-.2 2.8-.7 1.5-.7 2.3-2 2.3-3.7v-2.2c-.3.2-.8.4-1.3.5-.5.1-1.1.2-1.6.3l-1.7.2c-1 .1-1.8.3-2.3.6-.9.5-1.3 1.2-1.3 2.3.1 1 .4 1.6 1 2zM193.2 629.3h2.8v3.1h-2.8v-3.1zm0 6.2h2.8v16.3h-2.8v-16.3zM200.1 629.3h2.8v3.1h-2.8v-3.1zm0 6.2h2.8v16.3h-2.8v-16.3zM305.6 629.3h3v11l11.3-11h4.3l-9.6 9.1 9.8 13.4h-4l-8.1-11.3-3.7 3.5v7.8h-3v-22.5zM57.8 698l.2 8.9h-7.9l-7.8-.3.3-6.5.5-1.2-.3-.3-.5-.2v-.7l1-1.4.1-.5 1.1-2-.3-.6-.6-.6-.5-1.7.6-9.2 2.3.2-.2 3.5.8 1.1-.1.5.2.3-.2.2.9.7 1.2 2 .3-.1.2.3.6-.1-.3 1.7-.2.1.3 1-.4.3.2.3-.2.5.6.3.8-.8.4.3.2 1 .7 1v.5l.3.3h.5l.4 1.1.3.3.3-.4.9.1.3-.4 2 .1-.1-.3.3-.4.8 1.1zM114 686.2h3.1v22.5H114v-22.5zM130.6 692.8c.5.3 1 .8 1.7 1.6v-8.3h2.7v22.6h-2.5v-2.3c-.6 1-1.4 1.7-2.3 2.2-.9.4-1.9.7-3 .7-1.8 0-3.4-.8-4.7-2.3-1.3-1.5-2-3.6-2-6.1 0-2.4.6-4.5 1.8-6.2 1.2-1.8 3-2.6 5.2-2.6 1.2-.1 2.3.2 3.1.7zm-6.1 12.3c.7 1.2 1.9 1.8 3.6 1.8 1.3 0 2.3-.5 3.1-1.6.8-1.1 1.2-2.7 1.2-4.7 0-2.1-.4-3.6-1.3-4.6-.8-1-1.9-1.5-3.1-1.5-1.4 0-2.5.5-3.4 1.6-.9 1.1-1.3 2.6-1.3 4.7.1 1.7.4 3.2 1.2 4.3zM147.9 698.8c.6-.1 1.1-.3 1.3-.8.1-.2.2-.6.2-1.1 0-.9-.3-1.6-1-2.1-.7-.4-1.6-.6-2.9-.6-1.4 0-2.5.4-3.1 1.2-.3.4-.6 1.1-.7 1.9h-2.6c.1-2 .7-3.4 2-4.2 1.3-.8 2.7-1.2 4.4-1.2 1.9 0 3.5.4 4.7 1.1 1.2.7 1.8 1.9 1.8 3.4v9.5c0 .3.1.5.2.7.1.2.4.3.7.3h.4c.2 0 .3 0 .5-.1v2c-.4.1-.8.2-1 .2h-.9c-1 0-1.6-.3-2.1-1-.2-.4-.4-.9-.5-1.5-.6.7-1.4 1.4-2.4 1.9-1.1.5-2.2.8-3.5.8-1.5 0-2.8-.5-3.7-1.4-1-.9-1.4-2.1-1.4-3.5 0-1.5.5-2.7 1.4-3.5 1-.8 2.2-1.4 3.7-1.5l4.5-.5zm-5.8 7.5c.6.5 1.3.7 2.1.7 1 0 1.9-.2 2.8-.7 1.5-.7 2.3-2 2.3-3.7v-2.2c-.3.2-.8.4-1.3.5-.5.1-1.1.2-1.6.3l-1.7.2c-1 .1-1.8.3-2.3.6-.9.5-1.3 1.2-1.3 2.3.1.9.4 1.5 1 2zM156.5 686.1h2.8v8.4c.7-.8 1.2-1.4 1.8-1.7.9-.6 2-.9 3.3-.9 2.4 0 4 .8 4.8 2.5.5.9.7 2.2.7 3.8v10.5h-2.8v-10.3c0-1.2-.2-2.1-.5-2.7-.5-.9-1.4-1.3-2.8-1.3-1.1 0-2.2.4-3.1 1.2-.9.8-1.4 2.3-1.4 4.5v8.7h-2.8v-22.7zM185.9 694c1.5 1.4 2.2 3.5 2.2 6.2 0 2.6-.6 4.8-1.9 6.6-1.3 1.7-3.3 2.6-6 2.6-2.2 0-4-.8-5.3-2.3-1.3-1.5-2-3.6-2-6.2 0-2.8.7-5 2.1-6.6 1.4-1.6 3.3-2.5 5.6-2.5 2.1 0 3.8.8 5.3 2.2zm-1.7 10.9c.7-1.4 1-2.9 1-4.6 0-1.5-.2-2.8-.7-3.7-.8-1.5-2.1-2.3-4-2.3-1.7 0-2.9.6-3.6 1.9-.8 1.3-1.1 2.8-1.1 4.7 0 1.7.4 3.2 1.1 4.4.8 1.2 2 1.7 3.6 1.7 1.8-.1 3-.7 3.7-2.1zM305.5 686.2h4.4l6.5 19 6.4-19h4.3v22.5h-2.9v-13.3-2.3-3.4l-6.4 19h-3l-6.5-19v19h-2.9v-22.5zM55.9 738.8v1.2l1 2.3v10.9l-.3.1.1.5-.3.4.5.8.1.8-.6.9.1.3-.4.2-.4.8-.3-.1-.2.3.3.3-.3.3.3.1-.3.1v.7H55l.2.3H55l.2.3-.4.6.3.7-1.4.5.1 1.4-.3.1-1.7-.7-.7.7.2.4h-.2l-.4-.5-.2.1.1.3-.4-.3-.4-1 .2-.6-.2-.6v-.7l-1.5-1.3-.7-.3-.8-.9v-.5l.7-1.4.2-1-1-.5-.6.3-.3-.2-.4-1.7-2-2.1-.4-1.3-.1-1.2.1-.4.4-.2v-.8l.8-.4.8-1.4v-.4l-.4-.5.3-.8 1.2-.1.9-.4.9-1.4.1-1.2-.8-.7-.1-.5-.7-.7 9.5.1zM114 743.1h3.1v22.5H114v-22.5zM121.7 743.1h2.8v22.5h-2.8v-22.5zM128.7 743.1h2.8v22.5h-2.8v-22.5zM136.2 762.3h3.2v3.3h-3.2v-3.3zM305.6 743.1h3.6l11.2 18.2v-18.2h2.9v22.5h-3.4l-11.4-18.2v18.2h-2.9v-22.5zM58.2 796.3l.1 16.7-.3.2.3.5-.3.4.4.1-.1.6h-.7l-1.2.7-.4-.3-1 .1.2 1-.5.6-.4.1-.3.9-.6.3-.3-.1-.4.7-.1 1-.6.4-1.1-.7-.1-.6-.5-.2.3.3-.5.3-.2-.3v.5l-.3.2v.7l-.3.1-.2.4-.2-.2v-.2l-.6-.2-.2-.5-1 .5-.5.8-.2-.3-1.3-.7-.8.2-.2-.3v.5l-.2.4h-.3v-.4l-.6.1-.6-.2-.1.2.1.4-.2.3-.7-.2.3-.1-.4-.4.4-.1v-.9l.3-.2-.3-.1.5-.4-.3-.4.3-.4.2.1.2-.3.1.1.4-.8v-.2l.6-.2v-.5l.8-1.2-.2-.8.1-.5-.6-1 .3-.6-.1-.8.4-.2.3-15.2.3.3.2-.2v.3l.6.1 1.2-.3.9-.5h9.8v.6zM114 800h3.1v22.5H114V800zM121.6 806.1h2.6v2.3c.8-1 1.6-1.7 2.5-2.1.9-.4 1.8-.6 2.9-.6 2.3 0 3.9.8 4.7 2.4.4.9.7 2.2.7 3.8v10.5h-2.8v-10.3c0-1-.1-1.8-.4-2.4-.5-1-1.4-1.5-2.7-1.5-.7 0-1.2.1-1.6.2-.8.2-1.4.7-2 1.3-.5.5-.8 1.1-.9 1.7-.1.6-.2 1.4-.2 2.5v8.6h-2.8v-16.4zM148.1 806.6c.5.3 1 .8 1.7 1.6V800h2.7v22.6H150v-2.3c-.6 1-1.4 1.7-2.3 2.2-.9.4-1.9.7-3 .7-1.8 0-3.4-.8-4.7-2.3-1.3-1.5-2-3.6-2-6.1 0-2.4.6-4.5 1.8-6.2 1.2-1.8 3-2.6 5.2-2.6 1.2-.2 2.3.1 3.1.6zm-6.2 12.4c.7 1.2 1.9 1.8 3.6 1.8 1.3 0 2.3-.5 3.1-1.6.8-1.1 1.2-2.7 1.2-4.7 0-2.1-.4-3.6-1.3-4.6-.8-1-1.9-1.5-3.1-1.5-1.4 0-2.5.5-3.4 1.6-.9 1.1-1.3 2.6-1.3 4.7.1 1.6.5 3.1 1.2 4.3zM157.2 819.2h3.2v3.3h-3.2v-3.3zM324.1 803.3c1.5 2 2.2 4.5 2.2 7.7 0 3.4-.9 6.2-2.6 8.4-2 2.6-4.9 3.9-8.6 3.9-3.5 0-6.2-1.1-8.2-3.4-1.8-2.2-2.7-5-2.7-8.4 0-3 .8-5.7 2.3-7.8 1.9-2.8 4.8-4.2 8.6-4.2 4.2-.1 7.1 1.2 9 3.8zm-2.7 14.3c1.2-1.9 1.8-4.1 1.8-6.7 0-2.6-.7-4.8-2.1-6.4-1.4-1.6-3.3-2.4-5.7-2.4-2.3 0-4.2.8-5.7 2.4-1.5 1.6-2.2 4-2.2 7.1 0 2.5.6 4.6 1.9 6.3 1.3 1.7 3.3 2.6 6.1 2.6s4.7-1 5.9-2.9zM62.3 862.6v.3l.9.6.2.7 1.1.8.1.4-.2 1.3-.5.5-.1.9-.4.4-1.2.6-1.4.2-.3 1.2.7.6.2.8-.7.8-.3 1.1-1.1.7.2 1.1H59l-1.1-1.3-10.5.3-8.1-.3v-.4l-.4-.4.2-1-.3-1 .2-.7-.3-.2.3-.6-.5-.1.3-.8-.4-.1v-.3l-.5-.1.2-1.6-.3-.5v-.5l-.8-1.2-.2-1.8-.3-.2-.2-.9-.4-.5.8-2.3-.2-.5-.4-.2.2-.8-.2-.8 12.1.2 11.4-.1.3.9.5.3-.4.9.5 2.3.3.4 1.4.3.1.6zM114 856.9h3.1v22.5H114v-22.5zM133.5 864.7c1.5 1.4 2.2 3.5 2.2 6.2 0 2.6-.6 4.8-1.9 6.6-1.3 1.7-3.3 2.6-6 2.6-2.2 0-4-.8-5.3-2.3-1.3-1.5-2-3.6-2-6.2 0-2.8.7-5 2.1-6.6 1.4-1.6 3.3-2.5 5.6-2.5 2.1.1 3.9.8 5.3 2.2zm-1.7 10.9c.7-1.4 1-2.9 1-4.6 0-1.5-.2-2.8-.7-3.7-.8-1.5-2.1-2.3-4-2.3-1.7 0-2.9.6-3.6 1.9-.8 1.3-1.1 2.8-1.1 4.7 0 1.7.4 3.2 1.1 4.4.8 1.2 2 1.7 3.6 1.7 1.8 0 3-.7 3.7-2.1zM140.4 863l3.2 12.9 3.2-12.9h3.1l3.2 12.9 3.4-12.9h2.8l-4.8 16.4h-2.9l-3.3-12.7-3.2 12.7h-2.9l-4.7-16.4h2.9zM170.5 869.5c.6-.1 1.1-.3 1.3-.8.1-.2.2-.6.2-1.1 0-.9-.3-1.6-1-2.1-.7-.4-1.6-.6-2.9-.6-1.4 0-2.5.4-3.1 1.2-.3.4-.6 1.1-.7 1.9h-2.6c.1-2 .7-3.4 2-4.2 1.3-.8 2.7-1.2 4.4-1.2 1.9 0 3.5.4 4.7 1.1 1.2.7 1.8 1.9 1.8 3.4v9.5c0 .3.1.5.2.7.1.2.4.3.7.3h.4c.2 0 .3 0 .5-.1v2c-.4.1-.8.2-1 .2h-.9c-1 0-1.6-.3-2.1-1-.2-.4-.4-.9-.5-1.5-.6.7-1.4 1.4-2.4 1.9-1.1.5-2.2.8-3.5.8-1.5 0-2.8-.5-3.7-1.4s-1.4-2.1-1.4-3.5c0-1.5.5-2.7 1.4-3.5 1-.8 2.2-1.4 3.7-1.5l4.5-.5zm-5.8 7.5c.6.5 1.3.7 2.1.7 1 0 1.9-.2 2.8-.7 1.5-.7 2.3-2 2.3-3.7v-2.2c-.3.2-.8.4-1.3.5-.5.1-1.1.2-1.6.3l-1.7.2c-1 .1-1.8.3-2.3.6-.9.5-1.3 1.2-1.3 2.3.2.9.5 1.5 1 2zM305.6 856.9h3.1v19.8H320v2.7h-14.3v-22.5zM67.7 931.6l-17.6.3-17.7-.4.8-17.8 15.4.4 15.3-.2 1 .8.6-.3.4 1h-.4l-.6 1.2.9.9.4 1 1.1.4.4 12.7zM113.3 913.8h3v11l11.3-11h4.3l-9.6 9.1 9.8 13.4h-4L120 925l-3.7 3.5v7.8h-3v-22.5zM142.6 926.4c.6-.1 1.1-.3 1.3-.8.1-.2.2-.6.2-1.1 0-.9-.3-1.6-1-2.1s-1.6-.6-2.9-.6c-1.4 0-2.5.4-3.1 1.2-.3.4-.6 1.1-.7 1.9h-2.6c.1-2 .7-3.4 2-4.2 1.3-.8 2.7-1.2 4.4-1.2 1.9 0 3.5.4 4.7 1.1 1.2.7 1.8 1.9 1.8 3.4v9.5c0 .3.1.5.2.7.1.2.4.3.7.3h.4c.2 0 .3 0 .5-.1v2c-.4.1-.8.2-1 .2h-.9c-1 0-1.6-.3-2.1-1-.2-.4-.4-.9-.5-1.5-.6.7-1.4 1.4-2.4 1.9-1.1.5-2.2.8-3.5.8-1.5 0-2.8-.5-3.7-1.4-1-.9-1.4-2.1-1.4-3.5 0-1.5.5-2.7 1.4-3.5 1-.8 2.2-1.4 3.7-1.5l4.5-.5zm-5.8 7.5c.6.5 1.3.7 2.1.7 1 0 1.9-.2 2.8-.7 1.5-.7 2.3-2 2.3-3.7V928c-.3.2-.8.4-1.3.5-.5.1-1.1.2-1.6.3l-1.7.2c-1 .1-1.8.3-2.3.6-.9.5-1.3 1.2-1.3 2.3.1.9.4 1.5 1 2zM151.3 919.9h2.6v2.3c.8-1 1.6-1.7 2.5-2.1.9-.4 1.8-.6 2.9-.6 2.3 0 3.9.8 4.7 2.4.5.9.7 2.2.7 3.8v10.5h-2.8V926c0-1-.1-1.8-.4-2.4-.5-1-1.4-1.5-2.7-1.5-.7 0-1.2.1-1.6.2-.8.2-1.4.7-2 1.3-.5.5-.8 1.1-.9 1.7-.1.6-.2 1.4-.2 2.5v8.6h-2.8v-16.5zM169.4 933h3.2v3.3h-3.2V933zM305.9 913.8H316c2 0 3.6.6 4.8 1.7 1.2 1.1 1.8 2.7 1.8 4.8 0 1.8-.5 3.3-1.6 4.6-1.1 1.3-2.8 2-5 2h-7v9.5h-3.1v-22.6zm11.8 3.1c-.7-.3-1.6-.5-2.8-.5h-6v7.8h6c1.4 0 2.5-.3 3.3-.9.8-.6 1.3-1.6 1.3-3.1s-.6-2.7-1.8-3.3zM33.7 985.9h-.4v-.4h.4v.4zm21.4-13.4l.9-.1.5.4.4 1.1 1.5.3.6.6.8-.4.9.6.7-.1.5-.5.6-.2.3.9 1 .8.1 1-.3.5 1.1 1.9 1.2 1.3.8.2-1.7 1.4-1.4.8-.8 1.3-.8.3-.3.6-2.7.9-18-.6-1-.3.1 1.1-6.1-.3.3-.7.7.3.4-.8.1-1.2-.2-.6.5-.6.8-.2 1.7.9.3-.3-.3-.9.1-.5 1.8-.5-.3-.9.6-.8.4.1.1-.3-.1-.5.5.3.5-.2.1.4.2-.2v-.6l.2.4.7-.2 1.2.8.4-.7.9-.4.8.8.4-.5v-.5l.3-.2v-.4h.5l-.2-.3.4.2.1.5.8.5.5-.3.4-1.4.8-.2.3-.8.7-.5-.1-.9.8-.1.3.3 1.1-.5.5.1.2-.6-.4-.1.2-.3-.2-.4.6-.5.7.5zM113.3 970.7h3v11l11.3-11h4.3l-9.6 9.1 9.8 13.4h-4l-8.1-11.3-3.7 3.5v7.8h-3v-22.5zM144.1 976.9h3.1c-.4 1.1-1.3 3.5-2.6 7.2-1 2.8-1.8 5.1-2.5 6.9-1.6 4.2-2.7 6.7-3.4 7.7-.7.9-1.8 1.4-3.4 1.4h-.9c-.2 0-.5-.1-.8-.2v-2.5c.5.1.8.2 1 .2h.6c.5 0 .9-.1 1.1-.3l.6-.6c.1-.1.2-.5.6-1.3.3-.8.5-1.3.7-1.7l-6.1-16.9h3.1l4.4 13.4 4.5-13.3zM150.2 989.9h3.2v3.3h-3.2v-3.3zM326.2 993.2l-1.5 1.8-3.5-2.6c-.8.5-1.7.8-2.7 1.1-1 .3-2 .4-3.2.4-3.5 0-6.2-1.1-8.2-3.4-1.7-2.2-2.6-5-2.6-8.4 0-3 .8-5.7 2.3-7.8 1.9-2.8 4.8-4.2 8.6-4.2 4 0 6.9 1.3 8.8 3.8 1.5 2 2.2 4.5 2.2 7.6 0 1.5-.2 2.8-.5 4.2-.5 2-1.5 3.7-2.7 5l3 2.5zm-8.8-2.1c.6-.1 1-.3 1.4-.5l-2.5-1.9 1.5-1.9 2.9 2.3c.9-1.1 1.6-2.3 1.9-3.6.3-1.3.5-2.6.5-3.8 0-2.7-.7-4.8-2.1-6.4-1.4-1.6-3.3-2.4-5.7-2.4-2.4 0-4.4.8-5.8 2.3-1.4 1.5-2.1 3.9-2.1 7.2 0 2.7.7 4.9 2.1 6.5 1.4 1.6 3.4 2.4 6 2.4.8-.1 1.3-.1 1.9-.2z"/><path fill="#C0C0C0" d="M679 954h86.3v2H679zM500.4 954H679v2H500.4zM392.5 954h107.9v2H392.5zM679 897.1h86.3v2H679z"/><path fill="#C0C0C0" d="M679 954h86.3v2H679zM500.4 897.1H679v2H500.4zM500.4 954H679v2H500.4zM392.5 897.1h107.9v2H392.5zM392.5 954h107.9v2H392.5zM679 840.2h86.3v2H679zM679 897.1h86.3v2H679zM500.4 840.2H679v2H500.4z"/><path fill="#C0C0C0" d="M500.4 897.1H679v2H500.4zM392.5 840.2h107.9v2H392.5zM392.5 897.1h107.9v2H392.5zM679 783.3h86.3v2H679zM679 840.2h86.3v2H679zM500.4 783.3H679v2H500.4zM500.4 840.2H679v2H500.4zM392.5 783.3h107.9v2H392.5z"/><path fill="#C0C0C0" d="M392.5 840.2h107.9v2H392.5zM679 726.4h86.3v2H679zM679 783.3h86.3v2H679zM500.4 726.4H679v2H500.4zM500.4 783.3H679v2H500.4zM392.5 726.4h107.9v2H392.5zM392.5 783.3h107.9v2H392.5zM679 669.5h86.3v2H679z"/><path fill="#C0C0C0" d="M679 726.4h86.3v2H679zM500.4 669.5H679v2H500.4zM500.4 726.4H679v2H500.4zM392.5 669.5h107.9v2H392.5zM392.5 726.4h107.9v2H392.5zM679 612.6h86.3v2H679zM679 669.5h86.3v2H679zM500.4 612.6H679v2H500.4z"/><path fill="#C0C0C0" d="M500.4 669.5H679v2H500.4zM392.5 612.6h107.9v2H392.5zM392.5 669.5h107.9v2H392.5zM679 555.7h86.3v2H679zM679 612.6h86.3v2H679zM500.4 555.7H679v2H500.4zM500.4 612.6H679v2H500.4zM392.5 555.7h107.9v2H392.5z"/><path fill="#C0C0C0" d="M392.5 612.6h107.9v2H392.5zM679 498.8h86.3v2H679zM679 555.7h86.3v2H679zM500.4 498.8H679v2H500.4zM500.4 555.7H679v2H500.4zM392.5 498.8h107.9v2H392.5zM392.5 555.7h107.9v2H392.5zM679 441.9h86.3v2H679z"/><path fill="#C0C0C0" d="M679 498.8h86.3v2H679zM500.4 441.9H679v2H500.4zM500.4 498.8H679v2H500.4zM392.5 441.9h107.9v2H392.5zM392.5 498.8h107.9v2H392.5zM679 385h86.3v2H679zM679 441.9h86.3v2H679zM500.4 385H679v2H500.4z"/><path fill="#C0C0C0" d="M500.4 441.9H679v2H500.4zM392.5 385h107.9v2H392.5zM392.5 441.9h107.9v2H392.5zM679 328.1h86.3v2H679zM679 385h86.3v2H679zM500.4 328.1H679v2H500.4zM500.4 385H679v2H500.4zM392.5 328.1h107.9v2H392.5z"/><path fill="#C0C0C0" d="M392.5 385h107.9v2H392.5zM679 271.1h86.3v2H679zM679 328.1h86.3v2H679zM500.4 271.1H679v2H500.4zM500.4 328.1H679v2H500.4zM392.5 271.1h107.9v2H392.5zM392.5 328.1h107.9v2H392.5zM679 214.2h86.3v2H679z"/><path fill="#C0C0C0" d="M679 271.1h86.3v2H679zM500.4 214.2H679v2H500.4zM500.4 271.1H679v2H500.4zM392.5 214.2h107.9v2H392.5zM392.5 271.1h107.9v2H392.5zM679 157.3h86.3v2H679zM679 214.2h86.3v2H679zM500.4 157.3H679v2H500.4z"/><path fill="#C0C0C0" d="M500.4 214.2H679v2H500.4zM392.5 157.3h107.9v2H392.5zM392.5 214.2h107.9v2H392.5zM679 100.4h86.3v2H679zM679 157.3h86.3v2H679zM500.4 100.4H679v2H500.4zM500.4 157.3H679v2H500.4zM392.5 100.4h107.9v2H392.5z"/><path fill="#C0C0C0" d="M392.5 157.3h107.9v2H392.5zM679 43.5h86.3v2H679zM679 100.4h86.3v2H679zM500.4 43.5H679v2H500.4zM500.4 100.4H679v2H500.4zM392.5 43.5h107.9v2H392.5zM392.5 100.4h107.9v2H392.5z"/><path fill="#C0C0C0" d="M679 43.5h86.3v2H679zM500.4 43.5H679v2H500.4zM392.5 43.5h107.9v2H392.5z"/><path d="M433.7 20.1l-.8.1-.7.3-.3-.5.1-.2.5-.1.2-.4-.2-.6.4-.5.1-1.2-.2-.6.3-.6-.2-.6.9-1.5.2-.8-.2-.4.4-.2-.3-.3.1-.5-.3-.1-.4-.8.1-.3-.5-.6.1-.3-.5-.4V7.7l-1.1-1.3.1-6.2h15v.3l.5.3-.5.9.5.3-.5.3.4.5v.7l1 1-.6.9h-.3v.8l-1.4 1.2-.4 1.6-.5.4.2.6-.2.8-.6.1.4 1.3-.4.4 10.2-.1-.6 1.9.3.6.7.8.6 1.4.3.2-.3.2v-.2l-.6.1-.2-.4-1.3-.2-.4-.6-.7-.2-1.2 1.1-.2.4.3.4 1.3.3.8-.2.6-.6.5.3.3-.4v.4l.3-.3-.2-.1h.2l.1.1-.4.7-.4-.1-.3.3.1.4h.6l-.1.2.3.3.4-.1.2-.7.5-.4.3.2.3-.1-.4.4.4.2-.3.1.1.2.2-.1-.1.2h.3l-.2.3.2.3-.4.2-.4-.4-.3.4-.3.2v.3h.3l.2.3-1.2-.5.5.5-.8-.1.4.7.9.3v.4h1l-.2.2.6.1.2.2.3-.2.5.5-.2.3.6.1.2.2-.4.1h.4l-.3.4-.1-.3v.3h-.1l-.2.3.1.3-.7-.6v.3l-.3.1-.6.8.7-1.5-.1.2-.1-.3v.4l-.3.3-.6-1 .2-.1h-.8l-.1-.5-.3.2h-.8l.4-.3-.1-.4-.4-.2.1-.3h-.3v.2l-.4-.1-.9-.5-.2.1-.3-.3-.2.4 1 .5v.6l-.1-.1.2.3-.4.1.1.3h.2l-.3.5-.7.4-.1-1.1-.2.2-.3-.4-.3.4-.3-.7-.2.4-.6-.1.1.5-.2-.1-.1.7v-.2l-.6.4-.3-.1.2-.3-.3-.1-.2.4-.7-.3-.1-.3-.3.2-1.1-.4-.2-.2-.1-.3.3.1.4-.4v.2h.3l.1.5.2-.1v-.4l-.8-.8.1-.9h-.1l-.2.8-.7-.3v-.3l-.8.2v-.7h-.4V20l-1.2.2v-.7h-.7l-.8.6v-.2l-.3.1.2.4.4-.2-.2.2.2.4.4-.1-.2.3-1.4.3-2.1-.4-2.7-1.1-2.2.3zm9.7 1.8h-.2l-1.1-.7.6-.3 1.1.4-.4.6zm4.6 2.5h.2l.2.1h-.2l-.2-.1zm1.6-.1l-.1.1-.4.1h-.1l.6-.2zm1.3.1h-.3l-.3-.1h.3l.3.1zm-.2-1.1v-.1h.1l-.1.1zm.9 1l-.3.1.2-.2.1.1zm.9-2.7l.5.2.1.2-.6-.2v-.2zm.5 1.8v-.1l.3-.2.1.1-.4.2zm.6-.5l-.1.1v-.1h.1zm2.6-3v.2l-.2-.2-.2.2.1-.4.3.2zm-.1-2.3zm1.1.3l.2.2-.2.2-.2-.2h-.5l.9-.7-.4.4.2.1zm-.5 1.7l.3-.1v.3l-.3-.2zm0-.6l.3-.4-.1.2-.2.2zm.3-.1l.2-.1v.1h-.2zm.5 2.7l-.2.1.3-.2v.2h-.1zm.5-.2l.2-.3-.2.3zm.9-1.1l-.1.1.3-.5v.1l-.2.3zm.5-.8l-.2.3.2-1-.3-.8.3.4v1.1zM511.6 3.3h3.1v19.8H526v2.7h-14.3V3.3zM537.5 15.9c.6-.1 1.1-.3 1.3-.8.1-.2.2-.6.2-1.1 0-.9-.3-1.6-1-2.1-.7-.4-1.6-.6-2.9-.6-1.4 0-2.5.4-3.1 1.2-.3.4-.6 1.1-.7 1.9h-2.6c.1-2 .7-3.4 2-4.2 1.3-.8 2.7-1.2 4.4-1.2 1.9 0 3.5.4 4.7 1.1 1.2.7 1.8 1.9 1.8 3.4V23c0 .3.1.5.2.7.1.2.4.3.7.3h.4c.2 0 .3 0 .5-.1v2c-.4.1-.8.2-1 .2h-.9c-1 0-1.6-.3-2.1-1-.2-.4-.4-.9-.5-1.5-.6.7-1.4 1.4-2.4 1.9-1.1.5-2.2.8-3.5.8-1.5 0-2.8-.5-3.7-1.4-1-.9-1.4-2.1-1.4-3.5 0-1.5.5-2.7 1.4-3.5 1-.8 2.2-1.4 3.7-1.5l4.5-.5zm-5.8 7.5c.6.5 1.3.7 2.1.7 1 0 1.9-.2 2.8-.7 1.5-.7 2.3-2 2.3-3.7v-2.2c-.3.2-.8.4-1.3.5-.5.1-1 .2-1.6.3l-1.7.2c-1 .1-1.8.3-2.3.6-.9.5-1.3 1.2-1.3 2.3.1.9.4 1.5 1 2zM546.8 22.5h3.2v3.3h-3.2v-3.3zM690.5 3.3h10.2c1.7 0 3.1.3 4.2.8 2.1 1 3.1 2.7 3.1 5.3 0 1.3-.3 2.5-.8 3.3-.6.9-1.3 1.5-2.3 2.1.9.4 1.5.8 2 1.4.4.6.7 1.5.7 2.8l.1 3c0 .9.1 1.5.2 1.9.2.7.5 1.2 1 1.4v.5h-3.7c-.1-.2-.2-.4-.2-.8-.1-.3-.1-.9-.2-1.8l-.2-3.8c-.1-1.5-.6-2.5-1.6-3-.6-.3-1.5-.4-2.7-.4h-6.7v9.7h-3.1V3.3zm10 10.4c1.4 0 2.5-.3 3.3-.9.8-.6 1.2-1.6 1.2-3.1 0-1.6-.6-2.7-1.7-3.3-.6-.3-1.4-.5-2.4-.5h-7.2v7.7h6.8zM445.8 57.4l.3.3 1.5-.8.4.2.5-.4 1.2.8.8.8.2 7-.2 1.2.9.6.7.2v.3l-.3.3.3.7-.1.7.6.6.3-.3.5.1.5 1.2-.1.2-.3-.1v.3l-.3-.1.2.6.4-.4.1.3-.1-.4.4.4-.8 1h-.4l-.1.2-.2-.5-.3.1.2.4-.2.2-.2-.4v.3l-.5-.2-.1.7-.3-.2-.2.4v-.6l-.3.4V73l-.2.1-.3 1.1v-.5l-.1.5-.2-.5-.3.2.3.4-.3.5-.3-.9-.2-.1-.1.2-.1-.4-.1.3-.3-.3.1.5-.4-.1-.2.4-.1-.5h-.2l.1.6-.1-.1-.3.1.2 1-.9-.5-.3.1.1-.3.5-.3-.2-.2-.3.2.3-.8-.2-.2v.5l-.8.3.2.6-.5 1.1v.5l-.6.3v.3l-.3.1.2-.5-.4.4.1-.2h-.3v-.5l-.6 1.3-.2-.4v.4l.1-1.1-.3.4v.8-.2l-.3-.1.1-.4-.1-.2.1-.4-.6.8.1.3.2-.1-.3.5v-1.8l-.4.5v.1l.2-.2.2 1.5-.2.3-.2-1v.3l-.5.4.2-.6-.8.5.3-.6-.3.1.1-.2-.9.5-.3.6-.2.1.3.2v.3l-.6.2-.2.4.2.1-.9.7-.6 1.5-.3-.1-.2.2-.3-.5.1-.5-.6-.9-.2-11.4.4-.3.4.7.4-1.1.4.2.3-.1-.3-.6.6-.9.8-.3v-.5l.6-.8-.2-.3v-.6l.3-.4-.1-.4.4-.8.5-.4.2-1.7 3.2-4.4.7.2.1.9.7.3zm.6 19l-.3-.1-.1-.3.5.2-.1.2zm.7-1.2l-.2.1.2.3h-.3l.2-.7.1.3zm1.8-.5h-.5l.1.3-.2.1-.4-.5.3-.7.4-.1.4.5-.1.4zM511.5 60.2h4.4l6.5 19 6.4-19h4.3v22.5h-2.9V69.5v-2.3-3.4l-6.4 19h-3l-6.5-19v19h-2.9V60.2zM546.2 72.8c.6-.1 1.1-.3 1.3-.8.1-.2.2-.6.2-1.1 0-.9-.3-1.6-1-2.1-.7-.4-1.6-.6-2.9-.6-1.4 0-2.5.4-3.1 1.2-.3.4-.6 1.1-.7 1.9h-2.6c.1-2 .7-3.4 2-4.2 1.3-.8 2.7-1.2 4.4-1.2 1.9 0 3.5.4 4.7 1.1 1.2.7 1.8 1.9 1.8 3.4v9.5c0 .3.1.5.2.7.1.2.4.3.7.3h.4c.2 0 .3 0 .5-.1v2c-.4.1-.8.2-1 .2h-.9c-1 0-1.6-.3-2.1-1-.2-.4-.4-.9-.5-1.5-.6.7-1.4 1.4-2.4 1.9-1.1.5-2.2.8-3.5.8-1.5 0-2.8-.5-3.7-1.4-1-.9-1.4-2.1-1.4-3.5 0-1.5.5-2.7 1.4-3.5 1-.8 2.2-1.4 3.7-1.5l4.5-.5zm-5.8 7.5c.6.5 1.3.7 2.1.7 1 0 1.9-.2 2.8-.7 1.5-.7 2.3-2 2.3-3.7v-2.2c-.3.2-.8.4-1.3.5-.5.1-1.1.2-1.6.3l-1.7.2c-1 .1-1.8.3-2.3.6-.9.5-1.3 1.2-1.3 2.3.1.9.4 1.5 1 2zM554.9 60.2h2.8v3.1h-2.8v-3.1zm0 6.2h2.8v16.3h-2.8V66.4zM561.8 66.3h2.6v2.3c.8-1 1.6-1.7 2.5-2.1.9-.4 1.8-.6 2.9-.6 2.3 0 3.9.8 4.7 2.4.5.9.7 2.2.7 3.8v10.5h-2.8V72.4c0-1-.1-1.8-.4-2.4-.5-1-1.4-1.5-2.7-1.5-.7 0-1.2.1-1.6.2-.8.2-1.4.7-2 1.3-.5.5-.8 1.1-.9 1.7-.1.6-.2 1.4-.2 2.5v8.6h-2.8V66.3zM589.4 66.8c1.1.5 1.9 1.3 2.5 2.1.5.8.9 1.8 1.1 2.9.2.8.2 2 .2 3.6h-11.9c.1 1.7.4 3 1.2 4 .7 1 1.9 1.5 3.4 1.5 1.4 0 2.6-.5 3.4-1.4.5-.6.8-1.2 1-1.9h2.7c-.1.6-.3 1.3-.7 2-.4.7-.9 1.3-1.4 1.8-.8.8-1.9 1.4-3.1 1.7-.7.2-1.4.2-2.2.2-2 0-3.8-.7-5.2-2.2-1.4-1.5-2.1-3.6-2.1-6.2s.7-4.8 2.1-6.4c1.4-1.6 3.3-2.5 5.6-2.5 1.2 0 2.3.3 3.4.8zm1 6.4c-.1-1.2-.4-2.2-.8-2.9-.8-1.3-2-2-3.8-2-1.3 0-2.3.5-3.2 1.4s-1.3 2.1-1.4 3.5h9.2zM693.5 60.2v13.9c0 1.6.3 3 .9 4.1.9 1.6 2.5 2.5 4.6 2.5 2.6 0 4.4-.9 5.3-2.7.5-1 .8-2.3.8-3.9V60.2h3.1v12.6c0 2.8-.4 4.9-1.1 6.4-1.4 2.7-4 4.1-7.8 4.1s-6.4-1.4-7.8-4.1c-.7-1.5-1.1-3.6-1.1-6.4V60.2h3.1zM429.4 116.9l27.9.2.8 13.2 5.1-.1-.2.1v.3h-.6l.4.2v.4l.4.1-.2.3-.4.8-.3.1.1-.3-.4.2-.3 1.3-.6.3-.2.6-2 .3-.2.3h-1.1l-.7.4.1-.7-.3.1 1.1-1.3-.9.3.7-.6h-.2l-1.2.2.1-.6.9-.4-.7-.4.4-1.5-.9 1.7-.3-.6.4-.4v-.2l-.3.1-.3.5v.8l-1.5-1.7-.1.8-.8-1.6.3-.3.2.3.1-.6.6-.5-.2-.1-.7.3.3-.4-.3-.3 1-.1v.3l.9.3.6-.4.1-.5-.5.6-.4-.2-.1-.4-.5.1.3-.3-.4.1-.2-.5-.2.3-.2-.8-.5.5v-.7l-.2 1-.3.1.6-1.6.8.7h.5v-.4l-.3.3-.3-.3.6-.7-.3-.2v-.2l-.2.2v-.4l-.5-.3-.7.6.1.5-.3-.2.3-1.5.6.3.6-.1v-.6l.8-.9-.9.2-.3.9-.4-1.3.8-1.7.4-.5 2.3-.1-1.4-.3.7-.8.8.2-.4-.5.4-.8-1.4 1.2.6-1.4-.4.4-.7.1-.3.7.4.4-1.2 1-.2-1.2-.2 1 .2.4-.3.3-.3-.9h-.7l.6.4-.3.4h-.5l.2.6-.6-.6.3.6.5.2-.3.3-1.2-.7-.3.2 1.1 1.1.2-.2.3 1.1-.8-.2.9.7-.5.3-.7-.8-.5.2 1 1.3-.8-.3.5.7-.5.2.1.4h.4l-.6.9.3.4v1.8l1 1.3.1.6-.6.1-1.6-1.5-.4-1.9.1 1.4.5 1.3.9.6.4.6h.6l-.1.7.5.8.1 1.1-.8-.6-.4-1.1v.8l-.3-.3-.1.3-.9-1.2h-1.2l-.4-1.3-.4-.4.3 1v.3l-.4-.1-1.2-2-.3.7-.2-.5-.3.8-.7.1-.3-.9.3-.9.5-.2-.1-.3.4-.2.2-.6.7-.4-.1-.9.9-.9-1.1-1.2-.5.6-1.1-.5-.3-.7-1.4-.4-.5-.8.4-.6-.1-.3-.8-.6-1.5-.6.1-.7-.5-.3.3-.5h-.4l-.1-.4-.2.2-.2-.5.3-.2-.1-.3h-.9l-1.4-1h-.3l-.8.7-1.3.2.2.2-.4.2.2.2-.3.3h-.9l-1.4-.5.1-.4-.3-.3-.3.8-1.3 1.2-.7-.3-.4.2-1.6 1.7-1.6 1 .2-5.4h2.2zm26.3 16.3h-.4l-.2-.2.4-.2.2.4zm.1 1.8l-.1.4-.3-.2.4-.2-.3-.5.3.5zm6.2-.5l.5-1.3.7-1.4-.8 2.4-.4.3zm1.4-3.3l-.2.1.3-1.2h.1l-.2 1.1zM511.5 117.2h4.4l6.5 19 6.4-19h4.3v22.5h-2.9v-13.3-2.3-3.4l-6.4 19h-3l-6.5-19v19h-2.9v-22.5zM546.4 123.8c.5.3 1 .8 1.7 1.6v-8.3h2.7v22.6h-2.5v-2.3c-.6 1-1.4 1.7-2.3 2.2-.9.4-1.9.7-3 .7-1.8 0-3.4-.8-4.7-2.3-1.3-1.5-2-3.6-2-6.1 0-2.4.6-4.5 1.8-6.2 1.2-1.8 3-2.6 5.2-2.6 1.2-.1 2.3.1 3.1.7zm-6.1 12.3c.7 1.2 1.9 1.8 3.6 1.8 1.3 0 2.3-.5 3.1-1.6.8-1.1 1.2-2.7 1.2-4.7 0-2.1-.4-3.6-1.3-4.6-.8-1-1.9-1.5-3.1-1.5-1.4 0-2.5.5-3.4 1.6-.9 1.1-1.3 2.6-1.3 4.7 0 1.6.4 3.1 1.2 4.3zM555.5 136.3h3.2v3.3h-3.2v-3.3zM706.5 117.2v2.7H699v19.8h-3.1v-19.8h-7.6v-2.7h18.2zM455 171.6l.6-.2v.8h-.6l.8.7.4 1-.7-.5v.5l1 .6-.3.1.1.3.7.1.2.3v-.6l.6-.4.3.9-1.1.8-2 .8-.2.4.4-.2.2.4-.9.4.3.6-.8-.1v1.2l-.5-.3.2.3-.6-.2-.2.2.4.3-.3.1.1.4.5-.1-.2.4.4.1v.5l1.1-.3-.4-.9 1.8 1.3 1.7 3.3-.6.1.3-.1-.4-.8-.2.8h-.1l.9.8.8.3.2 1.9.3.3 1.1.7 1.4.2-.6.3 1-.2 2.5-1.1.3-.4-.3-1.4.4-.1-.6-.4-.3.7-.4-2.4-.8-.2-.2.6-.8-.7.3-.4h.8l1.2.7.9 1.1.8 2.1-.5-.3-.2.9h.6l-.1 1.9-2.7.5-1 .8.1-.6-1.5.5-.3-.3-1 1.2-2.1.5.4-.8-.1-1.5.3-.7-.3-.2-.1.4-.7-.5v.9h-.3l-.3.7-.4-.2-.5.4.1.6-.7-.6-.5 1.5-1 .3h-.4l.4-.3-.2-.4-.2.4-.4-.2.2.3-.3.2-.1-2.3-.7-.2.9-1.9-.7 1.1h-.5l-.2.3-1-1.1-.2-1.7-.3-.2-.2-1.8-15.5-.3-.1.3-.5.1v-.4l-7.7-.5-.3-.4 3.1-10.2 21.9 1 1.2-.8.7-1 .8-.1 1.6-1 .6.3zm3.3 21.3l-.1.4.5-.4.2.4-.4.3.7.2.1.8-1.8.1-1.2.6-.8-.6 1-.3 1.1-1.3.7-.2zm1.6 1.6l-.6-.4.5-.6.1 1zm5-.3l.6 1.8-1.1.3-2-.5 2.2-.4.3-.6-.7.6.5-1-.2-.4.4.2zm.2-2.6l-.3.1.5-1.6.2.3-.4 1.2zM511.5 174.1h4.4l6.5 19 6.4-19h4.3v22.5h-2.9v-13.3-2.3-3.4l-6.4 19h-3l-6.5-19v19h-2.9v-22.5zM546.2 186.6c.6-.1 1.1-.3 1.3-.8.1-.2.2-.6.2-1.1 0-.9-.3-1.6-1-2.1-.7-.4-1.6-.6-2.9-.6-1.4 0-2.5.4-3.1 1.2-.3.4-.6 1.1-.7 1.9h-2.6c.1-2 .7-3.4 2-4.2 1.3-.8 2.7-1.2 4.4-1.2 1.9 0 3.5.4 4.7 1.1 1.2.7 1.8 1.9 1.8 3.4v9.5c0 .3.1.5.2.7.1.2.4.3.7.3h.4c.2 0 .3 0 .5-.1v2c-.4.1-.8.2-1 .2h-.9c-1 0-1.6-.3-2.1-1-.2-.4-.4-.9-.5-1.5-.6.7-1.4 1.4-2.4 1.9-1.1.5-2.2.8-3.5.8-1.5 0-2.8-.5-3.7-1.4-1-.9-1.4-2.1-1.4-3.5 0-1.5.5-2.7 1.4-3.5 1-.8 2.2-1.4 3.7-1.5l4.5-.5zm-5.8 7.5c.6.5 1.3.7 2.1.7 1 0 1.9-.2 2.8-.7 1.5-.7 2.3-2 2.3-3.7v-2.2c-.3.2-.8.4-1.3.5-.5.1-1.1.2-1.6.3l-1.7.2c-1 .1-1.8.3-2.3.6-.9.5-1.3 1.2-1.3 2.3.1.9.4 1.5 1 2zM556.5 191.4c.1.9.3 1.6.7 2.1.7.9 1.9 1.3 3.7 1.3 1 0 2-.2 2.8-.7.8-.4 1.2-1.1 1.2-2.1 0-.7-.3-1.2-1-1.6-.4-.2-1.2-.5-2.4-.8l-2.2-.6c-1.4-.3-2.5-.7-3.1-1.2-1.2-.7-1.8-1.8-1.8-3.1 0-1.6.6-2.8 1.7-3.8s2.7-1.4 4.6-1.4c2.5 0 4.3.7 5.4 2.2.7.9 1 1.9 1 3h-2.6c-.1-.6-.3-1.2-.7-1.7-.6-.7-1.8-1.1-3.4-1.1-1.1 0-1.9.2-2.4.6-.5.4-.8.9-.8 1.6 0 .7.4 1.3 1.1 1.7.4.3 1 .5 1.8.7l1.9.4c2 .5 3.4.9 4.1 1.4 1.1.7 1.6 1.8 1.6 3.3 0 1.5-.6 2.7-1.7 3.8-1.1 1.1-2.8 1.6-5.1 1.6-2.5 0-4.2-.6-5.3-1.7-1-1.1-1.6-2.5-1.7-4.1h2.6zM572.2 191.4c.1.9.3 1.6.7 2.1.7.9 1.9 1.3 3.7 1.3 1 0 2-.2 2.8-.7.8-.4 1.2-1.1 1.2-2.1 0-.7-.3-1.2-1-1.6-.4-.2-1.2-.5-2.4-.8l-2.2-.6c-1.4-.3-2.5-.7-3.1-1.2-1.2-.7-1.8-1.8-1.8-3.1 0-1.6.6-2.8 1.7-3.8s2.7-1.4 4.6-1.4c2.5 0 4.3.7 5.4 2.2.7.9 1 1.9 1 3h-2.6c-.1-.6-.3-1.2-.7-1.7-.6-.7-1.8-1.1-3.4-1.1-1.1 0-1.9.2-2.4.6-.5.4-.8.9-.8 1.6 0 .7.4 1.3 1.1 1.7.4.3 1 .5 1.8.7l1.9.4c2 .5 3.4.9 4.1 1.4 1.1.7 1.6 1.8 1.6 3.3 0 1.5-.6 2.7-1.7 3.8-1.1 1.1-2.8 1.6-5.1 1.6-2.5 0-4.2-.6-5.3-1.7-1-1.1-1.6-2.5-1.7-4.1h2.6zM586.9 193.2h3.2v3.3h-3.2v-3.3zM692.2 189.3c.1 1.3.4 2.3.9 3.1 1 1.5 2.7 2.2 5.2 2.2 1.1 0 2.1-.2 3-.5 1.8-.6 2.6-1.8 2.6-3.4 0-1.2-.4-2.1-1.1-2.6-.8-.5-1.9-1-3.5-1.3l-3-.7c-1.9-.4-3.3-.9-4.1-1.5-1.4-.9-2.1-2.3-2.1-4.2 0-2 .7-3.7 2-5 1.4-1.3 3.3-1.9 5.8-1.9 2.3 0 4.2.6 5.9 1.7 1.6 1.1 2.4 3 2.4 5.5h-2.9c-.1-1.2-.5-2.1-.9-2.8-.9-1.2-2.4-1.8-4.5-1.8-1.7 0-3 .4-3.7 1.1-.8.8-1.1 1.6-1.1 2.6 0 1.1.4 1.9 1.3 2.4.6.3 1.9.7 4 1.2l3.1.7c1.5.3 2.6.8 3.4 1.4 1.4 1.1 2.1 2.6 2.1 4.6 0 2.5-.9 4.3-2.7 5.4-1.8 1.1-3.8 1.6-6.2 1.6-2.7 0-4.9-.7-6.4-2.1-1.5-1.4-2.3-3.3-2.3-5.8h2.8zM438.8 228.2l.2.2-.1 1 .2-.4.8-.5-.4.5.6-.3 1 .1.5.3.8 1.4.5.1.6-.2.3.4.3-.2.3.3 1.5-1.1h1.9l1.7-.4-.2 1.3.7.2.5-.2.2.3.7-.3.5 1.1-.2.1.6.2-.1.2.6.4v.1l-1.8-.1-.2.1-.3-.2-.3.8-.8-.7-1.6-.3-.3.4-.8.1-.1.2-1-.1-.3.6-.5.3-.3.6-.3-.2.3-.6.2.1v-.5h-.7l-.3.6-.3.3v-1l-.3 1-1.7 2.2v.3l-.3-.5.3-.8h-.7l.2-1.3-.9-.6v-.6l-1.2-.4-1-.1-.8-.4-3-1-.3-.8-.6-.2 2-1.1 1.1-.1.9-.6.4-.1 1-.9v.5h.1l.3.1-.1.4zm2.4-1.7l-.9.1.2.2-.8.5-.7 1-.2-.3.2-.3-.6-.2v-.3l1-.8 1.4-.2.4.3zm9.1 7.3l.6.5.9.2.3.5h.6l1.8.9.3 1.1-.5-.2-.1.3.6.9-.1 2-.6.3-.2.9-.8.3-.3 1.2.8.4.4-.6.2.1.5-.9h-.2l.4-.3 1-.4.7.4.3.7.9 3.5-.3 1.8-.3.3v-.6l-.5.1.1.2-.3.3v.7l-.8.5-.3.8.1.3-.9 1.3-4.4.2v-.2h-6.8l.7-.6.9-1.7.6-1.9-.1-1.3-.3-1 .3-.2-.3.1-.6-1.7.3-.8-.3-1.2.9-1.2-.1-1.4.6-.3.1-.6.4-.3.3.1.8-1.1-.2 1.6.1.3.3-1-.1 1.1.4-1.1.1-1.2 1.4-.6-.3-.1-.3-.3v-.5l.5-.5-.1-.1h.9zm-5.8-3.1h-.2l-.1-.3.3.3zm1.5 6.5l-.1-.1.1-.1.1.1-.1.1zm.4-.3h-.2v-.3l.2.1v.2zm.5-1.5v.1l-.2-.3.1.1.1.1zm.9-.8l-.3-.1.2-.6h.3l-.2.7zm.2-1l-.1.1-.1-.2.2.1zm3.3 0l.1.3h-.3l-.4-.3h.6zm.1-.8h-.1l.2.1h-.3l.2-.1zm.6-1.5l-.4-.5.2-.3.2.1-.1.3.1.4zm.1.4l-.3-.2.1-.3.1.3.1.2zm1.9 1l-.2.3-1-.2.7-.3-.1-.2.6.4zm1.7 17.1h-.1l.1-.5v.5zM511.5 231h4.4l6.5 19 6.4-19h4.3v22.5h-2.9v-13.3-2.3-3.4l-6.4 19h-3l-6.5-19v19h-2.9V231zM537.4 231h2.8v3.1h-2.8V231zm0 6.1h2.8v16.3h-2.8v-16.3zM555.2 237.9c1.2.9 1.9 2.4 2.1 4.6h-2.7c-.2-1-.5-1.9-1.1-2.5-.6-.7-1.5-1-2.8-1-1.8 0-3 .9-3.8 2.6-.5 1.1-.7 2.5-.7 4.1 0 1.6.3 3 1 4.1.7 1.1 1.8 1.7 3.3 1.7 1.1 0 2.1-.3 2.7-1 .7-.7 1.1-1.7 1.4-2.9h2.7c-.3 2.2-1.1 3.8-2.3 4.8-1.2 1-2.8 1.5-4.7 1.5-2.1 0-3.9-.8-5.1-2.4-1.3-1.6-1.9-3.5-1.9-5.9 0-2.9.7-5.1 2.1-6.7 1.4-1.6 3.2-2.4 5.4-2.4 1.8.1 3.3.5 4.4 1.4zM560.1 230.9h2.8v8.4c.7-.8 1.2-1.4 1.8-1.7.9-.6 2-.9 3.3-.9 2.4 0 4 .8 4.8 2.5.5.9.7 2.2.7 3.8v10.5h-2.8v-10.3c0-1.2-.2-2.1-.5-2.7-.5-.9-1.4-1.3-2.8-1.3-1.1 0-2.2.4-3.1 1.2-.9.8-1.4 2.3-1.4 4.5v8.7h-2.8v-22.7zM578.2 250.1h3.2v3.3h-3.2v-3.3zM692 231l6.5 19.2 6.4-19.2h3.4l-8.2 22.5h-3.2l-8.2-22.5h3.3zM440 285.1l.8-.4.4.5h.4v.4l.3.3 2.1.4.3.5h.8l.2-.3.6-.2.8.1.9.3-.2.3.6.1.4.9.2-.1.1-.3.6-.1.3.5.7.2.1.4.3.2h.9l1.1-.8.4.7 1.8-.3.6.5.4-.1.7.1-3.6 1.8-1.9 2.2-1.7 1.4-.4.6h-.2v2.5l-1.2.8-.7.9.1.5h.4l.3.6-.3.7v.6l-.2.3.2.6-.2.7.7.7.6.2.3.4.6.2 1.4 1.5.8.3.3.5.2 1.7h-8.3l-8.2-.2.3-7.8-.3-.4-.4-.2-.4-.7.9-1 .1-1.4-.6-2.1.1-1.2-.2-.3.1-2.6-.7-2.3v-1.7l.2-.5-.3-1.6 5.5.2.1.3zm.5-2.1h.4l.1.3-.1.4-.4.2v-.9zM511.5 287.9h4.4l6.5 19 6.4-19h4.3v22.5h-2.9v-13.3-2.3-3.4l-6.4 19h-3l-6.5-19v19h-2.9v-22.5zM537.4 287.9h2.8v3.1h-2.8v-3.1zm0 6.1h2.8v16.3h-2.8V294zM544.4 294h2.6v2.3c.8-1 1.6-1.7 2.5-2.1.9-.4 1.8-.6 2.9-.6 2.3 0 3.9.8 4.7 2.4.5.9.7 2.2.7 3.8v10.5H555V300c0-1-.1-1.8-.4-2.4-.5-1-1.4-1.5-2.7-1.5-.7 0-1.2.1-1.6.2-.8.2-1.4.7-2 1.3-.5.5-.8 1.1-.9 1.7-.1.6-.2 1.4-.2 2.5v8.6h-2.8V294zM561.8 294h2.6v2.3c.8-1 1.6-1.7 2.5-2.1.9-.4 1.8-.6 2.9-.6 2.3 0 3.9.8 4.7 2.4.5.9.7 2.2.7 3.8v10.5h-2.8V300c0-1-.1-1.8-.4-2.4-.5-1-1.4-1.5-2.7-1.5-.7 0-1.2.1-1.6.2-.8.2-1.4.7-2 1.3-.5.5-.8 1.1-.9 1.7-.1.6-.2 1.4-.2 2.5v8.6h-2.8V294zM580 307h3.2v3.3H580V307zM691.7 287.9l4.2 18.3 5.1-18.3h3.3l5.1 18.3 4.2-18.3h3.3l-5.9 22.5h-3.2l-5.2-18.7-5.2 18.7h-3.2l-5.9-22.5h3.4zM452.4 340.4h.7l.4.4-1.6 15.9.4 8.1-.3.3-.6-.4-.7.2-.8-.5-.3.2.5.1-1.7.5-.4-.3-.2.2.2.2-.5.3-.1.3h-.5l-.5-1.4-.6-.6-.2-.6.5-1.6-8.6-.2.4-.2-.3-1.1.6-.2.2-.7-.2-.4.4-.4.4-1.4 1.2-.9-.1-.6.3-.1.6-.9-.9-.8.1-.5-.3-.4.4-.3-.4-.4.4-.8-.4-.3v-.7l.4-.3-.1-.6-.3-.2.3-.8-.5-.5.3-.1.1-.3-.3-.2.8-.7-.1-.4.1-.3-.2-.3 1-.3-.3-.5.3-.3.3-.4h.2l.1-.4h.4l.4-.3.1-1.6h.3l.2-.5.8-.5-.2-.5h8.4zm-3.2 25.2l-.1.2-.3-.2h.4zm.5.1l.2-.1-.2.1zm1.9 0l-1-.1v-.1h.3l.7.2zm.5 0l-.2.1-.1-.1h.3zM511.5 344.8h4.4l6.5 19 6.4-19h4.3v22.5h-2.9V354v-2.3-3.4l-6.4 19h-3l-6.5-19v19h-2.9v-22.5zM537.4 344.8h2.8v3.1h-2.8v-3.1zm0 6.2h2.8v16.3h-2.8V351zM546 362.1c.1.9.3 1.6.7 2.1.7.9 1.9 1.3 3.7 1.3 1 0 2-.2 2.8-.7.8-.4 1.2-1.1 1.2-2.1 0-.7-.3-1.2-1-1.6-.4-.2-1.2-.5-2.4-.8l-2.2-.6c-1.4-.3-2.5-.7-3.1-1.2-1.2-.7-1.8-1.8-1.8-3.1 0-1.6.6-2.8 1.7-3.8s2.7-1.4 4.6-1.4c2.5 0 4.3.7 5.4 2.2.7.9 1 1.9 1 3H554c-.1-.6-.3-1.2-.7-1.7-.6-.7-1.8-1.1-3.4-1.1-1.1 0-1.9.2-2.4.6-.5.4-.8.9-.8 1.6 0 .7.4 1.3 1.1 1.7.4.3 1 .5 1.8.7l1.9.4c2 .5 3.4.9 4.1 1.4 1.1.7 1.6 1.8 1.6 3.3 0 1.5-.6 2.7-1.7 3.8-1.1 1.1-2.8 1.6-5.1 1.6-2.5 0-4.2-.6-5.3-1.7-1-1.1-1.6-2.5-1.7-4.1h2.6zM561.7 362.1c.1.9.3 1.6.7 2.1.7.9 1.9 1.3 3.7 1.3 1 0 2-.2 2.8-.7.8-.4 1.2-1.1 1.2-2.1 0-.7-.3-1.2-1-1.6-.4-.2-1.2-.5-2.4-.8l-2.2-.6c-1.4-.3-2.5-.7-3.1-1.2-1.2-.7-1.8-1.8-1.8-3.1 0-1.6.6-2.8 1.7-3.8s2.7-1.4 4.6-1.4c2.5 0 4.3.7 5.4 2.2.7.9 1 1.9 1 3h-2.6c-.1-.6-.3-1.2-.7-1.7-.6-.7-1.8-1.1-3.4-1.1-1.1 0-1.9.2-2.4.6-.5.4-.8.9-.8 1.6 0 .7.4 1.3 1.1 1.7.4.3 1 .5 1.8.7l1.9.4c2 .5 3.4.9 4.1 1.4 1.1.7 1.6 1.8 1.6 3.3 0 1.5-.6 2.7-1.7 3.8-1.1 1.1-2.8 1.6-5.1 1.6-2.5 0-4.2-.6-5.3-1.7-1-1.1-1.6-2.5-1.7-4.1h2.6zM576.4 364h3.2v3.3h-3.2V364zM688.4 344.8h3.6l6.5 10.8 6.5-10.8h3.6l-8.5 13.4v9.1H697v-9.1l-8.6-13.4zM449.6 400.5l-.4 1.1.3 1.7.4.8 2.4 2.5.3 1.5.4.6h.3l.5-.4 1.3.8-1 2.7.1.7 1 1.1.8.3 1.8 1.6v.7l.5.8-.5.8.7 1.2.4.3-.1-.4.3-.1.3.6h.3v1.2l-.3 1-.7-.3-.4 1-.1-.6h-.3l.2.9-.5.3.3.4-.6.1.4.7-.5.8h-2.9l.3-.7 1.1-.9v-.5l-.4-.7-20.1-.4.8-14.8-1-.4-.2-1-.9-.9.6-1h.5v-.5l-.3-.4-.6.2-1.3-1-.2-1.2-.8-.5-.1-1.1-.3-.3v-.3l7.4.5h9.7l1.1 1.5zM511.5 401.7h4.4l6.5 19 6.4-19h4.3v22.5h-2.9v-13.3-2.3-3.4l-6.4 19h-3l-6.5-19v19h-2.9v-22.5zM549.3 409.4c1.5 1.4 2.2 3.5 2.2 6.2 0 2.6-.6 4.8-1.9 6.6-1.3 1.7-3.3 2.6-6 2.6-2.2 0-4-.8-5.3-2.3-1.3-1.5-2-3.6-2-6.2 0-2.8.7-5 2.1-6.6 1.4-1.6 3.3-2.5 5.6-2.5 2.1.1 3.8.8 5.3 2.2zm-1.7 10.9c.7-1.4 1-2.9 1-4.6 0-1.5-.2-2.8-.7-3.7-.8-1.5-2.1-2.3-4-2.3-1.7 0-2.9.6-3.6 1.9-.8 1.3-1.1 2.8-1.1 4.7 0 1.7.4 3.2 1.1 4.4.8 1.2 2 1.7 3.6 1.7 1.8 0 3-.7 3.7-2.1zM555.5 420.9h3.2v3.3h-3.2v-3.3zM692.1 424.2h-3.7l8-11.6-7.5-11h3.8l5.7 8.6 5.6-8.6h3.6l-7.5 11 7.8 11.6h-3.8l-6-9.3-6 9.3zM461.6 470.5l.3 3.8-9.7.4h-10v2l-.9-1.1-.4.4.1.4-2.2-.1-.5.4-1.1-.2-.2.5-.4-.4-.4-1.2-.8-.4v-.6l-.7-1.2-.1-1.2-.5-.4-.9.8-.6-.4.1-.8.4-.5-.3-1 .7-2h-.7l-.3-.4-.3.2-1.4-2.3-1-.8.3-.1-.2-.3v-.6l-.8-1.3.3-3.9 15.7.7 15.5-.5 1 12.1zM511.5 458.6h4.4l6.5 19 6.4-19h4.3v22.5h-2.9v-13.3-2.3-3.4l-6.4 19h-3l-6.5-19v19h-2.9v-22.5zM549.3 466.3c1.5 1.4 2.2 3.5 2.2 6.2 0 2.6-.6 4.8-1.9 6.6-1.3 1.7-3.3 2.6-6 2.6-2.2 0-4-.8-5.3-2.3-1.3-1.5-2-3.6-2-6.2 0-2.8.7-5 2.1-6.6 1.4-1.6 3.3-2.5 5.6-2.5 2.1.1 3.8.8 5.3 2.2zm-1.7 10.9c.7-1.4 1-2.9 1-4.6 0-1.5-.2-2.8-.7-3.7-.8-1.5-2.1-2.3-4-2.3-1.7 0-2.9.6-3.6 1.9-.8 1.3-1.1 2.8-1.1 4.7 0 1.7.4 3.2 1.1 4.4.8 1.2 2 1.7 3.6 1.7 1.8 0 3-.7 3.7-2.1zM554.9 464.7h2.6v2.3c.8-1 1.6-1.7 2.5-2.1.9-.4 1.8-.6 2.9-.6 2.3 0 3.9.8 4.7 2.4.5.9.7 2.2.7 3.8V481h-2.8v-10.3c0-1-.1-1.8-.4-2.4-.5-1-1.4-1.5-2.7-1.5-.7 0-1.2.1-1.6.2-.8.2-1.4.7-2 1.3-.5.5-.8 1.1-.9 1.7-.1.6-.2 1.4-.2 2.5v8.6h-2.8v-16.4zM572.9 460.1h2.8v4.6h2.6v2.3h-2.6v10.7c0 .6.2 1 .6 1.1.2.1.6.2 1.1.2h.4c.2 0 .3 0 .5-.1v2.2c-.3.1-.6.2-1 .2-.3 0-.7.1-1.1.1-1.3 0-2.2-.3-2.6-1-.5-.7-.7-1.5-.7-2.6v-10.9h-2.2v-2.3h2.2v-4.5zM581.7 477.8h3.2v3.3h-3.2v-3.3zM688.5 478.6l13.8-17.3h-12.8v-2.7h16.8v2.6l-13.9 17.2h13.9v2.7h-17.8v-2.5zM456.7 519.4l.3.1.3 1.5 1.1 1.8v1.2l.3.1v.3l.3.2-.1.5.3.1-.2.4.3.2.1 2.2.6 1 .3 1 .7.3.2 1 .4.2-12.3.4-12.6-.1.1-4.8-7.3-.3.4-9.6 9.7.3h9.9l1.8.9.6-.4 2-.2.6.5 1.5.4.3.6.4.2zM511.6 515.5h3.6l11.2 18.2v-18.2h2.9V538h-3.4l-11.4-18.2V538h-2.9v-22.5zM544.1 522.1c1.1.5 1.9 1.3 2.5 2.1.5.8.9 1.8 1.1 2.9.2.8.2 2 .2 3.6H536c.1 1.7.4 3 1.2 4 .7 1 1.9 1.5 3.4 1.5 1.4 0 2.6-.5 3.4-1.4.5-.6.8-1.2 1-1.9h2.7c-.1.6-.3 1.3-.7 2-.4.7-.9 1.3-1.4 1.8-.8.8-1.9 1.4-3.1 1.7-.7.2-1.4.2-2.2.2-2 0-3.8-.7-5.2-2.2-1.4-1.5-2.1-3.6-2.1-6.2s.7-4.8 2.1-6.4c1.4-1.6 3.3-2.5 5.6-2.5 1.1-.1 2.3.2 3.4.8zm.9 6.4c-.1-1.2-.4-2.2-.8-2.9-.8-1.3-2-2-3.8-2-1.3 0-2.3.5-3.2 1.4-.9.9-1.3 2.1-1.4 3.5h9.2zM551.1 515.4h2.7v8.2c.6-.8 1.3-1.4 2.2-1.8.8-.4 1.8-.6 2.7-.6 2.1 0 3.7.7 5 2.1 1.3 1.4 1.9 3.5 1.9 6.2 0 2.6-.6 4.8-1.9 6.5-1.3 1.7-3 2.6-5.2 2.6-1.3 0-2.3-.3-3.2-.9-.5-.4-1.1-.9-1.6-1.7v2.1h-2.5v-22.7zm10.6 18.9c.7-1.2 1.1-2.7 1.1-4.7 0-1.7-.4-3.2-1.1-4.3-.7-1.1-1.8-1.7-3.3-1.7-1.3 0-2.4.5-3.3 1.4-.9.9-1.4 2.5-1.4 4.6 0 1.5.2 2.8.6 3.8.7 1.8 2.1 2.7 4.1 2.7 1.4 0 2.6-.6 3.3-1.8zM569.5 534.7h3.2v3.3h-3.2v-3.3zM700.7 522.5c1.2.9 1.9 2.4 2.1 4.6h-2.7c-.2-1-.5-1.9-1.1-2.5-.6-.7-1.5-1-2.8-1-1.8 0-3 .9-3.8 2.6-.5 1.1-.7 2.5-.7 4.1 0 1.6.3 3 1 4.1.7 1.1 1.8 1.7 3.3 1.7 1.1 0 2.1-.3 2.7-1 .7-.7 1.1-1.7 1.4-2.9h2.7c-.3 2.2-1.1 3.8-2.3 4.8-1.2 1-2.8 1.5-4.7 1.5-2.1 0-3.9-.8-5.1-2.4s-1.9-3.5-1.9-5.9c0-2.9.7-5.1 2.1-6.7 1.4-1.6 3.2-2.4 5.4-2.4 1.7 0 3.2.5 4.4 1.4zM453.7 589.8l-.2.5-.2.1-.5-.4h-.6l-.5.2.3 2 .2 1.1-.1.7-14.9-14.3.5-10.5 7.8.3 7.8-.1.4 20.4zM511.6 572.4h3.6l11.2 18.2v-18.2h2.9v22.5h-3.4l-11.4-18.2v18.2h-2.9v-22.5zM544.1 579c1.1.5 1.9 1.3 2.5 2.1.5.8.9 1.8 1.1 2.9.2.8.2 2 .2 3.6H536c.1 1.7.4 3 1.2 4 .7 1 1.9 1.5 3.4 1.5 1.4 0 2.6-.5 3.4-1.4.5-.6.8-1.2 1-1.9h2.7c-.1.6-.3 1.3-.7 2-.4.7-.9 1.3-1.4 1.8-.8.8-1.9 1.4-3.1 1.7-.7.2-1.4.2-2.2.2-2 0-3.8-.7-5.2-2.2-1.4-1.5-2.1-3.6-2.1-6.2s.7-4.8 2.1-6.4c1.4-1.6 3.3-2.5 5.6-2.5 1.1-.1 2.3.2 3.4.8zm.9 6.4c-.1-1.2-.4-2.2-.8-2.9-.8-1.3-2-2-3.8-2-1.3 0-2.3.5-3.2 1.4-.9.9-1.3 2.1-1.4 3.5h9.2zM552.7 578.5l4.4 13.4 4.6-13.4h3l-6.2 16.4h-2.9l-6.1-16.4h3.2zM567.7 591.6h3.2v3.3h-3.2v-3.3zM698.9 579.2c.5.4 1 .9 1.6 1.6v-2.1h2.5v14.9c0 2.1-.3 3.7-.9 4.9-1.1 2.2-3.3 3.3-6.5 3.3-1.8 0-3.2-.4-4.4-1.2-1.2-.8-1.9-2-2-3.7h2.8c.1.7.4 1.3.8 1.7.6.6 1.6.9 2.9.9 2.1 0 3.5-.7 4.1-2.2.4-.9.6-2.4.5-4.7-.5.8-1.2 1.5-2 1.9-.8.4-1.8.6-3.1.6-1.8 0-3.3-.6-4.7-1.9-1.3-1.3-2-3.3-2-6.3 0-2.7.7-4.9 2-6.4s3-2.3 4.8-2.3c1.6 0 2.7.3 3.6 1zm.4 2.9c-.8-1-1.9-1.5-3.2-1.5-1.9 0-3.3.9-4 2.7-.4 1-.6 2.2-.6 3.8 0 1.9.4 3.3 1.1 4.2.7 1 1.8 1.4 3 1.4 2 0 3.4-.9 4.2-2.7.4-1 .7-2.2.7-3.5 0-1.9-.4-3.4-1.2-4.4zM449.2 625.3l1 16.3-.2 1.6 1.1 1.4v.8l.6.8-.1.2.3-.1v.2l-.7 1.6-.8-.1-1 .7h-.5l-.4.6-.7.5-8.3-.3-.6-1v-.4l.3-.9.3-.3.3-2.4.3-.4.1-2.5.5-.5.2-1.1.7-.6.2-.9.6-.9-.1-.3.4-.9.1-1.7.4-.6.9-.1 1.2-1 .5-.6.1-.5.3-.2-.6-1.5.8-1.5-.2-1 .8-2-.3-.2.9-.6 1 .5.5-.6.1.5zM511.6 629.3h3.6l11.2 18.2v-18.2h2.9v22.5h-3.4l-11.4-18.2v18.2h-2.9v-22.5zM534.6 648.5h3.2v3.3h-3.2v-3.3zM543.1 629.3h3.1v9.3h11.6v-9.3h3.1v22.5h-3.1v-10.5h-11.6v10.5h-3.1v-22.5zM566 648.5h3.2v3.3H566v-3.3zM698.8 635.9c.5.3 1 .8 1.7 1.6v-8.3h2.7v22.6h-2.5v-2.3c-.6 1-1.4 1.7-2.3 2.2-.9.4-1.9.7-3 .7-1.8 0-3.4-.8-4.7-2.3-1.3-1.5-2-3.6-2-6.1 0-2.4.6-4.5 1.8-6.2 1.2-1.8 3-2.6 5.2-2.6 1.2-.1 2.3.2 3.1.7zm-6.1 12.3c.7 1.2 1.9 1.8 3.6 1.8 1.3 0 2.3-.5 3.1-1.6.8-1.1 1.2-2.7 1.2-4.7 0-2.1-.4-3.6-1.3-4.6-.8-1-1.9-1.5-3.1-1.5-1.4 0-2.5.5-3.4 1.6-.9 1.1-1.3 2.6-1.3 4.7.1 1.7.4 3.1 1.2 4.3zM451.6 687.5l-.3.8-.9.5v-.5l-.6.9-.5 1.1v.8l.5.3h.6l1.2.5.2-.3v1.4l-.5 2.2v.6l-.4 2.7h-.2l.6-2.4-.4-.6v.6l-.5.3.3.3-.3.3.3.3-.6 1.4v.9l-1.4 1.7.3.5-.5-.5h-.3v1.1h-.7v.6h.3l.3.5-1.2.5.3-.5v-.3l-.6.8h-.5l-.3.3h.8l-.6.7-.3.8h-.5l.5.3-.8.8v.3l-.9.6-.6.2v-1l.6-.8-.3-.8h-.7l-.3-.3-.8.3-.3-.6-.6-.8h-.6l-.3-.5-.3.3-1.4-1.7v-.3h.2v-.5l-.2-.6 1.1-2.2.8-.3 1.5-.3.5-.6-.3-.5h.3l1.4-1.2 1.4-.8.2-.3-1.9-2.3-.2-.5h-.2l-.6-1.4-.8-.3v-2l.3-.5h.5l.3-.8-.5-1.2.8-.8.8-.8.6-1.7.6-.5.8-.3 6.7 3.9-.3.9-.6 1.3zm-3.1 15.3h-.5l-.3-.3.7.3.3-.6h.5l-.7.6zm1.2-1.7l-.3.3 1.4-2.5-.3 1.2-.8 1zM511.6 686.2h3.6l11.2 18.2v-18.2h2.9v22.5h-3.4l-11.4-18.2v18.2h-2.9v-22.5zM534.6 705.4h3.2v3.3h-3.2v-3.3zM554.1 702c0 1.9-.3 3.4-.8 4.4-1 1.9-3 2.9-6 2.9-1.7 0-3.1-.5-4.3-1.4-1.2-.9-1.8-2.5-1.8-4.9v-1.6h2.9v1.6c0 1.2.3 2.1.8 2.8.5.6 1.4.9 2.6.9 1.6 0 2.7-.6 3.2-1.7.3-.7.5-2 .5-3.9v-15h3V702zM559 705.4h3.2v3.3H559v-3.3zM699.9 692.8c1.1.5 1.9 1.3 2.5 2.1.5.8.9 1.8 1.1 2.9.2.8.2 2 .2 3.6h-11.9c.1 1.7.4 3 1.2 4 .7 1 1.9 1.5 3.4 1.5 1.4 0 2.6-.5 3.4-1.4.5-.6.8-1.2 1-1.9h2.7c-.1.6-.3 1.3-.7 2-.4.7-.9 1.3-1.4 1.8-.8.8-1.9 1.4-3.1 1.7-.7.2-1.4.2-2.2.2-2 0-3.8-.7-5.2-2.2-1.4-1.5-2.1-3.6-2.1-6.2s.7-4.8 2.1-6.4c1.4-1.6 3.3-2.5 5.6-2.5 1.2 0 2.4.2 3.4.8zm1 6.4c-.1-1.2-.4-2.2-.8-2.9-.8-1.3-2-2-3.8-2-1.3 0-2.3.5-3.2 1.4-.9.9-1.3 2.1-1.4 3.5h9.2zM443.7 762l.3.2-6.1-.2-.1 1.9-2.9-.1 1.1-23.4 10 .4h10l.1 20.6h-12.6l.2.6zM511.6 743.1h3.6l11.2 18.2v-18.2h2.9v22.5h-3.4l-11.4-18.2v18.2h-2.9v-22.5zM534.6 762.3h3.2v3.3h-3.2v-3.3zM542.9 743.1h4.4l6.5 19 6.4-19h4.3v22.5h-2.9v-13.3-2.3-3.4l-6.4 19h-3l-6.5-19v19h-2.9v-22.5zM569.5 762.3h3.2v3.3h-3.2v-3.3zM691.1 744.2c.6-.9 1.9-1.4 3.7-1.4h1.1v2.5h-1c-.8 0-1.4.2-1.5.7-.2.4-.2 1.5-.2 3.3h2.8v2.2h-2.8v14.2h-2.7v-14.2h-2.3v-2.2h2.3v-2.6c0-1.1.2-2 .6-2.5zM449.5 796.3h6V798.5l.3.9-.2 1.2-.4 1 .3 1.5-.2 1 .1.2.4-.3.2.4.1 4.5-1 3.7-.2 4.5.3.4-1 .7.3.6-.7.7.1.3-.5.1-.3.6.5-1.7-.3-1.6-.2.3.3 1.5-3.3-2-.2-.4-1-.4-.3-.6v-1.2l-.8-.3-.3-.7-18.4-.7.1-1.5 2.6-1.6.5-.8.7-.3-.2-1.1.2-.4-.7-.3v-1l2.9-.5 2.5.4.7.6.9-.2 1.6.3.1-.3.9-.2 1.2-1 .6.1.3-.4v-.4l-.1.1-.3-1.2.3-.3.1.3.7-.8-.6.1.3-.4-.3-.2-.4.3-.2-.5 2-1.4.6-1.2 1.8-1.5 1.6-1.1zm-16.7 10.5l-.3.3-.2-.2v-.3l.5.2zm11.1-5l-.2.2.3-.4-.1.2zm.6-1.6l-.3.2.1-.1.2-.1zm.7-.4l-.2.2-.3.3-.1-.3.6-.2zm7.5 20.8v.3l-.8.5.3-.7.5-.1zm7.6-2.8l-1.6 1.3h.7l.6-.7h.6v-.2l.3.3 1.1-.4-3.6 1.7.4-.2-4.6 1.2.6.1-1.4.2.7-.3-.3-.2-.3.1.1.2-.5.1-.2-.4.5-.7.7-.1v-.3l.1.1.1-.4.3.3.1-.4h.6l.2-.3.3.3-.2-.3.8.2.4-.3 2.1-.1 1.2-.9.2.1zm-4.1 2.7l-.7.3-.7.1 1-.2.4-.2zm.4.1l-.6.1v-.1l2.1-.8-1.5.8zm4.7-3.5l.3-.2-.3.2zM511.6 800h3.6l11.2 18.2V800h2.9v22.5h-3.4l-11.4-18.2v18.2h-2.9V800zM534.6 819.2h3.2v3.3h-3.2v-3.3zM541.3 800h3.6l6.5 10.8 6.5-10.8h3.6l-8.5 13.4v9.1h-3.1v-9.1l-8.6-13.4zM564.2 819.2h3.2v3.3h-3.2v-3.3zM689.8 800h2.8v8.4c.7-.8 1.2-1.4 1.8-1.7.9-.6 2-.9 3.3-.9 2.4 0 4 .8 4.8 2.5.5.9.7 2.2.7 3.8v10.5h-2.8v-10.3c0-1.2-.2-2.1-.5-2.7-.5-.9-1.4-1.3-2.8-1.3-1.1 0-2.2.4-3.1 1.2-.9.8-1.4 2.3-1.4 4.5v8.7h-2.8V800zM444.4 860.7l17.3-.3v.4l.3.2v.1l.2.2v-.3l.6 1.8-.8-1.2.3.7-1.2-.8.6.8-.4.2-.5-.5.3.7-1-.6.7.6-1.2.5-.4-.2-.1-.7.1-.5-.3-.2-.1 1 .3.6-.1.3 1.3-.2.7.3-.1-.2 1-.1v1h-.3l.4.5-.5.1.5.2.1-1.3.2-.2.3.2-.1-.3h.3l-.1-.2.5.8v1l-.4.3-.2-.3-.6 1.2-.5.3-.8-.3-.1.3-.3-.6-.3.4-.4-.5.5-.2-.8.1.2.7-1.9-.7.4.5 2.1.8-.8.6.5-.1.1.3-.9.7-1.3-.8.6.9.9.4.5-.4.4.3-.1-.3.3.1.2-.5v.7l.6-.2-.2-.3.4.3-1 1.2-.5-.4-.1.6-.2-.5-.4.2.3.1h-.8l-.8.3-.2-.4v.4l-.8.6-.3-.2.3-.3-.5-.5.2.6-.3.2.3.5-.7.3-.8.8-.8 2 .1-.8-.3-.5.1 1-.4.6-1.4-.3-.8.5-4.7-4.9-4.8-.2v-.6l-1-1.1-.5.3v-.4l-5.6-.5-3.1 1-5.2-.2.2-1.3.9-.2.3-.8.5-.5 1.7-.2 1.4-.9.8-.2.5-.8.3.2.7-.7.3.5 1.5-1 .6.3.8-1 .8-.2.2-1.3 6.3.6zm9.5 13.5l-.2.4-.2-.1.1-.2.3-.1zm.4-1.3l-.2.4h-.1l.3-.4zm2.1-1.8l-.8.3-.5.4.3-.3.5-.4h.5zm2.7-1h-.6l-1.2.3.8-.3.7-.1.3.1zm.7.3l-.5-.3.3.1.2.2zm.1.2l.5-1 .8-.9-.8.9-.5 1zm1.6-2.1l.2-.4h.2l-.4.3v.1zm.6-8.1l.1.3h-.3l-.1-.3h.3zm.3 7.4l-.4.3.2-.2.9-.5-.7.4zm.3-6.2l.4 1 .9 1.8-.9-1.2h.1l-.5-1.6-.4-1.2.4 1.2zm.8 2.6l-.2-.1-.3-.5h.3l.2.6zm.4 3l-.8.2.9-.6.1-1.4-.2-1.1.3 1-.2 1.3-.1.6zM511.6 856.9h3.6l11.2 18.2v-18.2h2.9v22.5h-3.4l-11.4-18.2v18.2h-2.9v-22.5zM534.6 876.1h3.2v3.3h-3.2v-3.3zM558.9 858.6c1.6 1.5 2.4 3.2 2.6 5.1h-3c-.3-1.5-1-2.6-2-3.4s-2.4-1.3-4.2-1.3c-2.2 0-3.9.8-5.3 2.3-1.3 1.6-2 4-2 7.2 0 2.6.6 4.8 1.8 6.4 1.2 1.6 3 2.5 5.4 2.5 2.2 0 3.9-.9 5-2.6.6-.9 1.1-2.1 1.4-3.6h3c-.3 2.4-1.1 4.4-2.6 6-1.8 1.9-4.2 2.9-7.2 2.9-2.6 0-4.8-.8-6.5-2.4-2.3-2.1-3.5-5.3-3.5-9.7 0-3.3.9-6 2.6-8.2 1.9-2.3 4.5-3.5 7.8-3.5 3 0 5.2.8 6.7 2.3zM566 876.1h3.2v3.3H566v-3.3zM698.6 869.5c.6-.1 1.1-.3 1.3-.8.1-.2.2-.6.2-1.1 0-.9-.3-1.6-1-2.1-.7-.4-1.6-.6-2.9-.6-1.4 0-2.5.4-3.1 1.2-.3.4-.6 1.1-.7 1.9h-2.6c.1-2 .7-3.4 2-4.2 1.3-.8 2.7-1.2 4.4-1.2 1.9 0 3.5.4 4.7 1.1 1.2.7 1.8 1.9 1.8 3.4v9.5c0 .3.1.5.2.7.1.2.4.3.7.3h.4c.2 0 .3 0 .5-.1v2c-.4.1-.8.2-1 .2h-.9c-1 0-1.6-.3-2.1-1-.2-.4-.4-.9-.5-1.5-.6.7-1.4 1.4-2.4 1.9-1.1.5-2.2.8-3.5.8-1.5 0-2.8-.5-3.7-1.4s-1.4-2.1-1.4-3.5c0-1.5.5-2.7 1.4-3.5 1-.8 2.2-1.4 3.7-1.5l4.5-.5zm-5.8 7.5c.6.5 1.3.7 2.1.7 1 0 1.9-.2 2.8-.7 1.5-.7 2.3-2 2.3-3.7v-2.2c-.3.2-.8.4-1.3.5-.5.1-1.1.2-1.6.3l-1.7.2c-1 .1-1.8.3-2.3.6-.9.5-1.3 1.2-1.3 2.3.1.9.4 1.5 1 2zM461.2 931.4l-15.7.4-15.9-.4.8-18.5 13.5.4 13.7-.3.5 2.1-.2.7.3 2.4 1.2 3.2.3 3.7.3.4-.1 1.7.9 1.9.4 2.3zM511.6 913.8h3.6l11.2 18.2v-18.2h2.9v22.5h-3.4l-11.4-18.2v18.2h-2.9v-22.5zM534.6 933h3.2v3.3h-3.2V933zM543.1 913.8h9c3.1 0 5.4 1.1 7.1 3.3 1.5 2 2.3 4.5 2.3 7.6 0 2.4-.4 4.6-1.3 6.5-1.6 3.4-4.3 5.1-8.1 5.1h-9v-22.5zm8.4 20c1 0 1.8-.1 2.5-.3 1.2-.4 2.1-1.2 2.8-2.3.6-.9 1-2.1 1.3-3.5.2-.8.2-1.6.2-2.4 0-2.8-.5-5-1.6-6.5s-2.8-2.3-5.2-2.3h-5.3v17.3h5.3zM566 933h3.2v3.3H566V933zM689.6 913.8h2.7v8.2c.6-.8 1.3-1.4 2.2-1.8.8-.4 1.8-.6 2.7-.6 2.1 0 3.7.7 5 2.1 1.3 1.4 1.9 3.5 1.9 6.2 0 2.6-.6 4.8-1.9 6.5-1.3 1.7-3 2.6-5.2 2.6-1.3 0-2.3-.3-3.2-.9-.5-.4-1.1-.9-1.6-1.7v2.1h-2.5v-22.7zm10.5 18.9c.7-1.2 1.1-2.7 1.1-4.7 0-1.7-.4-3.2-1.1-4.3-.7-1.1-1.8-1.7-3.3-1.7-1.3 0-2.4.5-3.3 1.4-.9.9-1.4 2.5-1.4 4.6 0 1.5.2 2.8.6 3.8.7 1.8 2.1 2.7 4.1 2.7 1.5 0 2.6-.6 3.3-1.8zM456.4 976.6l-.8.4.3.7-.1.7.1.4-.6 1.6-.1 1h-.2l.1.3-.3.7.2.3-.2.7-1.8 1.5-.7.3-.3-.4h-.3l-.5.4-.1.5h-.5l-.4.7v.5l-.3.1.3.3.1.6-.3-.1-.3.5-.3-.8-.3-.2-.3.1-.8 1.4.2 1.1-.6.2-.2.9-1.4.2-.5-.8-.7-.4-.4-1-.7.2-.6.7-.8.1-.3-.4-.8-.3-.5.2-.1.3h-.3l-.8-.9-.5-.1-.6.1-.7-.3-.5-1.3-.8-.6-.9.2-.5-.5-.5.3.6-17.1 6.6-.1 1.9.7.5.5h.5l.2-.3.8.5-1.8.3.7.3.6-.3.9.3-.4-.4.7.5.5.1 2.1-.8 1.4.1 1.9-1.5 4.1-1.8.1 8.9zM530.2 974c1.5 2 2.2 4.5 2.2 7.7 0 3.4-.9 6.2-2.6 8.4-2 2.6-4.9 3.9-8.6 3.9-3.5 0-6.2-1.1-8.2-3.4-1.8-2.2-2.7-5-2.7-8.4 0-3 .8-5.7 2.3-7.8 1.9-2.8 4.8-4.2 8.6-4.2 4.1-.1 7 1.2 9 3.8zm-2.7 14.3c1.2-1.9 1.8-4.1 1.8-6.7 0-2.6-.7-4.8-2.1-6.4-1.4-1.6-3.3-2.4-5.7-2.4-2.3 0-4.2.8-5.7 2.4-1.5 1.6-2.2 4-2.2 7.1 0 2.5.6 4.6 1.9 6.3 1.3 1.7 3.3 2.6 6.1 2.6 2.7 0 4.7-.9 5.9-2.9zM535.7 970.7h2.8v8.4c.7-.8 1.2-1.4 1.8-1.7.9-.6 2-.9 3.3-.9 2.4 0 4 .8 4.8 2.5.5.9.7 2.2.7 3.8v10.5h-2.8V983c0-1.2-.2-2.1-.5-2.7-.5-.9-1.4-1.3-2.8-1.3-1.1 0-2.2.4-3.1 1.2-.9.8-1.4 2.3-1.4 4.5v8.7h-2.8v-22.7zM553.1 970.7h2.8v3.1h-2.8v-3.1zm0 6.2h2.8v16.3h-2.8v-16.3zM572 978.5c1.5 1.4 2.2 3.5 2.2 6.2 0 2.6-.6 4.8-1.9 6.6-1.3 1.7-3.3 2.6-6 2.6-2.2 0-4-.8-5.3-2.3-1.3-1.5-2-3.6-2-6.2 0-2.8.7-5 2.1-6.6 1.4-1.6 3.3-2.5 5.6-2.5 2.1.1 3.8.8 5.3 2.2zm-1.7 10.9c.7-1.4 1-2.9 1-4.6 0-1.5-.2-2.8-.7-3.7-.8-1.5-2.1-2.3-4-2.3-1.7 0-2.9.6-3.6 1.9-.8 1.3-1.1 2.8-1.1 4.7 0 1.7.4 3.2 1.1 4.4.8 1.2 2 1.7 3.6 1.7 1.8 0 3-.7 3.7-2.1zM689.8 970.7h2.8v3.1h-2.8v-3.1zm0 6.2h2.8v16.3h-2.8v-16.3z"/><path fill="#C0C0C0" d="M888.9 840.2h186.4v2H888.9zM888.9 897.1h186.4v2H888.9zM784.9 840.2h104v2h-104zM784.9 897.1h104v2h-104zM888.9 783.3h186.4v2H888.9z"/><path fill="#C0C0C0" d="M888.9 840.2h186.4v2H888.9zM784.9 783.3h104v2h-104zM784.9 840.2h104v2h-104zM888.9 726.4h186.4v2H888.9zM888.9 783.3h186.4v2H888.9zM784.9 726.4h104v2h-104z"/><path fill="#C0C0C0" d="M784.9 783.3h104v2h-104zM888.9 669.5h186.4v2H888.9zM888.9 726.4h186.4v2H888.9zM784.9 669.5h104v2h-104zM784.9 726.4h104v2h-104zM888.9 612.6h186.4v2H888.9z"/><path fill="#C0C0C0" d="M888.9 669.5h186.4v2H888.9zM784.9 612.6h104v2h-104zM784.9 669.5h104v2h-104zM888.9 555.7h186.4v2H888.9zM888.9 612.6h186.4v2H888.9zM784.9 555.7h104v2h-104z"/><path fill="#C0C0C0" d="M784.9 612.6h104v2h-104zM888.9 498.8h186.4v2H888.9zM888.9 555.7h186.4v2H888.9zM784.9 498.8h104v2h-104zM784.9 555.7h104v2h-104zM888.9 441.9h186.4v2H888.9z"/><path fill="#C0C0C0" d="M888.9 498.8h186.4v2H888.9zM784.9 441.9h104v2h-104zM784.9 498.8h104v2h-104zM888.9 385h186.4v2H888.9zM888.9 441.9h186.4v2H888.9zM784.9 385h104v2h-104z"/><path fill="#C0C0C0" d="M784.9 441.9h104v2h-104zM888.9 328.1h186.4v2H888.9zM888.9 385h186.4v2H888.9zM784.9 328.1h104v2h-104zM784.9 385h104v2h-104zM888.9 271.1h186.4v2H888.9z"/><path fill="#C0C0C0" d="M888.9 328.1h186.4v2H888.9zM784.9 271.1h104v2h-104zM784.9 328.1h104v2h-104zM888.9 214.2h186.4v2H888.9zM888.9 271.1h186.4v2H888.9zM784.9 214.2h104v2h-104z"/><path fill="#C0C0C0" d="M784.9 271.1h104v2h-104zM888.9 157.3h186.4v2H888.9zM888.9 214.2h186.4v2H888.9zM784.9 157.3h104v2h-104zM784.9 214.2h104v2h-104zM888.9 100.4h186.4v2H888.9z"/><path fill="#C0C0C0" d="M888.9 157.3h186.4v2H888.9zM784.9 100.4h104v2h-104zM784.9 157.3h104v2h-104zM888.9 43.5h186.4v2H888.9zM888.9 100.4h186.4v2H888.9zM784.9 43.5h104v2h-104z"/><path fill="#C0C0C0" d="M784.9 100.4h104v2h-104zM888.9 43.5h186.4v2H888.9zM784.9 43.5h104v2h-104z"/><path d="M851.1 7l.8 5.2.1 7.9-1.5-.5-.4-.4-.9-.5-.5.5h-.5l-.4-.4-.7.5-.6-.1-1.3.6-.2.3-1-.7v-.2l-.6.2-.7-.5-.6.4-.3.7-.3-.8-.8.4-.8-.8-.8.6h-.3l-.1-.6-.5-.1-.1-.6h-.9l-.6.3-.4-.4-.5.1-1.8-.5v-.4l-.7-.7-.2.4-1-.1-.8-.9h-.4l.1-8.9-11.1-.4.1-2.3 15.6.5 15.5-.1.1 2.3zM918.7 6.6c1.5 2 2.2 4.5 2.2 7.7 0 3.4-.9 6.2-2.6 8.4-2 2.6-4.9 3.9-8.6 3.9-3.5 0-6.2-1.1-8.2-3.4-1.8-2.2-2.7-5-2.7-8.4 0-3 .8-5.7 2.3-7.8 1.9-2.8 4.8-4.2 8.6-4.2 4.1-.1 7.1 1.2 9 3.8zM916 20.9c1.2-1.9 1.8-4.1 1.8-6.7 0-2.6-.7-4.8-2.1-6.4-1.4-1.6-3.3-2.4-5.7-2.4-2.3 0-4.2.8-5.7 2.4-1.5 1.6-2.2 4-2.2 7.1 0 2.5.6 4.6 1.9 6.3 1.3 1.7 3.3 2.6 6.1 2.6s4.7-1 5.9-2.9zM924.1 3.3h2.7v13.1l7.1-7h3.5l-6.3 6.1 6.7 10.3h-3.5l-5.2-8.4-2.3 2.2v6.2h-2.7V3.3zM940 3.3h2.8v22.5H940V3.3zM955.7 15.9c.6-.1 1.1-.3 1.3-.8.1-.2.2-.6.2-1.1 0-.9-.3-1.6-1-2.1-.7-.4-1.6-.6-2.9-.6-1.4 0-2.5.4-3.1 1.2-.3.4-.6 1.1-.7 1.9H947c.1-2 .7-3.4 2-4.2 1.3-.8 2.7-1.2 4.4-1.2 1.9 0 3.5.4 4.7 1.1 1.2.7 1.8 1.9 1.8 3.4V23c0 .3.1.5.2.7.1.2.4.3.7.3h.4c.2 0 .3 0 .5-.1v2c-.4.1-.8.2-1 .2h-.9c-1 0-1.6-.3-2.1-1-.2-.4-.4-.9-.5-1.5-.6.7-1.4 1.4-2.4 1.9-1.1.5-2.2.8-3.5.8-1.5 0-2.8-.5-3.7-1.4-1-.9-1.4-2.1-1.4-3.5 0-1.5.5-2.7 1.4-3.5 1-.8 2.2-1.4 3.7-1.5l4.4-.5zm-5.8 7.5c.6.5 1.3.7 2.1.7 1 0 1.9-.2 2.8-.7 1.5-.7 2.3-2 2.3-3.7v-2.2c-.3.2-.8.4-1.3.5-.5.1-1 .2-1.6.3l-1.7.2c-1 .1-1.8.3-2.3.6-.9.5-1.3 1.2-1.3 2.3.1.9.4 1.5 1 2zM965 22.5h3.2v3.3H965v-3.3zM829.4 61.1h.2l.6.4.3 1.5 1.2.4 1.2-.6 1.3.1.3.3h.7l.7-.3h1l1.7-.7 1.3-.1.2-.2 5.5-.2.3.6.5.3.3.7-.9 2.1v.4l-.5.6-.4 1.3.1.4h.6l.3.3-.2.3.1.3-.2.7.3 6.8-9.6.2-10.3-.3-.4-.4-.2-.8.1-1.1-.4-.7.4-.8.3-1.1.1-.1v.3l.3-.5.2.2-.1-.4-.4.4.3-.9.2-.3.2.1-.2-.1-.2.1.3-2.2.1-.4.1.1-.2-.2.1-.6h.1l-.1-.1V66l.3-1.2v-.7l.2-.3-.1-.1.1-.4.1.3.2-.1-.2-.3.2-.4-.2.1-.1-.3v-.7l.2-.3-.1-.7.4.2v.2l.1-.1-.2-.2h.2l.2.1.5-.2.3.3h.3l.4-.1zM918.7 63.5c1.5 2 2.2 4.5 2.2 7.7 0 3.4-.9 6.2-2.6 8.4-2 2.6-4.9 3.9-8.6 3.9-3.5 0-6.2-1.1-8.2-3.4-1.8-2.2-2.7-5-2.7-8.4 0-3 .8-5.7 2.3-7.8 1.9-2.8 4.8-4.2 8.6-4.2 4.1-.1 7.1 1.2 9 3.8zM916 77.8c1.2-1.9 1.8-4.1 1.8-6.7 0-2.6-.7-4.8-2.1-6.4-1.4-1.6-3.3-2.4-5.7-2.4-2.3 0-4.2.8-5.7 2.4-1.5 1.6-2.2 4-2.2 7.1 0 2.5.6 4.6 1.9 6.3 1.3 1.7 3.3 2.6 6.1 2.6s4.7-1 5.9-2.9zM924.3 66.3h2.6v2.8c.2-.6.7-1.2 1.6-2 .8-.8 1.8-1.2 2.9-1.2h.3c.1 0 .3 0 .6.1v3c-.2 0-.3-.1-.5-.1h-.5c-1.4 0-2.5.4-3.2 1.3-.7.9-1.1 1.9-1.1 3.1v9.4h-2.8V66.3zM944.8 66.8c1.1.5 1.9 1.3 2.5 2.1.5.8.9 1.8 1.1 2.9.2.8.2 2 .2 3.6h-11.9c.1 1.7.4 3 1.2 4 .7 1 1.9 1.5 3.4 1.5 1.4 0 2.6-.5 3.4-1.4.5-.6.8-1.2 1-1.9h2.7c-.1.6-.3 1.3-.7 2-.4.7-.9 1.3-1.4 1.8-.8.8-1.9 1.4-3.1 1.7-.7.2-1.4.2-2.2.2-2 0-3.8-.7-5.2-2.2-1.4-1.5-2.1-3.6-2.1-6.2s.7-4.8 2.1-6.4c1.4-1.6 3.3-2.5 5.6-2.5 1.2 0 2.3.3 3.4.8zm1 6.4c-.1-1.2-.4-2.2-.8-2.9-.8-1.3-2-2-3.8-2-1.3 0-2.3.5-3.2 1.4s-1.3 2.1-1.4 3.5h9.2zM952.8 79.4h3.2v3.3h-3.2v-3.3zM849.5 123.3l-.4.2-.7 1.3-.8.8.4.8-.2.5-.4.3V128.4l.5.1.3.9h.3l1.2 1.4-1.8 1.3-.1.4-1.4.6-.8-.2-.5.3-.3.5h-1.7l-20.8-.1.4-14 1.4-.6.7-.5-.2.3 1.7-.8v1.6h20.3l.4.3.1.3.7.3.2 1.4.3.6 1.2.3v.5zM900.4 117.2h10.1c2 0 3.6.6 4.8 1.7s1.8 2.7 1.8 4.8c0 1.8-.5 3.3-1.6 4.6-1.1 1.3-2.8 2-5 2h-7v9.5h-3.1v-22.6zm11.9 3c-.7-.3-1.6-.5-2.8-.5h-6v7.8h6c1.4 0 2.5-.3 3.3-.9.8-.6 1.3-1.6 1.3-3.1s-.6-2.7-1.8-3.3zM929.5 129.7c.6-.1 1.1-.3 1.3-.8.1-.2.2-.6.2-1.1 0-.9-.3-1.6-1-2.1-.7-.4-1.6-.6-2.9-.6-1.4 0-2.5.4-3.1 1.2-.3.4-.6 1.1-.7 1.9h-2.6c.1-2 .7-3.4 2-4.2 1.3-.8 2.7-1.2 4.4-1.2 1.9 0 3.5.4 4.7 1.1 1.2.7 1.8 1.9 1.8 3.4v9.5c0 .3.1.5.2.7.1.2.4.3.7.3h.4c.2 0 .3 0 .5-.1v2c-.4.1-.8.2-1 .2h-.9c-1 0-1.6-.3-2.1-1-.2-.4-.4-.9-.5-1.5-.6.7-1.4 1.4-2.4 1.9-1.1.5-2.2.8-3.5.8-1.5 0-2.8-.5-3.7-1.4-1-.9-1.4-2.1-1.4-3.5 0-1.5.5-2.7 1.4-3.5 1-.8 2.2-1.4 3.7-1.5l4.5-.5zm-5.8 7.5c.6.5 1.3.7 2.1.7 1 0 1.9-.2 2.8-.7 1.5-.7 2.3-2 2.3-3.7v-2.2c-.3.2-.8.4-1.3.5-.5.1-1.1.2-1.6.3l-1.7.2c-1 .1-1.8.3-2.3.6-.9.5-1.3 1.2-1.3 2.3.1.9.4 1.5 1 2zM938.8 136.3h3.2v3.3h-3.2v-3.3zM838.3 174.6l.8.2-.1 2.6.4.5 1.2.9.6 1.1-.1.9-.5.4-.7.2-.2-.7.5-1.9-.3-.2-.2.9-.6-.3-.4-.4-.3-1.3-.4-.8v2.2l.5.5.2.3-.5 1-.4-.4-.5-.2-.5.5.5.3.3 1.1-.1.5-.7 1.1.5 1v1.9l-1.4 2.9-.2.1-1-.3-1 .1-3.6 1.3-1.9.3.3-2.1.3-.6.3-.1.3-2.9V171l8.8-.2.1 3.8zm-4.3 21.2l-.6.1-.3-.2-.1-.3.2-.6.5-.3v-.7l.4.1v.9l.4.8-.5.2zm3.9-8.8l-.2-.2v-1l.4-.4-.3-.3.3-1.4.4.3v.8l-.3 1.6-.3.6zm3.3-1.1l.1.3-.7-.2-.8.9-.4-.1-.5.5-.2-.1.1-.6.9-.5-.3-.8.3-.7v-.6l.6-.8.3-1 1-.9-.3 1.5-.1 3.1zm2.5-.4l-1.3 1.3-.3-1 .1-.5-.3-2.4.1-1.2.3-.9 1.4.5-.3 1.5.3.4v2.3zM900.5 174.1h10.2c1.7 0 3.1.3 4.2.8 2.1 1 3.1 2.7 3.1 5.3 0 1.3-.3 2.5-.8 3.3-.6.9-1.3 1.5-2.3 2.1.9.4 1.5.8 2 1.4.4.6.7 1.5.7 2.8l.1 3c0 .9.1 1.5.2 1.9.2.7.5 1.2 1 1.4v.5h-3.7c-.1-.2-.2-.4-.2-.8-.1-.3-.1-.9-.2-1.8l-.2-3.8c-.1-1.5-.6-2.5-1.6-3-.6-.3-1.5-.4-2.7-.4h-6.7v9.7h-3.1v-22.4zm9.9 10.3c1.4 0 2.5-.3 3.3-.9.8-.6 1.2-1.6 1.2-3.1 0-1.6-.6-2.7-1.7-3.3-.6-.3-1.4-.5-2.4-.5h-7.2v7.7h6.8zM923.1 193.2h3.2v3.3h-3.2v-3.3zM932.2 174.1h3.1v22.5h-3.1v-22.5zM940.6 193.2h3.2v3.3h-3.2v-3.3zM827.1 227.9l8.2.4.1.7.7-.3.9 1.1v1l7.1.2 6.9 6.8-.2.1.2.3-1.2.5-1.1 1-1.2 1.8-.3 1.5-.2-.6-.3-.1.5-1-.2.3-.4.8.7.9-.2.3-.3-.2v.3l-.4-.3.3.4-.5.3-.1.4-.7.2-.2-.3-.4.2-.3.6.1.2.3-.2-.1.2-1.5 1.2-.5-.3.1-.4h-.3l.1.5h-.3l.7.3-.1.3-.5.4-.5.1.1.3-1.1.3-.5-.4.3.5-.8.6-.2-.4-.2.4-1-.7.1.3h-.9v.2l1.3.1-.7.2.8.3-.6.5.7-.5-.2.7-1.1.5-.1-1.5h-.2v1.2l-.5-.4-.2-1-.5-.4.4 1.7.7.8-.9.8.3-.7-.1-.3-.7 1.6-.7-.4h-.5l-.5-.8.2-1-.4-1.3-1.3-1.1v-.9l-.6-1.4-.1-.8-1.6-.9-.1-.4-.5-.4.1-.3-.5-.4-.1-.8-.8-.8-.7-.3-.6-1.3-1.9-1.4-.2-.7-.7-.9-.8-2.2-1.2-.3-.8-.9-1.2-.8.3-.8 1.3-1.3 2.3-.5.4-.4 1.6-.3.3-.3.2-.2zm19 16.6v-.3l.1-.1v.1l-.1.3zM902.1 246.2c.1 1.3.4 2.3.9 3.1 1 1.5 2.7 2.2 5.2 2.2 1.1 0 2.1-.2 3-.5 1.8-.6 2.6-1.8 2.6-3.4 0-1.2-.4-2.1-1.1-2.6-.8-.5-1.9-1-3.5-1.3l-3-.7c-1.9-.4-3.3-.9-4.1-1.5-1.4-.9-2.1-2.3-2.1-4.2 0-2 .7-3.7 2-5 1.4-1.3 3.3-1.9 5.8-1.9 2.3 0 4.2.6 5.9 1.7s2.4 3 2.4 5.5h-2.9c-.1-1.2-.5-2.1-.9-2.8-.9-1.2-2.4-1.8-4.5-1.8-1.7 0-3 .4-3.7 1.1-.8.8-1.1 1.6-1.1 2.6 0 1.1.4 1.9 1.3 2.4.6.3 1.9.7 4 1.2l3.1.7c1.5.3 2.6.8 3.4 1.4 1.4 1.1 2.1 2.6 2.1 4.6 0 2.5-.9 4.3-2.7 5.4-1.8 1.1-3.8 1.6-6.2 1.6-2.7 0-4.9-.7-6.4-2.1-1.5-1.4-2.3-3.3-2.3-5.8h2.8zM921.4 250.1h3.2v3.3h-3.2v-3.3zM945.7 232.6c1.6 1.5 2.4 3.2 2.6 5.1h-3c-.3-1.5-1-2.6-2-3.4-1-.8-2.4-1.3-4.2-1.3-2.2 0-3.9.8-5.3 2.3-1.3 1.6-2 4-2 7.2 0 2.6.6 4.8 1.8 6.4 1.2 1.6 3 2.5 5.4 2.5 2.2 0 3.9-.9 5-2.6.6-.9 1.1-2.1 1.4-3.6h3c-.3 2.4-1.1 4.4-2.6 6-1.8 1.9-4.2 2.9-7.2 2.9-2.6 0-4.8-.8-6.5-2.4-2.3-2.1-3.5-5.3-3.5-9.7 0-3.3.9-6 2.6-8.2 1.9-2.3 4.5-3.5 7.8-3.5 3 .1 5.2.8 6.7 2.3zM952.8 250.1h3.2v3.3h-3.2v-3.3zM847.8 289.3l-.3.8-.7.8.5.8.5.1.4.4.4 8.2h-.5l.3.5-.2.7h.3l.1.4-.5 1.7.3.4.3.6-.5-.1-.3-.5-1.4-.5-.5-.4-1.9.1-.5.5-1.6-1h-9.5l-9.3-.3.8-13.4 12 .3 11.8-.1zM902.1 303.1c.1 1.3.4 2.3.9 3.1 1 1.5 2.7 2.2 5.2 2.2 1.1 0 2.1-.2 3-.5 1.8-.6 2.6-1.8 2.6-3.4 0-1.2-.4-2.1-1.1-2.6-.8-.5-1.9-1-3.5-1.3l-3-.7c-1.9-.4-3.3-.9-4.1-1.5-1.4-.9-2.1-2.3-2.1-4.2 0-2 .7-3.7 2-5 1.4-1.3 3.3-1.9 5.8-1.9 2.3 0 4.2.6 5.9 1.7s2.4 3 2.4 5.5h-2.9c-.1-1.2-.5-2.1-.9-2.8-.9-1.2-2.4-1.8-4.5-1.8-1.7 0-3 .4-3.7 1.1-.8.8-1.1 1.6-1.1 2.6 0 1.1.4 1.9 1.3 2.4.6.3 1.9.7 4 1.2l3.1.7c1.5.3 2.6.8 3.4 1.4 1.4 1.1 2.1 2.6 2.1 4.6 0 2.5-.9 4.3-2.7 5.4-1.8 1.1-3.8 1.6-6.2 1.6-2.7 0-4.9-.7-6.4-2.1-1.5-1.4-2.3-3.3-2.3-5.8h2.8zM921.4 307h3.2v3.3h-3.2V307zM929.9 287.9h9c3.1 0 5.4 1.1 7.1 3.3 1.5 2 2.3 4.5 2.3 7.6 0 2.4-.4 4.6-1.3 6.5-1.6 3.4-4.3 5.1-8.1 5.1h-9v-22.5zm8.5 19.9c1 0 1.8-.1 2.5-.3 1.2-.4 2.1-1.2 2.8-2.3.6-.9 1-2.1 1.3-3.5.1-.8.2-1.6.2-2.4 0-2.8-.5-5-1.6-6.5s-2.8-2.3-5.2-2.3H933v17.3h5.4zM952.8 307h3.2v3.3h-3.2V307zM846.1 347.8l8.6-.3-.2 1.4-.8.2-.7 1.1-.6-.2-1.5 1.1-.3-.5-.8.7-.5-.1-.3.9-.8.2-1.3 1.1-1.8.4-.5.4-.3.9-.9.2-.2 1.3-10.5.1-15.8-.5 1.1-.7-.2-1.2.9-.9-.1-1 1-.5-.1-.4.4.2-.2-.8.4-.6-.3-.6h.6l-.3-.4.4-.2-.1-.6.3.3.3-.3 6 .2v-1l1 .3 18.1-.2zM916.5 344.8v2.7h-7.6v19.8h-3.1v-19.8h-7.6v-2.7h18.3zM929.1 351.3c1.1.5 1.9 1.3 2.5 2.1.5.8.9 1.8 1.1 2.9.2.8.2 2 .2 3.6H921c.1 1.7.4 3 1.2 4 .7 1 1.9 1.5 3.4 1.5 1.4 0 2.6-.5 3.4-1.4.5-.6.8-1.2 1-1.9h2.7c-.1.6-.3 1.3-.7 2-.4.7-.9 1.3-1.4 1.8-.8.8-1.9 1.4-3.1 1.7-.7.2-1.4.2-2.2.2-2 0-3.8-.7-5.2-2.2-1.4-1.5-2.1-3.6-2.1-6.2s.7-4.8 2.1-6.4c1.4-1.6 3.3-2.5 5.6-2.5 1.2 0 2.3.3 3.4.8zm1 6.5c-.1-1.2-.4-2.2-.8-2.9-.8-1.3-2-2-3.8-2-1.3 0-2.3.5-3.2 1.4s-1.3 2.1-1.4 3.5h9.2zM936.4 350.9h2.6v2.3c.8-1 1.6-1.7 2.5-2.1.9-.4 1.8-.6 2.9-.6 2.3 0 3.9.8 4.7 2.4.5.9.7 2.2.7 3.8v10.5H947v-10.3c0-1-.1-1.8-.4-2.4-.5-1-1.4-1.5-2.7-1.5-.7 0-1.2.1-1.6.2-.8.2-1.4.7-2 1.3-.5.5-.8 1.1-.9 1.7-.1.6-.2 1.4-.2 2.5v8.6h-2.8v-16.4zM953.9 350.9h2.6v2.3c.8-1 1.6-1.7 2.5-2.1.9-.4 1.8-.6 2.9-.6 2.3 0 3.9.8 4.7 2.4.5.9.7 2.2.7 3.8v10.5h-2.8v-10.3c0-1-.1-1.8-.4-2.4-.5-1-1.4-1.5-2.7-1.5-.7 0-1.2.1-1.6.2-.8.2-1.4.7-2 1.3-.5.5-.8 1.1-.9 1.7-.1.6-.2 1.4-.2 2.5v8.6h-2.8v-16.4zM972 364h3.2v3.3H972V364zM835.8 396.8v5l.8.5h.5l.1-.1.5.5 1.2.2.2.3.8-.3.4.6.5-.3.5.4.5-.3.1.5.5-.6.3.2.3-.1.7.4.8-.5.3.1.4-.2.5.1.3-.3 1.9 1 .8-.1.3 4.1.5.5v.5l.9 1.4-.5 1.2.2 1.3-.5.6.2.3-.4.1-1.5 1 .1-.4.6-.2v-.1l-.8.2.1-.6-.3.2-.4-.1.3.8.2.2-.6.4v.3l-.6.6-1.2.6.5-.2-1.1.7.5-.5-.5.2.2-.1-.1-.1-.4.1-.1-.2h-.1l.1.3v.1l-.2.2.1-.3-.4-.1.3.5-.2.2h.3l-.5.3-.3-.3v.5l-.3.3-.1.1.1-.4-.1.4v-.4l-.4.2.1.4.3-.3-.4.7-.8-.1.7.5-.4 1-.3.1.1-.4-.3.3-.3-.4.3.4-.3.1h.8l-.3.7.2.3-.2.2.7 1.8h.3l-.1.2.1-.1.1.2-.4.2-.1.3-.7-.6-1.2-.1-1.5-.6-.6-.1-.3-1-.6-.7-.2-1.4-.8-.4-.6-.9-.5-.5-.9-2.2-1.3-1.2-.3.1-.2-.5-1.6-.1-.4-.2-.2.3-.6.1-.4 1.3-.7.7-.5-.1-2.4-1.6-1-2.6-.9-.6-2.5-2.7-.1-.4 7.8.3.3-11.6h6.3zm6.4 24.9l-.1-.8.1-.1h.1l.6 2.8-.7-1.9zm.3-1.8l-.3.8.3-1.1.4-.7-.3.7-.1.3zm.8-1.6l.1.2-.3.4.2-.6zm.4-.3l-.3.3.3-.3.7-.3-.7.3zm.9-.6l.2-.1-.3.2.1-.1zm3.3-2.5l-.7.7.5-.6v-.1h.2zM916.5 401.7v2.7h-7.6v19.8h-3.1v-19.8h-7.6v-2.7h18.3zM929.1 408.2c1.1.5 1.9 1.3 2.5 2.1.5.8.9 1.8 1.1 2.9.2.8.2 2 .2 3.6H921c.1 1.7.4 3 1.2 4 .7 1 1.9 1.5 3.4 1.5 1.4 0 2.6-.5 3.4-1.4.5-.6.8-1.2 1-1.9h2.7c-.1.6-.3 1.3-.7 2-.4.7-.9 1.3-1.4 1.8-.8.8-1.9 1.4-3.1 1.7-.7.2-1.4.2-2.2.2-2 0-3.8-.7-5.2-2.2-1.4-1.5-2.1-3.6-2.1-6.2s.7-4.8 2.1-6.4c1.4-1.6 3.3-2.5 5.6-2.5 1.2 0 2.3.3 3.4.8zm1 6.5c-.1-1.2-.4-2.2-.8-2.9-.8-1.3-2-2-3.8-2-1.3 0-2.3.5-3.2 1.4-.9.9-1.3 2.1-1.4 3.5h9.2zM934.9 407.8h3.6l3.8 5.8 3.8-5.8 3.4.1-5.5 7.9 5.8 8.4h-3.5L942 418l-4 6.2h-3.5l5.8-8.4-5.4-8zM960.9 414.3c.6-.1 1.1-.3 1.3-.8.1-.2.2-.6.2-1.1 0-.9-.3-1.6-1-2.1-.7-.4-1.6-.6-2.9-.6-1.4 0-2.5.4-3.1 1.2-.3.4-.6 1.1-.7 1.9h-2.6c.1-2 .7-3.4 2-4.2 1.3-.8 2.7-1.2 4.4-1.2 1.9 0 3.5.4 4.7 1.1 1.2.7 1.8 1.9 1.8 3.4v9.5c0 .3.1.5.2.7.1.2.4.3.7.3h.4c.2 0 .3 0 .5-.1v2c-.4.1-.8.2-1 .2h-.9c-1 0-1.6-.3-2.1-1-.2-.4-.4-.9-.5-1.5-.6.7-1.4 1.4-2.4 1.9-1.1.5-2.2.8-3.5.8-1.5 0-2.8-.5-3.7-1.4-1-.9-1.4-2.1-1.4-3.5 0-1.5.5-2.7 1.4-3.5 1-.8 2.2-1.4 3.7-1.5l4.5-.5zm-5.8 7.4c.6.5 1.3.7 2.1.7 1 0 1.9-.2 2.8-.7 1.5-.7 2.3-2 2.3-3.7v-2.2c-.3.2-.8.4-1.3.5-.5.1-1.1.2-1.6.3l-1.7.2c-1 .1-1.8.3-2.3.6-.9.5-1.3 1.2-1.3 2.3.1.9.4 1.6 1 2zM971.2 419.1c.1.9.3 1.6.7 2.1.7.9 1.9 1.3 3.7 1.3 1 0 2-.2 2.8-.7.8-.4 1.2-1.1 1.2-2.1 0-.7-.3-1.2-1-1.6-.4-.2-1.2-.5-2.4-.8l-2.2-.6c-1.4-.3-2.5-.7-3.1-1.2-1.2-.7-1.8-1.8-1.8-3.1 0-1.6.6-2.8 1.7-3.8s2.7-1.4 4.6-1.4c2.5 0 4.3.7 5.4 2.2.7.9 1 1.9 1 3h-2.6c-.1-.6-.3-1.2-.7-1.7-.6-.7-1.8-1.1-3.4-1.1-1.1 0-1.9.2-2.4.6-.5.4-.8.9-.8 1.6 0 .7.4 1.3 1.1 1.7.4.3 1 .5 1.8.7l1.9.4c2 .5 3.4.9 4.1 1.4 1.1.7 1.6 1.8 1.6 3.3 0 1.5-.6 2.7-1.7 3.8-1.1 1.1-2.8 1.6-5.1 1.6-2.5 0-4.2-.6-5.3-1.7-1-1.1-1.6-2.5-1.7-4.1h2.6zM850.1 464.6l-.1.3-.1.5-.1.1V465.8l-.1-.1v-.3l.1-.1v-.1l.1-.1h-.1.1-.2v-.2h-.1l.1-.1h-.1v-.1.1-.1l-.1.1-.1-.1v.1l-.1-.1.1-.1h-.1.2v-.1.1l-.2-.1v.1-.2l.1.1-.1-.1h.1l-.1-.1-.1.1v-.1h.1l.1-.1-.1.1-.1-.1.1-.2.2-.1h-.1l.1-.1h.1v-.1l-.1.1.1-.1-.1.1v.1l-.1.1v.1h-.4v.1h-.1l.1.1h-.1.1v.1l.1.1h-.1v.1l.2.3-.2-.1v-.2l.1.2.2.1.1.2-.1-.1v.1l-.1-.1h-.2l-.1-.2v.2l-.1-.2-.1.1h-.1v-.2l.1-.1v-.2.1l-.1.1v.3h.1l.1-.1.1.1h.2l.1.1.2.1V465.4h-.1l-.3-.3h-.1.1l.3.3h.2-.1.1v.2l-.1-.1.1.1h-.1l-.3-.2v.1l.2.2h.1l.1.2h-.1l-.2-.1h-.1l-.1-.1-.1.1-.1-.1-.2.1h.4v.1l.1.1v.1h.2v-.1h.2l.1.3.2.2.2.3-.2-.1-.3-.5v.2h-.1l.1.1v-.1l.2.3-.2-.2.1.1-.2-.1.1.1-.1.1-.1-.1.1.1h-.2.1l-.2.1h-.1v-.2l.1.3.2-.1.1.1v-.1h.1v.1l.1.1h-.1.1v-.2h.1v-.1l.1.1v.3l-.1-.1-.1.3h-.2v-.1l-.1.1-.1-.1h.1-.1l.1.1h-.3l.1.1.4.1-.1.1h.1l-.1.2-.2-.1.1.1h.2v-.1l.1.1-.1-.1h.1v.1l.1-.1v.1l-.1.1h-.1l.1.1-.1-.1v.1l-.3.1-.1.1h-.1v-.1.1l-.1.1-.1.2-.1.3v-.2.3h-.3l-.2.2-.2.3v.2l-.1-.1v-.1.2h.1v.1h-.2v.1l-.2.2-.1-.1v.1h.1l-.1.1-.1.1-.1-.1v.2H847h.1l-.1.1h.1l-.1.1.1-.1v.1l-.1.1v-.2.1l-.1-.1-.1-.1.1.2.1.1-.1.1v-.1l-.1.2.1.1h-.1v.1h-.1.1l-.1.1h.3v.1h.1v.1l-.1-.3h.1l-.1.1v.1l.1-.1-.1.2v.1h-.1.2l-.1.1v.1h.1-.1l.1.1h-.1.1V472l.1.1.2.4.4.6.3.3.1.1v.2l.2.3-.2-.3-.1-.3h-.1v-.1h-.1l.1.3.4.5v.1l.2.3h-.1.1l.1.3.1.8v-.1l-.1.2v.4h-.2l-.1.1h-.1l-.2.1-.1-.1v-.1h.1v.1l.1-.1-.2-.1-.2-.3-.2-.1h-.1v-.1h-.1l-.1-.3h-.1l.1-.2-.2.2-.1-.3.1-.1-.1.2h-.1l.1.1h-.1l-.3-.4h-.1v-.1.1-.1l.2-.3-.1-.1-.1.1v-.1l-.1-.1-.1.1h.1v.2l-.1-.1h.1v.1l-.1-.1.1-.5-.1-.4-.2-.2h-.2l-.3-.3v-.1h-.1l-.1-.1-.3-.1h-.2l-.2.1h.1-.1.1v.1h.2l-.2.2v-.1l-.1.1-.3.1v-.1l.1.1v-.2l-.3-.2.2.1v-.1h-.1l-.1-.1.1-.1v-.1l-.1.1h-.1l.1.1-.3-.1h-.3l.2-.1h.1l-.1-.1h-.2v.1h-.1l-.3.1.2-.1-.1-.1-.1.1-.1-.1.1.1-.1.1h-.1l.1-.1h-.1v.1h-.1v.1l-.3.1.2-.1-.1-.2v-.1l-.1-.1v.4l-.2-.1-.1.1-.1-.1-.1.1-.2-.1h.1l-.3.1h-.1l-.1.2h-.1l-.4-.2-.2.2v.1H841.1l.1-.1h.2v.1h-.1l.1.1.1-.2h.1l-.1.1h.1l-.1.1h.1v.1h-.1l-.1.1.1.1H841.2l.2.2h.2l.1.1.1.1-.1.1-.1-.1-.1.2.1-.2-.1.1-.1-.1h-.2v-.1h-.1v-.1h-.1l-.2-.1v.1h.2v.1l-.2.2v-.1l-.1-.1v.1l-.1-.1v.1h-.1l-.1.1h-.1l-.1-.1v.1l-.3-.1.1-.1.1.1-.1-.2v-.1l-.1.1-.1-.1h-.1l-.1-.2-.2.1v-.1h-.3v.2h.1l-.2.1h-.3l-.4-.1-.4.1v-.1h.1l.1-.1h-.1l-.1.1.1.1-.5.3v-.1h.2v-.1l-.2.1v-.2l-.1.1h-.1v.2h.1-.1l.1.1-.2.2v.1l-.3.3-.3.1.2-.1-.3.2.2-.1-.2.1.1-.1h-.2l-.1-.1v.2-.1h-.2l.1.1h.1v.1h.1l-.2.1-.1-.1h-.1l.1.2h-.1v-.1h-.1l-.1.1.1.1.1-.1-.1.2h-.3.1l.1.1-.1.3h-.1.1l-.1.1h-.1.2v.2h-.1l.1.1h-.1.1l.1.3h-.1l.1.1v.2h.1v.1l.1-.1v.1l-.2.1v.1l-.3-.2-.4-.1-.2-.1h-.2l-.1-.1h-.2l-.1-.3-.2-.2v-.4l-.3-.2-.2-.3-.2-.1v-.2l-.2-.4v-.1l-.3-.3-.1-.1v-.1h-.1l-.1-.2h-.5l-.2-.1v.1h-.3l-.1.3v.1h-.1l-.1.1h-.2l-.3-.2h-.2l-.3-.3-.1-.3.1-.2-.2-.4-.3-.2-.4-.5-.2-.1-.1-.2-1.3-.1-.1.4-2-.2-2.6-1.3.1-.2-1.7-.1-.1-.1h.1l-.1-.1v.1l-.1-.3-.4-.4h-.2l-.1-.3h-.2l-.2-.1-.1-.2-.2-.2-.6-.1-.1-.1.1-.5-.1-.1v-.2l-.3-.2-.1-.3-.2-.3-.1-.2.1-.1V466.1l-.1-.1-.1-.1-.1-.4.1-.2h.1v.2l.2.2-.1-.3h-.1v-.2l.1-.1v.1l.3.1.1-.1h-.1l.1-.1-.2.1v-.1l-.1.1-.1-.1h.4v.2l-.2-.3-.1.1.1-.2.1.1-.1-.3-.3-.5v-.7l-.2-.3v-.2l.2-.2.1-.1h-.1l.1-.2v-.1l.1-.3v-.2l-.1-.1.1-.2-.1-.1v-.2l.1-.3-.1-.2.2-.4.1-.1v-.1l-.1.1.1-.2h.1l.1-.5.1-.1h-.1l.1-.1v-.2l.2-.5v-.1l.1-.1h-.1v-.1l.1-.2v-.1l.1.1h.2l.1.1-.1-.1h-.4l.1-.3.1.3v-.2h.1l-.2-.1v.1l.1.1v-.1h.1l-.1-.1-.1.1v-.6l-.1-.3v-.3l.4.3.4.1.1-.1.1.2v-.1.1-.1h.1v.1l.1.1-.2.1-.3.3h.2-.2l.1-.2h.1l.1-.1v-.1.2l-.1.1v.1-.1.1h.1l-.1.2h-.1l.1-.1-.1.2v-.2l-.2.2h.1l-.1.1v-.1l.1.1v-.1l.1.1.1-.1v-.1h.2v-.4l.2-.1-.1-.2v.1-.2l.1-.1-.1-.1h-.1l.1.1v-.1h.1v-.1h-.2v-.2l3.5.6 3.5.4 2.3.2 2.2.1h2.2l2.2-.1.1.1.2-.1.2.1v.1l.5.1v.1l.3-.1h.3v.1h.2l.1.2.1-.1.1-.1.3.2h.2l.2-.2.1.1.4-.1.1.1h.2l-.7.3-.7.7.1.1.3-.1.3-.1-.1.2h.1l.2.1.4-.2.3-.1.2-.1.1-.2.2.2v.2l.2-.2-.1.1.1-.1h.2l.1.1.1.2h.3l.1.1h.1l.3-.2.4-.1.3-.1v.2l.2.1.1-.1.1.1.2-.1.1.2h-.1.1l.1.1-.3.1-.1-.1-.1.2-.1-.1h-.3v.1h-.4l-.2.3-.1-.1.1-.2-.2.1-.1.2v-.2.2l-.3.5v.1l-.1.1-.1.2v.1h.1l.1-.3.2-.1.1.1-.1.4v.1l-.1.3v.2l-.1.4v.2l.2.2v.5l.2.3.2.2.1-.1.2-.2.2-.5v-.4l-.1-.2-.2-.3v-.4l.1-.3v-.3h.1v-.2h.2l.1-.2v.3l.1-.1v.1l.1-.2v-.2l.2-.1-.1-.1.1-.2h.1l.2.1h.2l.1.1.4.2.1.1h-.1v.1l.1.2v.4l-.1.1-.1.1-.1.1v.2l.2.1.1-.1.1-.2.2-.1h.1l.2.2.2.7v.3h-.1v-.1h-.1l-.1.1v.2l-.1.1V463.3l-.2.3.3.1h.2l-.3.1h.5l.3-.1h.2l.3-.2.6-.4.4-.4.4-.4-.1-.2h-.1v-.1l.6-.2h.3l.4-.1.3-.3.1-.1v-.1l-.1-.1.1-.1h-.1v-.1l-.1.1-.1-.1.3-.3.1-.2.2-.3.2-.2 2-.5v-.2l.1-.1h.1l.1-.1h.1v-.1h.1l-.1-.1.1-.1.1-.2v-.2l-.1-.2.1-.2v-.2l.3-.7h.1v.1l.1.1.3-.3h.1l.3.1.3 1.1h.2l.1.3h.2l.1.1-.1.1v.1l.1-.1h.1l-.1.2h-.1l-.1-.1v.2-.1.2h-.1v-.1.1h-.1v.2-.1.1l-.1-.1v.2l-.1-.1h-.1.1l-.1.1-.1-.1v.1h-.1l.1.2h-.2v-.1.1-.2.1l-.1.1v.4h-.1v-.1l-.1.1v-.1l-.1.2h-.1v-.1.2l-.1-.2V460.2l-.1-.1-.1.1v-.1l-.1.2h.1-.1v.1l-.1.2v.5l.1.1h.1v-.1l-.2.1v.2l.1.1v-.1l.1.1.1.1v.1h.1v.1h.2l.1-.1v-.2h-.2.2l.1.1v.1l-.3.2-.1.1v-.2h-.1v.2l-.1.1v-.1l-.1.1v-.2h-.1v.3l-.3.1-.1.1h-.1.1l-.1.1h-.3l-.1.1-.3.3v.2l-.1.1-.1.1.1-.3-.1-.1-.1-.1.1.3-.1.2-.1.1v.1l.2.1v-.1l.1.2v.5l-.1.2h-.1v.2l-.1.1h.1l-.1.3-.1.1V464h-.2l-.3-.2v-.1l.1-.2.2-.1v-.1l-.1.1-.1.1-.1.2.3.5.2.1v.1h-.1l.1.1-.3.1v-.2.2zm-30.1 4.3l-.1-.1.1.1zm.1 0H820.4h-.3zm.1.7zm.2-12.7zm.2-.1h-.2.2zm0 .2l.1.1h-.1l.1.1v.2-.1l.1.1v.1l-.1-.1v-.1l-.1-.1v-.2zm0 .7v-.2.2zm0 .1zm.1-.9zm.3 13.2l-.1-.2.1.2zm0-.5l-.2-.1.2.1zm14.9 5.8l-.1.1-.1.2.2-.3zm0 1.3l-.2-.6v-.1l.2.7zm.1-1.4l.1-.2-.1.2zm.4-.5l-.2.1-.1.1.1-.1.2-.1zm.2-17.3l.1.1v.1h-.1v-.2zm1 16.5l-.3.2.3-.2zm1.7-14.6zm.1-.1zm.3 14.4l-.2-.1.1-.1.1.2zm.8-15.5v.1l-.2.1-.2.1v-.1l.4-.2zm.1 15.8zm.5-15.3h-.2v.1l-.1.1-.1.2v-.1h-.1l.2-.2.3-.1zm.6 1.7v.2l-.1.3-.1-.1.2-.4zm-.1 12.7l-.1-.1.1-.1v.2zm.2-13.7zm.1 13.9l-.1-.3.1.1v.2zm.6-13.2v-.1.1zm.4 12.6l.4-.1h.1l-.5.1zm.3-12.9h-.1.1zm.1-.4l-.1-.1.1-.1h.1v.2zm.4.2h-.2l.1-.1v-.1l.1.2zm.9 13.5l.2-.1-.2.1zm2.3-11.7zm.2 13.9l-.1-.1h.1v.1zm.6 1.5zm.1 0zm0-2l.2.1h.1V474.6h-.1l-.2.2zm.1-1.4V473.7v-.3zm0 3.3zm.6-2.2l-.1-.2-.2-.3.3.5zm0-14.5zm.1 16.2l-.1.2.1-.2.1-.1-.1.1zm.6-8zm.5-.3h-.1l-.2.1.1-.1h.2zm.3-2.8l.1-.4-.1.4zm0 2.5zm.2-.2zm0-.6zm.1-4.1l-.1.2.1-.2zm.1 4.6h-.1.1l-.1-.4.1.1V467.3zm.9-5.3l-.2.3h.2v-.3l.1.1.1-.1-.5.4h.1l-.7.3h.1l-.2.1v-.1l-.1.1h-.1l.1-.1.1-.1v-.1.1-.1l.6-.2.4-.3zm-.9 1.8zm0-.2l.1-.2-.1.2zm.4-1zm.1 0l.2-.2-.2.2zm1.4-1.1l-.1.1h-.1l.2-.1zm.3 0l-.1.1.1-.1zm.2-2.3zm.1-.2zm.2-.1l-.1.1.1-.1zM903.4 458.6v13.9c0 1.6.3 3 .9 4.1.9 1.6 2.5 2.5 4.6 2.5 2.6 0 4.4-.9 5.3-2.7.5-1 .8-2.3.8-3.9v-13.9h3.1v12.6c0 2.8-.4 4.9-1.1 6.4-1.4 2.7-4 4.1-7.8 4.1s-6.4-1.4-7.8-4.1c-.7-1.5-1.1-3.6-1.1-6.4v-12.6h3.1zM923.1 477.8h3.2v3.3h-3.2v-3.3zM933.5 473.8c.1 1.3.4 2.3.9 3.1 1 1.5 2.7 2.2 5.2 2.2 1.1 0 2.1-.2 3-.5 1.8-.6 2.6-1.8 2.6-3.4 0-1.2-.4-2.1-1.1-2.6-.8-.5-1.9-1-3.5-1.3l-3-.7c-1.9-.5-3.3-.9-4.1-1.5-1.4-.9-2.1-2.3-2.1-4.2 0-2 .7-3.7 2-5 1.4-1.3 3.3-1.9 5.8-1.9 2.3 0 4.2.6 5.9 1.7 1.6 1.1 2.4 3 2.4 5.5h-2.9c-.1-1.2-.5-2.1-.9-2.8-.9-1.2-2.4-1.8-4.5-1.8-1.7 0-3 .4-3.7 1.1-.8.8-1.1 1.6-1.1 2.6 0 1.1.4 1.9 1.3 2.4.6.3 1.9.7 4 1.2l3.1.7c1.5.3 2.6.8 3.4 1.4 1.4 1.1 2.1 2.6 2.1 4.6 0 2.5-.9 4.3-2.7 5.4-1.8 1.1-3.8 1.6-6.2 1.6-2.7 0-4.9-.7-6.4-2.1-1.5-1.4-2.3-3.3-2.3-5.8h2.8zM952.8 477.8h3.2v3.3h-3.2v-3.3zM828.6 512.6l9.2.1v4.6l7.1-.1.5 18.7-9.4.2-9.4-.2.7-23.4 1.3.1zm2.7 1.8l-.6.2.2.2-.2.2.3.9-.3.2.2.1.2-.3.3.3.2.4v.8l.5.3.3.5.2-.5.3 1.1.2.1.6-.4.2-.5.7-.4-.6-.5-.5-.9h-.2l.3-.3h.5l.2-.3h-.8v-.3l-.4-.1.2 1-.3.2-.3-1-.4-.1-.3-.3.1-.7-.3-.2-.5.3zm1.1 3v-.2.2zm.8-.7l-.3-.2.2-.1.1.3zm.5 1.3l-.3-.4v-.6l.3.5v.5zM903.4 515.5v13.9c0 1.6.3 3 .9 4.1.9 1.6 2.5 2.5 4.6 2.5 2.6 0 4.4-.9 5.3-2.7.5-1 .8-2.3.8-3.9v-13.9h3.1v12.6c0 2.8-.4 4.9-1.1 6.4-1.4 2.7-4 4.1-7.8 4.1s-6.4-1.4-7.8-4.1c-.7-1.5-1.1-3.6-1.1-6.4v-12.6h3.1zM923 517h2.8v4.6h2.6v2.3h-2.6v10.7c0 .6.2 1 .6 1.1.2.1.6.2 1.1.2h.4c.2 0 .3 0 .5-.1v2.2c-.3.1-.6.2-1 .2-.3 0-.7.1-1.1.1-1.3 0-2.2-.3-2.6-1-.5-.7-.7-1.5-.7-2.6v-10.9h-2.2v-2.3h2.2V517zM940 528.1c.6-.1 1.1-.3 1.3-.8.1-.2.2-.6.2-1.1 0-.9-.3-1.6-1-2.1-.7-.4-1.6-.6-2.9-.6-1.4 0-2.5.4-3.1 1.2-.3.4-.6 1.1-.7 1.9h-2.6c.1-2 .7-3.4 2-4.2 1.3-.8 2.7-1.2 4.4-1.2 1.9 0 3.5.4 4.7 1.1 1.2.7 1.8 1.9 1.8 3.4v9.5c0 .3.1.5.2.7.1.2.4.3.7.3h.4c.2 0 .3 0 .5-.1v2c-.4.1-.8.2-1 .2h-.9c-1 0-1.6-.3-2.1-1-.2-.4-.4-.9-.5-1.5-.6.7-1.4 1.4-2.4 1.9-1.1.5-2.2.8-3.5.8-1.5 0-2.8-.5-3.7-1.4-1-.9-1.4-2.1-1.4-3.5 0-1.5.5-2.7 1.4-3.5 1-.8 2.2-1.4 3.7-1.5l4.5-.5zm-5.8 7.4c.6.5 1.3.7 2.1.7 1 0 1.9-.2 2.8-.7 1.5-.7 2.3-2 2.3-3.7v-2.2c-.3.2-.8.4-1.3.5-.5.1-1.1.2-1.6.3l-1.7.2c-1 .1-1.8.3-2.3.6-.9.5-1.3 1.2-1.3 2.3.1 1 .4 1.6 1 2zM948.6 515.4h2.8v8.4c.7-.8 1.2-1.4 1.8-1.7.9-.6 2-.9 3.3-.9 2.4 0 4 .8 4.8 2.5.5.9.7 2.2.7 3.8V538h-2.8v-10.3c0-1.2-.2-2.1-.5-2.7-.5-.9-1.4-1.3-2.8-1.3-1.1 0-2.2.4-3.1 1.2-.9.8-1.4 2.3-1.4 4.5v8.7h-2.8v-22.7zM843.2 572.7l-.3.1-.1.6-.6.8-1.4 1.1-.9.1-.5.7-.1 1.9-.5 1.2.2.3-.6 1-.3 1.1-.7.8-.2 1.2-.4.6-.1 2.8-.3.5-.3 2.7-.4.4-.3 1.1.1.5.6 1.1-6.3-.3-.3-.6.4-8.1-.5-.8h-.4l-.5.6-.1-.4.5-1.9-.5-3.1.4-1.5.4-.5-.1-1.3.3-1-.7-1.9.4-1.8-.3-.8.3-.9-.1-.7 14.3-.1-.2.4.2.8-.8 1-.2.7.7 1.6zM901.9 572.4l6.5 19.2 6.4-19.2h3.4l-8.2 22.5h-3.2l-8.2-22.5h3.3zM921.3 573.9h2.8v4.6h2.6v2.3h-2.6v10.7c0 .6.2 1 .6 1.1.2.1.6.2 1.1.2h.4c.2 0 .3 0 .5-.1v2.2c-.3.1-.6.2-1 .2-.3 0-.7.1-1.1.1-1.3 0-2.2-.3-2.6-1-.5-.7-.7-1.5-.7-2.6v-10.9H919v-2.3h2.2v-4.5zM930.1 591.6h3.2v3.3h-3.2v-3.3zM842.3 632.4l.5-.8.7.1.4.4-.2.5.9.4.8.7v.8l-.4.2-.1.3h-.3l-.3 1.2-.2-.2.3.3-.3.1 1.3-.3.1.3-.2.1.5.5.8.3h.5l.3.6 1.1.5v.4l-.4-.2.2 1.1-.6-.3-.2.3-1.7-2.1-.5-.4-.3.1.8.4 1.6 2.1.9.3-.4.2.6.1-.1.9-.6-.6-.1.6.3.2-.3.1-1.3-1.3-.1.1 1.1 1.2.6.2.3.4-.1.2h.3l-.2.4-.3.2-.9-1.2-.3.2-.5-.7-.3.4-.3-.4-.1.2-.8-.3-.1.2.8.2.2-.1.2.3.9.4.3-.2.1.7.7.4-.2.5.6-.2.3.2-.1-.5 1.3.2.6 1.8-.5-.9v.9l-.3-.2.1.2-8 .1h-8.1l-14-.8 2.1-.6.3-.5.8-.2.8-1.1 1.4-.7 1.5-1.2.1.8 1.4.8.8-.6.6.4 1.4-.3.1-.4.4.2.8-.4.3.2.6-.4.3-.5-.2-.3 1.9-2.8.6-1.6.4.2.1.5.8.3 1.1-2.1.5.3 1.7-1.8.3-1.4 1.8 1.2zm9.4 5.9l-.6 1.9-.2.2-.2-.3-.2.2.2.1-.3.3-.2 1.4-.1-.2-.2.4-.3-.8.3-1.4.4-.3.1-.6.5-.2-.3-.3.4-.5 1-.1-.3.2zm-1.7 6.6v.2l-.1-.1.1-.1zm.4-3.2h-.2l.2-.4v.4zm.3-.8l.2-.3h-.1l-.1.3zm1.4-2.5l-.1.1h-.2l.6-.8-.3.7zM901.9 629.3l6.5 19.2 6.4-19.2h3.4l-8.2 22.5h-3.2l-8.2-22.5h3.3zM929.5 641.9c.6-.1 1.1-.3 1.3-.8.1-.2.2-.6.2-1.1 0-.9-.3-1.6-1-2.1-.7-.4-1.6-.6-2.9-.6-1.4 0-2.5.4-3.1 1.2-.3.4-.6 1.1-.7 1.9h-2.6c.1-2 .7-3.4 2-4.2 1.3-.8 2.7-1.2 4.4-1.2 1.9 0 3.5.4 4.7 1.1 1.2.7 1.8 1.9 1.8 3.4v9.5c0 .3.1.5.2.7.1.2.4.3.7.3h.4c.2 0 .3 0 .5-.1v2c-.4.1-.8.2-1 .2h-.9c-1 0-1.6-.3-2.1-1-.2-.4-.4-.9-.5-1.5-.6.7-1.4 1.4-2.4 1.9-1.1.5-2.2.8-3.5.8-1.5 0-2.8-.5-3.7-1.4s-1.4-2.1-1.4-3.5c0-1.5.5-2.7 1.4-3.5 1-.8 2.2-1.4 3.7-1.5l4.5-.5zm-5.8 7.4c.6.5 1.3.7 2.1.7 1 0 1.9-.2 2.8-.7 1.5-.7 2.3-2 2.3-3.7v-2.2c-.3.2-.8.4-1.3.5-.5.1-1.1.2-1.6.3l-1.7.2c-1 .1-1.8.3-2.3.6-.9.5-1.3 1.2-1.3 2.3.1 1 .4 1.6 1 2zM938.8 648.5h3.2v3.3h-3.2v-3.3zM850.2 686.3l.7 15.4.4.6.2.6-.2.4.4.6-8.7.3-.4.3-1.9.2-.4.3-1.2.2-1.2.6-1.6.1-1.1.5-1 .1-.5-.5-2.1-.1-2 .9-1.9-.5-.3-1.9-.7-.9-.6-.3-.8.2-.6-.6h-.7l-.3-.3-.7.3-.6-.4-.4.2.3-2.1.3 1.5.2-.3.3.1-.4-.3.1-.5-.2-.4.3.2.1-.6.2.2h.3l-.5-.4h-.8l-.2-1.1.4.4v-.4l.9-.3-.7-.2-.4-.4-.4.7V697l-.4-1-.1-1.7-1.1-2.1-.2-.9.3-1-.3-.4 3 1.4 2.6.4.6-.4-.2.2.5.6.5-.3.2.7.2-.3-.2-.4.4-.1-.1.3.7 1.2-.8 1.1v-.9l-.1.4-.1-.3.1.4-1.3 2.3.4.1.9-.5-.9.4-.3-.1.7-1.2.8-.4.6-1.1.3.2-.2-.8.3.2.3.9-.3.1-.2.3-.2-.3.2.9-.4-.4v.2l.2.3-.2.3.5-.3.2.4-.3 1.5-.5-.3.2-.4v-.2l-.4.4-.2 1-.1-1.3-.7 1.3-.4.2-.1.1h.3l-.3.3.6-.5-.3.6.3-.3.1.5.2-.6v.2l.1-.2.4.4.6-.6.2-.6.4.3.4-.6-.3-1.3h.3v-.2l-.4-.3.2-.8.4-.8.5-.5-.6-.4v-.8l-.3-.1-.1.4.4.6-.6-.4v-.6h.5v-.4l-.6-.4-.1-.4-.3.2-.1-.2-.1-.4.3-.1.2.3v-.2l.3.2-.3-.8.4.2.1-.1-.2-1-.3-.2-.4.2-.2-1.1-.2-.1.3-.1v-.2l11.4.1 10.8-.6zm-27.3 15.1l-.2-.1.1-.3.1.3v.1zm4.2-12l.1.4-.6-.2-.1-.6.3-.1.3.5zm-.2-2.8l-.2.1v-.1h.2zm.7 1.6l.4.3-.3.3-.3-.6.1.6h-.3l-.2-.2-.1.2-.1-.3.3-.4h.5zm-.2 9l-.3-.3.3-.4-.1.2v.5zm.2-7.5l.1.3-.4-.4.2-.5.1.6zm.4 7.8l-.2-.2.2-.1.1.1-.1.2zm.6-7.4l.3.6-.3-.1-.5.5.5.3.1 1.1.2-.5.5.4-.1.6-.3-.5h-.3l-.2-1h-.2l-.3-.5.4-.9h.2zm-.3-.9l-.2-.2v-.2l.2.2v.2zm0 2.9l-.2.2v-.6.1l.2.3zm.3-3.5l-.4-.4v-.1l.3.3.1.2zm.3 6.2v.2l-.3-.2.1-.6.2.6zm.2 1.1l.3.2-.4.3.2-.3-.2-.1-.3.4.1-.7.2-.3.1.5zM901.6 686.2l4.2 18.3 5.1-18.3h3.3l5.1 18.3 4.2-18.3h3.3l-5.9 22.5h-3.2l-5.2-18.7-5.2 18.7h-3.2l-5.9-22.5h3.4zM938.2 698.8c.6-.1 1.1-.3 1.3-.8.1-.2.2-.6.2-1.1 0-.9-.3-1.6-1-2.1-.7-.4-1.6-.6-2.9-.6-1.4 0-2.5.4-3.1 1.2-.3.4-.6 1.1-.7 1.9h-2.6c.1-2 .7-3.4 2-4.2 1.3-.8 2.7-1.2 4.4-1.2 1.9 0 3.5.4 4.7 1.1 1.2.7 1.8 1.9 1.8 3.4v9.5c0 .3.1.5.2.7.1.2.4.3.7.3h.4c.2 0 .3 0 .5-.1v2c-.4.1-.8.2-1 .2h-.9c-1 0-1.6-.3-2.1-1-.2-.4-.4-.9-.5-1.5-.6.7-1.4 1.4-2.4 1.9-1.1.5-2.2.8-3.5.8-1.5 0-2.8-.5-3.7-1.4s-1.4-2.1-1.4-3.5c0-1.5.5-2.7 1.4-3.5 1-.8 2.2-1.4 3.7-1.5l4.5-.5zm-5.8 7.5c.6.5 1.3.7 2.1.7 1 0 1.9-.2 2.8-.7 1.5-.7 2.3-2 2.3-3.7v-2.2c-.3.2-.8.4-1.3.5-.5.1-1 .2-1.6.3l-1.7.2c-1 .1-1.8.3-2.3.6-.9.5-1.3 1.2-1.3 2.3.1.9.4 1.5 1 2zM948.5 703.6c.1.9.3 1.6.7 2.1.7.9 1.9 1.3 3.7 1.3 1 0 2-.2 2.8-.7.8-.4 1.2-1.1 1.2-2.1 0-.7-.3-1.2-1-1.6-.4-.2-1.2-.5-2.4-.8l-2.2-.6c-1.4-.3-2.5-.7-3.1-1.2-1.2-.7-1.8-1.8-1.8-3.1 0-1.6.6-2.8 1.7-3.8s2.7-1.4 4.6-1.4c2.5 0 4.3.7 5.4 2.2.7.9 1 1.9 1 3h-2.6c-.1-.6-.3-1.2-.7-1.7-.6-.7-1.8-1.1-3.4-1.1-1.1 0-1.9.2-2.4.6s-.8.9-.8 1.6c0 .7.4 1.3 1.1 1.7.4.3 1 .5 1.8.7l1.9.4c2 .5 3.4.9 4.1 1.4 1.1.7 1.6 1.8 1.6 3.3 0 1.5-.6 2.7-1.7 3.8-1.1 1.1-2.8 1.6-5.1 1.6-2.5 0-4.2-.6-5.3-1.7-1-1.1-1.6-2.5-1.7-4.1h2.6zM962.6 686.1h2.8v8.4c.7-.8 1.2-1.4 1.8-1.7.9-.6 2-.9 3.3-.9 2.4 0 4 .8 4.8 2.5.5.9.7 2.2.7 3.8v10.5h-2.8v-10.3c0-1.2-.2-2.1-.5-2.7-.5-.9-1.4-1.3-2.8-1.3-1.1 0-2.2.4-3.1 1.2-.9.8-1.4 2.3-1.4 4.5v8.7h-2.8v-22.7zM980.7 705.4h3.2v3.3h-3.2v-3.3zM840.2 745.5l-.1 3.9 1.2-.8 1-1.2.3-.1.5.2.8-.8.2-.5.2.2-.1.3.4.2 1.3.2.2-.2-.1-.2.2-.1-.1-.2.8-.1.6-.5 1.2.8.8-.1.1.3-.3.1.1.4.1-.3.1.4.3-.1-.3.4.3.2.1.7-.5 1.4-2.9-2.3-.5 1.4-.1.8-.9 1.3-.6.5h-.4l-.7 1-.8-.4-1.7 3.2-1.4-.4-.2-.6-.6-.2-.9 2.4-.7.7-.5 1.3-1.2 1.4-.5 1 .4.5-.5.4.1.4-.9.7-.5-.3-1.3.7-.6-.3-.2.7-2.1.5-.7-.7-1.2 1-.6-.1-1.1-.6-.8-1.3.2-.5-.9-.3-1-.9-1-1.9.1-.3-.9-1.3.4-.7v-1.3l1.5-.1.3-1.1.6-.2-.1-1.3.9-1.6.3-.2.3.3.3.9.4-.6.3.1-.3-1.1.4-.2v-.5l.4-.7h.6l.3-.5.4-.5h.3l.3.5.8-.4 2-1.7.3-.7-.2-.4.4-.8v-.7l.3-.1.1-1.1.8-1.8-.2-.5.2-.6-.3-1.1.8-.3-.1 7h6.3zM901.6 743.1l4.2 18.3 5.1-18.3h3.3l5.1 18.3 4.2-18.3h3.3l-5.9 22.5h-3.2l-5.2-18.7-5.2 18.7h-3.2l-5.9-22.5h3.4zM930.1 762.3h3.2v3.3h-3.2v-3.3zM940.3 743.1l6.5 19.2 6.4-19.2h3.4l-8.2 22.5h-3.2l-8.2-22.5h3.3zM967.9 755.7c.6-.1 1.1-.3 1.3-.8.1-.2.2-.6.2-1.1 0-.9-.3-1.6-1-2.1-.7-.4-1.6-.6-2.9-.6-1.4 0-2.5.4-3.1 1.2-.3.4-.6 1.1-.7 1.9h-2.6c.1-2 .7-3.4 2-4.2 1.3-.8 2.7-1.2 4.4-1.2 1.9 0 3.5.4 4.7 1.1 1.2.7 1.8 1.9 1.8 3.4v9.5c0 .3.1.5.2.7.1.2.4.3.7.3h.4c.2 0 .3 0 .5-.1v2c-.4.1-.8.2-1 .2h-.9c-1 0-1.6-.3-2.1-1-.2-.4-.4-.9-.5-1.5-.6.7-1.4 1.4-2.4 1.9-1.1.5-2.2.8-3.5.8-1.5 0-2.8-.5-3.7-1.4-1-.9-1.4-2.1-1.4-3.5 0-1.5.5-2.7 1.4-3.5 1-.8 2.2-1.4 3.7-1.5l4.5-.5zm-5.8 7.5c.6.5 1.3.7 2.1.7 1 0 1.9-.2 2.8-.7 1.5-.7 2.3-2 2.3-3.7v-2.2c-.3.2-.8.4-1.3.5-.5.1-1.1.2-1.6.3l-1.7.2c-1 .1-1.8.3-2.3.6-.9.5-1.3 1.2-1.3 2.3.1.9.4 1.5 1 2zM977.2 762.3h3.2v3.3h-3.2v-3.3zM832.3 796.2l.2.3-.7 1.6.6-.2.1-.3.7.5.6.1.1.3.6.2.4 1 3.9 1 1.1.6 1.2.1 1.4.4.4.4-.1.4.8.2.3.3v1.1l-.3.7.8-.1-.2 1.1.5.4-.2.6-.8.4-.8 1.9.3.2.3-.1.6-.6.7-1 .5-.2.4.4-.8 2.6.3.7-.6.6-.3.9.2 1.3-.8 2.4.1 1.3.5 1.3v1.6h-11.6l-.2-.8-1.3-.3-.2-.5-.3-2 .3-.8-.4-.3-.2-.6v-1.4l-.2-1.1-.4-.5-1-.3-.6-.5-.5-1-.6-.6-.7-.3-.4-.6-.8-.2-.8-.8.3-1-.2-.8.2-.3v-.9l.4-.7-.3-.8h-.5v-.7l.7-1.1 1.1-.6h.3l.3-.3.1-3.2h.3l.5-.6.5.5.7-.1 1.4-.4.8-.6.4.2.6-.4.3-.2v.2zm-.5-.2l-.1-.1.1-.2.1.1-.1.2zm.8 1.1l-.3.1.8-.6.1.2-.6.3zm.2-.8l-.3-.1.1-.1.2.1v.1zm.5 0v.2l-.4-.1.5-.2-.1.1zm.5-.5l-.3.1.3-.4v.3zm13.1 9.3h.2l.1.2-.3.1v.6l-.2-.1.2.2-.5.7v.2l-.6.7-.3-.4v-.4l.4-.5.1-.7.5-.2.4-.4zm.4-.7h.3v.3h-.4l.1-.3zM901.6 800l4.2 18.3L911 800h3.3l5.1 18.3 4.2-18.3h3.3l-5.9 22.5h-3.2l-5.2-18.7-5.2 18.7h-3.2l-5.9-22.5h3.3zM929.4 800h2.8v3.1h-2.8V800zm0 6.2h2.8v16.3h-2.8v-16.3zM938 817.4c.1.9.3 1.6.7 2.1.7.9 1.9 1.3 3.7 1.3 1 0 2-.2 2.8-.7.8-.4 1.2-1.1 1.2-2.1 0-.7-.3-1.2-1-1.6-.4-.2-1.2-.5-2.4-.8l-2.2-.6c-1.4-.3-2.5-.7-3.1-1.2-1.2-.7-1.8-1.8-1.8-3.1 0-1.6.6-2.8 1.7-3.8s2.7-1.4 4.6-1.4c2.5 0 4.3.7 5.4 2.2.7.9 1 1.9 1 3H946c-.1-.6-.3-1.2-.7-1.7-.6-.7-1.8-1.1-3.4-1.1-1.1 0-1.9.2-2.4.6-.5.4-.8.9-.8 1.6 0 .7.4 1.3 1.1 1.7.4.3 1 .5 1.8.7l1.9.4c2 .5 3.4.9 4.1 1.4 1.1.7 1.6 1.8 1.6 3.3 0 1.5-.6 2.7-1.7 3.8-1.1 1.1-2.8 1.6-5.1 1.6-2.5 0-4.2-.6-5.3-1.7-1-1.1-1.6-2.5-1.7-4.1h2.6zM952.7 819.2h3.2v3.3h-3.2v-3.3zM850.8 866.2l.1 11.4-15.4-.1-14.7-.7 1.5-22.7 13.8.7 14.4.1.3 11.3zM901.6 856.9l4.2 18.3 5.1-18.3h3.3l5.1 18.3 4.2-18.3h3.3l-5.9 22.5h-3.2l-5.2-18.7-5.2 18.7h-3.2l-5.9-22.5h3.4zM939.7 863h3.1c-.4 1.1-1.3 3.5-2.6 7.2-1 2.8-1.8 5.1-2.5 6.9-1.6 4.2-2.7 6.7-3.4 7.7-.7.9-1.8 1.4-3.4 1.4h-.9c-.2 0-.5-.1-.8-.2v-2.5c.5.1.8.2 1 .2h.6c.5 0 .9-.1 1.1-.3l.6-.6c.1-.1.2-.5.6-1.3.3-.8.5-1.3.7-1.7l-6.1-16.9h3.1l4.4 13.4 4.5-13.3zM957 864.7c1.5 1.4 2.2 3.5 2.2 6.2 0 2.6-.6 4.8-1.9 6.6-1.3 1.7-3.3 2.6-6 2.6-2.2 0-4-.8-5.3-2.3-1.3-1.5-2-3.6-2-6.2 0-2.8.7-5 2.1-6.6 1.4-1.6 3.3-2.5 5.6-2.5 2.1.1 3.9.8 5.3 2.2zm-1.7 10.9c.7-1.4 1-2.9 1-4.6 0-1.5-.2-2.8-.7-3.7-.8-1.5-2.1-2.3-4-2.3-1.7 0-2.9.6-3.6 1.9-.8 1.3-1.1 2.8-1.1 4.7 0 1.7.4 3.2 1.1 4.4.8 1.2 2 1.7 3.6 1.7 1.8 0 3-.7 3.7-2.1zM963.2 876.1h3.2v3.3h-3.2v-3.3z"/></svg>