<?xml version="1.0" encoding="utf-8"?>
<!-- Generator: Adobe Illustrator 18.1.1, SVG Export Plug-In . SVG Version: 6.00 Build 0)  -->
<svg version="1.1" id="Layer_1" xmlns="http://www.w3.org/2000/svg" xmlns:xlink="http://www.w3.org/1999/xlink" x="0px" y="0px"
	 viewBox="0 0 50 50" enable-background="new 0 0 50 50" xml:space="preserve">
<path fill="#1693A5" d="M25,0C11.2,0,0,11.2,0,25c0,13.8,11.2,25,25,25c13.8,0,25-11.2,25-25S38.8,0,25,0z M25,46
	C13.4,46,4,36.6,4,25C4,13.4,13.4,4,25,4c11.6,0,21,9.4,21,21S36.6,46,25,46z"/>
<path fill="#1693A5" d="M25,8.4c0,0-8.4,12.1-8.4,16.7s3.8,8.3,8.4,8.3s8.4-3.7,8.4-8.4C33.4,20.5,25,8.4,25,8.4z M25,27.2
	c-1.2,0-2.1-0.9-2.1-2.1c0-1.2,0.9-2.1,2.1-2.1c1.2,0,2.1,0.9,2.1,2.1C27.1,26.2,26.2,27.2,25,27.2z"/>
</svg>
