<?xml version="1.0" encoding="utf-8"?>
<!-- Generator: Adobe Illustrator 18.1.1, SVG Export Plug-In . SVG Version: 6.00 Build 0)  -->
<svg version="1.1" id="Layer_1" xmlns="http://www.w3.org/2000/svg" xmlns:xlink="http://www.w3.org/1999/xlink" x="0px" y="0px"
	 viewBox="38 0.9 74.1 74.1" enable-background="new 38 0.9 74.1 74.1" xml:space="preserve">
<path fill="#010101" d="M75,0.9c-20.5,0-37,16.6-37,37c0,20.5,16.6,37,37,37c20.5,0,37-16.6,37-37C112,17.5,95.5,0.9,75,0.9z
	 M75,64.4c-14.6,0-26.5-11.8-26.5-26.5c0-14.6,11.8-26.5,26.5-26.5c14.6,0,26.5,11.8,26.5,26.5C101.5,52.6,89.6,64.4,75,64.4z"/>
<path fill="#010101" d="M75,22.1c0,0-10.6,15.3-10.6,21.2S69.2,53.8,75,53.8c5.8,0,10.6-4.7,10.6-10.6C85.6,37.4,75,22.1,75,22.1z
	 M75,45.9c-1.5,0-2.6-1.2-2.6-2.6c0-1.5,1.2-2.6,2.6-2.6c1.5,0,2.6,1.2,2.6,2.6C77.6,44.7,76.5,45.9,75,45.9z"/>
</svg>
