<?xml version="1.0" encoding="utf-8"?>
<!-- Generator: Adobe Illustrator 18.1.1, SVG Export Plug-In . SVG Version: 6.00 Build 0)  -->
<svg version="1.1" id="Layer_1" xmlns="http://www.w3.org/2000/svg" xmlns:xlink="http://www.w3.org/1999/xlink" x="0px" y="0px"
	 viewBox="0 0 180 180" enable-background="new 0 0 180 180" xml:space="preserve">
<g>
	<g id="XMLID_4_">
		<g id="XMLID_5_">
			<path id="XMLID_2330_" fill="#231F20" d="M91.1,97.2l-0.5-2.6l-0.6-1l-0.4-2.5l-0.2-0.1l-0.6,0.6l-0.6-1l-0.4-1.5L87.1,89
				L86.7,88h-0.4l-0.8-0.7l-0.2-0.6l-0.7,1.4l-0.5,2.6l-0.6,2.1l-0.6-1.5l-1,1.7l-1.1-1.5l-0.4-0.2h-0.8l-0.8,0.4l-0.5,1.1l-0.5,0.7
				l-0.7,1.4l-0.4-0.9l-0.3,0.9h-0.7l-0.5-0.6l-0.2,0.3l-0.5,0.2l-0.5,2.1l-1.4-1.4l-1-3l-0.3-0.3l-0.6,0.3L70.2,91l-0.6-0.5
				l-0.3-0.7l-0.5,0.4l-0.6-0.4l-0.3-0.4l-0.5,1H66l-0.5,0.2h-0.6l-0.4-0.8l-0.3,0.5l-0.7,0.5l-0.9-0.5h-0.7l-0.5-1.4l-1.5-0.8
				l-0.3-0.4l-0.3-0.2l-0.5,0.6l-0.5-0.6l-0.6,1.1L57,87.4l-0.6-0.2l-0.3-0.6l-0.6,0.2l-0.5-0.8l-0.6-1.4l-0.9-1h-0.5l-0.5-0.4
				l0.3-0.4l0.3,0.2h0.6l1.1,1.3l0.6,1.4l0.2,0.4l0.6-0.2l0.5,0.9l0.6,0.2l0.2,0.5l0.5-0.9l0.6,0.8l0.4-0.4l0.8,0.4l0.3,0.4l1.5,0.8
				l0.5,1.2l0.5,0l0.7,0.4l0.4-0.3l0.7-1.2l0.7,1.3h0.3l0.5-0.2h1.2l0.7-1.5l0.8,1l0.2,0.1l0.7-0.6l0.5,1.2l0.6,0.5l0.3,1l0.4-0.2
				l0.6,0.8l1,3l0.6,0.6l0.4-1.5l0.6-0.2l0.5-0.8l0.7,1h0.1l0.6-1.7l0.5,1.1l0.3-0.5l0.5-0.7l0.5-1.2l1.1-0.6l1.1,0l0.6,0.3l0.7,1
				l1.1-1.9l0.5,1.1l0.2-0.7l0.5-2.7l0.3-0.7l1-1.8l0.5,1.7l0.5,0.4H87l0.4,1l0.6,0.2l0.5,1.7l0.2,0.3l0.4-0.4l0.8,0.3l0.5,2.7
				l0.6,1l0.2,1l0.3-0.6l0.6-0.7l0.3-1.4l0.8-1.7l0.6-1.8h0.6l0.4-0.6l0.7-0.4h0.9l0.4-0.8h0.7l0.6,0.4l0.5,1.3l0.4,0.2l0.7,1.3
				c0.1-0.2,0.2-0.3,0.2-0.4c0-0.2,0.2-0.2,0.8-0.4l0.2-0.1l0.3,0.6l0.8-1.3l0.8,0l0.3,0.2l0.5-0.3l0.3,0.2l1.5-1.8l0.6,0.6l0.5-0.2
				h0.6l0.3,0.5l1,1l0.7-0.4l0.5-0.7l0.2-0.1l0.5-0.3h0.5v0.5h-0.5l-0.4,0.2l-0.5,0.7l-1.1,0.6l-1.2-1.3l-0.2-0.3h-0.3l-0.6,0.3
				l-0.5-0.5l-1.5,1.8l-0.4-0.3l-0.5,0.3l-0.5-0.3l-0.3,0l-1.1,1.8l-0.5-0.9c-0.1,0-0.3,0.1-0.3,0.1c-0.1,0.1-0.2,0.3-0.5,0.7
				l-0.2,0.3l-1-1.8l-0.5-0.2l-0.5-1.3L97.5,88h-0.3l-0.4,0.8h-1.1l-0.5,0.3l-0.4,0.7h-0.5l-0.5,1.5L92.8,93l-0.4,1.5l-0.6,0.7
				L91.1,97.2z"/>
		</g>
	</g>
	<g id="XMLID_6_">
		<path id="XMLID_2321_" fill="#231F20" d="M119.9,90.2L119.9,90.2c-0.3-0.2-0.7-0.8-0.7-1.4c0-1,0.7-1.9,2-1.9c1.3,0,2,0.9,2,1.9
			c0,0.7-0.4,1.2-0.7,1.4v0c0.5,0.3,0.8,0.9,0.8,1.6c0,1.2-0.9,2-2.2,2c-1.3,0-2.2-0.8-2.2-2C119,91.1,119.4,90.5,119.9,90.2z
			 M121.2,92.9c0.6,0,1.1-0.4,1.1-1.1c0-0.6-0.4-1.1-1.1-1.1c-0.6,0-1.1,0.5-1.1,1.1C120.2,92.4,120.6,92.9,121.2,92.9z M122.2,88.8
			c0-0.5-0.4-0.9-0.9-0.9c-0.5,0-0.9,0.4-0.9,0.9c0,0.5,0.4,0.9,0.9,0.9C121.8,89.7,122.2,89.3,122.2,88.8z"/>
		<path id="XMLID_2325_" fill="#231F20" d="M125,88.3c0-0.8,0.6-1.5,1.5-1.5c0.8,0,1.5,0.6,1.5,1.5c0,0.8-0.6,1.5-1.5,1.5
			C125.7,89.8,125,89.2,125,88.3z M127.3,88.3c0-0.5-0.3-0.8-0.8-0.8c-0.5,0-0.8,0.3-0.8,0.8c0,0.5,0.3,0.8,0.8,0.8
			C127,89.2,127.3,88.8,127.3,88.3z"/>
		<path id="XMLID_2328_" fill="#231F20" d="M130.8,90.4c0-1.1,0-1.4,0.2-1.8c0.4-1.1,1.2-1.7,2.4-1.7c1.1,0,1.9,0.6,2.3,1.5
			c0,0,0,0.1-0.1,0.1l-0.8,0.4c-0.1,0-0.1,0-0.1,0c-0.2-0.5-0.6-0.9-1.3-0.9c-0.6,0-1,0.3-1.2,0.9c-0.1,0.3-0.1,0.5-0.1,1.5
			c0,1,0,1.3,0.1,1.5c0.2,0.5,0.6,0.9,1.2,0.9c0.7,0,1-0.4,1.3-0.9c0,0,0.1-0.1,0.1,0l0.8,0.4c0.1,0,0.1,0.1,0.1,0.1
			c-0.4,0.9-1.2,1.5-2.3,1.5c-1.1,0-2-0.6-2.4-1.7C130.8,91.8,130.8,91.5,130.8,90.4z"/>
	</g>
	<g id="XMLID_7_">
		<path id="XMLID_2298_" fill="#231F20" d="M140,87.6c-0.3,0-0.5-0.2-0.5-0.5c0-0.3,0.2-0.5,0.5-0.5c0.3,0,0.5,0.2,0.5,0.5
			C140.5,87.4,140.2,87.6,140,87.6z M139.6,93.8v-5h0.7v5H139.6z"/>
		<path id="XMLID_2301_" fill="#231F20" d="M145.2,93.8v-3.4c0-0.6-0.3-1-0.9-1c-0.5,0-1.1,0.3-1.6,0.9v3.6H142v-5h0.5l0.1,0.7
			c0.5-0.5,1.1-0.8,1.8-0.8c1,0,1.5,0.6,1.5,1.5v3.5H145.2z"/>
		<path id="XMLID_2303_" fill="#231F20" d="M151.7,93.8H150v-7.2h1.7c1.5,0,2.2,0.7,2.2,1.8c0,0.8-0.4,1.3-1.1,1.6
			c0.9,0.2,1.4,0.8,1.4,1.8C154.3,93.1,153.2,93.8,151.7,93.8z M151.7,87.2h-0.9v2.5h0.9c1,0,1.6-0.6,1.6-1.3S152.7,87.2,151.7,87.2
			z M151.7,90.3h-1v2.9h1c1.1,0,1.8-0.5,1.8-1.4C153.6,90.7,152.8,90.3,151.7,90.3z"/>
		<path id="XMLID_2307_" fill="#231F20" d="M159.5,91.3H156c0,1.2,0.6,1.9,1.6,1.9c0.7,0,1.2-0.3,1.8-0.7l0.1,0.6
			c-0.5,0.4-1.1,0.7-1.9,0.7c-1.3,0-2.2-0.9-2.2-2.6c0-1.6,0.9-2.6,2.1-2.6c1.4,0,2,1.1,2,2.5C159.5,91.2,159.5,91.3,159.5,91.3z
			 M157.4,89.3c-0.8,0-1.3,0.6-1.4,1.5h2.7C158.7,89.9,158.2,89.3,157.4,89.3z"/>
		<path id="XMLID_2310_" fill="#231F20" d="M161.5,90.7v3.1h-0.7v-5h0.5l0.2,1c0.4-0.6,0.9-1.1,1.8-1.1l0.1,0.7
			C162.5,89.4,161.8,90,161.5,90.7z"/>
		<path id="XMLID_2312_" fill="#231F20" d="M164.5,93.8v-7.4l0.7-0.1v7.5H164.5z"/>
		<path id="XMLID_2314_" fill="#231F20" d="M167.3,87.6c-0.3,0-0.5-0.2-0.5-0.5c0-0.3,0.2-0.5,0.5-0.5c0.3,0,0.5,0.2,0.5,0.5
			C167.7,87.4,167.5,87.6,167.3,87.6z M166.9,93.8v-5h0.7v5H166.9z"/>
		<path id="XMLID_2317_" fill="#231F20" d="M172.5,93.8v-3.4c0-0.6-0.3-1-0.9-1c-0.5,0-1.1,0.3-1.6,0.9v3.6h-0.7v-5h0.5l0.1,0.7
			c0.5-0.5,1.1-0.8,1.8-0.8c1,0,1.5,0.6,1.5,1.5v3.5H172.5z"/>
		<path id="XMLID_2319_" fill="#231F20" d="M174.7,93.8v-1h0.8v1H174.7z"/>
	</g>
	<g id="XMLID_8_">
		<g id="XMLID_9_">
			<path fill="#231F20" d="M111.5,86.2c0.8,0,1.4,0.6,1.4,1.4c0,0.8-0.6,1.4-1.4,1.4c-0.8,0-1.4-0.6-1.4-1.4
				C110.1,86.9,110.7,86.2,111.5,86.2"/>
		</g>
	</g>
	<g id="XMLID_10_">
		<path id="XMLID_2277_" fill="#231F20" d="M7.5,87.2v6.6H6.8v-6.6H4.5v-0.7h5.3l0.1,0.7H7.5z"/>
		<path id="XMLID_2279_" fill="#231F20" d="M11.6,93.9c-1.3,0-2.2-0.9-2.2-2.6c0-1.6,1-2.6,2.2-2.6c1.3,0,2.3,0.9,2.3,2.6
			C13.9,92.9,12.9,93.9,11.6,93.9z M11.6,89.3c-1,0-1.5,0.8-1.5,2c0,1.1,0.5,2,1.5,2c1,0,1.5-0.8,1.5-2
			C13.2,90.1,12.6,89.3,11.6,89.3z"/>
		<path id="XMLID_2282_" fill="#231F20" d="M18.6,93.8L18.5,93c-0.4,0.5-0.9,0.8-1.6,0.8c-1.1,0-2-0.8-2-2.4c0-1.8,1.1-2.7,2.3-2.7
			c0.5,0,0.9,0.1,1.3,0.3v-2.6l0.7-0.1v7.5H18.6z M18.5,89.6c-0.4-0.2-0.8-0.3-1.3-0.3c-0.9,0-1.6,0.7-1.6,2.1
			c0,1.2,0.6,1.9,1.4,1.9c0.6,0,1-0.4,1.5-0.9V89.6z"/>
		<path id="XMLID_2285_" fill="#231F20" d="M23.8,93.8l-0.1-0.7c-0.5,0.4-1,0.8-1.8,0.8c-0.9,0-1.5-0.5-1.5-1.4
			c0-1.2,0.9-1.7,3.2-1.9v-0.3c0-0.7-0.4-1-1-1c-0.6,0-1.2,0.2-1.7,0.4l-0.1-0.6c0.6-0.3,1.1-0.4,1.8-0.4c1.1,0,1.7,0.5,1.7,1.5v3.5
			H23.8z M23.6,91.1c-2,0.2-2.5,0.7-2.5,1.3c0,0.5,0.4,0.8,0.9,0.8c0.5,0,1.1-0.3,1.6-0.7V91.1z"/>
		<path id="XMLID_2288_" fill="#231F20" d="M27.6,94.4c-0.4,1-0.8,1.3-1.5,1.3c-0.1,0-0.2,0-0.3,0L25.7,95c0.1,0,0.3,0,0.4,0
			c0.4,0,0.7-0.2,0.8-0.7l0.2-0.6l-1.9-4.9l0.7-0.1l1.5,4.2l1.5-4.2h0.7L27.6,94.4z"/>
		<path id="XMLID_2290_" fill="#231F20" d="M36.3,93.8l-0.1-0.7c-0.5,0.4-1,0.8-1.8,0.8c-0.9,0-1.5-0.5-1.5-1.4
			c0-1.2,0.9-1.7,3.2-1.9v-0.3c0-0.7-0.4-1-1-1c-0.6,0-1.2,0.2-1.7,0.4l-0.1-0.6c0.6-0.3,1.1-0.4,1.8-0.4c1.1,0,1.7,0.5,1.7,1.5v3.5
			H36.3z M36.1,91.1c-2,0.2-2.5,0.7-2.5,1.3c0,0.5,0.4,0.8,0.9,0.8c0.5,0,1.1-0.3,1.6-0.7V91.1z"/>
		<path id="XMLID_2293_" fill="#231F20" d="M39.1,90.7v3.1h-0.7v-5h0.5l0.2,1c0.4-0.6,0.9-1.1,1.8-1.1l0.1,0.7
			C40.1,89.4,39.4,90,39.1,90.7z"/>
		<path id="XMLID_2295_" fill="#231F20" d="M45.6,91.3h-3.5c0,1.2,0.6,1.9,1.6,1.9c0.7,0,1.2-0.3,1.8-0.7l0.1,0.6
			c-0.5,0.4-1.1,0.7-1.9,0.7c-1.3,0-2.2-0.9-2.2-2.6c0-1.6,0.9-2.6,2.1-2.6c1.4,0,2,1.1,2,2.5C45.6,91.2,45.6,91.3,45.6,91.3z
			 M43.6,89.3c-0.8,0-1.3,0.6-1.4,1.5h2.7C44.9,89.9,44.4,89.3,43.6,89.3z"/>
	</g>
</g>
</svg>
